<svg xmlns="http://www.w3.org/2000/svg" width="93.706" height="92.801" viewBox="0 0 93.706 92.801">
  <g id="icon_6" data-name="icon 6" transform="translate(-138 -28.599)">
    <g id="Group_940" data-name="Group 940" transform="translate(138 146.416)">
      <path id="Path_2548" data-name="Path 2548" d="M6.276-90.84c3.893-11.487,13.842-19.291,25.194-22.772,11.8-3.615,26.421-4.231,37.722,1.227C87.971-103.317,96.731-80.2,91.513-60.492c-5.38,20.317-25.726,34.163-46.335,34.418a38.039,38.039,0,0,1-17.19-3.435c-5.135-2.523-9.228-6.754-12.841-11.1C7.274-50.068-.248-59.931.739-72.91,1.638-84.751,7.633-96.406,15.7-105c8.807-9.38,20.966-13.206,33.658-11.791,23.913,2.666,45.033,24.065,39.853,49.241C84.658-45.437,59.3-25.6,36.492-30.238,12.651-35.087.273-60.036,6.274-82.642c5.577-21,27.717-38.273,49.953-32.265C67.221-111.936,79.059-104.064,84.688-94a36.472,36.472,0,0,1,2.226,29.371,34.209,34.209,0,0,1-8.059,12.957.233.233,0,0,0,.329.329A35.966,35.966,0,0,0,89.677-79.37c-.7-11.056-6.342-20.231-15.075-26.857-9.521-7.224-20.931-12-33.017-10.06A44.9,44.9,0,0,0,14.038-99.739C-.716-81.085.765-51.922,20.123-37.072a38.111,38.111,0,0,0,32.666,7.017C64.319-33,74.837-40.772,81.935-50.22c7.354-9.789,10.553-21.868,7.666-33.9a43.08,43.08,0,0,0-20.659-27.118c-10.814-6.181-24.476-8.381-36.548-4.976-11.665,3.291-20.2,12.581-25.888,22.925C.778-82.878-2.418-69.914,2.23-58.487,4.62-52.61,8.761-47.581,12.652-42.641c3.81,4.838,7.952,9.655,13.312,12.827,19.395,11.481,46.995.873,59.381-16.125,12.605-17.3,10.689-42.806-3.941-58.355-8.893-9.451-20.747-12.954-33.464-12.511-12.211.427-24.794,3.819-33.689,12.612a32.871,32.871,0,0,0-8.239,13.28C5.959-90.744,6.22-90.674,6.276-90.84Z" transform="translate(0 0)" fill="#5271ff"/>
    </g>
    <g id="Group_945" data-name="Group 945" transform="translate(163.727 212.156)">
      <path id="Path_2539" data-name="Path 2539" d="M20.9-108.343c-.544-3.447-5.265-5.458-7.806-7.165-5.03-3.375-5.868-10.079-6.453-15.615a113.932,113.932,0,0,0-1.785-13.053c-.156-.694-.387-1.729-.73-2.816a11.447,11.447,0,0,0-1.382-4.345,9.461,9.461,0,0,0,1.155-.311c4.139-.446,9.076-.8,12.18-3.762a9.687,9.687,0,0,0,1.289-1.535,30.658,30.658,0,0,0,4.706-6.466,16.5,16.5,0,0,0,9.169,9.061c1.01.425,5.607,2.4,8.622,2.591.086.019.171.044.257.062a.668.668,0,0,0,.086.01,4.145,4.145,0,0,0-.533.682,6.173,6.173,0,0,0-.659,2.11,15.981,15.981,0,0,0,.03,4.4c.048,2.208.279,4.408.51,6.606a39.763,39.763,0,0,1-1.1,10.03,23.3,23.3,0,0,1-2.019,5.448c-2.582,4-6.185,7.827-10.6,9.741a.525.525,0,0,0-.324.364A12.028,12.028,0,0,0,20.9-108.343Zm20.966-43.725a1.332,1.332,0,0,0,.678-1.13.6.6,0,0,0-.3-.517,1.53,1.53,0,0,0-1.222-.159,5.576,5.576,0,0,1-1.781-.013,34.573,34.573,0,0,0-6.356-1.958l-.224-.091c-4.37-1.789-7.8-4.987-9.017-9.53-.019-.173-.037-.342-.048-.519a.143.143,0,0,0-.1-.133c-.034-.143-.067-.282-.093-.427a1.092,1.092,0,0,0-1.982-.259,42.994,42.994,0,0,1-4.981,7.718,36.9,36.9,0,0,1-5.194,4.581c-2.616.6-5.5.529-8.148,1.354a.755.755,0,0,0-.25.135,8.855,8.855,0,0,1-1.714.042.827.827,0,0,0-.8,1.1,2.6,2.6,0,0,0-.287-.011c-.03,0-.06.038-.037.067a18.839,18.839,0,0,1,2.172,4.082c.086.262.179.518.283.768,1.9,5.448,1.829,11.7,2.522,17.34.581,4.766,1.427,9.5,4.527,13.31a19.176,19.176,0,0,0,5.5,4.15,13.776,13.776,0,0,1,2.809,2.074c.961.949,1.177,2.238,1.665,3.427a.744.744,0,0,1-.037.111.865.865,0,0,0,.3,1.157,4.371,4.371,0,0,0,1.013.377.87.87,0,0,0,1.066-.6c0-.008,0-.016.007-.023a.988.988,0,0,0,.387-.463c.995-2.3,2.7-3.438,4.844-4.576a35.874,35.874,0,0,0,6.174-4.044c4.259-3.524,6.371-8.071,7.668-13.333,1.312-5.331,1.073-10.274.361-15.635a17.165,17.165,0,0,1,.015-6.626C41.436-150.866,41.749-151.481,41.868-152.068Z" transform="translate(0)" fill="#1f2327"/>
      <path id="Path_2540" data-name="Path 2540" d="M29.345-101.186c-.145-.1-.276-.208-.417-.311.224-.25.447-.5.663-.756.585.367,1.2.676,1.8,1.027a7.736,7.736,0,0,0,1.591,1.713,1.162,1.162,0,0,0,.458.566,5.263,5.263,0,0,1,.291.682.221.221,0,0,0,.257.15c-.1.148-.2.3-.313.447-.153.212.052.452.265.47-.1.169-.2.34-.294.513A11.809,11.809,0,0,0,29.345-101.186ZM22.5-109.322q.173.289.358.572a.227.227,0,0,0,.212.307,15.49,15.49,0,0,0,3.6,3.6c.287.323.581.634.89.935-.116.351-.227.7-.328,1.061A17.206,17.206,0,0,1,22.5-109.322Zm-.361-20.633c-.324.576-.663,1.145-1.01,1.711-.238-.326-.484-.649-.749-.959-.007-.046-.015-.1-.022-.143,0-.025-.048-.019-.045.006s.007.048.011.072c-.134-.156-.265-.316-.406-.47-.119-.127-.361,0-.3.174.291.787.563,1.579.831,2.374-.115.178-.227.358-.332.541a16.11,16.11,0,0,0-.879-3.393A8.833,8.833,0,0,0,22.143-129.955Zm10.69-6.671c.279.4.585.784.905,1.161-.019-.011-.037-.023-.06-.034-.171-.194-.3-.26-.387-.2-.209-.106-.414-.214-.626-.313-.186-.086-.35.177-.164.279.164.092.317.195.477.293,0,.006-.011.01-.015.016-.2.336-.391.674-.585,1.012a.2.2,0,0,0-.164.006c-.745.436-1.524.786-2.258,1.218.052-.156.1-.317.145-.474A14.32,14.32,0,0,0,32.832-136.626Zm11.032,8.2c.164.085.328.173.5.253C44.222-128.105,44.047-128.23,43.864-128.429Zm1.535-1.755a9.989,9.989,0,0,0-.514,2.588.166.166,0,0,0-.231.112c-.134.522-.566.141-.984-.388a2.7,2.7,0,0,0-.048-.493,6.6,6.6,0,0,1,.838.75c.082.1.216,0,.227-.094.037-.194.071-.388.1-.581.2-.235.164-.244.149-.462a.154.154,0,0,0,0-.108,2.9,2.9,0,0,1,.037-.44c.03-.2-.268-.28-.3-.082-.093.61-.585.659-1.23.428-.052-.074-.108-.145-.156-.211-.075-.093-.183-.033-.212.056-.13-.061-.261-.129-.4-.2-.019-.314-.045-.628-.086-.941A10.564,10.564,0,0,0,45.4-130.184Zm-1.077,20.122c-.026-.146-.06-.293-.089-.44a15.923,15.923,0,0,0,.894-6.051.3.3,0,0,0-.563-.154c-.324.6-.641,1.2-.961,1.807a17.367,17.367,0,0,0-.619-1.982c.082-.361.164-.72.242-1.079.209.247.425.49.645.728a.2.2,0,0,0,.324-.085,8.008,8.008,0,0,0-.354-3.566q.2-.966.384-1.918c.16.13.32.259.469.394a.188.188,0,0,0,.279-.023c.007.148.015.3.019.436C45.172-118,45.593-113.934,44.323-110.062Zm-5.511,7.512a9.306,9.306,0,0,0-.011-1.705c.089-.184.183-.367.268-.553a11.864,11.864,0,0,1,1.4-.106.212.212,0,0,0,.209-.212c0-.276,0-.552,0-.829a1.871,1.871,0,0,0,.592-1.152.181.181,0,0,0,.22-.194,5.644,5.644,0,0,0-.127-.83,6.147,6.147,0,0,0,.123-1.388c.015-.032.034-.064.048-.1.063.157.119.313.19.469a.117.117,0,0,0,.16.041,4.152,4.152,0,0,0,.637-.444c.082.073.16.148.246.218a.207.207,0,0,0,.343-.09,8.163,8.163,0,0,0,.16-.973c.06-.093.119-.186.171-.284.048.076.1.148.153.221a20.028,20.028,0,0,1-1.2,2.74c-.171.328.324.62.5.291a21.927,21.927,0,0,0,1.118-2.48c.06.072.116.145.179.215C43.16-106.887,40.936-104.624,38.812-102.55Zm-1.334,1.3c.045-.24.086-.5.13-.769.119-.2.238-.408.354-.614.145.134.287.271.44.4a.2.2,0,0,0,.063.029c-.112.107-.224.215-.332.322C37.922-101.681,37.7-101.469,37.478-101.252Zm-.894.876c.108-.162.212-.327.317-.49.03.031.056.063.082.094Zm-6.55-2.419c.339.3.678.611,1.006.918,0,.007,0,.013,0,.019-.358-.2-.73-.394-1.118-.6-.034-.018-.067-.04-.1-.059C29.892-102.606,29.96-102.7,30.034-102.795Zm-2.72-1.618a.2.2,0,0,0,.294-.169c-.011-.224-.03-.446-.052-.67.108.131.22.261.335.388-.093.253-.183.509-.268.765-.123-.114-.246-.232-.365-.351Zm-1.427-1.607s0,0,0,0c.253-.191.5-.392.745-.589.06.121.13.24.2.358a12.246,12.246,0,0,1,.242,1.235,10.519,10.519,0,0,1-.931-.663C26.059-105.794,25.973-105.905,25.887-106.02Zm-1.963-3.132a15.761,15.761,0,0,0,1.639,2.911.154.154,0,0,0,0,.058,13.228,13.228,0,0,1-2.139-2.513C23.592-108.846,23.756-109,23.924-109.151Zm-2.537-5.793a5.635,5.635,0,0,0-.145.851c-.026-.192-.056-.383-.082-.576C21.237-114.759,21.308-114.853,21.386-114.944Zm.7-14.306c.119.222.25.431.376.647-.309.233-.179.629.4,1.191-.179.34-.354.679-.529,1.021q-.469-.821-1.006-1.584c.253-.459.5-.921.741-1.385A.2.2,0,0,0,22.087-129.25Zm2.485-1.27c-.138.235-.272.472-.406.708-.145-.149-.294-.3-.44-.455C24.009-130.342,24.292-130.426,24.572-130.52Zm3.022-.554a11.121,11.121,0,0,1-1.386-.1,17.808,17.808,0,0,0,2.247-1.258Q28.018-131.76,27.594-131.075Zm1.516-.846a.155.155,0,0,0-.209.13c-.015.166-.022.332-.026.5-.019.052-.041.1-.06.155-.242.029-.488.047-.734.057.253-.413.51-.823.775-1.23a.2.2,0,0,0,.287.142c.019-.013.041-.025.063-.038C29.173-132.113,29.144-132.015,29.11-131.921Zm1.848.094c-.06-.18-.13-.361-.212-.548-.037-.086-.164-.023-.145.062l.179.708c-.13.043-.246.08-.32.107a7.762,7.762,0,0,1-.943.247,1.814,1.814,0,0,1-.041-.427,1.837,1.837,0,0,0-.015.425.015.015,0,0,1,0,.012h0c0-.005,0-.008,0-.013l-.112-.233c.052-.131.1-.26.153-.391a1.85,1.85,0,0,0-.026.2,2.729,2.729,0,0,1,.324-.885c.507-.3,1.017-.587,1.55-.856-.019.009.183-.063.473-.17a.466.466,0,0,1,.086.015Q31.422-132.7,30.958-131.827Zm10.839,2.2c-.123.277-.242.555-.361.833-.294-.29-.559-.571-.749-.782a.22.22,0,0,0-.428-.1c-.075.25-.16.5-.238.753a.348.348,0,0,0-.119.173,19.249,19.249,0,0,0-1.99-2.1c.015-.114.041-.226.056-.34.037-.275-.346-.4-.428-.118-.011.039-.026.077-.037.117-.063-.052-.127-.107-.194-.158a.162.162,0,0,0-.149-.025c-.156-.158-.309-.317-.473-.473-.1-.094-.212-.2-.335-.3.168.075.335.148.5.225a.166.166,0,0,0,.2-.259c-.257-.3-.514-.6-.779-.892a15.389,15.389,0,0,0,3.42,1.989C40.384-130.579,41.081-130.091,41.8-129.628Zm.078-.174c-.473-.314-.939-.658-1.338-.961a12.593,12.593,0,0,0,1.58.426C42.035-130.16,41.957-129.981,41.875-129.8Zm.3.191c.037-.023.071-.005.093.058C42.236-129.573,42.2-129.592,42.173-129.611Zm.179,1.648c-.22-.18-.451-.387-.674-.6a5.831,5.831,0,0,1,.373-.9l.253.157C42.341-128.859,42.355-128.412,42.352-127.962Zm.354.265c.007-.3.011-.595.007-.892.212.385.421.771.619,1.159A1.079,1.079,0,0,1,42.706-127.7Zm.652,5.411a8.169,8.169,0,0,0-1.032-2.132v-.006a9.866,9.866,0,0,0,1.617,1.4c-.1.493-.2.986-.313,1.485C43.544-121.785,43.455-122.034,43.358-122.286Zm-.913,4.062c.056-.155.119-.307.179-.46l.3.367c-.06.267-.123.535-.186.8C42.642-117.759,42.542-118,42.445-118.224Zm-.015,1.984c-.1-.211-.19-.422-.3-.627,0-.162,0-.323,0-.486.075-.221.153-.442.231-.662.089.235.19.6.283.873C42.579-116.841,42.5-116.54,42.43-116.24Zm.809,2.028c-.164-.484-.347-.962-.544-1.432.067-.272.13-.543.194-.814.164.49.317.983.451,1.483.034.13.063.263.1.4C43.369-114.457,43.3-114.335,43.239-114.212Zm.417,1.328c-.048-.168-.1-.335-.153-.5.037-.065.071-.13.1-.194C43.633-113.349,43.652-113.116,43.656-112.884Zm.2.767a6.885,6.885,0,0,0-.067-1.826c.25-.476.5-.952.749-1.427a15.611,15.611,0,0,1-.57,3.717C43.935-111.807,43.9-111.962,43.861-112.117Zm-.089.538c.03.112.056.224.086.336-.052.175-.112.349-.168.523q-.061-.1-.123-.213A4.205,4.205,0,0,0,43.771-111.579Zm-.451.185a10.38,10.38,0,0,0-.123-1.4l.156-.3c.093.308.19.616.272.927a4.667,4.667,0,0,1-.209.961C43.384-111.27,43.35-111.333,43.32-111.394ZM41.852-110.2c.171.178.346.351.529.519-.227.092-.432-.067-.611-.364C41.8-110.1,41.826-110.151,41.852-110.2Zm-.7,1.347c.037-.073.074-.147.115-.219-.011.133-.022.266-.045.4C41.2-108.736,41.171-108.8,41.148-108.856Zm-.462,2.3c.041-.054.078-.11.115-.167a1.846,1.846,0,0,1-.115.249Zm-1.233.9.011-.028a2.338,2.338,0,0,0,.767-.4.961.961,0,0,1-.015.108A2.183,2.183,0,0,1,39.453-105.653Zm-.1.212a2.852,2.852,0,0,0,.7-.166,1.237,1.237,0,0,1-.767.316Zm-2.131,4.071a.267.267,0,0,1-.045.075Zm-2.172-1.009c.063.073.123.148.186.221-.075-.049-.142-.105-.216-.154C35.034-102.336,35.042-102.358,35.053-102.38Zm-.749-.449c.067-.063.13-.129.194-.193a.4.4,0,0,1,.041.025c.048.062.1.124.149.186-.03.064-.056.132-.082.2C34.505-102.684,34.4-102.753,34.3-102.828Zm-.935.791c.19-.142.376-.292.559-.45.164.126.328.251.5.371-.041.129-.086.257-.115.39-.022.093-.086,1.434-.2,1.381-.2-.09-.395-.176-.589-.26C33.484-101.084,33.428-101.56,33.369-102.037Zm-.864.9q-.095-.113-.2-.225a8.244,8.244,0,0,0,.73-.431c.041.329.089.658.123.99a.111.111,0,0,0,0,.035c-.2-.094-.4-.195-.6-.3C32.542-101.094,32.523-101.118,32.5-101.139ZM28.6-105.477c.056.045.112.086.171.127a21.47,21.47,0,0,0,1.382,1.967,23.782,23.782,0,0,1-1.725-1.652C28.477-105.184,28.536-105.329,28.6-105.477Zm-1.379-1.576a7.976,7.976,0,0,0,1.028,1.269c-.052.126-.1.251-.149.378a8.157,8.157,0,0,1-.723-.982C27.325-106.61,27.277-106.832,27.217-107.053Zm-.727.125a.03.03,0,0,0,.007.016C26.334-106.677,26.33-106.678,26.491-106.928ZM23.6-110.314a.2.2,0,0,0-.019.041c-.067-.18-.127-.359-.186-.539C23.465-110.646,23.532-110.479,23.6-110.314Zm-.44-2.559c-.022.067-.045.132-.063.2a18.549,18.549,0,0,1-.611-1.955A16.051,16.051,0,0,1,23.16-112.874Zm-.8-3.284c.4.743.786,1.5,1.166,2.25-.048.126-.093.253-.138.379a23.713,23.713,0,0,0-1.155-2.4c0-.018,0-.037-.007-.054C22.269-116.043,22.314-116.1,22.359-116.158Zm-.209-.782c.022-.052.048-.1.071-.157l.134.294c-.063.085-.123.171-.186.255C22.158-116.678,22.154-116.809,22.15-116.94Zm-.794-5.028a14.317,14.317,0,0,0,.853,2.254.177.177,0,0,0-.119.256l.022.048a.18.18,0,0,0-.052.084,7.733,7.733,0,0,0-.2.892,16.344,16.344,0,0,1-.82-3.253C21.148-121.777,21.252-121.874,21.356-121.967Zm.1-1.788c.089.3.179.593.276.888-.071.07-.145.138-.22.207a7.2,7.2,0,0,1-.171-.886C21.386-123.619,21.423-123.688,21.461-123.756Zm-.156-.559a.2.2,0,0,0-.019.043c0-.051-.007-.1-.007-.151C21.286-124.386,21.3-124.351,21.3-124.315Zm1.8,0c-.242.3-.5.58-.767.855l-.525-.942c.194-.414.391-.827.585-1.241C22.631-125.2,22.865-124.754,23.1-124.314Zm1.133-3.075c.108.281.287.641.436.954l-.156.228c-.13-.164-.294-.372-.5-.643-.22-.291-.425-.591-.622-.895.123-.26.253-.518.38-.776C23.927-128.144,24.084-127.768,24.233-127.389Zm3.871-2.9s0,0,0-.006c.123.011.242.018.365.026-.324.769-.674,1.528-1.043,2.277q-.335-.439-.682-.866c.268-.446.533-.895.8-1.341A3.038,3.038,0,0,1,28.1-130.285Zm1.755.553-.436.839a11.207,11.207,0,0,1-.265-1.933l.075-.013C29.371-130.539,29.639-130.1,29.859-129.732Zm1.975-.173c-.238-.467-.477-.934-.712-1.4.011-.026.026-.05.037-.075a9.3,9.3,0,0,0,1.282-.625A19.95,19.95,0,0,1,31.834-129.9Zm.868-3.351a.179.179,0,0,0-.033.086s-.007,0-.007-.007c-.037-.23-.071-.46-.1-.688l.119-.046a2.981,2.981,0,0,0,.1.309C32.754-133.495,32.728-133.381,32.7-133.256Zm.8,4.284c.067.146.261.1.335,0a2.665,2.665,0,0,0,.477-1.057c.168.189.35.37.525.553a22.215,22.215,0,0,1-.846,2.379c-.06-.024-.119-.046-.179-.068-.395-.463-.771-.938-1.129-1.41a12.239,12.239,0,0,1-.7-1.06q.347-.913.622-1.857A14.124,14.124,0,0,0,33.5-128.972Zm2.072-3.855c.007-.162.011-.327.015-.492.067.07.138.133.2.2C36.823-132.053,36.253-132.392,35.574-132.827Zm1.774,2.117c-.037.128-.078.254-.119.382-.067-.058-.142-.111-.209-.171-.522-.445-1.017-.893-1.528-1.314.019-.178.034-.357.048-.537A19.765,19.765,0,0,1,37.348-130.71Zm2.3,2.914c-.179-.28-.354-.559-.536-.839.119,0,.235-.13.153-.247-.343-.481-.7-.938-1.08-1.379.354.341.682.71,1.006,1.07.231.254.451.516.671.781C39.788-128.2,39.71-128,39.643-127.8Zm1.151.564c-.112.276-.22.553-.328.83-.156-.281-.317-.56-.484-.837.082-.238.16-.48.235-.721C40.411-127.718,40.6-127.476,40.794-127.232Zm.417-1.025-.346-.841a2.38,2.38,0,0,0,.428.64C41.267-128.392,41.241-128.324,41.212-128.258Zm.958,8.417a11,11,0,0,0-.809-.89q.19-.583.358-1.171c.1.095.19.189.283.283a.148.148,0,0,0,.246-.142c-.022-.107-.052-.209-.074-.314a.211.211,0,0,0,.034-.364c-.048-.035-.1-.072-.145-.106-.026-.106-.052-.214-.082-.319.1-.4.194-.794.276-1.194.253.651.514,1.3.76,1.947C42.724-121.357,42.445-120.6,42.169-119.841Zm-.525,1.446c-.138-.19-.272-.384-.41-.583q-.089-.379-.212-.755c.056-.155.108-.313.164-.47.32.293.663.586.782.727l.045.057Zm.7-.631.157.189c-.048.129-.1.254-.153.383-.037-.086-.071-.169-.108-.253C42.27-118.814,42.307-118.92,42.341-119.026Zm.253,3.8.011-.054c.171.449.332.9.484,1.352-.026.053-.056.105-.086.158C42.888-114.259,42.75-114.744,42.594-115.227Zm.015,2.21a9.887,9.887,0,0,1-.276-1.189c.022-.081.041-.162.063-.243.116.411.224.827.309,1.247C42.672-113.14,42.642-113.078,42.609-113.017Zm-1.125,1.826c.261-.857.51-1.717.741-2.583a9.9,9.9,0,0,0,.265.987l-.905,1.721Zm-.8,3.815a.215.215,0,0,0,.156-.013c-.048.1-.1.2-.156.3Zm-.428.19v.1c0,.214,0,.4,0,.563a2.47,2.47,0,0,1-.6.463C39.859-106.436,40.057-106.812,40.258-107.186Zm-1.688,1.406c-.007,0-.011.006-.015.006-.019-.074-.034-.146-.052-.219a4.027,4.027,0,0,1,1.352-1.942c-.052.139-.1.281-.156.419q-.469.863-.946,1.718C38.689-105.793,38.633-105.783,38.57-105.781Zm-2.12,3.917a9.674,9.674,0,0,0-1.136-1.006,3.8,3.8,0,0,1,1.3-1.171c.224.261.455.514.689.763Q36.884-102.566,36.45-101.864Zm-1.61-1.518a14.462,14.462,0,0,0,1.129-1.419c.1.124.2.248.309.371-.171.1-.343.2-.507.31a3.072,3.072,0,0,0-.835.864C34.907-103.3,34.874-103.34,34.84-103.382Zm-1.427-.155a1.194,1.194,0,0,1,.708.274c-.056.058-.108.119-.168.176C33.771-103.231,33.592-103.386,33.413-103.537Zm-.16.678c-.007-.067-.015-.126-.019-.181.115.1.235.194.354.29-.093.083-.186.171-.283.25C33.287-102.619,33.272-102.738,33.253-102.858Zm-.924-3.154c.019-.026.034-.054.052-.081a.134.134,0,0,0,.078-.109c.283.542.592,1.07.92,1.582-.093.166-.183.332-.276.5-.067-.028-.134-.059-.2-.086a.149.149,0,0,0-.186.076c-.116-.105-.231-.214-.347-.322a.138.138,0,0,0,.086-.127C32.437-105.065,32.392-105.541,32.329-106.013Zm-3.2-.745c.022-.054.048-.109.071-.164,0,0,.007,0,.007.007.32.319.645.627.976.927.354.372.708.744,1.069,1.11.022.026.048.051.075.077q-.375.581-.782,1.147A21.886,21.886,0,0,0,29.125-106.758Zm.41,1.825a.179.179,0,0,0,.116,0c.186.412.373.824.551,1.24.272.617-.559-.731-.954-1.368C29.345-105.013,29.438-104.969,29.535-104.933Zm-.79-.926c.067-.165.134-.331.2-.494.16.307.32.616.473.931a3.106,3.106,0,0,1-.659-.408C28.756-105.84,28.752-105.851,28.745-105.859Zm-1.069-1.633c.145.361.3.713.477,1.056a8.487,8.487,0,0,1-.667-.89Zm-.555-.417.257-.4c.041.128.082.257.127.382l-.257.23C27.206-107.766,27.165-107.837,27.12-107.909Zm-.429-1.85c-.015.084.265.4.607.76l-.425.661c-.048-.089-.1-.179-.149-.267s-.082-.2-.119-.3A4.277,4.277,0,0,1,26.692-109.759Zm-1.613-2.38c.045-.081.093-.161.142-.241.209.239.425.471.645.7-.116.125-.238.244-.354.367C25.369-111.592,25.224-111.866,25.079-112.139Zm-.857,1.569c.179-.34.354-.682.5-.943a.03.03,0,0,0,.007-.014c.116.22.227.442.343.661-.261.26-.522.518-.79.772C24.266-110.253,24.244-110.413,24.222-110.57Zm-.175.325c.019.051.037.1.06.153-.019-.049-.041-.1-.063-.15C24.047-110.244,24.047-110.245,24.047-110.245Zm-.2-.536-.011.022c-.183-.447-.361-.9-.533-1.354.015-.058.033-.116.048-.174C23.51-111.786,23.67-111.283,23.845-110.781Zm.663-1.184c-.142.238-.276.477-.41.718a13.156,13.156,0,0,0-.518-1.768c.052-.156.1-.313.16-.468C23.994-112.976,24.251-112.472,24.509-111.966Zm-1.33-5.287q.481.892,1.013,1.753c-.138.3-.272.608-.4.917a19.085,19.085,0,0,1-1.129-1.976C22.836-116.79,23.007-117.02,23.178-117.253Zm-.484-.935c.089.183.179.367.276.548-.164.23-.335.457-.5.685-.052-.115-.1-.232-.153-.348C22.441-117.591,22.567-117.889,22.694-118.188Zm-.3-.613c.011.029.026.058.041.088-.078.155-.156.308-.231.463.011-.12.022-.241.041-.362S22.321-118.789,22.4-118.8Zm-.507-3.657a.122.122,0,0,0,.2-.116c0-.023-.011-.047-.015-.07.056-.054.112-.109.164-.163q.537.989,1.162,1.921c.026.049.056.1.082.148-.235.433-.466.869-.689,1.306a18.354,18.354,0,0,1-1.155-2.791Zm.16-.717c-.019.021-.041.041-.063.063-.019-.094-.037-.192-.056-.292C21.971-123.326,22.012-123.25,22.049-123.173Zm1.941.453a.181.181,0,0,0,.335-.091c-.007-.226-.034-.447-.052-.67.037.349.089.7.153,1.04-.261.464-.514.93-.771,1.4-.373-.683-.749-1.366-1.121-2.05.265-.275.518-.559.768-.847C23.525-123.528,23.752-123.118,23.991-122.72Zm-.052-.787c-.142-.234-.272-.475-.4-.713.082-.1.164-.193.246-.291C23.871-123.982,23.946-123.493,23.938-123.508Zm.272-1.553a.056.056,0,0,1,.007.022c-.011.376-.007.75.019,1.12-.041-.327-.093-.653-.157-.973C24.121-124.948,24.166-125,24.21-125.061ZM24-125.479l-.045.058c-.022-.092-.041-.183-.063-.273C23.924-125.623,23.961-125.551,24-125.479Zm.8-.382c.03-.037.056-.075.082-.113C24.985-125.746,24.993-125.658,24.8-125.862Zm1.669-1.831c.089.337.186.674.283,1.01q-.548,1.045-1.125,2.081c-.075-.1-.153-.209-.231-.311a.176.176,0,0,0,.015-.124c-.108-.355-.22-.768-.339-1.2.179-.259.354-.521.529-.787s.358-.556.533-.837Q26.3-127.774,26.472-127.692Zm.585.428c-.022-.1-.048-.2-.074-.3a.169.169,0,0,0,.063-.191c-.026-.069-.056-.144-.086-.221l.279.354C27.18-127.5,27.12-127.383,27.057-127.264Zm.674.271a7.308,7.308,0,0,0,.063,1.246l-.224.427-.235-.749c-.056-.178-.108-.413-.16-.666.1-.194.2-.387.3-.583C27.564-127.209,27.649-127.1,27.731-126.993Zm.037-.533-.112-.148.2-.407C27.821-127.9,27.787-127.711,27.769-127.526Zm1.624-.382s0,0,0-.008v-.006A.02.02,0,0,1,29.393-127.908Zm.753-1.33a16.583,16.583,0,0,0,.827,1.478c-.175.391-.361.778-.555,1.164-.142-.2-.283-.409-.436-.6-.071-.175-.145-.349-.212-.527s-.13-.382-.186-.573l.514-1.022C30.112-129.293,30.135-129.26,30.146-129.237Zm.235-.644a5.164,5.164,0,0,0,.809.6.067.067,0,0,0,.1-.057c0-.1,0-.205,0-.305q.095.342.2.683c-.127.312-.253.622-.391.929-.138-.242-.272-.485-.4-.72-.156-.281-.305-.568-.451-.856C30.287-129.7,30.336-129.791,30.381-129.881Zm.529-1.028.089.183c.026.113.056.228.086.342a.525.525,0,0,1-.633.359l.19-.371C30.727-130.569,30.82-130.737,30.91-130.91Zm.682,1.67q-.084-.282-.168-.566c.034.034.063.068.1.1,0,0,0,.008.007.013.041.085.086.171.13.256C31.64-129.37,31.617-129.3,31.591-129.239Zm-.369,1.418c.123-.273.246-.548.361-.824a22.379,22.379,0,0,0,.835,2.241c.186.343.078.268-.32-.226A6.045,6.045,0,0,1,31.223-127.821Zm1.915,1.327a6.728,6.728,0,0,0,.224.778q-.38.783-.812,1.546c-.22-.221-.443-.439-.686-.643-.093-.081-.283-.007-.231.133.123.325.253.646.384.968a18.358,18.358,0,0,0-1.475-2.71c.194-.379.384-.76.563-1.144a7.74,7.74,0,0,0,1.7,1.859c.1.073.2-.064.153-.154a18.657,18.657,0,0,1-1.256-3.047c.037-.086.071-.171.108-.257.16.319.324.637.484.956Q32.724-127.354,33.138-126.494Zm1.8-2.458q.615.777,1.215,1.577c-.164.4-.335.8-.51,1.2a7.567,7.567,0,0,0-1.375-.805C34.516-127.628,34.743-128.283,34.934-128.952Zm.171-.25a.119.119,0,0,0-.1-.016c0-.023.011-.047.015-.071C35.049-129.26,35.075-129.23,35.1-129.2Zm.045-.6c.224.342.443.684.663,1.027-.074-.121-.4-.533-.693-.89C35.131-129.713,35.138-129.759,35.15-129.8Zm-.753-1.118c.2.285.4.568.589.86l.011.019c-.015.058-.034.116-.048.174-.086-.1-.164-.189-.227-.253-.13-.142-.25-.291-.376-.434a2.14,2.14,0,0,0-.119-.589C34.281-131.071,34.341-131,34.4-130.922Zm.827-.112c-.048-.071-.1-.143-.145-.213-.287-.392-.6-.747-.917-1.113-1.23-1.423.864.573,1.054.723l.1.083C35.288-131.38,35.261-131.206,35.224-131.034Zm1.449,2.311a21.549,21.549,0,0,0-1.319-2.124c.034-.2.067-.4.093-.6.574.472,1.118.965,1.68,1.434C36.983-129.579,36.834-129.15,36.674-128.723Zm3.089,4.179q-.3-.311-.581-.634.358-.843.671-1.709c.164.277.324.557.477.839C40.139-125.55,39.949-125.047,39.762-124.545Zm.876,3.789a3.512,3.512,0,0,0,.268.289c-.022.067-.045.133-.071.2C40.772-120.43,40.709-120.592,40.638-120.755Zm1.177,3.309.134-.4c-.007.192-.026.38-.03.572C41.89-117.332,41.849-117.387,41.815-117.447Zm-1.557,6.375c.011-.06.026-.119.037-.179.175-.206.317-.285.429-.282.093.123.186.248.283.367-.123.377-.25.752-.376,1.126A10.372,10.372,0,0,0,40.258-111.072Zm-.775,2.661c.075.071.153.133.227.2a2.518,2.518,0,0,0-.481.4C39.319-108.005,39.4-108.208,39.483-108.411Zm-1.617.366c.231-.457.451-.911.663-1.355.108.122.227.238.343.358a8.314,8.314,0,0,0-.428,2.284.107.107,0,0,0,.071.105c-.041.088-.078.177-.112.268Q38.173-107.223,37.866-108.045Zm-1.032,1.9c.265-.451.518-.908.756-1.367a17.047,17.047,0,0,1,.507,1.841A5.449,5.449,0,0,1,36.834-106.141Zm-.056.09a5.746,5.746,0,0,0,1.334.526c-.045.149-.086.3-.123.443a6.955,6.955,0,0,0-1.3.451c-.156-.179-.309-.357-.466-.537Q36.51-105.6,36.778-106.05Zm-1.829-.591q.57-1.055,1.129-2.117c.339.27.686.534,1.047.785a.167.167,0,0,0,.25-.143c.011.025.019.05.03.076-.305.573-.626,1.136-.969,1.688-.1-.057-.2-.113-.294-.171-.048-.031-.089.045-.045.076.093.061.19.118.287.176q-.235.376-.481.741C35.586-105.9,35.269-106.275,34.948-106.642Zm-6.148-.6c.019.015.033.028.052.042l-.011.022C28.827-107.2,28.816-107.226,28.8-107.246Zm-1.136-1.383c-.015-.016-.033-.031-.048-.047v0C27.631-108.663,27.649-108.646,27.664-108.629Zm.876-.276c-.063.064-.127.129-.194.192-.138-.156-.272-.312-.41-.468.1-.153.2-.307.294-.462C28.328-109.4,28.432-109.15,28.54-108.906Zm-1.818-3.037c.365.436.749.856,1.144,1.262.056.179.108.358.171.534a.117.117,0,0,1-.019.029,14.3,14.3,0,0,1-1.7-1.394C26.457-111.654,26.591-111.8,26.722-111.942Zm-.991-1.279c.179.243.358.484.54.722.052.067.108.13.16.2-.142.155-.276.313-.417.468l-.011.01c-.231-.235-.458-.477-.678-.729C25.459-112.776,25.593-113,25.731-113.221Zm-1.118-2.42c.358.535.723,1.063,1.077,1.585.015.034.03.069.048.1-.026.037-.048.073-.071.109-.16-.225-.32-.45-.477-.679-.22-.324-.425-.661-.63-1C24.579-115.559,24.594-115.6,24.613-115.641Zm-1.226-1.908q.492.806,1.017,1.594c-.019.035-.033.07-.048.106-.25-.42-.492-.844-.727-1.271-.052-.092-.149-.239-.257-.407C23.376-117.534,23.383-117.541,23.387-117.549Zm-.559-.963c.108.2.224.395.339.591a.23.23,0,0,0-.026.038c-.127-.193-.25-.388-.343-.554C22.81-118.462,22.817-118.487,22.828-118.512Zm2.06-2.054c-.157.253-.313.506-.473.758-.067-.086-.142-.168-.209-.254s-.116-.186-.164-.275c-.067-.119-.13-.239-.194-.357.22-.42.447-.838.678-1.252C24.628-121.484,24.751-121.024,24.889-120.566ZM25.116-123c.168.437.313.878.44,1.324-.145.248-.291.493-.44.739-.052-.165-.1-.328-.153-.493q-.129-.445-.224-.9C24.866-122.556,24.989-122.78,25.116-123Zm-.157-.395c-.1.183-.2.365-.305.547a12.157,12.157,0,0,1-.153-1.6C24.661-124.105,24.818-123.754,24.959-123.4Zm.447-.8-.123-.181c-.074-.107-.145-.217-.216-.326.123.13.253.275.384.428Zm.928,1.04.033.053c-.026.044-.048.089-.074.134-.235-.3-.462-.607-.678-.919.022-.038.045-.077.063-.114C26-123.624,26.267-123.269,26.334-123.158Zm.145-.145c-.2-.339-.41-.672-.633-1,.142-.251.283-.5.421-.752.216-.382.425-.766.63-1.15l.414,1.368C27.038-124.321,26.759-123.811,26.48-123.3Zm1.528.975c-.127.212-.257.425-.384.638a.343.343,0,0,1-.309-.06c-.186-.373-.38-.744-.581-1.109.253-.456.507-.914.756-1.376C27.672-123.6,27.851-122.968,28.007-122.328Zm-.224-2.457.011.206c-.015-.049-.026-.1-.041-.148A.515.515,0,0,1,27.784-124.785Zm.369-1.644a.415.415,0,0,0-.03.059c0-.037,0-.071-.007-.107A.345.345,0,0,1,28.152-126.429Zm.179-.343c-.078-.1-.153-.2-.227-.306,0-.8.089-1.515.425-1.228.138.119.268.252.4.382C28.726-127.54,28.529-127.155,28.331-126.772ZM29.6-125.06c-.145-.189-.287-.379-.428-.571-.03-.152-.06-.3-.086-.457-.011-.056-.093-.032-.086.023.015.089.034.179.048.268-.145-.2-.294-.4-.44-.595.2-.406.417-.808.622-1.215.153.172.306.348.447.533.134.356.283.709.44,1.06C29.948-125.695,29.777-125.376,29.6-125.06Zm2.031,2.441a29.62,29.62,0,0,1-1.9-2.278c.164-.3.328-.6.488-.9.466,1.025.991,2.035,1.5,3.049C31.688-122.707,31.659-122.663,31.632-122.619Zm.753-1.261a1.341,1.341,0,0,0-.276-.361c.112.092.212.193.317.292C32.411-123.927,32.4-123.9,32.385-123.88Zm1.319,1.366.045.056c-.156.28-.32.557-.484.835-.209-.619-.44-1.343-.689-1.891l.1-.18C33.037-123.318,33.372-122.912,33.7-122.515Zm-.443-2.121.972,1.284c-.119.225-.235.453-.358.676-.347-.424-.7-.838-1.077-1.237q.224-.405.436-.818A.134.134,0,0,0,33.261-124.636Zm.708.25c-.153-.146-.3-.3-.458-.442a.17.17,0,0,0-.235.018c.082-.164.168-.328.246-.492A9.4,9.4,0,0,0,33.969-124.386Zm-.358-1.1c.026.063.06.124.086.186-.034-.06-.06-.122-.089-.184C33.611-125.485,33.611-125.487,33.611-125.487Zm.03-.81c-.056-.113-.108-.225-.164-.337.007-.047.015-.1.026-.143.071.1.145.2.216.3ZM35-124.851c-.123.251-.246.5-.373.753q-.391-.923-.816-1.829l.112-.254C34.267-125.724,34.621-125.284,35-124.851Zm.343-.711c-.406-.373-.794-.771-1.162-1.181.026.009.056.019.089.034a4.958,4.958,0,0,1,1.248.789C35.466-125.8,35.4-125.682,35.347-125.562Zm.775.19c-.041.123-.078.247-.123.368-.1-.08-.2-.166-.294-.251.056-.12.112-.24.164-.361C35.954-125.535,36.04-125.455,36.122-125.372Zm.455-1.435c-.086.283-.168.567-.257.848-.026.086-.056.17-.086.255-.078-.068-.156-.133-.235-.2.157-.352.313-.7.462-1.061C36.5-126.911,36.539-126.86,36.577-126.807Zm.168-.851c.015.025.034.048.052.073l-.045.168c-.026-.026-.048-.053-.074-.08Zm-.313-.416c-.03.073-.052.146-.082.219-.358-.387-.715-.771-1.066-1.161.313.307.633.608.969.9A.2.2,0,0,0,36.431-128.075Zm.525-.1v0c0-.006,0-.012,0-.017A.038.038,0,0,1,36.957-128.179Zm2.2,4.665c-.063-.232-.123-.464-.183-.693a.131.131,0,0,0-.149-.1c.048-.122.1-.243.149-.366.2.208.4.418.607.624l-.279.764Zm.98,2.572c.052.18.108.36.164.539-.034-.05-.063-.1-.1-.149a11.755,11.755,0,0,1-.589-1.456C39.8-121.657,39.971-121.3,40.135-120.942Zm1.3,5.356c-.03-.168-.067-.336-.1-.5.089-.243.171-.487.257-.729l.1.273C41.6-116.228,41.513-115.907,41.439-115.586Zm-.667,1c.156-.4.305-.8.451-1.2.041.216.086.433.119.649a10.43,10.43,0,0,0-.16,3.357c-.212-.94-.317-1.822-.306-1.757C40.832-113.884,40.8-114.233,40.772-114.583Zm-.283,2.051c.056-.433.1-.867.13-1.305.034.353.067.707.108,1.06.03.251.074.5.119.741C40.727-112.2,40.608-112.367,40.489-112.532Zm-.078.576c.026.041.056.083.086.123-.041.05-.082.1-.127.151C40.384-111.773,40.4-111.865,40.411-111.956Zm-1.561,1.874c.235-.5.466-1.01.689-1.52.1.208.209.417.3.63a7.984,7.984,0,0,0-.816,1.529c-.1-.111-.212-.219-.317-.332C38.753-109.877,38.8-109.981,38.849-110.082ZM37.4-111.353c.142-.28.279-.56.417-.842.127.123.25.247.384.367a.143.143,0,0,0,.242-.1,11.343,11.343,0,0,0-.019-1.379c.078.051.157.1.238.154.212.345.421.693.622,1.05-.276.668-.563,1.334-.868,1.994C38.067-110.514,37.724-110.928,37.4-111.353Zm.488,2.367c0-.008,0-.016,0-.025-.2-.343-.388-.692-.574-1.042-.037-.274-.089-.548-.145-.821a.914.914,0,0,0,.041-.088q.5.634,1.039,1.24Q38.063-109.353,37.884-108.986Zm-.216.428-.168-.409c.063.058.112.1.145.137a.129.129,0,0,0,.145.026C37.754-108.721,37.709-108.639,37.668-108.558Zm-2.94-1.772c.1-.22.212-.442.317-.664.443.338.864.676,1.241.986-.127.243-.25.487-.376.728C35.5-109.61,35.109-109.963,34.729-110.33Zm-1.192,2.284c.194-.348.388-.693.57-1.046a5.958,5.958,0,0,1-.4,1.187C33.652-107.952,33.592-108,33.536-108.046Zm-.235.424c.045.037.086.075.127.112a.3.3,0,0,1-.209.034C33.249-107.525,33.272-107.574,33.3-107.622Zm-.846-.586a3.921,3.921,0,0,1,.641.418l-.112.2A2.545,2.545,0,0,1,32.456-108.208Zm-.38.1a2.548,2.548,0,0,0,.734.836c-.082.145-.16.292-.242.436A3.564,3.564,0,0,1,32.076-108.1Zm-.764-.085c.227.48.44.968.637,1.461,0,.01,0,.018.007.028a12.433,12.433,0,0,1-.89-1.915c-.022-.059-.033-.12-.052-.179C31.114-108.592,31.215-108.391,31.312-108.189Zm-.373-2.254c.145.44.283.88.41,1.324a.275.275,0,0,0-.071.088c-.153-.312-.309-.623-.481-.928,0-.067,0-.135-.007-.2C30.839-110.254,30.887-110.35,30.939-110.443Zm-1.364-1.308.078-.124c.276.3.555.6.835.889-.06.072-.119.146-.183.217A10.179,10.179,0,0,0,29.576-111.751Zm-.253,2.06q-.347-.3-.671-.611c.235-.368.473-.738.708-1.108.227.26.376.44.354.412.123.162.231.334.343.5C29.814-110.223,29.572-109.955,29.322-109.691Zm.332.29c.2-.216.414-.429.615-.65-.142.266-.283.533-.421.8C29.784-109.3,29.717-109.35,29.654-109.4Zm-.674.69c.112-.111.224-.219.335-.331.112.06.224.116.339.172-.123.244-.246.49-.365.736C29.181-108.325,29.076-108.517,28.98-108.711Zm-.246.236c.075.157.157.314.242.471l-.335-.38C28.67-108.414,28.7-108.445,28.734-108.475Zm.175-.8-.134.136c-.048-.1-.093-.2-.138-.3C28.726-109.381,28.819-109.324,28.909-109.271Zm.51.117a.049.049,0,0,0,.015-.017C29.714-108.92,29.676-108.961,29.419-109.154Zm-.928-.9.279.268c.13.124.238.226.339.317l-.052.052c-.16-.114-.354-.242-.566-.377-.022-.052-.045-.1-.063-.156C28.45-109.985,28.473-110.019,28.492-110.054Zm-.842-2.6c-.138-.709.756.183,1.412.907l-.727,1.139-.224-.231A16.124,16.124,0,0,1,27.649-112.654Zm-.123.766c.048.2.1.391.157.586-.071-.076-.138-.152-.2-.229a.167.167,0,0,0,.082-.166C27.553-111.761,27.538-111.824,27.526-111.888Zm-1.461-1.407-.156-.212c.007-.015.019-.029.026-.044C25.98-113.466,26.021-113.38,26.066-113.295Zm-.8-4.353c-.075.138-.149.275-.22.415-.369-.366-.741-.724-1.121-1.076.171-.251.339-.5.507-.757Q24.838-118.352,25.265-117.647Zm.272-1a11.313,11.313,0,0,1-.838-.826c.123-.187.238-.377.358-.565C25.205-119.571,25.369-119.108,25.537-118.646Zm.384-1.268c0,.005-.007.009-.007.015s-.019-.018-.026-.026a.151.151,0,0,0-.257.107c.007.191.026.375.041.56-.134-.379-.261-.761-.387-1.143.142-.23.283-.46.421-.692A11.519,11.519,0,0,1,25.921-119.914Zm.671-2.7c.011-.022.026-.044.037-.065.052.092.1.186.16.278C26.722-122.468,26.655-122.536,26.591-122.61Zm1.93-.574c-.037.061-.075.121-.108.182-.041-.131-.082-.26-.115-.393a7.759,7.759,0,0,1-.212-1A12.453,12.453,0,0,0,28.521-123.184Zm.782-1.343c-.108.19-.216.38-.328.569-.231-.4-.469-.79-.719-1.178-.022-.083-.048-.165-.067-.249a1.288,1.288,0,0,1-.015-.159c.086-.169.171-.338.261-.509l.212.288c.183.241.361.48.544.719Zm.075-.133c-.015-.066-.026-.132-.041-.2l.089.117A.874.874,0,0,0,29.378-124.661Zm1.416,3.354c-.231-.245-.466-.485-.693-.718-.235-.784-.462-1.573-.656-2.368.037-.062.071-.124.108-.187.607.781,1.23,1.54,1.9,2.254Q31.129-121.814,30.794-121.307Zm1.569-.1c.112.249.22.5.324.75-.175.286-.354.57-.533.853-.365-.425-.738-.836-1.107-1.233.224-.34.443-.68.659-1.023C31.919-121.838,32.139-121.62,32.363-121.408Zm-.41-.866c-.026-.025-.048-.05-.071-.075.007-.01.011-.02.019-.029C31.919-122.343,31.934-122.308,31.953-122.274Zm1.092,1.027c-.034-.028-.067-.056-.1-.085-.13-.38-.272-.759-.417-1.137q.257.6.525,1.2Zm1.5-.25c-.168.355-.335.708-.51,1.058-.16-.122-.32-.244-.477-.373-.026-.065-.052-.134-.082-.209.2-.346.4-.7.6-1.047C34.233-121.875,34.39-121.685,34.546-121.5Zm.339-.992c.015.045.034.089.052.134l-.291.641c-.153-.189-.305-.377-.455-.566l.358-.657Zm3.007-.886c.011.012.019.023.03.035-.179.365-.354.73-.537,1.093-.138.279-.291.551-.44.829q-.671-.689-1.349-1.372c.224-.538.44-1.078.637-1.624A14.534,14.534,0,0,0,37.892-123.374Zm-1.438-1.663c.134.14.268.283.4.422.153.167.3.341.451.514-.019-.009-.03-.014-.048-.025a10.27,10.27,0,0,1-.9-.61C36.39-124.836,36.42-124.937,36.454-125.037Zm1.427.1c.119.436.171.847-.026.956a13.857,13.857,0,0,0-1.282-1.416c.108-.323.22-.646.317-.972Q37.4-125.661,37.881-124.935Zm-.764-2.089a.235.235,0,0,1-.03-.032.062.062,0,0,1,.007-.025Zm.414,1.059c-.153-.22-.305-.442-.462-.659.112.12.231.236.347.356C37.452-126.169,37.489-126.067,37.53-125.966Zm.931,1.377c-.112-.167-.22-.331-.332-.493-.052-.211-.108-.422-.171-.629.22.231.447.462.671.692Zm.611,1.783c.007.028.019.056.026.085l-.045.125c-.071-.317-.13-.579-.157-.713l.056.1C38.984-123.112,39.021-122.984,39.073-122.806Zm1.438,3.443a.1.1,0,0,0-.134.114c.011.046.026.093.037.139-.086.224-.171.447-.261.67-.127-.1-.253-.2-.376-.3a16.536,16.536,0,0,0-.216-1.682c-.022-.12-.1-.453-.194-.855.283.433.566.868.849,1.3.1.186.209.368.317.549Zm.2,1.388c-.082-.071-.168-.145-.261-.221.041-.105.082-.211.119-.316C40.619-118.333,40.664-118.154,40.712-117.974Zm.429.982c0-.012-.007-.026-.011-.038.007.006.011.012.019.018S41.145-117,41.141-116.993Zm-.093-1.273c.041.247.078.494.1.746,0-.048-.1-.158-.261-.3-.168-.583-.268-1.088.1-.611C41.007-118.377,41.025-118.32,41.048-118.265Zm-.8,5c.034-.079.063-.16.1-.241-.015.189-.026.377-.045.565C40.28-113.044,40.262-113.152,40.243-113.26Zm-.734.6a.24.24,0,0,1-.019.046l-.045-.08C39.468-112.677,39.49-112.668,39.509-112.656Zm-.853-1.326.022-.045c.1.1.209.2.346.335a6.412,6.412,0,0,1,.533.592,1.536,1.536,0,0,1-.455-.17Q38.885-113.629,38.656-113.982Zm-.626,1.327a.237.237,0,0,1-.071.152C37.985-112.554,38.007-112.6,38.03-112.655Zm-1.55-1.654c.041-.1.078-.2.119-.3.466.369.939.722,1.431,1.053-.127.277-.257.556-.387.832A7.819,7.819,0,0,1,36.48-114.309Zm.35,2.2a15.39,15.39,0,0,0-.611-1.571c.045-.112.1-.224.142-.338a8.627,8.627,0,0,0,1.166,1.529c-.127.264-.261.528-.391.791C37.035-111.832,36.931-111.969,36.83-112.106Zm-1.252-.059q.43.867.838,1.752c-.38-.35-.771-.686-1.177-1C35.351-111.665,35.47-111.913,35.578-112.165Zm-.633.514-.119-.083c.007-.058.015-.116.022-.171.06-.466.112-.932.168-1.4q.173.346.347.7c-.134.323-.272.644-.41.963C34.948-111.647,34.945-111.649,34.945-111.651ZM33.518-108.6a27.012,27.012,0,0,0-1.4-3.67l.168-.216a28.328,28.328,0,0,0,2.049,2.2.052.052,0,0,1,0,.023Q33.935-109.422,33.518-108.6Zm-2.664-5.213c.045.034.086.07.13.1a.144.144,0,0,0-.175.1,17.212,17.212,0,0,0-.246,1.857.115.115,0,0,0-.022.126.084.084,0,0,1,.007.031c0,.067,0,.133,0,.2-.242-.251-.481-.5-.719-.756Q30.345-112.971,30.854-113.808Zm-2.522.053c.4-.472.794-.953,1.177-1.442a8.54,8.54,0,0,0,1.017,1.1q-.5.815-1.006,1.625Q28.922-113.109,28.331-113.755Zm-2.876-3.067c-.06-.063-.123-.125-.186-.187.056-.116.115-.23.175-.345C25.444-117.176,25.444-117,25.455-116.822Zm.019-1.22c-.186-.3-.38-.6-.57-.9q.285.326.592.636C25.485-118.217,25.481-118.129,25.474-118.041Zm1.833-.615c.134.211.261.423.387.632-.4-.427-.8-.853-1.2-1.275.019-.031.034-.061.052-.092C26.74-119.376,26.99-119.161,27.307-118.657Zm1.546.181c-.056.082-.116.163-.171.244-.153-.23-.3-.464-.455-.691-.082-.281-.175-.418-.276-.405-.13-.191-.257-.385-.391-.577s-.41-.018-.294.173c.376.624.764,1.249,1.155,1.87-.045.068-.093.135-.142.2-.451-.779-.89-1.558-1.412-2.293.212-.37.425-.738.641-1.106C27.955-120.19,28.383-119.317,28.853-118.476Zm1.192-1.714-.291.422a24.445,24.445,0,0,1-1.263-2.967c.041-.071.082-.143.127-.213A24.745,24.745,0,0,0,30.045-120.19Zm-1-2.959.112.206c-.082-.076-.16-.155-.242-.229l-.067-.173.045-.081C28.954-123.318,29.006-123.22,29.047-123.149Zm.041-.615.279-.487q.229.973.5,1.934C29.62-122.8,29.363-123.287,29.088-123.764Zm2.4,4.983q-.363-.872-.753-1.729c.358.415.715.827,1.081,1.238C31.707-119.108,31.6-118.945,31.487-118.781Zm1.364.644c-.19.353-.38.707-.574,1.057-.13-.249-.261-.5-.395-.743l-.168-.4c.149-.219.3-.437.443-.658C32.385-118.635,32.616-118.386,32.851-118.138Zm.376-1.089a.167.167,0,0,0,.134.119c-.082.158-.16.316-.246.474q-.307-.393-.626-.774c.145-.226.291-.45.432-.677C33.03-119.8,33.134-119.516,33.227-119.227Zm.645-.881-.022-.047.034.023Zm1.751,1.062c-.175.3-.35.595-.529.89-.063-.46-.186-.63-.365-.515-.034-.232-.067-.451-.108-.641s-.3-.1-.268.073.074.3.112.455c-.115-.265-.238-.531-.354-.8.048-.1.1-.191.149-.288A12.777,12.777,0,0,0,35.623-119.046Zm-.112-1.323c.123.528.194.964.093.916a8.446,8.446,0,0,1-1.2-.719c.156-.314.306-.631.455-.949C35.075-120.865,35.291-120.615,35.511-120.369Zm-.361-1.384c.071.246.168.6.261.969-.153-.179-.306-.36-.451-.543C35.023-121.468,35.083-121.61,35.15-121.753Zm1.542.816c-.283-.4-.566-.8-.861-1.2l.972.988Zm1.394,1.085-.313.882q-.386-.6-.794-1.183l.067-.136a.114.114,0,0,0,.022-.047c.06-.121.116-.242.175-.363C37.523-120.414,37.8-120.133,38.086-119.852Zm.771-2.184q-.335.937-.663,1.876c-.272-.272-.548-.542-.816-.816q.453-.957.868-1.925C38.454-122.616,38.656-122.327,38.857-122.036Zm-.529-2.205s0,0,0,0,0,0,0,0Zm.212,6.215c-.1-.053-.2-.121-.3-.182-.063-.105-.127-.212-.19-.317.119-.335.235-.669.354-1q.581.578,1.185,1.135C39.531-117.928,39.263-117.66,38.54-118.026Zm1.267-.164c.06.056.123.107.183.162-.063.157-.127.314-.194.472C39.807-117.77,39.811-117.982,39.807-118.191Zm-1.33.382a8.523,8.523,0,0,0,1.144.571.084.084,0,0,0,.041,0q-.2.478-.4.945C39.025-116.806,38.76-117.312,38.477-117.809Zm-1.505,2.225a6.819,6.819,0,0,0,.887.382c0,.031.011.068.019.109a.1.1,0,0,0-.019-.013c-.175-.1-.417.111-.291.29.149.213.291.432.432.648l.022.222c-.447-.309-.879-.641-1.3-.99C36.808-115.149,36.89-115.365,36.972-115.583Zm-1.293-.264c-.138-.364-.283-.724-.428-1.084l.034-.059a4.694,4.694,0,0,0,1.33,1.2c-.071.191-.142.383-.216.575C36.156-115.419,35.917-115.631,35.679-115.847Zm.414.823c.056.049.116.1.175.148-.011.036-.026.073-.041.11C36.182-114.854,36.133-114.938,36.092-115.025Zm-.79-.431c.007-.048.011-.1.019-.145s0-.057.007-.086l.212.192c.179.352.373.695.566,1.037-.037.1-.078.2-.116.3C35.779-114.6,35.548-115.03,35.3-115.455Zm.846,3.117c.078.1.153.206.231.31.037.111.078.251.123.418C36.383-111.853,36.264-112.1,36.148-112.338Zm-.987-2.074.022-.162c.134.249.268.5.395.749-.13-.18-.265-.358-.395-.536Zm-1.68,1.789a.148.148,0,0,0,.067-.121v-1a.157.157,0,0,0,.026-.142c-.007-.028-.019-.054-.026-.082v-.272c.276-.4.54-.806.8-1.216.052.106.1.212.153.319a.218.218,0,0,0-.209.325c.156.338.324.679.488,1.022-.075.618-.153,1.237-.227,1.856C34.2-112.178,33.846-112.41,33.48-112.623Zm1.006,1.208c-.034.249-.067.5-.1.748-.645-.65-1.256-1.336-1.844-2.024A17.8,17.8,0,0,1,34.486-111.415Zm-2.753-1.632c.037.012.074.023.112.037s.045.056.071.083c-.026.038-.045.075-.067.113C31.808-112.89,31.774-112.969,31.733-113.047Zm-1.967-2.484c.179.173.365.342.548.511.108.186.209.374.313.562a2.13,2.13,0,0,1-.578-.556c-.123-.141-.231-.291-.346-.439C29.725-115.478,29.743-115.505,29.766-115.531Zm-.417-.4.067.063a.06.06,0,0,0-.015.017C29.382-115.877,29.367-115.905,29.348-115.931Zm-2.336.743q.62-.917,1.259-1.825c.022.02.041.042.063.063.279.465.563.916.872,1.348-.395.5-.794,1-1.2,1.49C27.676-114.471,27.344-114.83,27.012-115.188Zm-1.1-1.432c.1.152.19.307.291.457.007.048.019.1.03.151-.1-.107-.2-.215-.309-.323C25.924-116.426,25.921-116.522,25.917-116.62Zm0-.892c.019.108.037.216.06.325l-.067-.116C25.913-117.373,25.917-117.442,25.921-117.512Zm1.013,1.774q-.375-1.07-.768-2.132s0-.007.007-.012a7.782,7.782,0,0,0,.071-.972c.026-.042.048-.085.071-.128a10.1,10.1,0,0,1,1.021.995l.674.7Q27.469-116.51,26.934-115.737Zm2.649-.346s-.007.006-.007.008c-.305-.3-.6-.608-.9-.917-.063-.106-.13-.213-.19-.32.048-.072.1-.142.149-.214Q29.1-116.8,29.583-116.083Zm.429-.578c-.06.079-.116.16-.175.24q-.458-.746-.939-1.482l.156-.221A15.509,15.509,0,0,0,30.012-116.661Zm.447-.627c-.115.165-.235.329-.354.494-.2-.267-.358-.5-.429-.606-.19-.277-.365-.56-.536-.845.171-.25.346-.5.522-.749C29.933-118.428,30.209-117.861,30.459-117.288Zm.469-1.408c.048.177.1.354.145.532-.074.109-.145.221-.22.33l-.123.169c-.246-.58-.518-1.154-.794-1.727.1-.15.2-.3.309-.451Zm-1.039-2.814q.218.462.425.923c-.007.01-.011.019-.019.028-.265-.454-.518-.911-.764-1.372Zm3.253,7.858a.461.461,0,0,1-.142.2C33.048-113.519,33.093-113.586,33.141-113.652Zm-.253-.892c-.19.314-.384.629-.574.943a6,6,0,0,1-.652-.54c-.019-.284-.052-.563-.1-.839.045.041.089.083.138.123s.164.023.153-.065c-.015-.155-.041-.309-.06-.463.142-.242.279-.485.421-.728C32.433-115.587,32.661-115.065,32.888-114.544Zm.317-3.207c.019.026.034.054.056.08,0,.011-.011.018-.011.029v2.509l-.056.091c-.2-.538-.436-1.061-.686-1.576.22-.391.44-.785.656-1.18C33.179-117.782,33.19-117.766,33.2-117.751Zm1.74,2.731c0,.039-.011.079-.019.118-.123-.263-.253-.525-.38-.788C34.68-115.467,34.818-115.246,34.945-115.02Zm.026-.989.123.112-.011.073Zm-1.438.412c-.048-.812-.171-1.713.41-.663C33.8-116.039,33.67-115.818,33.533-115.6Zm-2.75-.927a7.333,7.333,0,0,1,.265.82,5.278,5.278,0,0,1-.63-.685c.089-.122.179-.248.268-.371C30.72-116.681,30.753-116.6,30.783-116.523Zm.768.709c-.041.068-.078.136-.116.2a12.806,12.806,0,0,0-.484-1.514l.279-.389c.086.361.171.721.246,1.084A2.864,2.864,0,0,1,31.55-115.815Zm-1.107.386c-.108-.186-.224-.367-.335-.551.071-.094.145-.186.216-.28a10.361,10.361,0,0,0,.8.885c.015.069.026.14.041.209-.075.122-.145.243-.22.364,0,0,0,0-.007-.007l-.134-.12C30.69-115.1,30.563-115.26,30.444-115.428Zm1.23,1.664v-.083q.263.216.537.424l-.078.13-.123-.055C31.9-113.487,31.785-113.624,31.673-113.764Zm1.073.745c-.011-.007-.026-.012-.037-.018s0,0,0-.007A.327.327,0,0,1,32.746-113.019Zm2.426-3.311v0c-.06-.056-.119-.111-.175-.166.026-.04.048-.083.071-.123C35.1-116.521,35.135-116.424,35.172-116.33Zm1.2-2.629c.179.338.365.672.563,1,.089.211.164.427.246.64-.16.442-.324.885-.488,1.325-.019-.011-.034-.018-.056-.029a4.143,4.143,0,0,1-1.237-1.166Q35.9-118.065,36.372-118.959Zm.972.11c-.16-.324-.343-.64-.533-.954h0c.246.362.484.728.719,1.1C37.471-118.754,37.407-118.8,37.344-118.848Zm.2.412a.245.245,0,0,0,.03.02l-.011.026C37.557-118.405,37.553-118.421,37.545-118.436Zm-.864-1.109.134.23c-.06-.052-.116-.1-.171-.156C36.655-119.5,36.67-119.521,36.681-119.545Zm-.667-1.249c.074.16.175.358.287.568,0,.01-.011.019-.015.03C36.2-120.4,36.1-120.6,36.014-120.794Zm1.364,2.923-.142-.2c-.142-.326-.291-.652-.436-.977.112.1.22.2.335.295a.469.469,0,0,0,.033.061c.119.216.22.4.306.557C37.445-118.049,37.411-117.961,37.378-117.871Zm.343,2.18a.967.967,0,0,1-.659-.123c.116-.3.227-.606.339-.909C37.516-116.383,37.624-116.039,37.72-115.692Zm-.045-1.783c.019-.056.041-.112.06-.169C37.966-117.174,37.881-117.215,37.676-117.474Zm-4.2-.893c.16-.3.313-.6.469-.9q.391.871.76,1.752c-.093.154-.183.31-.279.463l-.469-.471c-.175-.247-.358-.49-.544-.731C33.436-118.292,33.458-118.329,33.477-118.368ZM31.7-117.342c.1.243.2.487.306.73-.1.185-.212.37-.32.554-.093-.548-.209-1.091-.339-1.63.03-.042.056-.086.086-.129C31.524-117.659,31.617-117.5,31.7-117.342Zm-4.274,3.914a.143.143,0,0,0-.156.158c-.119-.549-.257-1.095-.4-1.639.313.339.63.68.939,1.022C27.687-113.733,27.56-113.579,27.43-113.427Zm4,1.312c-.171.216-.354.425-.533.639-.034-.087-.06-.153-.071-.189.037-.38.082-.755.13-1.115a.356.356,0,0,1,.384-.333c.1.208.209.42.309.631C31.576-112.36,31.5-112.239,31.431-112.115Zm-.276,1.285c.127-.234.257-.468.388-.7.119-.146.231-.3.347-.446.2.451.406.905.6,1.366a10.524,10.524,0,0,1,.466,1.6c-.607-.535-1.181-1.111-1.747-1.692C31.189-110.75,31.17-110.791,31.155-110.83Zm7.377-3.823c-.1-.077-.216-.146-.324-.219-.015-.073-.022-.146-.041-.218.034.01.06.023.093.032a.141.141,0,0,0,.171-.172q-.246-.62-.5-1.233a.137.137,0,0,0,.231-.128,8.4,8.4,0,0,0-.361-1.226l.1-.281c.287.474.563.952.823,1.444.13.25.25.5.361.763C38.9-115.472,38.715-115.06,38.533-114.653Zm1.278,1.233a7.707,7.707,0,0,0-.969-.976c.153-.334.3-.668.451-1.006.153.389.291.783.417,1.18a3.333,3.333,0,0,1,.16.649C39.852-113.523,39.833-113.472,39.811-113.421Zm-.514-6.929a9.841,9.841,0,0,1,.3,1.463c-.305-.243-.563-.443-.645-.524-.149-.142-.291-.288-.436-.431.19-.537.376-1.074.566-1.61C39.151-121.086,39.222-120.72,39.3-120.349Zm-.54-3.2c.034.325.071.649.123.97q-.229-.329-.458-.651a.131.131,0,0,0,.052-.121l-.011-.057c.052-.123.1-.248.153-.371C38.659-123.706,38.712-123.631,38.756-123.554Zm-5.511,2.923c.048.041.1.082.149.122.1.238.212.475.32.713-.06.118-.119.237-.179.354-.048-.167-.1-.335-.149-.5.071-.116.019-.278-.149-.487-.011-.04-.026-.082-.037-.122Zm-4.628-3.306c.056.1.112.205.168.306-.011.016-.019.032-.03.048C28.711-123.7,28.663-123.817,28.618-123.936Zm.078,3.3c-.033-.254-.074-.506-.119-.757.268.682.581,1.353.9,2.02-.179.26-.361.52-.544.779-.458-.8-.864-1.632-1.271-2.456.238.2.484.4.738.583A.2.2,0,0,0,28.7-120.635Zm-3.573,3.917c.127.127.257.253.384.38a12.394,12.394,0,0,0,.332,1.753c-.287-.6-.581-1.19-.89-1.777C25.008-116.48,25.067-116.6,25.123-116.717Zm-.41-.1c-.138-.25-.283-.492-.44-.725.209.2.417.394.622.6l-.123.241C24.751-116.74,24.732-116.777,24.713-116.815Zm1.312,1.4a3.891,3.891,0,0,1-.063-.455c.127.133.25.268.376.4.03.157.06.316.089.479l-.212.32C26.144-114.921,26.081-115.168,26.025-115.42Zm.328,1.221.179-.27a10.441,10.441,0,0,0,.425,1.583c-.022.023-.045.047-.063.071-.06-.093-.116-.187-.175-.28C26.584-113.46,26.465-113.829,26.353-114.2Zm.894,1.96-.1-.164.011-.014C27.187-112.358,27.214-112.293,27.247-112.239Zm.619-.974c.089-.105.183-.211.272-.319.406.443.809.887,1.215,1.328l-.078.12A6.331,6.331,0,0,0,27.866-113.213Zm3.692,3.318c.559.557,1.125,1.106,1.718,1.628a.172.172,0,0,0,.056.023l-.011.023a6.026,6.026,0,0,0-1.33-.786C31.837-109.295,31.692-109.6,31.558-109.9Zm9.035-6.657c-.015-.152-.25-.156-.242,0,.037.54.045,1.073.045,1.606-.112.3-.22.589-.335.883a13.05,13.05,0,0,0-.592-1.744c.216-.5.432-1.009.637-1.518.06-.148.119-.3.179-.446.2.184.414.369.626.548.045.177.082.355.123.532-.119.334-.242.667-.365,1C40.645-115.978,40.623-116.266,40.593-116.553ZM39.4-121.8l-.134-.2c.011-.032.022-.065.037-.1C39.338-121.995,39.367-121.894,39.4-121.8Zm-3.975-2.887s0,0,0,0c.041-.084.078-.166.119-.249.108.088.22.172.328.257-.19.524-.391,1.045-.611,1.56-.13-.134-.265-.271-.4-.4,0-.006,0-.011-.007-.017C35.057-123.919,35.247-124.3,35.429-124.683Zm-.261-.506c-.037-.056-.071-.113-.108-.167l.134.115C35.187-125.224,35.176-125.207,35.168-125.19ZM26.4-122.27a12.445,12.445,0,0,0,.98.977c-.224.374-.451.749-.674,1.124-.082-.11-.164-.219-.25-.327a.188.188,0,0,0-.294.039l-.022.045a10.37,10.37,0,0,0-.212-1.056C26.088-121.735,26.245-122,26.4-122.27Zm-1-1.241c.216.313.447.613.689.9-.1.187-.212.371-.32.558-.134-.444-.283-.885-.447-1.318ZM25.075-124c.041.06.078.12.119.181-.011.017-.019.032-.03.049C25.134-123.842,25.1-123.919,25.075-124Zm9.59,17.041c-.227-.25-.466-.491-.708-.72a5.432,5.432,0,0,0,.7-2.306c.358.335.73.661,1.114.973C35.4-108.321,35.038-107.637,34.665-106.955Zm2.049-1.711c-.168-.118-.332-.241-.492-.366l.369-.721.19.162c.071.155.138.311.2.468C37-108.735,36.931-108.515,36.715-108.667Zm2.124.522a4.6,4.6,0,0,1,.186-.74c.1.105.2.212.3.316C39.025-107.713,38.611-106.7,38.838-108.145Zm.749-1.207c-.022.074-.063.208-.119.373-.1-.1-.2-.2-.294-.3a10.854,10.854,0,0,1,.76-1.448c0,.015.011.031.015.046C39.844-110.238,39.718-109.794,39.587-109.352Zm.6-.735c.015.035.045.131.086.259a.175.175,0,0,0-.015.077v.763l-.2.539c-.142-.123-.283-.245-.417-.373a15.383,15.383,0,0,0,.455-1.508C40.12-110.248,40.153-110.17,40.183-110.087Zm-.078-1.333c-.108-.236-.224-.468-.343-.7.045-.109.093-.219.138-.329.075.037.145.079.22.115a.159.159,0,0,0,.022,0c.022.034.048.067.071.1-.03.248-.056.495-.1.743C40.113-111.462,40.109-111.442,40.105-111.42Zm1.289-1.011-.045.153a4.527,4.527,0,0,1-.052-1.5,6.885,6.885,0,0,1,.108-.87A9.219,9.219,0,0,1,41.394-112.431Zm-17.713-7.956c.171.309.343.617.514.923-.186.293-.38.585-.574.874-.183-.164-.369-.323-.555-.484.19-.442.376-.861.563-1.218C23.648-120.324,23.666-120.355,23.681-120.388Zm1.267,7.685c-.034.05-.063.1-.093.151-.168-.3-.339-.607-.507-.907C24.542-113.2,24.743-112.949,24.948-112.7Zm-.928-1.529c.123-.313.25-.621.384-.929.347.543.7,1.075,1.081,1.6-.145.228-.287.457-.428.687C24.691-113.309,24.345-113.76,24.02-114.232ZM27.8-107.6c.086-.079.179-.154.265-.235.034.026.063.042.1.076.183.306.354.617.522.927l-.224.513A10.829,10.829,0,0,1,27.8-107.6Zm3.819,2.347a.821.821,0,0,1-.115-.026q-.5-.506-.995-1.029v0a13.16,13.16,0,0,1-.965-1.372c.156-.335.317-.669.484-1,.112.051.227.1.343.151.142.059.2-.155.1-.233s-.19-.149-.291-.222c.119-.232.238-.464.361-.7.026.05.056.1.086.149a6.539,6.539,0,0,0,1.393,3.2c.022.143.03.265.037.377C31.912-105.724,31.77-105.49,31.621-105.257Zm.242-.037c.048-.073.1-.143.149-.216A.369.369,0,0,1,31.863-105.293Zm1.725.178c-.171-.263-.555-.871-.894-1.484.112-.189.235-.373.347-.563a.649.649,0,0,0,.611-.158c.276.245.54.5.794.768q-.408.748-.82,1.492A.478.478,0,0,1,33.588-105.115Zm.287.423q.43-.775.857-1.552c.317.349.622.708.924,1.07q-.52.739-1.1,1.428Q34.205-104.205,33.875-104.692Zm-.246.449c.123.185.25.37.38.55-.175-.093-.354-.183-.533-.266.026-.047.052-.1.075-.14Zm8.424-10.532q-.184.7-.38,1.4a7.608,7.608,0,0,0-.086-1.324c-.022-.158-.052-.312-.078-.468.086-.37.186-.735.291-1.1.048.137.1.274.149.413C41.968-115.489,42.005-115.131,42.054-114.775Zm-.972-6.213a8.864,8.864,0,0,0-.779-.633.164.164,0,0,0-.078-.022c-.2-.4-.425-.8-.656-1.192.108-.3.212-.6.324-.9q.771.78,1.55,1.555C41.331-121.78,41.208-121.382,41.081-120.988Zm.54-2.18c.019.056.034.1.048.152-.011.053-.026.105-.037.158a16.156,16.156,0,0,1-1.561-1.371c.168-.453.332-.905.5-1.357A17.957,17.957,0,0,1,41.621-123.168Zm-.436-3.983.089-.224c.048.126.1.251.153.378.123.309.2.486.242.573a4.318,4.318,0,0,0-.417-.646Zm.823,1.446a.116.116,0,0,0,.19-.009q-.033.268-.078.537a.2.2,0,0,0-.2.239c.037.1.075.193.108.291q-.106.59-.246,1.179a16.921,16.921,0,0,0-1.077-2.482c.119-.309.246-.614.365-.921C41.379-126.478,41.689-126.087,42.009-125.706Zm-3.446-3.229c.328.493.648.988.958,1.49-.216.628-.44,1.254-.678,1.879-.559-.658-1.084-1.347-1.6-2.047.168-.643.32-1.291.451-1.945C37.974-129.339,38.261-129.129,38.563-128.935Zm-.466-.707c-.115-.085-.235-.165-.346-.254l.034-.215Zm-4.743-1.535a3.418,3.418,0,0,1-.074.65,9.784,9.784,0,0,1-.358-1.223C33.063-131.555,33.2-131.363,33.354-131.176Zm-4.5.92a.148.148,0,0,0,.056-.039,10.619,10.619,0,0,0,.317,1.79c-.048.092-.093.182-.142.272-.231-.24-.473-.474-.727-.692a.218.218,0,0,0-.078-.04C28.477-129.393,28.667-129.822,28.853-130.256Zm-3.13,19.362.458-.475a15.055,15.055,0,0,0,1.718,1.439c-.089.137-.175.272-.264.409-.283-.322-.57-.643-.857-.958a.258.258,0,0,0-.428.114c-.06.176-.1.346-.138.516C26.059-110.2,25.895-110.547,25.723-110.893Zm6.308,9.241a2.75,2.75,0,0,0,.864-1.115c.026.17.056.34.078.51A8.72,8.72,0,0,1,32.031-101.652Zm5.533-2.059c-.246-.233-.462-.442-.507-.494a.359.359,0,0,1-.037-.044,6.172,6.172,0,0,1,.838-.31c-.034.135-.067.266-.1.388-.015.061-.026.123-.041.184Zm5.384-7.732c.052.784-.015,1.768-.868.922-.011-.014-.026-.029-.037-.044l.738-1.426c.048.118.1.237.149.354C42.937-111.573,42.944-111.508,42.948-111.443Zm-.6-16.034c-.019.529-.067,1.06-.13,1.591-.287-.613-.544-1.236-.8-1.861.015-.034.026-.069.041-.1-.03.077.011-.088.093-.342C41.8-127.95,42.076-127.712,42.352-127.477Zm-1.8-1.609c.175.394.343.79.507,1.189-.052.131-.108.261-.16.392-.2-.247-.395-.5-.592-.739C40.4-128.523,40.478-128.8,40.556-129.086Zm-6.3-5.453a16.125,16.125,0,0,1,1.27,1.163c-.011.166-.019.333-.034.5-.235-.149-.469-.3-.652-.414s-.339.164-.168.285c.216.154.425.313.633.474a.251.251,0,0,0,.086.064.572.572,0,0,0,.048.04c-.022.175-.041.351-.067.524a10.03,10.03,0,0,0-1.941-1.281C32.985-134.035,33.723-133.964,34.259-134.539Zm-2.213,1.488c.119.189.238.379.358.563.011.054.022.109.03.167a6.235,6.235,0,0,1-1.036.493C31.614-132.235,31.826-132.646,32.046-133.051Zm-2.429,2.144a2.368,2.368,0,0,0,.142.283c-.045-.094-.093-.19-.134-.285a9.477,9.477,0,0,0,.991-.272c-.175.336-.354.671-.529,1.008a2.886,2.886,0,0,1-.328-.451c.048.108.1.216.149.324a1.025,1.025,0,0,0,.179.132c-.022.037-.041.075-.06.112-.037-.082-.078-.162-.119-.244a1.387,1.387,0,0,1-.369-.591Zm-1.774.205c.276-.007.551-.026.827-.057-.019.045-.034.089-.052.135-.164-.01-.354-.02-.559-.02v0c-.078-.008-.153-.02-.231-.032C27.832-130.687,27.839-130.7,27.843-130.7Zm-2.463-.118a15.683,15.683,0,0,0,1.554.367.9.9,0,0,0-.514.518,1.828,1.828,0,0,0-.123.673.213.213,0,0,0-.156.244c.015.076.033.149.052.225l-.3.493a8.275,8.275,0,0,1-1.259-1.068c-.1-.091-.2-.186-.3-.281.164-.323.335-.643.5-.963C25.019-130.679,25.2-130.747,25.38-130.82Zm-1.457,1.442a3.674,3.674,0,0,0-.525-.713c.2.2.395.4.592.591Zm.25.052a10.014,10.014,0,0,0,1.58,1.241c-.272.433-.551.864-.835,1.29a12.956,12.956,0,0,0-.853-2.319C24.1-129.184,24.136-129.255,24.173-129.326Zm-1.081,2.212c.168.446.317.9.443,1.358.033.109.089.377.145.691-.119.158-.235.316-.358.47-.257-.467-.51-.936-.764-1.4C22.735-126.37,22.914-126.742,23.093-127.114ZM20.872-122.1c-.261.168-.212-.073-.037-.46C20.846-122.4,20.857-122.251,20.872-122.1Zm.063-.671c.052-.108.112-.221.171-.335.037.233.082.465.138.7l-.127.116c-.056.051-.1.086-.145.122C20.954-122.37,20.947-122.57,20.935-122.768Zm.868,6.529c.007.041.007.082.011.123,0,0-.007,0-.011.01a.258.258,0,0,1-.022.048c-.16.2-.317.411-.481.612A4.887,4.887,0,0,0,21.8-116.24Zm1.941,6.655c-.108.1-.212.2-.32.3a1.922,1.922,0,0,0,.287-.384Zm.026-.179.033-.054c.015.042.034.085.052.127-.015.012-.026.025-.041.037Zm.231.542c.03-.028.063-.058.093-.088a.172.172,0,0,0,.246-.17c0-.017,0-.032,0-.049.32-.3.637-.613.954-.926.2.377.395.756.6,1.129.063.151.127.3.194.451a4.569,4.569,0,0,0,.209,1.436c-.224.353-.451.706-.674,1.061A16.273,16.273,0,0,1,24-109.222Zm6.759,6.384a.168.168,0,0,0,.041-.184c-.067-.16-.134-.327-.2-.5.291-.383.574-.772.846-1.166.421.42.85.827,1.3,1.219l-.905,1.617C31.5-102.177,31.137-102.506,30.761-102.839Zm7.631-.11a1.429,1.429,0,0,1-.179-.151c.056-.1.112-.206.168-.31C38.384-103.256,38.391-103.1,38.391-102.949Zm5.28-17.1a10.322,10.322,0,0,1,.246,1.316c.089.8-.216.691-.592.324Q43.5-119.228,43.671-120.046Zm-.652,1.309c-.086-.1-.171-.208-.253-.314q.257-.647.514-1.289c.041-.106-.13-.151-.171-.046-.156.389-.309.784-.466,1.176-.06-.084-.119-.162-.171-.233q.358-1.142.686-2.289.168.47.313.949Q43.252-119.764,43.019-118.736Zm1.654-4.537c.007.08-.127.023-.335-.111.034-.157.063-.317.093-.474.037-.195-.257-.279-.3-.083-.026.119-.052.241-.075.361a19.553,19.553,0,0,1-1.639-1.357,20.919,20.919,0,0,0,.265-2.254,6.72,6.72,0,0,1,.686.667c.082.1.227.013.231-.1,0-.074.011-.151.019-.226A10.74,10.74,0,0,1,44.673-123.274Zm.186-1.259a8.369,8.369,0,0,0-.607-1.838q-.207-.447-.425-.882c.19.242.388.477.574.722a.181.181,0,0,0,.279.035c.067-.073.115-.127.153-.172C44.815-125.949,44.829-125.229,44.859-124.533Zm-1.7-4.263c.078.181.138.341.186.481-.156-.228-.291-.444-.391-.6Zm-9.322-6.054c-.2.072-.4.143-.6.218.022-.2.045-.4.06-.6C33.492-135.113,33.667-134.982,33.842-134.85Zm-4.423,2c-.142.1-.283.2-.421.313l.022-.035c.075-.119.16-.273.242-.431.093-.069.183-.138.272-.208-.019.061-.033.118-.056.189S29.438-132.906,29.419-132.848Zm-6.312,2.731c.179.418.354.836.529,1.256q-.224.4-.436.809c-.149-.231-.294-.462-.436-.7a.052.052,0,0,1-.011.006c-.116-.231-.231-.461-.354-.689a.168.168,0,0,0-.276-.032c.089-.174.179-.348.268-.524C22.631-130.025,22.869-130.066,23.108-130.117Zm-1.99,2.525.045-.08c.358.519.689,1.063,1,1.622-.175.352-.354.7-.525,1.058a17.788,17.788,0,0,0-.622-2.394C21.047-127.454,21.081-127.525,21.118-127.592ZM20.5-128.5l-.011-.075c.164.2.32.4.469.608-.033.055-.067.11-.1.165A5.011,5.011,0,0,0,20.5-128.5Zm-.268,2.59a8.21,8.21,0,0,0,.4-.73c.086.263.175.526.261.79-.03,0-.067.022-.056.055.063.151.13.3.194.452a.147.147,0,0,0-.03.079,8.365,8.365,0,0,0,.022,1.529l-.112.229c0-.224,0-.448.015-.669,0-.057-.086-.056-.089,0-.022.292-.026.588-.026.885l-.291.61C20.451-123.739,20.369-124.827,20.231-125.907Zm.384,4.566c.1-.085.212-.166.313-.251a16.377,16.377,0,0,0,.89,3.505c-.026.256-.048.513-.052.77q-.38.834-.723,1.689C20.839-117.544,20.753-119.48,20.615-121.341Zm1.323,9.705a6.957,6.957,0,0,1-.343-1.678,6.1,6.1,0,0,1,.391-1.733,20.313,20.313,0,0,0,.92,3,.433.433,0,0,1-.019.066.168.168,0,0,0,.127.213c.052.126.1.252.149.377.1.41.224.816.365,1.216-.156.305-.3.611-.443.921A13.964,13.964,0,0,1,21.938-111.636Zm6.043,7.852c.078-.241.164-.477.25-.715.537.557,1.129,1.1,1.729,1.635-.075.1-.153.2-.227.3A10.969,10.969,0,0,1,27.981-103.784Zm-.067.214c.294.27.6.533.909.782a7.763,7.763,0,0,0,.7.488c-.209.26-.417.517-.633.771q-.671-.5-1.3-1.02a.2.2,0,0,0,.037-.07C27.716-102.938,27.817-103.254,27.914-103.569Zm6.245,5.186c-.045-.168-.1-.325-.153-.477-.022-.057-.045-.115-.071-.174a4.392,4.392,0,0,0-.365-.7c-.007-.141-.011-.281-.019-.421.276.12.555.24.838.369.119.056.309-.007.294-.169a4.955,4.955,0,0,1,.164-1.872c.369.25.753.485,1.144.7q-.883,1.4-1.829,2.759C34.159-98.371,34.162-98.376,34.159-98.383ZM34-95.768c-.011-.034-.026-.062-.037-.094,1.975-2.009,3.864-4.1,5.883-6.082a23.622,23.622,0,0,0,5.291-6.99c1.367-3.026,1.326-6.555,1.207-9.8-.078-2.172-.238-4.336-.235-6.511,0-1.741.544-3.482.641-5.2a.612.612,0,0,0,0-1.049v-.027c-.019-.225-.317-.416-.492-.2-.06.069-.1.145-.16.217-5.209,1.24-9.389-2.405-13.145-5.524a.623.623,0,0,0-.618-.509.05.05,0,0,0-.048,0,.646.646,0,0,0-.51.265,16.069,16.069,0,0,1-6.081,4.828c-2.168,1.034-4.46,1.2-6.748,1.713-.048-.1-.093-.2-.145-.3a.11.11,0,0,0-.2.055c.007.107.019.212.03.317a.245.245,0,0,0,.015.463l.026.008c.324,3.473.883,6.92,1.107,10.415a40.273,40.273,0,0,0,1.621,10.54,17.009,17.009,0,0,0,4.81,7.061c2.355,2.131,5.6,3.477,6.595,6.732C33.033-94.673,34.24-95,34-95.768Z" transform="translate(-11.587 -18.687)" fill="#1f2327"/>
    </g>
  </g>
</svg>
