<svg xmlns="http://www.w3.org/2000/svg" width="93.706" height="92.801" viewBox="0 0 93.706 92.801">
  <g id="icon_5" data-name="icon 5" transform="translate(-138 -28.599)">
    <g id="Group_940" data-name="Group 940" transform="translate(138 146.416)">
      <path id="Path_2548" data-name="Path 2548" d="M6.276-90.84c3.893-11.487,13.842-19.291,25.194-22.772,11.8-3.615,26.421-4.231,37.722,1.227C87.971-103.317,96.731-80.2,91.513-60.492c-5.38,20.317-25.726,34.163-46.335,34.418a38.039,38.039,0,0,1-17.19-3.435c-5.135-2.523-9.228-6.754-12.841-11.1C7.274-50.068-.248-59.931.739-72.91,1.638-84.751,7.633-96.406,15.7-105c8.807-9.38,20.966-13.206,33.658-11.791,23.913,2.666,45.033,24.065,39.853,49.241C84.658-45.437,59.3-25.6,36.492-30.238,12.651-35.087.273-60.036,6.274-82.642c5.577-21,27.717-38.273,49.953-32.265C67.221-111.936,79.059-104.064,84.688-94a36.472,36.472,0,0,1,2.226,29.371,34.209,34.209,0,0,1-8.059,12.957.233.233,0,0,0,.329.329A35.966,35.966,0,0,0,89.677-79.37c-.7-11.056-6.342-20.231-15.075-26.857-9.521-7.224-20.931-12-33.017-10.06A44.9,44.9,0,0,0,14.038-99.739C-.716-81.085.765-51.922,20.123-37.072a38.111,38.111,0,0,0,32.666,7.017C64.319-33,74.837-40.772,81.935-50.22c7.354-9.789,10.553-21.868,7.666-33.9a43.08,43.08,0,0,0-20.659-27.118c-10.814-6.181-24.476-8.381-36.548-4.976-11.665,3.291-20.2,12.581-25.888,22.925C.778-82.878-2.418-69.914,2.23-58.487,4.62-52.61,8.761-47.581,12.652-42.641c3.81,4.838,7.952,9.655,13.312,12.827,19.395,11.481,46.995.873,59.381-16.125,12.605-17.3,10.689-42.806-3.941-58.355-8.893-9.451-20.747-12.954-33.464-12.511-12.211.427-24.794,3.819-33.689,12.612a32.871,32.871,0,0,0-8.239,13.28C5.959-90.744,6.22-90.674,6.276-90.84Z" transform="translate(0 0)" fill="#5271ff"/>
    </g>
    <g id="Group_944" data-name="Group 944" transform="translate(157.014 152.833)">
      <path id="Path_2574" data-name="Path 2574" d="M.907-93.147a1.442,1.442,0,0,1,.146-.376l.6.78q.563.749,1.11,1.511l.366.513.688.861c.339.427.67.848.651.8.094.112.184.214.269.3.01.1.018.2.029.3q.081.813.161,1.621L4.307-88l-.389-.625a30.77,30.77,0,0,0-1.977-2.9,13.3,13.3,0,0,0-.9-1.018.222.222,0,0,0-.068-.023.81.81,0,0,0-.123,0A2.547,2.547,0,0,1,.907-93.147ZM1.936-94.3q.317.481.66.937l.054.072.392.506.747.822c.371.4.729.795.706.754.094.1.183.186.267.265a2.788,2.788,0,0,0-.105.527,5.08,5.08,0,0,0-.005.763c-.368-.7-.82-1.439-.82-1.439L3.4-91.7q-.55-.768-1.117-1.526L1.612-94.1A2.463,2.463,0,0,1,1.936-94.3ZM3.2-94.626c.147.236.346.524.553.8.436.582.893,1.123.893,1.123s.65.575.639.536a.655.655,0,0,0,.326.144l-.148.1a1.873,1.873,0,0,0-.427.418,1.6,1.6,0,0,0-.106.172c-.025-.042-.047-.082-.075-.128-.215-.374-.5-.809-.731-1.149l-.4-.589-.446-.575-.05-.07q-.264-.353-.509-.715C2.876-94.587,3.037-94.608,3.2-94.626Zm1.461-.17.069.038a2.2,2.2,0,0,1,.194.142,3.537,3.537,0,0,1,.534.56c.181.229.35.478.473.669l.205.322.256.28a1.736,1.736,0,0,0,.259.256c.023.02.046.036.07.052a4.336,4.336,0,0,0-.786.27L5.7-92.08a.563.563,0,0,0-.067-.358,5.414,5.414,0,0,0-.35-.741s-.459-.545-.88-1.108c-.112-.149-.218-.3-.316-.44Zm1.355-.164c.03.063.064.13.105.2a8.726,8.726,0,0,0,.558.866c.427.593.88,1.138.88,1.138l.131.116c-.21.022-.423.05-.636.089a.858.858,0,0,0-.031-.214,4.672,4.672,0,0,0-.2-.7l-.214-.338c-.131-.2-.312-.476-.52-.741a5.172,5.172,0,0,0-.338-.392Zm1.2-.145-.005.017c-.008.02-.006.022,0,.026s.124.119.286.3a7.8,7.8,0,0,1,.554.7c.377.534.713,1.114.713,1.114s.089.107.195.23l-.492.021c-.118-.272-.263-.531-.263-.531s-.455-.548-.864-1.116a8.562,8.562,0,0,1-.472-.723Zm1.391-.17c.04.046.084.1.136.163a7.975,7.975,0,0,1,.513.724c.174.275.339.56.461.777l.2.363s.21.265.363.446c-.137.012-.276.022-.413.034-.077.007-.156.011-.234.016a5.882,5.882,0,0,0-.174-.57s-.344-.6-.753-1.183a8.993,8.993,0,0,0-.556-.715Zm1.424-.164.131.184c.134.192.307.449.476.71l.668,1.051s.52.572.518.535l.036.027-.042,0c-.333.025-.663.055-1,.083v0a5.486,5.486,0,0,0-.191-.751l-.208-.373c-.127-.224-.3-.526-.487-.825-.13-.206-.268-.408-.4-.584Zm1.074-.112.047.074.509.792c.372.572.765,1.129.765,1.129l.294.293a2.678,2.678,0,0,0,.284.255l-.777.051a.827.827,0,0,0-.029-.234,4.592,4.592,0,0,0-.2-.7l-.682-1.076c-.128-.2-.259-.4-.376-.568Zm1.379-.12.09-.007.089.119c.155.21.354.49.55.774l.776,1.143s.378.4.521.538l-1.085.069a1,1,0,0,0-.054-.225,5.981,5.981,0,0,0-.276-.724s-.388-.55-.759-1.122L12-95.628C12.161-95.642,12.322-95.658,12.484-95.67Zm1.783-.13c.041.032.089.074.149.13a5.885,5.885,0,0,1,.56.688c.2.272.384.555.526.769l.239.358.293.308a1.835,1.835,0,0,0,.3.274c.026.02.051.036.077.052l-1.434.091a1.422,1.422,0,0,0-.042-.168,5.5,5.5,0,0,0-.268-.755l-.79-1.168c-.125-.181-.251-.36-.368-.524Zm1.869-.13c.044.059.1.132.162.222.151.211.343.5.528.794l.744,1.2.291.323.069.073q-.586.041-1.171.079a.809.809,0,0,0-.069-.29,7.656,7.656,0,0,0-.27-.733l-.239-.36c-.145-.218-.339-.512-.549-.806-.108-.151-.221-.3-.334-.442Zm1.461-.1.055,0,.857,1.145c.426.574.826,1.154.826,1.154l.265.28c-.362.031-.723.057-1.083.084a7.412,7.412,0,0,0-.257-.743l-.752-1.212c-.147-.235-.3-.469-.437-.669Zm1.838-.139c.036.073.078.159.134.258a8.246,8.246,0,0,0,.574.875c.221.3.45.582.621.793l.285.347.323.289h0l-1.119.1a5.277,5.277,0,0,0-.243-.642s-.415-.6-.851-1.193l-.566-.759Zm1.828-.154.168.238.622.864.893,1.235.209.22-1.14.1a5.149,5.149,0,0,0-.329-.706l-.287-.351c-.17-.211-.4-.49-.606-.774a7.813,7.813,0,0,1-.493-.742Zm1.455-.132.2-.016c0,.016,0,.019,0,.023s.131.113.3.291a6.726,6.726,0,0,1,.574.7,13.265,13.265,0,0,1,.721,1.127l.263.321.082.1c-.331.028-.663.055-.993.084-.109-.3-.249-.584-.249-.584l-.909-1.261-.527-.733Zm1.661-.129a2.682,2.682,0,0,0,.192.381,9.243,9.243,0,0,0,.551.794c.412.542.825,1.056.825,1.056l.3.269.064.058c-.3.022-.594.043-.889.067a5.053,5.053,0,0,0-.2-.74,14.134,14.134,0,0,0-.772-1.213,8.034,8.034,0,0,0-.509-.638Zm1.257-.1a3.449,3.449,0,0,0,.242.354c.184.245.432.545.684.839.5.587,1.016,1.15,1.016,1.15l.248.2-.151.009c-.261.017-.52.038-.78.056,0-.007,0-.012,0-.02a4.115,4.115,0,0,0-.3-.727s-.424-.531-.827-1.059a8.693,8.693,0,0,1-.51-.734c-.01-.016-.015-.028-.024-.043Zm1.934-.136c.04.046.083.1.134.16.164.2.377.483.591.769s.433.572.6.784.292.351.292.351.17.148.347.284c.119.091.236.17.3.21-.424.028-.849.054-1.273.08a6.936,6.936,0,0,0-.371-.66s-.517-.569-1.016-1.152c-.23-.269-.453-.539-.619-.755Zm1.724-.128a18.433,18.433,0,0,1,1.75,2.13l.35.349.093.089q-.584.043-1.169.083a.888.888,0,0,0-.122-.259c-.152-.3-.382-.69-.382-.69s-.113-.129-.278-.334-.38-.487-.6-.775c-.138-.184-.277-.368-.407-.536Zm1.451-.116.241.25c.208.22.477.516.738.817.523.6,1.009,1.228,1.009,1.228l.279.273-.92.07c-.138-.362-.387-.834-.387-.834-.439-.584-.877-1.2-1.382-1.768Zm1.223-.114c.062.057.166.154.3.284.209.2.477.479.736.765.518.572,1.008,1.176,1.008,1.176s.2.183.383.35l-.687.053a6.917,6.917,0,0,0-.323-.672s-.5-.654-1.048-1.281c-.2-.232-.4-.46-.585-.656Zm1.447-.145c.02.034.038.064.061.1a10.186,10.186,0,0,0,.638.9c.243.311.5.607.684.825l.316.362s.312.269.518.437l-.6.046a6.755,6.755,0,0,0-.384-.772s-.5-.62-1.045-1.224c-.2-.224-.409-.443-.594-.63C33.148-97.283,33.282-97.3,33.416-97.315Zm1.892-.233.129.179c.168.229.4.519.632.8l.918,1.1.317.289a2.915,2.915,0,0,0,.3.267c.034.027.068.052.1.075-.5.035-1.01.072-1.515.11-.013-.034-.023-.064-.041-.105a5.958,5.958,0,0,0-.412-.783s-.517-.575-.985-1.171c-.169-.214-.327-.432-.458-.627C34.633-97.458,34.971-97.5,35.307-97.548Zm1.4-.178.261.333c.208.261.486.6.766.935l1.125,1.32.232.208c-.354.022-.708.044-1.063.069a.912.912,0,0,0-.062-.3,4.432,4.432,0,0,0-.34-.774l-.935-1.124c-.173-.208-.34-.417-.48-.6C36.378-97.683,36.543-97.706,36.708-97.726Zm1.259-.134.265-.024L40.4-95.391s.2.176.391.345c-.312.023-.621.046-.927.067-.166-.323-.367-.639-.367-.639L38.36-96.951c-.261-.312-.516-.624-.717-.874C37.751-97.837,37.859-97.85,37.968-97.86Zm1.836-.157a.575.575,0,0,0,0,.179.072.072,0,0,0,.018.055c.29.361.6.69.908,1.011l.333.336.454.447.843.719.178.151c-.26,0-.518,0-.775.013-.1,0-.192.012-.289.017a8.331,8.331,0,0,0-.443-.787l-1.817-2.1C39.408-97.989,39.606-98,39.8-98.017Zm1.734-.121a11.07,11.07,0,0,0,.969.878l.569.469c.172.163.345.33.52.506.351.348.692.707,1.032,1.068.677.726,1.338,1.471,2.006,2.218l.423.471.8.772c.4.378.8.738.775.7a5.618,5.618,0,0,0,.523.389c.051.57.1,1.141.16,1.707.022.212.049.422.072.634-.039-.061-.08-.126-.128-.2-.459-.728-1.222-1.686-1.222-1.686l-.506-.543q-.8-.845-1.646-1.64c-.3-.279-.605-.55-.917-.815a4.024,4.024,0,0,0-.191-.745,1.86,1.86,0,0,0-.314-.548,1.563,1.563,0,0,0-.532-.406,2.245,2.245,0,0,0-.587-.165c-.235-.3-.505-.618-.732-.877l-.472-.534L41.618-97l-.322-.33q-.357-.368-.683-.749C40.922-98.1,41.23-98.119,41.538-98.139Zm1.443-.088.568-.035a7.164,7.164,0,0,0,1.1.855c.078.055.152.11.223.165l.093.076.1.1.41.407c.274.277.539.562.8.852l.413.468s.386.394.755.793.723.8.7.754c.614.647,1.1,1.009.365-.247-.212-.376-.5-.813-.732-1.154s-.421-.586-.421-.586l-.492-.56c-.267-.3-.541-.592-.823-.879-.142-.144-.28-.283-.432-.429l-.112-.108-.136-.112c-.085-.066-.17-.129-.254-.188-.135-.095-.267-.185-.395-.275l.765-.047.053,0,.353.362c.217.226.5.529.778.835.556.611,1.083,1.242,1.083,1.242s.742.687.728.645c.177.137.344.222.417.179.041.415.063.837.08,1.26.032.81.041,1.64.118,2.465.006.078.015.155.022.233-.043-.057-.09-.119-.142-.186-.506-.688-1.253-1.638-1.253-1.638l-.491-.546c-.665-.743-1.33-1.494-2.016-2.231-.345-.367-.692-.733-1.051-1.089-.178-.179-.364-.359-.555-.54l-.587-.485c-.13-.108-.261-.219-.389-.33Zm4.7.179a1.741,1.741,0,0,1,.684.731,4.9,4.9,0,0,1,.355,1.075c.051.24.089.485.121.731-.009-.02-.013-.035-.023-.057a6.77,6.77,0,0,0-.44-.852s-.542-.651-1.116-1.285c-.208-.231-.419-.458-.606-.656A2.64,2.64,0,0,1,47.684-98.047Zm1.961,11.934c-.424-.6-.886-1.18-.886-1.18l-.5-.545-2.213-2.385-.866-.948q-.035-.425-.076-.852c.079.071.161.138.238.211q.83.774,1.613,1.6l.427.458.786.768c.386.383.762.763.738.722a5.291,5.291,0,0,0,.54.46C49.511-87.235,49.574-86.673,49.645-86.113Zm.113.885c.045.347.089.7.134,1.044.018.145.032.289.049.432-.466-.621-.99-1.29-.99-1.29l-.494-.546c-.715-.79-1.444-1.579-2.235-2.318-.274-.251-.553-.5-.841-.733q-.05-.617-.1-1.237l.179.2L47.678-87.3l.426.464.788.77c.389.382.765.76.741.719Zm.267,2.241c.049.468.092.936.134,1.4-.517-.664-1.228-1.467-1.228-1.467l-.523-.518-2.075-2.053-.47-.464-.059-.058a.509.509,0,0,1-.04-.042l-.114-.124-.051-.058c-.02-.179-.04-.357-.059-.536-.021-.2-.039-.4-.059-.6.067.06.133.119.2.179.762.711,1.478,1.483,2.189,2.269l.424.468.8.772c.4.38.8.74.775.7C49.921-83.069,49.974-83.027,50.025-82.987Zm.189,2.044q.058.705.11,1.407c-.469-.653-1.048-1.373-1.048-1.373l-.5-.541c-.627-.67-1.266-1.333-1.93-1.975-.321-.309-.646-.613-.98-.91a.163.163,0,0,0-.042-.013q-.041-.37-.081-.74l.037.037L47.854-83l.45.444s1.68,1.472,1.626,1.394C50.029-81.081,50.125-81.009,50.214-80.943Zm.26,3.712-.952-1.251-.481-.555c-.3-.343-.595-.687-.9-1.029l-.467-.509a5.4,5.4,0,0,0-.527-.5,9.222,9.222,0,0,1-.944-.836.2.2,0,0,0-.06-.019c-.023,0-.041,0-.063,0q-.064-.619-.13-1.238c.114.107.23.21.342.317.651.628,1.282,1.28,1.9,1.945l.429.46s1.606,1.551,1.556,1.471c.065.057.129.111.191.162C50.406-78.284,50.441-77.755,50.474-77.231Zm.049.744c.028.443.058.886.086,1.327l-.129-.149c-.278-.328-.63-.706-.909-1.006l-.484-.518-.529-.5a18.163,18.163,0,0,1-1.282-1.359,8.765,8.765,0,0,1-.744-1.017.194.194,0,0,0-.057-.034.864.864,0,0,0-.179-.041c-.033-.347-.066-.693-.1-1.04.151.126.3.245.441.365a4.65,4.65,0,0,1,.462.434l.453.493.891,1.017.415.478s.393.4.793.784a8.668,8.668,0,0,0,.785.7Zm.2,2.7c-.509-.583-1.08-1.2-1.08-1.2l-.541-.5c-.488-.456-1-.912-1.5-1.346-.183-.16-.358-.291-.521-.426a2.67,2.67,0,0,1-.407-.393.138.138,0,0,0-.05-.015l-.138-.008q-.034-.411-.07-.823c.084.108.167.218.254.323a18.768,18.768,0,0,0,1.34,1.417l.464.44s.435.36.868.7.857.663.828.626c.175.126.34.236.476.316C50.668-74.382,50.7-74.085,50.721-73.788Zm.183,2.07-.09-.1L49.493-73.4l-.52-.525c-.35-.351-.71-.7-1.085-1.035-.334-.3-.682-.587-1.04-.861a.237.237,0,0,0-.07-.013.821.821,0,0,0-.153.02c-.019-.28-.039-.559-.06-.84l.009.008c.176.146.353.279.5.409.511.445,1,.875,1.488,1.331l.462.429.856.7c.425.346.851.677.822.639l.079.055C50.824-72.622,50.863-72.169,50.9-71.718Zm.124,1.332c.009.11.018.218.027.327-.507-.649-1.169-1.374-1.169-1.374l-.536-.509-1.505-1.4-.49-.447-.01-.014-.033-.037-.04-.039-.064-.058-.119-.1-.228-.195a.2.2,0,0,0-.067-.015c-.027,0-.049,0-.074.007-.012-.23-.023-.459-.037-.69.23.184.457.372.676.571.36.321.708.657,1.054,1l.443.446.83.738a10.3,10.3,0,0,0,.811.663c.167.12.323.225.455.3C50.978-70.936,51-70.659,51.029-70.386Zm.171,2.2c0,.086.008.172.014.258-.252-.3-.549-.627-.8-.884l-.5-.512-.55-.484A21,21,0,0,1,47.628-71.5a9.336,9.336,0,0,1-.79-.994.149.149,0,0,0-.035-.021c-.01-.252-.02-.5-.031-.757,0-.013,0-.026,0-.039l.041-.039.114-.1a.432.432,0,0,1,.084-.064c.014-.02.041-.016.036-.02l-.266.3.531.485,1.5,1.388.457.434.838.715c.414.355.815.706.789.667.077.064.151.122.222.176Q51.163-68.778,51.2-68.188Zm.058,1.086.02.54c0,.177.015.37,0,.516,0,.035,0,.067-.007.1-.034-.041-.068-.082-.107-.128-.277-.333-.639-.709-.929-1l-.506-.5-.555-.476a17.433,17.433,0,0,1-1.27-1.21,5.9,5.9,0,0,1-.748-.975.2.2,0,0,0-.054-.033.933.933,0,0,0-.125-.032c-.021-.279-.047-.553-.075-.822.045.05.087.1.132.155a21.878,21.878,0,0,0,1.8,1.754l.477.42.874.674c.43.334.843.666.814.629l.242.179C51.25-67.243,51.256-67.172,51.258-67.1Zm-.2,1.861a1.276,1.276,0,0,1-.672.446c-.027.009-.057.013-.084.02-.084-.11-.2-.251-.364-.434-.548-.648-1.305-1.579-1.305-1.579l-.494-.537-.346-.388-.438-.492-.109-.124-.029-.033a.439.439,0,0,0-.058-.058l-.051-.046a2.842,2.842,0,0,1-.192-.211.124.124,0,0,0-.042-.016,2.712,2.712,0,0,0,.1-.438q.172.211.353.409a17.934,17.934,0,0,0,1.333,1.268l.482.415.886.661c.438.324.855.649.826.612.124.09.24.173.345.244A1.017,1.017,0,0,1,51.06-65.24Zm-2.517.706c-.017-.043-.032-.086-.058-.14-.147-.373-.412-.862-.412-.862l-.32-.426c-.193-.256-.455-.6-.738-.938a9.573,9.573,0,0,0-.778-.829h0a1,1,0,0,0,.208-.2l.038-.047c.025.026.046.054.073.08l.07.066.026.029.11.124.44.495.351.39.431.47s.408.391.824.756a8.9,8.9,0,0,0,.814.664c.11.081.215.153.314.215C49.5-64.6,49.023-64.576,48.543-64.534Zm-1.208.144-.719.089c-.012-.029-.019-.054-.034-.087-.125-.343-.346-.79-.346-.79l-.276-.39c-.166-.236-.388-.556-.624-.875-.174-.236-.36-.469-.531-.667a4.163,4.163,0,0,0,.7-.2l.117.1a8.284,8.284,0,0,1,.767.806c.264.312.515.641.7.89l.315.418.362.363c.1.1.2.188.266.25C47.8-64.452,47.564-64.42,47.335-64.39Zm-3.047.336-1.16.1-.669.056h-.13a1.577,1.577,0,0,0-.063-.149c-.139-.351-.388-.811-.388-.811l-.307-.4c-.185-.239-.438-.562-.717-.875a7.385,7.385,0,0,0-.611-.616l.45-.03c.046.069.111.167.2.287.154.221.366.5.583.778.433.548.869,1.069.869,1.069s.624.556.615.52c.277.2.551.264.35-.267a4.814,4.814,0,0,0-.329-.728s-.445-.534-.87-1.073c-.179-.227-.35-.454-.488-.647l.581-.039.127.159.59.72c.212.258.418.515.567.71l.243.326.279.279a2.42,2.42,0,0,0,.265.262c.24.218.507.327.38-.222a3.638,3.638,0,0,0-.26-.755l-.259-.349c-.157-.208-.373-.477-.59-.742l-.37-.452c.215-.014.436-.033.657-.052.057.056.129.128.214.22a9.357,9.357,0,0,1,.644.783c.224.3.439.609.6.844l.278.391s.163.172.331.335c.065.064.128.123.184.174C45.483-64.172,44.883-64.109,44.288-64.053Zm-3.447.274c-.012-.037-.023-.072-.042-.118a5.313,5.313,0,0,0-.368-.746s-.476-.55-.935-1.1c-.23-.278-.454-.56-.616-.778-.033-.043-.062-.082-.09-.12l.333-.022c0,.023,0,.044,0,.061s0,.023.007.027a2.788,2.788,0,0,1,.382.261,5.693,5.693,0,0,1,.742.709c.253.284.494.588.674.82l.3.389.348.336c.078.073.154.142.217.2Zm-1.775.168,0-.008a8.226,8.226,0,0,0-.353-.783s-.448-.6-.888-1.232L37.2-66.5l-.013-.018c.279-.024.562-.046.844-.067a.555.555,0,0,0-.073.122c-.01.019-.009.022,0,.028s.116.165.285.389.4.513.629.793c.464.561.932,1.1.932,1.1s.314.271.506.427Zm-1.432.136a.821.821,0,0,0-.082-.281,6.077,6.077,0,0,0-.332-.7s-.431-.518-.82-1.067c-.2-.274-.381-.555-.514-.771l-.053-.087.434-.046.29.392.6.847c.434.62.889,1.233.889,1.233l.333.323.087.08Zm-2.727.258c-.011-.034-.019-.064-.035-.1a4.816,4.816,0,0,0-.39-.772l-.309-.352c-.184-.211-.427-.49-.656-.775a6.923,6.923,0,0,1-.568-.8c-.01-.018-.017-.032-.026-.049.191-.02.38-.037.571-.057.032.053.1.168.2.314.131.2.313.446.5.685.376.476.747.925.747.925l.272.229a1.771,1.771,0,0,0,.264.208c.241.166.5.221.356-.258a3.489,3.489,0,0,0-.256-.654l-.748-.928c-.173-.22-.334-.442-.453-.619l.6-.068a.019.019,0,0,0,0,.018c0,.008.094.167.235.394s.333.519.535.8c.4.568.842,1.1.842,1.1l.317.272a2.048,2.048,0,0,0,.313.238l.055.032Zm-1.433.136a1.215,1.215,0,0,0-.073-.205,5.379,5.379,0,0,0-.389-.742l-.3-.339c-.179-.2-.411-.475-.627-.755a6.445,6.445,0,0,1-.531-.791c0-.008-.006-.014-.01-.021l.257-.023.275-.027a2.6,2.6,0,0,0,.18.359,7.383,7.383,0,0,0,.628.887c.239.3.486.581.669.79l.3.347.34.286.175.148Zm-1.766.167a1.112,1.112,0,0,0-.049-.234,5.943,5.943,0,0,0-.277-.805s-.1-.157-.261-.395-.381-.551-.632-.857a5.82,5.82,0,0,0-.551-.589l.754-.066c.037.084.092.2.163.326a7.141,7.141,0,0,0,.588.882c.229.3.469.578.65.783l.3.34s.461.378.614.49Zm-1.867.177a.9.9,0,0,0-.022-.223,4.568,4.568,0,0,0-.191-.733s-.327-.576-.709-1.141c-.19-.282-.4-.559-.564-.762l-.046-.055.2-.018.36-.032c0,.037,0,.07-.005.093s0,.022.006.025.039.016.1.049a2.17,2.17,0,0,1,.237.162,4.267,4.267,0,0,1,.657.658c.223.269.43.56.582.783l.249.376.3.331a2.383,2.383,0,0,0,.293.306l.046.038Zm-1.025.1-.406.027c.065-.031.087-.14.016-.383a4.375,4.375,0,0,0-.267-.71s-.394-.524-.749-1.057a6.041,6.041,0,0,1-.431-.736l-.012-.029.592-.054a.823.823,0,0,0-.083.157c-.009.019-.007.021,0,.026s.114.123.264.3.339.433.515.694c.355.522.674,1.079.674,1.079s.508.61.507.574l.05.044Zm-1.61.11c-.008-.033-.013-.062-.025-.1a5.4,5.4,0,0,0-.292-.795l-.829-1.219c-.181-.271-.355-.542-.492-.765l.575-.048a2.3,2.3,0,0,0,.113.293,6.666,6.666,0,0,0,.481.828c.372.559.761,1.075.761,1.075s.572.552.563.516a.759.759,0,0,0,.257.142Zm-1.759.119a1.192,1.192,0,0,0-.027-.212,4.059,4.059,0,0,0-.258-.793l-.25-.372c-.149-.221-.345-.513-.522-.808a5.561,5.561,0,0,1-.361-.7l.651-.05c.041.07.092.155.154.257.147.243.349.557.555.865l.825,1.209s.315.34.486.514Zm-1.225.083c-.083-.315-.207-.642-.207-.642l-.243-.408c-.147-.245-.35-.574-.573-.9a8.4,8.4,0,0,0-.674-.865c-.014-.017-.027-.029-.041-.045l.714-.049c.01.029.021.06.033.091a5.707,5.707,0,0,0,.467.94c.189.316.39.614.538.832l.244.363.285.309a2.894,2.894,0,0,0,.268.284c.01.01.02.018.03.028Zm-1.78.121a5.519,5.519,0,0,0-.191-.782s-.337-.646-.724-1.283c-.169-.278-.346-.549-.5-.769l.638-.066a.827.827,0,0,0-.054.146c-.006.021,0,.023,0,.028a4.425,4.425,0,0,1,.317.323,7.717,7.717,0,0,1,.6.773c.206.3.4.605.54.841l.235.395s.127.157.261.319Zm-1.638.112a1.307,1.307,0,0,0-.029-.2,4.513,4.513,0,0,0-.245-.8l-.243-.386c-.145-.23-.339-.533-.522-.838-.113-.188-.218-.376-.309-.55l.662-.074c.048.064.114.153.192.262.154.215.347.506.529.806.366.6.694,1.224.694,1.224s.21.284.363.48Zm-1.235.084a5.946,5.946,0,0,0-.187-.681l-.217-.376c-.132-.226-.312-.529-.512-.828a7.988,7.988,0,0,0-.6-.8l-.017-.019c.191-.019.386-.041.579-.061.121.253.287.558.463.852.189.316.384.619.527.845l.237.375.28.324a2.628,2.628,0,0,0,.269.3l.017.015Zm-1.594.109c.056-.04.074-.145.016-.36a4.276,4.276,0,0,0-.225-.681L16.626-64.6c.2-.014.4-.033.6-.05a.849.849,0,0,0-.061.139c-.007.02-.005.022,0,.027s.124.118.283.3a7.17,7.17,0,0,1,.54.713c.365.545.691,1.137.691,1.137s.154.191.3.36Zm-1.391.095c-.007-.037-.012-.073-.024-.119a4.23,4.23,0,0,0-.26-.749l-.788-1.114c-.174-.251-.338-.5-.463-.707l.651-.037,1.391,2.011s.533.538.53.5a.753.753,0,0,0,.226.127Zm-1.409.1c0-.005,0-.009,0-.014a4.4,4.4,0,0,0-.257-.787l-.252-.375L14.1-63.7c-.176-.25-.347-.5-.486-.7l.249-.022.3-.022c.039.071.095.17.165.285.137.23.327.523.523.805l.78,1.1.283.289.184.187Zm-1.189.081c0-.04-.009-.079-.019-.129a4.292,4.292,0,0,0-.219-.766s-.367-.592-.752-1.166l-.411-.616.126-.011.167.255c.151.227.356.522.56.811.411.577.8,1.147.8,1.147l.284.31.11.121Zm-1.269.086a4.7,4.7,0,0,0-.193-.646l-.24-.391-.535-.838c-.189-.3-.369-.593-.5-.824.192,0,.343,0,.424,0l.65.974c.379.562.729,1.124.729,1.124l.266.306c.081.093.157.181.206.234Zm-3.135.193c-.058-.1-.128-.226-.215-.373-.2-.371-.428-.823-.6-1.187l-.3-.637-.182-.338-.192-.37-.167-.33a2.834,2.834,0,0,0,.642.316,2.577,2.577,0,0,0,.4.1c.017.035.033.069.053.109.11.224.268.511.429.789l.646,1.082.244.287a2.08,2.08,0,0,0,.237.265c.219.219.471.328.394-.2a3.694,3.694,0,0,0-.174-.726l-.652-1.1c-.141-.242-.272-.481-.372-.679.179.022.369.039.559.052.021.043.1.2.219.411.136.246.327.559.521.863l.527.823c.138.222.229.371.229.371l.259.312Zm-1.354.082c-.041-.1-.088-.211-.15-.344C7.748-62.4,7.247-63.5,7.247-63.5L6.9-64.147,5.488-66.813l-.368-.671c-.128-.216-.242-.423-.356-.642-.226-.437-.442-.894-.685-1.349a7.643,7.643,0,0,0-.749-1.174.214.214,0,0,0-.067-.032.592.592,0,0,0-.307,0c-.013-.127-.027-.252-.04-.378-.048-.465-.094-.935-.141-1.4.026.043.054.086.079.128.917,1.521,1.7,3.14,2.569,4.731.215.4.448.8.663,1.179s.418.783.62,1.182l.609,1.207.406.775s.3.485.619.941A7.209,7.209,0,0,0,9-61.486c.052.057.1.11.154.16Zm-1.446.089c-.031-.085-.065-.177-.107-.282-.3-.806-.8-1.906-.8-1.906l-.349-.645L5.213-64.6c-.1-.191-.2-.408-.323-.606-.23-.4-.476-.771-.7-1.141A7.206,7.206,0,0,1,3.6-67.449a.192.192,0,0,0-.052-.041.77.77,0,0,0-.262-.089q-.113-1.026-.223-2.063c.109.175.213.358.313.545.231.431.445.883.68,1.338.117.227.246.459.374.675l.357.651,1.41,2.66.3.56s.295.478.6.94.607.906.591.861c.045.059.088.115.131.168C7.476-61.225,7.13-61.2,6.784-61.181Zm-1.126.06c-.029,0-.058,0-.087,0a1.32,1.32,0,0,0-.023-.215,5.793,5.793,0,0,0-.193-.845s-.338-.684-.717-1.36c-.189-.338-.39-.673-.55-.923s-.273-.417-.279-.426a.109.109,0,0,0-.042,0,.813.813,0,0,0-.169.049c-.045-.383-.089-.766-.133-1.151.014.024.029.049.044.073.236.385.481.751.692,1.12.11.182.194.368.3.567l.317.587.3.559s1.183,1.909,1.153,1.817l.081.116C6.124-61.145,5.887-61.13,5.658-61.121Zm-.969-.131a1.038,1.038,0,0,1-.593-.582,3.817,3.817,0,0,1-.258-1.009c-.03-.208-.056-.42-.081-.636.06.1.12.206.179.312.363.643.692,1.307.692,1.307s.521.75.519.709l.012.013A1.865,1.865,0,0,1,4.689-61.252ZM2.63-73.937q-.049-.505-.1-1.013c.351.626.736,1.218,1.109,1.805s.753,1.212,1.114,1.827l.318.544.614.921c.257.383.513.753.579.835,0,.036,0,.072.008.107.06.549.138,1.09.238,1.628l-.351-.624c-.875-1.592-1.67-3.25-2.628-4.841-.231-.383-.469-.762-.723-1.132a.235.235,0,0,0-.062-.034A.812.812,0,0,0,2.63-73.937Zm-.378-4.032.019.03q1.015,1.566,1.965,3.177l.319.543.609.919c.3.455.593.9.577.858.105.151.207.286.3.4q.065.86.128,1.706c-.2-.422-.357-.747-.357-.747l-.372-.638c-.366-.624-.741-1.238-1.128-1.851s-.775-1.2-1.113-1.815a8.606,8.606,0,0,1-.538-1.139.232.232,0,0,0-.05-.044.722.722,0,0,0-.238-.092Q2.311-77.314,2.252-77.968Zm-.108-1.548c-.011,0-.02,0-.031-.006q-.029-.326-.058-.651L3.7-77.6l.34.533s1.312,1.811,1.277,1.723a4.43,4.43,0,0,0,.52.573q.065.857.128,1.7c-.3-.713-.67-1.461-.67-1.461l-.374-.638q-.957-1.622-1.98-3.206l-.732-1.109A.2.2,0,0,0,2.144-79.516Zm-.232-2.365,0,0c-.027-.312-.054-.625-.081-.937Q2.7-81.3,3.64-79.827l.34.536.656.894c.327.44.651.867.633.824.14.171.273.323.385.436.036.475.072.948.11,1.419.009.118.018.235.027.353-.027-.06-.056-.122-.09-.191-.355-.782-.937-1.848-.937-1.848l-.4-.621L2.622-80.767ZM44.806-86.1a.092.092,0,0,0,.023.062l.007.009c.063.564.127,1.125.186,1.684q.2,1.929.406,3.838c.254,2.543.461,5.056.562,7.529.02.608.052,1.263.119,1.876a10.666,10.666,0,0,1,.093,1.759,1.331,1.331,0,0,1-.711,1.164,4.172,4.172,0,0,1-1.574.392c-2.367.179-4.7.3-6.972.488-1.138.105-2.252.244-3.345.364s-2.166.218-3.233.305c-2.133.183-4.182.388-6.151.529L11.788-65.04s-.548.077-1.085.138-1.065.1-1.019.112l-.134.015-.025,0a1.05,1.05,0,0,0-.247.037.871.871,0,0,0-.128-.184c-.018-.023-.023-.023-.039-.026a1.8,1.8,0,0,1-.279-.073,2.118,2.118,0,0,1-.626-.344L8.164-65.4l-.021-.018-.034-.029a2,2,0,0,1-.221-.238,1.815,1.815,0,0,1-.3-.578,7.291,7.291,0,0,1-.2-.73c-.115-.5-.2-1.027-.266-1.556-.148-1.059-.162-2.137-.263-3.269Q6.73-73.506,6.6-75.236c-.188-2.3-.343-4.651-.513-7.063C6-83.5,5.907-84.723,5.8-85.953q-.087-.922-.174-1.853c-.061-.618-.138-1.24-.18-1.847a1.9,1.9,0,0,1,.316-1.476,2.774,2.774,0,0,1,1.485-.643,14.593,14.593,0,0,1,1.848-.15c.315-.012.657-.03.977-.062l.954-.083c2.545-.21,5.147-.307,7.761-.521s5.237-.474,7.867-.664l3.963-.257,3.969-.3c1.322-.1,2.642-.2,3.961-.288.656-.044,1.323-.078,1.985-.132s1.308-.1,1.948-.1c.668,0,1.229.038,1.444.431a2.239,2.239,0,0,1,.255.788c.053.3.084.622.116.95.127,1.3.21,2.61.321,3.917.053.643.119,1.282.188,1.916a.011.011,0,0,1,0,0A.7.7,0,0,0,44.806-86.1ZM1.728-84.561c-.019-.007-.034-.009-.051-.015-.022-.264-.045-.525-.068-.789C2.273-84.194,3.022-83.09,3.76-82l.352.523.658.88c.322.437.624.873.607.83l.1.133q.06.866.123,1.723c-.366-.762-.894-1.724-.894-1.724l-.393-.621c-.649-1.03-1.282-2.07-1.886-3.123-.216-.38-.431-.762-.639-1.147A.215.215,0,0,0,1.728-84.561ZM1.5-87.241a.789.789,0,0,0-.125-.047c-.06-.425-.121-.848-.179-1.269.055.07.112.137.166.207.764,1,1.48,2.039,2.169,3.1l.341.529.646.894c.319.444.631.879.614.834.039.05.077.1.114.145Q5.324-81.8,5.4-80.77c-.284-.566-.567-1.057-.567-1.057l-.412-.614c-.8-1.191-1.605-2.367-2.28-3.6-.206-.38-.405-.763-.578-1.155A.211.211,0,0,0,1.5-87.241Zm-.408-2.667c-.021,0-.036,0-.055-.005-.025-.272-.047-.545-.06-.815S.947-91.251.92-91.5q.2.233.4.474A30.085,30.085,0,0,1,3.246-88.2l.335.537s.323.458.653.9a9.437,9.437,0,0,0,.651.82c.043.05.086.1.128.144q.08.92.15,1.834C4.878-84.546,4.6-85.06,4.6-85.06l-.4-.623c-.695-1.073-1.421-2.131-2.2-3.153-.272-.353-.548-.7-.835-1.045A.205.205,0,0,0,1.095-89.908Zm-.9-.729c.012.216.027.427.044.637.071.84.191,1.667.309,2.481S.774-85.9.842-85.1q.1,1.225.2,2.442.412,4.87.874,9.6c.31,3.148.647,6.245,1.005,9.266.044.376.081.754.142,1.145a4.238,4.238,0,0,0,.338,1.2,2.418,2.418,0,0,0,.177.3,2.72,2.72,0,0,0,.236.27,1.944,1.944,0,0,0,.6.368,3.193,3.193,0,0,0,1.249.179c1.511-.075,2.953-.174,4.4-.259l4.269-.259,4.127-.3,7.843-.517L41.9-63.082l.022.014a.068.068,0,0,0,.054.015l1.2-.1.662-.058c1.33-.119,2.69-.257,4.061-.45.656-.1,1.348-.1,2.086-.22a3.362,3.362,0,0,0,1.133-.374,1.823,1.823,0,0,0,.83-1.022,1.431,1.431,0,0,0,.079-.312,1.75,1.75,0,0,0,.04-.31l.011-.3-.007-.272c-.009-.363-.025-.726-.043-1.09-.037-.728-.09-1.459-.151-2.192q-.2-2.19-.4-4.435c-.125-1.486-.193-3.007-.3-4.543s-.227-3.088-.4-4.653c-.08-.781-.187-1.575-.291-2.351s-.2-1.566-.284-2.355-.168-1.583-.241-2.38q-.052-.6-.1-1.2c-.032-.39-.048-.788-.063-1.19-.028-.8-.042-1.624-.13-2.458a9.56,9.56,0,0,0-.207-1.258c-.053-.21-.113-.42-.186-.623a3.526,3.526,0,0,0-.286-.632,2.5,2.5,0,0,0-1.047-.978,3.752,3.752,0,0,0-1.324-.349,8.5,8.5,0,0,0-1.294-.006l-1.233.08c-1.645.1-3.3.188-4.971.326q-1.25.1-2.5.247c-.836.1-1.668.219-2.49.32-1.5.184-3.012.32-4.53.437l-.012-.01-.034-.031-.037-.02c-.02-.011-.04-.022-.078-.039a.411.411,0,0,0-.055-.02l-.015,0A.4.4,0,0,0,29.3-97.9a.5.5,0,0,0-.074,0l-.036,0a.4.4,0,0,0-.135.051.354.354,0,0,0-.133.133l-4.828.346c-1.689.122-3.37.308-5.043.432-2.593.2-5.2.329-7.8.57,0,0,0-.008-.005-.011-.016-.02-.018-.021-.064-.02l-.021,0-.03,0a.447.447,0,0,0-.128.049c-.681.065-1.361.136-2.04.22l-4.986.6c-.207.024-.416.052-.615.071s-.424.041-.646.078a3.719,3.719,0,0,0-1.313.449,2.883,2.883,0,0,0-1.047,1,2.873,2.873,0,0,0-.3,1.4c0,.451.06.876.1,1.28C.172-91.029.181-90.847.19-90.638Z" transform="translate(-0.028 0)" fill="#1f2327"/>
      <path id="Path_2575" data-name="Path 2575" d="M54.563-16.406c-.116-.283-.252-.54-.252-.54l-.292-.39c-.174-.233-.4-.545-.608-.862a7.077,7.077,0,0,1-.508-.9c-.017-.036-.029-.066-.043-.1.138-.014.276-.024.413-.037.016.037.033.075.053.117a6.874,6.874,0,0,0,.408.739c.159.254.323.495.444.673l.2.3.244.243a1.7,1.7,0,0,0,.235.222.881.881,0,0,0,.138.1,1.348,1.348,0,0,1-.425.433Zm-.995.39a6.915,6.915,0,0,0-.263-.77l-.815-1.343c-.2-.337-.4-.678-.541-.938l-.018-.034.1-.009c.034.09.082.208.147.346a7.783,7.783,0,0,0,.555.984c.22.336.452.655.626.889l.291.388.332.328.027.027A4.045,4.045,0,0,1,53.569-16.016Zm-1.386.192-.158.015a.878.878,0,0,0-.029-.31,4.925,4.925,0,0,0-.245-.79l-.233-.379c-.138-.227-.316-.53-.472-.837a4.69,4.69,0,0,1-.345-.848c0-.008,0-.014-.006-.023l.37-.031.188.344c.147.263.344.606.545.944l.811,1.334s.238.286.414.491C52.749-15.877,52.469-15.851,52.183-15.824Zm-.887.087c-.056.005-.112.008-.168.013a6.482,6.482,0,0,0-.249-.77l-.255-.44c-.152-.263-.351-.613-.531-.968a7.692,7.692,0,0,1-.429-.989c0-.007,0-.012-.006-.018l.235-.019c.011.05.024.1.04.16a5.35,5.35,0,0,0,.4.986c.169.333.353.647.493.877l.234.381.282.325a2.529,2.529,0,0,0,.272.293,1.273,1.273,0,0,0,.147.123Zm-1.285.1a1.228,1.228,0,0,0-.023-.22,5.472,5.472,0,0,0-.2-.816s-.346-.647-.671-1.3c-.153-.307-.3-.615-.4-.86l.128-.011q.028.094.066.2a8.522,8.522,0,0,0,.465,1.077c.189.372.392.728.544.992l.254.436.3.382.057.072Zm-.481.037-.643.041a5.751,5.751,0,0,0-.245-.888L48.4-16.89c-.143-.265-.33-.615-.5-.971a7.948,7.948,0,0,1-.357-.874l.332-.028c.025.06.053.125.086.2.113.261.27.6.435.928.33.66.671,1.3.671,1.3s.525.714.522.674c.018.02.036.037.054.055Zm-1.752.115a1.011,1.011,0,0,0-.023-.3,4.982,4.982,0,0,0-.23-.838l-.234-.409c-.14-.245-.325-.568-.494-.9-.131-.249-.249-.5-.34-.719l.276-.024.014.046a8.074,8.074,0,0,0,.429,1.081c.176.374.367.732.511,1l.239.438.288.385.146.2C48.166-15.513,47.972-15.5,47.778-15.486Zm-.926.078a4.656,4.656,0,0,0-.258-.788l-.268-.414c-.162-.245-.378-.567-.578-.89a7.252,7.252,0,0,1-.486-.9c-.022-.048-.039-.091-.055-.133l.421-.036.007.018a9.489,9.489,0,0,0,.447.98c.177.341.364.669.5.911l.231.4.278.351a2.783,2.783,0,0,0,.267.323,1.317,1.317,0,0,0,.128.124C47.276-15.445,47.064-15.429,46.851-15.408Zm-.9.107c-.218.025-.44.047-.659.071a1.288,1.288,0,0,0-.014-.174,3.991,3.991,0,0,0-.19-.791l-.7-1.207c-.171-.3-.331-.6-.434-.824-.036-.077-.062-.14-.085-.2l.511-.044c.031.092.079.222.147.376a7.872,7.872,0,0,0,.53.99c.209.338.426.659.584.9l.258.4.3.346.1.118C46.18-15.328,46.066-15.317,45.953-15.3Zm-2.158.227a.509.509,0,0,0,.033-.333,3.67,3.67,0,0,0-.158-.738l-.2-.354c-.119-.211-.276-.489-.422-.768s-.279-.559-.363-.773c-.045-.11-.077-.2-.1-.266l.463-.042a4.026,4.026,0,0,0,.181.452c.117.255.286.57.459.874l.69,1.187.256.32a2.623,2.623,0,0,0,.243.3c.01.011.021.021.031.032C44.539-15.149,44.169-15.11,43.795-15.074Zm-.959.088a1.351,1.351,0,0,0-.012-.171,4.059,4.059,0,0,0-.192-.8l-.215-.387c-.128-.23-.3-.535-.441-.84a4.358,4.358,0,0,1-.313-.838,1.383,1.383,0,0,1-.037-.193l.239-.022a.469.469,0,0,0-.057.049c-.015.014-.014.017-.012.024s.055.182.152.421a9.1,9.1,0,0,0,.391.834c.152.29.311.569.427.777l.192.344.238.3a2.2,2.2,0,0,0,.23.274.813.813,0,0,0,.2.163Q43.232-15.021,42.836-14.986Zm-.408.038-.349.029a.965.965,0,0,0-.039-.284,3.875,3.875,0,0,0-.106-.387c.03.039.134.172.244.312a2.761,2.761,0,0,0,.243.3l.026.027Zm-1.262.1a6.034,6.034,0,0,0-.207-.837l-1.228-2.364.119-.011c.019.06.04.126.065.2a7.431,7.431,0,0,0,.432.967c.175.334.362.652.5.886l.238.389s.576.674.569.633a1.347,1.347,0,0,0,.1.091Zm-1.04.086a5.61,5.61,0,0,0-.25-.759l-.252-.408c-.15-.244-.348-.568-.527-.9a6.824,6.824,0,0,1-.426-.915c-.031-.077-.051-.144-.069-.2l.273-.025,1.357,2.606s.256.353.413.559Zm-1.242.1a6.963,6.963,0,0,0-.273-.727L37.7-16.823c-.221-.354-.437-.71-.586-.981l.679-.063c.025.094.066.234.128.4a7.45,7.45,0,0,0,.467,1.009c.189.347.39.677.541.921l.25.4.3.349.063.075Zm-1.319.114c0-.019,0-.032,0-.054a4.107,4.107,0,0,0-.232-.85l-.788-1.287a8.109,8.109,0,0,1-.467-.879c-.016-.033-.026-.061-.037-.092l.223-.02c.041.086.09.183.147.284.161.294.384.66.609,1.021l.9,1.421.324.388.008.009Zm-1.026.1a4.677,4.677,0,0,0-.215-.781l-.231-.4c-.138-.237-.319-.55-.482-.866a6.3,6.3,0,0,1-.383-.877c-.038-.1-.057-.186-.077-.254l.062-.005c.03.089.072.2.128.329a8.734,8.734,0,0,0,.506.956l.778,1.268.277.342c.069.087.133.172.182.234C36.9-14.485,36.72-14.465,36.539-14.448Zm-1.167.113c-.349.036-.7.066-1.045.1a.859.859,0,0,0,.008-.242,4.1,4.1,0,0,0-.118-.753l-.572-1.188c-.144-.295-.284-.59-.386-.814l-.092-.208.128-.012,1.154,2.281s.472.669.471.632c.221.253.471.375.4-.178a4.584,4.584,0,0,0-.146-.772l-1.03-2.041.205-.019a3.724,3.724,0,0,0,.121.43,6.987,6.987,0,0,0,.424.976c.173.335.357.653.494.889l.227.39.272.338.105.133C35.788-14.375,35.579-14.357,35.372-14.335Zm-1.889.18a1.275,1.275,0,0,0,0-.161,3.773,3.773,0,0,0-.12-.782l-.187-.387-.424-.834c-.153-.3-.3-.6-.408-.827-.039-.083-.069-.152-.1-.212l.164-.015a.6.6,0,0,0-.045.047c-.014.016-.013.018-.011.024l.176.4c.1.229.247.526.389.82l.562,1.161.223.319a2.094,2.094,0,0,0,.22.295,1.184,1.184,0,0,0,.1.1Zm-1.127.107a1.309,1.309,0,0,0,.023-.268,5.212,5.212,0,0,0-.286-.506c-.016-.024-.033-.047-.05-.072a1.509,1.509,0,0,0,.238-.13c.046-.029.076-.056.115-.085.014-.01.036-.03.057-.05l.179.367.224.325a2.364,2.364,0,0,0,.216.3l.036.043C32.857-14.1,32.606-14.07,32.356-14.048Zm-.448-1.688a.93.93,0,0,1-.126.087,2.257,2.257,0,0,1-.734.188c-.281.034-.574.048-.884.069l-1.825.168c-.6.06-1.219.107-1.814.176a9.589,9.589,0,0,1-1.735.062,1.577,1.577,0,0,1-.5-.1.483.483,0,0,1-.146-.1c-.009-.007-.008-.01-.011-.013a.569.569,0,0,1-.1.05l-.006,0a.088.088,0,0,1,0-.01c-.006-.045-.011-.087-.016-.129a.37.37,0,0,0-.083-.2s-.012-.007-.017-.012a.246.246,0,0,0,.242-.065.611.611,0,0,0,.077.012,6.46,6.46,0,0,0,.72-.055l.668.031c.235.008.468.011.674.012l.716,0,2.637-.235.9-.07c.15-.008.312-.023.428-.023a3.23,3.23,0,0,1,.4.026,2.719,2.719,0,0,1,.388.077,1.427,1.427,0,0,1,.148.05l.007,0v0Zm-.692,1.791a1.105,1.105,0,0,0,.025-.243s-.122-.228-.251-.44l-.016-.026.058,0,.164-.021c.013.014.026.025.043.045a2.028,2.028,0,0,1,.186.244,4.566,4.566,0,0,1,.233.407Zm-1.186.1a1.224,1.224,0,0,0,.01-.185s-.126-.257-.255-.5l-.016-.032.313-.029.226.368c.083.135.156.263.2.335Zm-1.25.108a1.106,1.106,0,0,0,.053-.246s-.1-.176-.167-.342c-.02-.044-.037-.087-.05-.128l.3-.027.168.32c.08.148.154.293.2.38Zm-.924.078a.921.921,0,0,0,.063-.21s-.082-.184-.171-.359l-.07-.137.127-.012c.005.018.011.038.018.06a2.66,2.66,0,0,0,.115.306c.061.141.123.263.16.332Zm-.855.07a.751.751,0,0,0,.069-.219c.042.084.077.159.1.205Zm-.1-.646-.022-.04-.006-.011L27-14.3C26.957-14.271,26.926-14.25,26.9-14.232Zm-.818.722a.34.34,0,0,0,.054-.049.731.731,0,0,0,.119-.193c.06.116.1.2.1.2l.023.016Zm-.964.08a.324.324,0,0,0,.124-.133.831.831,0,0,0,.1-.277l-.147-.332c.047,0,.093,0,.14,0l.006.025.07.241.1.32s.093.076.151.115Zm-.94.08c0-.012,0-.019,0-.032a5.186,5.186,0,0,0-.2-.811s-.049-.087-.124-.228c.032.018.064.034.1.05a1.716,1.716,0,0,0,.39.125h0c-.017.009-.017.01-.016.012l.048.121.106.245.149.334a2.03,2.03,0,0,0,.2.127Zm-.7-2.132a.233.233,0,0,0-.081.107c-.007.016-.011.034-.017.051l-.072-.148a9.193,9.193,0,0,1-.376-.894c-.028-.078-.049-.144-.068-.2l.3-.023.406.87s.113.1.188.154A.358.358,0,0,0,23.478-15.483Zm-.469,2.231c-.005-.03-.007-.053-.015-.087a5.908,5.908,0,0,0-.227-.814l-1.3-2.308.586-.046c.023.083.064.222.127.4a9.786,9.786,0,0,0,.4.959c.16.335.33.659.458.9l.214.4s.265.351.418.542Zm-1.139.1c0-.038-.005-.074-.014-.121a4.8,4.8,0,0,0-.185-.787L21.008-15.3c-.163-.31-.32-.621-.432-.858l-.1-.223.122-.009a.013.013,0,0,0,0,.008L22.054-13.8s.322.413.473.59Zm-.927.08a1.21,1.21,0,0,0-.019-.125,4.489,4.489,0,0,0-.231-.77l-.227-.368c-.135-.22-.312-.511-.468-.806a5.631,5.631,0,0,1-.365-.823c-.043-.114-.061-.209-.083-.277l-.013-.065.185-.014a.706.706,0,0,0-.05.057c-.014.017-.013.019-.01.026l.2.422c.116.244.276.56.44.871l.658,1.226s.36.476.471.6Zm-2.279.2a5.056,5.056,0,0,0-.223-.788s-.368-.609-.671-1.228a5.554,5.554,0,0,1-.343-.856,2.371,2.371,0,0,1-.065-.278,1.06,1.06,0,0,1-.013-.107s0,0-.007,0l.442-.035a3.14,3.14,0,0,0,.095.352,6.279,6.279,0,0,0,.368.878c.151.3.312.586.432.8l.2.349.249.3a2.09,2.09,0,0,0,.241.27c.22.222.475.339.393-.2a3.974,3.974,0,0,0-.178-.737l-.2-.352c-.12-.21-.277-.489-.417-.77a5.536,5.536,0,0,1-.327-.775,1.574,1.574,0,0,1-.051-.176l.21-.017c-.01.009-.027.017-.035.026s-.016.017-.014.026a3.283,3.283,0,0,0,.131.483,6.345,6.345,0,0,0,.41.929c.169.317.35.618.486.839l.227.366.274.312c.083.094.161.183.211.235C19.876-12.981,19.266-12.929,18.663-12.874Zm-1.1.1a1.14,1.14,0,0,0-.018-.116,6.9,6.9,0,0,0-.2-.824l-.681-1.343-.268-.5-.117-.208-.022-.047-.032-.064-.061-.113-.032-.054.436-.035c-.008.008-.01.012-.009.019a2.619,2.619,0,0,0,.1.525,6.232,6.232,0,0,0,.387.971c.16.332.335.647.468.88l.222.385s.23.282.39.469Zm-2.232.206c-.008-.042-.016-.085-.031-.139a7.208,7.208,0,0,0-.243-.811s-.367-.643-.712-1.307c-.087-.166-.172-.333-.253-.49l-.116-.227a.715.715,0,0,0-.048-.085l-.04-.06-.076-.105-.046-.061.526-.041a.493.493,0,0,0-.1.084c-.016.015-.015.018-.013.025s.056.184.155.427a8.49,8.49,0,0,0,.4.848c.32.591.671,1.135.671,1.135s.53.592.526.555c.243.213.5.3.379-.225a4.572,4.572,0,0,0-.214-.723s-.352-.547-.654-1.105a7.632,7.632,0,0,1-.371-.78c-.052-.129-.088-.229-.11-.294l.3-.024c.008.018.016.037.026.056.048.1.12.215.183.324a1.51,1.51,0,0,1,.09.174l.136.243.255.471c.339.647.667,1.312.667,1.312s.368.515.49.66C16.511-12.677,15.915-12.623,15.326-12.567Zm-1.093.1a6.316,6.316,0,0,0-.287-.8s-.427-.639-.78-1.3a6.023,6.023,0,0,1-.409-.916,2.589,2.589,0,0,1-.081-.289l.217-.017a.741.741,0,0,0,.038.1,1.814,1.814,0,0,0,.238.365l.055.075.035.054.115.226.254.489c.345.664.716,1.313.716,1.313l.285.355c.1.116.189.224.242.279Zm-1.149.11c0-.019-.006-.032-.013-.053a7.413,7.413,0,0,0-.294-.88s-.423-.7-.8-1.412c-.093-.179-.183-.36-.265-.531l-.116-.25c-.033-.07-.053-.122-.09-.2l.368-.029a3.062,3.062,0,0,0,.122.471,6.7,6.7,0,0,0,.455,1.028c.187.351.389.685.543.93l.258.406s.233.266.409.461Zm-1.071.1c0-.008,0-.013,0-.02a5.8,5.8,0,0,0-.344-.88l-.292-.424c-.174-.253-.4-.591-.612-.932a7.519,7.519,0,0,1-.508-.961c-.018-.037-.028-.069-.042-.1l.422-.033c.05.091.1.179.149.257.02.03.057.119.093.2l.119.254c.084.178.178.364.274.548.384.737.806,1.432.806,1.432s.325.4.5.612Zm-1.459.127a.731.731,0,0,0-.011-.321,4.915,4.915,0,0,0-.207-.8l-.7-1.255-.476-.865-.06-.117.288-.023c.033.092.076.211.135.345a8.273,8.273,0,0,0,.553,1.049c.22.36.452.7.625.955l.289.418.33.362.158.173C11.167-12.179,10.86-12.152,10.555-12.127Zm-1.781.134c-.137.009-.274.014-.41.023a1.212,1.212,0,0,0-.074-.275,6.439,6.439,0,0,0-.365-.83s-.482-.632-.912-1.282a9.888,9.888,0,0,1-.544-.915l0,0L7-15.32a2.851,2.851,0,0,0,.147.472,6.128,6.128,0,0,0,.441.877c.176.3.364.58.5.787l.233.344.278.288a2.3,2.3,0,0,0,.267.261c.242.211.509.313.377-.228A4.2,4.2,0,0,0,9-13.257L8.769-13.6c-.138-.206-.321-.481-.486-.759a5.385,5.385,0,0,1-.391-.773c-.044-.1-.065-.186-.086-.248l.433-.034c.054.128.365.714.692,1.288l.7,1.234s.528.682.523.642a1.227,1.227,0,0,0,.163.147Q9.538-12.044,8.774-11.993Zm-2.752.128c-.012-.045-.024-.089-.046-.146a5.916,5.916,0,0,0-.379-.84l-.307-.4c-.182-.238-.423-.555-.649-.878a9.707,9.707,0,0,1-.573-.908l-.028-.053.407-.032c.032.086.08.2.145.341a7.254,7.254,0,0,0,.522.906c.2.308.418.6.576.817l.262.358.3.3a2.811,2.811,0,0,0,.286.278c.255.227.532.345.375-.231a4.363,4.363,0,0,0-.3-.784L6.351-13.5c-.16-.219-.37-.506-.564-.8a6.541,6.541,0,0,1-.473-.818c-.013-.026-.021-.047-.032-.071l.33-.026c.038.082.085.181.146.3a10.839,10.839,0,0,0,.578.975c.448.677.925,1.3.925,1.3s.677.684.666.643c.019.016.039.029.058.044Q7-11.893,6.022-11.864Zm-.961.019a1.475,1.475,0,0,0-.071-.227,5.526,5.526,0,0,0-.248-.59l.2.262.343.334c.081.079.16.156.221.214C5.356-11.848,5.209-11.847,5.06-11.845Zm-2.226-.006A1.254,1.254,0,0,0,2.8-11.99a4.9,4.9,0,0,0-.273-.739c-.1-.134-.193-.268-.291-.4l.1.118.315.352s.7.592.689.554c.3.212.6.288.341-.279a5.561,5.561,0,0,0-.412-.774s-.518-.565-1-1.142c-.206-.248-.4-.5-.545-.711l.321,0,1.9,2.541s.51.517.643.63C4-11.836,3.412-11.838,2.834-11.851Zm-1.179-.366a1.672,1.672,0,0,1-.671-.917,3.084,3.084,0,0,1-.1-.439c.339.407.661.836.975,1.276,0,0,.176.178.333.333A2.047,2.047,0,0,1,1.656-12.217ZM.824-14.833.8-14.861c0-.05,0-.089,0-.119.047.078.113.183.2.3.024.036.052.075.078.113C.991-14.654.911-14.746.824-14.833Zm2.309-.182.05,0c.041.089.1.214.186.363.059.109.13.229.207.354l-.533-.713Zm21.034-1.658h0a2,2,0,0,0,.13.338c.1.206.195.381.195.381l.054.035c-.079.037-.15.074-.208.1l-.089.047a1.2,1.2,0,0,0,.05-.256s-.172-.373-.294-.637Zm1.007.5.08.059-.035.005-.064.009C25.163-16.123,25.169-16.147,25.174-16.171Zm.615-.045a.885.885,0,0,0,.072-.237l.131.235-.042.006-.174.025C25.78-16.2,25.785-16.2,25.789-16.215Zm1.015-.666c.041.063.089.142.138.229l.15.276-.055,0-.354.052a1,1,0,0,0,.041-.211l-.182-.33Zm1.036-.083c.03.064.063.13.1.2.056.11.114.219.157.3l-.252.023a1.321,1.321,0,0,0,.02-.178l-.178-.33Zm1.2-.1.229.382c.021.036.041.071.061.106l-.477.042a1.373,1.373,0,0,0,.015-.181s-.082-.148-.171-.318Zm1.123-.1.266.5-.232.017c-.053-.1-.143-.266-.239-.43l-.04-.067Zm1.324-.122c-.011.012-.027.026-.035.037s-.013.019-.01.025.073.175.183.412c.027.06.057.124.09.19l-.073-.015c-.112-.018-.224-.027-.336-.037,0-.014,0-.027,0-.027l-.285-.544Zm9.349-.859a2.612,2.612,0,0,0,.055.3,4.694,4.694,0,0,0,.283.808q-.055-.1-.11-.2a6.753,6.753,0,0,1-.393-.874s0-.007,0-.011ZM54.717-19.3l.2,0h0l.006.031a10.376,10.376,0,0,1,.254,1.684c0,.037,0,.073,0,.109-.055-.192-.119-.35-.119-.35l-.2-.3c-.123-.18-.284-.418-.433-.656-.11-.176-.211-.353-.291-.508C54.323-19.3,54.521-19.3,54.717-19.3Zm.843,3.049a2.025,2.025,0,0,0,.393-1,3.743,3.743,0,0,0-.031-.978c-.045-.307-.107-.6-.162-.88l-.04-.209-.018-.1-.033-.208c-.025-.14-.038-.293-.073-.422l-.433-.029c-.071-.006-.143-.009-.216-.011l-.115,0-.227,0q-.226,0-.45.009c-.3.011-.593.033-.885.058l-1.721.166-6.821.564-6.648.608-6.426.59-3.113.285-3.04.239-11.269.889-11.061.872-.344.048-.753.116c-.539.09-1.059.164-1.013.168-.287.052-.536.095-.7.138a.3.3,0,0,0-.035,0,.488.488,0,0,0-.3.218.076.076,0,0,0-.022.055,8.837,8.837,0,0,0,.04,1.264l.008.07,0,.036.007.053c.016.122.036.245.061.37a3.15,3.15,0,0,0,.247.756,2.365,2.365,0,0,0,.488.684,2.841,2.841,0,0,0,1.462.73c.133.024.267.041.4.053l.2.009.182,0,.732.009c.49,0,.983,0,1.48-.011q1.49-.027,3.019-.119c2.037-.121,4.118-.324,6.235-.528s4.279-.4,6.478-.59c4.4-.387,8.937-.723,13.548-1.17,2.3-.246,4.608-.431,6.942-.619,1.166-.1,2.336-.2,3.5-.325.583-.057,1.184-.14,1.745-.2s1.153-.1,1.736-.137c1.164-.074,2.35-.147,3.515-.273a12.246,12.246,0,0,0,1.8-.247,4.108,4.108,0,0,0,.9-.336A2.332,2.332,0,0,0,55.56-16.25Z" transform="translate(0 -43.438)" fill="#1f2327"/>
    </g>
  </g>
</svg>
