<svg xmlns="http://www.w3.org/2000/svg" width="65" height="65" viewBox="0 0 65 65">
  <g id="Group_1762" data-name="Group 1762" transform="translate(-253 -978)">
    <g id="steps-number-cirle">
      <circle id="Ellipse_3" data-name="Ellipse 3" cx="32.5" cy="32.5" r="32.5" transform="translate(253 978)" fill="#fff"/>
      <path id="Path_3529" data-name="Path 3529" d="M5.847-105.139c7.563-11.718,22.48-16.227,35.54-11.958a36.451,36.451,0,0,1,17.122,11.881c4.83,6.106,5.648,13.7,4.3,21.189C60.39-70.668,50.559-59.265,36.876-56.942c-6.555,1.112-13.918.081-19.417-3.847C11.781-64.844,7.958-72.57,5.743-79c-4.441-12.909.165-27.338,12.031-34.531,10.686-6.477,25.058-4.152,33.889,4.45,9.67,9.418,10.519,25.223,3.708,36.513a27.122,27.122,0,0,1-16.091,12.5c-7.005,1.837-15.961,1.448-22.3-2.268C10.717-66.01,6.483-73.264,4.07-79.92a28.418,28.418,0,0,1-.376-18.933,29.371,29.371,0,0,1,30.284-19.881A31.372,31.372,0,0,1,61.948-94.768c3.139,13.163-3.443,27.692-15.678,33.675a29.769,29.769,0,0,1-20.926,1.853C18.163-61.265,12.729-66.317,7.5-71.39c-2.744-2.662-5.307-5.485-6.213-9.321C.371-84.587,1-88.693,1.772-92.535c1.431-7.087,4.241-13.943,9.727-18.85a27.915,27.915,0,0,1,34.892-2.033A28.222,28.222,0,0,1,57.333-97.247c1.714,7.3,1.419,15.953-2.155,22.657A30.961,30.961,0,0,1,39.826-61.071c-6.323,2.71-15.711,5.332-22.266,2.234-5.818-2.749-9.825-9.351-13.1-14.636A24.825,24.825,0,0,1,.345-84.365,25.89,25.89,0,0,1,2.455-95.948c4.681-11.7,15.842-20.831,28.7-21.152,13.051-.325,25.3,8.109,27.631,21.3a24.41,24.41,0,0,1-3.544,17.832c-.139.207.2.4.333.194,7.264-10.809,4.485-26.054-5.823-33.919-10.785-8.229-26.073-7.444-36.595.758A35.882,35.882,0,0,0,1.6-94.98c-2.819,7.753-1.863,14.8,2.447,21.747C7.479-67.7,11.756-60.661,18.061-58.085c6.557,2.678,15.737.136,21.932-2.507A31.466,31.466,0,0,0,55.618-74.333c3.578-6.722,3.93-15.236,2.316-22.573-2.869-13.041-15.39-22.895-28.792-22.2a29.471,29.471,0,0,0-17.654,7.159c-5.721,4.976-8.65,12-10.134,19.3C.617-89.022.037-85.177.684-81.491S3.357-74.924,5.921-72.3c5.28,5.4,11.126,10.965,18.483,13.285a29.922,29.922,0,0,0,35.46-14.964,31.407,31.407,0,0,0-7.21-37.411c-10.328-9.275-26.949-10.7-38.378-2.574A29.78,29.78,0,0,0,4.105-78.492C6.659-72.159,10.7-65.464,16.728-61.906c6.457,3.81,15.561,4.2,22.689,2.328C53.277-63.221,61.5-77.935,60.234-91.72a28.6,28.6,0,0,0-24.628-25.705C22.54-119.3,10.2-111.464,5.419-99.3A29.4,29.4,0,0,0,5.484-78.45C7.777-72,11.531-64.491,17.227-60.393,28.9-52,46.08-56.313,55.068-66.545c8.926-10.164,12.793-27.709,3.864-39s-24.826-16.871-38.548-11.676A29.627,29.627,0,0,0,5.653-105.253C5.576-105.13,5.768-105.019,5.847-105.139Z" transform="translate(253.5 1097.618)" fill="#5271ff"/>
    </g>
  </g>
</svg>
