<svg xmlns="http://www.w3.org/2000/svg" width="1170" height="390.656" viewBox="0 0 1170 390.656">
  <g id="family-illustration-1" transform="translate(0 828.625)" opacity="0.3">
    <path id="Path_4576" data-name="Path 4576" d="M599.3-583.9H423.866a43.328,43.328,0,0,0-43.33,43.328V-454.6h262.1v-85.964A43.329,43.329,0,0,0,599.3-583.9Z" transform="translate(-201.132 -129.352)" fill="#345389"/>
    <path id="Path_4577" data-name="Path 4577" d="M894.938-583.9H540.065a44.652,44.652,0,0,0-44.653,44.653v97.468H939.589v-97.468A44.651,44.651,0,0,0,894.938-583.9Z" transform="translate(-261.85 -129.352)" fill="#456eb5"/>
    <path id="Path_4578" data-name="Path 4578" d="M268.676-257.352,371.686-243.8l-2.448-204.28-115.975-1.169Z" transform="translate(-133.862 -200.518)" fill="#345389"/>
    <path id="Path_4579" data-name="Path 4579" d="M127.979-415.941c0-18.019,24.582-32.7,55.289-33.284v-.028c33.558-.259,60.981,17.019,60.981,38.423v93.206l-63.8-9.627-13.582-50.426C135.463-377.811,127.979-397.63,127.979-415.941Z" transform="translate(-67.643 -200.515)" fill="#9ac1f9"/>
    <path id="Path_4580" data-name="Path 4580" d="M1399.8-437.182l85.182-.009,1.179,145.914-120.041-.132Z" transform="translate(-722.061 -206.892)" fill="#345389"/>
    <path id="Path_4581" data-name="Path 4581" d="M1388.436-437.174c28.928.552,52.086,14.129,52.086,31.054,0,17.194-23.917,31.154-53.5,31.276l-1.377,61.062H1330.99V-401.32C1330.99-421.423,1356.821-437.419,1388.436-437.174Z" transform="translate(-703.493 -206.9)" fill="#345389"/>
    <path id="Path_4582" data-name="Path 4582" d="M1601.844-405.106c0-16.925-15.864-31.983-42.77-32.535v-.024c-29.409-.245-53.434,15.982-53.434,36.085v87.539l55.537.118v-38.452l.288-22.875C1588.983-375.376,1601.844-387.907,1601.844-405.106Z" transform="translate(-795.805 -206.641)" fill="#9ac1f9"/>
    <path id="Path_4583" data-name="Path 4583" d="M237.709-233.019l653.436-2.2.057,54.533a49.993,49.993,0,0,1-49.993,50.011l-571.4-.283c-25.9,0-31.291-20.711-31.291-46.608Z" transform="translate(-125.641 -313.643)" fill="#345389"/>
    <path id="Path_4584" data-name="Path 4584" d="M277.427-223.343H851.553c21.932,0,39.715-12.635,39.715-28.221l-.066-41.243-653.493-2.984v44.227C237.709-235.978,255.491-223.343,277.427-223.343Z" transform="translate(-125.641 -281.629)" fill="#9ac1f9"/>
    <path id="Path_4585" data-name="Path 4585" d="M1087.05-520.923s15.831,47.268,20.7,46.81c17.349-1.631,43.576-24.251,43.576-24.251l11.819-22.559L1153.1-522.8l-33,21.776-6.063-26.118Z" transform="translate(-574.559 -159.349)" fill="#f48b7e"/>
    <path id="Path_4586" data-name="Path 4586" d="M1093.645-627.513c1.216.05,4.549,1.161,9.42,10.336,6.223,11.717,15.313,47.111,15.313,47.111l-27.514,9.273-3.112-6.586-5.742-56.877S1093.311-627.527,1093.645-627.513Z" transform="translate(-571.895 -106.298)" fill="#95d9c8"/>
    <path id="Path_4587" data-name="Path 4587" d="M972.495-638.334c7.76.01,26.962,2.267,35.873,5.1,0,0,6.548,56.082-5.893,98.7-2.786,9.542-13.069,39.14-13.069,39.14l-68.739-1.8s13.219-71.392,9.632-83.107-3.677-52.551-3.677-52.551.552-.085,18.071-3.1A182.6,182.6,0,0,1,972.495-638.334Z" transform="translate(-486.617 -100.578)" fill="#4fbea5"/>
    <path id="Path_4588" data-name="Path 4588" d="M982.886-353.543s62.939-8.368,76.215-1.414-29.485,40.507-29.485,40.507-36.57-2.235-47.362-2.173c-10.707.061-43.441,2.541-62.464-.024s-16.869-32.587-13.281-36.25S982.886-353.543,982.886-353.543Z" transform="translate(-477.868 -248.897)" fill="#b65741"/>
    <path id="Path_4589" data-name="Path 4589" d="M1123.609-67.121s-2.272,6.591,1.674,10.985,20.456,8.788,22.611,11.169,1.975,4.394,1.975,4.394l-46.419-1.49.6-12.988,2.211-9.321Z" transform="translate(-583.227 -402.492)" fill="#f6a390"/>
    <path id="Path_4590" data-name="Path 4590" d="M1125.231-40.443s-11.961,4.394-17.7,1.707-5.563-3.413-7.237-2.437S1097.92-27.9,1097.92-27.9l52.185,2.046c3.635-.052,5.11-2.588,2.173-4.733a54.515,54.515,0,0,0-5.271-3.512C1142.939-36.295,1125.231-40.443,1125.231-40.443Z" transform="translate(-580.305 -415.988)" fill="#3c8f7c"/>
    <path id="Path_4591" data-name="Path 4591" d="M1141.265-341.765c4.337-6.619,15.228-16.232,28.909-9.41,13.054,6.5,9.613,27.231,3.871,39.922s-42.53,87.02-44.684,97.52l-22.611-2.013s10.829-60.6,13.46-75.244C1122.742-305.081,1133.76-330.3,1141.265-341.765Z" transform="translate(-584.972 -251.119)" fill="#f47358"/>
    <path id="Path_4592" data-name="Path 4592" d="M974.1-100.261s1.853,19.834,5.261,25.326S979.179-60.1,979-58.825s-7.177,3.116-18.3,2.018-10.947-3.479-10.051-7.326,6.822-8.788,7.18-12.446-3.409-16.845-3.409-16.845Z" transform="translate(-502.264 -384.976)" fill="#f6a390"/>
    <path id="Path_4593" data-name="Path 4593" d="M959.263-22.512c-11.126-1.1-9.75-6.162-8.854-10.009.566-2.4,3.093-5.243,5-7.93.995.735,3.272,2.032,8.1,3.357,5.016,1.372,12.707-1.089,17.092-2.791,1.561,5.389.82,12,.674,13.04C981.1-25.563,970.39-21.414,959.263-22.512Z" transform="translate(-502.029 -416.589)" fill="#3c8f7c"/>
    <path id="Path_4594" data-name="Path 4594" d="M934.9-316.963c2.315,16.213,13.759,96.907,13.759,96.907L922.1-217s-32.662-105.332-30.984-121.441,13.9-17.467,13.9-17.467S928.78-359.874,934.9-316.963Z" transform="translate(-470.965 -249.803)" fill="#f47358"/>
    <path id="Path_4595" data-name="Path 4595" d="M916.743-613.587c9.627-3.6,12.069,100.874,12.069,100.874,8.929,6.035,36.7,25.076,42.711,28.075,2.437,1.212,9,2.452,11.5,3.531a27.078,27.078,0,0,1,5.865,3.13c.387.33,9.42,12.286,9.806,13.96.476,2.074,1.914,7.444.476,8.543s-4.187-7.93-4.187-7.93l-1.956-3.385c1.537,5.728,5.714,14.554,3.7,15.662-1.966,1.08-5.422-7.411-7.972-13.314,1.782,5.742,2.871,14.766,1.2,15.077-1.5.278-2.668-10.113-7.237-15.624-1.7-2.046-5.1-1.207-6.94-1.957-1.353-.552-3.512-1.292-4.526-2.362l-5.224-5.511a66.362,66.362,0,0,0-7.227-3.017c-2.824-.962-6.812-2.876-10.468-4-21.055-6.468-26.321-7.935-32.78-9.033S906-509.112,905.084-535.819C904.061-565.558,898.974-606.944,916.743-613.587Z" transform="translate(-477.612 -113.61)" fill="#f6a390"/>
    <path id="Path_4596" data-name="Path 4596" d="M900.566-557.265c-1.41-28.466-1.2-63.553,14.808-69.539,6.318-2.362,17.458,11.84,15.454,70.114C922.281-555.987,909.731-555.417,900.566-557.265Z" transform="translate(-475.705 -106.544)" fill="#95d9c8"/>
    <path id="Path_4597" data-name="Path 4597" d="M998.046-697.2l-4.25,27.811s15.461,26.762,25.267,23.722c8.227-2.552,3.88-23.64,3.88-23.64s-1.57-5.827-2.574-12.314c-.693-4.481-1.113-9.277-.566-12.683C1021.147-702.645,998.046-697.2,998.046-697.2Z" transform="translate(-525.27 -68.541)" fill="#f6a390"/>
    <path id="Path_4598" data-name="Path 4598" d="M1024.15-694.308c1.344-8.337-21.757-2.9-21.757-2.9l-.372,2.442a13.5,13.5,0,0,0,2.5,4.1,30.52,30.52,0,0,0,20.2,9.081C1024.027-686.072,1023.6-690.89,1024.15-694.308Z" transform="translate(-529.617 -68.541)" fill="#f47358"/>
    <path id="Path_4599" data-name="Path 4599" d="M992.762-793.923c-.655-.236-5.233,33.537,3.462,42.83s25.628,12.334,31.705,5.015c6.718-8.095,6.384-44.393-7.133-53.952S992.762-793.923,992.762-793.923Z" transform="translate(-523.779 -13.48)" fill="#f6a390"/>
    <path id="Path_4600" data-name="Path 4600" d="M992.791-828.374c-10.443,2.116-26.776,11.119-33.432,22.069-8.189,13.464-2.14,28.381,7.388,35.7s9.4,15.762,9.4,15.762l1.506-4.361a24.271,24.271,0,0,0,1.193-10.3A20.008,20.008,0,0,0,977.3-775.7c-2.293-4.888,4.922-8.135,6.949-12.2,1.556-3.132,1.631-10.3,4.088-15.471l2.928-3.951s6.605-4,13.38-3.752C1008.735-810.921,1006.2-831.089,992.791-828.374Z" transform="translate(-505.037)" fill="#174554"/>
    <path id="Path_4601" data-name="Path 4601" d="M1005.8-737.773c.071,4.121-1.815,7.494-4.21,7.534s-4.4-3.267-4.462-7.387,1.817-7.494,4.212-7.534S1005.73-741.894,1005.8-737.773Z" transform="translate(-527.028 -44.115)" fill="#f6a390"/>
    <path id="Path_4602" data-name="Path 4602" d="M1253.69-538.06s44.547,5.045,49.667,5.045,36.066-7.246,41.54-8.976,6.638-9.561,13.856-11.117,7.963,1.938,7.963,1.938,9.726,1.164,9.726,3.724v2.56s-53.066,26.368-66.1,27.962-46.551,0-46.551,0Z" transform="translate(-662.637 -145.413)" fill="#f6a390"/>
    <path id="Path_4603" data-name="Path 4603" d="M1273.01-389.469l22,18.693s16.4.533,16.934,0,6.11-18.693,6.11-18.693l-16.944-13.092Z" transform="translate(-672.848 -225.196)" fill="#174554"/>
    <path id="Path_4604" data-name="Path 4604" d="M1235.063-504.932c9.863,14.426,22.512,49.6,22.512,49.6L1215.8-442.073s-46.636-56.584-43.364-64.674c2.758-6.812,28.424-15.86,38.22-14.214C1217.855-519.749,1233.031-507.892,1235.063-504.932Z" transform="translate(-619.603 -162.512)" fill="#f6cc7e"/>
    <path id="Path_4605" data-name="Path 4605" d="M1249.818-449.189s-45.325,6.365-47.018,6.365-12.607-55.363-30.064-49.469c-7.878,2.664,15.8,60.313,20.725,65.244,5.789,5.785,58.615-7.873,58.615-7.873Z" transform="translate(-619.007 -177.536)" fill="#f6a390"/>
    <path id="Path_4606" data-name="Path 4606" d="M1337.807-440.009s18.627,22.432,28.787,19.471,11.009-19.471,11.009-19.471c2.117-10.589-16.935-63.5-16.935-63.5s-15.647-12.88-22.394-8.434C1326.247-504.018,1337-445.718,1337.807-440.009Z" transform="translate(-704.351 -166.887)" fill="#174554"/>
    <path id="Path_4607" data-name="Path 4607" d="M1350.545-520.252c9.118-1.886,17.359,6.619,27.094,21.432s32.059,59.4,39.036,66.885c7.119,7.633,16.411,14.7,23.544,21.833,2.994,2.994,6,7.968-2.041,7.968s-31.526-8.84-36.83-11.343c-4.252-2.008,2.008-14.8-1.909-18.712s-51.355-50.78-58.21-63.08C1334.874-506.679,1335.779-517.193,1350.545-520.252Z" transform="translate(-706.929 -162.853)" fill="#f69c8c"/>
    <path id="Path_4608" data-name="Path 4608" d="M1450.7-257.825c-10.584-13.974-22.465-59.068-32.412-69.016-2.5-2.5-7.322-3.682-13.337-6.11-10.768,7.383-22.625,11.739-30.809,22.851,8.562,1.056,16.751,1.9,22.7,2.188,0,0-.726,7.256,15.813,30.272,4.653,6.478,21.083,20.447,24.341,25.548,5.426,8.51,10.985,23.162,16.68,27.349,4.21,3.1,16.5,3.555,18.66-1.207C1474.092-229.816,1461.283-243.856,1450.7-257.825Z" transform="translate(-726.3 -261.988)" fill="#f69c8c"/>
    <path id="Path_4609" data-name="Path 4609" d="M1261.317-360.5c4.964-4.564,19.792-5.657,26.675-6.247,11.343-.981,46.23,7.807,60.214,17.137-7.666,6.134-14.332,14.37-16.6,23.794-15.85-.943-42.954-5.4-55.353-7.586-8.057-1.424-14.662-7.374-15.808-10.546C1257.474-352.144,1257.687-357.161,1261.317-360.5Z" transform="translate(-665.12 -244.087)" fill="#3c8f7c"/>
    <path id="Path_4610" data-name="Path 4610" d="M1177.193-630.027c-4.908,8.758-2.767,26.075,1.32,31.647s13.8,7.322,13.8,7.322l14.243,3.39s10.287-13.178,13.125-22.124c1.1-3.459,1.282-5.708,0-13.047-1.659-9.484-4.106-14.392-14.455-15.534C1195.179-639.482,1183.133-640.618,1177.193-630.027Z" transform="translate(-620.706 -100.194)" fill="#174554"/>
    <path id="Path_4611" data-name="Path 4611" d="M1267.806-577.528c-.5,3.187-2.692,5.5-4.908,5.177s-3.611-3.168-3.112-6.355,2.692-5.5,4.908-5.175S1268.305-580.711,1267.806-577.528Z" transform="translate(-665.805 -129.343)" fill="#f6a390"/>
    <path id="Path_4612" data-name="Path 4612" d="M1225.112-546.143s-2.136,15.086,2.39,19.164c4.771,4.309-17.283,3.126-18.839-3.993-.844-3.847,2.169-20.828,2.169-20.828Z" transform="translate(-638.759 -146.316)" fill="#f6a390"/>
    <path id="Path_4613" data-name="Path 4613" d="M1211.918-551.8l14.28,5.657a61.6,61.6,0,0,0-.5,7.925c-3.489.5-7.458-.231-11.749-2.673a24.117,24.117,0,0,1-3.376-2.315C1211.206-547.779,1211.918-551.8,1211.918-551.8Z" transform="translate(-639.846 -146.316)" fill="#f48b7e"/>
    <path id="Path_4614" data-name="Path 4614" d="M1209.6-619.689a19.6,19.6,0,0,0-10.707,8.1c-3.965,6.373-6.152,24.8,8,32.857s24.449-4.422,24.181-16.227S1225.4-621.854,1209.6-619.689Z" transform="translate(-632.1 -110.322)" fill="#f6a390"/>
    <path id="Path_4615" data-name="Path 4615" d="M1193.947-572.3c1.117,3.031.311,6.082-1.8,6.817s-4.724-1.127-5.846-4.158-.316-6.082,1.8-6.817S1192.825-575.334,1193.947-572.3Z" transform="translate(-626.754 -133.196)" fill="#f6a390"/>
    <path id="Path_4616" data-name="Path 4616" d="M1497.092-589.035l-27.462,24.418,6.746,4.762,34.218-19.344Z" transform="translate(-776.771 -126.635)" fill="#456eb5"/>
    <path id="Path_4617" data-name="Path 4617" d="M1482.967-551.772s-.523-1.353-4.007-1.424l-3.479-.075s-4.12,1.061-4.12,2.282S1483.75-549.678,1482.967-551.772Z" transform="translate(-777.686 -145.538)" fill="#f6a390"/>
    <path id="Path_4618" data-name="Path 4618" d="M1469.63-553.589l6.167,2.235,34.8-16.817.82,1.664-35.038,17.679Z" transform="translate(-776.771 -137.663)" fill="#174554"/>
    <path id="Path_4619" data-name="Path 4619" d="M1506.459-548.049l-6.779,2.588,3.229-4.276s2.131-9.755,4.342-9.755,1.74,1.136,1.66,1.792A88.726,88.726,0,0,1,1506.459-548.049Z" transform="translate(-792.654 -142.251)" fill="#f6a390"/>
    <path id="Path_4620" data-name="Path 4620" d="M747.707-662.523s8.689-3.15,14.309,5.654,2.579,7.969,5.313,12.371,9.863,3.491,9.863,10.321S774-626.284,774-626.284a11.63,11.63,0,0,1-.3,10.778c-3.187,5.465-11.136,10.169-17.788,9.411,0,0-9.99,5.478-20.008,2.89s-6.525-2.588-10.627-2.588-15.176-5.615-13.356-13.814c0,0-6.751-8.018-.2-14.57s7.793-13.205,11.588-22.009S743.153-664.648,747.707-662.523Z" transform="translate(-374.668 -87.127)" fill="#12375b"/>
    <path id="Path_4621" data-name="Path 4621" d="M747.769-540.16s-24.308,2.437-30.753,8.882l14.761,75.715s30.069,6.746,49.2.5c0,0,11.687-62.123,1.994-78.068-3.229-5.313-17.958-5.53-17.958-5.53Z" transform="translate(-378.978 -152.468)" fill="#f6cc7e"/>
    <path id="Path_4622" data-name="Path 4622" d="M727.3-379.241l-11.734,19.664-4.917,31.71s20.225-12.574,31.979-9.566,31.71-2.461,37.721-2.461,17.217,4.215,17.217,4.215-3.475-24.643-10.518-31.686c-2.381-2.376-9.207-10.476-9.207-10.476s-14.525,3.234-19.457,3.234C738.947-374.607,727.3-379.241,727.3-379.241Z" transform="translate(-375.611 -237.522)" fill="#12375b"/>
    <path id="Path_4623" data-name="Path 4623" d="M708.756-423.43s.311,37,2.258,38.947,29.518,6.973,29.518,6.973-1.23,9.226-.509,12.093,13.427,9.844,13.936,9.844,6.152-12.1,6.666-14.865-7.487-11.584-13.432-15.992-20.947-14.28-20.947-14.28l.448-24.36Z" transform="translate(-374.612 -213.298)" fill="#f6a390"/>
    <path id="Path_4624" data-name="Path 4624" d="M823.786-423.808s-.82,19.169-.82,21.116v1.947l-8.3,15.685-12.027,7.529s2.805,7.232,1.881,9.075-8.062,9.193-8.062,11.206,1.3,3.041,3.14,2.527,4.818-3.894,4.818-3.894-5.535,5.125-4.512,6.152,4.564-.259,6.355-2.051c0,0-2.866,2.716-2.1,3.484s2.692.387,3.588-.514,3.328-2.97,3.328-2.97-.971,1.179-.509,1.641,3.536,1.9,8.25-7.072,5.69-15.02,5.69-15.02,11.631-12.861,12.4-20.551,1.49-28.9,1.49-28.9Z" transform="translate(-420.966 -213.642)" fill="#f69c8c"/>
    <path id="Path_4625" data-name="Path 4625" d="M738.426-298.917c4.9-4.9,14.756-9.566,22.96-1.641s22.139,99.495,22.139,99.495,14.822,25.048,17.01,27.231-16.84,3.427-22.578,1.513-8.92-20.819-8.92-20.819S724.716-285.212,738.426-298.917Z" transform="translate(-388.903 -276.857)" fill="#f48b7e"/>
    <path id="Path_4626" data-name="Path 4626" d="M833.919-50.241a153.13,153.13,0,0,1-21.333,3.376c1.476,4.276,3.479,8.279,5.959,9.1,5.738,1.914,24.765.674,22.578-1.513C840.222-40.171,837.186-44.942,833.919-50.241Z" transform="translate(-429.491 -411.414)" fill="#3c8f7c"/>
    <path id="Path_4627" data-name="Path 4627" d="M807.07-304.715c-3.319,6.845-6.416,21.173-8.062,28.843-4.446,20.7-7.713,84.814-7.713,84.814s-12.4,17.458-9.533,20.324,20.089,1.428,23.37.024,1.938-19.678,3.008-24.327c0,0,29.386-95.12,23.441-106.873S809.969-310.7,807.07-304.715Z" transform="translate(-412.972 -274.138)" fill="#f69c8c"/>
    <path id="Path_4628" data-name="Path 4628" d="M710.733-521.321s-2.73,3.555-4.234,10.386-1.367,39.635-1.367,39.635l20.909-2.866s-.684-24.058,0-24.742S713.6-521.321,710.733-521.321Z" transform="translate(-372.695 -162.425)" fill="#f6cc7e"/>
    <path id="Path_4629" data-name="Path 4629" d="M853.166-529.081a28.076,28.076,0,0,1,14.016,20.862c2.093,15.063,2.928,29.918,2.928,29.918s-11.089,3.767-16.944,1.047Z" transform="translate(-450.94 -158.324)" fill="#f6cc7e"/>
    <path id="Path_4630" data-name="Path 4630" d="M785.854-567.493s-.368,12.093.768,13.225,2.72,3.017,1.051,5.9-8.915,1.047-12.3-.608a15.986,15.986,0,0,1-5.332-4.53l1.688-19.146Z" transform="translate(-407.007 -135.295)" fill="#f69c8c"/>
    <path id="Path_4631" data-name="Path 4631" d="M773.119-572.651l-.453,5.153a16.942,16.942,0,0,0,9.4,7.27,15.636,15.636,0,0,0,5.191,1.074c-.156-3.781-.019-8.34-.019-8.34Z" transform="translate(-408.392 -135.295)" fill="#b65741"/>
    <path id="Path_4632" data-name="Path 4632" d="M777.794-651.038s6.831-.152,10.32,5.161,7.289,20.492,1.518,30.965-13.13,7.892-16.166,6.831-9.028-3.418-12.064-13.207S760.567-653.088,777.794-651.038Z" transform="translate(-401.832 -93.793)" fill="#f69c8c"/>
    <path id="Path_4633" data-name="Path 4633" d="M756.329-602.734s-.344-7.107-4.71-5.726-1.037,12.105,2.579,11.753S756.329-602.734,756.329-602.734Z" transform="translate(-396.17 -116.274)" fill="#f69c8c"/>
    <path id="Path_4634" data-name="Path 4634" d="M807.381-37.148c-3.88,2.744-15.558-.768-21.512-2.843-2.909,4.913-5.615,10.447-4.106,11.951,2.871,2.871,20.089,1.428,23.37.024C806.584-28.634,807.131-32.561,807.381-37.148Z" transform="translate(-412.971 -416.832)" fill="#4fbea5"/>
    <path id="Path_4635" data-name="Path 4635" d="M379.548-654.031c30.022,11.965,39.687-14.177,38.933-13.483.572-.594,5.09-2.5,7.978-3.875,12.031-5.714,11.673-25.866,11.4-39.229,17.263-10.177,21.589-29.676,9.751-41.588,3.643-13.245,4.416-21.579-7.8-28.292-9.249-15.615-35.164-10.318-47.742,1.931A34,34,0,0,0,382.1-754.19c-14.8,5.932-22.542,21.733-19.176,37.671C342.955-700.6,348.911-666.237,379.548-654.031Z" transform="translate(-185.688 -20.334)" fill="#12375b"/>
    <path id="Path_4636" data-name="Path 4636" d="M554.742-514.624c-1.07-.344-4.314-2.626-8.741-3.833-16.171-4.413-48.164-11.513-48.164-11.513-1.294-.339-2.5-.684-3.638-.985,1.45-10.773,12.593-58.507,7.21-73.4-1.834-5.073-17.5-15.955-24.185,4.021-6.775,20.251.1,70.823,1.613,77.48,0,.033.01.071.017.108,1,5.832,12.98,9.754,20.507,10.339,7.415.575,37.385,1.447,39.28,2.235s6.242,9.608,6.242,9.608,1.843,10.589,3.621,10.287-1.051-13.092-1.051-13.092a33,33,0,0,1,4.257,7.656c.792,2.079,1.829,5.36,2.508,6.313,1.155,1.626,1.33-3.319,1.075-4.795-.339-1.971-4.182-12.484-3.9-12.767.773-.768,4.545,6.666,4.545,6.666s3.668,10.344,4.389,10.344c2.569,0,.693-4.3-.066-8.741s-5.129-10.867-4.111-11.037,5.441,9.759,6.633,8.076S559.72-513.04,554.742-514.624Z" transform="translate(-250.686 -114.547)" fill="#f48b7e"/>
    <path id="Path_4637" data-name="Path 4637" d="M506.109-618.933c-1.833-5.073-12.353-15.956-19.037,4.021-2.487,7.434-4.425,20.8-4.173,32.742,7.848.75,17.639-.42,25.413.575C509.231-596.266,508.714-611.729,506.109-618.933Z" transform="translate(-255.224 -106.843)" fill="#b65741"/>
    <path id="Path_4638" data-name="Path 4638" d="M468.12-617.355a131.4,131.4,0,0,0-7.367-11.659c-3.764-6.5-13.489-9.79-13.489-9.79s-3.253.064-6.988.242a2.851,2.851,0,0,1-.7,1.205c-1.4,1.023-15.025-.185-20.221,3.243-17.416,14.506-5.413,81.521-4.043,103.731l41.87,3.357s2.874-47.47,13.651-59.747C478.334-595.325,473.5-607.715,468.12-617.355Z" transform="translate(-216.707 -100.33)" fill="#f47358"/>
    <path id="Path_4639" data-name="Path 4639" d="M545.972-236.673c.467-.83,6.509-14.945,11.445-21.229,7.171-9.132,69.152-91.787,66.6-111.9-1.113-8.783-27.971-16.237-31.163-16.765-17.091,2.221.867,16.473-11.975,28.183,8.349,2.767,13.271,6.218,11.466,8.491-7.223,9.1-45.59,82.433-47.258,83.381-7.43,4.219-10.345,2.263-10.345,2.263s1.712,41.247,5.256,39.946S540.712-227.3,545.972-236.673Z" transform="translate(-282.638 -233.647)" fill="#f48b7e"/>
    <path id="Path_4640" data-name="Path 4640" d="M528.092-129.4l7.167,41.558c1.612,5.375,4.323,5.318,5.017,4.6,1.429-1.485,2.083-12.583,2.256-18.886-3.233-9.627-2.927-27.75-.934-29.8C536.724-131.846,528.1-130.328,528.092-129.4Z" transform="translate(-279.122 -368.237)" fill="#b65741"/>
    <path id="Path_4641" data-name="Path 4641" d="M560.938-358.912c9.617-15.44,14.185-13.352,30.922-20.329,8.137,1.146,18.9,2.178,37.056,15.586l-35.7,25.077C594.382-341.383,571.813-352.274,560.938-358.912Z" transform="translate(-296.483 -237.522)" fill="#f6a390"/>
    <path id="Path_4642" data-name="Path 4642" d="M476.777-692.042s-2.915,20.231-4.952,25.148,11.2,15.431,22.208,18.622-3.366-10.86-2.909-16.116,2.457-30.14,2.457-30.14Z" transform="translate(-249.272 -70.877)" fill="#f6a390"/>
    <path id="Path_4643" data-name="Path 4643" d="M497.811-687.392c.322-4.116.556-7.136.556-7.136l-16.8,2.486s-.424,2.377-.892,5.738C487.482-682.465,493.609-683.677,497.811-687.392Z" transform="translate(-254.058 -70.877)" fill="#f47358"/>
    <path id="Path_4644" data-name="Path 4644" d="M474.051-774.651a20.944,20.944,0,0,0-12.074,8.038c-4.544,6.58-7.382,26.139,8.163,35.57s25.687-4.485,25.65-17.115S494.119-776.519,474.051-774.651Z" transform="translate(-242.28 -28.448)" fill="#f6a390"/>
    <path id="Path_4645" data-name="Path 4645" d="M455.9-726.225c1.052,3.22.09,6.391-2.151,7.082s-4.91-1.36-5.962-4.58-.09-6.391,2.151-7.083S454.849-729.446,455.9-726.225Z" transform="translate(-236.453 -51.632)" fill="#f6a390"/>
    <path id="Path_4646" data-name="Path 4646" d="M484.395-408.832c-7.438-.66-32.052-3.079-32.052-3.079l-42.4-5.521s-8.978,17.684-9.28,28.886c-.528,19.594,18.1,34.161,34.019,35.161,9.344.589,62.039,3.8,72.514.038,2.164-15.959,5.756-38.763,16.869-50.247C506.278-405.965,494.487-407.936,484.395-408.832Z" transform="translate(-211.765 -217.336)" fill="#3c8f7c"/>
    <path id="Path_4647" data-name="Path 4647" d="M567.78-223.382c1.193-1.2,10.773-64.65,16.553-91.282a22.465,22.465,0,0,1,11.541-15.053l31.149-16.463c10.792,9.556-39.559,116.887-44.166,128.136-3.173,7.746-4.252,17.9-4.484,18.872-2.593,10.975-1.329,10.74-4.554,13.04s-16.463-30.748-16.463-30.748S561.459-217.046,567.78-223.382Z" transform="translate(-294.59 -254.995)" fill="#f6a390"/>
    <path id="Path_4648" data-name="Path 4648" d="M577.174-61.418a25,25,0,0,0,2.126,7.751c1.749,3.522,7.647,5.822,6.029,7.642s-14.6,0-14.6,0L555.385-77.7a2.563,2.563,0,0,1,.854-3.319,29.344,29.344,0,0,1,10.266-4.531S566.29-66.189,577.174-61.418Z" transform="translate(-293.391 -392.751)" fill="#f47358"/>
    <path id="Path_4649" data-name="Path 4649" d="M69.39-308.867a3.3,3.3,0,0,0,2.894,3.663,3.307,3.307,0,0,0,3.661-2.9,3.3,3.3,0,0,0-2.894-3.663A3.3,3.3,0,0,0,69.39-308.867Z" transform="translate(-36.664 -273.173)" fill="#fadfb1"/>
    <path id="Path_4650" data-name="Path 4650" d="M75.432-304.642a2.136,2.136,0,0,1-3.906-1.414,2.127,2.127,0,0,1,2.367-1.872A2.137,2.137,0,0,1,75.432-304.642Z" transform="translate(-37.797 -275.206)" fill="#f47358"/>
    <path id="Path_4651" data-name="Path 4651" d="M27.8-296.342a3.3,3.3,0,0,1-.392,4.653,3.3,3.3,0,0,1-4.651-.391,3.3,3.3,0,0,1,.392-4.653A3.3,3.3,0,0,1,27.8-296.342Z" transform="translate(-11.616 -280.72)" fill="#fadfb1"/>
    <path id="Path_4652" data-name="Path 4652" d="M28.991-290.312a2.135,2.135,0,0,1-3.007-.255,2.147,2.147,0,0,1-.156-2.546,2.247,2.247,0,0,1,.41-.462,2.121,2.121,0,0,1,1.556-.495A2.139,2.139,0,0,1,28.991-290.312Z" transform="translate(-13.469 -282.535)" fill="#f47358"/>
    <path id="Path_4653" data-name="Path 4653" d="M58.494-309.486a3.3,3.3,0,0,1-3.29,3.31,3.3,3.3,0,0,1-3.311-3.291,3.3,3.3,0,0,1,3.29-3.314A3.305,3.305,0,0,1,58.494-309.486Z" transform="translate(-27.428 -272.649)" fill="#fadfb1"/>
    <path id="Path_4654" data-name="Path 4654" d="M56.678-304.638a2.137,2.137,0,0,1-1.794-3.3,2.136,2.136,0,0,1,3.921,1.16A2.133,2.133,0,0,1,56.678-304.638Z" transform="translate(-28.825 -274.696)" fill="#f47358"/>
    <path id="Path_4655" data-name="Path 4655" d="M90.454-299.814a3.3,3.3,0,0,1-4.648.42,3.3,3.3,0,0,1-.422-4.648,3.3,3.3,0,0,1,4.649-.424A3.307,3.307,0,0,1,90.454-299.814Z" transform="translate(-44.725 -276.64)" fill="#fadfb1"/>
    <path id="Path_4656" data-name="Path 4656" d="M90.1-298.077a2.134,2.134,0,0,1-3.005.273,2.134,2.134,0,0,1-.273-3.008,2.133,2.133,0,0,1,3-.273A2.134,2.134,0,0,1,90.1-298.077Z" transform="translate(-45.628 -278.569)" fill="#f47358"/>
    <path id="Path_4657" data-name="Path 4657" d="M37.048-218.282a3.3,3.3,0,0,0-1.468-4.432,3.3,3.3,0,0,0-4.43,1.471,3.3,3.3,0,0,0,1.468,4.432A3.3,3.3,0,0,0,37.048-218.282Z" transform="translate(-16.278 -320.069)" fill="#fadfb1"/>
    <path id="Path_4658" data-name="Path 4658" d="M37.964-218.452a2.133,2.133,0,0,1-2.741.735A2.14,2.14,0,0,1,34.4-220.8a2.133,2.133,0,0,1,2.741-.735A2.138,2.138,0,0,1,37.964-218.452Z" transform="translate(-17.995 -320.757)" fill="#f47358"/>
    <path id="Path_4659" data-name="Path 4659" d="M15.43-243.741a3.3,3.3,0,0,0,1.723-4.337,3.3,3.3,0,0,0-4.338-1.726,3.305,3.305,0,0,0-1.723,4.342A3.3,3.3,0,0,0,15.43-243.741Z" transform="translate(-5.72 -305.793)" fill="#fadfb1"/>
    <path id="Path_4660" data-name="Path 4660" d="M18.559-244.7a2.135,2.135,0,0,1-3.742-.325,2.14,2.14,0,0,1,1.114-2.81,2.138,2.138,0,0,1,2.629,3.135Z" transform="translate(-7.739 -306.88)" fill="#f47358"/>
    <path id="Path_4661" data-name="Path 4661" d="M15.226-277.141a3.3,3.3,0,0,0,4.108-2.221,3.3,3.3,0,0,0-2.216-4.106,3.3,3.3,0,0,0-4.108,2.216A3.3,3.3,0,0,0,15.226-277.141Z" transform="translate(-6.803 -288.069)" fill="#fadfb1"/>
    <path id="Path_4662" data-name="Path 4662" d="M16.887-277.423a2.114,2.114,0,0,1-.166-1.622,2.135,2.135,0,0,1,3.922-.4,2.112,2.112,0,0,1,.166,1.622A2.136,2.136,0,0,1,16.887-277.423Z" transform="translate(-8.79 -289.677)" fill="#f47358"/>
    <path id="Path_4663" data-name="Path 4663" d="M20.346-233.992a3.3,3.3,0,0,1,4.512,1.193,3.305,3.305,0,0,1-1.192,4.517,3.3,3.3,0,0,1-4.513-1.193A3.306,3.306,0,0,1,20.346-233.992Z" transform="translate(-9.886 -314.056)" fill="#fadfb1"/>
    <path id="Path_4664" data-name="Path 4664" d="M23.891-228.608a2.137,2.137,0,0,1-.528-3.908,2.136,2.136,0,0,1,2.917.768A2.138,2.138,0,0,1,23.891-228.608Z" transform="translate(-11.79 -314.92)" fill="#f47358"/>
    <path id="Path_4665" data-name="Path 4665" d="M36.531-302.866a3.3,3.3,0,0,0,4.571.943,3.3,3.3,0,0,0,.943-4.573,3.3,3.3,0,0,0-4.571-.943A3.3,3.3,0,0,0,36.531-302.866Z" transform="translate(-19.021 -275.186)" fill="#fadfb1"/>
    <path id="Path_4666" data-name="Path 4666" d="M42.394-300.333a2.139,2.139,0,0,1-2.956-.608,2.133,2.133,0,0,1,.61-2.956,2.13,2.13,0,0,1,2.956.608,2.135,2.135,0,0,1,0,2.343A2.142,2.142,0,0,1,42.394-300.333Z" transform="translate(-20.659 -277.158)" fill="#f47358"/>
    <path id="Path_4667" data-name="Path 4667" d="M12.728-266.516a3.3,3.3,0,0,1,2.691,3.814A3.3,3.3,0,0,1,11.6-260.01a3.3,3.3,0,0,1-2.691-3.814A3.3,3.3,0,0,1,12.728-266.516Z" transform="translate(-4.686 -297.077)" fill="#fadfb1"/>
    <path id="Path_4668" data-name="Path 4668" d="M14.511-259.776a2.139,2.139,0,0,1-1.423-3.272,2.127,2.127,0,0,1,2.149-.938,2.139,2.139,0,0,1,1.74,2.47A2.136,2.136,0,0,1,14.511-259.776Z" transform="translate(-6.734 -298.423)" fill="#f47358"/>
    <path id="Path_4669" data-name="Path 4669" d="M43.464-281.209l4.028-17.3-.606-.141-4.2,18.033-2.135-18.391-.619.071,2.048,17.651-8.036-15.845-.555.278,8.373,16.51-13.45-12.715-.428.457L40.8-280.4l-16.337-6.973-.244.575,17.022,7.265-18.473-1.089-.037.622,17.728,1.042-16.992,5.167.181.594,17.706-5.379L26.5-267.532l.372.5,14.251-10.6-9.7,14.884.522.339L53.753-295.7l-.52-.344Z" transform="translate(-12.012 -279.927)" fill="#f47358"/>
    <path id="Path_4670" data-name="Path 4670" d="M131.8-215.86l-1.461,2.23L60.58-259.346l1.461-2.235Z" transform="translate(-32.019 -299.711)" fill="#f47358"/>
    <path id="Path_4671" data-name="Path 4671" d="M139.47-487.215a5.588,5.588,0,0,0,1.283,7.8,5.583,5.583,0,0,0,7.8-1.282,5.589,5.589,0,0,0-1.283-7.8A5.583,5.583,0,0,0,139.47-487.215Z" transform="translate(-73.163 -179.22)" fill="#fadfb1"/>
    <path id="Path_4672" data-name="Path 4672" d="M146.285-476.8a3.618,3.618,0,0,1-4.624-5.3,3.608,3.608,0,0,1,5.04-.83,3.622,3.622,0,0,1-.416,6.134Z" transform="translate(-74.507 -182.357)" fill="#f47358"/>
    <path id="Path_4673" data-name="Path 4673" d="M67.611-502.789a5.588,5.588,0,0,1-4.395,6.567,5.583,5.583,0,0,1-6.565-4.394,5.587,5.587,0,0,1,4.394-6.567A5.584,5.584,0,0,1,67.611-502.789Z" transform="translate(-29.886 -169.841)" fill="#fadfb1"/>
    <path id="Path_4674" data-name="Path 4674" d="M65.784-493.685a3.615,3.615,0,0,1-4.245-2.843,3.637,3.637,0,0,1,1.856-3.9,3.585,3.585,0,0,1,.985-.344,3.577,3.577,0,0,1,2.711.537A3.622,3.622,0,0,1,65.784-493.685Z" transform="translate(-32.49 -173.25)" fill="#f47358"/>
    <path id="Path_4675" data-name="Path 4675" d="M123.841-497.073a5.582,5.582,0,0,1-7.587,2.206,5.59,5.59,0,0,1-2.205-7.59,5.585,5.585,0,0,1,7.587-2.2A5.586,5.586,0,0,1,123.841-497.073Z" transform="translate(-59.915 -170.866)" fill="#fadfb1"/>
    <path id="Path_4676" data-name="Path 4676" d="M118.537-492.194a3.623,3.623,0,0,1,.05-6.365,3.619,3.619,0,0,1,4.855,4.936A3.616,3.616,0,0,1,118.537-492.194Z" transform="translate(-61.666 -174.226)" fill="#f47358"/>
    <path id="Path_4677" data-name="Path 4677" d="M163.242-456.531a5.586,5.586,0,0,1-7.229-3.187,5.593,5.593,0,0,1,3.187-7.237,5.588,5.588,0,0,1,7.229,3.192A5.591,5.591,0,0,1,163.242-456.531Z" transform="translate(-82.26 -190.96)" fill="#fadfb1"/>
    <path id="Path_4678" data-name="Path 4678" d="M162.645-455.039a3.615,3.615,0,0,1-4.674-2.06,3.61,3.61,0,0,1,2.06-4.677,3.615,3.615,0,0,1,4.674,2.06A3.609,3.609,0,0,1,162.645-455.039Z" transform="translate(-83.365 -193.768)" fill="#f47358"/>
    <path id="Path_4679" data-name="Path 4679" d="M17.322-379.61a5.592,5.592,0,0,0,1.459-7.77,5.584,5.584,0,0,0-7.765-1.457,5.587,5.587,0,0,0-1.459,7.765A5.581,5.581,0,0,0,17.322-379.61Z" transform="translate(-4.536 -231.934)" fill="#fadfb1"/>
    <path id="Path_4680" data-name="Path 4680" d="M20.168-379.912a3.606,3.606,0,0,1-4.661-1.16,3.617,3.617,0,0,1,1.3-5.238,3.6,3.6,0,0,1,4.66,1.16A3.612,3.612,0,0,1,20.168-379.912Z" transform="translate(-7.864 -233.565)" fill="#f47358"/>
    <path id="Path_4681" data-name="Path 4681" d="M6.181-435.045a5.59,5.59,0,0,0,6.109-5.016,5.588,5.588,0,0,0-5.011-6.11A5.589,5.589,0,0,0,1.17-441.16,5.592,5.592,0,0,0,6.181-435.045Z" transform="translate(-0.604 -202.131)" fill="#fadfb1"/>
    <path id="Path_4682" data-name="Path 4682" d="M12.94-434.682a3.617,3.617,0,0,1-5.274-3.555,3.616,3.616,0,0,1,3.949-3.244,3.62,3.62,0,0,1,1.325,6.8Z" transform="translate(-4.042 -204.616)" fill="#f47358"/>
    <path id="Path_4683" data-name="Path 4683" d="M33.26-484.68a5.584,5.584,0,0,0,7.9.085,5.588,5.588,0,0,0,.088-7.9,5.584,5.584,0,0,0-7.9-.09A5.594,5.594,0,0,0,33.26-484.68Z" transform="translate(-16.738 -176.771)" fill="#fadfb1"/>
    <path id="Path_4684" data-name="Path 4684" d="M37.3-484.531a3.594,3.594,0,0,1,1.086-2.546,3.617,3.617,0,0,1,6.137,2.626,3.583,3.583,0,0,1-1.087,2.541A3.617,3.617,0,0,1,37.3-484.531Z" transform="translate(-19.716 -179.98)" fill="#f47358"/>
    <path id="Path_4685" data-name="Path 4685" d="M5.468-416.582a5.592,5.592,0,0,1,5.7,5.469A5.589,5.589,0,0,1,5.705-405.4,5.587,5.587,0,0,1,0-410.873,5.589,5.589,0,0,1,5.468-416.582Z" transform="translate(0 -217.784)" fill="#fadfb1"/>
    <path id="Path_4686" data-name="Path 4686" d="M7.652-406.5a3.62,3.62,0,0,1,2.422-6.223,3.618,3.618,0,0,1,3.688,3.536A3.616,3.616,0,0,1,7.652-406.5Z" transform="translate(-3.456 -219.825)" fill="#f47358"/>
    <path id="Path_4687" data-name="Path 4687" d="M85.892-505.288a5.586,5.586,0,0,0,5.995,5.144,5.585,5.585,0,0,0,5.146-6,5.587,5.587,0,0,0-6-5.148A5.591,5.591,0,0,0,85.892-505.288Z" transform="translate(-45.39 -167.719)" fill="#fadfb1"/>
    <path id="Path_4688" data-name="Path 4688" d="M93.848-497.524a3.618,3.618,0,0,1-3.876-3.328,3.613,3.613,0,0,1,3.326-3.88,3.619,3.619,0,0,1,3.877,3.328,3.613,3.613,0,0,1-1.918,3.475A3.616,3.616,0,0,1,93.848-497.524Z" transform="translate(-47.549 -171.188)" fill="#f47358"/>
    <path id="Path_4689" data-name="Path 4689" d="M20.849-470.993a5.593,5.593,0,0,1,.856,7.859,5.587,5.587,0,0,1-7.854.858,5.593,5.593,0,0,1-.856-7.859A5.583,5.583,0,0,1,20.849-470.993Z" transform="translate(-6.217 -188.375)" fill="#fadfb1"/>
    <path id="Path_4690" data-name="Path 4690" d="M19.319-460.344a3.622,3.622,0,0,1,.575-6.016,3.6,3.6,0,0,1,3.949.382A3.615,3.615,0,0,1,24.4-460.9,3.609,3.609,0,0,1,19.319-460.344Z" transform="translate(-9.499 -191.254)" fill="#f47358"/>
    <path id="Path_4691" data-name="Path 4691" d="M59.562-456.389l20.149-22.319-.783-.707-21,23.257,11.914-28.985-.975-.4-11.435,27.82,1.089-30.06-1.054-.038-1.134,31.314-9.494-29.862-1,.321,9.112,28.664L36.473-481.112l-.832.646,19.253,24.723L28.428-472.508l-.564.891,25.4,16.091-29.4-6.294-.221,1.032,30.632,6.558-31.046,4.177.14,1.042,29.792-4.007L26.6-438.936,27.1-438,86.68-469.411l-.489-.933Z" transform="translate(-12.279 -180.132)" fill="#f47358"/>
    <path id="Path_4692" data-name="Path 4692" d="M157.41-299.192l-3.994,2.1L87.6-422.024l3.994-2.107Z" transform="translate(-46.3 -213.795)" fill="#f47358"/>
    <path id="Path_4693" data-name="Path 4693" d="M200.394-289.513s47.985-36.589,54.561-52.359-6.983-13.988-6.983-13.988,19.376-28.2,14.233-37.518-15.843,2.584-15.843,2.584,8.989-38.155,1.173-40.276c-14.557-3.951-26.5,37.108-26.5,37.108s1.072-17.048-8.04-14.752c-13.741,3.465-6.473,40.163-6.473,40.163s-4.38-6.506-11.915-.316C181.085-357.761,200.394-289.513,200.394-289.513Z" transform="translate(-100.319 -209.985)" fill="#345389"/>
    <path id="Path_4694" data-name="Path 4694" d="M190.677-367.927c7.536-6.19,13.948-.632,13.948-.632s-7.268-36.7,6.473-40.163c9.112-2.3,8.29,13.851,8.29,13.851s11.7-40.158,26.253-36.207l-47.5,141.44C196.018-298.473,178.048-357.55,190.677-367.927Z" transform="translate(-98.424 -209.979)" fill="#12375b"/>
    <path id="Path_4695" data-name="Path 4695" d="M214.932-228.841s35.868.7,55.078-4.446a27.6,27.6,0,0,0,9.964-4.96c11.128-9.349-2.521-10.08-2.521-10.08s30.9-16.6,30.521-25.718-12.465-9.349-12.465-9.349,16.967-19.74,10.387-27.7c-8.375-10.136-29.432,9.7-29.432,9.7s2.36-7.345-5.54-9.236c-11.913-2.848-24.08,39.281-24.08,39.281s1.563-17.2-6.621-15.506C225.539-283.812,214.932-228.841,214.932-228.841Z" transform="translate(-113.602 -272.016)" fill="#12375b"/>
    <path id="Path_4696" data-name="Path 4696" d="M142.633-291.65s-47.852-40.856-53.691-57.314,8.19-13.748,8.19-13.748-18.387-29.937-12.419-39.064,16.36,3.677,16.36,3.677-6.907-39.361,1.383-41c15.441-3.046,25.244,39.465,25.244,39.465s-.015-17.392,9.342-14.45c14.11,4.432,4.152,41.233,4.152,41.233s5.208-13.757,12.668-6.968C167.246-367.629,142.633-291.65,142.633-291.65Z" transform="translate(-44.145 -205.803)" fill="#345389"/>
    <path id="Path_4697" data-name="Path 4697" d="M177.407-382.156c-8.648-5.191-12.944,1.725-12.944,1.725s8.523-29.626-5.587-34.062c-9.356-2.937-10.258,12.1-10.258,12.1s-9.483-39.757-24.925-36.707l41.173,151.35C167.653-296.579,187.709-375.971,177.407-382.156Z" transform="translate(-65.378 -205.796)" fill="#456eb5"/>
    <path id="Path_4698" data-name="Path 4698" d="M99.826-186.458s-31.5.471-50.632-.316c-7.705-.316-13.137-.57-14.109-1.551-4.19-4.234,6.567-7.619,6.567-7.619s-17.3,1.867-19.788-2.112,4.187-5.549,4.187-5.549S9.69-206.4,10.541-211.794c1.03-6.534,19.439-2.244,19.439-2.244S26.2-219,28.915-222.02c4.1-4.549,18.054,6.016,18.054,6.016s-4.822-7.336-2.061-10.48C55.8-238.869,99.826-186.458,99.826-186.458Z" transform="translate(-5.554 -317.26)" fill="#12375b"/>
    <path id="Path_4699" data-name="Path 4699" d="M100.013-82.042H187.5c11.143-10.183,17.932-24.2,17.684-39.588a47.412,47.412,0,0,0-5.057-21.192l-112.8,1.268a50.236,50.236,0,0,0-4.665,21.946C82.9-104.954,89.478-91.739,100.013-82.042Z" transform="translate(-43.688 -362.481)" fill="#f47358"/>
    <path id="Path_4700" data-name="Path 4700" d="M1795.49-727.35l6.223,192.234h280.834l11.885-192.234Z" transform="translate(-949.004 -53.529)" fill="#345389"/>
    <path id="Path_4701" data-name="Path 4701" d="M2028.95-303.273h17.4v-34.3h-17.4Z" transform="translate(-1072.399 -259.546)" fill="#12375b"/>
    <path id="Path_4702" data-name="Path 4702" d="M2220.04-303.273h17.4v-34.3h-17.4Z" transform="translate(-1173.4 -259.546)" fill="#12375b"/>
    <path id="Path_4703" data-name="Path 4703" d="M1827-255.227l9.6-9.594h222.28l9.6,9.594Z" transform="translate(-965.659 -297.998)" fill="#12375b"/>
    <path id="Path_4704" data-name="Path 4704" d="M2136.1-171.671h141.275v-27.41H2136.1Z" transform="translate(-1129.033 -332.745)" fill="#345389"/>
    <path id="Path_4705" data-name="Path 4705" d="M1726.447-135.787H1652.74V-244.33l73.707-.141Z" transform="translate(-873.554 -308.754)" fill="#f47358"/>
    <path id="Path_4706" data-name="Path 4706" d="M2301.33-135.566h73.711V-244.471H2301.33Z" transform="translate(-1216.366 -308.754)" fill="#f47358"/>
    <path id="Path_4707" data-name="Path 4707" d="M1809.08-135.356h309.239v-5.7H1809.08Z" transform="translate(-956.187 -363.417)" fill="#b65741"/>
    <path id="Path_4708" data-name="Path 4708" d="M1809.08-237.06h317.107v-7.411H1809.08Z" transform="translate(-956.187 -308.754)" fill="#b65741"/>
    <path id="Path_4709" data-name="Path 4709" d="M2457.68-135.566H2469V-244.471H2457.68Z" transform="translate(-1299.004 -308.754)" fill="#b65741"/>
    <path id="Path_4710" data-name="Path 4710" d="M1809.08-23.947h305.783v-9.344H1809.08Z" transform="translate(-956.187 -420.373)" fill="#b65741"/>
    <path id="Path_4711" data-name="Path 4711" d="M2228.63-171.671h97.652v-27.41H2228.63Z" transform="translate(-1177.94 -332.745)" fill="#174554"/>
    <path id="Path_4712" data-name="Path 4712" d="M1790.5-542.318l-6.223-192.234h298.943l-308.947-6.424,10,198.907Z" transform="translate(-937.789 -46.328)" fill="#456eb5"/>
    <path id="Path_4713" data-name="Path 4713" d="M1791.05-135.566h8.5V-244.471h-8.5Z" transform="translate(-946.658 -308.754)" fill="#b65741"/>
    <path id="Path_4714" data-name="Path 4714" d="M2297.712-313.294c-.6-4.729.108-9.75.325-14.507.207-4.611.391-9.222.49-13.837.2-9.457.123-18.929-.165-28.386s-.844-18.91-1.678-28.339c-.731-8.213-1.726-16.925-6.563-23.874a19.831,19.831,0,0,0-9.236-7.407c-4.545-1.631-9.368-.618-14.063-.646-2.7-.019-2.7-4.257,0-4.191,4.554.113,9.174-.655,13.639.58a21.863,21.863,0,0,1,9.556,5.785c5.954,6.016,8.415,14.191,9.542,22.384,1.32,9.627,1.792,19.428,2.207,29.136q.643,15.049.269,30.116-.205,8.309-.693,16.6c-.16,2.772-.387,5.535-.632,8.3a41.107,41.107,0,0,1-1.259,8.519A.89.89,0,0,1,2297.712-313.294Z" transform="translate(-1197.058 -208.254)" fill="#174554"/>
    <path id="Path_4715" data-name="Path 4715" d="M1994.2-565.571v115.963h126.948l4.606-115.963Z" transform="translate(-1054.032 -139.037)" fill="#12375b"/>
    <path id="Path_4716" data-name="Path 4716" d="M2149.584-354.331c1.707,4.064,2.06,8.576,2.531,12.922.49,4.474.712,8.967.867,13.465.311,8.783.354,17.576.962,26.349.943,13.7,3.427,31.168,17.09,38.1,6.016,3.05,14.026,3.63,19.462-.929,2.268-1.9,5.553,1.381,3.267,3.262-5.5,4.517-12.692,5.483-19.462,3.621a28.663,28.663,0,0,1-16.793-13.073c-4.205-6.907-5.973-14.969-6.911-22.908-1.094-9.288-1.122-18.665-1.249-28q-.113-8.1-.476-16.19c-.245-5.441-1.235-10.938-1.056-16.373A.905.905,0,0,1,2149.584-354.331Z" transform="translate(-1135.214 -250.357)" fill="#174554"/>
    <path id="Path_4717" data-name="Path 4717" d="M2052.138-369.835h65.207a14.816,14.816,0,0,0,14.818-14.813v-4.733H2037.32v4.733A14.816,14.816,0,0,0,2052.138-369.835Z" transform="translate(-1076.823 -232.162)" fill="#174554"/>
    <path id="Path_4718" data-name="Path 4718" d="M2052.138-376.62h65.207a14.82,14.82,0,0,0,14.818-14.818v-4.733H2037.32v4.733A14.82,14.82,0,0,0,2052.138-376.62Z" transform="translate(-1076.823 -228.573)" fill="#345389"/>
    <path id="Path_4719" data-name="Path 4719" d="M489.573-525.628c-1.15-.368-4.624-2.815-9.372-4.106-17.332-4.733-51.627-12.347-51.627-12.347-1.387-.363-2.68-.731-3.9-1.051,1.554-11.551,7.982-62.716,2.211-78.68-1.965-5.438-13.242-17.1-20.407,4.31-7.262,21.7.108,75.912,1.729,83.05.006.038.011.08.018.118,1.074,6.251,13.913,10.457,21.982,11.084,7.949.613,40.075,1.551,42.107,2.395s6.691,10.3,6.691,10.3,1.972,11.353,3.878,11.027-1.127-14.03-1.127-14.03a35.328,35.328,0,0,1,4.567,8.2c.844,2.23,1.956,5.747,2.683,6.77,1.24,1.74,1.424-3.559,1.155-5.139-.363-2.117-4.481-13.384-4.179-13.686.827-.825,4.872,7.143,4.872,7.143s3.932,11.089,4.705,11.089c2.753,0,.745-4.611-.075-9.368s-5.492-11.645-4.4-11.833,5.832,10.462,7.109,8.656S494.91-523.93,489.573-525.628Z" transform="translate(-213.182 -105.033)" fill="#f6a390"/>
    <path id="Path_4720" data-name="Path 4720" d="M425.37-621.813c-1.965-5.438-13.242-17.1-20.407,4.31-2.666,7.969-4.742,22.3-4.473,35.094,8.412.806,18.908-.448,27.24.617C428.716-597.514,428.161-614.091,425.37-621.813Z" transform="translate(-211.666 -105.033)" fill="#b65741"/>
    <path id="Path_4721" data-name="Path 4721" d="M1525.193-578.44a1.094,1.094,0,0,1-1.094,1.092,1.093,1.093,0,0,1-1.089-1.092,1.092,1.092,0,0,1,1.089-1.091A1.093,1.093,0,0,1,1525.193-578.44Z" transform="translate(-804.985 -131.659)" fill="#174554"/>
    <path id="Path_4722" data-name="Path 4722" d="M1533.028-571.712a1.091,1.091,0,0,1-1.089,1.094,1.091,1.091,0,0,1-1.089-1.094,1.087,1.087,0,0,1,1.089-1.089A1.087,1.087,0,0,1,1533.028-571.712Z" transform="translate(-809.129 -135.216)" fill="#174554"/>
    <path id="Path_4723" data-name="Path 4723" d="M1539.813-565.667a1.087,1.087,0,0,1-1.089,1.089,1.091,1.091,0,0,1-1.094-1.089,1.1,1.1,0,0,1,1.094-1.094A1.091,1.091,0,0,1,1539.813-565.667Z" transform="translate(-812.713 -138.408)" fill="#174554"/>
    <path id="Path_4724" data-name="Path 4724" d="M1529.823-560.712a1.1,1.1,0,0,1-1.094,1.094,1.091,1.091,0,0,1-1.089-1.094,1.087,1.087,0,0,1,1.089-1.089A1.091,1.091,0,0,1,1529.823-560.712Z" transform="translate(-807.433 -141.03)" fill="#174554"/>
    <path id="Path_4725" data-name="Path 4725" d="M1524.2-566.2a1.09,1.09,0,0,1-1.089,1.089,1.091,1.091,0,0,1-1.094-1.089,1.091,1.091,0,0,1,1.094-1.089A1.09,1.09,0,0,1,1524.2-566.2Z" transform="translate(-804.462 -138.128)" fill="#174554"/>
    <path id="Path_4726" data-name="Path 4726" d="M1518.588-571.712a1.091,1.091,0,0,1-1.089,1.094,1.09,1.09,0,0,1-1.089-1.094,1.086,1.086,0,0,1,1.089-1.089A1.087,1.087,0,0,1,1518.588-571.712Z" transform="translate(-801.497 -135.216)" fill="#174554"/>
    <path id="Path_4727" data-name="Path 4727" d="M1242.666-522.853s-.6-1.688,6.643-1.688,14.059,2.442,14.059,4.012v1.57s-3.229,15.1-5.587,13.705.7-10.909.7-10.909-1.433,8.939-3.682,9.443,0-10.839,0-10.839-2.22,9.688-4.116,9.688-1.3-11.136-1.3-11.678v-.542Z" transform="translate(-656.803 -160.723)" fill="#f48b7e"/>
  </g>
</svg>
