<svg xmlns="http://www.w3.org/2000/svg" width="1170" height="367.344" viewBox="0 0 1170 367.344">
  <g id="family-illustration-3" transform="translate(0 895.888)" opacity="0.3">
    <path id="Path_5055" data-name="Path 5055" d="M1448.787-753.26H1721.6a100.034,100.034,0,0,1,100.032,100.032v119.976a9.29,9.29,0,0,1-9.291,9.287h-454.3a9.287,9.287,0,0,1-9.287-9.287V-653.228A100.031,100.031,0,0,1,1448.787-753.26Z" transform="translate(-795.724 -84.146)" fill="#f6cc7e"/>
    <path id="Path_5056" data-name="Path 5056" d="M1348.583-552.416l-.123-.049c.037-2.177.127-4.342.283-6.487q-.16,2.829-.16,5.7Zm4.289-29.912c.143-.492.287-.984.435-1.472,0,.012.008.029.012.041C1353.167-583.283,1353.02-582.808,1352.872-582.328Z" transform="translate(-795.547 -184.121)" fill="#fae4be"/>
    <path id="Path_5057" data-name="Path 5057" d="M1782.111-443.883h-394.7c.049-.32,1.788-91.979-38.65-108.474v-.836q0-2.866.16-5.7a113.453,113.453,0,0,1,4.129-23.376c.148-.48.3-.955.447-1.431,11.989,39.527,44.8,67.9,83.409,67.9h121.452c-16.147,17.877-29,32.717-29,32.717s8.648-.029,14.839-.029c3.1,0,5.58,0,6.056.029h0c1.091,0,42.656-24.508,53.993-32.717h35.8c20.7,19.866,53.054,47.363,76.9,51.086a84.224,84.224,0,0,0,13,1.087c34.381,0,35.312-26.275,35.312-26.275l-24.044-15.384,36.333,12.4c0-2.255,4.113-18.9,8.68-38.81a74.358,74.358,0,0,0,15.266-3.506C1780.943-503.391,1782.07-444.141,1782.111-443.883Z" transform="translate(-795.724 -184.18)" fill="#f2b65e"/>
    <path id="Path_5058" data-name="Path 5058" d="M1424.924-323.49c48.736-28.46,111.976-29.33,153.947-25.664a518.614,518.614,0,0,0,90.137,0c41.971-3.666,105.21-2.8,153.951,25.664l9.3,25.479s-16.742,41.4-19.53,41.4-188.787-2.657-188.787-2.657-186,2.657-188.792,2.657-19.53-41.4-19.53-41.4Z" transform="translate(-835.169 -321.647)" fill="#fadfb1"/>
    <path id="Path_5059" data-name="Path 5059" d="M1236.667-489.886c5.884-15.192,19.563-24.655,34.07-23.339,50.545,4.6,48.54,110.5,48.486,110.848h394.7c-.053-.344-2.058-106.252,48.486-110.848,14.507-1.316,28.186,8.147,34.07,23.339,3.916,10.12,5.622,24.221-.8,42.307-14.568,41.044-54.559,69.706-60.139,120.66-.861,7.889-1.98,12.026-3.252,13.392-3.264,6.38-9.324,10.669-16.266,10.669H1316.591c-10.4,0-18.833-9.623-18.833-21.494v-1.218c-.049-.439-.1-.886-.152-1.349-5.581-50.955-45.571-79.616-60.14-120.66C1231.046-465.665,1232.751-479.766,1236.667-489.886Z" transform="translate(-727.538 -225.687)" fill="#f6cc7e"/>
    <path id="Path_5060" data-name="Path 5060" d="M1296.752-395.425c-9.246,0-16.742-8.553-16.742-19.108s7.5-19.108,16.742-19.108,16.738,8.557,16.738,19.108S1305.994-395.425,1296.752-395.425Z" transform="translate(-755.164 -272.711)" fill="#f2b65e"/>
    <path id="Path_5061" data-name="Path 5061" d="M2495.812-395.425c-9.246,0-16.741-8.553-16.741-19.108s7.5-19.108,16.741-19.108,16.742,8.557,16.742,19.108S2505.058-395.425,2495.812-395.425Z" transform="translate(-1462.57 -272.711)" fill="#f2b65e"/>
    <path id="Path_5062" data-name="Path 5062" d="M335.331-203.738h-6.962l25.944-134.8,5.788,1.1Z" transform="translate(-193.727 -328.817)" fill="#0d2e34"/>
    <path id="Path_5063" data-name="Path 5063" d="M777.512-204.34l5.788-1.1-25.008-133.1-5.788,1.1Z" transform="translate(-443.953 -328.817)" fill="#0d2e34"/>
    <path id="Path_5064" data-name="Path 5064" d="M646.17-203.738h-6.962l25.944-134.8,5.788,1.1Z" transform="translate(-377.112 -328.817)" fill="#0d2e34"/>
    <path id="Path_5065" data-name="Path 5065" d="M464.06-202.87l5.652.07L444.84-337.07l-5.788,1.1Z" transform="translate(-259.026 -329.684)" fill="#0d2e34"/>
    <path id="Path_5066" data-name="Path 5066" d="M417.454-782.148c-22.919,2.464-52.578,5.06-82.353,55.76C302.557-670.972,319.688-588.2,345.373-565.2s109.574,51.4,180.093,8.885c0,0,42.58-25.766,20.728-68.529-33.628-65.806-28.877-79.53-43.913-105.321S466.1-787.376,417.454-782.148Z" transform="translate(-187.168 -66.763)" fill="#fadfb1"/>
    <path id="Path_5067" data-name="Path 5067" d="M335.1-719.914c20.323-34.6,40.591-46.8,58.7-51.836a152.228,152.228,0,0,0-21.213,28.731c-32.542,55.416-15.412,138.185,10.273,161.188,22.778,20.4,91.329,45.034,155.737,20.7a65.534,65.534,0,0,1-13.13,11.292c-70.519,42.516-154.408,14.117-180.093-8.885S302.557-664.5,335.1-719.914Z" transform="translate(-187.168 -73.237)" fill="#f6cc7e"/>
    <path id="Path_5068" data-name="Path 5068" d="M679.459-704.6c1.2.049,4.476,1.144,9.272,10.21,6.125,11.575,15.076,46.539,15.076,46.539L677.088-637.9l-3.432-7.3L668-701.385S679.127-704.616,679.459-704.6Z" transform="translate(-394.099 -112.853)" fill="#dd503a"/>
    <path id="Path_5069" data-name="Path 5069" d="M541.624-716.89c7.64.008,26.545,2.239,35.319,5.039,0,0,6.446,55.4-5.8,97.5-2.742,9.427,2.268,39.064,2.268,39.064l-79.171-1.042s9.379-71.657,5.846-83.233-3.618-51.914-3.618-51.914.542-.082,17.788-3.063A179.081,179.081,0,0,1,541.624-716.89Z" transform="translate(-291.584 -105.603)" fill="#f47358"/>
    <path id="Path_5070" data-name="Path 5070" d="M566.785-414.283s54.429-3.1,66.584,4.449-2.2,23.044-2.2,23.044-44.311,19.751-118.5,24.143c-17.567,1.037-19.081-46.965-15.8-50.934S566.785-414.283,566.785-414.283Z" transform="translate(-292.321 -283.384)" fill="#256653"/>
    <path id="Path_5071" data-name="Path 5071" d="M554.93-120.77s1.751,20.215,4.972,25.812-.169,15.118-.339,16.422-6.779,3.174-17.288,2.054-10.339-3.547-9.491-7.463,6.44-8.959,6.779-12.691-3.22-17.168-3.22-17.168Z" transform="translate(-314.115 -457.294)" fill="#f6a390"/>
    <path id="Path_5072" data-name="Path 5072" d="M540.037-36.021c-10.821-1.156-9.483-6.47-8.61-10.505.546-2.526,3.651-5.507,5.5-8.324.967.771,2.541,2.132,7.24,3.518,4.88,1.443,11.569-1.411,15.832-3.2a52.288,52.288,0,0,1,1.447,13.962C561.271-39.224,550.858-34.869,540.037-36.021Z" transform="translate(-313.188 -496.185)" fill="#174554"/>
    <path id="Path_5073" data-name="Path 5073" d="M508.224-374.142c2.183,16.52,12.994,98.773,12.994,98.773l-25.085,3.112s-30.848-107.359-29.266-123.781S480-413.841,480-413.841,502.445-417.88,508.224-374.142Z" transform="translate(-275.402 -284.334)" fill="#3c8f7c"/>
    <path id="Path_5074" data-name="Path 5074" d="M479.807-688.791c7.4-2.776,11.023,63.92,12.021,91.372,13.109,1.263,35.957.012,41.646-.418,2.676-.2,8.845-2.46,11.506-2.809a26.623,26.623,0,0,1,6.54-.307c.492.086,14.156,5.671,15.325,6.9,1.45,1.521,5.368,5.355,4.707,7.012s-7.537-4.617-7.537-4.617l-3.36-1.886c4.183,4.084,12.162,9.468,11.012,11.428-1.121,1.911-8.318-3.551-13.447-7.274,4.4,3.973,9.865,11.087,8.606,12.194-1.132,1-7.349-7.237-13.994-9.607-2.462-.877-4.916,1.554-6.853,1.849-1.424.213-3.621.677-5.018.279l-7.194-2.042c-2.451.221-2.512,1.673-4.987,2.2-2.873.615-7.587,1.259-11.246,2.153-21.07,5.146-28.1,7.536-34.548,7.532C463.445-574.851,462.312-682.226,479.807-688.791Z" transform="translate(-275.787 -122.131)" fill="#f6a390"/>
    <path id="Path_5075" data-name="Path 5075" d="M462.538-635.143c-1.387-28.12-1.184-62.78,14.58-68.693,6.22-2.333,17.184,11.7,15.213,69.263C483.915-633.876,471.561-633.318,462.538-635.143Z" transform="translate(-272.566 -113.162)" fill="#dd503a"/>
    <path id="Path_5076" data-name="Path 5076" d="M737.915-78.6s-2.189,7.02,1.73,11.657,20.205,9.2,22.343,11.711a7.044,7.044,0,0,1,1.976,4.654l-45.709-1.259.5-13.806,2.105-9.919Z" transform="translate(-423.747 -482.173)" fill="#f6a390"/>
    <path id="Path_5077" data-name="Path 5077" d="M738.808-46.037s-11.745,4.748-17.418,1.935-5.5-3.592-7.144-2.542-2.23,13.99-2.23,13.99l51.4,1.509c3.577-.082,5.385-2.714,2.479-4.97a41.944,41.944,0,0,0-5.6-3.334C756.269-41.752,738.808-46.037,738.808-46.037Z" transform="translate(-420.066 -500.762)" fill="#174554"/>
    <path id="Path_5078" data-name="Path 5078" d="M737.451-399.454c3.532-7.434,11.567-17.111,25.7-11.284,13.484,5.56,17.1,19.226,12.848,33.221s-32.261,96.255-33.237,107.564l-22.362.148s4.064-65.134,5.061-80.879C726.427-365.831,731.337-386.583,737.451-399.454Z" transform="translate(-425.016 -285.17)" fill="#3c8f7c"/>
    <path id="Path_5079" data-name="Path 5079" d="M641.059-565.42H566.31a4.871,4.871,0,0,0-4.51,3.034L538.784-506.06h-41.21a2.088,2.088,0,0,0-2.086,2.091,2.088,2.088,0,0,0,2.086,2.091H614.861a8.185,8.185,0,0,0,7.469-4.851l23.175-51.8A4.889,4.889,0,0,0,641.059-565.42Z" transform="translate(-292.322 -194.965)"/>
    <path id="Path_5080" data-name="Path 5080" d="M740.7-493.278a4.4,4.4,0,0,1-4.913,3.776c-2.208-.443-3.589-2.854-3.084-5.384a4.4,4.4,0,0,1,4.913-3.776C739.829-498.219,741.209-495.808,740.7-493.278Z" transform="translate(-432.212 -234.309)" fill="#fff"/>
    <path id="Path_5081" data-name="Path 5081" d="M593.265-890.159a57.17,57.17,0,0,1-6.612-2.648,33.208,33.208,0,0,0-7.54-2.84c-4.172-.644-11.338-.215-15.3,4.078-4.931,5.348-13.691.966-11.927,28.979,2,31.708,19.628,28.227,20.056,27.689s15.724-20.284,15.724-20.284,5.348,11.7,5.348,11.268C593.018-844.331,620.326-881.046,593.265-890.159Z" transform="translate(-325.46 0)" fill="#0d2e34"/>
    <path id="Path_5082" data-name="Path 5082" d="M594.434-767.115l1.522,11.329s3.409,16.323-.977,19.472-18.653-19.936-18.653-19.936l1.507-28.711Z" transform="translate(-340.013 -65.444)" fill="#f6a390"/>
    <path id="Path_5083" data-name="Path 5083" d="M578.814-775.656c3.623,9.8,12.253,15.815,18.378,18.148l-1.29-9.607L579.3-784.96Z" transform="translate(-341.481 -65.444)" fill="#f47358"/>
    <path id="Path_5084" data-name="Path 5084" d="M590.728-861.425a15.108,15.108,0,0,1,17.4,15.279,114.891,114.891,0,0,1-1.273,14.534c-2.021,13.076-10.944,24.594-16.844,23.565s-20.746-12.309-18.132-30.921C573.492-850.461,580.975-859.85,590.728-861.425Z" transform="translate(-337.209 -20.218)" fill="#f6a390"/>
    <path id="Path_5085" data-name="Path 5085" d="M569.952-809.6c-.5,2.878-2.8,4.879-5.145,4.469s-3.84-3.071-3.343-5.945,2.8-4.879,5.146-4.469S570.45-812.475,569.952-809.6Z" transform="translate(-331.189 -47.367)" fill="#f6a390"/>
    <path id="Path_5086" data-name="Path 5086" d="M570.91-848.94s7.134,1.771,9.781-2.816,12.114-14.49,24.147-10.385-10.589-9.981-11.552-9.981-12.515-.08-12.515-.08-8.9,7.325-9.225,8.13-2.888,9.579-2.888,9.579Z" transform="translate(-335.489 -13.974)" fill="#0d2e34"/>
    <path id="Path_5087" data-name="Path 5087" d="M605.911-768.78l12.98,2.481s-1.238,4.888-6.978,3.965C604.914-763.466,605.911-768.78,605.911-768.78Z" transform="translate(-357.438 -74.989)" fill="#fff"/>
    <path id="Path_5088" data-name="Path 5088" d="M2670.63-443.39h1.739a102.309,102.309,0,0,1,3.71-19.108c7.59-25.615,4.269-28.928,17.074-44.94s13.757-49.216,13.757-49.216,6.167-37.711,0-54.313-6.638-33.2-21.584-50.754c0,0-2.846,23.478-6.4,34.152s-6.937,20.871-4.3,46.485,4.277,27.751,4.88,34.389-.345,34.635,1.078,39.257-8.3,36.641-9.012,50.4C2671.36-452.907,2670.974-448.2,2670.63-443.39Z" transform="translate(-1575.584 -138.151)" fill="#205d4a"/>
    <path id="Path_5089" data-name="Path 5089" d="M2680.538-275.158a27.766,27.766,0,0,1,14.438-14.765c19.923-8.894,33.36-8.7,42.61-30.039s9.25-50.52,12.453-56.568c0,0-8.537-1.423-17.078,13.876s-14.327,26.681-19.259,35.574-12.047,6.4-18.095,13.166c-5.068,5.663-9.747,18.841-11.526,25.529a26.4,26.4,0,0,1-2.526,6.22c-1.009,1.78-2.194,3.945-2.9,5.486a8.524,8.524,0,0,0-.471,1.521Z" transform="translate(-1580.038 -306.383)" fill="#3c8f7c"/>
    <path id="Path_5090" data-name="Path 5090" d="M2545.913-579.707c-1.423,18.263,10.2,16.84,10.673,28.46s15.655,31.306,22.687,45.3c3.657,7.278,5.007,18.4,5.462,27.407h5.65c-2.186-22.786-11.432-38.65-16.959-51.361-7.114-16.364-8.185-23.835-2.136-36.645s-2.845-45.891,5.765-60.644,4.2-37.9,2.218-46.793.2-14.942,1.98-24.319-1.98-23-1.98-23c-.324,11.624-9.168,27.513-15.573,37.711s-18.5,37.949-17.074,50.52.709,13.519.709,13.519C2542.83-602.714,2547.336-597.97,2545.913-579.707Z" transform="translate(-1501.629 -103.001)" fill="#205d4a"/>
    <path id="Path_5091" data-name="Path 5091" d="M2550.506-289.994c.726,2.181,3.055,7.746,5.187,14.839h3.465c-1.574-9.029-4.3-19.505-8.89-25.512-9.25-12.1-27.751-17.312-29.883-26.086s.238-35.1-13.281-49.807c0,0,1.895,16.368,0,20.756s-18.025,24.778-8.541,41.856,30.834,14.942,37.473,18.738S2549.321-293.549,2550.506-289.994Z" transform="translate(-1472.32 -306.386)" fill="#3c8f7c"/>
    <path id="Path_5092" data-name="Path 5092" d="M2595.861-459.887c-.234,17.549,13.519,24.192,13.285,33.914s2.845,20.161,5.453,27.989c1.652,4.953.738,18.747.447,31.691h3.813c.964-9.513,2.018-23.237,1.669-29.321-.476-8.3,3.321-14.942,3.8-29.408s3.555-27.513-2.85-45.776-5.216-40.081-32.015-60.242c0,0-4.744,21.346-1.185,32.967S2596.1-477.436,2595.861-459.887Z" transform="translate(-1526.216 -215.248)" fill="#3c8f7c"/>
    <path id="Path_5093" data-name="Path 5093" d="M2595.861-459.887c-.234,17.549,13.519,24.192,13.285,33.914s2.845,20.161,5.453,27.989c1.652,4.953.738,18.747.447,31.691h1.583c.213-2.7.422-4.4.422-4.4l.787-32.729s-1.579-25.615-4.424-46.485-23.954-81.129-23.954-81.129-4.744,21.346-1.185,32.967S2596.1-477.436,2595.861-459.887Z" transform="translate(-1526.216 -215.248)" fill="#327e6a"/>
    <path id="Path_5094" data-name="Path 5094" d="M2650.623-165.77h-70.911a3.9,3.9,0,0,0-3.785,4.8l13.392,56.466a3.892,3.892,0,0,0,3.785,3h44.128a3.892,3.892,0,0,0,3.784-3l13.388-56.466A3.893,3.893,0,0,0,2650.623-165.77Z" transform="translate(-1519.65 -430.745)" fill="#9ac1f9"/>
    <path id="Path_5095" data-name="Path 5095" d="M1008.116-339.179s.316,7.446,10.353,10.5c9.246,2.813,13.6-6.409,9.492-9.242s-9.119-4.6-11.177-6.917C1013.007-349.09,1007.107-343.173,1008.116-339.179Z" transform="translate(-594.688 -324.233)" fill="#e9b053"/>
    <path id="Path_5096" data-name="Path 5096" d="M1042.383-342.912a6.985,6.985,0,0,0-1.849,2.493,7.722,7.722,0,0,0,.381,6.979c3.022,5.417,14.745,8.713,15.745,2.194s-6.31-4.629-8.352-7.61c-.918-1.341-1.042-3.018-2.3-4.059A3.168,3.168,0,0,0,1042.383-342.912Z" transform="translate(-613.492 -325.9)" fill="#f6cc7e"/>
    <path id="Path_5097" data-name="Path 5097" d="M987.534-349.618a9.64,9.64,0,0,1-6.238-2.591c-1.247-1.177-4.453-3.3-7.3-2.62-5.175,1.242-6.368,6.979-2.719,11.645,3.2,4.088,15.664,9.923,20.655,1.337C995.432-347.855,991.5-349.441,987.534-349.618Z" transform="translate(-571.777 -319.129)" fill="#f6cc7e"/>
    <path id="Path_5098" data-name="Path 5098" d="M975.036-342.319a8.178,8.178,0,0,0,3.079-1.534A13.048,13.048,0,0,0,981-346.227c.221-.258-.123-.545-.381-.406-1.062.582-2.071,1.3-3.079,1.972a13.075,13.075,0,0,0-2.755,1.866A.294.294,0,0,0,975.036-342.319Z" transform="translate(-575.05 -324.021)" fill="#f47358"/>
    <path id="Path_5099" data-name="Path 5099" d="M980.932-336.7c1.771.254,5.023-2.731,6.253-4.059.3-.324-.2-.873-.533-.57a22.633,22.633,0,0,1-3.006,2.292c-.886.578-2.28,1.042-2.874,1.919A.26.26,0,0,0,980.932-336.7Z" transform="translate(-578.592 -327.12)" fill="#f47358"/>
    <path id="Path_5100" data-name="Path 5100" d="M991.766-332a6.449,6.449,0,0,0,1.529-1.6c.521-.64,1.119-1.206,1.633-1.845a.64.64,0,0,0-.866-.927c-1.16.877-2.727,2.5-2.9,4A.39.39,0,0,0,991.766-332Z" transform="translate(-584.752 -330.019)" fill="#f47358"/>
    <path id="Path_5101" data-name="Path 5101" d="M1000.489-327.649a4.925,4.925,0,0,0,1.37-2.878c-.012-.738-1.591.012-1.916,2.632A.313.313,0,0,0,1000.489-327.649Z" transform="translate(-589.932 -333.386)" fill="#f47358"/>
    <path id="Path_5102" data-name="Path 5102" d="M1007.258-328.719c-.734,2.181.558,2.226.75,1.7a2.856,2.856,0,0,0-.062-1.677A.377.377,0,0,0,1007.258-328.719Z" transform="translate(-594.117 -334.485)" fill="#f47358"/>
    <path id="Path_5103" data-name="Path 5103" d="M1050.414-334.363a6.393,6.393,0,0,0-1.886,1.345c-.508.5-1.148,1.037-1.119,1.8a.375.375,0,0,0,.41.332c.664-.152.988-.718,1.427-1.2.529-.582,1.066-1.119,1.554-1.734C1051-334.076,1050.738-334.511,1050.414-334.363Z" transform="translate(-617.936 -331.264)" fill="#f47358"/>
    <path id="Path_5104" data-name="Path 5104" d="M1053.288-329.982c-.763.615-2.641,2.571-2.882,3.575-.082.353.369.574.635.39a6.384,6.384,0,0,0,1.328-1.624c.459-.619.951-1.205,1.382-1.845C1053.953-329.785,1053.616-330.245,1053.288-329.982Z" transform="translate(-619.699 -333.82)" fill="#f47358"/>
    <path id="Path_5105" data-name="Path 5105" d="M1059.294-326.31a18.1,18.1,0,0,0-2.243,3.9c-.062.3.357.595.6.369a11.841,11.841,0,0,0,2.2-3.916C1060-326.294,1059.516-326.622,1059.294-326.31Z" transform="translate(-623.622 -335.958)" fill="#f47358"/>
    <path id="Path_5106" data-name="Path 5106" d="M1065.027-322.721a5.2,5.2,0,0,0-.808,1.394c-.537,1.144-.877,1.739-.439,2.042a.56.56,0,0,0,.877-.209,12.01,12.01,0,0,0,1.042-2.924A.386.386,0,0,0,1065.027-322.721Z" transform="translate(-627.477 -338.071)" fill="#f47358"/>
    <path id="Path_5107" data-name="Path 5107" d="M1071.076-319.193c-.8.545-1.353,1.706-.824,2.1a.516.516,0,0,0,.648.061c.508-.32.16-1,.636-1.661A.342.342,0,0,0,1071.076-319.193Z" transform="translate(-631.291 -340.193)" fill="#f47358"/>
    <path id="Path_5108" data-name="Path 5108" d="M987.608-302.638H969.979a18.4,18.4,0,0,1-18.4-18.4h54.433A18.406,18.406,0,0,1,987.608-302.638Z" transform="translate(-561.399 -339.141)" fill="#bc4d25"/>
    <path id="Path_5109" data-name="Path 5109" d="M1092.969-301.153h-1.956a.532.532,0,0,1-.533-.533v-8.631a.532.532,0,0,1,.533-.533h1.956a.535.535,0,0,1,.533.533v8.631A.535.535,0,0,1,1092.969-301.153Z" transform="translate(-643.347 -345.153)" fill="#b65741"/>
    <path id="Path_5110" data-name="Path 5110" d="M1105.775-571.528c-2.526-3.309-5.359-5.138-8.418-5.433-4.724-.455-8.484,2.829-8.525,2.862l-1.882-2.12c.193-.168,4.74-4.137,10.677-3.563,3.879.377,7.376,2.575,10.4,6.532Z" transform="translate(-641.265 -186.459)" fill="#4fbea5"/>
    <path id="Path_5111" data-name="Path 5111" d="M1061.27-577.692l-12.412,12.412a1.873,1.873,0,0,0,0,2.653l4.879,4.879a1.873,1.873,0,0,0,2.653,0L1068.8-570.16a1.874,1.874,0,0,0,0-2.653l-4.875-4.879A1.878,1.878,0,0,0,1061.27-577.692Z" transform="translate(-618.467 -187.4)" fill="#b65741"/>
    <path id="Path_5112" data-name="Path 5112" d="M1010.12-557.432l27.558,27.562a19.491,19.491,0,0,0,0-27.562A19.486,19.486,0,0,0,1010.12-557.432Z" transform="translate(-595.938 -196.31)" fill="#f47358"/>
    <path id="Path_5113" data-name="Path 5113" d="M1128.591-563.235l25.028,50.988,3.317-1.628L1131.9-564.863Zm23.679,54.948-27.64-56.3,8.627-4.236,27.636,56.3Z" transform="translate(-663.495 -192.959)" fill="#b65741"/>
    <path id="Path_5114" data-name="Path 5114" d="M1149.886-372.859l3.494,1.193,18.353-53.755-3.493-1.193Zm5.339,4.949-9.095-3.108,20.264-59.352,9.094,3.108Z" transform="translate(-676.179 -274.64)" fill="#b65741"/>
    <path id="Path_5115" data-name="Path 5115" d="M1033.821-521.756l-1.361,1.361a.52.52,0,0,1-.738,0l-30.363-30.363a.525.525,0,0,1,0-.742l1.357-1.361a.525.525,0,0,1,.742,0l30.363,30.363A.524.524,0,0,1,1033.821-521.756Z" transform="translate(-590.678 -202.284)" fill="#95d9c8"/>
    <path id="Path_5116" data-name="Path 5116" d="M1200.671-434.013a7.007,7.007,0,0,1-7.007,7.007,7.006,7.006,0,0,1-7-7.007,7.006,7.006,0,0,1,7-7.007A7.007,7.007,0,0,1,1200.671-434.013Z" transform="translate(-700.09 -268.357)" fill="#f47358"/>
    <path id="Path_5117" data-name="Path 5117" d="M1046.093-299.57h58.4a3.381,3.381,0,0,1,3.383,3.383v6.216H1042.71v-6.216A3.381,3.381,0,0,1,1046.093-299.57Z" transform="translate(-615.165 -351.808)" fill="#4fbea5"/>
    <path id="Path_5118" data-name="Path 5118" d="M1677.527-404.614c4.806,7.081,50.762-2.243,50.762-2.243l-7.118,16.762c-14.962,3.932-33.528,6.659-33.528,6.659l-8.853,3.075c-5.175,2.8-12.354,1.378-12.44-7.413-.09-8.98-11.559-21.588-10.087-29.42s2.526-11.879,2.526-11.879l.164-.037a4.715,4.715,0,0,1,5.49,3.022l1.431,4.035S1670.872-414.43,1677.527-404.614Z" transform="translate(-977.063 -275.314)" fill="#f6a390"/>
    <path id="Path_5119" data-name="Path 5119" d="M909.477-269.551h149.65v-7.729H909.477Z" transform="translate(-536.562 -364.958)" fill="#174554"/>
    <path id="Path_5120" data-name="Path 5120" d="M916.077-161.169h97.842v-6.761H916.077Z" transform="translate(-540.455 -429.471)" fill="#174554"/>
    <path id="Path_5121" data-name="Path 5121" d="M1223.24-162.435h6.314V-267.85h-6.314Z" transform="translate(-721.671 -370.522)" fill="#174554"/>
    <path id="Path_5122" data-name="Path 5122" d="M1005.52-162.435h6.31V-267.85h-6.31Z" transform="translate(-593.224 -370.522)" fill="#174554"/>
    <path id="Path_5123" data-name="Path 5123" d="M1104.873-163.744l34-104.509-5.572-1.816L1098.71-163.744Z" transform="translate(-648.203 -369.212)" fill="#174554"/>
    <path id="Path_5124" data-name="Path 5124" d="M871.694-163.715l29.084-104.739-5.646-1.566L865.611-163.715Z" transform="translate(-510.682 -369.241)" fill="#174554"/>
    <path id="Path_5125" data-name="Path 5125" d="M2025.1-480.446l-81.937-52.427s-49.663-38.248-62.8-34.541-91.167,93.787-91.167,93.787,19.46-.07,20.9,0c1.115.049,51.082-29.477,56.38-34.6l13.088-18.845s59.352,65.9,97.227,71.817C2023.944-447.889,2025.1-480.446,2025.1-480.446Z" transform="translate(-1055.569 -193.639)" fill="#12375b"/>
    <path id="Path_5126" data-name="Path 5126" d="M2001.52-408.393s2.333-13.084-20.94-9c-11.218,1.968-120.193-.943-120.193-.943l-118.672,22.047-1.165,20.485s76.869-.98,89.4-1.8,31.564-8.643,31.564-8.643l94.324,22.384c21.855,3.473,51.521-14.511,51.521-38.047Z" transform="translate(-1026.867 -281.737)" fill="#345389"/>
    <path id="Path_5127" data-name="Path 5127" d="M2258.692-838.236c6.38-10.909,12.846-21.832,26.115-25.99,10.734-3.365,21.035-.144,29.083,7.82,22.8,22.565,5.076,36.129,26.189,77.874,19.5,38.547,11.1,67-4.494,73.88-74.6,32.93-98.838-58.86-94.836-78.554C2243.726-797.856,2254.583-831.213,2258.692-838.236Z" transform="translate(-1321.722 -17.9)" fill="#12375b"/>
    <path id="Path_5128" data-name="Path 5128" d="M2235.552-570.65,2226.9-552.7l12.326,1.3,2.886-18.558Z" transform="translate(-1313.798 -191.88)" fill="#f6a390"/>
    <path id="Path_5129" data-name="Path 5129" d="M2259.219-640.964c13.33-20.26,21.088-17.094,21.088-17.094l-20.182,47.1c-4.088-2.464-8.053-8.861-12.125-11.362A215.388,215.388,0,0,1,2259.219-640.964Z" transform="translate(-1326.246 -140.206)" fill="#4fbea5"/>
    <path id="Path_5130" data-name="Path 5130" d="M2301.995-540.522c-.008-5.724,26.509-104.054,19.571-113.4s-20.838-10.509-20.838-10.509-25.045.5-28.222,3.3-18.349,33.053-20.588,40.647c-1.341,4.56-11.792,33.118-14.208,58.028Z" transform="translate(-1320.175 -136.552)" fill="#95d9c8"/>
    <path id="Path_5131" data-name="Path 5131" d="M2353.056-733.824s.041.595.119,1.6c.385,4.842,2.128,20.961,3.969,25.533,2.227,5.527-11.8,20.936-23.4,17.66-3.452-.976,4.584-15.032,4.437-16.627-.283-3.051-.664-7.213-1.054-11.477-.221-2.407-.443-4.847-.652-7.143-.594-6.515-1.074-11.846-1.074-11.846Z" transform="translate(-1376.32 -94.258)" fill="#f6a390"/>
    <path id="Path_5132" data-name="Path 5132" d="M2356.8-732.221c-.078-1.009-.119-1.6-.119-1.6l-17.66-2.3s.48,5.33,1.074,11.846c.209,2.28.427,4.707.648,7.1a16.689,16.689,0,0,0,8.9-3.342,22.414,22.414,0,0,0,7.4-8.832C2356.938-730.486,2356.861-731.47,2356.8-732.221Z" transform="translate(-1379.945 -94.258)" fill="#f47358"/>
    <path id="Path_5133" data-name="Path 5133" d="M2336.984-836.2a21.01,21.01,0,0,1,11.637,9.063c4.523,7.3,7.967,28.772-6.22,38.76s-25.676-4.211-26.148-18.033S2318.106-838.678,2336.984-836.2Z" transform="translate(-1366.481 -35.081)" fill="#f6a390"/>
    <path id="Path_5134" data-name="Path 5134" d="M2307.8-782.154c.472,3.37,2.395,5.818,4.285,5.462s3.042-3.375,2.567-6.745-2.395-5.818-4.285-5.461S2307.32-785.525,2307.8-782.154Z" transform="translate(-1361.46 -63.1)" fill="#f6a390"/>
    <path id="Path_5135" data-name="Path 5135" d="M2347.31-837.782s14.925,21.264,22.806,23.019,7.819,12.416,7.819,12.416-.3-24.614-7.7-30.13S2347.31-837.782,2347.31-837.782Z" transform="translate(-1384.836 -34.28)" fill="#12375b"/>
    <path id="Path_5136" data-name="Path 5136" d="M2394.767-778.141c-1.017,3.457-.053,6.827,2.157,7.528s4.826-1.538,5.847-4.994.053-6.827-2.157-7.528S2395.788-781.6,2394.767-778.141Z" transform="translate(-1412.595 -66.444)" fill="#f6a390"/>
    <path id="Path_5137" data-name="Path 5137" d="M2334.4-744.68l12.346,1.23s-.75,4.662-6.2,4.277C2333.911-739.641,2334.4-744.68,2334.4-744.68Z" transform="translate(-1377.214 -89.208)" fill="#fff"/>
    <path id="Path_5138" data-name="Path 5138" d="M2265.819-569.59l-4.506-2.28-30.183,4.58,3.686,4.2Z" transform="translate(-1316.293 -191.16)" fill="#e9fbfb"/>
    <path id="Path_5139" data-name="Path 5139" d="M2145.36-583.816l4.342-1.484,30.826,10.087-3.342,3.567Z" transform="translate(-1265.692 -183.237)" fill="#e9fbfb"/>
    <path id="Path_5140" data-name="Path 5140" d="M2239.52-504.431l32.438-3.079a1.576,1.576,0,0,0,1.435-1.693l-2.5-56.863a2.16,2.16,0,0,0-2.263-2.026l-31.778,3.014Z" transform="translate(-1319.668 -193.383)" fill="#f47358"/>
    <path id="Path_5141" data-name="Path 5141" d="M2178.534-513.876l-32.971-8.984a2.187,2.187,0,0,1-1.6-1.968l-2.5-56.859a1.6,1.6,0,0,1,2.1-1.632l32.294,8.8Z" transform="translate(-1263.394 -184.365)" fill="#f47358"/>
    <path id="Path_5142" data-name="Path 5142" d="M2228.719-501.075l3.4.308a.563.563,0,0,0,.627-.6l-2.665-60.578a.779.779,0,0,0-.685-.722l-3.4-.3a.56.56,0,0,0-.627.6l2.665,60.582A.775.775,0,0,0,2228.719-501.075Z" transform="translate(-1312.894 -196.407)" fill="#b65741"/>
    <path id="Path_5143" data-name="Path 5143" d="M2251.879-517.675a.856.856,0,0,1-.812-.685l-1.07-5.33-4.867-2.71a.737.737,0,0,1-.078-1.312l4.584-2.009.443-5.22a.609.609,0,0,1,.631-.578.8.8,0,0,1,.578.262l3.907,4.088,5.142-.513a.447.447,0,0,1,.074,0,.828.828,0,0,1,.75,1.123l-2.169,4.535,2.735,4.9a.655.655,0,0,1-.521,1.029.707.707,0,0,1-.18-.025l-5.249-1.288-3.448,3.547A.626.626,0,0,1,2251.879-517.675Z" transform="translate(-1324.291 -212.605)" fill="#f58f64"/>
    <path id="Path_5144" data-name="Path 5144" d="M2266.168-459.656a.45.45,0,0,1-.431-.361l-.57-2.829-2.583-1.439a.394.394,0,0,1-.041-.7l2.431-1.066.238-2.768a.321.321,0,0,1,.332-.3.421.421,0,0,1,.307.135l2.075,2.173,2.727-.275c.012,0,.024,0,.037,0a.442.442,0,0,1,.4.6l-1.152,2.407,1.451,2.6a.346.346,0,0,1-.275.545.405.405,0,0,1-.1-.012l-2.784-.681-1.829,1.878A.319.319,0,0,1,2266.168-459.656Z" transform="translate(-1334.713 -251.779)" fill="#f58f64"/>
    <path id="Path_5145" data-name="Path 5145" d="M2190.51-470.468a.593.593,0,0,1-.562-.476l-.742-3.686-3.366-1.874a.513.513,0,0,1-.053-.91l3.169-1.39.308-3.608a.421.421,0,0,1,.435-.4.557.557,0,0,1,.4.18l2.7,2.829,3.555-.357a.2.2,0,0,1,.049,0,.575.575,0,0,1,.525.779l-1.5,3.137,1.89,3.387a.453.453,0,0,1-.361.713.444.444,0,0,1-.123-.016l-3.629-.89-2.39,2.452A.413.413,0,0,1,2190.51-470.468Z" transform="translate(-1289.393 -243.702)" fill="#f58f64"/>
    <path id="Path_5146" data-name="Path 5146" d="M2168.019-522.274a.39.39,0,0,1-.373-.316l-.5-2.464L2164.9-526.3a.341.341,0,0,1-.033-.607l2.116-.931.205-2.411a.286.286,0,0,1,.291-.267.385.385,0,0,1,.271.119l1.8,1.894,2.374-.242h.033a.381.381,0,0,1,.349.517l-1,2.1,1.263,2.263a.3.3,0,0,1-.242.476.306.306,0,0,1-.082-.012l-2.423-.595-1.595,1.64A.292.292,0,0,1,2168.019-522.274Z" transform="translate(-1277.099 -215.555)" fill="#f58f64"/>
    <path id="Path_5147" data-name="Path 5147" d="M2147.346-583.019l-.746-.2Z" transform="translate(-1266.424 -184.464)" fill="#f6cc7e"/>
    <path id="Path_5148" data-name="Path 5148" d="M2156.42-580.549l-8-2.181Z" transform="translate(-1267.497 -184.753)" fill="#ededd5"/>
    <path id="Path_5149" data-name="Path 5149" d="M2143.227-569.15a.947.947,0,0,1-.9-.759l-.443-2.21-.422-9.57c0-.029,0-.062,0-.09a1.574,1.574,0,0,1,1.6-1.611,1.824,1.824,0,0,1,.5.07l.746.2,8,2.181-1.218,2.55,3.022,5.421a.721.721,0,0,1-.574,1.136.867.867,0,0,1-.2-.025l-5.8-1.423-3.817,3.92A.68.68,0,0,1,2143.227-569.15Z" transform="translate(-1263.391 -184.363)" fill="#f58f64"/>
    <path id="Path_5150" data-name="Path 5150" d="M2153.393-449l-4.724-1.288a2.187,2.187,0,0,1-1.595-1.968l-.344-7.795.185.193,5.138-.517a.447.447,0,0,1,.074,0,.829.829,0,0,1,.754,1.123l-2.169,4.539,2.735,4.9A.7.7,0,0,1,2153.393-449Z" transform="translate(-1266.5 -256.935)" fill="#f58f64"/>
    <path id="Path_5151" data-name="Path 5151" d="M2306.39-427.9l6.593-.623a1.572,1.572,0,0,0,1.435-1.611,1.572,1.572,0,0,1-1.435,1.611Zm8.029-2.317-.176-4Z" transform="translate(-1360.694 -272.375)" fill="#b3d5b3"/>
    <path id="Path_5152" data-name="Path 5152" d="M2303.49-433.187l-1.57-.873a.737.737,0,0,1-.078-1.312l4.584-2.009.443-5.22a.612.612,0,0,1,.631-.578.794.794,0,0,1,.578.262l3.264,3.416.176,4v.082a1.572,1.572,0,0,1-1.435,1.611Z" transform="translate(-1357.795 -267.083)" fill="#f58f64"/>
    <path id="Path_5153" data-name="Path 5153" d="M2308.671-540.871a.787.787,0,0,1-.746-.627l-.984-4.9-4.469-2.493a.678.678,0,0,1-.074-1.206l4.211-1.845.406-4.793a.563.563,0,0,1,.578-.529.737.737,0,0,1,.537.242l1.415,1.48.59,13.416-1.054,1.078A.555.555,0,0,1,2308.671-540.871Z" transform="translate(-1358.141 -199.779)" fill="#f58f64"/>
    <path id="Path_5154" data-name="Path 5154" d="M2205.187-482.552a45.388,45.388,0,0,0-4.777-8.168,10.76,10.76,0,0,0-3.744-2.764s-3.194-1.374-3.727-.705a1.778,1.778,0,0,0,.16,2.21c.48.48,1.813.873,2.292,1.353s.537,2.649.271,3.391-9.533-3.629-9.533-3.629-2.6-1.386-3.428-1.915c-.705-.451-2.714-1.972-2.714-1.972s-2.977-2-3.543-1.025c-.336.578,1.812,3.1,4.272,5.187,2.649,2.239,5.634,4.031,5.49,4.355-.34.759-5.482-1.521-5.482-1.521a18.01,18.01,0,0,0-3.321-2.026c-1.173-1.238-3.613-2.645-4.223-1.406-.111.226,2.657,3.12,2.657,3.12s2.112,1.5,3.075,2.276c1.7,1.374,4.682,2.542,5.9,3.375,1.017.7.48.808.488.951a27.968,27.968,0,0,1-3.506-1.534,21.516,21.516,0,0,1-3.4-1.509,26.5,26.5,0,0,0-3.51-1.825c-2.661-1.173-2.928.742-.627,2.251.877.574,1.841,1.193,2.813,1.816,3.793,2.415,7.741,3.776,7.63,4.256-.139.623-7.188-2.3-7.188-2.3s-4.248-.472-.841,1.755a33.138,33.138,0,0,0,7.627,3.735c1.07.271,4.56,2.382,8.434,2.727,2.858.25,6.971.5,8.935.607Z" transform="translate(-1281.822 -235.895)" fill="#f7a391"/>
    <path id="Path_5155" data-name="Path 5155" d="M2319.869-519l-19.727-1.164s-2.358,16.52-3,18.361c0,0-36.1,4.719-50.59,5.019l-3.735,11.067c2.813.012,5.146-.189,6.52-.123,2.694.131,45.628,2.8,45.628,2.8s17.189.312,18.771-2.4S2319.869-519,2319.869-519Z" transform="translate(-1323.19 -221.667)" fill="#f6a390"/>
    <path id="Path_5156" data-name="Path 5156" d="M2399.112-587.452s11.78-40.593,10.69-51.443-13.49-21.121-22.441-17.5-12.621,62.2-12.621,62.2Z" transform="translate(-1401.019 -140.856)" fill="#4fbea5"/>
    <path id="Path_5157" data-name="Path 5157" d="M2471.255-510.94s-16.75,4.055-26.275,22.56,28.542-3.026,28.542-3.026Z" transform="translate(-1441.556 -227.106)" fill="#f6cc7e"/>
    <path id="Path_5158" data-name="Path 5158" d="M66.8-439.686c-.54-4.777-1.183-9.66-3.4-13.925-2.7-5.183-7.431-8.922-11.568-13.039a72.358,72.358,0,0,1-17.251-27.5c-2.761-7.979-4.138-16.479-7.943-24.012-2.323-4.6-5.491-8.713-8.13-13.142C12.269-541.759,8.873-554.122.415-562.88A37.963,37.963,0,0,0,8.99-532.849c2.083,2.427,4.5,4.621,6.086,7.4,2.881,5.047,2.619,11.206,2.956,17.008a74.717,74.717,0,0,0,8.933,31.265c5.549,10.189,13.559,19.263,16.526,30.486,2.224,8.41,1.563,17.841,6.3,25.131a6.409,6.409,0,0,1,1.227,2.518,5.488,5.488,0,0,1-.093,1.579l-.319,2.03c-1.078,6.884-2.192,15.643,3.721,20.793,4.1,3.567,9.374,3.649,12.318-1.095,2.964-4.773,2.7-11.76,2.481-17.135C68.763-421.816,67.805-430.792,66.8-439.686Z" transform="translate(0 -196.464)" fill="#3c8f7c"/>
    <path id="Path_5159" data-name="Path 5159" d="M141.415-492.414c-2.3-7.967-5.872-15.557-7.661-23.655-1.736-7.852-1.75-15.975-1.755-24.02q-.009-13.224-.018-26.443a99.714,99.714,0,0,0-.917-16.422c-1.951-11.645-8-22.412-9.029-34.176-.443-5.089.072-10.226-.488-15.3a24.114,24.114,0,0,0-2.405-8.434,3.756,3.756,0,0,0-6.739.189c-2.94,6.372-4.8,13.256-3.617,20.079.713,4.1,2.486,7.914,3.809,11.85,5.9,17.537,2.766,36.952,7.327,54.883,1.377,5.412,3.459,10.722,3.7,16.3.58,13.355-9.4,25.557-8.481,38.892.75,10.936,8.612,19.985,11.912,30.437,1.848,5.851,2.243,12.1,4.222,17.9,1.538,4.51,5.114,9.988,10.668,8.619,5.273-1.3,3.68-5.6,3.444-9.714C144.59-465.336,145.34-478.83,141.415-492.414Z" transform="translate(-63.965 -149.271)" fill="#205d4a"/>
    <path id="Path_5160" data-name="Path 5160" d="M186.141-473.679c-.232-4.137,2.574-6.224,3.153-10.329.489-3.469,1.041-8.951,2.027-12.313,1.847-6.294-.372-12.76.075-19.308q1.22-17.849,2.439-35.7c1.264-18.5,2.534-37.046,5.993-55.26.96-5.06,2.039-10.538-.234-15.155-.479-.972-1.422-2.005-2.456-1.681-.736.23-1.1,1.042-1.364,1.767-7.56,20.547-10.418,42.664-18.857,62.866-2.021,4.838-4.373,9.6-5.419,14.741-1.257,6.171-.567,12.547-.4,18.841a88.929,88.929,0,0,1-3.14,26.816c-1.305,4.539-3.052,8.98-3.767,13.654-.892,5.827-.144,11.76.415,17.627a270.76,270.76,0,0,1,1.088,33.951c-.2,6.659,5.416,6.483,9.139,2.395,2.6-2.862,2.579-6,3.471-9.562C181.227-452.025,186.852-461,186.141-473.679Z" transform="translate(-96.621 -160.707)" fill="#3c8f7c"/>
    <path id="Path_5161" data-name="Path 5161" d="M84.186-268.975c-4.97-7.987-14.871-12.527-18.047-21.383-.809-2.255-1.124-4.678-2.112-6.86-2.193-4.842-7.179-7.582-12.082-9.808a1.036,1.036,0,0,0-1.465.931,3.54,3.54,0,0,0,1.535,2.993,19.888,19.888,0,0,1,7.925,10.808c1.514,5.191.857,10.878,2.739,15.946,1.58,4.256,4.833,7.733,6.361,12.01,1.4,3.908,1.25,8.176,1.907,12.272s2.477,8.447,6.239,10.181C90.8-235.615,87.4-263.817,84.186-268.975Z" transform="translate(-29.782 -347.353)" fill="#205d4a"/>
    <path id="Path_5162" data-name="Path 5162" d="M235.238-297.337c-.212,3.862.378,7.91-1.133,11.465-.966,2.28-2.705,4.117-4.132,6.138-5.011,7.089-6.829,17.131-14.529,21.121a2.613,2.613,0,0,1-1.637.394,2.509,2.509,0,0,1-1.623-1.644c-1.888-4.4.23-9.353,1.485-13.974a3.43,3.43,0,0,0,.018-2.452c-.424-.82-1.39-1.173-2.05-1.816-1.315-1.279-1.192-3.4-.93-5.216a118.348,118.348,0,0,1,2.746-13.486,23.626,23.626,0,0,1,2.887-7.212c1.6-2.378,3.913-4.154,6.082-6.019A72.076,72.076,0,0,0,243.466-341.1c.89-2.591,1.684-5.33,3.522-7.36s5.115-3.075,7.354-1.5c1.593,1.119-4.932,11.616-5.692,12.875-2.174,3.6-2.2,6.725-3.432,10.718C242.208-316.579,235.814-307.821,235.238-297.337Z" transform="translate(-124.21 -321.628)" fill="#3c8f7c"/>
    <path id="Path_5163" data-name="Path 5163" d="M208.4-342.806a47.443,47.443,0,0,0,3.33-11.337c.522-4.359-.17-8.816.574-13.146.957-5.56,4.2-10.456,5.806-15.864,1.16-3.908,1.444-8.016,2.141-12.03,1.992-11.485,7.391-22.708,5.841-34.262-.337-2.513-1.471-5.441-3.965-5.872-2.257-.385-4.313,1.677-4.9,3.9s-.149,4.56.012,6.852a28.272,28.272,0,0,1-5.064,18.132c-3.547,5.019-8.694,8.8-11.886,14.052-3.915,6.442-4.448,14.306-6.446,21.58-3.973,14.466-13.938,27.083-15.755,41.975-.722,5.925.668,13.129,6.137,15.5C200.044-306.489,204.819-333.539,208.4-342.806Z" transform="translate(-104.963 -271.694)" fill="#205d4a"/>
    <path id="Path_5164" data-name="Path 5164" d="M160.844-164.86H90.778a3.848,3.848,0,0,0-3.739,4.74l13.232,55.8a3.846,3.846,0,0,0,3.739,2.96h43.6a3.846,3.846,0,0,0,3.739-2.96l13.232-55.8A3.848,3.848,0,0,0,160.844-164.86Z" transform="translate(-51.287 -431.282)" fill="#95d9c8"/>
  </g>
</svg>
