<svg xmlns="http://www.w3.org/2000/svg" width="1170" height="459.732" viewBox="0 0 1170 459.732">
  <g id="family-illustration-2" transform="translate(0 991.909)" opacity="0.3">
    <path id="Path_4728" data-name="Path 4728" d="M631.171-364.581s-8.083-18.725,6.725-24.426c0,0,10.322-2.563,17.274.065,0,0-15.267,13.714-12.538,16.4s15.912-16.509,15.912-16.509,20.365,4.227,25.774,9.26c0,0-21.2,8.579-17.9,10.507S692.2-375.26,692.2-375.26s17.427,8.848,12.959,19.768-11.884,12.417-14.577,11.253-17.065-12.449-18.127-10.275,6.429,12.681,13.191,15.165c0,0-17.418,10.28-24.755,3.471s-6.044-13.58-10.655-17.705-9.2-5.543-7.763-2.35,10.414,8.644,11.8,15.035,3,10.92-5.5,6.8-20.977-15.142-19.29-22.817Z" transform="translate(-337.453 -322.867)" fill="#c7daf4"/>
    <path id="Path_4729" data-name="Path 4729" d="M679.527-332.548s-49.379-17.45-64.855-6.586a37.866,37.866,0,0,1-14.293,10.878l-2.162,2.827s11.5-6.442,14.768-6.035C612.985-331.463,613.638-350.674,679.527-332.548Z" transform="translate(-320.954 -348.314)" fill="#c7daf4"/>
    <path id="Path_4730" data-name="Path 4730" d="M581.651-312.081s-13.192,4.6-18.34,18.544l1.893.779s7.979-13.594,15.952-17.4S581.651-312.081,581.651-312.081Z" transform="translate(-302.226 -364.489)" fill="#c7daf4"/>
    <path id="Path_4731" data-name="Path 4731" d="M440.825-546.018s23.671-5.033,19.021-23.281c0,0-4.605-11.745-11.919-16.671,0,0-2.8,24.189-7.266,23.392s5.059-26.729,5.059-26.729S427.655-606.123,419.07-607.9c0,0,6.243,26.4,2.108,24.532s-11.907-29.051-11.907-29.051-20.525-10.8-28.029,1.02-3.862,20.027-.886,21.835,23.761,7.972,22.388,10.493-16.69,2.48-23.735-2.359c0,0,2.006,23.911,13.632,26.344s17.293-3.476,24.45-1.84,11.681,5.1,7.6,5.9-15.516-4.139-22.653-1.094-12.627,4.584-2.809,9.993,29.055,9.909,35.324,3.013Z" transform="translate(-202.162 -201.182)" fill="#c7daf4"/>
    <path id="Path_4732" data-name="Path 4732" d="M405.14-589.63s50.781,35.823,50.888,58.26a44.9,44.9,0,0,0-.719,21.292l-1.253,4.037s-1.656-15.55-4.3-18.433C449.758-524.474,467.906-538.295,405.14-589.63Z" transform="translate(-217.365 -215.83)" fill="#c7daf4"/>
    <path id="Path_4733" data-name="Path 4733" d="M504.8-421.819s4.6,15.93-5.363,30.483l-2.053-1.3s7.681-17.052,5.895-27.383S504.8-421.819,504.8-421.819Z" transform="translate(-266.854 -304.089)" fill="#c7daf4"/>
    <path id="Path_4734" data-name="Path 4734" d="M582.074-537.26S560.117-560.4,578.8-576.749c0,0,13.774-9.321,25.4-9.209,0,0-15.027,28.365-9.576,30.835s14.465-32.815,14.465-32.815,32.18-4.769,42.84-.292c0,0-26.507,24.018-20.616,25.07s34.631-22.66,34.631-22.66,30.358,3.6,29.681,22.043-10.762,24.634-15.346,24.379-31.762-9.089-32.152-5.325,16.278,15.16,27.545,15.16c0,0-20.036,24.477-34.483,18.433S625-527.814,616-531.383s-16.5-3.184-12.663.728,19.953,7.087,25.427,15.726,10.294,14.41-4.412,12.954-38.958-10.938-40.617-23.109Z" transform="translate(-306.495 -215.553)" fill="#d4e3f7"/>
    <path id="Path_4735" data-name="Path 4735" d="M673.951-530.57s-81.911.983-98.784,25.274c0,0-3.388,12.162-15.124,23.67l-1.651,5.316s13.411-15.652,18.435-16.811C576.826-493.121,567.434-521.685,673.951-530.57Z" transform="translate(-299.587 -247.517)" fill="#d4e3f7"/>
    <path id="Path_4736" data-name="Path 4736" d="M542.347-427.606s-16.891,13.867-16.937,37.116l3.2.121s4.392-24.259,14.048-34.145S542.347-427.606,542.347-427.606Z" transform="translate(-281.892 -301.537)" fill="#d4e3f7"/>
    <path id="Path_4737" data-name="Path 4737" d="M1174.869-581.708c1.645,4.5,17.464,8.686,40.939,12.38,4.134.654,8.5,1.293,13.084,1.914,79.9,10.845,298.724,16.9,312.211,13.705,18.637-4.422,55.724-220.469,55.724-220.469s-109.2-2.182-195.923-3.246c-29.668-.359-122.322,1.017-157.969,6.958C1213.7-765.593,1172.209-589.008,1174.869-581.708Z" transform="translate(-630.273 -115.047)" fill="#cce3fd"/>
    <path id="Path_4738" data-name="Path 4738" d="M1212.175-604.14s37.537-142.97,40.249-154.986c1.2-5.356,4.927-7.291,8.676-7.789-6.6-.631-11.4-.678-11.4-.678-12.991,0-24.532,8.69-28.7,21.607-9.089,28.172-27.155,82.3-44.11,135.214C1177.747-610.8,1212.175-604.14,1212.175-604.14Z" transform="translate(-631.422 -120.35)" fill="#d1e3fb"/>
    <path id="Path_4739" data-name="Path 4739" d="M791.84-324.337c6.164,37.134,46.464,60.781,87.8,60.781h81.879L955.171-478.1S877-503.57,857.376-481.147c-17.191,19.652-63.8,97.424-66.259,143.457A61.48,61.48,0,0,0,791.84-324.337Z" transform="translate(-424.4 -269.08)" fill="#cce3fd"/>
    <path id="Path_4740" data-name="Path 4740" d="M792.78-133.291c6.164,37.134,46.464,60.781,87.8,60.781h40.165C893.963-89.575,869.746-142.176,792.78-133.291Z" transform="translate(-425.341 -460.126)" fill="#bad5f4"/>
    <path id="Path_4741" data-name="Path 4741" d="M1058.7-453.394s-110.448-53-131.37-18.382c-11.11,18.386-41.676,91.737-43.933,137.765-2.192,44.731,39.021,74.139,81.411,74.139h75.3Z" transform="translate(-473.911 -272.764)" fill="#b0cbef"/>
    <path id="Path_4742" data-name="Path 4742" d="M988.238-265.767q1.37,1.467,2.8,2.887c11.893,11.759,27.4,21.112,45.143,26.914a135.007,135.007,0,0,0,43.442,6.554l26.687.009h.362l126.322.046,72.41.028h1.071l0-.042L1309-247l22.928-177.81s-317.3-9.585-343.1,10.173c-11.981,9.172-18.78,47.173-22.548,89.049C964.267-303.29,972.772-282.364,988.238-265.767Z" transform="translate(-518.267 -303.012)" fill="#c4daf7"/>
    <path id="Path_4743" data-name="Path 4743" d="M1014-83.1q1.37,1.467,2.8,2.887c11.893,11.759,27.4,21.112,45.143,26.914a135.006,135.006,0,0,0,43.442,6.554l26.687.009h.362l126.322.046,72.41.028,1.075-.042,2.512-17.631c-44.383-11.5-105.794-23.193-169.857-22.284C1103.716-85.751,1052.488-85.862,1014-83.1Z" transform="translate(-544.029 -485.678)" fill="#bad5f4"/>
    <path id="Path_4744" data-name="Path 4744" d="M1370.687-823.385c.542-.552,4.7-3.252,5.821-4.366,0,0-6.568-1.187-8.732-.855a26.275,26.275,0,0,0-4.625,1.966l-7.481.622s4.714-7.787,10.169-10.554c6.391-3.241,19.443-1.53,19.443-1.53s50.835-8.323,79.269-7.615c7.629.19,61.88-8.653,77.508-5.521,8.241,1.651,15.7,2.956,20.5,3.74a5.112,5.112,0,0,0,5.914-4.595l0-.051a136.2,136.2,0,0,1,2.165-15.992l19.082-9.234c3.944,2.094,7.629,4.055,9.58,5.095-.088,1.058-.158,2.094-.19,3.115a55.208,55.208,0,0,0,1.307,14.027,20.859,20.859,0,0,0,15.077,15.46l.093.025c-14.3,12.317-87.084,33.776-88.316,27.483-1.664-8.465-134.549-16.552-134.549-16.552s-8.82.19-11.207,3.713c-1.418,2.093-7.763,2.835-10.373,4.05C1369.811-820.331,1369.426-822.1,1370.687-823.385Z" transform="translate(-727.341 -61.452)" fill="#ffb17d"/>
    <path id="Path_4745" data-name="Path 4745" d="M1222.6-103.48s-14.79,26.673-21.339,29.681c-5.2,2.392-19.286,4.755-27.132,10.795-9.1,7,6.66,6.632,10.122,6.632,0,0,17.631-2.1,25.983-1.923,4.811.107,19.156,1.923,19.156,1.923a18.053,18.053,0,0,0,17.784-21.353c-.019-.1-.037-.209-.06-.311-2.044-10.308-3.634-23.605-3.634-23.605Z" transform="translate(-628.443 -476.658)" fill="#d9ecff"/>
    <path id="Path_4746" data-name="Path 4746" d="M1679.516-806.273c.311,6.935,2.243,14.536,8.422,18.546,9.756,6.328,7.286,22.846,7.226,29.331l41.76-59.8a205.463,205.463,0,0,0-25.431-4.477c-8.431-.925-30.608,1.614-30.608,1.614A58.651,58.651,0,0,0,1679.516-806.273Z" transform="translate(-901.065 -90.689)" fill="#f9ddbe"/>
    <path id="Path_4747" data-name="Path 4747" d="M1363.542-86.615s-14.739,16.236-21.288,19.244c-4.681,2.151-17.279,3.4-24.778,8.848-7.921,5.752-1.854,8.579,2.749,8.579,0,0,21.061,1.678,34.478-2.1,3.657-1.029,13.663,1.02,17.232,1.812a72.4,72.4,0,0,0,9.061.663c8.176-1.043,8.556-8.885,7.782-17.325a45.685,45.685,0,0,0-.672-4.709c-2.044-10.308-3.272-19.893-3.272-19.893Z" transform="translate(-704.79 -483.086)" fill="#fff"/>
    <path id="Path_4748" data-name="Path 4748" d="M1264.61-335.124a47.468,47.468,0,0,0,10,5.279c7.369,2.456,21.112,1.316,21.112,1.316s35.076-68.048,42.483-85.262c7.017-16.319,12.889-52.1,12.889-52.1,5.358-.287,45.431,5.386,80.637,1.576,18.734-2.021,34.571-6.646,39.943-16.106,15.466-27.248-33.95-57.634-33.95-57.634s-96.618,17.418-117.85,32.838C1299.751-490.594,1264.61-335.124,1264.61-335.124Z" transform="translate(-678.486 -243.504)" fill="#f48f4d"/>
    <path id="Path_4749" data-name="Path 4749" d="M1409.97-312.384s7.508,3.935,12.375,4.76c8.839,1.5,18.359-1.46,18.359-1.46s5.395-32.6,27.512-84.757c5.552-13.089,9.005-37.167,9.752-37.5,0,0,116.556-1.72,130.6-28.861,2.276-4.4,4.811-16.815,4.533-20.852-1.469-21.464-29.343-29.751-29.343-29.751s-125.993,22.284-147.619,37.143S1409.97-312.384,1409.97-312.384Z" transform="translate(-756.474 -258.118)" fill="#ffa561"/>
    <path id="Path_4750" data-name="Path 4750" d="M1781.574-752.98a33.845,33.845,0,0,1-.686,4c-1.117,5.439-3.541,15.592-6.744,26.867a302.868,302.868,0,0,1-11.045,32.74c-10.28,24.523-31.85,52.007-39.35,49.741-9.821-2.962-29.227-10.461-64.637-16.588-28.115-4.867-35.753-15.23-43.094-28.333-2.021-3.611,18.247-5.483,33.028-39.54,9.747-22.469,17.84-53.426,17.84-53.426l35.92-35.267c-.176.292-5.668,10.262,7.684,16.057,13.552,5.881,38.441-11.045,38.441-11.045C1748.949-807.652,1782.464-797.066,1781.574-752.98Z" transform="translate(-866.947 -96.104)" fill="#f9ddbe"/>
    <path id="Path_4751" data-name="Path 4751" d="M1816.994-868.137a136.22,136.22,0,0,0-2.164,15.993c16.194-.531,29.019-17.322,29.111-18.38-1.956-1.04-3.921-4.753-7.865-6.847Z" transform="translate(-973.688 -61.452)" fill="#ec985e"/>
    <path id="Path_4752" data-name="Path 4752" d="M1796.176-902.439s34.08-.971,33.144-22.183,2.841-35.622-18.956-35.9-25.663,8-27.072,15.159S1787.291-902.732,1796.176-902.439Z" transform="translate(-956.648 -16.837)" fill="#ffb17d"/>
    <path id="Path_4753" data-name="Path 4753" d="M1819.7-932.883s1.358-7.046-2.461-11.716c0,0,2.5-6.907-.148-8.468s-4.065,4.341-5.228,3.225-6.294-6.366-7.851-13.276-25.2-2.057-28-1.236a3.438,3.438,0,0,1-1.761-.079,7.743,7.743,0,0,1-3.1-13.252c.278-.247.538-.491.774-.73,2.5-2.525,19.9-19.5,39.8-11.254s21.367,18.483,19.031,26.768S1828.545-934.553,1819.7-932.883Z" transform="translate(-948.86)" fill="#2a468b"/>
    <path id="Path_4754" data-name="Path 4754" d="M1812.41-863.37a11.145,11.145,0,0,1-6.823,3.887c-4.607.81-5.617-2.785-5.617-2.785S1804.2-863.664,1812.41-863.37Z" transform="translate(-965.716 -68.942)" fill="#fff"/>
    <path id="Path_4755" data-name="Path 4755" d="M1689.237-682.419s44.216,44.1,49.569,51.27-4.811,31.878-6.586,31.688-21.663-18.159-28.847-33.144-20.393-36.682-20.393-36.682Z" transform="translate(-902.949 -166.047)" fill="#ffb17d"/>
    <path id="Path_4756" data-name="Path 4756" d="M1627.921-706.2l11.856-2.165c3.124-.571,4.315-3.408,2.656-6.336l-13.955-24.663a8.914,8.914,0,0,0-8.663-4.267l-11.851,2.165c-3.129.571-4.32,3.408-2.66,6.335l13.96,24.664A8.909,8.909,0,0,0,1627.921-706.2Z" transform="translate(-860.872 -133.15)" fill="#77a3e4"/>
    <path id="Path_4757" data-name="Path 4757" d="M1645.82-707.174h12.051c3.175,0,4.857-2.576,3.754-5.754l-9.3-26.771a8.916,8.916,0,0,0-7.754-5.755h-12.051c-3.175,0-4.857,2.576-3.754,5.755l9.3,26.771A8.909,8.909,0,0,0,1645.82-707.174Z" transform="translate(-873.681 -132.228)" fill="#f99745"/>
    <path id="Path_4758" data-name="Path 4758" d="M1663.424-682s-9.237-6.082-13.983-8.993-8.644-21.712-6.461-21.4,20.5,8.25,26.623,17.4S1663.424-682,1663.424-682Z" transform="translate(-881.154 -149.963)" fill="#ffb17d"/>
    <path id="Path_4759" data-name="Path 4759" d="M1695.082-695.416s-1.8-6.547-1.455-7.64-3.476-6.655-4.287-8.74-1.863-5.286-2.976-3.845-.8,4.4,0,6.656-1.284,5.769-1.284,5.769l2.6,4.454Z" transform="translate(-904.075 -148.029)" fill="#ffb17d"/>
    <path id="Path_4760" data-name="Path 4760" d="M1889.491-679.427c-1.117,5.439-3.541,15.592-6.744,26.867-19.054,20.291-64.447,44.768-64.447,44.768l39.693-51.846,20.523-23.494S1885.561-683.623,1889.491-679.427Z" transform="translate(-975.55 -165.655)" fill="#f1ccaa"/>
    <path id="Path_4761" data-name="Path 4761" d="M1865.591-733.924s4.755,7.559-8.978,27.43-73.884,77.345-79.886,72.516-13.51-12.324.431-30.78,58.529-81.643,58.529-81.643Z" transform="translate(-949.231 -131.72)" fill="#ffb17d"/>
    <path id="Path_4762" data-name="Path 4762" d="M1835.743-736.523c11.355,6.335,19.7,11.4,37.079,11.356a116.722,116.722,0,0,0,23.869-2.584s13.441-54.657-11.675-65.908c-8.649-3.874-20.783-8.308-20.783-8.308S1815.405-747.867,1835.743-736.523Z" transform="translate(-982.25 -101.907)" fill="#f9ddbe"/>
    <path id="Path_4763" data-name="Path 4763" d="M1499.34-322.909c6.637,36.017,43.072,58.839,80.414,58.839h75.3l-5.891-216.442s-71.84-23.573-89.883-1.149c-15.809,19.652-58.677,97.424-60.934,143.457A65.957,65.957,0,0,0,1499.34-322.909Z" transform="translate(-803.843 -268.566)" fill="#cbdefa"/>
    <path id="Path_4764" data-name="Path 4764" d="M1500.59-129.138C1507.227-93.121,1543.661-70.3,1581-70.3h60.253C1613.054-88.273,1575.081-137.935,1500.59-129.138Z" transform="translate(-805.093 -462.337)" fill="#b9d4fa"/>
    <path id="Path_4765" data-name="Path 4765" d="M1591.933-476.322a66.026,66.026,0,0,0,21.121,35.688v0a82.479,82.479,0,0,0,21.39,13.728,92.558,92.558,0,0,0,31.127,7.754c.561.037,1.122.074,1.687.1.445.023.895.042,1.344.056.746.032,1.492.051,2.243.06.394,0,.788.009,1.191.009h75.3l0-.037,4.347.056c7.749.088,15.846.171,23.355.236l3.722.028c.454,0,.913,0,1.353,0,7.42.051,13.988.07,18.665.042a131.914,131.914,0,0,0,18.623-1.349,87.378,87.378,0,0,0,20.755-5.585q1.689-.7,3.323-1.478c1.112-.533,2.2-1.085,3.272-1.669a65.2,65.2,0,0,0,8.167-5.237,70.635,70.635,0,0,0,17.371-19.179,102.443,102.443,0,0,0,9.024-18.493,168.624,168.624,0,0,0,7.763-28.847c.056-.273.107-.547.158-.825q1.349-7.453,2.345-15.68.452-3.747.834-7.657,1.342-13.821,1.794-29.746.042-1.39.07-2.795l.014-.626q.278-12.667.032-26.687-.1-6.153-.315-12.565-.09-2.92-.208-5.9-.577-14.926-1.655-31.285-.487-7.349-1.066-15-2.405-31.521-6.461-68.251c-3.045-27.834-6.563-47.292-11.675-51.724-7.541-6.537-23.276-9.169-34.224-10.222h-.009c-6.785-.655-11.726-.7-11.726-.7-.245,0-.487,0-.732.009-.171,0-.343.009-.519.018-.412.018-.83.044-1.242.079-.227.018-.463.04-.7.067-.153.013-.3.031-.454.053-.227.026-.459.057-.686.093-.408.057-.807.128-1.21.2-.273.053-.556.111-.83.173a.413.413,0,0,0-.069.013c-.2.045-.4.089-.6.142-.38.089-.755.19-1.126.3-.255.076-.51.151-.76.23l-.528.173a30.553,30.553,0,0,0-5.988,2.782,32.643,32.643,0,0,0-14.108,18.108c-8.741,27.313-24.342,76.142-40.578,127.218-.079.255-.167.51-.246.769q-1.4,4.394-2.8,8.825c-.093.3-.186.593-.283.89-.046.153-.1.3-.144.454-.918-.385-1.863-.788-2.846-1.191a.337.337,0,0,0-.1-.042c-3.893-1.627-8.3-3.4-13.052-5.214h0c-2.466-.936-5.015-1.891-7.652-2.836-7.43-2.679-15.448-5.325-23.577-7.606-3.606-1.015-7.244-1.961-10.85-2.8-4.635-1.08-9.237-1.993-13.724-2.67-.153-.028-.278-.046-.389-.065-.528-.079-1.057-.148-1.581-.222-3.166-.436-6.257-.755-9.251-.927h0c-15.313-.881-27.994,2-33.8,11.624a182.252,182.252,0,0,0-8.375,16.491,524.419,524.419,0,0,0-22.261,58.237c-6.934,22.006-12.389,44.925-13.3,63.441A65.9,65.9,0,0,0,1591.933-476.322Z" transform="translate(-853.351 -113.647)" fill="#b0cbef"/>
    <path id="Path_4766" data-name="Path 4766" d="M1972.545-610.843s38.645-148.035,41.435-160.477c1.242-5.545,5.071-7.549,8.931-8.065-6.79-.653-11.735-.7-11.735-.7-13.371,0-25.255,9-29.547,22.373-9.358,29.171-26.59,82.961-44.049,137.754C1938.461-619.983,1972.545-610.843,1972.545-610.843Z" transform="translate(-1039.546 -113.646)" fill="#cbdefa"/>
    <path id="Path_4767" data-name="Path 4767" d="M2044.459-548.606s-3.42,51.437-13.5,51.66c-4.737.107-8.95-1.747-7.657-19.443,1.1-15.1-.422-37.746,4.848-39.178C2038.091-558.274,2044.932-554.312,2044.459-548.606Z" transform="translate(-1085.413 -233.638)" fill="#e7945b"/>
    <path id="Path_4768" data-name="Path 4768" d="M1838.69-290.908l282.9.844c27.726-13.524,30.479-54.682,11.624-82.931a35.212,35.212,0,0,0-5.937-6.716c-.009,0-.009-.014-.014-.014-9.395-8.375-20.171-10.957-12.162-18.966,4.315-4.315,8.741-8.63,12.162-13.673,5.631-8.315,8.51-18.613,3.555-34.122-11.615-36.356-15.151-78.736-32.935-88.724-.009-.009-.009-.009-.009-.014-19.2-10.762-50-3.142-80.428,2.679,0,0-25.946,4.945-50.469,26.882-11.244,10.053-8.968,46.121-9.056,46.154-.236.125,3.24,15.133-23.563,21.413-14.535,3.4-38.075-16.412-62.236-8.649C1823.131-431,1796.754-339.189,1838.69-290.908Z" transform="translate(-975.283 -242.113)" fill="#ffa561"/>
    <path id="Path_4769" data-name="Path 4769" d="M2229.8-496.494c-18.489,9.993-20.634,43.1-49.546,51.558s-58.8-3.128-86.7,26.952c-12.8,13.789,58.357-114.04,58.357-114.04,30.437-5.821,73.884-13.826,93.081-3.059,0,0,0,0,.009.009C2254.723-524.4,2248.281-506.492,2229.8-496.494Z" transform="translate(-1122.399 -242.247)" fill="#f48f4d"/>
    <path id="Path_4770" data-name="Path 4770" d="M1957.862-89.332s-4.436,11.049-10.127,16.491-14.711,10.591-12.366,13.1,19.559-2.85,25.352-6.906,17.478-3.133,18.7-7.471-10.711-17.969-10.711-17.969Z" transform="translate(-1038.155 -482.769)" fill="#fff"/>
    <path id="Path_4771" data-name="Path 4771" d="M2085.709-113.631s1.506,11.36-.7,18.613-7.328,15.833-4.171,16.824,15.049-11.638,17.983-17.775,13.172-10.887,12.148-15.1-17.478-10-17.478-10Z" transform="translate(-1115.872 -467.221)" fill="#fff"/>
    <path id="Path_4772" data-name="Path 4772" d="M2036.754-392.16s-69.972,15.23-81.457,37.9a18.34,18.34,0,0,0,1.849,18.368c6.938,9.14,18.641-4.389,30.168-3.56,21.334,1.539,113.062,2.456,99.079-24.351S2036.754-392.16,2036.754-392.16Z" transform="translate(-1048.165 -321.776)" fill="#233761"/>
    <path id="Path_4773" data-name="Path 4773" d="M1961.2-296.85l59.312,78.129a12.574,12.574,0,0,0,9.385-1.8c5.261-3.388,6.081-6.985,6.081-6.985s-24.319-79.529-42.946-89.79S1961.2-296.85,1961.2-296.85Z" transform="translate(-1052.219 -360.815)" fill="#233761"/>
    <path id="Path_4774" data-name="Path 4774" d="M2106.068-391.809s-84.205,19.86-90.36,39.118c-6.558,20.5,8.662,18.539,29.992,20.078s103.931-8.987,101.933-39.16C2144.63-417.157,2106.068-391.809,2106.068-391.809Z" transform="translate(-1080.637 -318.178)" fill="#2a468b"/>
    <path id="Path_4775" data-name="Path 4775" d="M1995.649-297l-16.389,92.289s4.12,3.773,11.944,4.746c8.667,1.085,10.628-2.03,10.628-2.03s39.809-72.6,31.772-93.174S1995.649-297,1995.649-297Z" transform="translate(-1061.908 -368.638)" fill="#2a468b"/>
    <path id="Path_4776" data-name="Path 4776" d="M2033.236-593.051c-1.242-5.747,2.531-13.191,12.56-16.481,8.612-2.827,16.671-5.654,27.5-6.271,19.494-1.108,30.859,6.461,43.331,20.75,15.216,17.432,32.2,58.1,39.234,87.325,1.112,4.612-10.3,6.688-14.91,7.828-52.137,12.871-74.333-1.321-76.331-7.133-2.526-7.346-4-19.489-10.1-30.627C2049.05-547.625,2034.909-585.325,2033.236-593.051Z" transform="translate(-1090.744 -201.73)" fill="#fff"/>
    <path id="Path_4777" data-name="Path 4777" d="M2060.28-660.325c.176.822.575,2.984,1.145,5.664.44,2.11.992,4.543,1.636,6.892,1.441,5.307,3.314,10.243,5.362,10.243,18.845,0,20-10.1,19.5-11.476v-.009a58.845,58.845,0,0,1-5.682-14.074,1.73,1.73,0,0,1-.055-.207A68.57,68.57,0,0,1,2080-677.8s-16.092,14.024-19.2,16.951A4,4,0,0,0,2060.28-660.325Z" transform="translate(-1105.377 -168.523)" fill="#ffb17d"/>
    <path id="Path_4778" data-name="Path 4778" d="M2056.77-643.164c.329,1.536.264,3.231.473,5.123.672.023,1.446.035,2.3.012.44,2.11.992,4.543,1.636,6.892a30,30,0,0,0,18.841-14.925c.195-.385.287-.6.287-.6-7.9-.54-16.444.466-21.39,2.438A13.193,13.193,0,0,0,2056.77-643.164Z" transform="translate(-1103.494 -185.155)" fill="#e7945b"/>
    <path id="Path_4779" data-name="Path 4779" d="M2038.843-687.527s1.1.161,2.906.224c.672.023,1.446.035,2.3.012,5.622-.121,14.581-1.455,20.477-8.033.121-.127.232-.259.343-.391.283-.328.556-.672.821-1.029a22.327,22.327,0,0,0,3.439-6.917c6.475-21.234-4.834-34.878-12.954-34.959-13.886-.144-22.168,5.089-25.552,10.844a13.093,13.093,0,0,0-1.293,2.892C2027.256-718.134,2025.458-689.367,2038.843-687.527Z" transform="translate(-1088 -135.893)" fill="#ffb17d"/>
    <path id="Path_4780" data-name="Path 4780" d="M2055.015-655.73s-.709,2.544-7.087,1.887c0,0-5.353-.551-5.071-3.367C2042.857-657.21,2048.141-659.006,2055.015-655.73Z" transform="translate(-1096.023 -179.309)" fill="#fff"/>
    <path id="Path_4781" data-name="Path 4781" d="M2061.25-716.166s1.845-8.429,1.02-12.723c0,0,5.256-8.546,1.451-10.079s-5.209,3.329-6.136,2.511-3.963-16.087-8.259-15.1-19.837,7.808-27.591,2.523,6.665-31.026,36.745-25.143S2086.3-735.346,2061.25-716.166Z" transform="translate(-1083.586 -116.349)" fill="#2b3a64"/>
    <path id="Path_4782" data-name="Path 4782" d="M2134.938-757.153s.871-4.072-.862-6.712c0,0,.371,3.866-.95,5.756S2134.938-757.153,2134.938-757.153Z" transform="translate(-1144.286 -122.35)" fill="#2b3a64"/>
    <path id="Path_4783" data-name="Path 4783" d="M2135.44-755.295s3.541-.816,5.552,1.752a4.646,4.646,0,0,0-5.075.683Z" transform="translate(-1145.701 -126.882)" fill="#2b3a64"/>
    <path id="Path_4784" data-name="Path 4784" d="M2229.273-407.64s-15.068,29.236-50.886,42.191c-39.238,14.187-35.809,23.258-57.082,27.568-11.647,2.364,75.854,37.885,77.054,36.189s49.037-42.534,49.037-42.534Z" transform="translate(-1137.545 -313.471)" fill="#ffa561"/>
    <path id="Path_4785" data-name="Path 4785" d="M2031.821-594.86s-11.735,8.649-12.43,26.729c0,0,.844,7.671,16.055,8.041S2031.821-594.86,2031.821-594.86Z" transform="translate(-1083.439 -213.024)" fill="#fff"/>
    <path id="Path_4786" data-name="Path 4786" d="M1994.108-444.353c-9.149,1.664-18.159,4.106-36.9,1.237v-5.548s33.371-13.928,38.705-11.221c2.9,1.469,3.916,4.051,4.1,8.092A7.221,7.221,0,0,1,1994.108-444.353Z" transform="translate(-1050.078 -285.254)" fill="#e7945b"/>
    <path id="Path_4787" data-name="Path 4787" d="M2101.281-565.542s-9.154,56.156-22.02,64.8-46.251,5.112-46.251,5.112l1.678-6.466s34.01-9.766,35.16-13.432,3.217-52.675,10.118-55.354S2098.3-571.669,2101.281-565.542Z" transform="translate(-1090.746 -225.253)" fill="#ffb17d"/>
    <path id="Path_4788" data-name="Path 4788" d="M2123.309-603.52s14.8-.162,20.685,9.418-1.493,27.971-1.493,27.971-22.812,3.893-32.852-9.372C2109.65-575.5,2111.889-599.919,2123.309-603.52Z" transform="translate(-1131.865 -208.378)" fill="#fff"/>
    <path id="Path_4789" data-name="Path 4789" d="M2359.541-232.455c16.486-.76,36.972-10.98,53.56,1.224-9.4-8.375-20.171-10.957-12.162-18.966,4.315-4.315,8.741-8.63,12.162-13.673,0,0-21.876,11.7-42.131,16.194S2343.054-231.69,2359.541-232.455Z" transform="translate(-1261.125 -390.606)" fill="#f48f4d"/>
    <path id="Path_4790" data-name="Path 4790" d="M1970.857-426.984l9.756-1.784c2.572-.468,3.555-2.8,2.192-5.214l-11.494-20.305a7.336,7.336,0,0,0-7.133-3.518l-9.756,1.784c-2.572.473-3.555,2.809-2.192,5.219l11.494,20.305A7.344,7.344,0,0,0,1970.857-426.984Z" transform="translate(-1047.076 -286.512)" fill="#b4453c"/>
    <path id="Path_4791" data-name="Path 4791" d="M1985.594-427.783h9.918c2.619,0,4-2.118,3.091-4.737l-7.657-22.043a7.341,7.341,0,0,0-6.382-4.737h-9.918c-2.619,0-4,2.123-3.091,4.737l7.652,22.043A7.34,7.34,0,0,0,1985.594-427.783Z" transform="translate(-1057.624 -285.754)" fill="#f9ddbe"/>
    <path id="Path_4792" data-name="Path 4792" d="M2030.678-429.57s-.867-2.243-5-2.809c-1.279-.181-3.42-2.545-5.46-2.878s.111,5.006,1.488,5.687,4.454,2.063,4.681,1.757A35.942,35.942,0,0,1,2030.678-429.57Z" transform="translate(-1083.436 -298.646)" fill="#ffb17d"/>
    <path id="Path_4793" data-name="Path 4793" d="M2020.783-416.181s-6.5,2.076-11.017,1.089S1998.2-422,2000.13-423.3c1.641-1.108,7.522,0,10.248-.5s4.871-1.428,5.909.2S2020.783-416.181,2020.783-416.181Z" transform="translate(-1072.929 -304.415)" fill="#ffb17d"/>
    <path id="Path_4794" data-name="Path 4794" d="M1953.317-434.441c.209,2.2,1.4,6.517,2.962,6.869,1.423.32,4.38-2.35,5.066-4.171,1.719-4.565-1.122-5.247-3.634-5.247C1955.667-436.99,1952.984-438.056,1953.317-434.441Z" transform="translate(-1047.974 -297.646)" fill="#e7945b"/>
    <path id="Path_4795" data-name="Path 4795" d="M344.794-310.262,24.92-308.524c-29.156-14.22-32.052-57.5-12.226-87.209a37.091,37.091,0,0,1,6.246-7.059c.006-.009.006-.014.012-.014,9.88-8.811,21.211-11.527,12.788-19.948-4.535-4.533-9.19-9.075-12.788-14.377C13.033-445.873,10-456.7,15.216-473.01c12.214-38.233,15.932-82.8,34.634-93.3.006,0,.006,0,.006-.014,20.189-11.318,52.579-3.3,84.577,2.818,0,0,27.288,5.2,53.076,28.268,11.821,10.567,9.426,48.5,9.523,48.536.247.13-3.41,15.911,24.778,22.516,15.286,3.578,40.04-17.255,65.447-9.094C338.768-456.732,356.918-338.665,344.794-310.262Z" transform="translate(0 -225.275)" fill="#ffa561"/>
    <path id="Path_4796" data-name="Path 4796" d="M120.423-534.257c19.439,10.507-13.5,52.925,40.506,79.209,49.571,24.129,101.532-8.278,119.538-3.24,19.048,5.335-80.036-104.678-80.036-104.678-32-6.123-77.694-14.539-97.882-3.217,0,0,0,0-.006.009C92.314-554.942,100.984-544.769,120.423-534.257Z" transform="translate(-52.694 -225.416)" fill="#f48f4d"/>
    <path id="Path_4797" data-name="Path 4797" d="M97.214-247.943c-17.335-.8-38.878-11.55-56.323,1.288,9.88-8.811,21.211-11.527,12.788-19.948-4.535-4.533-9.19-9.075-12.788-14.377,0,0,23.007,12.305,44.3,17.033S114.549-247.137,97.214-247.943Z" transform="translate(-21.939 -381.426)" fill="#f48f4d"/>
    <path id="Path_4798" data-name="Path 4798" d="M220.851-954.094c-.47-1.106-5.967-12.866-24.628-6.448,0,0,9.471-2.387,12.56,1,0,0-8.051-2.559-12.467.945s-4,13.433-2.92,16.338,7.439,11.168,10.93,10.741A10.418,10.418,0,0,0,208.188-933a46.563,46.563,0,0,0-.784,5.363c-1.574,17.9,11.648,29.744,17.247,25.733,3.591-2.572,7.326,3.805,7.326,3.805l26.756-46.225S233.215-968.334,220.851-954.094Z" transform="translate(-103.376 -15.806)" fill="#2b3a64"/>
    <path id="Path_4799" data-name="Path 4799" d="M312.163-775.312c-25.341,11.326-44.392-28.651-42.738-29.06,2.534-2.866,5.146-13.077,3.29-27.775l1.314.091,22.038,1.631s.343,6.837,1.1,13.213c.5,4.192,1.193,8.188,2.087,9.932.264.515,5.039,1.206,5.051,1.217C304.679-805.657,318.924-778.331,312.163-775.312Z" transform="translate(-144.498 -85.715)" fill="#ffb17d"/>
    <path id="Path_4800" data-name="Path 4800" d="M659.08-30.9H614.67s-1.064-6.767,1.255-11.9c2.225-4.927,3.643-6.28,1.228-11.976,2.823,2.906,11.063,5.006,17.483,4.144.788,1.275,5.08,8.1,7.708,9.988C645.245-38.563,658.185-39.309,659.08-30.9Z" transform="translate(-329.651 -502.787)" fill="#fff"/>
    <path id="Path_4801" data-name="Path 4801" d="M490.363-33.963h-44.41s-1.065-6.767,1.255-11.9c2.223-4.927,6.553-8.222,7.826-13.9,2.822,2.906,4.466,6.934,10.886,6.072.787,1.275,5.078,8.1,7.705,9.988C476.528-41.625,489.469-42.366,490.363-33.963Z" transform="translate(-239.131 -500.109)" fill="#fff"/>
    <path id="Path_4802" data-name="Path 4802" d="M458.1-761.27l4.769,6.621s-2.086,1.8-5.409,4.645c-1.008.847-1.615,1.305-1.615,1.305-2.687,2.257-5.992,4.88-9.582,7.754l-.041.051c-6.264,4.82-13.4,10.126-19.871,14.225-.586.363-1.166.718-1.735,1.06a58.994,58.994,0,0,1-10.5,5.183,7.667,7.667,0,0,1-1.018.286c-8.588,2.31-25.918-.7-42.917-5.889-2.348-.711-4.662-1.472-6.922-2.2a168.02,168.02,0,0,1-22.59-9.231,66.3,66.3,0,0,1-9.7-5.7,26.828,26.828,0,0,1-2.476-1.923c-13.8-11.3-7.31-22.27-4.688-22.286,3.274-.04,7.868.825,13.177,2.186,8.371,2.257,18.681,5.843,28.787,9.578,5.554,2.032,11.068,4.115,16.244,5.925,3.1,1.156,6.05,2.2,8.773,3.132a85.015,85.015,0,0,0,12.575,3.519c1.962.316,5.6-.376,10.067-1.6,1.185-.319,2.434-.683,3.732-1.072,7.2-2.184,15.836-5.387,23.341-8.368,3.7-1.442,7.133-2.857,9.982-4.036C455.086-759.988,458.1-761.27,458.1-761.27Z" transform="translate(-171.669 -120.47)" fill="#ffb17d"/>
    <path id="Path_4803" data-name="Path 4803" d="M208.3-468.177s-9.964,31.058,12.271,45.787c29.793,19.74,112.4,2.915,121.826,13,2.388,2.554-4.832,3.847-8.905,40.346-5.858,52.489-10.6,81.851-10.6,81.851a13.555,13.555,0,0,0,7.275,9.1c4.1,2.03,9.307.774,9.307.774S400.14-410.534,394.1-429.013c-10.466-32.008-68.413-28.866-135.58-47.78C217.5-488.343,208.3-468.177,208.3-468.177Z" transform="translate(-110.561 -274.453)" fill="#233761"/>
    <path id="Path_4804" data-name="Path 4804" d="M237.549-461.861c29.5-2.725,109.981-4.111,127.387,7.847,21.423,14.72,50.539,183.029,50.539,183.029s-2.238,1.78-7.109,2.257c-4.528.445-14.368-2.456-14.368-2.456s-47.859-75.8-50.736-94.768-1.4-35.832-9.493-36.4S214.441-390.1,204.946-420.546c-7.418-23.781,1.472-46.784,1.472-46.784S210.339-459.344,237.549-461.861Z" transform="translate(-108.372 -281.446)" fill="#2a468b"/>
    <path id="Path_4805" data-name="Path 4805" d="M290.815-724.822c1.825,6.686,3.325,12.67,4.061,16.708,3.395,18.6,6.373,75.35,6.373,75.35-30.126,46.5-113.985,32.518-113.985,32.518-1.848-17.631,5.231-56.841,9.53-91.728,1.054-8.551,1.941-16.836,2.491-24.483a154.006,154.006,0,0,1,2.271-17.855c7.149-37.286,25.538-41.383,25.538-41.383,8.6,16.7,35.728,21.192,35.728,21.192.336-9.4-2.705-21.366-2.705-21.366,3.435.411,14.877,2.144,18.151,3.343,3.864,1.419,35.982,16.065,35.982,16.065S315.281-732.863,290.815-724.822Z" transform="translate(-100.309 -115.91)" fill="#f9ddbe"/>
    <path id="Path_4806" data-name="Path 4806" d="M301.515-830.311s.338,6.832,1.1,13.213c-12.083,1.133-19.79-9.074-23.142-14.844Z" transform="translate(-149.944 -85.825)" fill="#ec985e"/>
    <path id="Path_4807" data-name="Path 4807" d="M299.091-871.024s-28.432,3.953-30.621-13.792S261.137-914,279.2-917.273s22.43,3.061,24.6,8.806S306.43-872.509,299.091-871.024Z" transform="translate(-142.76 -39.563)" fill="#ffb17d"/>
    <path id="Path_4808" data-name="Path 4808" d="M292.49-922c-5.057-4.8-8.241-3.222-9.91-1.389-16.619-6.658-25.105,7.226-25.105,7.226a34.152,34.152,0,0,1-8.64,21.383s5.585,2.573,17.18-1.969c3.541-1.388,6.489-4.385,8.878-7.877a66.966,66.966,0,0,1-9.731,15.37c13.491-8.358,16.8-28.948,17.117-31.12,1.93,1.349,5.773,4.323,7.225,7.52,1.973,4.346,3.749,13.57,6.421,12.922C295.926-899.935,300.073-914.8,292.49-922Z" transform="translate(-133.504 -35.792)" fill="#2b3a64"/>
    <path id="Path_4809" data-name="Path 4809" d="M618-771.958a25.248,25.248,0,0,0,3.62-4.026c1.335-2,1.868-4,4.408-5.74s5.339-6.274,5.737-5.473-1.334,5.74-1.2,6.274,7.207,2.063,9.877,1.3,9.344-2.9,9.214-1.566-7.212,8.811-9.478,10.146-9.08.934-11.749,1.869a19.716,19.716,0,0,0-5.659,3.839Z" transform="translate(-331.568 -109.781)" fill="#ffb17d"/>
    <path id="Path_4810" data-name="Path 4810" d="M655.77-774.49s6.938-5.607,9.965-4.895l-4.982,4.895Z" transform="translate(-351.832 -113.989)" fill="#ffb17d"/>
    <path id="Path_4811" data-name="Path 4811" d="M668.82-764.6l10.5-7.031a6.541,6.541,0,0,0-4.069,0C673.116-770.892,668.82-764.6,668.82-764.6Z" transform="translate(-358.834 -118.011)" fill="#ffb17d"/>
    <path id="Path_4812" data-name="Path 4812" d="M242.61-602.231c-.487-.269-32.945-9.988-34.435-41.727,1.054-8.551,1.941-16.836,2.491-24.483a154.006,154.006,0,0,1,2.271-17.855c5.2-.805,11.442,4.791,14.24,13.1C232.936-656.1,242.459-602.94,242.61-602.231Z" transform="translate(-111.69 -163.926)" fill="#f1ccaa"/>
    <path id="Path_4813" data-name="Path 4813" d="M257.729-623.1a8.365,8.365,0,0,1-.863-.76c-7.181-6.442-14.7-23.985-20.034-42.515-.742-2.554-1.42-5.112-2.1-7.592a182.314,182.314,0,0,1-4.969-26.008,71.943,71.943,0,0,1-.553-12.2,29.114,29.114,0,0,1,.285-3.39c2.113-19.235,15.929-19.823,17.5-17.449,1.973,2.955,3.9,7.644,5.808,13.278,2.9,8.949,5.737,20.447,8.319,31.848,1.438,6.253,9.2,43.044,10.559,46.066C272.551-639.848,260.384-621.007,257.729-623.1Z" transform="translate(-122.934 -138.378)" fill="#ffb17d"/>
    <path id="Path_4814" data-name="Path 4814" d="M238.9-745.5s-13.436,6.525-18.126,15.459-5.266,37.454,2,74.531c0,0,21.894-1.441,36.206-20.416C258.979-675.925,253.664-750.86,238.9-745.5Z" transform="translate(-116.573 -132.056)" fill="#f9ddbe"/>
    <path id="Path_4815" data-name="Path 4815" d="M270.147-788.142s-4.9,3.047-4.91,7.569c0,0,5.787,15.814,39.58,19.486C304.817-761.087,273.715-776.383,270.147-788.142Z" transform="translate(-142.304 -109.325)" fill="#f1ccaa"/>
    <path id="Path_4816" data-name="Path 4816" d="M331.905-784.379s8.525,15.662,8.281,23.292c0,0,.579-17.339-.628-21.366s-8.4-5.689-8.4-5.689Z" transform="translate(-177.674 -109.325)" fill="#f1ccaa"/>
    <path id="Path_4817" data-name="Path 4817" d="M319.245-839.056c.29,0,2.993,2.414,6.566,1.738s3.54-3.476,3.54-3.476a15.966,15.966,0,0,0-4.582,0A37.484,37.484,0,0,0,319.245-839.056Z" transform="translate(-171.281 -80.984)" fill="#fff"/>
    <path id="Path_4818" data-name="Path 4818" d="M442.38-542.54l-9.758-1.78c-2.574-.473-3.555-2.809-2.19-5.219l11.493-20.305a7.333,7.333,0,0,1,7.131-3.513l9.758,1.784c2.574.468,3.555,2.8,2.19,5.214l-11.493,20.305A7.333,7.333,0,0,1,442.38-542.54Z" transform="translate(-230.604 -224.516)" fill="#77a3e4"/>
    <path id="Path_4819" data-name="Path 4819" d="M432.5-543.333h-9.919c-2.617,0-4-2.123-3.092-4.741l7.657-22.039a7.333,7.333,0,0,1,6.384-4.737h9.919c2.617,0,4,2.118,3.092,4.737l-7.657,22.039A7.337,7.337,0,0,1,432.5-543.333Z" transform="translate(-224.913 -223.76)" fill="#f99745"/>
    <path id="Path_4820" data-name="Path 4820" d="M410.349-535.5s9.366-7.522,12.915-7.819,12.248,1.492,11.432,4.051-4.843,4.046-9.091,6.3-5.985,4.8-9.38,5.511a39.456,39.456,0,0,1-7.229.7Z" transform="translate(-219.433 -240.66)" fill="#ffb17d"/>
    <path id="Path_4821" data-name="Path 4821" d="M411.916-536.6s5.353-5.844,6.518-8.477a.564.564,0,0,1,.856-.209c.8.607,1.839,1.97.085,4.352C416.85-537.5,411.916-536.6,411.916-536.6Z" transform="translate(-221 -239.559)" fill="#ffb17d"/>
    <path id="Path_4822" data-name="Path 4822" d="M290.238-520c.986-.088,29.156,3.689,54.767-5.942l1.354-8.741s-26.33-.348-43.433-6.289S290.238-520,290.238-520Z" transform="translate(-155.443 -241.477)" fill="#ffb17d"/>
    <path id="Path_4823" data-name="Path 4823" d="M987.253-631.341s20.25,30.725,22,52.022c0,0-2.795,6.285-9.427,2.443s-18.5-20.25-18.5-20.25Z" transform="translate(-526.496 -193.451)" fill="#ffb17d"/>
    <path id="Path_4824" data-name="Path 4824" d="M914.512-322.439c-.38,3.458-.051,8.718.728,14.91,3.059,24.527,13.056,63.7,13.056,63.7l12.519,1.52c-.913-6.929,1.692-33.454,5.154-62.853,5.219-44.351,12.394-95.232,12.394-95.232s-27.253-22.525-43.317-16.305S916.4-339.629,914.512-322.439Z" transform="translate(-487.255 -308.029)" fill="#ec975c"/>
    <path id="Path_4825" data-name="Path 4825" d="M923.41-179.9c3.059,24.527,13.056,63.7,13.056,63.7l12.519,1.52c-.913-6.929,1.692-33.454,5.154-62.853-4.459.783-16.546,2.341-26.66-1.469A12.746,12.746,0,0,0,923.41-179.9Z" transform="translate(-495.426 -435.657)" fill="#deebfd"/>
    <path id="Path_4826" data-name="Path 4826" d="M947.161-774.7a18.2,18.2,0,0,1,14.006,0c7.406,3.168,12.8,16.656,9.483,29.255s7.884,12.811,2.7,22.914c-1.84,3.584-26.187,6.632-27.016-7.323-.519-8.645,7.309-9.072,5.029-18.467S947.161-774.7,947.161-774.7Z" transform="translate(-507.71 -115.78)" fill="#2b3a64"/>
    <path id="Path_4827" data-name="Path 4827" d="M870.256-327.571c-.737,4.236-.538,11.337.171,19.619,2.127,25,8.922,60.744,8.922,60.744l12.384,2.86c-.473-6.836,3.573-32.569,8.676-61.356,7.935-44.777,18.419-96.965,18.419-96.965s-25.821-24.166-42.233-18.938S873.189-344.609,870.256-327.571Z" transform="translate(-465.761 -305.58)" fill="#ffb17d"/>
    <path id="Path_4828" data-name="Path 4828" d="M956.874-46.645s2.976,5.46,8.644,6.73a14.158,14.158,0,0,1,8.51,5.3,3.33,3.33,0,0,1-2.707,5.288l-28.8-.167a4.14,4.14,0,0,1-4.1-4.579c.227-2.132.464-4.616.575-6.521.236-4.157,4.741-7.893,4.741-7.893s3.953,2.266,5.478,2.535C952.536-45.375,956.874-46.645,956.874-46.645Z" transform="translate(-503.468 -506.161)" fill="#202d4b"/>
    <path id="Path_4829" data-name="Path 4829" d="M922.632-784.056c-.2-.335-8.625-13.653-24.37-16.31-12.755-2.152-24.69,6.858-26.655,19.643-1.97,12.847.042,29.495,21,35.492Z" transform="translate(-467.316 -102.595)" fill="#2b3a64"/>
    <path id="Path_4830" data-name="Path 4830" d="M939.674-678.861l-23.721,14.089-5.993-16.7a52.3,52.3,0,0,0,3.55-15.816,64.859,64.859,0,0,0-.385-14.033l20.63,8.959a37.326,37.326,0,0,0-.505,4.623,33.228,33.228,0,0,0,1.024,10.667A14.821,14.821,0,0,0,939.674-678.861Z" transform="translate(-488.21 -150.542)" fill="#ffb17d"/>
    <path id="Path_4831" data-name="Path 4831" d="M938.364-671.349c-11.379.419-20.764-10.215-20.764-10.215l19.74-.452A33.355,33.355,0,0,0,938.364-671.349Z" transform="translate(-492.309 -166.263)" fill="#ec975c"/>
    <path id="Path_4832" data-name="Path 4832" d="M932.208-726.677s-22.275,7.424-31.239-10.1c-9.673-18.907-1.321-33.663,6.313-35.108,15.221-2.881,24.509,2.4,27.6,8.414S944.509-730.661,932.208-726.677Z" transform="translate(-481.045 -117.615)" fill="#ffb17d"/>
    <path id="Path_4833" data-name="Path 4833" d="M952.65-698.117s1.094,2.277,6.989.585c0,0,4.95-1.42,4.213-4.026C963.852-701.558,958.569-702.36,952.65-698.117Z" transform="translate(-511.114 -155.746)" fill="#fff"/>
    <path id="Path_4834" data-name="Path 4834" d="M932.3-454.85c-26.8,9.14-74.352-3.578-80.79-9.728-.324-.306.691-14.2,2.248-32.031,2.183-25.014,5.437-57.792,7.522-71.8.023-.19.051-.38.079-.565a47.888,47.888,0,0,0,.477-9.705c-.074-1.307-.195-2.614-.375-3.912l-4.88-36-1.534-11.3a13.338,13.338,0,0,1,8.074-14.084c5.07-2.117,8.788-2.608,15.174-3.937,3.967,3.581,11.684,8.728,19.842,7.135,6.137-1.2,7.337-4.51,7.008-8.031,1.553.157,3,.324,4.324.513a18.015,18.015,0,0,1,15.365,15.016C929.417-604.666,937.1-456.486,932.3-454.85Z" transform="translate(-456.818 -184.081)" fill="#fff"/>
    <path id="Path_4835" data-name="Path 4835" d="M911.258-777.3s2.113,20.9-17.714,28.3c-7.884,2.944-11.986-28.975,4.487-35.348s32.717,1.2,34.659,12.337.464,13.465.464,13.465S925.44-779.743,911.258-777.3Z" transform="translate(-475.705 -110.111)" fill="#2b3a64"/>
    <path id="Path_4836" data-name="Path 4836" d="M1000.449-631.285l10.312,17.638s-1.326,8.186-9.042,9S1000.449-631.285,1000.449-631.285Z" transform="translate(-535.405 -193.481)" fill="#fff"/>
    <path id="Path_4837" data-name="Path 4837" d="M854.733-774.526a16.364,16.364,0,0,0-14.011,0c-7.406,3.567-12.8,18.755-9.483,32.941s-7.879,14.425-2.693,25.8c1.835,4.035,26.187,7.467,27.016-8.245.514-9.734-7.314-10.216-5.033-20.795S854.733-774.526,854.733-774.526Z" transform="translate(-443.782 -115.779)" fill="#2b3a64"/>
    <path id="Path_4838" data-name="Path 4838" d="M873.1-175.53c2.127,25,8.922,60.744,8.922,60.744l12.384,2.86c-.473-6.836,3.573-32.569,8.676-61.356C896.473-172.592,884.307-172.063,873.1-175.53Z" transform="translate(-468.434 -438.002)" fill="#fff"/>
    <path id="Path_4839" data-name="Path 4839" d="M898.438-46.645s2.976,5.46,8.644,6.73a14.185,14.185,0,0,1,8.51,5.3,3.332,3.332,0,0,1-2.707,5.288L884.08-29.5a4.142,4.142,0,0,1-4.1-4.579c.227-2.132.468-4.616.575-6.521.236-4.157,4.741-7.893,4.741-7.893s3.953,2.266,5.478,2.535C894.1-45.375,898.438-46.645,898.438-46.645Z" transform="translate(-472.114 -506.161)" fill="#2b3a64"/>
    <path id="Path_4840" data-name="Path 4840" d="M1019.988-503.908l-13.084-1.455a4.192,4.192,0,0,1-3.694-4.621l2.8-25.232a4.2,4.2,0,0,1,4.621-3.694l13.089,1.451a4.2,4.2,0,0,1,3.694,4.621l-2.8,25.232A4.2,4.2,0,0,1,1019.988-503.908Z" transform="translate(-538.226 -243.028)" fill="#b4453c"/>
    <path id="Path_4841" data-name="Path 4841" d="M969.55-495.854a8.382,8.382,0,0,1,1.534-2.192c.723-.556,1.247-1.965,1.539-1.377s-.26,2.063-.26,2.063Z" transform="translate(-520.181 -264.152)" fill="#ffb17d"/>
    <path id="Path_4842" data-name="Path 4842" d="M993-497.479l-12.927,2.5a4.193,4.193,0,0,1-4.9-3.314l-4.82-24.926a4.2,4.2,0,0,1,3.314-4.9l12.931-2.5a4.193,4.193,0,0,1,4.9,3.314l4.816,24.926A4.193,4.193,0,0,1,993-497.479Z" transform="translate(-520.571 -247.451)" fill="#b0d4ff"/>
    <path id="Path_4843" data-name="Path 4843" d="M967-495.732s5.237-3.838,8.556-4.885,3.555.844,3.272,2.66c-.394,2.531-2.572,4.454-3.972,6.155s-3.666,2.748-5.237,1.7S967-495.732,967-495.732Z" transform="translate(-518.813 -263.426)" fill="#ffb17d"/>
    <path id="Path_4844" data-name="Path 4844" d="M1046.7-519.593s-6.285-2.925-7.592.218,4.844,9.3,7.068,7.986S1048.273-519.069,1046.7-519.593Z" transform="translate(-557.404 -252.742)" fill="#ffb17d"/>
    <path id="Path_4845" data-name="Path 4845" d="M858.475-606.11s-.524,37.009,1.919,49.926,51.762,10.039,51.762,10.039l-1.571-6.549s-30.771-11.286-31.336-12.741c-2.966-7.68-.871-25.486-1.219-30.372S858.475-606.11,858.475-606.11Z" transform="translate(-460.562 -206.988)" fill="#ffb17d"/>
    <path id="Path_4846" data-name="Path 4846" d="M855.51-620.23s-3.272,8.639-4.32,25.923c0,0,7.856,4.714,24.087,4.19s-3.142-24.616-3.142-24.616Z" transform="translate(-456.679 -199.413)" fill="#fff"/>
    <path id="Path_4847" data-name="Path 4847" d="M1112.812-233.687H790.924a9.724,9.724,0,0,1-9.724-9.719,9.725,9.725,0,0,1,9.724-9.724h321.888a9.725,9.725,0,0,1,9.724,9.724A9.724,9.724,0,0,1,1112.812-233.687Z" transform="translate(-419.128 -396.368)" fill="#2b3a64"/>
    <path id="Path_4848" data-name="Path 4848" d="M1438.931-213.51H1423.27l23.142,93.447a2.574,2.574,0,0,0,2.508,1.956,1.714,1.714,0,0,0,1.692-1.923Z" transform="translate(-763.61 -417.625)" fill="#2b3a64"/>
    <path id="Path_4849" data-name="Path 4849" d="M837.175-213.51h15.661l-23.142,93.447a2.573,2.573,0,0,1-2.507,1.956,1.714,1.714,0,0,1-1.692-1.923Z" transform="translate(-442.886 -417.625)" fill="#2b3a64"/>
    <path id="Path_4850" data-name="Path 4850" d="M849.96-118.918h283v-4.862h-283Z" transform="translate(-456.019 -465.767)" fill="#2b3a64"/>
    <path id="Path_4851" data-name="Path 4851" d="M1131.283-319.615H897.035a2.416,2.416,0,0,1-2.415-2.415v-.816a2.416,2.416,0,0,1,2.415-2.415h234.249a2.413,2.413,0,0,1,2.415,2.415v.816A2.413,2.413,0,0,1,1131.283-319.615Z" transform="translate(-479.979 -357.669)" fill="#f1ccaa"/>
    <path id="Path_4852" data-name="Path 4852" d="M981.475-349.763H972.4l1.715-21.167h5.543Z" transform="translate(-521.71 -333.166)" fill="#e7945b"/>
    <path id="Path_4853" data-name="Path 4853" d="M978.27-372.422h3.481v-1.288H978.27Z" transform="translate(-524.859 -331.675)" fill="#e7945b"/>
    <path id="Path_4854" data-name="Path 4854" d="M976.23-381.339a2.72,2.72,0,0,1,2.725-2.721,2.719,2.719,0,0,1,2.721,2.721,2.722,2.722,0,0,1-2.721,2.721A2.723,2.723,0,0,1,976.23-381.339Z" transform="translate(-523.765 -326.122)" fill="#e7945b"/>
    <path id="Path_4855" data-name="Path 4855" d="M1181.925-349.763h-9.075l1.715-21.167h5.543Z" transform="translate(-629.255 -333.166)" fill="#2b3a64"/>
    <path id="Path_4856" data-name="Path 4856" d="M1178.73-372.422h3.476v-1.288h-3.476Z" transform="translate(-632.41 -331.675)" fill="#2b3a64"/>
    <path id="Path_4857" data-name="Path 4857" d="M1176.69-381.339a2.719,2.719,0,0,1,2.721-2.721,2.719,2.719,0,0,1,2.721,2.721,2.722,2.722,0,0,1-2.721,2.721A2.722,2.722,0,0,1,1176.69-381.339Z" transform="translate(-631.315 -326.122)" fill="#2b3a64"/>
    <path id="Path_4858" data-name="Path 4858" d="M1086.77-349.763h-9.07l1.71-21.167h5.548Z" transform="translate(-578.205 -333.166)" fill="#fff"/>
    <path id="Path_4859" data-name="Path 4859" d="M1083.57-372.422h3.476v-1.288h-3.476Z" transform="translate(-581.354 -331.675)" fill="#fff"/>
    <path id="Path_4860" data-name="Path 4860" d="M1081.53-381.339a2.719,2.719,0,0,1,2.721-2.721,2.72,2.72,0,0,1,2.725,2.721,2.723,2.723,0,0,1-2.725,2.721A2.722,2.722,0,0,1,1081.53-381.339Z" transform="translate(-580.26 -326.122)" fill="#fff"/>
    <path id="Path_4861" data-name="Path 4861" d="M1237.34-337.2h10.424V-347.63H1237.34Z" transform="translate(-663.855 -345.667)" fill="#afccfa"/>
    <path id="Path_4862" data-name="Path 4862" d="M1223.77-337.2h10.424V-347.63H1223.77Z" transform="translate(-656.574 -345.667)" fill="#fff"/>
    <path id="Path_4863" data-name="Path 4863" d="M1233.33-337.271a.781.781,0,0,1,.783-.779.777.777,0,0,1,.779.779.778.778,0,0,1-.779.783A.782.782,0,0,1,1233.33-337.271Z" transform="translate(-661.703 -350.807)" fill="#2e3452"/>
    <path id="Path_4864" data-name="Path 4864" d="M1226.3-344.411a.778.778,0,0,1,.783-.779.777.777,0,0,1,.779.779.781.781,0,0,1-.779.783A.782.782,0,0,1,1226.3-344.411Z" transform="translate(-657.932 -346.976)" fill="#2e3452"/>
    <path id="Path_4865" data-name="Path 4865" d="M1240.36-344.411a.781.781,0,0,1,.783-.779.781.781,0,0,1,.783.779.785.785,0,0,1-.783.783A.785.785,0,0,1,1240.36-344.411Z" transform="translate(-665.475 -346.976)" fill="#2e3452"/>
    <path id="Path_4866" data-name="Path 4866" d="M1226.3-329.917a.782.782,0,0,1,.783-.783.781.781,0,0,1,.779.783.781.781,0,0,1-.779.783A.782.782,0,0,1,1226.3-329.917Z" transform="translate(-657.932 -354.751)" fill="#2e3452"/>
    <path id="Path_4867" data-name="Path 4867" d="M1240.36-329.917a.785.785,0,0,1,.783-.783.785.785,0,0,1,.783.783.785.785,0,0,1-.783.783A.785.785,0,0,1,1240.36-329.917Z" transform="translate(-665.475 -354.751)" fill="#2e3452"/>
    <path id="Path_4868" data-name="Path 4868" d="M1248.15-344.411c0-.431.208-.779.463-.779s.468.348.468.779-.209.783-.468.783S1248.15-343.98,1248.15-344.411Z" transform="translate(-669.655 -346.976)" fill="#2e3452"/>
    <path id="Path_4869" data-name="Path 4869" d="M1256.54-344.411c0-.431.208-.779.468-.779s.464.348.464.779-.209.783-.464.783S1256.54-343.98,1256.54-344.411Z" transform="translate(-674.156 -346.976)" fill="#2e3452"/>
    <path id="Path_4870" data-name="Path 4870" d="M1248.15-329.917c0-.431.208-.783.463-.783s.468.352.468.783-.209.783-.468.783S1248.15-329.486,1248.15-329.917Z" transform="translate(-669.655 -354.751)" fill="#2e3452"/>
    <path id="Path_4871" data-name="Path 4871" d="M1256.54-329.917c0-.431.208-.783.468-.783s.464.352.464.783-.209.783-.464.783S1256.54-329.486,1256.54-329.917Z" transform="translate(-674.156 -354.751)" fill="#2e3452"/>
    <path id="Path_4872" data-name="Path 4872" d="M1106.01-337.2h10.428V-347.63H1106.01Z" transform="translate(-593.394 -345.667)" fill="#afccfa"/>
    <path id="Path_4873" data-name="Path 4873" d="M1119.58-337.2H1130V-347.63H1119.58Z" transform="translate(-600.674 -345.667)" fill="#fff"/>
    <path id="Path_4874" data-name="Path 4874" d="M1130.7-337.271a.777.777,0,0,0-.779-.779.778.778,0,0,0-.783.779.779.779,0,0,0,.783.783A.778.778,0,0,0,1130.7-337.271Z" transform="translate(-605.804 -350.807)" fill="#2e3452"/>
    <path id="Path_4875" data-name="Path 4875" d="M1137.737-344.411a.781.781,0,0,0-.783-.779.781.781,0,0,0-.783.779.785.785,0,0,0,.783.783A.785.785,0,0,0,1137.737-344.411Z" transform="translate(-609.575 -346.976)" fill="#2e3452"/>
    <path id="Path_4876" data-name="Path 4876" d="M1123.672-344.411a.778.778,0,0,0-.783-.779.777.777,0,0,0-.779.779.781.781,0,0,0,.779.783A.782.782,0,0,0,1123.672-344.411Z" transform="translate(-602.032 -346.976)" fill="#2e3452"/>
    <path id="Path_4877" data-name="Path 4877" d="M1137.737-329.917a.785.785,0,0,0-.783-.783.785.785,0,0,0-.783.783.785.785,0,0,0,.783.783A.785.785,0,0,0,1137.737-329.917Z" transform="translate(-609.575 -354.751)" fill="#2e3452"/>
    <path id="Path_4878" data-name="Path 4878" d="M1123.672-329.917a.782.782,0,0,0-.783-.783.781.781,0,0,0-.779.783.781.781,0,0,0,.779.783A.782.782,0,0,0,1123.672-329.917Z" transform="translate(-602.032 -354.751)" fill="#2e3452"/>
    <path id="Path_4879" data-name="Path 4879" d="M1116.616-344.411c0-.431-.208-.779-.468-.779s-.468.348-.468.779.209.783.468.783S1116.616-343.98,1116.616-344.411Z" transform="translate(-598.582 -346.976)" fill="#2e3452"/>
    <path id="Path_4880" data-name="Path 4880" d="M1108.222-344.411c0-.431-.209-.779-.464-.779s-.468.348-.468.779.208.783.468.783S1108.222-343.98,1108.222-344.411Z" transform="translate(-594.081 -346.976)" fill="#2e3452"/>
    <path id="Path_4881" data-name="Path 4881" d="M1116.616-329.917c0-.431-.208-.783-.468-.783s-.468.352-.468.783.209.783.468.783S1116.616-329.486,1116.616-329.917Z" transform="translate(-598.582 -354.751)" fill="#2e3452"/>
    <path id="Path_4882" data-name="Path 4882" d="M1108.222-329.917c0-.431-.209-.783-.464-.783s-.468.352-.468.783.208.783.468.783S1108.222-329.486,1108.222-329.917Z" transform="translate(-594.081 -354.751)" fill="#2e3452"/>
    <path id="Path_4883" data-name="Path 4883" d="M1671.95-28.786h93.628v-18.6H1671.95Z" transform="translate(-897.031 -506.751)" fill="#f1ccaa"/>
    <path id="Path_4884" data-name="Path 4884" d="M1592.62-28.786h93.628v-18.6H1592.62Z" transform="translate(-854.469 -506.751)" fill="#f9ddbe"/>
    <path id="Path_4885" data-name="Path 4885" d="M1665.95-52.04h98.332V-67.46H1665.95Z" transform="translate(-893.812 -495.984)" fill="#fbd6b9"/>
    <path id="Path_4886" data-name="Path 4886" d="M1585.24-52.04h98.333V-67.46H1585.24Z" transform="translate(-850.509 -495.984)" fill="#ffe9d6"/>
    <path id="Path_4887" data-name="Path 4887" d="M1107.96-274.656h93.628v-18.6H1107.96Z" transform="translate(-594.44 -374.838)" fill="#f1ccaa"/>
    <path id="Path_4888" data-name="Path 4888" d="M1028.63-274.656h93.628v-18.6H1028.63Z" transform="translate(-551.878 -374.838)" fill="#f9ddbe"/>
    <path id="Path_4889" data-name="Path 4889" d="M1101.96-297.91h98.332v-15.42H1101.96Z" transform="translate(-591.221 -364.07)" fill="#fbd6b9"/>
    <path id="Path_4890" data-name="Path 4890" d="M1021.25-297.91h98.333v-15.42H1021.25Z" transform="translate(-547.919 -364.07)" fill="#ffe9d6"/>
  </g>
</svg>
