<svg xmlns="http://www.w3.org/2000/svg" width="555" height="437" viewBox="0 0 555 437">
  <g id="header-illustration" transform="translate(-3399.599 9928)">
    <rect id="Rectangle_952" data-name="Rectangle 952" width="555" height="437" transform="translate(3399.599 -9928)" fill="#fff" opacity="0"/>
    <g id="Group_1406" data-name="Group 1406" transform="translate(3461.598 -7573.25)">
      <path id="Path_5637" data-name="Path 5637" d="M1208.383-1951.79c-2.306,11.522-2.254,23.355-3.371,35.023-3.581,48.128-7.815,96.225-11.543,144.331-.007,1.838.073,3.691.225,5.511.314-1.309.6-2.62.842-3.945,3.9-42.944,6.57-86.05,10.275-129.032C1205.793-1917.2,1208.633-1934.469,1208.383-1951.79Z" transform="translate(-981.484 -312.636)" fill="#6c6f7c"/>
      <path id="Path_5638" data-name="Path 5638" d="M1140.787-1942.76c-3.316,19.744-3.222,39.971-5.222,59.892-2.781,39.115-6.581,78.17-9.575,117.256.012,1.892.119,3.8.27,5.673q.5-2.057.9-4.135c3.7-39.883,5.785-79.967,9.421-119.881C1137.729-1903.551,1140.979-1923.142,1140.787-1942.76Z" transform="translate(-925.992 -320.062)" fill="#6c6f7c"/>
      <path id="Path_5639" data-name="Path 5639" d="M1076.022-1882.69c-3.041,18.233-3.023,36.876-4.824,55.265-2.476,35.048-6.135,70.035-8.538,105.068.037,1.542.13,3.1.256,4.629q.429-1.782.794-3.583c3.536-35.8,5.227-71.844,8.485-107.7C1073.285-1846.9,1076.195-1864.773,1076.022-1882.69Z" transform="translate(-873.911 -369.462)" fill="#6c6f7c"/>
      <path id="Path_5640" data-name="Path 5640" d="M1005.814-1917.09c-3.034,19.515-3.265,39.4-5.156,59.055-2.755,38.1-6.552,76.14-9.257,114.228.005,1.712.1,3.437.236,5.133.3-1.254.588-2.513.822-3.783,3.323-32.857,4.833-65.935,7.792-98.848C1001.782-1866.573,1005.388-1891.8,1005.814-1917.09Z" transform="translate(-815.308 -341.173)" fill="#6c6f7c"/>
      <path id="Path_5641" data-name="Path 5641" d="M1274.8-1973.84c-3.487,23.408-3.954,47.215-6.2,70.776-2.652,37.433-6.2,74.819-9.039,112.226-.007,1.886.091,3.787.247,5.654.336-1.4.654-2.8.909-4.213,3.305-34.668,5.032-69.523,8.279-104.217C1270.677-1920.353,1274.366-1947.067,1274.8-1973.84Z" transform="translate(-1035.836 -294.502)" fill="#6c6f7c"/>
      <path id="Path_5642" data-name="Path 5642" d="M1339.51-1938.46c-3.627,22.5-3.572,45.5-5.94,68.168-2.5,35.538-6.089,71.012-8.611,106.537,0,1.8.089,3.62.238,5.406.316-1.312.615-2.63.858-3.961,3.7-39.045,5.791-78.284,9.313-117.368C1336.425-1899.272,1339.777-1918.845,1339.51-1938.46Z" transform="translate(-1089.621 -323.598)" fill="#6c6f7c"/>
      <path id="Path_5643" data-name="Path 5643" d="M1399.7-1965.33c-3.705,23.018-3.822,46.531-6.043,69.737-2.63,37.472-6.43,74.877-9.08,112.336,0,1.785.082,3.581.229,5.35.311-1.291.6-2.586.836-3.894,3.9-40.729,5.966-81.67,9.75-122.43C1396.665-1924.586,1399.91-1944.937,1399.7-1965.33Z" transform="translate(-1138.651 -301.501)" fill="#6c6f7c"/>
      <path id="Path_5644" data-name="Path 5644" d="M1470.259-1976.86c-3.028,16.449-3,33.318-4.57,49.948-2.892,40.836-6.78,81.616-9.8,122.431,0,1.795.1,3.6.243,5.379.313-1.3.609-2.6.851-3.915,3.664-38.478,5.746-77.151,9.22-115.668C1467.4-1938.068,1470.554-1957.436,1470.259-1976.86Z" transform="translate(-1197.296 -292.019)" fill="#6c6f7c"/>
      <path id="Path_5645" data-name="Path 5645" d="M1529.871-2008.62c-3.568,22.559-3.872,45.565-5.982,68.3-2.519,36.019-6.124,71.975-8.689,107.978,0,1.792.089,3.6.238,5.372.309-1.29.6-2.583.842-3.887,3.354-33.691,4.964-67.591,8.048-101.327C1525.981-1957.65,1529.7-1983.1,1529.871-2008.62Z" transform="translate(-1246.071 -265.9)" fill="#6c6f7c"/>
      <path id="Path_5646" data-name="Path 5646" d="M1599.933-2064.22c-3.38,20.858-3.6,42.151-5.656,63.177-2.876,40.712-6.7,81.371-9.629,122.067-.005,1.984.1,3.983.27,5.949q.525-2.2.952-4.418c3.879-41.373,6.163-82.938,9.858-124.346C1596.955-2022.591,1600.054-2043.389,1599.933-2064.22Z" transform="translate(-1303.184 -220.176)" fill="#6c6f7c"/>
      <path id="Path_5647" data-name="Path 5647" d="M1662.031-2007.08c-3.334,19.123-3.327,38.719-5.266,58.026-2.675,37.9-6.354,75.762-8.9,113.662.014,1.758.115,3.533.265,5.275q.458-1.91.84-3.837c3.618-35.364,5.316-70.968,8.521-106.394C1658.749-1962.584,1662.2-1984.815,1662.031-2007.08Z" transform="translate(-1355.176 -267.166)" fill="#6c6f7c"/>
      <path id="Path_5648" data-name="Path 5648" d="M1751.784-2019.6c-3.471,17.993-2.926,36.57-4.869,54.781-1.874,26.046-4.4,52.046-6.282,78.089-.057,6.062-.138,10.931,1.258,1.266,2.346-25.03,3.648-50.167,5.826-75.22C1748.7-1980.321,1752.33-1999.952,1751.784-2019.6Z" transform="translate(-1431.442 -256.87)" fill="#6c6f7c"/>
      <path id="Path_5649" data-name="Path 5649" d="M1847.9-1929.26c-2.488,10.053-2.122,20.506-3.131,30.759-.506,7.01-1.254,14.044-.936,21.073,1.94-10.167,2.144-20.554,3.209-30.833C1847.659-1915.24,1848.638-1922.256,1847.9-1929.26Z" transform="translate(-1516.273 -331.164)" fill="#6c6f7c"/>
      <path id="Path_5650" data-name="Path 5650" d="M1918.666-2073.58c-1.877,7.233-2.007,14.73-2.645,22.133a112.747,112.747,0,0,0-.547,18.549c1.732-7.419,2.1-15.032,2.68-22.6C1918.688-2061.507,1919.266-2067.562,1918.666-2073.58Z" transform="translate(-1575.095 -212.478)" fill="#6c6f7c"/>
      <path id="Path_5651" data-name="Path 5651" d="M935.676-1926.93c-3.183,13.909-2.773,28.371-4.338,42.515-3.293,43.067-7.634,86.065-11.078,129.11q-.053,2.347.06,4.694c.574-2.488.964-5.044,1.288-7.586,3.124-37.2,6.188-74.407,9.65-111.578C932.422-1888.822,936.163-1907.852,935.676-1926.93Z" transform="translate(-756.79 -333.08)" fill="#6c6f7c"/>
      <path id="Path_5652" data-name="Path 5652" d="M850.951-1884.81c-3.247,14.041-2.76,28.652-4.368,42.932q-5.217,63.008-11.02,125.97a77.781,77.781,0,0,0-.171,9.778,80.291,80.291,0,0,0,1.334-7.98c3.7-43.495,7.328-87,11.368-130.462C848.948-1857.977,851.77-1871.366,850.951-1884.81Z" transform="translate(-686.943 -367.719)" fill="#6c6f7c"/>
      <path id="Path_5653" data-name="Path 5653" d="M787.916-1830.13c-3.956,21.114-3.734,42.875-6.139,64.224-2.611,32.385-5.9,64.723-8.305,97.121-.055,1.617-.062,3.234-.03,4.851.51-2.549.888-5.155,1.188-7.748,4.179-46.809,7.964-93.656,12.551-140.427C787.822-1818.091,788.465-1824.123,787.916-1830.13Z" transform="translate(-636.048 -412.687)" fill="#6c6f7c"/>
      <path id="Path_5654" data-name="Path 5654" d="M720.281-1895.8c-3.3,15.219-2.925,31.005-4.641,46.453-2.9,35.437-6.2,70.84-9.348,106.254-.284,6.592-.377,12.832,1.194,1.56,3.076-34.133,5.68-68.316,8.861-102.444C717.393-1861.248,720.832-1878.5,720.281-1895.8Z" transform="translate(-580.705 -358.681)" fill="#6c6f7c"/>
      <path id="Path_5655" data-name="Path 5655" d="M644.872-1835.48c-4.034,20.526-3.616,41.735-6.011,62.51-2.46,29.673-5.4,59.312-8.009,88.968-.117,2.872-.087,5.774.078,8.634.536-2.311.975-4.641,1.343-6.984,2.726-28.359,4.588-56.818,7.24-85.192C640.837-1790.194,645.178-1812.809,644.872-1835.48Z" transform="translate(-518.743 -408.287)" fill="#6c6f7c"/>
      <path id="Path_5656" data-name="Path 5656" d="M583.446-1839.39c-3.231,14.288-2.789,29.137-4.4,43.661-2.613,32.6-5.7,65.168-8.6,97.744-.146,2.75-.158,5.524-.034,8.265q.738-3.382,1.215-6.807c2.471-26.6,4.38-53.265,6.854-79.872C579.727-1797.4,583.789-1818.363,583.446-1839.39Z" transform="translate(-469.029 -405.071)" fill="#6c6f7c"/>
      <path id="Path_5657" data-name="Path 5657" d="M510.954-1836.49c-3.265,15.787-2.632,32.131-4.29,48.138-2.519,36.385-5.7,72.723-8.485,109.087a87.877,87.877,0,0,0,.06,9.076c.524-2.469.931-4.959,1.254-7.462,2.671-32.318,4.625-64.7,7.279-97.027C507.8-1795.277,511.552-1815.881,510.954-1836.49Z" transform="translate(-409.62 -407.456)" fill="#6c6f7c"/>
      <path id="Path_5658" data-name="Path 5658" d="M455.393-1773.61c-3.316,19.229-2.43,38.993-4.16,58.417-1.632,27.991-3.579,55.964-5.353,83.945-.071,6.41-.062,12.354,1.206,1.536,1.831-26.88,3.108-53.805,4.913-80.69C452.72-1731.464,456.253-1752.558,455.393-1773.61Z" transform="translate(-366.663 -459.168)" fill="#6c6f7c"/>
      <path id="Path_5659" data-name="Path 5659" d="M401.339-1768.52c-2.359,13.938-.993,28.208-1.654,42.284-.476,31.661-1.663,63.309-2.385,94.959.266,7.025.423,10.863,1.275.872.936-30.667,1.169-61.368,2.224-92.036C400.808-1737.783,403.048-1753.247,401.339-1768.52Z" transform="translate(-326.732 -463.353)" fill="#6c6f7c"/>
      <path id="Path_5660" data-name="Path 5660" d="M330.491-1763.43c-1.628,20.076,1.071,40.327,1.013,60.463.881,28.391,1.191,56.8,1.973,85.192.637,7.527,1.009,10.781,1.357.643-.7-32.553-2.023-65.1-2.557-97.659C331.422-1730.972,332.952-1747.4,330.491-1763.43Z" transform="translate(-271.359 -467.539)" fill="#6c6f7c"/>
      <path id="Path_5661" data-name="Path 5661" d="M270.871-1746.87c-1.388,14.25,1.055,28.552,1.424,42.817,1.845,31.588,3.057,63.211,4.6,94.814.689,7.089,1.222,10.689,1.258.721-1.385-30.771-3.259-61.526-4.434-92.309C272.6-1716.147,273.753-1731.747,270.871-1746.87Z" transform="translate(-222.411 -481.158)" fill="#6c6f7c"/>
      <path id="Path_5662" data-name="Path 5662" d="M677.179-1715.2q-141.9,24.482-283.884,48.835a76.155,76.155,0,0,0-7.37,2.039,78.969,78.969,0,0,0,12.173-1.217q133.891-23.475,267.95-45.98C670.913-1712.06,692.854-1716.717,677.179-1715.2Z" transform="translate(-317.377 -506.952)" fill="#6c6f7c"/>
      <path id="Path_5663" data-name="Path 5663" d="M698.941-2056.75c-9.252-.016-18.254,2.337-27.33,3.831-83.977,15.089-168.172,28.947-252.259,43.378-9.774,2.337-10.774,2.861.361,1.664,81.16-13.98,162.236-28.494,243.493-41.92C675.112-2052.081,687.421-2052.844,698.941-2056.75Z" transform="translate(-338.566 -226.319)" fill="#6c6f7c"/>
      <path id="Path_5664" data-name="Path 5664" d="M680.826-1403.961c-92.156,13.643-184.232,28.062-276.429,41.52-15.2,2.853-9.559,3.05,1.941,1.508q112.958-17.4,226.017-34.124C637.395-1395.9,704.615-1405.057,680.826-1403.961Z" transform="translate(-324.969 -763.085)" fill="#6c6f7c"/>
      <path id="Path_5665" data-name="Path 5665" d="M611.109-1090.816c-92.332,4.414-184.708,7.9-277.081,11.329-8.519.616-17.28,1.714-1.79,1.863,97.82-5.2,196.024-6.675,293.7-12.815A74.928,74.928,0,0,0,611.109-1090.816Z" transform="translate(-266.224 -1020.518)" fill="#6c6f7c"/>
      <path id="Path_5666" data-name="Path 5666" d="M2226.879-1085.173a.551.551,0,0,0,.712.842A.552.552,0,0,0,2226.879-1085.173Z" transform="translate(-1831.181 -1025.212)" fill="#6c6f7c"/>
      <path id="Path_5667" data-name="Path 5667" d="M1929.034-2108.75c-3.687,14.8-5.639,29.966-9.153,44.81-2.378,12.1-3.5,24.426-6.123,36.478-6.817,31.535-17.208,77.179-18.488,102.352v0q.093-.626.169-1.256l-.005.037c4.986-46.082,18.243-90.666,25.5-136.358,1.863-8.117,3.844-16.206,5.469-24.376C1927.98-2094.173,1929.625-2101.428,1929.034-2108.75Z" transform="translate(-1558.633 -183.555)" fill="#6c6f7c"/>
      <path id="Path_5668" data-name="Path 5668" d="M1833.93-1873.03a.063.063,0,0,0,0,.018A.063.063,0,0,1,1833.93-1873.03Zm29.886-160.41c-5.76,15.833-6.664,32.952-10.4,49.32-6.206,33.32-11.977,66.716-17.858,100.092.7-4.593-3.556,11.389-2.183,12.622,5.656-29.723,10.7-60.689,16.906-90.684C1854.541-1985.9,1861.156-2009.4,1863.816-2033.44Z" transform="translate(-1507.508 -245.488)" fill="#6c6f7c"/>
      <path id="Path_5669" data-name="Path 5669" d="M1879.2-1900.2a.016.016,0,0,1,0-.009A.016.016,0,0,0,1879.2-1900.2Zm-1.219,7.8a.034.034,0,0,1,0-.012A.034.034,0,0,0,1877.98-1892.392Zm4.194-28.97c0,.007,0,.014,0,.021S1882.172-1921.355,1882.174-1921.362Zm23.884-125c-4.412,10.513-5.442,21.987-8.185,32.977-9.153,39.874-14.02,80.536-19.892,120.978v0c0,.005,0,.011,0,.016v0c0,.007,0,.014,0,.021a.057.057,0,0,0,0-.018c-.689,4.655-1.618,11.773-1.54,15.279v0c.861-7.705,1.552-15.426,2.76-23.089a.006.006,0,0,1,0,.005c4.4-29.721,8.471-59.5,14.773-88.891C1897.492-2008.266,1904.11-2026.923,1906.058-2046.36Z" transform="translate(-1543.143 -234.863)" fill="#6c6f7c"/>
      <path id="Path_5670" data-name="Path 5670" d="M1804.827-1908.443s0-.009,0-.012S1804.827-1908.447,1804.827-1908.443Zm-1.59,10.471a.041.041,0,0,0,0-.014A.046.046,0,0,1,1803.237-1897.973Zm32.057-160.827c-7.121,15.172-6.838,32.5-11.179,48.52-6.945,33.838-13.5,67.776-19.41,101.811,0-.005,0-.01,0-.016-1.229,9.931-3.025,19.8-4.506,29.673,1.357-6.325,2.151-12.76,3.147-19.149a.04.04,0,0,0,0,.014q.743-5.249,1.481-10.5v0C1813.177-1958.919,1826.1-2008.518,1835.294-2058.8Z" transform="translate(-1480.449 -224.633)" fill="#6c6f7c"/>
      <path id="Path_5671" data-name="Path 5671" d="M1757.8-2050.46a.112.112,0,0,0,0,.023.166.166,0,0,0,0-.029Zm.115-.86c-6.664,16.6-10.069,34.361-16.274,51.153-10.726,33.3-22.026,66.423-32.067,99.941a33.276,33.276,0,0,0-1.03,5.24c.671-2.565,1.16-5.2,1.957-7.744,9.089-30.584,19.877-60.623,30.073-90.849,4-11.169,7.917-22.36,11.346-33.719,2.552-7.561,5.185-15.135,5.876-23.138a.007.007,0,0,1,0,.005c0-.013,0-.023.005-.036v0C1757.831-2050.748,1757.885-2051.046,1757.911-2051.32Z" transform="translate(-1405.07 -230.784)" fill="#6c6f7c"/>
      <path id="Path_5672" data-name="Path 5672" d="M183.725-1695.13c-.834,8.645.412,17.273.8,25.907.315,12.936,1.192,25.837,2.154,38.737,1.568,19.982,2.225,40.082,4.859,59.958a32.855,32.855,0,0,0,.644,4.229c-.2-2.682-.553-5.379-.91-8.054-2.713-24.968-3.346-50.142-4.856-75.209C185.71-1664.729,187.138-1680.233,183.725-1695.13Z" transform="translate(-150.86 -523.708)" fill="#6c6f7c"/>
      <path id="Path_5673" data-name="Path 5673" d="M160.255-1615.9a.055.055,0,0,0,0,.007A.036.036,0,0,1,160.255-1615.9ZM148.6-1746.18c-.9,13.256,1.491,26.455,2.433,39.652,2.133,29.4,5.53,58.684,8.837,87.971.735,6.015,1.327,7.686.178.316-2.808-24.691-5.37-49.41-6.988-74.211-.544-10.5-1.256-21-1.993-31.49C150.623-1731.39,150.59-1738.944,148.6-1746.18Z" transform="translate(-122.041 -481.725)" fill="#6c6f7c"/>
      <path id="Path_5674" data-name="Path 5674" d="M134.907-1598.364s0-.007,0-.011Zm1.176,7.51c0-.007,0-.014,0-.02ZM123.864-1724.5c-.523,18.7,3.379,37.2,4.419,55.844,2.866,27.36,3.881,54.987,8.413,82.143-.169-1.426-.391-2.874-.607-4.306l0,.021c0-.018-.006-.037-.009-.055,0,0,0,0,0,0q-.259-1.694-.541-3.387c0,.007,0,.016,0,.021-.2-1.387-.422-2.775-.64-4.161,0,0,0,0,0,0-2.86-27.531-4.743-55.146-6.523-82.764-.5-8.707-1.364-17.387-2.072-26.078C125.994-1713.035,125.59-1718.908,123.864-1724.5Z" transform="translate(-101.824 -499.555)" fill="#6c6f7c"/>
      <path id="Path_5675" data-name="Path 5675" d="M108.969-1709.54c-1.821,14.389-.133,28.94.945,43.325,1.4,26.439,5.018,52.68,7.231,79.048.864,5.466,1.563,6.706.243.178-2.088-22.794-4.692-45.568-5.75-68.446-.323-9.746-.929-19.476-1.362-29.215C110.151-1692.959,110.547-1701.344,108.969-1709.54Z" transform="translate(-88.952 -511.857)" fill="#6c6f7c"/>
      <path id="Path_5676" data-name="Path 5676" d="M74.151-1740.94c-.484,6.661.566,13.256,1.319,19.853.767,8.117,1.572,16.229,2.366,24.341,2.266,28.412,4.623,56.815,7.848,85.136a20.224,20.224,0,0,0,.957,4.841,55.087,55.087,0,0,1-.956-5.96c-2.9-25.577-4.953-51.249-6.318-76.954C77.763-1706.746,78.341-1724.251,74.151-1740.94Z" transform="translate(-60.879 -486.035)" fill="#6c6f7c"/>
      <path id="Path_5677" data-name="Path 5677" d="M70.212-1720.79c-1.147,17.579.877,35.176,2.191,52.693,2.082,24.508,4.87,48.956,7.389,73.421.185,1.4.412,2.795.735,4.166-.1-2.044-.339-4.111-.592-6.153-3.13-26.542-5.6-53.187-7.061-79.874-.393-7.133-.9-14.266-.931-21.414C71.9-1705.6,72.141-1713.33,70.212-1720.79Z" transform="translate(-57.462 -502.606)" fill="#6c6f7c"/>
      <path id="Path_5678" data-name="Path 5678" d="M83.562-1255.38c8.421,7.794,18.916,13,29.514,17.169a136.093,136.093,0,0,0-13.193-7.938C94.575-1249.456,89.318-1252.9,83.562-1255.38Z" transform="translate(-68.72 -885.35)" fill="#6c6f7c"/>
      <path id="Path_5679" data-name="Path 5679" d="M107.132-1131.57c5.933,8.052,14.946,12.705,23.976,16.419C123.148-1120.645,115.012-1125.957,107.132-1131.57Z" transform="translate(-88.103 -987.169)" fill="#6c6f7c"/>
      <path id="Path_5680" data-name="Path 5680" d="M102.253-1070.25c6.669,7.394,15.4,12.793,24.054,17.557-4.552-3.888-9.155-7.709-14.036-11.185l.1.076C109.142-1066.159,105.664-1068.186,102.253-1070.25Z" transform="translate(-84.091 -1037.597)" fill="#6c6f7c"/>
      <path id="Path_5681" data-name="Path 5681" d="M99.582-1451.822l.02.007Zm-.047-.018.022.009Zm-26.327-8.46a53.6,53.6,0,0,0,15.283,5.924c4.108.991,8.1,2.9,12.341,3.156,2.312-.359-.346-.1-1.266-.609C91.229-1455.9,82.249-1458.387,73.208-1460.3Z" transform="translate(-60.205 -716.828)" fill="#6c6f7c"/>
      <path id="Path_5682" data-name="Path 5682" d="M59.979-1686.864l-.129-.05C59.893-1686.9,59.936-1686.88,59.979-1686.864Zm-3.572-1.716c5.081,2.833,10.819,4.053,16.51,4.968,5.2.78,10.428,2.231,15.72,1.689C77.917-1684.077,67.274-1687.036,56.407-1688.58Z" transform="translate(-46.388 -529.095)" fill="#6c6f7c"/>
      <path id="Path_5683" data-name="Path 5683" d="M581.392-1995.654c-92.547,18.746-184.87,38.714-277.534,56.913a64.694,64.694,0,0,0-8.8,2.712c1.966-.1,3.927-.234,5.878-.5,62.69-12.98,125.35-26.268,188.1-39.005C495.237-1977.13,607.759-1998.887,581.392-1995.654Z" transform="translate(-242.647 -276.294)" fill="#6c6f7c"/>
      <path id="Path_5684" data-name="Path 5684" d="M553.806-2127.566c-38.721,5.522-76.961,14.686-115.524,21.41-61.25,11.654-122.641,22.565-183.956,33.838a117.45,117.45,0,0,0-16.848,5.14,117.776,117.776,0,0,0,12.049-.607c75.532-13.378,150.693-29.14,226.263-42.463,25.053-4.845,50.352-8.631,75.272-14.051a97.509,97.509,0,0,0,9.719-3.384Q557.291-2127.712,553.806-2127.566Z" transform="translate(-195.297 -167.98)" fill="#6c6f7c"/>
      <path id="Path_5685" data-name="Path 5685" d="M409.97-2093.66c-23.49,2.373-46.385,9.137-69.707,12.863q-88.436,17-177.115,32.716a106.281,106.281,0,0,0-12.745,4.073c3.252.005,6.507-.147,9.747-.423,62.8-11.394,125.424-24.224,188.3-35.373,17.151-3.211,34.375-6.032,51.566-8.994a92.317,92.317,0,0,0,16.135-4.947C414.1-2093.77,412.031-2093.733,409.97-2093.66Z" transform="translate(-123.688 -195.888)" fill="#6c6f7c"/>
      <path id="Path_5686" data-name="Path 5686" d="M489.649-921.693c-51.353,2.618-102.749,4.362-154.142,6.025-20.35,1.158-40.988-.177-61.111,3.432,2.36,1.608,5.54,1,8.287,1.382,7.461.433,14.918-.142,22.369-.476,28.369-1.165,56.741-2.352,85.115-3.394,34.3-1.661,68.668-1.961,102.964-3.373a92.141,92.141,0,0,0,13.279-2.27A94.143,94.143,0,0,0,489.649-921.693Z" transform="translate(-225.659 -1159.757)" fill="#6c6f7c"/>
      <path id="Path_5687" data-name="Path 5687" d="M207.12-1675.07c-1.806,14.3,1.208,28.527,2.375,42.753,1.636,14.62,1.748,29.515,5.555,43.8,1.224-16.883-2.037-33.7-3.024-50.527C211.042-1651.127,210.89-1663.434,207.12-1675.07Z" transform="translate(-169.869 -540.205)" fill="#6c6f7c"/>
      <path id="Path_5688" data-name="Path 5688" d="M34.882-1757.64a97.087,97.087,0,0,0-.029,19.984c2.132,20.376,4.047,40.774,5.878,61.181q1.546,17.574,2.982,35.158c.583,4.606.839,17.115,4.12,19.779,1.189-16.553-2.272-33.018-3.408-49.5-2.31-23.527-4.2-47.094-6.254-70.641A96.53,96.53,0,0,0,34.882-1757.64Z" transform="translate(-28.25 -472.301)" fill="#6c6f7c"/>
      <path id="Path_5689" data-name="Path 5689" d="M96.3-1027.03c-1.014,2.56-1.029,3.6,1.339,5.23,2.906,2.49,5.714,5.1,8.755,7.426-.03-.023-.06-.046-.09-.071,5.091,3.766,9.8,8.011,14.9,11.766,3.2,2.845,7.459,5.165,11.672,3.036-4,.336-6.9-2.295-9.3-5.151a88.445,88.445,0,0,0-9.9-8.453,128.64,128.64,0,0,0-10.905-7.424c-1.978-1.313-4.114-2.359-6.134-3.6A11.911,11.911,0,0,1,96.3-1027.03Z" transform="translate(-78.661 -1073.14)" fill="#6c6f7c"/>
      <path id="Path_5690" data-name="Path 5690" d="M670.856-518.738c-97.739,10.2-195.625,19.188-293.495,28.005a103.72,103.72,0,0,0-15.542,3.368,104.862,104.862,0,0,0,11.178.5c76.609-6.954,153.183-15.071,229.81-22.135,17.442-1.531,34.868-3.242,52.318-4.682,8.734-.719,17.577-.963,26.073-3.311,1.606-.412,3.213-.854,4.79-1.332A91.434,91.434,0,0,0,670.856-518.738Z" transform="translate(-297.553 -1491.026)" fill="#6c6f7c"/>
      <path id="Path_5691" data-name="Path 5691" d="M680.951-604.216c-99.3,9.426-198.628,19.368-298.022,28.05a112.928,112.928,0,0,0-16.912,3.552,97.965,97.965,0,0,0,12.293.44c66.039-5.908,132.042-12.893,198.065-19.192C582.543-592.548,726.619-603.267,680.951-604.216Z" transform="translate(-301.005 -1420.854)" fill="#6c6f7c"/>
      <path id="Path_5692" data-name="Path 5692" d="M375.677-731.259c-24.659,1.444-48.982,6.748-73.513,9.643-20.249,2.545-40.449,5.455-60.7,8.012-8.826,1.1-17.724,1.966-26.307,4.412-9.827,2.535-1.824,1.632,2.76,1.792,41.568-4.122,82.806-11.712,124.342-16.417,10.51-1.492,21.179-2.126,31.508-4.668C379.7-730.225,387.842-731.5,375.677-731.259Z" transform="translate(-173.096 -1316.353)" fill="#6c6f7c"/>
      <path id="Path_5693" data-name="Path 5693" d="M533.776-707.859c-15.444.5-30.6,4.075-45.918,5.922-44.032,6.424-88.264,11.57-132.3,17.867a88.129,88.129,0,0,0-11.677,3.243c3.035.176,6.077.268,9.115.151,51.574-5.982,102.872-14.769,154.483-20.718,8.025-1.1,16.144-1.638,24.035-3.538,3.343-.792,6.671-1.723,9.922-2.8C538.886-707.864,536.33-707.879,533.776-707.859Z" transform="translate(-282.801 -1335.615)" fill="#6c6f7c"/>
      <path id="Path_5694" data-name="Path 5694" d="M1568.833-739.6a40.754,40.754,0,0,0-11.183,3.112,41.42,41.42,0,0,0,22.119-3.012A51.039,51.039,0,0,0,1568.833-739.6Z" transform="translate(-1280.981 -1309.317)" fill="#6c6f7c"/>
      <path id="Path_5695" data-name="Path 5695" d="M1850.162-836.656c.06.032.121.066.183.1l-.44-.236Zm.5.268,0,0-.069-.037Zm.343.185.19.1Zm-64.362-27.023c6.945,3.156,12.725,8.554,19.932,11.339,10.943,5.176,22.707,8.382,33.513,13.821l-.087-.048c11.682,6.806,19.7,9.1,21.572,24.048,2.1-9.655-1.044-17.7-10.238-21.959.037.021.074.041.112.06-.016-.007-.032-.016-.048-.025.05.027.1.053.151.082l-.885-.478.048.027c-.147-.08-.295-.16-.442-.238l.325.174-.76-.41c.146.08.293.158.44.238-11.794-7.789-25.524-11.259-38.305-16.963C1803.564-856.672,1795.83-862.933,1786.64-863.226Z" transform="translate(-1469.298 -1207.85)" fill="#6c6f7c"/>
      <path id="Path_5696" data-name="Path 5696" d="M1889.539-867.534l-.023-.023,0,.005-.13-.123Zm-.014-.014c.016.014.03.028.046.044-.016-.016-.034-.032-.052-.048C1889.521-867.552,1889.523-867.55,1889.525-867.548Zm.05.048a0,0,0,0,0,0,0A0,0,0,0,1,1889.575-867.5Zm-.7-.654c.073.068.144.135.217.2C1889.022-868.019,1888.951-868.086,1888.879-868.154Zm-.275-.259.215.2Zm-66.623-29.753c12.506,6.231,26.041,10.156,38.84,15.757,10.121,3.6,20.609,7.224,28.57,14.735-.036-.034-.073-.068-.108-.1.114.108.227.215.341.322-.016-.016-.032-.03-.048-.044l.012.011c-.016-.016-.032-.03-.048-.044a36.244,36.244,0,0,1,7.1,8.382l-.231-.368a26.405,26.405,0,0,1,2.306,5.625l-.032-.1c2.622,7.561,2.05,15.7,3.671,23.414,2.689-11.467,3.243-24.515-4.652-34.154-9.6-12.439-24.851-17.469-39.1-22.519C1846.905-892.521,1834.887-897.168,1821.98-898.166Z" transform="translate(-1498.361 -1179.116)" fill="#6c6f7c"/>
      <path id="Path_5697" data-name="Path 5697" d="M1518.185-835.473c-4.952,1.428-8.769,5.785-10.5,10.529-1.872,5.387-.021,11.069,1.393,16.341,1.938,7.19,7.945,12.273,14.531,15.213,2.611,1.169,4.856,3.078,7.48,4.163-1.343-1.128-2.3-2.631-3.558-3.849-3.726-3.741-8.526-6.3-11.728-10.581-3.92-5.478-6.549-15.027-3.991-21.483C1515.652-835.8,1528.054-837.018,1518.185-835.473Z" transform="translate(-1239.238 -1230.223)" fill="#6c6f7c"/>
      <path id="Path_5698" data-name="Path 5698" d="M1494.85-915.746c-15.183.165-33.883,2.865-42.46,16.947-2.112,4.012-3.023,8.5-4.162,12.86-1.643,5.028-.112,10.423,3.041,14.52a12.448,12.448,0,0,0,5.465,4.844c-4.474-4.872-6.49-12.442-4.545-18.833,1.6-8.432,4.8-16.707,13.215-20.346,11.38-6.812,25.058-5.9,37.812-6.115,3.854-.337,7.647-1.144,11.5-1.492C1508.3-915.169,1501.484-915.323,1494.85-915.746Z" transform="translate(-1190.446 -1164.658)" fill="#6c6f7c"/>
      <path id="Path_5699" data-name="Path 5699" d="M1634.86-855.044c-8.6,1.014-17.336-.526-25.877,1.1-10.68,2.323-3.762,1.762,2.286,2.464,6.114.625,12.354,1.135,18.41-.208a100.936,100.936,0,0,0,10.586-3.375C1638.476-855.139,1636.657-855.121,1634.86-855.044Z" transform="translate(-1318.619 -1214.523)" fill="#6c6f7c"/>
      <path id="Path_5700" data-name="Path 5700" d="M1499.87-639.546c.592,4.426,2.5,8.659,6.375,11.128l-.155-.115.343.256-.055-.043c3.133,2.288,6.535,4.448,10.384,5.218-3.671-3.023-6.707-6.758-10.593-9.531l0,0C1503.62-634.48,1501.906-637.2,1499.87-639.546Z" transform="translate(-1233.464 -1391.8)" fill="#6c6f7c"/>
      <path id="Path_5701" data-name="Path 5701" d="M1099.8-855.36c.005.011.012.02.018.03C1099.81-855.34,1099.8-855.349,1099.8-855.36Zm-.126-.137a.454.454,0,0,1,.06.055Zm-21.911-25.989a28.06,28.06,0,0,0,10.186,20.462c3.391,2.877,8.393,3.224,11.844,5.764a3.229,3.229,0,0,1-.76.95c1.812-.5,1.577-1.693.206-2.629-2.472-2.5-5.778-3.883-8.4-6.178A66.108,66.108,0,0,1,1077.76-881.486Z" transform="translate(-886.329 -1192.833)" fill="#6c6f7c"/>
      <path id="Path_5702" data-name="Path 5702" d="M1131.6-887.1c-1.817,5.026,2.5,9.554,5.238,13.359a37.908,37.908,0,0,0,17.078,10.643,12.094,12.094,0,0,0,3.917.318,19.539,19.539,0,0,1-4.483-2.066C1147.641-869.441,1132.2-880.05,1131.6-887.1Z" transform="translate(-930.246 -1188.212)" fill="#6c6f7c"/>
      <path id="Path_5703" data-name="Path 5703" d="M1260.238-766.623l.052,0A.5.5,0,0,0,1260.238-766.623Zm12.188-1.2c-4.068.277-8.037,1.337-12.137,1.2h.009l-.073,0h.012c-.391.018-.8.03-1.177.057,5.092,2.709,11.078,2.677,16.542,1.19a55.483,55.483,0,0,0,5.856-1.742A35.074,35.074,0,0,0,1272.426-767.826Z" transform="translate(-1035.427 -1286.248)" fill="#6c6f7c"/>
      <path id="Path_5704" data-name="Path 5704" d="M1371.71-884.355a58.753,58.753,0,0,0,15.035,23.3C1383.127-869.664,1378.9-878.179,1371.71-884.355Z" transform="translate(-1128.068 -1190.474)" fill="#6c6f7c"/>
      <path id="Path_5705" data-name="Path 5705" d="M1447.794-888.466c-1.877.339-3.091,2.087-4.124,3.538,2.59-1.231,5.117-2.993,7.027.245C1453.391-880.72,1451.091-889.535,1447.794-888.466Z" transform="translate(-1187.246 -1187.018)" fill="#6c6f7c"/>
      <path id="Path_5706" data-name="Path 5706" d="M1379.631-812.366a63.953,63.953,0,0,0-6.2,14.936C1377.451-801.32,1380.2-806.666,1379.631-812.366Z" transform="translate(-1129.482 -1249.676)" fill="#6c6f7c"/>
      <path id="Path_5707" data-name="Path 5707" d="M1580-823.634a.066.066,0,0,1,.02,0A.066.066,0,0,0,1580-823.634Zm-1.1-.252c6.059,4.231,13.229,6.49,20.14,8.925,10.318,3.556,20.522,7.527,31.161,10.043l-.02,0c.1.023.2.046.3.068l0,0c-8.245-4.615-19.291-8.943-28.741-12.861C1594.506-821.081,1586.637-822.335,1578.9-823.886Z" transform="translate(-1298.457 -1240.202)" fill="#6c6f7c"/>
      <path id="Path_5708" data-name="Path 5708" d="M1661.225-830.985l.005,0Zm2.968-6.561c1.733,3.684.085,4.73-2.963,6.558l.018-.011a.24.24,0,0,0-.028.018s0,0,.005,0C1664-829.99,1669.726-833.788,1664.193-837.546Z" transform="translate(-1366.155 -1228.968)" fill="#6c6f7c"/>
      <path id="Path_5709" data-name="Path 5709" d="M1714.29-832.786c.75,3.119,5.671,14.183,3.083,4.187a.2.2,0,0,0,.009.03c-.021-.069-.043-.138-.066-.208.007.02.012.037.018.057A7.056,7.056,0,0,0,1714.29-832.786Z" transform="translate(-1409.799 -1232.883)" fill="#6c6f7c"/>
      <path id="Path_5710" data-name="Path 5710" d="M1538.415-787.843a13.825,13.825,0,0,0-6.945,2.829C1533.676-784.583,1545.71-788.534,1538.415-787.843Z" transform="translate(-1259.451 -1269.777)" fill="#6c6f7c"/>
      <path id="Path_5711" data-name="Path 5711" d="M1839.014-720.68c-.787.02-1.59.039-2.364.1,3.094,1.242,6.274,2.5,8.858,4.664,5.1,3.993,2.881,10.774,4.774,16.217.65,3.472.6,3.75,1.16-.043.044-4.14,1.465-8.266.893-12.389C1850.749-717.735,1844.579-720.932,1839.014-720.68Z" transform="translate(-1510.425 -1325.065)" fill="#6c6f7c"/>
      <path id="Path_5712" data-name="Path 5712" d="M1804.98-723.136a54.386,54.386,0,0,0,8.392,6.453c2.8,1.629,6.123,3.183,7.286,6.444.826,3.167-.076,6.528,1.023,9.662.656,2.115.975,4.615,1.069.629-.16-3.707,1.835-7.156,1.332-10.854C1822.081-719.074,1811.7-720.282,1804.98-723.136Z" transform="translate(-1484.38 -1323.057)" fill="#6c6f7c"/>
      <path id="Path_5713" data-name="Path 5713" d="M1673.862-743.069l-.03.059c.034-.064.067-.13.1-.194Zm-.677,1.311-.043.08Zm.785-1.522c-.05.1-.1.2-.153.295.005-.007.009-.016.014-.025l-.082.156.213-.41-.032.06C1673.945-743.229,1673.958-743.254,1673.97-743.28Zm8.94-10.963c-15.618,2.4-13.54,23.984-27.4,30.291a5.313,5.313,0,0,1-3.144.613c5.714,1.929,12.066-2.67,15.135-7.313,4.446-6.387,5.867-14.964,12.575-19.629,2.071-1.14,4.831-2.984,7.046-1.2a9.127,9.127,0,0,1,1.407,2.321A4.681,4.681,0,0,0,1682.91-754.243Z" transform="translate(-1358.877 -1297.403)" fill="#6c6f7c"/>
      <path id="Path_5714" data-name="Path 5714" d="M1642.341-699.166c3.144,4.036,3.016,7.758-2.7,8.572-5.3-.975-10.155-3.657-15.29-5.249-3.675-1.192-7.394-2.318-11.133-3.258a64.254,64.254,0,0,0,6.828,4.554c6.334,3.217,13.059,6.705,20.188,7.46C1647.316-688.376,1648.733-695.537,1642.341-699.166Z" transform="translate(-1326.681 -1342.769)" fill="#6c6f7c"/>
      <path id="Path_5715" data-name="Path 5715" d="M1533.82-807.506c6.547,4.993,14.437,7.547,21.922,10.732,8.355,3.842,16.682,8.023,25.645,10.238C1566.283-795.177,1551.223-804.481,1533.82-807.506Z" transform="translate(-1261.384 -1253.673)" fill="#6c6f7c"/>
      <path id="Path_5716" data-name="Path 5716" d="M1582.907-727.886c-5.533,4.366-8.7,10.7-12.828,16.242C1576.707-714.657,1580.812-721.138,1582.907-727.886Z" transform="translate(-1291.203 -1319.151)" fill="#6c6f7c"/>
      <path id="Path_5717" data-name="Path 5717" d="M1644.641-663.272l.032.053Zm-4.174-4.314c-1.963,2.57,2.371,3.641,4.128,4.291.259,2.8-.273,5.623-.258,8.43,1.59-2.714,5.485-9.5.659-10.771-1.435-.43-3.7.32-4.552-1.194.005.021.012.041.018.06A3.307,3.307,0,0,1,1640.467-667.586Z" transform="translate(-1348.677 -1368.74)" fill="#6c6f7c"/>
      <path id="Path_5718" data-name="Path 5718" d="M1595.753-658.187c-2.888.52-5.932,2.758-6.073,5.886C1590.888-655.457,1604.605-658.978,1595.753-658.187Z" transform="translate(-1307.322 -1376.377)" fill="#6c6f7c"/>
      <path id="Path_5719" data-name="Path 5719" d="M1616.865-632.662c-2.9.021-6.163,2.948-6.675,5.069.2-.115.392-.233.588-.352l-.011.007a32.537,32.537,0,0,1,7.655-3.622C1622.192-632.17,1618.687-632.756,1616.865-632.662Z" transform="translate(-1324.189 -1397.453)" fill="#6c6f7c"/>
      <path id="Path_5720" data-name="Path 5720" d="M1738.082-611.716c-.382,2.918,1.147,5.421,1.973,8.091C1740.82-606.416,1739.591-609.391,1738.082-611.716Z" transform="translate(-1429.315 -1414.687)" fill="#6c6f7c"/>
      <path id="Path_5721" data-name="Path 5721" d="M1727.921-591.246a5.8,5.8,0,0,0,1.405,3.838A6.117,6.117,0,0,0,1727.921-591.246Z" transform="translate(-1421.007 -1431.521)" fill="#6c6f7c"/>
      <path id="Path_5722" data-name="Path 5722" d="M1617.563-464.206c-7.4,3.856-13.906,4.714-21.883,1.828C1602.515-455.542,1612.046-456.142,1617.563-464.206Z" transform="translate(-1312.256 -1535.996)" fill="#6c6f7c"/>
      <path id="Path_5723" data-name="Path 5723" d="M1547.805-572.206a6.019,6.019,0,0,0-.556,6.577A43.663,43.663,0,0,0,1547.805-572.206Z" transform="translate(-1271.827 -1447.179)" fill="#6c6f7c"/>
      <path id="Path_5724" data-name="Path 5724" d="M1572.676-558.806a2.28,2.28,0,0,0-.265,2.982C1572.5-556.8,1572.578-557.826,1572.676-558.806Z" transform="translate(-1292.765 -1458.199)" fill="#6c6f7c"/>
      <path id="Path_5725" data-name="Path 5725" d="M1642.842-458.216c-1.457.249-2.941-.062-4.409.087.028,0,.059,0,.089,0-2.128.092-4.2.647-6.332.71C1635.348-455.4,1639.847-456.321,1642.842-458.216Z" transform="translate(-1342.281 -1540.922)" fill="#6c6f7c"/>
      <path id="Path_5726" data-name="Path 5726" d="M153.745-583.654l.032.053-.122-.206Zm3.016-11.746c-6.346,2.053-11.489,8.05-4.263,13,1.124.954,2.289,1.893,3.474,2.755-2.425-5.352-6.834-7.563-1.135-12.709C155.456-593.821,160.179-596.27,156.761-595.4Z" transform="translate(-122.516 -1427.954)" fill="#6c6f7c"/>
      <path id="Path_5727" data-name="Path 5727" d="M190.54-505.576c6.044,8.762,15.706,18.437,27.259,14.169C206.77-491.5,199.594-500.816,190.54-505.576Z" transform="translate(-156.696 -1501.974)" fill="#6c6f7c"/>
      <path id="Path_5728" data-name="Path 5728" d="M159.1-512.633c-.02-.011-.039-.021-.059-.034C159.064-512.654,159.083-512.643,159.1-512.633Zm-5.5-9.783c-1.588,4.826,1.27,7.865,5.443,9.75-.02-.011-.041-.023-.062-.036.042.025.085.05.127.073a.011.011,0,0,1-.006,0c4.581,2.993-.93-2.8-2.5-4.169.019.018.038.036.057.055C154.824-518.091,154.384-520.418,153.6-522.416Z" transform="translate(-125.952 -1488.125)" fill="#6c6f7c"/>
      <path id="Path_5729" data-name="Path 5729" d="M215-447.944c.025.025.049.05.074.073C215.051-447.894,215.027-447.919,215-447.944Zm-3.119-2.851.022.021Zm-.79-.782a33.448,33.448,0,0,0,13.374,15.707c3.867,3.233,8.979,3.007,13.559,1.728-3.031-.568-6.178-.707-8.907-2.32-4.9-3.643-9.573-7.618-14.219-11.583a.285.285,0,0,1,.023.023c-1.123-1.174-2.415-2.165-3.572-3.3a.111.111,0,0,1,.016.014C211.276-451.393,211.184-451.5,211.093-451.576Z" transform="translate(-173.599 -1546.383)" fill="#6c6f7c"/>
      <path id="Path_5730" data-name="Path 5730" d="M183.088-563.566c.417.783.859,1.554,1.313,2.318l-.078-.131c4.85,7.721,12.157,13.147,19.656,18.064-2.3-3.615-5.751-6.336-8.5-9.6C192.106-557.287,187.633-560.536,183.088-563.566Z" transform="translate(-150.568 -1454.284)" fill="#6c6f7c"/>
      <path id="Path_5731" data-name="Path 5731" d="M243.475-569.586c5.375,8.826,13.257,16.343,21.643,22.273C258.509-555.353,252.821-564.362,243.475-569.586Z" transform="translate(-200.229 -1449.333)" fill="#6c6f7c"/>
      <path id="Path_5732" data-name="Path 5732" d="M516.387-622.124C454.051-615,391.7-607.322,329.16-601.981a95.517,95.517,0,0,0-10.8,2.028,88.219,88.219,0,0,0,8.988-.133q93.484-11.03,187.33-19.028C523.63-620.833,532.43-622.433,516.387-622.124Z" transform="translate(-261.814 -1406.095)" fill="#6c6f7c"/>
      <path id="Path_5733" data-name="Path 5733" d="M539.885-676.111Q452-664.786,363.852-654.856c-3.647.611-7.322,1.24-10.883,2.2,3.058.082,6.114-.092,9.165-.277,58.684-6.874,117.328-14.442,176.129-20.252C546.29-674.937,554.656-676.472,539.885-676.111Z" transform="translate(-290.275 -1361.686)" fill="#6c6f7c"/>
      <path id="Path_5734" data-name="Path 5734" d="M571.6-565.312c-17.185.361-34.165,3.385-51.279,4.728-46.492,4.346-93.119,7.133-139.671,10.545-8.591,1.44-17.737,2.9-1.806,2.92,61.529-5.483,123.019-12.137,184.735-15.476a164.833,164.833,0,0,0,17.151-2.627C577.691-565.413,574.641-565.348,571.6-565.312Z" transform="translate(-304.382 -1452.815)" fill="#6c6f7c"/>
      <path id="Path_5735" data-name="Path 5735" d="M348.438-526.876c3.769,7.522,11.421,11.67,18.638,15.309C362.014-517.951,355.464-522.849,348.438-526.876Z" transform="translate(-286.549 -1484.457)" fill="#6c6f7c"/>
      <path id="Path_5736" data-name="Path 5736" d="M208.952-402.159l-.021.069Zm.5-2.567c-.356,4.52-3.412,8.172-4.573,12.456-1.837,6.632-1.387,11.927,6.859,8.394-2.823-.332-6.54.126-4.949-3.94C207.784-393.38,211.8-399.051,209.448-404.726Z" transform="translate(-167.756 -1584.911)" fill="#6c6f7c"/>
      <path id="Path_5737" data-name="Path 5737" d="M266.19-357.376c-1.39,2.021-3.3,3.647-4.472,5.831-1.221,2-1.832,4.364-3.412,6.128A16.381,16.381,0,0,0,266.19-357.376Z" transform="translate(-212.425 -1623.851)" fill="#6c6f7c"/>
      <path id="Path_5738" data-name="Path 5738" d="M398.819-338.436a6.718,6.718,0,0,0-.885,5.371C398.51-334.782,399.185-336.567,398.819-338.436Z" transform="translate(-327.05 -1639.427)" fill="#6c6f7c"/>
      <path id="Path_5739" data-name="Path 5739" d="M426.085-317.876c-5.465,2.435-11.886,2.819-17.817,2.577l.042,0c-11.335-1.091,1.86,3.2,5.814,2.973C418.387-312.849,423.4-314.338,426.085-317.876Z" transform="translate(-332.089 -1656.335)" fill="#6c6f7c"/>
      <path id="Path_5740" data-name="Path 5740" d="M528.535-346.026a7.522,7.522,0,0,0-.673,5.414A8.9,8.9,0,0,0,528.535-346.026Z" transform="translate(-433.919 -1633.185)" fill="#6c6f7c"/>
      <path id="Path_5741" data-name="Path 5741" d="M450.332-341.386c-1.027,5.755,13.023,1.806,15.032.531,0,0,.005,0,.007,0-2.98.144-5.988-.542-8.954.1C454.549-340.686,451.115-338.864,450.332-341.386Z" transform="translate(-370.3 -1637.001)" fill="#6c6f7c"/>
      <path id="Path_5742" data-name="Path 5742" d="M366.25-317.921l-.04.021Zm-.02-1.393c-2.03-.036-1.787,2.448-1.83,3.87-.075,1.025-.477,2.2.49.757,1.538-3.723.9-3.089,4.83-4.083A10.392,10.392,0,0,0,366.229-319.314Z" transform="translate(-299.554 -1655.146)" fill="#6c6f7c"/>
      <path id="Path_5743" data-name="Path 5743" d="M365.325-299.622a.4.4,0,0,1,.037.023A.4.4,0,0,0,365.325-299.622Zm-1.235-.568c2.853.778,3.228,3.068,2.142,5.528q-1.038,3.73-2.09,7.455c-.857,4.05-4.681,16.725-1.809,19.567a8.777,8.777,0,0,0,3.284,1.506c-2.213-1.334-3.339-3.407-2.071-5.863C364.6-277.07,374.291-301.528,364.09-300.191Z" transform="translate(-297.11 -1670.836)" fill="#6c6f7c"/>
      <path id="Path_5744" data-name="Path 5744" d="M429.244-307.961a.116.116,0,0,0-.005.014A.116.116,0,0,1,429.244-307.961Zm.085-.266a.156.156,0,0,0-.009.027A.156.156,0,0,1,429.33-308.227Zm.139-.629a19.364,19.364,0,0,1-1.812,4.771c.021-.034.043-.066.066-.1-3.849,6.02-8.535,11.462-12.266,17.552-2.608,3.762-3.894,8.661-7.526,11.595C413.8-275.845,431.727-302.835,429.468-308.856Z" transform="translate(-335.474 -1663.753)" fill="#6c6f7c"/>
      <path id="Path_5745" data-name="Path 5745" d="M408.6-282.748a13.8,13.8,0,0,0-3.558.776C407.075-280.813,414.136-282.831,408.6-282.748Z" transform="translate(-333.097 -1685.222)" fill="#6c6f7c"/>
      <path id="Path_5746" data-name="Path 5746" d="M256.716-279.506c-4.831.522-9.248,3.133-12.749,6.407l.049-.048c-18.1,16.849-6.207,49.089,20.009,42.3,11.588-3.353,21.126-14.694,20.394-27.051a19.327,19.327,0,0,0-2.671-8.861,31.015,31.015,0,0,1,.686,6.373c0-.032,0-.064,0-.1.71,18.13-18.112,34.9-35.376,24.954-10.375-6.176-11.888-21.112-5.645-30.769C247.261-277.325,262.912-280.091,256.716-279.506Z" transform="translate(-193.534 -1687.829)" fill="#6c6f7c"/>
      <path id="Path_5747" data-name="Path 5747" d="M283.913-240.3c-12.426,1.615-21.271,16.639-15.747,28.126.782,2.606,7.527,9.506,3.327,3.575-4.678-8.449-2.057-19.68,4.808-26.165a24.862,24.862,0,0,1,4.885-3.574C282.377-239.239,287.482-240.713,283.913-240.3Z" transform="translate(-219.154 -1720.072)" fill="#6c6f7c"/>
      <path id="Path_5748" data-name="Path 5748" d="M323.167-182.036c-6.437,3.266-7.633,13.806-.653,17.122-3.388-3.771-2.975-9.641-.517-13.806C322.765-180.714,328.172-184.355,323.167-182.036Z" transform="translate(-261.34 -1767.433)" fill="#6c6f7c"/>
      <path id="Path_5749" data-name="Path 5749" d="M113.406-395.621a.216.216,0,0,1-.034,0A.216.216,0,0,0,113.406-395.621Zm.072,0c-.019,0-.039,0-.058,0Zm-7.139-43.89c-21.379,5.481-24.354,40.321-1.2,45.234a17.585,17.585,0,0,0,10.85-1.547,26.407,26.407,0,0,1-6.027.082c-15.753-1.144-22.694-18.028-15.21-31.11C99.953-437.852,115.781-441.268,106.34-439.513Z" transform="translate(-73.195 -1555.945)" fill="#6c6f7c"/>
      <path id="Path_5750" data-name="Path 5750" d="M336.854-350a73.662,73.662,0,0,0-.514,10.5C338.152-342.641,338.665-346.746,336.854-350Z" transform="translate(-276.599 -1629.92)" fill="#6c6f7c"/>
      <path id="Path_5751" data-name="Path 5751" d="M139.453-407.258c-16.211,3.636-20.008,30.389-2.44,34.828a13.56,13.56,0,0,0,6.108-.005,17.9,17.9,0,0,1-6.428-2.012c-10.16-5.433-10.115-20-2.375-27.535a23.573,23.573,0,0,1,8.632-5.618A13.353,13.353,0,0,0,139.453-407.258Z" transform="translate(-103.174 -1582.541)" fill="#6c6f7c"/>
      <path id="Path_5752" data-name="Path 5752" d="M315.546-348.436a72.142,72.142,0,0,1-1.066,13.41C317.522-338.667,318.319-344.429,315.546-348.436Z" transform="translate(-258.622 -1631.203)" fill="#6c6f7c"/>
      <path id="Path_5753" data-name="Path 5753" d="M185.732-338.39a.01.01,0,0,0-.007,0A.01.01,0,0,1,185.732-338.39Zm-2.758-17.726c-9.187,3.883-6.364,18.517,2.748,17.723a0,0,0,0,0,0,0C177.9-340.4,177.714-351.272,182.974-356.116Z" transform="translate(-145.832 -1624.887)" fill="#6c6f7c"/>
      <path id="Path_5754" data-name="Path 5754" d="M2053.526-376.454a.251.251,0,0,0,.027.018A.251.251,0,0,1,2053.526-376.454Zm3.767-43.918c-16.737,3.7-23.2,28.206-11.245,40.149a18.247,18.247,0,0,0,5.961,4.1c2.371.856,5.8,2.02,1.5-.346-12.78-8.615-13.684-28.9-1.844-38.732a29.188,29.188,0,0,1,9.355-5.414A14.837,14.837,0,0,0,2057.293-420.372Z" transform="translate(-1677.587 -1571.824)" fill="#6c6f7c"/>
      <path id="Path_5755" data-name="Path 5755" d="M2166.172-304.013a.006.006,0,0,0,.005,0Zm20.511-31.353c1.684,13.57-6.481,28.586-20.506,31.352,0,0,0,0-.007,0h0C2181.568-301.608,2193.974-321.677,2186.683-335.366Z" transform="translate(-1781.416 -1641.951)" fill="#6c6f7c"/>
      <path id="Path_5756" data-name="Path 5756" d="M2083.208-394.586l-.1.085Zm4.265-3.21a17.462,17.462,0,0,0-8.691,4.369l.126-.112a22.679,22.679,0,0,0-6.636,24.4c.577,1.71,3.016,6.829,1.808,2.623C2071.73-378.366,2077-391.535,2087.473-397.8Z" transform="translate(-1703.202 -1590.61)" fill="#6c6f7c"/>
      <path id="Path_5757" data-name="Path 5757" d="M2101.689-377.388c-.016.011-.034.021-.05.03C2101.655-377.367,2101.673-377.378,2101.689-377.388Zm4.59-2.076-.05.016Zm-1.858-.5c-18.551,2.565-20.637,32.559-1.847,36.32a14.133,14.133,0,0,0,10.566-2.556,19.569,19.569,0,0,1-4.469.73c-13.234.547-19.733-14.478-13.218-25.083C2099.9-380.047,2113.3-380.261,2104.42-379.967Z" transform="translate(-1718.327 -1605.215)" fill="#6c6f7c"/>
      <path id="Path_5758" data-name="Path 5758" d="M2140.162-320.462c-.007.014-.014.027-.023.041C2140.148-320.435,2140.155-320.448,2140.162-320.462Zm2.094-2.824c-12.776,7.343-.714,27.48,10.975,16.035A10.935,10.935,0,0,0,2155-319.485a11.816,11.816,0,0,1,.062,5.1c-5.528,16.115-23.972,3.115-12.9-8.8,0,0,0,0,0,0A.87.87,0,0,0,2142.256-323.286Z" transform="translate(-1757.248 -1651.886)" fill="#6c6f7c"/>
      <path id="Path_5759" data-name="Path 5759" d="M2162.223-433.006v0Zm-7.229-16.14.03.044A.4.4,0,0,1,2154.994-449.146Zm-.087-.158c.005.016.013.034.02.052C2154.919-449.271,2154.912-449.287,2154.906-449.3Zm-.041-.183c0,.005,0,.011,0,.016S2154.865-449.482,2154.865-449.487Zm.018-.2a.1.1,0,0,1,0,.02A.1.1,0,0,0,2154.883-449.686Zm.247-.78c-2.494,2.655,2.872,3.943,4.577,4.972,2.368.87-.9,6.334-.764,8.465-.682,6.222-2.975,12.464-1.728,18.742,1.408,4.8,6.087,2.238,8.723.066-5.142,1.52-6.98,1.847-5.757-4.325.385-4.7,6.039-22.192,2.254-24.574C2160.793-448.5,2153.869-447.219,2155.13-450.466Z" transform="translate(-1771.803 -1547.295)" fill="#6c6f7c"/>
      <path id="Path_5760" data-name="Path 5760" d="M2230.4-433.186c-2.8,4.464-4.975,9.288-7.862,13.7-2.885,3.732-3.947,8.275-5.439,12.639-.737,2.03-5.376,5.108-.888,2.8,3.534-1.815,4.412-6.085,6.357-9.242C2226.691-419.23,2229.886-425.88,2230.4-433.186Z" transform="translate(-1820.984 -1561.506)" fill="#6c6f7c"/>
      <path id="Path_5761" data-name="Path 5761" d="M2187.77-454.586c3.01,6.249,18.574,8.238,21.169,1.213-4.156,3.1-13.723,1.323-19.446-.311.041.02.082.039.123.057A16.5,16.5,0,0,1,2187.77-454.586Z" transform="translate(-1799.179 -1543.907)" fill="#6c6f7c"/>
      <path id="Path_5762" data-name="Path 5762" d="M2298.18-493.906c1.65,2.682.87,5.615,1.261,8.526C2301.027-488.46,2301.857-491.979,2298.18-493.906Z" transform="translate(-1889.979 -1511.571)" fill="#6c6f7c"/>
      <path id="Path_5763" data-name="Path 5763" d="M2217.413-491.793a.077.077,0,0,1-.02.014A.173.173,0,0,0,2217.413-491.793Zm.83-.723c-2.233,2.327-5.744,1.675-8.652,1.938a31.328,31.328,0,0,1-8.93.421C2204.917-487.065,2216.388-486.429,2218.242-492.516Z" transform="translate(-1809.78 -1512.714)" fill="#6c6f7c"/>
      <path id="Path_5764" data-name="Path 5764" d="M2187.5-505.141c.014.037.027.075.041.11A.815.815,0,0,1,2187.5-505.141Zm1.329-2.8c-6.188,3.346-.869,6.222,3.75,5.107C2189.778-504.251,2185.742-504.037,2188.828-507.946Z" transform="translate(-1797.742 -1500.025)" fill="#6c6f7c"/>
      <path id="Path_5765" data-name="Path 5765" d="M2266-520.736c-.547,3.684,3.213,4.027,5.631,5.188C2270.485-517.967,2267.078-518.141,2266-520.736Z" transform="translate(-1863.471 -1489.507)" fill="#6c6f7c"/>
      <path id="Path_5766" data-name="Path 5766" d="M2167.681-485.391a.609.609,0,0,1-.053.037Zm1.435-4.1-.016.036C2169.106-489.462,2169.111-489.475,2169.117-489.487Zm.57-1.089c-3.318,1.318-1.657,3.377-2.3,5.325a4.229,4.229,0,0,0-2.563,1.748,7.241,7.241,0,0,1,3.11-.437C2171.129-484.665,2167.461-488.562,2169.687-490.576Z" transform="translate(-1780.306 -1514.31)" fill="#6c6f7c"/>
      <path id="Path_5767" data-name="Path 5767" d="M2148.811-449.111c0,.009-.009.018-.012.027C2148.8-449.093,2148.808-449.1,2148.811-449.111Zm-.412-.641c-1.366,1.018-1.034,2.924-.451,4.291.378-1.668.344-3.6,1.8-4.766A3.266,3.266,0,0,0,2148.4-449.752Z" transform="translate(-1766.015 -1547.493)" fill="#6c6f7c"/>
      <path id="Path_5768" data-name="Path 5768" d="M1735.439-978.893c.158-.009.318-.018.476-.025C1735.757-978.911,1735.6-978.9,1735.439-978.893Zm3.67-.073c-8.144-.034-16.163,1.684-24.186,2.84-1.218.282-2.456.568-3.652.908,5.472.117,10.931.993,16.4.455,8.645-.608,17.6-.4,25.883-3.247C1748.733-978.145,1743.952-979.156,1739.108-978.966Z" transform="translate(-1407.315 -1112.648)" fill="#6c6f7c"/>
      <path id="Path_5769" data-name="Path 5769" d="M1389.757-972.688c-.011.012-.021.025-.032.036A.21.21,0,0,1,1389.757-972.688Zm1.7-.174c-.051,0-.1.007-.156.009Zm20.023-3.274c-7.465.2-15.071.135-22.38,1.815-2.735.844,2.479,7.055,1.485,4.87,0,0,0,.009,0,.012-.284-1.343-1.737-3.769.623-3.41,3.512,0,7.016.247,10.526.306,6.9.06,13.794.726,20.68.133a97.87,97.87,0,0,0,11.785-1.584A91.836,91.836,0,0,0,1411.484-976.136Z" transform="translate(-1141.712 -1114.938)" fill="#6c6f7c"/>
      <path id="Path_5770" data-name="Path 5770" d="M1923.27-942.059c0,.018-.009.035-.012.051A.281.281,0,0,1,1923.27-942.059Zm-.037-.32a.916.916,0,0,1,.036.112C1923.255-942.3,1923.245-942.342,1923.232-942.379Zm-1.712-10.867a22.93,22.93,0,0,0,1.748,11.186c0-.016.005-.034.009-.05-.41.748-1.405,1.217.027.784C1925.866-942.271,1922.87-951.535,1921.52-953.246Z" transform="translate(-1580.132 -1133.819)" fill="#6c6f7c"/>
      <path id="Path_5771" data-name="Path 5771" d="M1989.584-2151.55c-3.751,10.868-5.366,22.307-6.9,33.657-1.854,12.19-3.592,24.4-5.44,36.59-4.949,31.232-9.687,62.5-14.906,93.691-2.355,16.263-6.416,32.336-7.609,48.736-.06,2.289-.005,4.6.078,6.877q.823-2.259,1.567-4.545c5.106-18.818,6.091-38.562,9.485-57.745q6.506-41.664,13.218-83.3c2.21-13.661,4.6-27.291,6.86-40.943C1987.939-2129.417,1989.792-2140.452,1989.584-2151.55Z" transform="translate(-1607.512 -148.357)" fill="#6c6f7c"/>
      <path id="Path_5772" data-name="Path 5772" d="M1803.98-2309.557c-6.227,2.638-.7,12.251-5.33,16.6,4.908-2.35,4.222-8.252,5.826-12.615-1.119,11.433-.956,17.218,12.392,13.5-.162.021-.323.042-.485.062a35.632,35.632,0,0,1,10.97-.247l-.178-.021c4.016-.236,2.764,3.947,2.339,6.517-.421,3.428-.325,6.892-.577,10.337,1.744-4.039,2.657-8.385,4.306-12.471,2.254-7.215-3.206-8.144-8.932-8.3-5-.373-9.915.977-14.867,1.092C1805-2298.1,1812.9-2310.235,1803.98-2309.557Z" transform="translate(-1479.175 -18.393)" fill="#6c6f7c"/>
      <path id="Path_5773" data-name="Path 5773" d="M1681.686-2217.69c-5.927,3.581-13.027,1.469-19.437,3.455-10.2,2.885-7.38,9.844-6.995,17.913.005,1.076,0,2.172-.036,3.236a17.33,17.33,0,0,0,.792-2.313c1.579-3.932.687-8.487,2.5-12.279C1664.713-2214.038,1676.251-2210.036,1681.686-2217.69Z" transform="translate(-1360.719 -93.965)" fill="#6c6f7c"/>
      <path id="Path_5774" data-name="Path 5774" d="M1820.556-2156.425l.023,0Zm-.412-2.535c-4.27.966-3.3,6.737-5.823,9.467-2.405,2.522.325.954,1.741.064,2.378-1.67,2.687-4.8,4.4-6.948,1.03,1.529,1.219,3.513,1.979,5.179C1822.629-2153.717,1823.98-2158.777,1820.144-2158.96Z" transform="translate(-1491.278 -142.263)" fill="#6c6f7c"/>
      <path id="Path_5775" data-name="Path 5775" d="M1707.6-2184.7l-.089.037Zm.046-.018-.037.016Zm41.531-5.981c-9.321.222-18.533,2-27.842,2.492a50.641,50.641,0,0,0-16.551,4.68,205.778,205.778,0,0,0,43.49-6.009,26.766,26.766,0,0,1,6.528-.613C1753.034-2190.819,1751.036-2190.629,1749.172-2190.7Z" transform="translate(-1401.978 -116.161)" fill="#6c6f7c"/>
      <path id="Path_5776" data-name="Path 5776" d="M2054.984-2271.77c-4.8,1.284-9.643,2.375-14.4,3.808-5.46,1.044-11.408,2.991-14.423,8.041-1.886,3.769-.918,8.259-2.54,12.131,2.73-3.025,2.973-7.3,5.126-10.622,3.123-3.79,7.924-5.08,12.49-6.181A46.077,46.077,0,0,0,2054.984-2271.77Z" transform="translate(-1664.186 -49.49)" fill="#6c6f7c"/>
      <path id="Path_5777" data-name="Path 5777" d="M2000.732-2192.733c-2.039-.012-7.883.54-3.133,1.355C2000.02-2190.665,2007.071-2193.072,2000.732-2192.733Z" transform="translate(-1641.294 -114.462)" fill="#6c6f7c"/>
      <path id="Path_5778" data-name="Path 5778" d="M2062.49-2195.533c-3.407.91-3.345,1.808.2,1.023C2065.731-2195.227,2065.5-2195.771,2062.49-2195.533Z" transform="translate(-1694.089 -112.14)" fill="#6c6f7c"/>
      <path id="Path_5779" data-name="Path 5779" d="M2141.58-2198.621c5.307,2.526,1.759,8.954,1.362,13.334C2146.541-2189.039,2149.774-2198.8,2141.58-2198.621Z" transform="translate(-1761.194 -109.645)" fill="#6c6f7c"/>
      <path id="Path_5780" data-name="Path 5780" d="M2150.638-2221.707c-7.842,1.584-10.32,8.979-11.029,16.05-1.583,7.355-2.455,14.893-4.241,22.179-1.007,2.812-3.312,4.684-6.378,4.144,2.257,1.119,4.984,1.224,6.778-.785,5.211-5.168,5.24-15.664,6.973-22.639,1.138-6.083,1.243-12.975,6.9-16.8a20.142,20.142,0,0,1,4.609-2.407A22.793,22.793,0,0,0,2150.638-2221.707Z" transform="translate(-1750.84 -90.445)" fill="#6c6f7c"/>
      <path id="Path_5781" data-name="Path 5781" d="M2193.85-2293.1c3.693,5.119,9.405,7.54,15.187,9.457,4.666,2.453.151-1.327-1.393-2.535A70.308,70.308,0,0,0,2193.85-2293.1Z" transform="translate(-1804.18 -31.949)" fill="#6c6f7c"/>
      <path id="Path_5782" data-name="Path 5782" d="M2223.7-2331.8c-3.108.21-5.712,2-8.463,3.256-3.748,1.449-7.606,2.691-11.451,3.821,11.954,2.137,18.556-6.357,26.2-2.671,4.314,2.591-3.842,6.3-6.036,7.611a73.59,73.59,0,0,0-12.087,8.13c6.471-2.6,13.354-4.375,19.435-7.842C2240.55-2326.779,2232.731-2332.994,2223.7-2331.8Z" transform="translate(-1812.354)" fill="#6c6f7c"/>
      <path id="Path_5783" data-name="Path 5783" d="M1909.915-2301.071c-9.671.519-19.233,2.135-28.833,3.334-7.741,1.192-15.657,1.689-23.034,4.535-6.931,1.973,12.78-.089,15.17-.265,10.234-1.611,20.5-2.98,30.769-4.311,5.277-.883,10.547-1.9,15.741-3.138A83.318,83.318,0,0,0,1909.915-2301.071Z" transform="translate(-1526.814 -25.338)" fill="#6c6f7c"/>
      <path id="Path_5784" data-name="Path 5784" d="M2004.329-2240.64a21.43,21.43,0,0,0-7.929,1.865,19.792,19.792,0,0,0,10.423-.737C2011.986-2240.343,2006.475-2240.711,2004.329-2240.64Z" transform="translate(-1641.8 -75.084)" fill="#6c6f7c"/>
      <path id="Path_5785" data-name="Path 5785" d="M2165.278-2255.09c-2.1.005-12.8,2.16-6.517,2.252C2162.906-2252.182,2177.327-2254.223,2165.278-2255.09Z" transform="translate(-1773.716 -63.208)" fill="#6c6f7c"/>
      <path id="Path_5786" data-name="Path 5786" d="M1566.871-2210.459c-7.085,1.227-15.1,3.176-16.972,11.179-.549,2.345-4.224,11.549-.44,5.721,2.478-3.194,3.529-7.481,6.8-10.025C1559.219-2205.814,1579.421-2213.669,1566.871-2210.459Z" transform="translate(-1272.855 -99.286)" fill="#6c6f7c"/>
      <path id="Path_5787" data-name="Path 5787" d="M1678.436-2247.725a.2.2,0,0,0-.025.018A.2.2,0,0,1,1678.436-2247.725Zm19.677-7.625c-3.529,1.556-21.357,3.7-21.142,7.208.934,1.466,3.3,1.51,4.869,2.02-.732-.609-1.488-1.231-2.22-1.854,7.41-.291,14.083-3.25,20.236-7.162-.014.007-.028.012-.044.02C1701.664-2255.6,1698.87-2255.541,1698.113-2255.35Z" transform="translate(-1379.107 -62.878)" fill="#6c6f7c"/>
      <path id="Path_5788" data-name="Path 5788" d="M1722.41-2181.06c1.128,1.135,2.648,2.332,4.33,2.185C1725.373-2179.763,1724.127-2180.945,1722.41-2181.06Z" transform="translate(-1416.476 -124.089)" fill="#6c6f7c"/>
      <path id="Path_5789" data-name="Path 5789" d="M1757.313-2197.293c-3.776.064-7.121,2.1-10.149,4.171C1740.31-2188.72,1764.827-2198.432,1757.313-2197.293Z" transform="translate(-1435.828 -110.662)" fill="#6c6f7c"/>
      <path id="Path_5790" data-name="Path 5790" d="M1811.893-2216.965v.005Zm.067-.6c-1.877,1.542-1.727,4.743,1.282,3.975a13.182,13.182,0,0,0,3.8-2.092c-1.909-.25-6.179,2.314-5.146-1.282,0,.009,0,.016,0,.023,0-.016.005-.032.007-.048,0,.007,0,.012,0,.02C1811.916-2217.162,1811.952-2217.372,1811.961-2217.56Z" transform="translate(-1489.109 -94.072)" fill="#6c6f7c"/>
      <path id="Path_5791" data-name="Path 5791" d="M1527.409-2061.467l-.027.038Zm1.426-3.893c-1.224.662-3.062,6.227-1.407,3.865a.125.125,0,0,0-.009.013A7.512,7.512,0,0,0,1528.835-2065.36Z" transform="translate(-1255.585 -219.238)" fill="#6c6f7c"/>
      <path id="Path_5792" data-name="Path 5792" d="M1626.1-2168.82c-6.346,2.826-5.144,14.13-5.746,20.025a33.474,33.474,0,0,0,3.652-10.327C1623.933-2162.475,1624.107-2165.983,1626.1-2168.82Z" transform="translate(-1332.544 -134.154)" fill="#6c6f7c"/>
      <path id="Path_5793" data-name="Path 5793" d="M1691.383-2128.348l-.1,0C1691.316-2128.348,1691.349-2128.348,1691.383-2128.348Zm27.979-4.028c-8.551.529-17.19.1-25.636,1.756-3.563.6-7.408.771-10.446,2.908a33.112,33.112,0,0,1,8-.638h-.032c8.8-.366,17.623-.231,26.412-.678,5.389-.858,11.211-.584,16.215-2.972-3.932.261-7.883-.565-11.84-.4h.368C1721.39-2132.409,1720.376-2132.405,1719.362-2132.376Z" transform="translate(-1384.297 -164.09)" fill="#6c6f7c"/>
      <path id="Path_5794" data-name="Path 5794" d="M146.984-1800.849c0,.034,0,.066.006.1Zm.041-6.362-.028.032C147-1807.189,147.016-1807.2,147.025-1807.211Zm17.035-5.4c-6.148.769-12.557.607-18.524,2.325-4.267,1.354-.124,9.492.909,12.33.379.748.805,1.49,1.215,2.21a36.162,36.162,0,0,1-.685-7.869c-.4-3.872.467-3.627,4-3.863l-.048,0c5.906.169,11.572-2.167,17.416-2.014,1.907,1.3,3.584,3.231,5.939,3.853C170.331-1809.211,170.737-1813.241,164.06-1812.612Z" transform="translate(-118.131 -427.039)" fill="#6c6f7c"/>
      <path id="Path_5795" data-name="Path 5795" d="M188.295-1813.66c9.634,18.295,6.312,12.082-5.78,15.574-3.463,1.513-6.919,3.268-10.768,3.464-7.065-.36,2.856,2.176,5.363,1.51,3.229-.25,6.162-1.97,9.409-2.11,3.365-.373,7.352.236,10.14-2.041C200.9-1802.521,192.025-1810.351,188.295-1813.66Z" transform="translate(-139.189 -426.231)" fill="#6c6f7c"/>
      <path id="Path_5796" data-name="Path 5796" d="M40.164-1794.971a68.383,68.383,0,0,0-10.255,1.192c4.992,1.375,10.191,2.4,15.392,1.78a62.524,62.524,0,0,0,6.423-.876A30.372,30.372,0,0,0,40.164-1794.971Z" transform="translate(-24.597 -441.586)" fill="#6c6f7c"/>
      <path id="Path_5797" data-name="Path 5797" d="M4.288-1801.475l.02.06C4.3-1801.434,4.294-1801.456,4.288-1801.475Zm14.343-12.554,0,.018Zm0-.138c0,.011,0,.021,0,.032Zm-.047-.153.007.021Zm-.08-.107c.018.025.035.05.05.075Zm-8.7-3.2c-7.558-.158-12.149,4.529-8.555,11.876l-.133-.4c.931,2.293.719,8.757,4.483,4.917,3.788-3.645,2.327-2.478-1.291-.9.96-3.291-2.1-8.332,1.146-10.423,1.413-1.643,12.893-3.874,13.105-1.265l.035-.073a6.151,6.151,0,0,1-1.015,1.034c.875-.245,2.033-.63,1.856-1.758C17.788-1817.784,12.913-1817.383,9.8-1817.628Z" transform="translate(0 -422.965)" fill="#6c6f7c"/>
      <path id="Path_5798" data-name="Path 5798" d="M26.14-1768.755c-3.62.38-4.492,3.14-2.068,5.755,1.14,1.376,1.825,3.094,1.258.179-2.571-6.1,5.171-1.234,11.645-4.765C33.393-1768.025,29.77-1769.1,26.14-1768.755Z" transform="translate(-18.673 -463.106)" fill="#6c6f7c"/>
    </g>
  </g>
</svg>
