<svg xmlns="http://www.w3.org/2000/svg" width="209.763" height="42.723" viewBox="0 0 209.763 42.723">
  <g id="curly_arrow_icon" data-name="curly arrow icon" transform="translate(0 130.276)">
    <path id="Path_2549" data-name="Path 2549" d="M.764-67.276,0-69.44c1.036-.365,2.082-.727,3.115-1.076l.735,2.175C2.827-68,1.791-67.637.764-67.276Z" transform="translate(0 -40.162)" fill="#1f2327"/>
    <path id="Path_2550" data-name="Path 2550" d="M197.966-113.742c-1.079-.021-2.178-.031-3.26-.031h-.026c-1.046,0-2.115.01-3.171.03l-.046-2.3c1.082-.02,2.164-.023,3.243-.03,1.1,0,2.207.01,3.306.031Zm-16.138.453-.171-2.289c2.164-.163,4.365-.287,6.536-.368l.085,2.294C186.137-113.572,183.966-113.45,181.828-113.289Zm25.819.007c-2.138-.163-4.309-.286-6.451-.368l.089-2.294c2.171.082,4.368.208,6.536.373Zm-35.454.993-.3-2.276c2.155-.285,4.345-.533,6.5-.737l.216,2.286C176.479-112.816,174.318-112.571,172.193-112.289Zm-85.828.4-.092-2.294c2.26-.091,4.46-.146,6.539-.162l.016,2.3C90.775-112.037,88.6-111.983,86.365-111.892Zm16.141.066c-2.063-.119-4.234-.193-6.447-.22l.026-2.3c2.25.027,4.453.1,6.552.224Zm-25.832.518L76.49-113.6c2.164-.173,4.358-.319,6.519-.436l.121,2.292C80.99-111.625,78.819-111.48,76.674-111.309Zm35.437.44c-2.053-.3-4.2-.545-6.392-.73l.193-2.287c2.237.189,4.434.44,6.529.746Zm50.516.122L162.2-113c2.132-.406,4.3-.778,6.451-1.1l.344,2.269C166.874-111.514,164.732-111.148,162.627-110.747Zm-95.614.4-.272-2.28c2.151-.256,4.335-.488,6.5-.689l.213,2.285C71.309-110.831,69.144-110.6,67.013-110.347Zm-9.618,1.336-.361-2.267c2.141-.34,4.316-.656,6.464-.941l.3,2.276C61.671-109.661,59.513-109.347,57.394-109.01Zm64.152.038c-2.01-.526-4.116-.99-6.264-1.379l.41-2.259c2.2.4,4.368.876,6.434,1.417Zm31.62.309-.557-2.227c2.105-.527,4.253-1.021,6.378-1.469l.472,2.247C157.36-109.671,155.245-109.184,153.166-108.663ZM47.835-107.3l-.446-2.252c2.125-.422,4.286-.823,6.421-1.191l.39,2.262C52.082-108.117,49.94-107.721,47.835-107.3Zm96,1.259-.685-2.191c2.073-.648,4.188-1.264,6.287-1.832l.6,2.216C147.968-107.289,145.882-106.681,143.839-106.043Zm-13.2.105c-1.925-.8-3.948-1.522-6.018-2.159l.676-2.194c2.138.658,4.23,1.409,6.221,2.231Zm-92.292.713-.535-2.233c2.109-.505,4.253-.99,6.372-1.439l.476,2.245C42.565-106.2,40.443-105.725,38.351-105.224Zm-9.4,2.444-.62-2.21c2.086-.586,4.207-1.153,6.31-1.686l.564,2.225C33.124-103.922,31.018-103.36,28.952-102.78Zm110.138,1.21c-.885-.6-1.84-1.173-2.9-1.747-.466.2-.908.4-1.335.61l-.823-1.712-.469-.225.981-2.075c.4.188.79.379,1.184.575.193.1.387.194.574.291,1.118-.452,2.345-.9,3.732-1.371l.735,2.175q-.979.33-1.85.649c.505.3.987.613,1.453.927Zm-119.432,1.6-.708-2.184c2.059-.666,4.158-1.315,6.244-1.93l.649,2.2C23.777-101.275,21.7-100.632,19.658-99.972Zm107.81,2.724L125.7-98.711a20.994,20.994,0,0,1,5.2-4.449l1.213,1.949A18.718,18.718,0,0,0,127.469-97.248Zm17.945,2.239a16.96,16.96,0,0,0-3.85-4.676l1.505-1.733a19.213,19.213,0,0,1,4.365,5.316Zm-23.1,6.09c0-.126,0-.252,0-.378a15,15,0,0,1,1.492-6.447l2.069.994a12.73,12.73,0,0,0-1.266,5.456c0,.106,0,.208,0,.31ZM148.6-85.772l-2.2-.656a10.344,10.344,0,0,0,.42-2.97,11.913,11.913,0,0,0-.351-2.855l2.23-.55a14.3,14.3,0,0,1,.416,3.405A12.679,12.679,0,0,1,148.6-85.772Zm-21.132,5.919a10.35,10.35,0,0,1-1.607-1.12,9.78,9.78,0,0,1-2.948-4.423l2.178-.728a7.507,7.507,0,0,0,2.26,3.4,8.064,8.064,0,0,0,1.249.871Zm13.557,1.231-.6-2.215a9.208,9.208,0,0,0,3.62-1.839,7.3,7.3,0,0,0,1.108-1.2L147-82.515a9.7,9.7,0,0,1-1.463,1.58A11.457,11.457,0,0,1,141.029-78.621Zm-5.109.616c-.171,0-.338,0-.508,0a20.81,20.81,0,0,1-4.627-.555l.551-2.229a18.509,18.509,0,0,0,4.119.488c.676.012,1.358,0,1.987-.047l.161,2.29C137.064-78.025,136.5-78.006,135.92-78.005Z" transform="translate(-12.736 -9.548)" fill="#1f2327"/>
    <path id="Path_2551" data-name="Path 2551" d="M607.5-111.064c-1.079-.124-2.168-.238-3.24-.341l.216-2.285c1.089.1,2.194.22,3.286.346Z" transform="translate(-406.099 -11.147)" fill="#1f2327"/>
    <path id="Path_2552" data-name="Path 2552" d="M613.92-122.2a41.652,41.652,0,0,0-12.55,4.9l3.234-6.171-1.466-6.809A41.606,41.606,0,0,0,613.92-122.2Z" transform="translate(-404.157)" fill="#1f2327"/>
  </g>
</svg>
