<svg xmlns="http://www.w3.org/2000/svg" xmlns:xlink="http://www.w3.org/1999/xlink" width="244.081" height="343.781" viewBox="0 0 244.081 343.781">
  <defs>
    <clipPath id="clip-path">
      <path id="Path_5801" data-name="Path 5801" d="M291.881-1191.926l.03-1.324Z" transform="translate(-291.881 1193.25)" fill="none" clip-rule="evenodd"/>
    </clipPath>
    <linearGradient id="linear-gradient" x1="0.558" y1="0.191" x2="0.588" y2="0.191" gradientUnits="objectBoundingBox">
      <stop offset="0" stop-color="#fff"/>
      <stop offset="0.1" stop-color="#fffdfc"/>
      <stop offset="0.2" stop-color="#fffbfa"/>
      <stop offset="0.3" stop-color="#fff9f8"/>
      <stop offset="0.4" stop-color="#fff7f5"/>
      <stop offset="0.5" stop-color="#fff5f3"/>
      <stop offset="0.6" stop-color="#fff4f1"/>
      <stop offset="0.7" stop-color="#fff2ee"/>
      <stop offset="0.8" stop-color="#fff0ec"/>
      <stop offset="0.9" stop-color="#ffeeea"/>
      <stop offset="1" stop-color="#ffece8"/>
    </linearGradient>
    <clipPath id="clip-path-2">
      <path id="Path_5803" data-name="Path 5803" d="M247.574-1208.517c-14.042-8.851-14.453-25.273-14.453-25.273s7.126,6.6,14.549,10.017l-.03,1.324-.03,1.149v0C247.611-1221.156,247.6-1215.493,247.574-1208.517Z" transform="translate(-233.121 1233.79)" fill="none" clip-rule="evenodd"/>
    </clipPath>
    <linearGradient id="linear-gradient-2" x1="0.558" y1="0.191" x2="0.588" y2="0.191" gradientUnits="objectBoundingBox">
      <stop offset="0" stop-color="#ffb7a5"/>
      <stop offset="0.1" stop-color="#ffb5a3"/>
      <stop offset="0.2" stop-color="#ffb4a1"/>
      <stop offset="0.3" stop-color="#ffb2a0"/>
      <stop offset="0.4" stop-color="#ffb19e"/>
      <stop offset="0.5" stop-color="#ffaf9c"/>
      <stop offset="0.6" stop-color="#ffae9a"/>
      <stop offset="0.7" stop-color="#ffac98"/>
      <stop offset="0.8" stop-color="#ffaa97"/>
      <stop offset="0.9" stop-color="#ffa995"/>
      <stop offset="1" stop-color="#ffa793"/>
    </linearGradient>
    <clipPath id="clip-path-3">
      <path id="Path_5807" data-name="Path 5807" d="M38.852-471.226c-5.739-.986-8.871-5.678-8.87-9.034a4.834,4.834,0,0,1,.058-.756c7.423-6.891,13.2-18.028,17.261-23.506S60.733-512.3,60.733-512.3c-.166-3.271-.237-6.207-.237-8.831,0-13.958,2.006-19.094,2.006-19.094,6.269,12.677,13.153,28.046,13.148,37.562a12.854,12.854,0,0,1-.67,4.4c-.022.059-.044.121-.069.18C72.42-491.987,55.131-487.5,38.852-471.226Z" transform="translate(-29.982 540.223)" fill="none" clip-rule="evenodd"/>
    </clipPath>
    <linearGradient id="linear-gradient-3" x1="0.112" y1="0.451" x2="0.301" y2="0.451" gradientUnits="objectBoundingBox">
      <stop offset="0" stop-color="#135570"/>
      <stop offset="0.1" stop-color="#12536e"/>
      <stop offset="0.2" stop-color="#12516c"/>
      <stop offset="0.3" stop-color="#124f6a"/>
      <stop offset="0.4" stop-color="#124d68"/>
      <stop offset="0.5" stop-color="#114b66"/>
      <stop offset="0.6" stop-color="#114a64"/>
      <stop offset="0.7" stop-color="#114862"/>
      <stop offset="0.8" stop-color="#114660"/>
      <stop offset="0.9" stop-color="#11445e"/>
      <stop offset="1" stop-color="#10435c"/>
    </linearGradient>
    <clipPath id="clip-path-4">
      <path id="Path_5810" data-name="Path 5810" d="M244.258-802.069c-3.884-16.209-11.137-34.072-11.137-34.072,3.348-4.942,6.509-14.054,8.915-23,1.164,1.334,2.224,2.508,3.126,3.464-.124,2.3-.2,3.634-.2,3.634a9.916,9.916,0,0,0,3.16.47,19.116,19.116,0,0,0,4.02,5.54q-.011.824-.042,1.66l-5.466.164c-1.011.03-1.539,1.64-.9,2.74l1.114,1.918a1.164,1.164,0,0,0,.974.651l.054,0,3.9-.241C250.749-827.511,247.789-814.414,244.258-802.069Zm1.94-74.2c-.1-.187-.205-.375-.309-.563.24-1.528.413-2.864.512-3.952C246.333-879.261,246.266-877.749,246.2-876.271Zm.294-6.621v-.015Z" transform="translate(-233.121 882.907)" fill="none" clip-rule="evenodd"/>
    </clipPath>
    <linearGradient id="linear-gradient-4" x1="0.41" y1="0.675" x2="0.621" y2="0.675" xlink:href="#linear-gradient-3"/>
    <clipPath id="clip-path-5">
      <path id="Path_5814" data-name="Path 5814" d="M380.343-1037.348h0v0Zm-3.027-5.224c-.922-1.471-1.962-3.087-3.069-4.833C375.354-1045.658,376.394-1044.042,377.316-1042.572Zm9.632-1.084c-1.67-6.172-4.282-14.849-7.062-22.284C382.666-1058.505,385.278-1049.827,386.948-1043.656Zm-22.582-21.336c-.991-2.147-1.925-4.365-2.76-6.645-.423-1.159-1.025-2.6-1.725-4.184.7,1.582,1.3,3.025,1.727,4.184C362.441-1069.357,363.375-1067.137,364.366-1064.991Zm15.518-.955c-.022-.062-.047-.125-.069-.188C379.836-1066.072,379.861-1066.009,379.883-1065.946Zm-.094-.254-.022-.054Zm-1.423-3.63s0,0,0-.007S378.366-1069.832,378.366-1069.83Zm-.015-.039-.007-.015Zm-.017-.039a44.208,44.208,0,0,0-4.71-9.15,3.728,3.728,0,0,1-.353-.656,3.544,3.544,0,0,0,.356.656A44.348,44.348,0,0,1,378.334-1069.908Zm-16.019-51.568q-1.149-.653-2.268-1.325l.035.02c.734.442,1.48.875,2.231,1.3Z" transform="translate(-359.881 1122.8)" fill="none" clip-rule="evenodd"/>
    </clipPath>
    <linearGradient id="linear-gradient-5" x1="0.219" y1="0.514" x2="0.385" y2="0.514" gradientUnits="objectBoundingBox">
      <stop offset="0" stop-color="#fff"/>
      <stop offset="0.1" stop-color="#f4fcfd"/>
      <stop offset="0.2" stop-color="#eaf9fc"/>
      <stop offset="0.3" stop-color="#e0f6fb"/>
      <stop offset="0.4" stop-color="#d6f3fa"/>
      <stop offset="0.5" stop-color="#cbf0f9"/>
      <stop offset="0.6" stop-color="#c1edf8"/>
      <stop offset="0.7" stop-color="#b7eaf6"/>
      <stop offset="0.8" stop-color="#ace8f5"/>
      <stop offset="0.9" stop-color="#a2e5f4"/>
      <stop offset="1" stop-color="#98e2f3"/>
    </linearGradient>
    <clipPath id="clip-path-6">
      <path id="Path_5816" data-name="Path 5816" d="M346.835-1040.39a60.336,60.336,0,0,0-3.027-5.223c-.922-1.471-1.962-3.086-3.069-4.833a152.918,152.918,0,0,1-9.881-17.587c-.991-2.146-1.925-4.366-2.758-6.644-.425-1.159-1.028-2.6-1.727-4.184-3.089-6.98-8.082-16.672-8.082-16.672-3.094-7.245-4.606-25.75,0-29.16,2.058-1.525,3.563-2.147,4.964-2.147a6.942,6.942,0,0,1,3.262.986l.022.012q1.119.671,2.268,1.324c1.656.944,5.478,11.49,6.185,20.324.642,8.013,3.454,18.5,4.771,21.438a3.721,3.721,0,0,0,.353.656,44.209,44.209,0,0,1,4.71,9.15c0,.008.007.016.01.024l.007.015a.173.173,0,0,0,.012.031s0,.005,0,.007c.469,1.145.939,2.342,1.4,3.576l.022.054c.007.022.015.043.025.065.022.063.047.125.069.188a.008.008,0,0,1,0,.007c2.78,7.435,5.392,16.112,7.062,22.284.316,1.171.6,2.251.843,3.216a5.531,5.531,0,0,0-1.937-.341h-.072c-1.547.009-3.709.627-5.439,3.43Z" transform="translate(-315.375 1126.84)" fill="none" clip-rule="evenodd"/>
    </clipPath>
    <linearGradient id="linear-gradient-6" x1="0.219" y1="0.514" x2="0.385" y2="0.514" gradientUnits="objectBoundingBox">
      <stop offset="0" stop-color="#31b6e4"/>
      <stop offset="0.1" stop-color="#30b4e2"/>
      <stop offset="0.2" stop-color="#2fb1e1"/>
      <stop offset="0.3" stop-color="#2eafe0"/>
      <stop offset="0.4" stop-color="#2dacde"/>
      <stop offset="0.5" stop-color="#2caadd"/>
      <stop offset="0.6" stop-color="#2ba8dc"/>
      <stop offset="0.7" stop-color="#2aa5da"/>
      <stop offset="0.8" stop-color="#2aa3d9"/>
      <stop offset="0.9" stop-color="#29a0d8"/>
      <stop offset="1" stop-color="#289ed6"/>
    </linearGradient>
    <clipPath id="clip-path-7">
      <path id="Path_5819" data-name="Path 5819" d="M163.149-1036.4a216.955,216.955,0,0,1-15.443-18.356c-5.031-6.592-9.61-13.243-11.245-17.168-1.134-2.721-13.882-36.134-13.879-44.553a5.02,5.02,0,0,1,.094-1.045c1.07-4.813,4.445-7.069,8.228-7.069,4.44,0,9.439,3.111,11.92,8.836,4.6,10.605,6.793,37.088,7.776,38.353,11.137,14.316,16.79,28.631,21.386,35.878a11.528,11.528,0,0,0-1.648-.128h-.062a7.113,7.113,0,0,0-7.126,5.253Z" transform="translate(-122.581 1124.59)" fill="none" clip-rule="evenodd"/>
    </clipPath>
    <linearGradient id="linear-gradient-7" x1="0.183" y1="0.631" x2="0.357" y2="0.631" xlink:href="#linear-gradient-6"/>
    <clipPath id="clip-path-8">
      <path id="Path_5828" data-name="Path 5828" d="M440.431-766H461.1v-24.863h-20.67Z" transform="translate(-440.431 790.866)" fill="none" clip-rule="evenodd"/>
    </clipPath>
    <clipPath id="clip-path-9">
      <path id="Path_5830" data-name="Path 5830" d="M442.691-780.644v0a10.532,10.532,0,0,1,1.315-1.2A10.348,10.348,0,0,0,442.691-780.644Z" transform="translate(-442.691 781.849)" fill="none" clip-rule="evenodd"/>
    </clipPath>
    <linearGradient id="linear-gradient-8" x1="0.219" y1="0.514" x2="0.385" y2="0.514" gradientUnits="objectBoundingBox">
      <stop offset="0" stop-color="#ffb7a5"/>
      <stop offset="0.1" stop-color="#ffb7a5"/>
      <stop offset="0.2" stop-color="#ffb7a5"/>
      <stop offset="0.3" stop-color="#ffb7a5"/>
      <stop offset="0.4" stop-color="#ffb7a5"/>
      <stop offset="0.5" stop-color="#ffb7a5"/>
      <stop offset="0.6" stop-color="#ffb7a5"/>
      <stop offset="0.7" stop-color="#ffb7a5"/>
      <stop offset="0.8" stop-color="#ffb7a5"/>
      <stop offset="0.9" stop-color="#ffb7a5"/>
      <stop offset="1" stop-color="#ffb7a5"/>
    </linearGradient>
    <clipPath id="clip-path-11">
      <path id="Path_5832" data-name="Path 5832" d="M442.691-787.436c1.73-2.8,3.892-3.421,5.439-3.43h.072a5.53,5.53,0,0,1,1.937.341,4.965,4.965,0,0,0-.64-.034,9.112,9.112,0,0,0-5.493,1.921A10.518,10.518,0,0,0,442.691-787.436Z" transform="translate(-442.691 790.866)" fill="none" clip-rule="evenodd"/>
    </clipPath>
    <clipPath id="clip-path-12">
      <path id="Path_5853" data-name="Path 5853" d="M297.851-751.486a19.115,19.115,0,0,1-4.02-5.54h.22a25.307,25.307,0,0,0,3.667-.3q.148,2.213.146,4.565C297.864-752.338,297.859-751.913,297.851-751.486Z" transform="translate(-293.831 757.324)" fill="none" clip-rule="evenodd"/>
    </clipPath>
    <linearGradient id="linear-gradient-10" x1="0.41" y1="0.675" x2="0.621" y2="0.675" xlink:href="#linear-gradient-8"/>
    <clipPath id="clip-path-13">
      <path id="Path_5866" data-name="Path 5866" d="M286.761-764.51H310.6v-24.427H286.761Z" transform="translate(-286.761 788.937)" fill="none" clip-rule="evenodd"/>
    </clipPath>
    <clipPath id="clip-path-14">
      <path id="Path_5856" data-name="Path 5856" d="M286.761-783.684h0a7.113,7.113,0,0,1,7.126-5.253h.062a11.545,11.545,0,0,1,1.648.128c-.269-.024-.531-.035-.788-.035C289.365-788.844,286.786-783.731,286.761-783.684Z" transform="translate(-286.761 788.937)" fill="none" clip-rule="evenodd"/>
    </clipPath>
    <linearGradient id="linear-gradient-11" x1="0.183" y1="0.631" x2="0.357" y2="0.631" xlink:href="#linear-gradient-8"/>
  </defs>
  <g id="Group_1718" data-name="Group 1718" transform="translate(0 0)">
    <path id="Path_5799" data-name="Path 5799" d="M196.7-1344.114s-.119-9.661-1.885-13.432a8.249,8.249,0,0,1-2.476-6.951s-2.239-9.189,3.064-16.259,14.376-10.724,23.919-5.656,10.84,16.612,9.073,22.15-.353,8.367-2.829,14.492-4.005,10.487-8.955,9.311l-.059,2.473,2.782,35.384H202.121Z" transform="translate(-144.461 1389.394)" fill="#ffb7a5"/>
    <g id="Group_1694" data-name="Group 1694" transform="translate(72.123 48.934)" clip-path="url(#clip-path)">
      <g id="Group_1693" data-name="Group 1693" transform="matrix(0.789, -0.615, 0.615, 0.789, -238.831, 81.067)">
        <path id="Path_5800" data-name="Path 5800" d="M211.406,0,403.881,150.1l-211.406,271.1L0,271.1Z" transform="translate(0 0)" fill="url(#linear-gradient)"/>
      </g>
    </g>
    <g id="Group_1696" data-name="Group 1696" transform="translate(57.603 38.917)" clip-path="url(#clip-path-2)">
      <g id="Group_1695" data-name="Group 1695" transform="matrix(0.789, -0.615, 0.615, 0.789, -224.312, 91.085)">
        <path id="Path_5802" data-name="Path 5802" d="M211.406,0,403.881,150.1l-211.406,271.1L0,271.1Z" transform="translate(0 0)" fill="url(#linear-gradient-2)"/>
      </g>
    </g>
    <path id="Path_5804" data-name="Path 5804" d="M206.669-1124.58c6.479,5.083,19.676,7.655,24.388,2l-6.244,59.029-21.112,1.877Z" transform="translate(-153.367 1190.483)" fill="#fff"/>
    <path id="Path_5805" data-name="Path 5805" d="M62.5-540.223c7.361,14.886,15.572,33.487,12.478,41.958-.022.059-.044.121-.069.18-2.491,6.1-19.78,10.581-36.059,26.859-6.186-1.063-9.343-6.432-8.812-9.79,7.423-6.891,13.2-18.028,17.261-23.506S60.733-512.3,60.733-512.3C59.673-532.977,62.5-540.223,62.5-540.223Z" transform="translate(-22.574 750.518)" fill="#135570"/>
    <g id="Group_1698" data-name="Group 1698" transform="translate(7.408 210.295)" clip-path="url(#clip-path-3)">
      <g id="Group_1697" data-name="Group 1697" transform="translate(-176.687 -8.551) rotate(-50.001)">
        <path id="Path_5806" data-name="Path 5806" d="M263.355,0l156.89,186.979L156.89,407.954,0,220.975Z" transform="translate(0 0)" fill="url(#linear-gradient-3)"/>
      </g>
    </g>
    <path id="Path_5808" data-name="Path 5808" d="M141.961-805.786c6.536,30.878,2.931,43.035,2.118,48.906-4.774,34.453-4.532,69.276-4.532,69.276-6.185,3.536-12.506-.217-12.506-.217.885-7.6-5.587-51.739-5.231-55.451.351-3.692-.269-9.612,3.123-15.28.022-.035.04-.067.057-.1a7.543,7.543,0,0,0,.638-1.342c3.094-8.47-5.117-27.072-12.478-41.958-3-9.545-10.783-29.161-10.783-29.161-11.664-24.185,0-43.3,1.947-56.735,31.636,4.42,39.881,1.22,39.881,1.22.825,3.872,4.974,25.308,5.362,29.181C150.995-843.132,147.076-823.668,141.961-805.786Z" transform="translate(-73.221 1012.242)" fill="#135570"/>
    <g id="Group_1700" data-name="Group 1700" transform="translate(57.603 125.619)" clip-path="url(#clip-path-4)">
      <g id="Group_1699" data-name="Group 1699" transform="matrix(-0.199, 0.98, -0.98, -0.199, 253.668, -111.943)">
        <path id="Path_5809" data-name="Path 5809" d="M48.682,307.745,0,68.567,336.874,0l48.682,239.177Z" transform="translate(0 0)" fill="url(#linear-gradient-4)"/>
      </g>
    </g>
    <path id="Path_5811" data-name="Path 5811" d="M122.738-1208.04l-1.532,3.655c-7.349,5-13.808,5.861-21.562,18.851-2.871,4.809,1.473,49.545.882,55.908s-7.01,21.974-6.892,34.11a40.934,40.934,0,0,0,27.478-3.169c6.988-21.927,9.049-46.065,9.049-65.053C130.16-1163.738,126.212-1202.678,122.738-1208.04Z" transform="translate(-70.496 1253.32)" fill="#31b6e4"/>
    <path id="Path_5812" data-name="Path 5812" d="M283.69-1183.24l1.238,4.065a157.443,157.443,0,0,0,18.028,12.194c1.653.941,5.478,11.487,6.185,20.326s4.057,20.684,5.125,22.092c5.038,6.628,11.665,28.72,14.166,38.619a9.069,9.069,0,0,0-7.45,3.091c-3.091-6.362-13.121-18.962-18.732-34.287-2.3-6.274-9.81-20.854-9.81-20.854s-5.745,22.621-5.745,27.393,2.123,14.4,2.387,32.431c0,0-5.125,1.061-8.04,0,0,0,2.9-50.64,2.31-66.545C283.64-1149.437,283.69-1183.24,283.69-1183.24Z" transform="translate(-211.597 1234.648)" fill="#31b6e4"/>
    <g id="Group_1702" data-name="Group 1702" transform="translate(88.925 66.342)" clip-path="url(#clip-path-5)">
      <g id="Group_1701" data-name="Group 1701" transform="translate(129.886 -140.702) rotate(71.231)">
        <path id="Path_5813" data-name="Path 5813" d="M0,231.1,78.536,0l325.5,110.616L325.5,341.717Z" transform="translate(0 0)" fill="url(#linear-gradient-5)"/>
      </g>
    </g>
    <g id="Group_1704" data-name="Group 1704" transform="translate(77.928 65.344)" clip-path="url(#clip-path-6)">
      <g id="Group_1703" data-name="Group 1703" transform="translate(140.884 -139.704) rotate(71.231)">
        <path id="Path_5815" data-name="Path 5815" d="M0,231.1,78.536,0l325.5,110.616L325.5,341.717Z" transform="translate(0 0)" fill="url(#linear-gradient-6)"/>
      </g>
    </g>
    <path id="Path_5817" data-name="Path 5817" d="M122.676-1117.516c-1.364,6.14,12.6,42.745,13.785,45.6,3.536,8.483,20.828,29.716,26.689,35.524,0,0,2.827-5.656,8.836-5.125-4.6-7.246-10.25-21.562-21.386-35.878-.983-1.264-3.18-27.747-7.776-38.353S125-1127.981,122.676-1117.516Z" transform="translate(-92.292 1190.486)" fill="#31b6e4"/>
    <g id="Group_1706" data-name="Group 1706" transform="translate(30.289 65.9)" clip-path="url(#clip-path-7)">
      <g id="Group_1705" data-name="Group 1705" transform="translate(188.522 -140.26) rotate(71.231)">
        <path id="Path_5818" data-name="Path 5818" d="M0,231.1,78.536,0l325.5,110.615L325.5,341.717Z" transform="translate(0 0)" fill="url(#linear-gradient-7)"/>
      </g>
    </g>
    <path id="Path_5820" data-name="Path 5820" d="M362.922-1121.415c-.751-.43-1.5-.862-2.231-1.3C361.373-1122.357,362.1-1121.915,362.922-1121.415Z" transform="translate(-271.566 1189.082)" fill="#31b6e4"/>
    <path id="Path_5821" data-name="Path 5821" d="M7.466-300.61c-3.1.689-5.649,2.782-7.466,6.721l2.872,3.872s7,15.626,14.4,19.926c1,.578,4.056,1.606,2.256-2.782s-5.4-11.964-3.254-17.947C15.894-290.558,8.954-295.221,7.466-300.61Z" transform="translate(0 570.112)" fill="#0c0c0c"/>
    <path id="Path_5822" data-name="Path 5822" d="M214.018-78.35c-1.53,2.6-1.725,5.725-.166,9.538l4.549.511s15.387,5.256,23.168,2.9c1.045-.319,3.741-1.779-.472-3.37s-11.8-4-14.574-9.36C226.175-77.831,217.954-76.615,214.018-78.35Z" transform="translate(-160.197 402.771)" fill="#0c0c0c"/>
    <path id="Path_5823" data-name="Path 5823" d="M196.193-1367.156s-1.413-3.124-3.889-2.239c-1.74.623-1.885,3-1.885,3a21.179,21.179,0,0,1-.823-10.193c.941-5.654,6.728-14.1,17.966-14.668,12.844-.65,18.028,7.717,23.565,0,1.06,2.355-1.673,6.973-5.3,8.248,0,0,4.715-.3,6.894-6.009.413,3.062-.247,6.973-4.89,8.836,0,0,3.064-.235,6-3.694,0,0-4.527,14.947-24.381,9.35a14.038,14.038,0,0,1-11.722,5.656l.235,4.181-1.354.3Z" transform="translate(-142.538 1391.288)" fill="#0c0c0c"/>
    <path id="Path_5824" data-name="Path 5824" d="M538.6-723.822l-4.757-7.969s-15.953-7.292-11.959-10.714,13.781,2.811,16.088,7.654l5.283,11.028Z" transform="translate(-392.448 903.556)" fill="#0e2a35"/>
    <path id="Path_5825" data-name="Path 5825" d="M284.218-731.975l62.073-1.857a.992.992,0,0,1,.66.24c1.058.863.684,3.074-.529,3.149l-60.963,3.776a1.144,1.144,0,0,1-1.028-.649l-1.114-1.918C282.678-730.335,283.207-731.945,284.218-731.975Z" transform="translate(-213.101 896.287)" fill="#1e86ac"/>
    <g id="Group_1707" data-name="Group 1707" transform="translate(108.829 148.362)" clip-path="url(#clip-path-8)">
      <path id="Path_5826" data-name="Path 5826" d="M453.51-765.064h-.086c-1.179-.011-1.255-.489-1.255-.489s-.474.051-1.065.051a4.407,4.407,0,0,1-1.9-.316,1.889,1.889,0,0,1-.771-1.723h.141c2.024,0,2.869-.327,3.234-.839a8.931,8.931,0,0,0,.843-1.416,14.664,14.664,0,0,0,.633-1.521c.049-.139.094-.277.141-.417l3.538-.219-.116.41c-.259.905-.5,1.815-.771,2.716a9.182,9.182,0,0,1-.435,1.324,2.446,2.446,0,0,1-.843,1.039,4.349,4.349,0,0,1-1.273.531c-.45.136-.909.246-1.362.381.465-.081.927-.167,1.391-.264a4.434,4.434,0,0,0,1.347-.49,2.5,2.5,0,0,0,.941-1.1,9.64,9.64,0,0,0,.469-1.35c.252-.91.5-1.82.717-2.736l.111-.469,2.014-.125-.18.6c-.2.651-.371,1.306-.546,1.962s-.334,1.317-.5,1.975a3.431,3.431,0,0,1-.341.933,2.288,2.288,0,0,1-.7.713,11.644,11.644,0,0,1-3.269.838Zm3.5-.835a1.071,1.071,0,0,1-.119-.005,2.132,2.132,0,0,0,.8-.647,3.455,3.455,0,0,0,.425-.947c.208-.648.376-1.306.554-1.962s.341-1.315.492-1.979l.151-.659,1.458-.09c-.435,1.927-1.223,4.708-1.885,5.4A2.626,2.626,0,0,1,457.014-765.9Zm-8.107-2.145h-.01a12.849,12.849,0,0,1-1.562-.1l-.084-.011-.027,0-.022,0-.045-.006-.072-.01a13.622,13.622,0,0,1-3.832-2.93l9.913-.614-.111.319c-.178.514-.373,1.021-.573,1.527-.1.252-.21.5-.321.751l-.168.373-.015.027a1.185,1.185,0,0,0,.044-.323,2.91,2.91,0,0,0-1.668-2.222,2.64,2.64,0,0,1,1.245,2.011,1.055,1.055,0,0,1-.618,1.008A8.412,8.412,0,0,1,448.906-768.045Zm-8.446-7.062c0-.012,0-.023,0-.033-.017-.275-.025-.545-.027-.809v-.1a13.028,13.028,0,0,1,2.236-7.4l-1.678-3.049a10.348,10.348,0,0,1,1.315-1.2,9.117,9.117,0,0,1,5.493-1.92,5.047,5.047,0,0,1,.64.034c.007.041.939,4.323,1.564,4.77a59.591,59.591,0,0,1,9.973,9.126Z" transform="translate(-440.431 789.928)" fill="#ffb7a5"/>
      <path id="Path_5827" data-name="Path 5827" d="M448.011-787.7a9.112,9.112,0,0,1,5.493-1.921,4.965,4.965,0,0,1,.64.034h0a5.057,5.057,0,0,0-.64-.034A9.117,9.117,0,0,0,448.011-787.7Z" transform="translate(-446.138 789.929)" fill="#ffb7a5"/>
    </g>
    <g id="Group_1709" data-name="Group 1709" transform="translate(109.387 150.59)" clip-path="url(#clip-path-9)">
      <g id="Group_1708" data-name="Group 1708" transform="translate(109.424 -224.95) rotate(71.231)">
        <path id="Path_5829" data-name="Path 5829" d="M0,231.1,78.536,0l325.5,110.616L325.5,341.717Z" transform="translate(0 0)" fill="url(#linear-gradient-8)"/>
      </g>
    </g>
    <g id="Group_1712" data-name="Group 1712" transform="translate(108.829 148.362)" clip-path="url(#clip-path-8)">
      <g id="Group_1711" data-name="Group 1711" transform="translate(0.558 0)" clip-path="url(#clip-path-11)">
        <g id="Group_1710" data-name="Group 1710" transform="translate(109.424 -222.722) rotate(71.231)">
          <path id="Path_5831" data-name="Path 5831" d="M0,231.1,78.536,0l325.5,110.616L325.5,341.717Z" transform="translate(0 0)" fill="url(#linear-gradient-8)"/>
        </g>
      </g>
      <path id="Path_5833" data-name="Path 5833" d="M443.343-728.661l-.04-.042,6.036-.459c.593-.235.937-2.348.848-2.8a.23.23,0,0,0-.007-.026c-.111-.391-.84-.751-.84-.751a2.9,2.9,0,0,0-.848-.078l-.193,0c-.24-.006-.509-.009-.8-.009-1.861,0-4.648.107-6.946.168a.006.006,0,0,0,0-.006l19.513-.584a5.343,5.343,0,0,1,1.127,1.659,13.121,13.121,0,0,1-.331,1.843l-1.458.091.077-.335c.067-.334.143-.665.2-1-.114.322-.212.647-.319.97l-.114.375-2.014.125.212-.908c.1-.462.2-.921.289-1.385-.143.45-.269.9-.408,1.355l-.272.949-3.538.219c.124-.383.235-.771.326-1.164a10.333,10.333,0,0,0,.267-1.624c-.072.265-.136.53-.217.79s-.148.524-.232.783c-.133.411-.264.822-.405,1.23Z" transform="translate(-440.521 747.485)" fill="#ffb7a5"/>
      <path id="Path_5834" data-name="Path 5834" d="M456.832-711.113l-.111,0,.109,0c.106,0,.168-.006.168-.006S456.938-711.113,456.832-711.113Zm-2.409-.833-.015-.011Zm-2.431-2.509c-.064-.075-.126-.15-.19-.225C451.865-714.605,451.929-714.53,451.991-714.456Z" transform="translate(-448.991 733.506)" fill="#ffb7a5"/>
      <path id="Path_5835" data-name="Path 5835" d="M451.7-714.81c-.012-.014-.022-.028-.035-.042C451.673-714.838,451.683-714.824,451.7-714.81Z" transform="translate(-448.886 733.635)" fill="#ffb7a5"/>
      <path id="Path_5836" data-name="Path 5836" d="M456.867-711.116l-.109,0-.128-.007.405,0S456.973-711.116,456.867-711.116Zm.3-.005h0Zm0,0c2.021,0,2.869-.327,3.235-.839C460.045-711.448,459.2-711.122,457.176-711.121Zm-.1,0h0Zm.427-.5h0Zm0,0a8.41,8.41,0,0,0,2.076-.2,1.055,1.055,0,0,0,.618-1.008,1.055,1.055,0,0,1-.618,1.008A8.4,8.4,0,0,1,457.5-711.625Zm-1.572-.1-.084-.011Zm-.111-.014-.022,0Zm-.067-.009-.072-.01a13.621,13.621,0,0,1-3.832-2.93,13.621,13.621,0,0,0,3.832,2.93Z" transform="translate(-449.029 733.508)" fill="#ffb7a5"/>
      <path id="Path_5837" data-name="Path 5837" d="M473.08-700.266h0Zm0,0h0Z" transform="translate(-464.938 722.653)" fill="#ffad9a"/>
      <path id="Path_5838" data-name="Path 5838" d="M469.4-702.666h0Zm0,0a12.814,12.814,0,0,1-1.562-.1A12.888,12.888,0,0,0,469.391-702.666Zm-1.646-.106-.027,0Zm-.049-.006-.044-.006Z" transform="translate(-460.925 724.549)" fill="#ffad9a"/>
      <path id="Path_5839" data-name="Path 5839" d="M457.138-711.62H457l-.405,0h0a4.283,4.283,0,0,1-2.182-.836,20.386,20.386,0,0,1-2.607-2.724h.012a13.623,13.623,0,0,0,3.832,2.93l.072.01.044.006.022,0,.027,0,.084.011a12.812,12.812,0,0,0,1.562.1h.01a8.4,8.4,0,0,0,2.076-.2,1.055,1.055,0,0,0,.618-1.008,2.64,2.64,0,0,0-1.245-2.011,2.91,2.91,0,0,1,1.668,2.222,1.184,1.184,0,0,1-.044.323c-.057.113-.111.227-.166.342C460.007-711.947,459.16-711.621,457.138-711.62Z" transform="translate(-448.992 734.007)" fill="#ffad9a"/>
      <path id="Path_5840" data-name="Path 5840" d="M451.7-714.811c-.012-.014-.022-.028-.035-.042h.007l.04.042Z" transform="translate(-448.886 733.636)" fill="#ffad9a"/>
      <path id="Path_5841" data-name="Path 5841" d="M486.491-713.88a1.026,1.026,0,0,0,.166-.342l.015-.027.168-.373c.111-.249.22-.5.321-.751.2-.506.4-1.013.573-1.527l.111-.319.262-.016c-.047.139-.091.278-.141.417a14.7,14.7,0,0,1-.633,1.521A8.935,8.935,0,0,1,486.491-713.88Z" transform="translate(-475.11 735.428)" fill="#ffa28d"/>
      <path id="Path_5842" data-name="Path 5842" d="M491.971-725.711c.141-.408.272-.818.405-1.23.084-.259.161-.521.232-.783s.146-.526.217-.791a10.331,10.331,0,0,1-.267,1.624c-.091.393-.2.78-.326,1.164Z" transform="translate(-479.236 743.922)" fill="#ffa28d"/>
      <path id="Path_5843" data-name="Path 5843" d="M486.491-704.7c.054-.116.109-.229.166-.342A1.028,1.028,0,0,1,486.491-704.7Z" transform="translate(-475.11 726.251)" fill="#ff9882"/>
      <path id="Path_5844" data-name="Path 5844" d="M487.931-711.755c.452-.135.912-.245,1.362-.381a4.348,4.348,0,0,0,1.272-.531,2.447,2.447,0,0,0,.843-1.039,9.188,9.188,0,0,0,.435-1.324c.269-.9.511-1.811.771-2.716l.116-.41.178-.011-.111.469c-.22.916-.465,1.827-.717,2.736a9.647,9.647,0,0,1-.469,1.35,2.5,2.5,0,0,1-.941,1.1,4.431,4.431,0,0,1-1.347.49C488.858-711.922,488.4-711.836,487.931-711.755Z" transform="translate(-476.194 736.13)" fill="#ffa28d"/>
      <path id="Path_5845" data-name="Path 5845" d="M507.351-725.14l.272-.948c.138-.451.264-.9.408-1.355-.089.464-.193.923-.289,1.385l-.212.908Z" transform="translate(-490.815 743.115)" fill="#ffa28d"/>
      <path id="Path_5846" data-name="Path 5846" d="M507.061-712.516a2.288,2.288,0,0,0,.7-.713,3.429,3.429,0,0,0,.341-.933c.166-.658.326-1.318.5-1.974s.351-1.311.546-1.962l.18-.6.153-.009-.151.659c-.151.663-.321,1.321-.492,1.979s-.346,1.313-.553,1.962a3.459,3.459,0,0,1-.425.947A2.132,2.132,0,0,1,507.061-712.516Z" transform="translate(-490.597 736.539)" fill="#ffa28d"/>
      <path id="Path_5847" data-name="Path 5847" d="M516.221-722.769l.114-.375c.106-.323.205-.648.319-.97-.059.336-.136.667-.2,1l-.077.335Z" transform="translate(-497.494 740.608)" fill="#ffa28d"/>
      <path id="Path_5848" data-name="Path 5848" d="M443.3-727.417a16.772,16.772,0,0,1-2.743-3.956c2.3-.061,5.085-.168,6.946-.168.292,0,.561,0,.8.009-.825.02-1.824.169-1.742.606a15.827,15.827,0,0,0,1.969,3.049h.813a8.186,8.186,0,0,0,.848-2.8c.089.454-.255,2.568-.848,2.8l-6.037.459q-.082-.092-.156-.179Zm6.884-3.288a2.781,2.781,0,0,0-.84-.751S450.077-731.1,450.188-730.706Z" transform="translate(-440.529 746.2)" fill="#1e86ac"/>
      <path id="Path_5849" data-name="Path 5849" d="M451.209-715.4l-.148-.179q.074.088.156.179Z" transform="translate(-448.434 734.181)" fill="#1e86ac"/>
    </g>
    <path id="Path_5851" data-name="Path 5851" d="M320.369-764.226a2.12,2.12,0,0,1-1.478-.38,6.833,6.833,0,0,0,2.14-.926,2.188,2.188,0,0,0,.442-.415,1.328,1.328,0,0,0,.25-.572,11.16,11.16,0,0,0,.129-1.167c.022-.4.04-.8.049-1.206l3.608-.224c.017.376.032.751.052,1.126.017.323.032.646.042.968a4.5,4.5,0,0,1-.025.965,3.149,3.149,0,0,1-1.614,1.127A10.744,10.744,0,0,1,320.369-764.226Zm-3.435-.069a2.866,2.866,0,0,1-.932-.134,1.529,1.529,0,0,1-1.119-1.3,12.346,12.346,0,0,0,1.945-.459,1.412,1.412,0,0,0,.778-.693c.02-.042.04-.082.057-.124l.035-.129a1.971,1.971,0,0,0,.054-.251c.03-.165.054-.33.077-.5q.044-.384.082-.767l3.758-.233c-.02.393-.04.785-.064,1.176s-.049.77-.109,1.14a1.113,1.113,0,0,1-.2.486,2.21,2.21,0,0,1-.383.394,5.094,5.094,0,0,1-.971.6c-.341.179-.7.326-1.053.478A7.638,7.638,0,0,1,316.934-764.3Zm-3.477-1.271a1.944,1.944,0,0,1-1.223-.306,7,7,0,0,1-1.156-2.346l1.742-.111.848-.052a.007.007,0,0,0,0,.005l1.06.045s0-.041,0-.115l2.943-.182c-.025.241-.054.481-.087.721a3.876,3.876,0,0,1-.185.934,1.276,1.276,0,0,1-.647.62,5.549,5.549,0,0,1-.919.325c-.314.1-.635.184-.946.305A7.451,7.451,0,0,1,313.458-765.567Zm12.12-.49a3.733,3.733,0,0,0,.143-.963c.017-.324.022-.649.03-.973.007-.379,0-.758,0-1.137l1.927-.119c-.032.53-.072,1.043-.116,1.521C327.411-766.234,325.578-766.057,325.578-766.057Zm-13.066-7.372c-.133-.053-.274-.107-.425-.162A8.019,8.019,0,0,1,309.694-775c.007-.427.012-.852.012-1.273q0-2.349-.146-4.565c.613-.093.993-.172.993-.172q-.059-3.956-.222-7.384a8.268,8.268,0,0,1,1.643-.162c.257,0,.519.011.788.035l2.179,3.652s10.511,6.1,12.313,8.174a6.574,6.574,0,0,1,.477,2.814Z" transform="translate(-233.07 937.491)" fill="#ffb7a5"/>
    <g id="Group_1714" data-name="Group 1714" transform="translate(72.604 156.65)" clip-path="url(#clip-path-12)">
      <g id="Group_1713" data-name="Group 1713" transform="matrix(-0.199, 0.98, -0.98, -0.199, 238.667, -142.974)">
        <path id="Path_5852" data-name="Path 5852" d="M48.682,307.745,0,68.567,336.874,0l48.682,239.177Z" transform="translate(0 0)" fill="url(#linear-gradient-10)"/>
      </g>
    </g>
    <g id="Group_1717" data-name="Group 1717" transform="translate(70.857 148.838)" clip-path="url(#clip-path-13)">
      <path id="Path_5854" data-name="Path 5854" d="M288.728-780.049h-.22a22.965,22.965,0,0,0-1.747-2.856h0a10.083,10.083,0,0,1,6.4-5q.159,3.434.222,7.384s-.381.079-.993.172A25.318,25.318,0,0,1,288.728-780.049Z" transform="translate(-286.761 788.159)" fill="#ffb7a5"/>
      <g id="Group_1716" data-name="Group 1716" transform="translate(0)" clip-path="url(#clip-path-14)">
        <g id="Group_1715" data-name="Group 1715" transform="translate(147.954 -223.198) rotate(71.231)">
          <path id="Path_5855" data-name="Path 5855" d="M0,231.1,78.536,0l325.5,110.615L325.5,341.717Z" transform="translate(0 0)" fill="url(#linear-gradient-11)"/>
        </g>
      </g>
      <path id="Path_5857" data-name="Path 5857" d="M321.81-723.612l.848-.054h0Zm1.905-.118c-.007-.147-.02-.422-.027-.761,0-.309-.007-.609-.007-.884a6.684,6.684,0,0,1,.222-2.054s-.343-.476-2.4-1.281l15.221-.455c.059,1.389.035,3.084-.059,4.634l-1.927.119c0-.269-.012-.537-.02-.806-.025-.647-.049-1.293-.084-1.938-.02-.323-.035-.645-.047-.968s-.025-.645-.017-.97a12.156,12.156,0,0,0-.126,1.941c-.01.648.007,1.3.027,1.943l.03.812-3.608.224c.01-.373.012-.745.01-1.118,0-.774-.017-1.548-.067-2.322-.03.387-.044.773-.069,1.159l-.054,1.158c-.02.379-.035.758-.052,1.136l-3.758.233c.037-.4.064-.809.084-1.214l.042-.992c0-.331.012-.662.007-.993-.1.656-.166,1.314-.237,1.97-.049.415-.091.831-.138,1.245Z" transform="translate(-312.917 743.935)" fill="#ffb7a5"/>
      <path id="Path_5858" data-name="Path 5858" d="M331.1-705.045c.311-.121.633-.207.946-.305a5.533,5.533,0,0,0,.919-.325,1.275,1.275,0,0,0,.647-.619,3.878,3.878,0,0,0,.185-.934c.032-.239.062-.48.086-.721l.242-.015q-.037.384-.082.768c-.022.165-.047.33-.077.5a1.985,1.985,0,0,1-.054.251l-.035.129c-.017.042-.037.083-.057.124a1.412,1.412,0,0,1-.778.693A12.353,12.353,0,0,1,331.1-705.045Z" transform="translate(-320.145 727.972)" fill="#ffa28d"/>
      <path id="Path_5859" data-name="Path 5859" d="M342.371-717.7c.047-.414.089-.829.138-1.245.072-.656.141-1.314.237-1.97,0,.331,0,.662-.007.993l-.042.992c-.02.405-.047.81-.084,1.214Z" transform="translate(-328.63 737.723)" fill="#ffa28d"/>
      <path id="Path_5860" data-name="Path 5860" d="M347.321-704.678c.356-.153.712-.3,1.053-.478a5.093,5.093,0,0,0,.971-.6,2.211,2.211,0,0,0,.383-.394,1.11,1.11,0,0,0,.2-.486c.059-.369.084-.757.109-1.14s.044-.783.064-1.176l.232-.014c-.01.4-.027.8-.049,1.206a11.148,11.148,0,0,1-.129,1.167,1.327,1.327,0,0,1-.25.571,2.183,2.183,0,0,1-.442.415A6.832,6.832,0,0,1,347.321-704.678Z" transform="translate(-332.357 728.725)" fill="#ffa28d"/>
      <path id="Path_5861" data-name="Path 5861" d="M358.561-719.429c.017-.378.032-.757.052-1.136l.054-1.158c.025-.386.04-.773.069-1.159.049.773.064,1.547.067,2.322,0,.373,0,.745-.01,1.118Z" transform="translate(-340.82 739.205)" fill="#ffa28d"/>
      <path id="Path_5862" data-name="Path 5862" d="M374.17-706.855a4.5,4.5,0,0,0,.025-.965c-.01-.322-.025-.645-.042-.968-.02-.375-.035-.75-.052-1.126l.237-.015c.007.379.012.758,0,1.137-.007.324-.012.649-.03.973A3.733,3.733,0,0,1,374.17-706.855Z" transform="translate(-352.52 729.451)" fill="#ffa28d"/>
      <path id="Path_5863" data-name="Path 5863" d="M373.919-724.177l-.03-.812c-.02-.647-.037-1.294-.027-1.943a12.156,12.156,0,0,1,.126-1.941c-.007.325,0,.646.017.97s.027.645.047.968c.035.646.059,1.292.084,1.938.007.268.015.537.02.805Z" transform="translate(-352.338 743.715)" fill="#ffa28d"/>
      <path id="Path_5864" data-name="Path 5864" d="M315.7-706.578v0l1.742-.108Z" transform="translate(-308.55 727.012)" fill="#fff"/>
      <path id="Path_5865" data-name="Path 5865" d="M314.186-712.727a7.112,7.112,0,0,0-.435-1.039c-.259-.409.334-1.086,1.028-1.086a1.107,1.107,0,0,1,.768.321,5.258,5.258,0,0,1,1.228,1.643l-.848.054Zm3.62-.987c-.007-.266-.01-.571-.007-.884C317.8-714.323,317.8-714.023,317.806-713.714Z" transform="translate(-307.035 733.158)" fill="#1e86ac"/>
    </g>
    <path id="Path_5867" data-name="Path 5867" d="M266.965-716.67l-4.035-8.247s-13.388-6.436-9.395-9.859,11.122,2.041,13.43,6.883l4.655,11.106Z" transform="translate(-190.328 897.803)" fill="#0e2a35"/>
    <path id="Path_5868" data-name="Path 5868" d="M310.151-663.728l113.543,13.115,53.145-.119-94.593-14.8Z" transform="translate(-233.514 844.861)" fill="#95cbd4"/>
    <path id="Path_5869" data-name="Path 5869" d="M823.562-605.17l-2.906,62.093-48.873,1.616-2.123-63.709Z" transform="translate(-579.481 799.416)" fill="#176b8e"/>
    <path id="Path_5870" data-name="Path 5870" d="M425.816-581.419l-94.922,3.141-20.744-79.963,113.543,13.114Z" transform="translate(-233.514 839.375)" fill="#1e86ac"/>
    <path id="Path_5871" data-name="Path 5871" d="M277.589-303.55l-38.238,47.872h7.588l38.577-47.872Z" transform="translate(-180.208 572.325)" fill="#0e2a35"/>
    <path id="Path_5872" data-name="Path 5872" d="M453.5-303.236l75.48,43.264,3.7,7.927h7.922l-4.492-10.3-71.369-41.2Z" transform="translate(-341.443 572.325)" fill="#0e2a35"/>
    <path id="Path_5873" data-name="Path 5873" d="M699.021-309.86l49.691,41.529,4.754,8.456h6.872l-4.757-10.039L707.212-310.09Z" transform="translate(-526.296 577.249)" fill="#0e2a35"/>
    <path id="Path_5874" data-name="Path 5874" d="M525.841-266.744l30.954-42.782,8.8-.563L534.3-266.744Z" transform="translate(-395.908 577.249)" fill="#0e2a35"/>
    <path id="Path_5875" data-name="Path 5875" d="M906.288-102.076c0,7.23-4.732,13.094-10.568,13.094s-10.568-5.864-10.568-13.094,4.732-13.094,10.568-13.094S906.288-109.309,906.288-102.076Z" transform="translate(-666.434 430.493)" fill="#166888"/>
    <path id="Path_5876" data-name="Path 5876" d="M765.965-93.718c0,7.294-4.784,13.21-10.687,13.21s-10.687-5.915-10.687-13.21,4.784-13.212,10.687-13.212S765.965-101.015,765.965-93.718Z" transform="translate(-560.606 424.289)" fill="#166888"/>
    <path id="Path_5877" data-name="Path 5877" d="M515.053-141.029c0,6.528-4.005,11.819-8.947,11.819s-8.945-5.29-8.945-11.819,4.005-11.821,8.945-11.821S515.053-147.557,515.053-141.029Z" transform="translate(-374.315 458.863)" fill="#166888"/>
    <path id="Path_5878" data-name="Path 5878" d="M229.232-108.255c0,6.679-4.46,12.1-9.96,12.1s-9.96-5.416-9.96-12.1,4.46-12.1,9.96-12.1S229.232-114.936,229.232-108.255Z" transform="translate(-157.591 434.393)" fill="#166888"/>
    <path id="Path_5879" data-name="Path 5879" d="M394.1-349.123v8.406l83.536-2.342L537.9-353.88Z" transform="translate(-296.72 610.219)" fill="#125671"/>
  </g>
</svg>
