<svg xmlns="http://www.w3.org/2000/svg" xmlns:xlink="http://www.w3.org/1999/xlink" width="1536" height="1330.636" viewBox="0 0 1536 1330.636">
  <defs>
    <linearGradient id="linear-gradient" x1="0.5" x2="0.5" y2="1" gradientUnits="objectBoundingBox">
      <stop offset="0" stop-color="#5271ff"/>
      <stop offset="1" stop-color="#293980"/>
    </linearGradient>
  </defs>
  <g id="Group_1283" data-name="Group 1283" transform="translate(0 -1754.364)">
    <rect id="Rectangle_901" data-name="Rectangle 901" width="1536" height="1111" transform="translate(0 1974)" fill="#f8f9fb"/>
    <g id="wave-w-outline" transform="translate(0 1754.364)">
      <path id="Intersection_3" data-name="Intersection 3" d="M-13624,13237v-55.783s212.249-145.944,383-142.8,200,133.665,300,155.37c53.485,11.608,44.746-10.609,43.026-32.83-1.492-19.32,2.319-38.641,56.975-35.716,117.5,6.283,227.5,99.395,370,93.682s104.249-107.1,200-116.529,183,78.826,183,78.826V13237Z" transform="translate(13624 -13038.364)" opacity="0.08" fill="url(#linear-gradient)"/>
      <path id="Intersection_1" data-name="Intersection 1" d="M-13624,13237v-55.783s212.249-145.944,383-142.8,200,133.665,300,155.37c53.485,11.608,44.746-10.609,43.026-32.83-1.492-19.32,2.319-38.641,56.975-35.716,117.5,6.283,227.5,99.395,370,93.682s104.249-107.1,200-116.529,183,78.826,183,78.826V13237Z" transform="translate(13624 -13017.364)" fill="#f8f9fb"/>
    </g>
  </g>
</svg>
