<svg xmlns="http://www.w3.org/2000/svg" width="469.999" height="403.497" viewBox="0 0 469.999 403.497">
  <g id="step3-graphic" transform="translate(-60.747 1842.091)">
    <path id="Path_3952" data-name="Path 3952" d="M998.186-1280.814h190.291V-1645.5H998.186Z" transform="translate(-792.292 -157.78)" fill="#488acc"/>
    <path id="Path_3953" data-name="Path 3953" d="M1047.34-1246.713h168.452V-1601.66H1047.34Z" transform="translate(-830.527 -191.881)" fill="#dbebf9"/>
    <path id="Path_3954" data-name="Path 3954" d="M1681.1-780.564a8.186,8.186,0,0,0-8.186-8.186,8.186,8.186,0,0,0-8.186,8.186,8.186,8.186,0,0,0,8.186,8.186A8.186,8.186,0,0,0,1681.1-780.564Z" transform="translate(-1310.769 -824.21)" fill="#488acc"/>
    <path id="Path_3955" data-name="Path 3955" d="M1046.331-1248.128h-.811V-1603.48h168.857v.811H1046.331Z" transform="translate(-829.111 -190.466)"/>
    <path id="Path_3956" data-name="Path 3956" d="M1201.054-402.821l-13.424-15.488.613-.531,13.422,15.488Z" transform="translate(-939.653 -1111.947)"/>
    <path id="Path_3957" data-name="Path 3957" d="M1194.434-354.561l-13.424-15.488.613-.531,13.424,15.488Z" transform="translate(-934.503 -1149.487)"/>
    <path id="Path_3958" data-name="Path 3958" d="M1188.882-1532.049h-.811v-114.47H998.186v-.811h190.7Z" transform="translate(-792.292 -156.357)"/>
    <path id="Path_3959" data-name="Path 3959" d="M1852.98-539.554h.811v-153h-.811Z" transform="translate(-1457.201 -899.04)"/>
    <path id="Path_3960" data-name="Path 3960" d="M1804.641-709.212h-.811l.013-124.288h.809Z" transform="translate(-1418.969 -789.401)"/>
    <path id="Path_3961" data-name="Path 3961" d="M1701.58-773.39v-.811a7.788,7.788,0,0,0,7.78-7.779,7.788,7.788,0,0,0-7.78-7.779v-.811a8.6,8.6,0,0,1,8.59,8.59A8.6,8.6,0,0,1,1701.58-773.39Z" transform="translate(-1339.433 -822.794)"/>
    <path id="Path_3962" data-name="Path 3962" d="M1163.861-661.423l-7.051,131.084,18.68.673,26.117-136.8Z" transform="translate(-915.679 -919.326)" fill="#f9b49d"/>
    <path id="Path_3963" data-name="Path 3963" d="M1323.57-653.851l16.872,128.3,19.491,1.93.435-135.216Z" transform="translate(-1045.395 -925.261)" fill="#f9b49d"/>
    <path id="Path_3964" data-name="Path 3964" d="M1431.967-63.205H1392.65l1.042-8.122s3.359-3.9,7.457-1.908c0,0,5.98,4.732,12.52-1l13.586,6.478S1432.32-65.966,1431.967-63.205Z" transform="translate(-1099.129 -1380.005)" fill="#ec2a46"/>
    <path id="Path_3965" data-name="Path 3965" d="M1387.488-25.508h39.588c.469,0,1.842-.573,1.9-1.049l.244-1.262c.062-.475-.4-1.431-.864-1.431l-40.368-.171a.5.5,0,0,0-.482.431l-.391,3.05A.368.368,0,0,0,1387.488-25.508Z" transform="translate(-1094.822 -1414.861)" fill="#fec786"/>
    <path id="Path_3966" data-name="Path 3966" d="M1428.216-26.372a2.447,2.447,0,0,0,.938-1.606,1.8,1.8,0,0,0-1.806-2.1h-39.041a1.313,1.313,0,0,0-1.258,1.126L1386.8-27h.289l.249-1.953a.976.976,0,0,1,.931-.835h39.042a1.549,1.549,0,0,1,1.555,1.81,2.1,2.1,0,0,1-.808,1.382Z" transform="translate(-1094.579 -1414.348)"/>
    <path id="Path_3967" data-name="Path 3967" d="M1505.077-64.68l.278-.127c-.024-.069-.6-1.711-3.392-2.983-2.739-1.253-14.761-6.982-14.881-7.04l-.151.267c.12.058,12.142,5.789,14.883,7.042C1504.5-66.3,1505.07-64.7,1505.077-64.68Z" transform="translate(-1172.466 -1379.538)"/>
    <path id="Path_3968" data-name="Path 3968" d="M1392.7-54.262h.291l.884-6.9h-.291Z" transform="translate(-1099.168 -1390.172)"/>
    <path id="Path_3969" data-name="Path 3969" d="M1436.217-68.194a6.837,6.837,0,0,0,.9-.049l0-.289a9.369,9.369,0,0,1-6.447-1.768l-.2.242A9.552,9.552,0,0,0,1436.217-68.194Z" transform="translate(-1128.548 -1383.062)"/>
    <path id="Path_3970" data-name="Path 3970" d="M1403.94-40.571l.193-.242-1.682-1.257-.191.242Z" transform="translate(-1106.604 -1405.021)"/>
    <path id="Path_3971" data-name="Path 3971" d="M1410.089-42.171l.193-.242L1408.6-43.67l-.191.242Z" transform="translate(-1111.389 -1403.776)"/>
    <path id="Path_3972" data-name="Path 3972" d="M1190.057-63.205H1150.74l1.042-8.122s3.359-3.9,7.457-1.908c0,0,5.98,4.732,12.52-1l13.586,6.478S1190.41-65.966,1190.057-63.205Z" transform="translate(-910.958 -1380.005)" fill="#ec2a46"/>
    <path id="Path_3973" data-name="Path 3973" d="M1145.578-25.508h39.588c.471,0,1.842-.573,1.9-1.049l.244-1.262c.06-.475-.4-1.431-.866-1.431l-40.368-.171a.5.5,0,0,0-.482.431l-.391,3.05A.368.368,0,0,0,1145.578-25.508Z" transform="translate(-906.651 -1414.861)" fill="#fec786"/>
    <path id="Path_3974" data-name="Path 3974" d="M1186.306-26.372a2.458,2.458,0,0,0,.94-1.606,1.8,1.8,0,0,0-1.808-2.1H1146.4a1.313,1.313,0,0,0-1.26,1.126L1144.89-27h.289l.251-1.953a.972.972,0,0,1,.931-.835H1185.4a1.552,1.552,0,0,1,1.557,1.81,2.116,2.116,0,0,1-.809,1.382Z" transform="translate(-906.407 -1414.348)"/>
    <path id="Path_3975" data-name="Path 3975" d="M1263.167-64.68l.278-.127c-.022-.069-.6-1.711-3.392-2.983-2.739-1.253-14.759-6.982-14.881-7.04l-.151.267c.12.058,12.145,5.789,14.886,7.042C1262.587-66.3,1263.162-64.7,1263.167-64.68Z" transform="translate(-984.294 -1379.538)"/>
    <path id="Path_3976" data-name="Path 3976" d="M1194.315-68.194a6.931,6.931,0,0,0,.9-.049l-.007-.289a9.371,9.371,0,0,1-6.447-1.768l-.193.242A9.542,9.542,0,0,0,1194.315-68.194Z" transform="translate(-940.384 -1383.062)"/>
    <path id="Path_3977" data-name="Path 3977" d="M1162.029-40.571l.193-.242-1.679-1.257-.193.242Z" transform="translate(-918.433 -1405.021)"/>
    <path id="Path_3978" data-name="Path 3978" d="M1168.179-42.171l.193-.242-1.679-1.257-.193.242Z" transform="translate(-923.217 -1403.776)"/>
    <path id="Path_3979" data-name="Path 3979" d="M1150.517-1256.72s-7.682,2.361-9.83,14.286,1.468,48.986,1.468,48.986a38.794,38.794,0,0,0,13.559,17.852c10.17,7.231,2.486-72.312,2.486-73.216S1150.517-1256.72,1150.517-1256.72Z" transform="translate(-902.608 -460.196)" fill="#f9b49d"/>
    <path id="Path_3980" data-name="Path 3980" d="M1147.192-1229.01l5.243,36.536a223.236,223.236,0,0,0-14.057,69.219c-1.357,38.3.68,46.439.68,46.439s45.761,3.05,61.353,0l4.068-24.744,6.1,26.1h14.915s5.394-77.012-19.462-116.421c0,0,7.26-25.128,3.87-47.162s-61.013-18.438-61.013-18.438Z" transform="translate(-900.978 -459.434)" fill="#ec2a46"/>
    <path id="Path_3981" data-name="Path 3981" d="M1370.251-1131.14c-2.257-3.916-12.122-24.031-16.1-33.019,9.37-1.8,19.777-6.844,24.053-9.481,2.932,8.115,7.213,18.131,8.55,21.941,1.388,3.952,23.278,41.192,30.944,49.3l-6.873,13.1C1392.019-1101.268,1375.367-1122.271,1370.251-1131.14Z" transform="translate(-1069.182 -524.82)" fill="#f9b49d"/>
    <path id="Path_3982" data-name="Path 3982" d="M1370.874-1227.052s-4.838-20.879-13.233-22.825-14.977,2.084-15.825,8.277,2.637,17.756,2.637,17.756l21.768,5.722Z" transform="translate(-1059.484 -465.135)" fill="#f9b49d"/>
    <path id="Path_3983" data-name="Path 3983" d="M1304-1404.12v16.267s.229,5.5-4.583,6.187l.9,7.337a5.726,5.726,0,0,1-3.916,6.167,15,15,0,0,1-4.545.7c-5.5,0-8.477-4.123-8.937-6.187s.917-11.914.917-11.914l-.167-4.843.624-18.758Z" transform="translate(-1013.705 -341.619)" fill="#f9b49d"/>
    <path id="Path_3984" data-name="Path 3984" d="M1191.036-1453.751s1.884,6.809-4.636,10.143-7.826,5.667-6.955,8.339,28.183,22.272,19.589,50.951a33.031,33.031,0,0,1-35,23.069c-37.74-3.348-31.46-36.023-30.2-43.16,2.841-16.125,18.518-27.9,18.662-36.011s3.767-17.243,11.158-18.837S1189.3-1467.517,1191.036-1453.751Z" transform="translate(-896.898 -300.305)" fill="#1d1337"/>
    <path id="Path_3985" data-name="Path 3985" d="M1331.577-1356.225a4.083,4.083,0,0,1-4.038,4.125,4.084,4.084,0,0,1-4.039-4.125,4.084,4.084,0,0,1,4.039-4.125A4.083,4.083,0,0,1,1331.577-1356.225Z" transform="translate(-1045.34 -379.586)" fill="#f9b49d"/>
    <path id="Path_3986" data-name="Path 3986" d="M1334.522-1346.436a1.691,1.691,0,0,1-1.584-1.289,1.628,1.628,0,0,1,.638-1.884,1.863,1.863,0,0,1,2.119.076,1.841,1.841,0,0,0-.815-1.015,2.482,2.482,0,0,0-1.793-.118.113.113,0,0,1-.142-.073.117.117,0,0,1,.071-.144,2.662,2.662,0,0,1,1.97.133,2.222,2.222,0,0,1,1.031,1.5l.1.4-.286-.289a1.73,1.73,0,0,0-2.135-.278,1.419,1.419,0,0,0-.54,1.626,1.455,1.455,0,0,0,1.366,1.124h.024a.111.111,0,0,1,.111.111.114.114,0,0,1-.109.118Z" transform="translate(-1052.621 -386.847)" fill="#f07061"/>
    <path id="Path_3987" data-name="Path 3987" d="M1616.02-853.57c.04.073,2.786,1.211,2.823,1.275,3.879.546,8.386,1.182,9.494,1.331,2.037.276,8.563,3.465,10.4,5.523,3.323,3.73.951,3.6.951,3.6,3.09,4.2-.731,3.514-.731,3.514,3.1,3.521-.624,3.572-.624,3.572,1.469,2.059.964,2.87.287,3.186a1.729,1.729,0,0,1-1.555-.069c-.886-.482-2.832-1.546-4.858-2.7l0,0a182.62,182.62,0,0,0-18.513-4.576l-4.412-1.413Z" transform="translate(-1267.637 -773.789)" fill="#f9b49d"/>
    <path id="Path_3988" data-name="Path 3988" d="M1721.312-783.489a.246.246,0,0,0-.264.12.245.245,0,0,0,.093.336,30.385,30.385,0,0,1,3.938,2.968.247.247,0,0,0,.349-.02.246.246,0,0,0-.02-.349,30.173,30.173,0,0,0-4.023-3.028A.25.25,0,0,0,1721.312-783.489Z" transform="translate(-1354.551 -828.298)" fill="#f07061"/>
    <path id="Path_3989" data-name="Path 3989" d="M1724.176-797.269a.247.247,0,0,0-.28.147.247.247,0,0,0,.135.322,15.413,15.413,0,0,1,3.9,2.444.246.246,0,0,0,.347-.018.244.244,0,0,0-.018-.349,15.466,15.466,0,0,0-4.041-2.532Z" transform="translate(-1356.778 -817.579)" fill="#f07061"/>
    <path id="Path_3990" data-name="Path 3990" d="M1729.861-812.487a.248.248,0,0,0-.275.142.248.248,0,0,0,.127.327,13.184,13.184,0,0,1,3.363,2.3.246.246,0,0,0,.349,0,.246.246,0,0,0,0-.349,13.537,13.537,0,0,0-3.51-2.4Z" transform="translate(-1361.201 -805.742)" fill="#f07061"/>
    <path id="Path_3991" data-name="Path 3991" d="M1177.514-847.558c-18.058,0-39.166-1.064-39.484-1.082l-.335-.016-.025-.336c-2.954-40.2.844-69.542,4.554-87.082,4.021-19.026,8.815-28.678,8.861-28.773l.68.342c-.047.095-4.807,9.685-8.808,28.629-3.681,17.436-7.455,46.581-4.554,86.493,4.265.211,47.621,2.268,60.667.036l4.452-25.837.749.129-4.541,26.364-.262.047C1194.974-847.829,1186.633-847.558,1177.514-847.558Z" transform="translate(-899.969 -687.232)" fill="#1c1c1b"/>
    <path id="Path_3992" data-name="Path 3992" d="M619.044-979.974H660.26V-997.3H619.044Z" transform="translate(-497.374 -661.987)" fill="#cde2fa" fill-rule="evenodd"/>
    <path id="Path_3993" data-name="Path 3993" d="M619.044-1171.667H660.26v-17.328H619.044Z" transform="translate(-497.374 -512.876)" fill="#cde2fa"/>
    <path id="Path_3994" data-name="Path 3994" d="M526.273-1075.818H567.49v-17.328H526.273Z" transform="translate(-425.211 -587.433)" fill="#cde2fa"/>
    <path id="Path_3997" data-name="Path 3997" d="M728.757-1075.818h41.216v-17.328H728.757Z" transform="translate(-582.715 -587.433)" fill="#cde2fa"/>
    <path id="Path_3998" data-name="Path 3998" d="M728.757-614.431h41.216V-631.76H728.757Z" transform="translate(-582.715 -946.326)" fill="#cde2fa"/>
    <path id="Path_3999" data-name="Path 3999" d="M648.766-517.093h41.217V-534.42H648.766Z" transform="translate(-520.493 -1022.043)" fill="#d8e7fa"/>
    <path id="Path_4000" data-name="Path 4000" d="M450.045-750.451h41.216V-767.78H450.045Z" transform="translate(-365.916 -840.522)" fill="#d8e7fa"/>
    <path id="Path_4001" data-name="Path 4001" d="M2106.01-1018.748h41.216v-17.328H2106.01Z" transform="translate(-1654.022 -631.825)" fill="#cde2fa"/>
    <path id="Path_4002" data-name="Path 4002" d="M2106.01-1210.437h41.216v-17.328H2106.01Z" transform="translate(-1654.022 -482.718)" fill="#cde2fa"/>
    <path id="Path_4003" data-name="Path 4003" d="M2198.78-1114.6H2240v-17.328H2198.78Z" transform="translate(-1726.184 -557.268)" fill="#cde2fa"/>
    <path id="Path_4006" data-name="Path 4006" d="M1996.3-1114.6h41.216v-17.328H1996.3Z" transform="translate(-1568.683 -557.268)" fill="#cde2fa"/>
    <path id="Path_4007" data-name="Path 4007" d="M1996.3-653.2h41.216V-670.53H1996.3Z" transform="translate(-1568.683 -916.168)" fill="#cde2fa"/>
    <path id="Path_4008" data-name="Path 4008" d="M2076.29-555.871h41.216V-573.2H2076.29Z" transform="translate(-1630.904 -991.877)" fill="#d8e7fa"/>
    <path id="Path_4009" data-name="Path 4009" d="M2275.01-789.223h41.216V-806.55H2275.01Z" transform="translate(-1785.48 -810.364)" fill="#cde2fa"/>
    <path id="Path_4010" data-name="Path 4010" d="M2198.78-1483.948H2240v-17.328H2198.78Z" transform="translate(-1726.184 -269.966)" fill="#cde2fa"/>
    <path id="Path_4011" data-name="Path 4011" d="M688.038-112.663h41.216V-129.99H688.038Z" transform="translate(-551.041 -1336.632)" fill="#cde2fa"/>
    <path id="Path_4012" data-name="Path 4012" d="M606.927-210h41.216V-227.33H606.927Z" transform="translate(-487.948 -1260.915)" fill="#cde2fa"/>
    <path id="Path_4013" data-name="Path 4013" d="M2113.6-1584.327h41.216v-17.328H2113.6Z" transform="translate(-1659.926 -191.885)" fill="#cde2fa"/>
    <path id="Path_4014" data-name="Path 4014" d="M2259.865-512.753s-1.877-26.182-12.04-21.1-18.448,38.444-19.555,39.437-.773,31.484-.773,31.484l11.82-5.962S2242.463-541.774,2259.865-512.753Z" transform="translate(-1748.485 -1021.975)" fill="#258c8b"/>
    <path id="Path_4015" data-name="Path 4015" d="M2216.34-680.6s-22.774,20.375-28.987,55.311,13.422,45.219,13.422,45.219S2203.569-653.53,2216.34-680.6Z" transform="translate(-1716.349 -908.335)" fill="#7ec6a6"/>
    <path id="Path_4016" data-name="Path 4016" d="M2051.274-580.163s-3.812-74.373-23.034-106.617c0,0,33.748,20.133,44.937,72.978.628,2.974,1,6.282,1.479,9.465a52.2,52.2,0,0,1,.717,9.177c-.133,5.174-.851,9.621-1.062,12.889C2072.488-554.035,2051.274-580.163,2051.274-580.163Z" transform="translate(-1593.528 -903.528)" fill="#258c8b"/>
    <path id="Path_4017" data-name="Path 4017" d="M2003.962-481.348a60.407,60.407,0,0,0-11.8-29.214c-4.676-6.14-10.088-10.807-14.313-7.477-9.39,7.4-11.267,53.359-11.267,53.359s10.6-31.815,15.246-29.718,8.948,45.295,8.948,45.295l17.343,1.435Z" transform="translate(-1545.565 -1033.923)" fill="#7ec6a6"/>
    <path id="Path_4018" data-name="Path 4018" d="M2075.047-583.582a130.474,130.474,0,0,0-6.053-46.321,120.822,120.822,0,0,0-16.361-32.5c-12.047-16.969-24.649-25.353-24.773-25.437l-.309.471c.124.082,12.653,8.421,24.638,25.313,11.058,15.583,23.9,41.843,22.3,78.449Z" transform="translate(-1592.992 -902.704)" fill="#20111c"/>
    <path id="Path_4019" data-name="Path 4019" d="M2251.33-580.479c.007-.184.724-18.607,2.992-40.1,2.092-19.82,5.967-46.377,12.547-60.325l-.507-.238c-6.615,14.019-10.5,40.643-12.6,60.507-2.271,21.51-2.988,39.95-2.994,40.132Z" transform="translate(-1766.625 -907.915)" fill="#20111c"/>
    <path id="Path_4020" data-name="Path 4020" d="M2280.172-417.194c0-.12.537-12.1,2.3-24.236,2.312-15.959,5.658-24.938,9.672-25.966,2.37-.609,5.08,1.571,8.055,6.478l.48-.293c-3.119-5.14-6.038-7.406-8.675-6.729-4.312,1.1-7.706,10-10.09,26.435-1.764,12.164-2.3,24.167-2.3,24.287Z" transform="translate(-1789.058 -1073.663)" fill="#20111c"/>
    <path id="Path_4021" data-name="Path 4021" d="M2006.858-448.619l.558-.069-4.154-33.681a60.742,60.742,0,0,0-11.86-29.347c-4.074-5.351-7.691-8.264-10.754-8.652a5.14,5.14,0,0,0-3.954,1.124c-3.954,3.117-7.068,13.089-9.259,29.638-1.628,12.284-2.111,23.814-2.115,23.929l.56.022c.018-.458,1.979-45.912,11.163-53.15a4.6,4.6,0,0,1,3.537-1.006c2.906.369,6.4,3.208,10.376,8.435A60.158,60.158,0,0,1,2002.7-482.3Z" transform="translate(-1544.585 -1032.937)" fill="#20111c"/>
    <path id="Path_4022" data-name="Path 4022" d="M2072.538-376.878l.5-.258-3.646-7.064-.5.258Z" transform="translate(-1625.148 -1138.892)" fill="#20111c"/>
    <path id="Path_4023" data-name="Path 4023" d="M2072.555-355.866l.491-.271-3.645-6.613-.491.269Z" transform="translate(-1625.164 -1155.577)" fill="#20111c"/>
    <path id="Path_4024" data-name="Path 4024" d="M2239.459-566.747l3.116-6.84-.511-.233-3.114,6.84Z" transform="translate(-1757.431 -991.395)" fill="#20111c"/>
    <path id="Path_4025" data-name="Path 4025" d="M2239.481-544.682l2.652-4.785-.491-.273-2.653,4.785Z" transform="translate(-1757.462 -1010.126)" fill="#20111c"/>
    <path id="Path_4026" data-name="Path 4026" d="M2307.656-517.069l5.3-2.7-.255-.5-5.3,2.7Z" transform="translate(-1810.675 -1033.049)" fill="#20111c"/>
    <path id="Path_4027" data-name="Path 4027" d="M2307.611-503.9l3.14-1.908-.293-.48-3.137,1.908Z" transform="translate(-1810.613 -1043.924)" fill="#20111c"/>
    <path id="Path_4028" data-name="Path 4028" d="M2112.419-253.126s-.99,54.374-15.554,53.1h-24.742c-14.564,1.277-15.552-53.1-15.552-53.1C2070.352-255.208,2098.637-255.208,2112.419-253.126Z" transform="translate(-1615.565 -1239.635)" fill="#1d1337"/>
    <path id="Path_4029" data-name="Path 4029" d="M2096.917-199.131l.407-.387-15.915-16.8-.409.387Z" transform="translate(-1634.568 -1269.479)" fill="#20111c"/>
    <path id="Path_4030" data-name="Path 4030" d="M2110.761-157.147l.422-.369-8.759-10.074-.424.369Z" transform="translate(-1650.903 -1307.384)" fill="#20111c"/>
    <path id="Path_4031" data-name="Path 4031" d="M618.888-734h1.281a75.319,75.319,0,0,1,2.728-14.057c5.584-18.847,3.141-21.286,12.564-33.068s10.121-36.211,10.121-36.211,4.537-27.745,0-39.961S640.7-881.727,629.7-894.64c0,0-2.094,17.276-4.712,25.129s-5.1,15.357-3.162,34.2,3.146,20.417,3.591,25.3-.254,25.484.793,28.883-6.108,26.959-6.631,37.08C619.424-741,619.141-737.535,618.888-734Z" transform="translate(-497.252 -741.843)" fill="#258c8b"/>
    <path id="Path_4032" data-name="Path 4032" d="M449.118-871.372c-1.047,13.437,7.5,12.391,7.853,20.941s11.517,23.034,16.691,33.33c2.691,5.356,3.685,13.542,4.019,20.166h4.157c-1.608-16.767-8.411-28.439-12.477-37.791-5.235-12.04-6.021-17.538-1.571-26.961s-2.094-33.766,4.241-44.619,3.088-27.885,1.631-34.43.148-10.994,1.457-17.894-1.457-16.92-1.457-16.92c-.235,8.55-6.744,20.241-11.456,27.745s-13.611,27.921-12.564,37.171.524,9.945.524,9.945C446.849-888.3,450.165-884.807,449.118-871.372Z" transform="translate(-364.83 -678.906)" fill="#258c8b"/>
    <path id="Path_4033" data-name="Path 4033" d="M628.068-554.406c-2.987,8.435-7.893,5.5-10.41,10.589s-13.2,10.87-19.113,15.721c-3.076,2.524-5.886,7.224-7.875,11.154l-2.522-1.122c5.5-9.739,12.77-14.986,17.759-19.564,6.422-5.9,8.381-9.019,8.221-15.937s10.374-19.922,9.456-28.214,5.644-17.751,8.292-21.33,2.874-6.711,3.94-11.249,5.446-9.872,5.446-9.872c-2.162,5.251-1.365,14.1-.529,19.922s.731,20.61-2.4,25.939-3,5.893-3,5.893C634.008-564.065,631.055-562.841,628.068-554.406Z" transform="translate(-473.341 -952.183)" fill="#7ec6a6"/>
    <path id="Path_4034" data-name="Path 4034" d="M362.243-554.406c2.987,8.435,7.893,5.5,10.41,10.589s13.2,10.87,19.113,15.721c3.076,2.524,5.886,7.224,7.875,11.154l2.522-1.122c-5.5-9.739-12.77-14.986-17.759-19.564-6.422-5.9-8.381-9.019-8.221-15.937s-10.374-19.922-9.456-28.214-5.644-17.751-8.293-21.33-2.874-6.711-3.94-11.249-5.446-9.872-5.446-9.872c2.162,5.251,1.365,14.1.529,19.922s-.731,20.61,2.4,25.939,3,5.893,3,5.893C356.3-564.065,359.256-562.841,362.243-554.406Z" transform="translate(-287.356 -952.183)" fill="#7ec6a6"/>
    <path id="Path_4035" data-name="Path 4035" d="M396.2-522.135l-.117-.231c-1.84-3.636-4.689-8.508-7.8-11.065l.346-.422c3.123,2.564,5.961,7.353,7.828,11.009l2.011-.893c-4.465-7.8-10.119-12.722-14.672-16.683-1.023-.891-1.989-1.731-2.886-2.555-6.379-5.856-8.474-9.008-8.309-16.141.071-3.1-2.076-7.5-4.35-12.162-2.758-5.654-5.611-11.5-5.105-16.076.63-5.7-2.219-13-8.241-21.139-2.184-2.95-2.743-5.585-3.451-8.923-.163-.766-.334-1.571-.534-2.426-.723-3.079-3.032-6.578-4.382-8.437,1.162,4.163,1.163,10.358,0,18.464-.884,6.158-.658,20.615,2.362,25.762,2.023,3.445,3.127,5.667,3.03,6.091l-.532-.12.266.06-.272-.007c0-.033-.09-.857-2.963-5.749-3.081-5.247-3.325-19.891-2.432-26.115,1.29-8.995,1.113-15.834-.511-19.782l-.695-1.686,1.158,1.411c.181.22,4.432,5.436,5.5,9.983.2.86.373,1.668.537,2.439.7,3.272,1.244,5.856,3.357,8.71,4.256,5.751,9.16,14.153,8.344,21.523-.489,4.418,2.329,10.194,5.053,15.776,2.3,4.723,4.479,9.181,4.4,12.413-.16,6.922,1.89,10,8.132,15.728.892.82,1.855,1.657,2.876,2.546,4.635,4.032,10.4,9.052,14.937,17.087l.148.26Z" transform="translate(-284.041 -946.637)"/>
    <path id="Path_4036" data-name="Path 4036" d="M484.369-803.073h-4.717l-.013-.258c-.31-6.147-1.253-14.615-3.99-20.06l.487-.244c2.741,5.454,3.708,13.842,4.034,20.017h3.6c-1.356-13.566-6.155-23.854-10.017-32.131-.864-1.85-1.679-3.6-2.41-5.28-5.181-11.916-6.133-17.516-1.567-27.186,2.008-4.252,1.744-11.64,1.464-19.464-.338-9.45-.688-19.222,2.788-25.177,4.367-7.482,4.921-19.32,1.6-34.234-1.195-5.365-.356-9.323.706-14.333.247-1.166.5-2.37.749-3.67.965-5.087-.331-11.981-1.042-15.118-.737,6.5-4.556,15.283-11.372,26.139-4.992,7.953-13.539,28.037-12.524,37l-.542.06c-1.027-9.075,7.577-29.336,12.6-37.344,7.29-11.611,11.237-21.157,11.415-27.609l.05-1.823.486,1.759c.028.1,2.767,10.162,1.462,17.044-.248,1.3-.5,2.512-.751,3.681-1.048,4.945-1.877,8.85-.707,14.1,3.351,15.05,2.776,27.024-1.662,34.627-3.4,5.818-3.049,15.51-2.714,24.884.282,7.891.549,15.341-1.516,19.715-4.476,9.479-3.533,14.988,1.574,26.735.728,1.675,1.542,3.419,2.4,5.267,3.908,8.377,8.772,18.8,10.1,32.608Z" transform="translate(-367.061 -672.495)"/>
    <path id="Path_4037" data-name="Path 4037" d="M511.8-664.808c-.174,12.913,9.947,17.8,9.772,24.953s2.094,14.835,4.014,20.593c1.215,3.645.543,13.793.328,23.318h2.809c.707-7,1.482-17.1,1.227-21.574-.349-6.107,2.443-10.994,2.792-21.637s2.618-20.244-2.094-33.681-3.839-29.489-23.558-44.324c0,0-3.49,15.705-.872,24.258S511.975-677.721,511.8-664.808Z" transform="translate(-408.852 -879.897)" fill="#7ec6a6"/>
    <path id="Path_4038" data-name="Path 4038" d="M528.045-597.32h-3.334l.006-.28c.045-1.97.109-3.97.171-5.931.238-7.431.463-14.45-.485-17.294-1.966-5.9-4.2-13.582-4.027-20.686.072-2.977-1.713-5.582-3.781-8.6-2.856-4.165-6.093-8.886-5.991-16.352.143-10.585-1.945-16.909-4.155-23.607-.469-1.422-.954-2.89-1.418-4.405-2.607-8.519.832-24.236.867-24.393l.092-.413.338.253c15.271,11.487,18.3,23.9,20.981,34.856.82,3.357,1.594,6.524,2.671,9.6l-.515.18c-1.086-3.1-1.863-6.278-2.686-9.646-2.635-10.785-5.618-22.994-20.437-34.292-.524,2.546-3.12,16.087-.789,23.7.461,1.506.945,2.974,1.414,4.392,2.224,6.742,4.326,13.109,4.182,23.787-.1,7.291,3.086,11.936,5.9,16.036,2.121,3.092,3.953,5.765,3.876,8.919-.171,7.02,2.047,14.641,4,20.5.979,2.937.753,10,.512,17.485-.06,1.868-.12,3.77-.165,5.649h2.283c.716-7.144,1.451-16.907,1.2-21.288a32.783,32.783,0,0,1,1.063-8.826,67.91,67.91,0,0,0,1.729-12.838l.546.02a68.42,68.42,0,0,1-1.74,12.929,32.408,32.408,0,0,0-1.053,8.684c.255,4.463-.5,14.435-1.227,21.619Z" transform="translate(-407.929 -878.248)"/>
    <path id="Path_4039" data-name="Path 4039" d="M619.39-736h-1.821l.021-.293c.069-.966.141-1.928.211-2.877.189-2.548.368-4.954.482-7.162.262-5.054,2.184-13.511,3.88-20.972,1.68-7.391,3.268-14.373,2.762-16.012l.521-.162c.548,1.781-.981,8.508-2.752,16.3-1.691,7.439-3.608,15.872-3.868,20.877-.114,2.215-.293,4.625-.483,7.175-.063.853-.127,1.717-.19,2.586h.741a75.7,75.7,0,0,1,2.714-13.864c1.711-5.776,2.671-10.028,3.443-13.444,1.73-7.657,2.6-11.5,9.169-19.715,9.259-11.578,10.055-35.807,10.062-36.049.049-.313,4.477-27.852.017-39.859-1.3-3.505-2.277-7.073-3.22-10.523-2.321-8.486-4.717-17.258-12.212-26.264-.4,3.166-2.33,17.616-4.645,24.562-2.617,7.851-5.089,15.263-3.151,34.09l-.542.053c-1.951-18.94.539-26.408,3.175-34.316,2.579-7.735,4.678-24.9,4.7-25.075l.074-.618.4.475c7.889,9.265,10.346,18.256,12.722,26.95.94,3.437,1.912,6.991,3.206,10.474,4.51,12.142.059,39.823.013,40.1,0,.209-.806,24.62-10.177,36.338-6.492,8.117-7.3,11.682-9.063,19.5-.774,3.425-1.736,7.686-3.453,13.477a75.163,75.163,0,0,0-2.718,14.008Z" transform="translate(-496.226 -739.563)"/>
    <path id="Path_4040" data-name="Path 4040" d="M589.448-522.135l-3.033-1.348.148-.26c4.533-8.035,10.3-13.055,14.936-17.087,1.02-.888,1.984-1.726,2.876-2.546l.368.4c-.9.824-1.863,1.664-2.886,2.555-4.553,3.961-10.207,8.881-14.672,16.683l2.011.893c1.868-3.656,4.706-8.448,7.828-11.009,1.92-1.575,4.3-3.214,6.81-4.951,5.191-3.588,10.559-7.3,12.231-10.681a7.7,7.7,0,0,1,4.326-3.77c2.162-1.015,4.4-2.064,6.071-6.789a49.481,49.481,0,0,1,3.587-7.81,27.446,27.446,0,0,0,3.667-10.2c.044-.6,1.134-2.759,3.034-6,3.02-5.145,3.247-19.6,2.363-25.762-1.163-8.1-1.162-14.3,0-18.464-1.35,1.859-3.659,5.358-4.382,8.437-.2.855-.371,1.662-.534,2.428-.708,3.337-1.268,5.971-3.451,8.921-6.021,8.135-8.871,15.443-8.241,21.139l-.542.06c-.816-7.371,4.087-15.772,8.344-21.523,2.114-2.855,2.662-5.438,3.357-8.71.164-.771.335-1.579.537-2.439,1.068-4.547,5.319-9.763,5.5-9.983l1.157-1.411-.694,1.686c-1.625,3.95-1.8,10.789-.511,19.782.893,6.224.648,20.868-2.432,26.115-2.683,4.57-2.937,5.589-2.961,5.731l0,.016-.008.051a27.9,27.9,0,0,1-3.728,10.385,49.03,49.03,0,0,0-3.552,7.733c-1.75,4.938-4.2,6.089-6.353,7.1-1.63.764-3.036,1.426-4.07,3.516-1.735,3.512-7.162,7.26-12.41,10.887-2.505,1.73-4.871,3.365-6.774,4.925-3.114,2.555-5.963,7.428-7.8,11.065Z" transform="translate(-471.993 -946.637)"/>
    <path id="Path_4041" data-name="Path 4041" d="M538.223-218.725s-.848,46.568-13.321,45.475H503.71c-12.473,1.093-13.321-45.475-13.321-45.475C502.193-220.508,526.419-220.508,538.223-218.725Z" transform="translate(-397.298 -1266.568)" fill="#488acc"/>
    <path id="Path_4042" data-name="Path 4042" d="M524.949-172.479l.349-.331L511.667-187.2l-.349.329Z" transform="translate(-413.578 -1292.13)" fill="#20111c"/>
    <path id="Path_4043" data-name="Path 4043" d="M536.805-136.524l.363-.315-7.5-8.63-.363.315Z" transform="translate(-427.567 -1324.59)" fill="#20111c"/>
    <path id="Path_4044" data-name="Path 4044" d="M2259.879-1284.131a5.349,5.349,0,0,1-5.349-5.349h10.7A5.349,5.349,0,0,1,2259.879-1284.131Z" transform="translate(-1769.55 -434.713)" fill="#f9fafe"/>
    <path id="Path_4045" data-name="Path 4045" d="M2227.43-1623.728h-36.383a1.612,1.612,0,0,1-1.144-2.752l15.405-15.408v-7.826a3.059,3.059,0,0,1,2.559-3.012v-66.454c.924.64,1.837,1.3,2.746,1.955v64.5a3.056,3.056,0,0,1,2.552,3.012v7.826l15.405,15.408A1.612,1.612,0,0,1,2227.43-1623.728Z" transform="translate(-1718.909 -100.467)" fill="#90b5ec"/>
    <path id="Path_4046" data-name="Path 4046" d="M2048.305-1459.685a4.406,4.406,0,0,1-4.4-4.405h8.81A4.4,4.4,0,0,1,2048.305-1459.685Z" transform="translate(-1605.71 -298.891)" fill="#f9fafe"/>
    <path id="Path_4047" data-name="Path 4047" d="M2021.579-1741.1h-29.967a1.328,1.328,0,0,1-.94-2.268l12.689-12.689v-6.446a2.514,2.514,0,0,1,2.106-2.481v-55.224c.758.213,1.508.433,2.259.66v54.565a2.516,2.516,0,0,1,2.106,2.481v6.446l12.689,12.689A1.33,1.33,0,0,1,2021.579-1741.1Z" transform="translate(-1563.999 -21.881)" fill="#90b5ec"/>
  </g>
</svg>
