<svg xmlns="http://www.w3.org/2000/svg" xmlns:xlink="http://www.w3.org/1999/xlink" width="459.048" height="433.81" viewBox="0 0 459.048 433.81">
  <defs>
    <linearGradient id="linear-gradient" y1="0.5" x2="1" y2="0.5" gradientUnits="objectBoundingBox">
      <stop offset="0" stop-color="#ffc444"/>
      <stop offset="0.996" stop-color="#f36f56"/>
    </linearGradient>
    <linearGradient id="linear-gradient-2" x1="0.312" y1="0.414" x2="1.274" y2="0.414" gradientUnits="objectBoundingBox">
      <stop offset="0" stop-color="#ff9085"/>
      <stop offset="1" stop-color="#fb6fbb"/>
    </linearGradient>
    <linearGradient id="linear-gradient-3" x1="0.147" y1="0.013" x2="-0.697" y2="1.073" xlink:href="#linear-gradient"/>
    <linearGradient id="linear-gradient-4" y1="0.5" x2="1" y2="0.5" gradientUnits="objectBoundingBox">
      <stop offset="0" stop-color="#444b8c"/>
      <stop offset="0.996" stop-color="#26264f"/>
    </linearGradient>
    <linearGradient id="linear-gradient-5" y1="0.5" x2="1" y2="0.5" gradientUnits="objectBoundingBox">
      <stop offset="0" stop-color="#aa80f9"/>
      <stop offset="0.996" stop-color="#6165d7"/>
    </linearGradient>
    <linearGradient id="linear-gradient-7" y1="0.5" x2="1" y2="0.5" gradientUnits="objectBoundingBox">
      <stop offset="0" stop-color="#fff"/>
      <stop offset="0.996" stop-color="#ebeff2"/>
    </linearGradient>
    <clipPath id="clip-path">
      <path id="Path_4086" data-name="Path 4086" d="M2122,719.417l-162.238,2.342V553.869L2122,558.481Z" transform="translate(-1959.766 -553.869)" fill="none"/>
    </clipPath>
    <linearGradient id="linear-gradient-8" x1="0.841" y1="-0.06" x2="0.568" y2="0.478" gradientUnits="objectBoundingBox">
      <stop offset="0" stop-color="#ab316d"/>
      <stop offset="1" stop-color="#792d3d"/>
    </linearGradient>
    <linearGradient id="linear-gradient-9" x1="0.847" y1="-0.084" x2="0.572" y2="0.467" xlink:href="#linear-gradient-8"/>
    <linearGradient id="linear-gradient-10" x1="0.579" y1="1.442" x2="0.437" y2="0.103" gradientUnits="objectBoundingBox">
      <stop offset="0.004" stop-color="#e38ddd"/>
      <stop offset="1" stop-color="#9571f6"/>
    </linearGradient>
    <linearGradient id="linear-gradient-11" x1="0.527" y1="1.046" x2="0.468" y2="0.006" xlink:href="#linear-gradient"/>
    <linearGradient id="linear-gradient-12" x1="0.481" y1="0.924" x2="0.512" y2="0.054" xlink:href="#linear-gradient"/>
    <linearGradient id="linear-gradient-13" x1="0.461" y1="1.713" x2="0.575" y2="-1.837" xlink:href="#linear-gradient"/>
    <linearGradient id="linear-gradient-14" x1="0.458" y1="1.798" x2="0.573" y2="-1.749" xlink:href="#linear-gradient"/>
    <clipPath id="clip-path-2">
      <path id="Path_4108" data-name="Path 4108" d="M2116.995,1956.076l-132.793,8.231V1824.151l132.793-3.464Z" transform="translate(-1984.202 -1820.687)" fill="none"/>
    </clipPath>
    <linearGradient id="linear-gradient-16" x1="0.417" y1="-1.156" x2="0.543" y2="1.719" gradientUnits="objectBoundingBox">
      <stop offset="0.004" stop-color="#f36f56"/>
      <stop offset="1" stop-color="#ffc444"/>
    </linearGradient>
    <linearGradient id="linear-gradient-17" x1="0.504" y1="1.141" x2="0.491" y2="-1.691" gradientUnits="objectBoundingBox">
      <stop offset="0" stop-color="#311944"/>
      <stop offset="1" stop-color="#893976"/>
    </linearGradient>
    <linearGradient id="linear-gradient-18" x1="0.503" y1="1.272" x2="0.497" y2="0.376" xlink:href="#linear-gradient-8"/>
    <linearGradient id="linear-gradient-19" x1="0.441" y1="0.85" x2="0.581" y2="-0.358" xlink:href="#linear-gradient-8"/>
    <linearGradient id="linear-gradient-20" x1="0.42" y1="1.321" x2="0.885" y2="-2.776" xlink:href="#linear-gradient-8"/>
    <linearGradient id="linear-gradient-21" x1="0.396" y1="1.535" x2="0.875" y2="-2.554" xlink:href="#linear-gradient-8"/>
    <linearGradient id="linear-gradient-22" x1="0.424" y1="0.699" x2="0.707" y2="-0.21" gradientUnits="objectBoundingBox">
      <stop offset="0" stop-color="#311944"/>
      <stop offset="1" stop-color="#6b3976"/>
    </linearGradient>
    <linearGradient id="linear-gradient-23" x1="0.463" y1="0.59" x2="0.773" y2="-0.646" xlink:href="#linear-gradient-22"/>
    <clipPath id="clip-path-3">
      <path id="Path_4135" data-name="Path 4135" d="M1022.074,1274.239,818.265,1282.7V1090.667l203.809,1.116Z" transform="translate(-818.265 -1090.667)" fill="none"/>
    </clipPath>
    <linearGradient id="linear-gradient-25" x1="0.9" y1="-0.814" x2="0.33" y2="1.255" xlink:href="#linear-gradient-2"/>
    <linearGradient id="linear-gradient-26" x1="0.478" y1="1.967" x2="0.509" y2="-0.575" gradientUnits="objectBoundingBox">
      <stop offset="0" stop-color="#311944"/>
      <stop offset="0.555" stop-color="#6f2b60"/>
      <stop offset="1" stop-color="#a03976"/>
    </linearGradient>
    <linearGradient id="linear-gradient-27" x1="0.528" y1="0.734" x2="0.743" y2="1.639" xlink:href="#linear-gradient"/>
    <linearGradient id="linear-gradient-28" x1="0.501" y1="0.37" x2="0.463" y2="2.575" xlink:href="#linear-gradient"/>
    <linearGradient id="linear-gradient-29" x1="2.952" y1="-0.107" x2="2.778" y2="7.752" xlink:href="#linear-gradient"/>
    <linearGradient id="linear-gradient-30" x1="0.529" y1="-0.396" x2="0.325" y2="6.722" xlink:href="#linear-gradient"/>
    <linearGradient id="linear-gradient-31" x1="0.863" y1="-13.174" x2="0.544" y2="-1.426" xlink:href="#linear-gradient"/>
    <linearGradient id="linear-gradient-32" x1="-6.764" y1="0.5" x2="-5.764" y2="0.5" xlink:href="#linear-gradient-5"/>
    <linearGradient id="linear-gradient-33" x1="-7.167" y1="0.082" x2="-6.229" y2="1.712" xlink:href="#linear-gradient-5"/>
  </defs>
  <g id="step4-graphic" transform="translate(-443.121 -478.405)">
    <g id="Group_1123" data-name="Group 1123" transform="translate(563.092 509.832)">
      <g id="Group_1119" data-name="Group 1119" transform="translate(84.632 37.389)">
        <path id="Path_4053" data-name="Path 4053" d="M1752.831,1306.238c-20.42-3.722-25.474-47.573-26.115-53.81-1.6-15.611-3.594-34.961,7.7-51.332,16.319-23.663,44.1-17.5,50.735-37.148,4.075-12.075-5.954-15.785-6.427-38.872-.136-6.626-.626-30.547,16.1-49.884,11.928-13.788,27.09-18.864,35.109-20.829a77.175,77.175,0,0,0,5.582-28.844c-.113-19.6-8.128-27.17-3.97-37.566,4.766-11.913,21.756-18.134,34.686-18.013,34.44.321,53.311,45.758,54.6,48.99,3.34,8.352,13.922,34.814,1.811,54.071-9.568,15.214-25.823,14.044-28.3,26.551-2.473,12.479,12.978,17.339,16.632,36.388,3.12,16.265-3.745,35.661-15.894,46.583-20.294,18.243-45.133,3.674-56,18.789-12.649,17.6,12.871,48.68,1.584,59.168-10.714,9.955-38.727-13.386-52.375-1.76-9.866,8.4-.716,25.275-14.022,38.779C1773.474,1298.308,1763.489,1308.181,1752.831,1306.238Z" transform="translate(-1725.47 -969.938)" fill="#d8dee8"/>
        <path id="Path_4054" data-name="Path 4054" d="M1895.188,1031.519c13.084,3.017,19.14,42.429,12.226,76.172-4.761,23.234-11.549,23.668-28.986,63-23.631,53.3-14.851,60.827-32.033,79.453-23.579,25.56-47.762,19.685-60.738,44.271-8.783,16.641-6.242,35.508-2.429,49.373a92.526,92.526,0,0,1-14.55-40.037c-1.375-12.2-3.861-34.264,8.832-47.693,15.231-16.114,37.667-4.291,48.12-19.273,5.926-8.494.6-14.995-.771-44-1.383-29.259-2.074-43.889,5.846-56.373,14.128-22.27,39.532-13.19,48.225-32.511,9.013-20.03-13.874-39.6-1.968-59.9C1880.8,1037.458,1888.732,1030.03,1895.188,1031.519Z" transform="translate(-1760.565 -1021.173)" fill="#f4f7fa" opacity="0.5" style="mix-blend-mode: soft-light;isolation: isolate"/>
      </g>
      <g id="Group_1120" data-name="Group 1120" transform="translate(0 0)">
        <path id="Path_4055" data-name="Path 4055" d="M1405.992,1112.28c22.369-4.077,27.905-52.114,28.608-58.946,1.758-17.1,3.937-38.3-8.431-56.231-17.877-25.922-48.315-19.17-55.578-40.694-4.464-13.228,6.522-17.291,7.04-42.583.149-7.259.686-33.463-17.639-54.645-13.067-15.1-29.676-20.664-38.46-22.818a84.54,84.54,0,0,1-6.115-31.6c.124-21.476,8.9-29.764,4.349-41.151-5.221-13.05-23.833-19.865-38-19.733-37.727.352-58.4,50.126-59.816,53.667-3.659,9.149-15.251,38.137-1.984,59.232,10.481,16.666,28.288,15.384,31,29.086,2.709,13.671-14.217,18.994-18.22,39.861-3.418,17.818,4.1,39.065,17.411,51.029,22.231,19.984,49.441,4.025,61.344,20.583,13.857,19.277-14.1,53.326-1.735,64.815,11.736,10.905,42.423-14.663,57.374-1.928,10.807,9.206.784,27.688,15.36,42.48C1383.379,1103.593,1394.317,1114.409,1405.992,1112.28Z" transform="translate(-1213.767 -743.881)" fill="url(#linear-gradient)"/>
        <path id="Path_4056" data-name="Path 4056" d="M1582.012,811.339c-14.334,3.305-20.967,46.479-13.393,83.443,5.215,25.452,12.652,25.927,31.753,69.013,25.887,58.393,16.268,66.633,35.091,87.037,25.83,28,52.321,21.564,66.536,48.5,9.621,18.229,6.838,38.9,2.661,54.086a101.357,101.357,0,0,0,15.939-43.859c1.506-13.364,4.23-37.535-9.675-52.245-16.685-17.652-41.262-4.7-52.713-21.112-6.492-9.3-.658-16.426.844-48.2,1.515-32.052,2.272-48.078-6.4-61.754-15.476-24.4-43.3-14.449-52.828-35.614-9.873-21.942,15.2-43.382,2.156-65.615C1597.773,817.845,1589.085,809.708,1582.012,811.339Z" transform="translate(-1507.287 -800.006)" fill="#f4f7fa" opacity="0.5" style="mix-blend-mode: soft-light;isolation: isolate"/>
      </g>
      <g id="Group_1121" data-name="Group 1121" transform="translate(85.515 129.661)">
        <path id="Path_4057" data-name="Path 4057" d="M1747.715,1774.412c-12.217-2.1-18.969-32.2-16.352-55.556,1.012-9.033,2.019-18.02,8.592-26.206,11.094-13.817,23.915-7.761,33.673-18.905,14.409-16.455-3.52-41.113,10.348-54.491,10.2-9.841,23.133.384,35.307-10.28,14.122-12.371,5.52-33.839,17.67-39.3,7.058-3.173,11.819,3.235,30.931,1.887,7.477-.527,11.215-.791,14.635-2.853,11.991-7.228,6.2-23.58,15.789-33.6,10.56-11.03,33.433-7.771,47.038-1.678,24.376,10.916,35.346,38.25,35.719,59.99.08,4.657.117,34.989-21.628,51.05-15.812,11.679-37.071,11.328-40.519,11.271-13.433-.222-16.124-4.121-20.893-1.3-13.784,8.152,5.447,42.653-12.167,64.661-7.192,8.985-19.443,14.537-30.31,15.035-17.569.805-25.136-11.892-34.471-7.535-12.078,5.637-4.772,29.388-18.013,36.388-9.369,4.952-16.567-5.066-32.362-.891C1756.679,1765.8,1754.949,1775.654,1747.715,1774.412Z" transform="translate(-1730.803 -1527.832)" fill="url(#linear-gradient-2)"/>
        <path id="Path_4058" data-name="Path 4058" d="M1796.664,1795.984c5.573,1.381,8.541-13.757,27.564-33.631,20.774-21.7,31.941-19.017,51.279-38.542,22.076-22.291,11.889-30.2,30.388-47.462,25.072-23.393,46.382-11.283,76.534-38.671,9.044-8.215,21.084-19.469,19.124-33.278-1.7-11.973-13.7-24.3-27.309-24.323-.57,0-12.014.157-19.318,8.954-8.96,10.791-1.254,22.013-9.562,30.2-4.352,4.286-11.138,4.784-24.709,5.777-19.519,1.429-22.771-2.7-28.111.867-12.066,8.059,0,32.169-12.257,42.167-10.52,8.584-25.665-4.085-34.882,4.141-11.124,9.928,6.2,32.607-5.261,49.194-9.87,14.281-28.323,5.586-41.62,20.507C1782.821,1759.5,1788.621,1793.991,1796.664,1795.984Z" transform="translate(-1779.065 -1571.435)" fill="#f4f7fa" opacity="0.5" style="mix-blend-mode: soft-light;isolation: isolate"/>
      </g>
      <g id="Group_1122" data-name="Group 1122" transform="translate(153.014 216.641)">
        <path id="Path_4059" data-name="Path 4059" d="M2159.7,2200.793c9.279.648,10.538-16.4,26.741-21.507,17.923-5.647,29.3,11.144,41.786,4.728,14.03-7.209,6.129-31.73,21.885-40.933,10.764-6.288,18.261,2.932,31.8-2.838,14.111-6.014,27.885-25.374,22.467-44.36-4.52-15.84-20.819-25.882-33.936-25.977-10.73-.078-13.778,6.54-23.163,4.59-11.692-2.43-11.415-13.628-23.666-18.671-12.19-5.018-28.854-.677-38.025,9.279-7.626,8.279-8.4,18.631-9.083,27.661-1.822,24.241,9.242,33.58,3.333,42.895-7.373,11.623-27.572,1.771-36.778,13.3C2131.534,2163.375,2146.351,2199.862,2159.7,2200.793Z" transform="translate(-2138.918 -2053.728)" fill="url(#linear-gradient-3)"/>
        <path id="Path_4060" data-name="Path 4060" d="M2211.4,2247.81c3.4.677,4.4-10.37,15.068-19.593,12.236-10.575,21.446-5.152,35.136-13.5,16.964-10.347,10.517-23.366,25.619-33.864,21.17-14.716,47.471,1.391,54.578-10.623,4.152-7.019-.51-19.814-8-23.989-7.994-4.456-13.657,4-27.379,2-12.852-1.875-13.573-10.121-29.433-14.264-7.732-2.019-17.888-4.672-24.377.3-12.714,9.745-5.812,44.528-3.706,55.145,1.938,9.768,3.735,13.562,1.192,17.539-6.66,10.418-28.751-.334-38.971,10.917C2202.574,2227.284,2207.009,2246.936,2211.4,2247.81Z" transform="translate(-2195.119 -2118.578)" fill="#f4f7fa" opacity="0.5" style="mix-blend-mode: soft-light;isolation: isolate"/>
      </g>
    </g>
    <g id="Group_1126" data-name="Group 1126" transform="translate(443.121 647.525)">
      <g id="Group_1125" data-name="Group 1125" transform="translate(0)">
        <path id="Path_4061" data-name="Path 4061" d="M970.368,2935.539l-454.506-3.874v11.463c0,3.111,1.982,5.757,4.667,6.229l128.521,22.573a18.043,18.043,0,0,0,4.611.212L965.429,2946.4c2.783-.229,4.939-2.883,4.939-6.08Z" transform="translate(-511.32 -2707.512)" fill="#26264f"/>
        <g id="Group_1124" data-name="Group 1124">
          <path id="Path_4062" data-name="Path 4062" d="M782.509,1786.057l-284.867,20.97a8.635,8.635,0,0,1-9.242-8.907V1585.987a9.424,9.424,0,0,1,9.242-9.587H782.509c4.2,0,7.6,3.88,7.6,8.667v191.764C790.1,1781.617,786.708,1785.747,782.509,1786.057Z" transform="translate(-488.399 -1576.4)" fill="#26264f"/>
          <path id="Path_4063" data-name="Path 4063" d="M809.972,1786.057,525.1,1807.027a8.635,8.635,0,0,1-9.242-8.907V1585.987a9.424,9.424,0,0,1,9.242-9.587H809.972c4.2,0,7.595,3.88,7.595,8.667v191.764C817.567,1781.617,814.171,1785.747,809.972,1786.057Z" transform="translate(-511.32 -1576.4)" fill="url(#linear-gradient-4)"/>
          <path id="Path_4064" data-name="Path 4064" d="M863.628,1834.687,598.3,1852.9a7.078,7.078,0,0,1-7.519-7.31V1659.87a7.721,7.721,0,0,1,7.519-7.859l265.325-1.144c3.464-.015,6.266,3.165,6.266,7.1v169.16C869.894,1831.065,867.092,1834.449,863.628,1834.687Z" transform="translate(-573.85 -1638.55)" fill="url(#linear-gradient-5)"/>
          <path id="Path_4065" data-name="Path 4065" d="M1460.644,1593.484a3.292,3.292,0,1,1-3.277-3.567A3.445,3.445,0,0,1,1460.644,1593.484Z" transform="translate(-1294.365 -1587.681)" fill="#fff"/>
          <path id="Path_4066" data-name="Path 4066" d="M525.1,1807.026l283.426-20.864,1.442-.106a7.646,7.646,0,0,0,5.017-2.539c-20.4-1.116-33.064-8.354-41.236-15.833-16.411-15.019-13.564-29.83-31.261-39.7-22.073-12.317-39.429,3.29-56.179-12.109-10.155-9.336-5.169-16.3-17.665-30.248-13.839-15.452-22.85-10.258-36.758-24.164-17.586-17.584-8.791-31.265-23.939-43.89-18.377-15.316-38.2-1.14-55.69-15.828-7.545-6.335-11.685-15.545-13.847-25.341H525.1a9.424,9.424,0,0,0-9.242,9.587v212.133A8.635,8.635,0,0,0,525.1,1807.026Z" transform="translate(-511.32 -1576.399)" fill="#fff" opacity="0.48" style="mix-blend-mode: soft-light;isolation: isolate"/>
        </g>
        <path id="Path_4067" data-name="Path 4067" d="M821.326,2836.678l-305.464,22.073,133.188,23.392a18.043,18.043,0,0,0,4.611.212l316.707-26.144-144.183-19.383A23.644,23.644,0,0,0,821.326,2836.678Z" transform="translate(-511.32 -2628.184)" fill="url(#linear-gradient-4)"/>
        <path id="Path_4068" data-name="Path 4068" d="M785.352,2877.481l254.308-18.65,78.706,10.5-252.117,19.937Z" transform="translate(-736.238 -2646.725)" fill="#26264f"/>
      </g>
    </g>
    <g id="Group_1153" data-name="Group 1153" transform="translate(466.501 478.405)">
      <g id="Group_1135" data-name="Group 1135" transform="translate(195.148)">
        <g id="Group_1129" data-name="Group 1129" transform="translate(0 9.044)">
          <path id="Path_4069" data-name="Path 4069" d="M2018.088,626.266V764.985c0,6.4-4.353,11.692-9.826,11.822l-45.6,1.115-140.642,3.439a11.841,11.841,0,0,1-11.682-10.646c-.051-.467-.68-.935-.68-1.418V621.5c0-2.495,1.287-4.792,2.441-6.705.033-.054.368-.1.4-.15a10.808,10.808,0,0,1,9.386-5.17l21.335.566,165,4.377C2013.7,614.565,2018.088,619.865,2018.088,626.266Z" transform="translate(-1809.66 -609.321)" fill="#fff"/>
          <path id="Path_4070" data-name="Path 4070" d="M1846.241,797.272c-4.178.1-7.585-3.588-7.585-8.214V641.445c0-4.627,3.407-8.3,7.585-8.2l186.291,4.725c3.72.094,6.741,3.712,6.741,8.064V784.887c0,4.352-3.021,7.963-6.741,8.049Z" transform="translate(-1833.86 -629.16)" fill="url(#linear-gradient-7)"/>
          <path id="Path_4071" data-name="Path 4071" d="M2014.518,614.438,1828.227,609.5c-6.151-.163-11.155,5.229-11.155,12.044v8.852l207.339,4.2v-8.31C2024.411,619.886,2019.989,614.583,2014.518,614.438Z" transform="translate(-1815.846 -609.336)" fill="#d8dee8"/>
          <path id="Path_4072" data-name="Path 4072" d="M1900.461,656.84a3.553,3.553,0,0,1-3.624,3.6,3.759,3.759,0,0,1-3.632-3.764,3.553,3.553,0,0,1,3.632-3.595A3.759,3.759,0,0,1,1900.461,656.84Z" transform="translate(-1879.387 -645.711)" fill="#fff"/>
          <path id="Path_4073" data-name="Path 4073" d="M1977.321,658.7a3.533,3.533,0,0,1-3.6,3.582,3.737,3.737,0,0,1-3.6-3.75,3.533,3.533,0,0,1,3.6-3.581A3.738,3.738,0,0,1,1977.321,658.7Z" transform="translate(-1943.581 -647.275)" fill="#fff"/>
          <path id="Path_4074" data-name="Path 4074" d="M2053.6,660.545a3.514,3.514,0,0,1-3.57,3.568,3.717,3.717,0,0,1-3.578-3.735,3.513,3.513,0,0,1,3.578-3.568A3.718,3.718,0,0,1,2053.6,660.545Z" transform="translate(-2007.292 -648.827)" fill="#fff"/>
          <path id="Path_4075" data-name="Path 4075" d="M2078.489,984.036l-182.788,3.8V871.583l182.788,2.5Z" transform="translate(-1881.47 -828.079)" fill="#d8dee8"/>
          <g id="Group_1127" data-name="Group 1127" transform="translate(14.231 31.464)" opacity="0.5">
            <path id="Path_4076" data-name="Path 4076" d="M1993.437,800.477,1895.7,798.79v6.28l97.736,1.5Z" transform="translate(-1895.701 -798.79)" fill="#fff"/>
            <path id="Path_4077" data-name="Path 4077" d="M2937.056,816.759v5.959l10.554.162v-5.939Z" transform="translate(-2764.823 -813.787)" fill="#fff"/>
          </g>
          <g id="Group_1128" data-name="Group 1128" transform="translate(1.155)" opacity="0.5" style="mix-blend-mode: soft-light;isolation: isolate">
            <path id="Path_4078" data-name="Path 4078" d="M1969.681,777.151l-140.659,3.439a11.882,11.882,0,0,1-11.726-10.645c0-.136-.655-.265-.655-.4V620.667c0-2.466,1.292-4.737,2.407-6.64.033-.055.385-.1.418-.15a10.817,10.817,0,0,1,9.463-5.323l21.221.563c.014.051.072.1.09.156.4,1.293.85,2.6,1.327,3.936a85.223,85.223,0,0,0,7.768,16.257c.206.336.42.665.632.994a69.711,69.711,0,0,0,7.876,10.195,64.878,64.878,0,0,0,6.812,6.314,71.6,71.6,0,0,0,8.417,5.8c20.653,12.253,43.847,13.854,59.232,38.42,13.186,21.055,3.742,32.1,16.495,64.317q2.08,5.254,4.455,10.049,2.014,4.1,4.21,7.885C1968.188,774.7,1968.931,775.942,1969.681,777.151Z" transform="translate(-1816.642 -608.55)" fill="#fff"/>
          </g>
        </g>
        <g id="Group_1133" data-name="Group 1133" transform="translate(24.827)">
          <g id="Group_1132" data-name="Group 1132" clip-path="url(#clip-path)">
            <g id="Group_1131" data-name="Group 1131" transform="translate(10.695 29.795)">
              <g id="Group_1130" data-name="Group 1130">
                <path id="Path_4079" data-name="Path 4079" d="M2068.674,868.1c-31.735-4.888-38.8-8.5-42.079-15.23-4.769-9.8-1.3-25.745,6.844-35.557,7.118-8.576,15.968-10.244,15.71-16.176-.212-4.881-6.276-5.535-10.738-14.753-1.3-2.693-3.836-7.924-2.733-14.19,1.614-9.168,9.829-13.875,10.495-14.242,8.559-4.728,13.427.923,19.843-3.324,8-5.3,4.379-16.759,11.87-19.912,5.437-2.288,12.369,1.653,14.175,2.679,6.012,3.418,5.381,6.752,10.448,8.889,5.932,2.5,8.759-1.252,15.625.388,5.656,1.351,9.743,5.525,13.073,9.706,7.466,9.377,3.757,14.842,9.265,26.333,7.731,16.13,19.357,14.338,21.414,27.195,1.075,6.719-1.686,9.767.435,20.057,1.431,6.944,3.23,8.179,3.549,12.264.917,11.741-12.35,22.193-14.834,24.038C2135.168,878.051,2113.041,874.935,2068.674,868.1Z" transform="translate(-2024.429 -734.015)" fill="url(#linear-gradient-8)"/>
                <path id="Path_4080" data-name="Path 4080" d="M2119.139,845.072c-20.771-1.453-34.917,18.373-40.547,13.511-5.349-4.618,9.727-20.424,4.587-38.78-5.055-18.055-24.983-21.941-23.4-32.144,1.787-11.538,28.426-14.193,27.8-22.667-.368-5-9.757-6.212-11.639-14.195a12.79,12.79,0,0,1,.193-6.294c-5.183,4.119-2.826,14.053-10.118,18.88-6.416,4.247-11.284-1.4-19.843,3.324-.665.368-8.881,5.075-10.495,14.242-1.1,6.266,1.43,11.5,2.733,14.19,4.463,9.218,10.526,9.872,10.739,14.753.258,5.932-8.593,7.6-15.71,16.176-8.144,9.812-11.613,25.759-6.844,35.557,3.278,6.734,10.344,10.342,42.079,15.23,44.366,6.833,66.494,9.95,82.359-1.833,6.124-4.547,13.324-12.257,14.866-19.067a17.92,17.92,0,0,1-8.924,4.915C2143.791,863.463,2137.677,846.37,2119.139,845.072Z" transform="translate(-2024.429 -742.768)" opacity="0.7" fill="url(#linear-gradient-9)" style="mix-blend-mode: multiply;isolation: isolate"/>
              </g>
              <path id="Path_4081" data-name="Path 4081" d="M2064.257,1363.472c-4.811-12.062-1.877-31.113-1.259-35.126a77.405,77.405,0,0,1,10.148-28.8c14.119-23.572,35.476-23.4,51.5-23.268,7.9.064,16.058-.113,26.011,3.564a68.133,68.133,0,0,1,14.485,7.74c19.743,14.408,35.274,61.582,19.406,79.688-10.143,11.574-20.57-2.826-66.118,4.889-18.43,3.122-37.932,8.221-49.558-1.85A17.173,17.173,0,0,1,2064.257,1363.472Z" transform="translate(-2055.407 -1186.572)" fill="url(#linear-gradient-10)"/>
              <path id="Path_4082" data-name="Path 4082" d="M2312.952,1105.53s3.377,25.264-13.783,30.313a2.8,2.8,0,0,0-1.093,4.67l21.149,20.564a3.032,3.032,0,0,0,4.452-.229l18.949-22.067a2.789,2.789,0,0,0-1.034-4.393c-6.065-2.331-16.968-9.147-14.677-27.572Z" transform="translate(-2252.115 -1044.084)" fill="url(#linear-gradient-11)"/>
              <path id="Path_4083" data-name="Path 4083" d="M2328.656,916.529c.006.277,4.635,25.01,16.474,25.037,11.149.026,15.368-18.018,16.739-26.437l.437-4.3a8.162,8.162,0,0,1-4.869.1c-.509-.15-3.737-1.1-4.937-3.9-1.338-3.123,1.121-5.564-.28-8.3a6.014,6.014,0,0,0-3.7-2.742c.833,1.288,2.448,4.159,1.535,6.735-.614,1.731-2.332,3.378-6.171,4.35C2332.863,909.864,2328.548,910.928,2328.656,916.529Z" transform="translate(-2278.337 -869.2)" fill="url(#linear-gradient-12)"/>
              <path id="Path_4084" data-name="Path 4084" d="M2311.807,1021.986s-6.135-5.449-6.671-2.149c-1.117,6.883,4.136,10.719,6.981,8.679S2311.807,1021.986,2311.807,1021.986Z" transform="translate(-2258.581 -971.678)" fill="url(#linear-gradient-13)"/>
              <path id="Path_4085" data-name="Path 4085" d="M2500.943,1023.905s6.031-5.3,6.556-2.02c1.094,6.827-4.059,10.56-6.861,8.5S2500.943,1023.905,2500.943,1023.905Z" transform="translate(-2420.897 -973.381)" fill="url(#linear-gradient-14)"/>
            </g>
          </g>
        </g>
        <g id="Group_1134" data-name="Group 1134" transform="translate(71.893 147.638)">
          <path id="Path_4087" data-name="Path 4087" d="M2256.958,1456.38a6.522,6.522,0,0,1-6.3,6.619,6.344,6.344,0,0,1-6.32-6.476,6.52,6.52,0,0,1,6.32-6.619A6.346,6.346,0,0,1,2256.958,1456.38Z" transform="translate(-2244.339 -1449.343)" fill="#fff"/>
          <path id="Path_4088" data-name="Path 4088" d="M2434.866,1454.623a6.449,6.449,0,0,1-6.2,6.568,6.273,6.273,0,0,1-6.224-6.427,6.447,6.447,0,0,1,6.224-6.568A6.275,6.275,0,0,1,2434.866,1454.623Z" transform="translate(-2392.982 -1447.917)" fill="#fff"/>
          <path id="Path_4089" data-name="Path 4089" d="M2610.079,1452.893a6.379,6.379,0,0,1-6.11,6.518,6.2,6.2,0,0,1-6.13-6.379,6.376,6.376,0,0,1,6.13-6.518A6.206,6.206,0,0,1,2610.079,1452.893Z" transform="translate(-2539.372 -1446.513)" fill="#fff"/>
        </g>
      </g>
      <g id="Group_1143" data-name="Group 1143" transform="translate(204.386 209.524)">
        <path id="Path_4090" data-name="Path 4090" d="M2035.834,1894.372v114.1c0,5.265-3.574,9.8-8.106,10.127l-37.627,2.69-.041.006-115.172,8.233a8.22,8.22,0,0,1-2.206-.139c-.133-.023-.26-.058-.392-.087-.254-.069-.509-.144-.757-.231s-.491-.191-.733-.306a8.57,8.57,0,0,1-1.034-.583c-.219-.144-.433-.3-.635-.462s-.41-.341-.6-.525a9.585,9.585,0,0,1-2.817-5.93,10.8,10.8,0,0,1-.2-1.16V1899.689c0-.11,0-.214.006-.323.006-.127.018-.248.023-.375a11.52,11.52,0,0,1,1.611-4.792c.023-.046.121-.087.15-.127a9.449,9.449,0,0,1,5.8-4.382,8.345,8.345,0,0,1,.855-.168,7.6,7.6,0,0,1,.889-.049l17.332-.459h.012l37.407-1.1,98.117-2.816a2.665,2.665,0,0,1,.306,0c.122,0,.243,0,.364.008s.236.015.352.027C2032.775,1885.6,2035.834,1889.51,2035.834,1894.372Z" transform="translate(-1865.513 -1874.439)" fill="#fff"/>
        <path id="Path_4091" data-name="Path 4091" d="M1891.056,2041.7c-3.4.239-6.17-2.632-6.17-6.4V1915.031c0-3.769,2.771-6.918,6.17-7.018l152.932-4.506c3.082-.091,5.585,2.748,5.585,6.327v114.207c0,3.579-2.5,6.668-5.585,6.885Z" transform="translate(-1881.682 -1889.808)" fill="url(#linear-gradient-7)"/>
        <path id="Path_4092" data-name="Path 4092" d="M2029.343,1885.058l-152.933,4.356c-5,.142-9.072,4.759-9.072,10.31v7.21l170.2-5.746v-6.835C2037.541,1889.091,2033.875,1884.929,2029.343,1885.058Z" transform="translate(-1867.036 -1874.409)" fill="#d8dee8"/>
        <path id="Path_4093" data-name="Path 4093" d="M1935.167,1948.455a3.092,3.092,0,0,1-2.951,3.091,2.867,2.867,0,0,1-2.956-2.907,3.092,3.092,0,0,1,2.956-3.092A2.868,2.868,0,0,1,1935.167,1948.455Z" transform="translate(-1918.717 -1924.896)" fill="#fff"/>
        <path id="Path_4094" data-name="Path 4094" d="M1997.763,1946.554a3.077,3.077,0,0,1-2.932,3.081,2.854,2.854,0,0,1-2.937-2.9,3.077,3.077,0,0,1,2.937-3.082A2.854,2.854,0,0,1,1997.763,1946.554Z" transform="translate(-1970.991 -1923.316)" fill="#fff"/>
        <path id="Path_4095" data-name="Path 4095" d="M2059.962,1944.665a3.063,3.063,0,0,1-2.914,3.071,2.841,2.841,0,0,1-2.919-2.889,3.062,3.062,0,0,1,2.919-3.071A2.841,2.841,0,0,1,2059.962,1944.665Z" transform="translate(-2022.934 -1921.747)" fill="#fff"/>
        <path id="Path_4096" data-name="Path 4096" d="M2081.35,2179.262l-150.059,10.255v-94.759l150.059-5.9Z" transform="translate(-1920.412 -2044.507)" fill="#d8dee8"/>
        <g id="Group_1136" data-name="Group 1136" transform="translate(10.879 34.993)" opacity="0.5">
          <path id="Path_4097" data-name="Path 4097" d="M2011.2,2047.65l-79.912,2.9v5.119l79.912-3.026Z" transform="translate(-1931.292 -2045.105)" fill="#fff"/>
          <path id="Path_4098" data-name="Path 4098" d="M2785.755,2032.575v4.9l8.736-.331v-4.883Z" transform="translate(-2644.432 -2032.258)" fill="#fff"/>
        </g>
        <g id="Group_1137" data-name="Group 1137" transform="translate(0 14.39)" opacity="0.5" style="mix-blend-mode: soft-light;isolation: isolate">
          <path id="Path_4099" data-name="Path 4099" d="M1990.107,2040.161l-115.218,8.227a8.215,8.215,0,0,1-2.206-.139c-.133-.023-.26-.058-.392-.086-.254-.069-.509-.144-.757-.231s-.491-.191-.733-.306a8.621,8.621,0,0,1-1.034-.583c-.219-.144-.433-.3-.635-.462s-.41-.34-.6-.525a9.542,9.542,0,0,1-2.835-5.924c0-.11-.185-.225-.185-.335V1918.551c0-.11,0-.214.006-.323.006-.127.018-.248.023-.375a11.68,11.68,0,0,1,1.582-4.792c.023-.046.139-.087.162-.127a9.269,9.269,0,0,1,7.61-4.757l17.185-.485c.011.04-.009.081-.009.121v.006a19.911,19.911,0,0,1,1.129,3.146,65.075,65.075,0,0,0,6.364,12.922c.167.266.356.525.529.785a52.422,52.422,0,0,0,6.434,7.973,48.465,48.465,0,0,0,5.57,4.862,53.485,53.485,0,0,0,6.878,4.37c0,.006.007.006.007.006a90.089,90.089,0,0,0,10.618,4.752c13.839,5.312,27.916,8.689,37.962,24.151,9.59,14.758,4.636,23.851,10.595,43.62.624,2.067,1.363,4.255,2.257,6.576q.347.909.728,1.853c1.138,2.818,2.367,5.5,3.667,8.066q1.663,3.282,3.47,6.3.9,1.507,1.824,2.945C1990.1,2040.155,1990.107,2040.155,1990.107,2040.161Z" transform="translate(-1865.513 -1907.691)" fill="#fff"/>
        </g>
        <g id="Group_1141" data-name="Group 1141" transform="translate(19.63)">
          <g id="Group_1140" data-name="Group 1140" clip-path="url(#clip-path-2)">
            <g id="Group_1139" data-name="Group 1139" transform="translate(8.847 29.225)">
              <path id="Path_4100" data-name="Path 4100" d="M2039.285,2485.5c-4.63-12.065,1.9-32.762,6-42.188,11.909-27.359,33.6-29.379,51.2-31.019,17.136-1.6,33.533-3.123,45.444,16.272,7.741,12.6,14.831,36.059,10.106,49.1-4.983,13.756-18.888,4.34-52.373,6.506C2062.151,2486.6,2045.05,2500.525,2039.285,2485.5Z" transform="translate(-2037.692 -2342.947)" fill="url(#linear-gradient-16)"/>
              <path id="Path_4101" data-name="Path 4101" d="M2315.548,2418.7c0,3.309-7.73,7.7-17.309,8.215-9.627.52-17.467-3.063-17.467-6.4s7.84-2.251,17.467-2.748C2307.818,2417.27,2315.548,2415.392,2315.548,2418.7Z" transform="translate(-2240.568 -2347.419)" fill="url(#linear-gradient-17)"/>
              <path id="Path_4102" data-name="Path 4102" d="M2312.433,2294.693c-2.655.122,3.467,19.22-6.183,22.381a1.133,1.133,0,0,0-.238,2.056c2.6,1.325,7.448,2.918,15.379,2.5a19.857,19.857,0,0,0,10.826-3.959,1.117,1.117,0,0,0-.113-1.883c-2.945-1.435-7.04-6.279-5.817-21.236Z" transform="translate(-2261.167 -2245.4)" fill="url(#linear-gradient-18)"/>
              <path id="Path_4103" data-name="Path 4103" d="M2298.83,2097.919c.04.242.845,17.948,4.744,26.624,1.118,2.487,6.652,1.919,10.226,1.444,3.1-.412,7.945.536,9.308-1.756,5.469-9.2,4.543-31.3,4.543-31.3s-2.8-7.264-14.333-6.634C2301.718,2086.93,2298.83,2097.919,2298.83,2097.919Z" transform="translate(-2255.639 -2071.559)" fill="url(#linear-gradient-19)"/>
              <path id="Path_4104" data-name="Path 4104" d="M2279.064,2197.8s-2.436-2.839-4.734-3.135-3.8,5.954-.661,9.842,6.753.387,6.753.387Z" transform="translate(-2233.149 -2162.031)" fill="url(#linear-gradient-20)"/>
              <path id="Path_4105" data-name="Path 4105" d="M2451.08,2189.792s2.4-3.022,4.665-3.506,3.729,5.579.649,9.7a4.365,4.365,0,0,1-6.657.976Z" transform="translate(-2381.587 -2155.021)" fill="url(#linear-gradient-21)"/>
              <path id="Path_4106" data-name="Path 4106" d="M2277.552,2033.019c.307.572.658,1.1.9,1.026.984-.308-2.814-10.12.685-13.749,1.806-1.873,3.839-.31,11.214-.945,7.4-.638,9.286-2.555,11.515-1.229,2.028,1.207,3.841,4.8,2.339,15.733l1.254-.357a11.821,11.821,0,0,1,.754-7.25,8.5,8.5,0,0,0,1.367-4.341c-.045-1.19-.422-1.228-.484-2.2-.182-2.853,2.934-3.742,3.084-6.572.116-2.178-1.675-2.606-1.348-4.891.278-1.943,1.677-2.354,1.455-3.742-.239-1.5-2.112-2.554-3.428-2.9-1.343-.353-1.829.107-2.617-.435-1.274-.875-.662-2.529-1.583-3.1-1.642-1.024-4.909,3.4-7.024,2.4-1.282-.607-.788-2.566-1.923-3-2.2-.838-6.08,5.711-7.644,4.913-.75-.382-.027-1.972-1.078-3.088-1.236-1.312-4.2-1.21-5.56.269-1.264,1.38-.19,2.94-1.529,4.681-1.2,1.564-2.593.987-3.952,2.255-2.311,2.157-1.506,6.822-1.219,8.486.988,5.728,4.062,6.772,3.372,10.728a9.238,9.238,0,0,0-.294,3.775A7.458,7.458,0,0,0,2277.552,2033.019Z" transform="translate(-2233.542 -1997.386)" fill="url(#linear-gradient-22)"/>
              <g id="Group_1138" data-name="Group 1138" transform="translate(38.812 9.491)" opacity="0.3" style="mix-blend-mode: multiply;isolation: isolate">
                <path id="Path_4107" data-name="Path 4107" d="M2305.7,2067.369c-.269-2.8,1.812-4.187,1.462-6.179a4.516,4.516,0,0,0-3.658-3.232c-3.5-.532-5.763,4.938-9.25,4.485-2.7-.35-2.4-3.765-5.454-5.022-4.848-2-9.943,4.821-13.182,3.1-.975-.517-1.96-1.9-2.031-5.756-1.862,2.286-1.131,6.529-.86,8.1.988,5.728,4.062,6.772,3.372,10.728a9.239,9.239,0,0,0-.294,3.776,7.459,7.459,0,0,0,1.748,3.54c.307.572.658,1.1.9,1.026.984-.309-2.814-10.12.685-13.75,1.806-1.874,3.839-.31,11.214-.945,7.4-.638,9.286-2.555,11.515-1.229,2.028,1.206,3.841,4.8,2.339,15.733l1.254-.357a11.822,11.822,0,0,1,.754-7.25c.211-.434.492-.923.745-1.48a13.189,13.189,0,0,0-.524-3.023A11.3,11.3,0,0,1,2305.7,2067.369Z" transform="translate(-2272.358 -2054.768)" fill="url(#linear-gradient-23)"/>
              </g>
            </g>
          </g>
        </g>
        <g id="Group_1142" data-name="Group 1142" transform="translate(57.225 120.602)">
          <path id="Path_4109" data-name="Path 4109" d="M2221.841,2571.558a5.656,5.656,0,0,1-5.161,5.658,4.906,4.906,0,0,1-5.175-5.05,5.654,5.654,0,0,1,5.175-5.659A4.907,4.907,0,0,1,2221.841,2571.558Z" transform="translate(-2211.505 -2563.749)" fill="#fff"/>
          <path id="Path_4110" data-name="Path 4110" d="M2367.709,2563.16a5.6,5.6,0,0,1-5.1,5.621,4.861,4.861,0,0,1-5.11-5.02,5.6,5.6,0,0,1,5.11-5.622A4.863,4.863,0,0,1,2367.709,2563.16Z" transform="translate(-2333.355 -2556.764)" fill="#fff"/>
          <path id="Path_4111" data-name="Path 4111" d="M2511.766,2554.867a5.554,5.554,0,0,1-5.034,5.584,4.818,4.818,0,0,1-5.047-4.99,5.552,5.552,0,0,1,5.047-5.585A4.819,4.819,0,0,1,2511.766,2554.867Z" transform="translate(-2453.691 -2549.867)" fill="#fff"/>
        </g>
      </g>
      <path id="Path_4112" data-name="Path 4112" d="M1929.6,1901.966v54.2c0,7.7-5.531,14.215-12.373,14.567l-40.837,2.113-7.673.393-3.2.168v-59.63c0-.11,0-.214.006-.323.006-.127.018-.248.023-.375a11.679,11.679,0,0,1,1.582-4.792c.023-.046.139-.087.162-.127a9.269,9.269,0,0,1,7.61-4.757l17.246-.485a1.124,1.124,0,0,0,.052.121Z" transform="translate(-1661.127 -1678.999)" fill="#d8dee8" style="mix-blend-mode: multiply;isolation: isolate"/>
      <g id="Group_1152" data-name="Group 1152" transform="translate(0 88.783)">
        <path id="Path_4113" data-name="Path 4113" d="M896.074,1108.656c0-6.728-4.261-12.365-9.887-13.7-.2-.047-.424-.089-.628-.126a11.21,11.21,0,0,0-1.89-.171l-118.173-.691-116.6-.682c-.245,0-.49,0-.732.015a13.65,13.65,0,0,0-8.229,3.295l-.125.107q-.489.427-.94.9l-.021.022c-.177.186-.349.378-.518.574a15.329,15.329,0,0,0-3.649,10.006v10.76h0v168.859a15.508,15.508,0,0,0,.449,3.725,14.761,14.761,0,0,0,.67,2.055,13.276,13.276,0,0,0,13.092,8.484l178.44-9.24h0l56.368-2.917c6.823-.353,12.375-6.872,12.375-14.561V1118.642h0Z" transform="translate(-633.865 -1092.856)" fill="#d8dee8"/>
        <g id="Group_1146" data-name="Group 1146" transform="translate(0 0.138)">
          <path id="Path_4114" data-name="Path 4114" d="M892.459,1108.02v166.89c0,7.7-5.534,14.218-12.373,14.568l-57.189,2.958-178.082,9.221a14.015,14.015,0,0,1-14.55-12.539c-.065-.567-.5-181.555-.5-181.555a15.8,15.8,0,0,1,2.742-8.218c.042-.067.282-.129.323-.192a14.121,14.121,0,0,1,11.887-6.523l27.141.159,208.21,1.218C886.9,1094.048,892.459,1100.319,892.459,1108.02Z" transform="translate(-629.76 -1092.443)" fill="#fff"/>
          <path id="Path_4115" data-name="Path 4115" d="M671.926,1320.982c-5.332.269-9.682-4.091-9.682-9.72V1131.674a9.917,9.917,0,0,1,9.682-10.164l235.262,1.065c4.65.021,8.423,4.3,8.423,9.535v167.08c0,5.237-3.774,9.688-8.423,9.922Z" transform="translate(-656.871 -1116.546)" fill="url(#linear-gradient-7)"/>
          <path id="Path_4116" data-name="Path 4116" d="M884.18,1094.008l-235.262-1.375c-7.851-.046-14.241,6.64-14.241,14.932v10.771l261.863-.324v-10C896.54,1100.319,891.018,1094.048,884.18,1094.008Z" transform="translate(-633.864 -1092.445)" fill="#d8dee8"/>
          <path id="Path_4117" data-name="Path 4117" d="M741.116,1149.327a4.629,4.629,0,1,1-4.62-4.484A4.539,4.539,0,0,1,741.116,1149.327Z" transform="translate(-714.977 -1136.021)" fill="#fff"/>
          <path id="Path_4118" data-name="Path 4118" d="M839.082,1149.644a4.587,4.587,0,1,1-4.579-4.463A4.509,4.509,0,0,1,839.082,1149.644Z" transform="translate(-796.808 -1136.302)" fill="#fff"/>
          <path id="Path_4119" data-name="Path 4119" d="M936.176,1149.959a4.546,4.546,0,1,1-4.538-4.443A4.478,4.478,0,0,1,936.176,1149.959Z" transform="translate(-877.912 -1136.582)" fill="#fff"/>
          <path id="Path_4120" data-name="Path 4120" d="M965.884,1531.283l-230.837,11V1400.921l230.837-2Z" transform="translate(-717.634 -1348.072)" fill="#d8dee8"/>
          <g id="Group_1144" data-name="Group 1144" transform="translate(17.414 37.138)" opacity="0.5">
            <path id="Path_4121" data-name="Path 4121" d="M859.051,1319.035l-124,.575v7.636l124-.837Z" transform="translate(-735.048 -1318.54)" fill="#fff"/>
            <path id="Path_4122" data-name="Path 4122" d="M2050.9,1316.1v7.178l13.2-.089v-7.15Z" transform="translate(-1833.263 -1316.039)" fill="#fff"/>
          </g>
          <g id="Group_1145" data-name="Group 1145" opacity="0.5" style="mix-blend-mode: soft-light;isolation: isolate">
            <path id="Path_4123" data-name="Path 4123" d="M822.892,1291.489l-178.078,9.222a14.054,14.054,0,0,1-14.594-12.536c0-.166-.46-181.637-.46-181.637a16.015,16.015,0,0,1,2.7-8.138c.042-.067.3-.129.345-.191a14.124,14.124,0,0,1,11.986-6.711l27,.159c.018.062.068.125.091.187.5,1.56,1.07,3.143,1.677,4.747a99.014,99.014,0,0,0,9.876,19.542c.261.4.531.8.8,1.19a82.65,82.65,0,0,0,10.008,12.166,78.529,78.529,0,0,0,8.65,7.477,88.418,88.418,0,0,0,10.679,6.805c26.164,14.27,55.476,15.55,74.879,44.8,16.6,25.033,4.714,38.68,20.766,77.166q2.615,6.272,5.6,11.978,2.532,4.878,5.291,9.37C821.016,1288.589,821.95,1290.057,822.892,1291.489Z" transform="translate(-629.76 -1091.498)" fill="#fff"/>
          </g>
        </g>
        <g id="Group_1147" data-name="Group 1147" transform="translate(89.49 157.167)">
          <path id="Path_4124" data-name="Path 4124" d="M1189.277,2066.811a9.867,9.867,0,0,1-9.2,9.922,8.945,8.945,0,0,1-9.248-9.176,9.861,9.861,0,0,1,9.248-9.924A8.949,8.949,0,0,1,1189.277,2066.811Z" transform="translate(-1170.831 -2054.864)" fill="#fff"/>
          <path id="Path_4125" data-name="Path 4125" d="M1414.738,2058.27a9.709,9.709,0,0,1-9,9.809A8.8,8.8,0,0,1,1396.7,2059a9.7,9.7,0,0,1,9.045-9.81A8.806,8.806,0,0,1,1414.738,2058.27Z" transform="translate(-1359.34 -2047.817)" fill="#fff"/>
          <path id="Path_4126" data-name="Path 4126" d="M1635.277,2049.916a9.556,9.556,0,0,1-8.8,9.7c-4.881.211-8.849-3.811-8.849-8.984s3.967-9.516,8.849-9.7A8.667,8.667,0,0,1,1635.277,2049.916Z" transform="translate(-1543.73 -2040.924)" fill="#fff"/>
        </g>
        <g id="Group_1150" data-name="Group 1150" transform="translate(31.178)">
          <g id="Group_1149" data-name="Group 1149" clip-path="url(#clip-path-3)">
            <g id="Group_1148" data-name="Group 1148" transform="translate(7.976 0.771)">
              <path id="Path_4127" data-name="Path 4127" d="M965.783,1816.72c-62.486,3.273-84.856,12.574-95.073-.638-9.448-12.217-1.618-57.779,9.609-70.778,17.621-20.4,45.593-21.97,83.241-23.8,34.767-1.692,55.891-2.721,72.412,11.816,15.32,13.479,25.042,60.877,15.563,74.561C1042.7,1820.636,1023.669,1813.688,965.783,1816.72Z" transform="translate(-866.492 -1617.151)" fill="url(#linear-gradient-25)"/>
              <path id="Path_4128" data-name="Path 4128" d="M1281.168,1711.031l-7.3,2.015a2.739,2.739,0,0,0-1.612,4.109c4.977,7.607,18.1,26.607,26.271,28.638,8.414,2.091,24.039-22.659,29.21-31.317a2.63,2.63,0,0,0-1.455-3.895l-5.231-1.57a34.3,34.3,0,0,0-13.323-1.259l-19.753,2A41.207,41.207,0,0,0,1281.168,1711.031Z" transform="translate(-1204.786 -1606.312)" fill="url(#linear-gradient-26)"/>
              <path id="Path_4129" data-name="Path 4129" d="M1353.243,1555.733s3.989,28.6-1.529,31.452l15.67,16.7,15.749-20.511s-5.938-4.375-4.373-27.992Z" transform="translate(-1271.461 -1479.293)" fill="url(#linear-gradient-27)"/>
              <path id="Path_4130" data-name="Path 4130" d="M1297.53,1259.471c-.57.771-8,37.092,17.591,40.541,25.264,3.406,26.371-23.089,26.052-34.321s-11.835-15.3-18.454-16.08C1316.077,1248.829,1299.554,1256.737,1297.53,1259.471Z" transform="translate(-1225.043 -1224.049)" fill="url(#linear-gradient-28)"/>
              <path id="Path_4131" data-name="Path 4131" d="M1260.037,1420.2s-1.285-5.914-5.69-2.183,2.6,13.484,8.37,13.013Z" transform="translate(-1189.039 -1363.615)" fill="url(#linear-gradient-29)"/>
              <path id="Path_4132" data-name="Path 4132" d="M1549.845,1403.346c-.722.5-2.8,14.272-2.8,14.272s3.626.388,6.247-4.573S1557.171,1398.3,1549.845,1403.346Z" transform="translate(-1434.49 -1351.229)" fill="url(#linear-gradient-30)"/>
              <path id="Path_4133" data-name="Path 4133" d="M1258.905,1121.166c-2.633-4.407-9.3-2.315-11.251-6.575-1.64-3.582,2.213-6.942.147-10.041-1.73-2.594-5.964-2.546-6.718-2.537-5.739.066-7.055,4.628-11.159,4.514-5.024-.14-5.22-7.021-11.883-9.952-6.486-2.854-16-.606-19.864,4.681-3.005,4.116-.448,7.155-4.391,12.452-2.717,3.649-5.121,3.811-6.473,7.387-1.27,3.361-.411,6.559.262,8.933,1.61,5.689,4.609,8.186,9.131,14.209a96.816,96.816,0,0,1,7.647,11.936,134.687,134.687,0,0,1,4.484,14.248c1.436,5.625,1.349,6.769,2.691,8.576,4.616,6.22,15.114,5.434,19.514,5.1,5.034-.377,11.282-.845,14.418-5.269,1.693-2.388,1.48-4.52,1.873-10.233a142.5,142.5,0,0,1,2.172-16.743,51.291,51.291,0,0,1,2.04-7.1c1.817-4.895,3.7-5.683,5.747-10.734C1258.931,1129.972,1261.047,1124.75,1258.905,1121.166Zm-20.8,38.271c-3.106.875-5.2.141-9.426-.057-8.471-.4-11.158,3.606-15.175,1.9-1.677-.711-5.561-2.713-6.385-6.623a31.421,31.421,0,0,1-.264-10.031c.668-4.914,1.439-10.582,5.382-13.1,5.707-3.646,12.972,2.562,18.174-1.491a9.4,9.4,0,0,0,3.145-5.681c1.151.4,10.285,3.709,13.636,13.473a22.131,22.131,0,0,1-.124,14.32C1245.182,1155.029,1242.3,1158.255,1238.107,1159.437Z" transform="translate(-1133.706 -1095.329)" fill="#26264f"/>
              <path id="Path_4134" data-name="Path 4134" d="M1388.067,1517.1a20.829,20.829,0,0,0,13.676-.553c.569-.223,1.055.394.58.739a12.7,12.7,0,0,1-7.948,2.754,16.349,16.349,0,0,1-6.793-2.143C1387.056,1517.6,1387.471,1516.918,1388.067,1517.1Z" transform="translate(-1301.196 -1446.837)" fill="url(#linear-gradient-31)"/>
            </g>
          </g>
        </g>
        <g id="Group_1151" data-name="Group 1151" transform="translate(90.65 158.887)">
          <path id="Path_4136" data-name="Path 4136" d="M1193.83,2074.336a8.326,8.326,0,0,1-7.976,8.225,7.622,7.622,0,0,1-8.008-7.642,8.324,8.324,0,0,1,8.008-8.227A7.623,7.623,0,0,1,1193.83,2074.336Z" transform="translate(-1177.846 -2064.147)" fill="#fff"/>
          <path id="Path_4137" data-name="Path 4137" d="M1418.926,2066.515a8.211,8.211,0,0,1-7.83,8.147,7.517,7.517,0,0,1-7.861-7.574,8.208,8.208,0,0,1,7.861-8.148A7.517,7.517,0,0,1,1418.926,2066.515Z" transform="translate(-1365.957 -2057.676)" fill="#fff"/>
          <path id="Path_4138" data-name="Path 4138" d="M1639.9,2058.836a8.1,8.1,0,0,1-7.687,8.07,7.414,7.414,0,0,1-7.718-7.507,8.1,8.1,0,0,1,7.718-8.071A7.415,7.415,0,0,1,1639.9,2058.836Z" transform="translate(-1550.624 -2051.323)" fill="#fff"/>
        </g>
      </g>
    </g>
    <g id="Group_1158" data-name="Group 1158" transform="translate(443.538 525.292)">
      <g id="Group_1155" data-name="Group 1155" transform="translate(0)">
        <path id="Path_4139" data-name="Path 4139" d="M591.359,899.959a34.086,34.086,0,0,0,7.845-21.382c0-22.766-24.24-41.221-54.14-41.221s-54.14,18.455-54.14,41.221,24.24,41.22,54.14,41.22a66.389,66.389,0,0,0,30.255-7.032c5.71.974,14.572,2.611,19.249,3.481a1.8,1.8,0,0,0,2.012-2.4Z" transform="translate(-490.923 -837.356)" fill="url(#linear-gradient-32)"/>
        <g id="Group_1154" data-name="Group 1154" transform="translate(0 6.54)" opacity="0.3" style="mix-blend-mode: multiply;isolation: isolate">
          <path id="Path_4140" data-name="Path 4140" d="M574.69,920.3c-12.14-5.1-25.49,5.668-33.836-1.845-8.413-7.574.675-22.549-7.382-33.221-3.842-5.088-10.3-7.5-17.681-8.337-14.96,7.335-24.868,20.126-24.868,34.681,0,22.765,24.24,41.22,54.14,41.22a66.389,66.389,0,0,0,30.255-7.032c4.5.769,10.971,1.949,15.8,2.841C587.556,930.15,581.008,922.957,574.69,920.3Z" transform="translate(-490.923 -876.898)" fill="url(#linear-gradient-33)"/>
        </g>
      </g>
      <g id="Group_1157" data-name="Group 1157" transform="translate(20.07 24.077)">
        <path id="Path_4141" data-name="Path 4141" d="M682.247,985.01a2.078,2.078,0,0,1-2.078,2.079H614.35a2.079,2.079,0,0,1-2.078-2.079h0a2.078,2.078,0,0,1,2.078-2.078h65.818a2.078,2.078,0,0,1,2.078,2.078Z" transform="translate(-612.272 -982.932)" fill="#fff"/>
        <g id="Group_1156" data-name="Group 1156" transform="translate(0 12.471)">
          <path id="Path_4142" data-name="Path 4142" d="M682.247,1060.411a2.079,2.079,0,0,1-2.078,2.078H614.35a2.079,2.079,0,0,1-2.078-2.078h0a2.079,2.079,0,0,1,2.078-2.079h65.818a2.078,2.078,0,0,1,2.078,2.079Z" transform="translate(-612.272 -1058.332)" fill="#fff"/>
          <path id="Path_4143" data-name="Path 4143" d="M651.07,1135.811a2.078,2.078,0,0,1-2.079,2.078H614.35a2.079,2.079,0,0,1-2.078-2.078h0a2.079,2.079,0,0,1,2.078-2.078h34.641a2.079,2.079,0,0,1,2.079,2.078Z" transform="translate(-612.272 -1121.261)" fill="#fff"/>
        </g>
      </g>
    </g>
  </g>
</svg>
