<svg xmlns="http://www.w3.org/2000/svg" width="470" height="389.11" viewBox="0 0 470 389.11">
  <g id="step2-graphic" transform="translate(0)">
    <path id="Path_3786" data-name="Path 3786" d="M394.874-336.911a41.663,41.663,0,0,0-44.3-38.843,41.663,41.663,0,0,0-38.844,44.3,41.663,41.663,0,0,0,44.3,38.843A41.662,41.662,0,0,0,394.874-336.911Z" transform="translate(-247.6 375.845)" fill="#ffb752"/>
    <path id="Path_3787" data-name="Path 3787" d="M351.4-333.526a8.34,8.34,0,0,0,1.472.1l4.049.082c3.436.048,8.223.081,13.628.089h.267v-.268c0-.864,0-1.777,0-2.7,0-6.035-.03-11.5-.079-15.452-.034-1.907-.064-3.485-.086-4.684a10.486,10.486,0,0,0-.1-1.716,10.484,10.484,0,0,0-.1,1.716c-.023,1.2-.051,2.777-.086,4.684-.049,3.954-.079,9.417-.079,15.452,0,.926,0,1.838,0,2.7l.268-.267c-5.4.008-10.191.04-13.628.088l-4.049.082A8.338,8.338,0,0,0,351.4-333.526Z" transform="translate(-264.612 376.472)" fill="#f9fbfc"/>
    <path id="Path_3788" data-name="Path 3788" d="M351.788-369.233a11.63,11.63,0,0,0-.269,3.5,11.63,11.63,0,0,0,.269,3.5,11.568,11.568,0,0,0,.27-3.5A11.568,11.568,0,0,0,351.788-369.233Z" transform="translate(-245.983 376.078)" fill="#f9fbfc"/>
    <path id="Path_3789" data-name="Path 3789" d="M365.4-363.8a11.282,11.282,0,0,0,2.249,2.63,11.311,11.311,0,0,0,2.63,2.249,11.274,11.274,0,0,0-2.249-2.631A11.236,11.236,0,0,0,365.4-363.8Z" transform="translate(-278.583 376.27)" fill="#f9fbfc"/>
    <path id="Path_3790" data-name="Path 3790" d="M375.142-352.091a14.54,14.54,0,0,0,2.871,1.916,14.5,14.5,0,0,0,3.023,1.666,9.215,9.215,0,0,0-2.742-2.126A9.238,9.238,0,0,0,375.142-352.091Z" transform="translate(-299.42 376.683)" fill="#f9fbfc"/>
    <path id="Path_3791" data-name="Path 3791" d="M377.9-334.7a21.359,21.359,0,0,0,4.773.269,21.351,21.351,0,0,0,4.773-.269,21.316,21.316,0,0,0-4.773-.27A21.325,21.325,0,0,0,377.9-334.7Z" transform="translate(-308.684 377.288)" fill="#f9fbfc"/>
    <path id="Path_3792" data-name="Path 3792" d="M314.493-335.318a19.052,19.052,0,0,0,4.508.27,19.032,19.032,0,0,0,4.507-.27,19.062,19.062,0,0,0-4.507-.269A19.082,19.082,0,0,0,314.493-335.318Z" transform="translate(-179.1 377.266)" fill="#f9fbfc"/>
    <path id="Path_3793" data-name="Path 3793" d="M320.815-322.387a19.716,19.716,0,0,0,3.405,3.089,19.725,19.725,0,0,0,3.745,2.67,19.923,19.923,0,0,0-3.406-3.09A19.8,19.8,0,0,0,320.815-322.387Z" transform="translate(-190.101 377.731)" fill="#f9fbfc"/>
    <path id="Path_3794" data-name="Path 3794" d="M334.253-312.38a30.626,30.626,0,0,0,2.318,4.018,30.574,30.574,0,0,0,2.461,3.933,15.187,15.187,0,0,0-2-4.212A15.086,15.086,0,0,0,334.253-312.38Z" transform="translate(-215.086 378.085)" fill="#f9fbfc"/>
    <path id="Path_3795" data-name="Path 3795" d="M351.788-299.149a21.314,21.314,0,0,0,.27-4.772,21.32,21.32,0,0,0-.27-4.773,21.436,21.436,0,0,0-.269,4.773A21.43,21.43,0,0,0,351.788-299.149Z" transform="translate(-245.983 378.215)" fill="#f9fbfc"/>
    <path id="Path_3796" data-name="Path 3796" d="M364.748-305.4a13.96,13.96,0,0,0,3.935-2.695,13.983,13.983,0,0,0,3.207-3.53,43.92,43.92,0,0,0-3.562,3.123A44.213,44.213,0,0,0,364.748-305.4Z" transform="translate(-279.515 378.111)" fill="#f9fbfc"/>
    <path id="Path_3797" data-name="Path 3797" d="M375.238-315.456a16.6,16.6,0,0,0,3.16-2.779,16.522,16.522,0,0,0,2.779-3.16,16.623,16.623,0,0,0-3.161,2.779A16.62,16.62,0,0,0,375.238-315.456Z" transform="translate(-299.658 377.766)" fill="#f9fbfc"/>
    <path id="Path_3798" data-name="Path 3798" d="M322.278-347.545a12.751,12.751,0,0,0,2.789-2.407,12.748,12.748,0,0,0,2.407-2.789,12.748,12.748,0,0,0-2.788,2.408A12.783,12.783,0,0,0,322.278-347.545Z" transform="translate(-191.126 376.66)" fill="#f9fbfc"/>
    <path id="Path_3799" data-name="Path 3799" d="M333.877-359.672a12.263,12.263,0,0,0,2.74-2.348,12.242,12.242,0,0,0,2.361-2.731,12.215,12.215,0,0,0-2.741,2.349A12.2,12.2,0,0,0,333.877-359.672Z" transform="translate(-214.64 376.236)" fill="#f9fbfc"/>
    <path id="Path_3805" data-name="Path 3805" d="M409.042-36.26c18.768-13.112,23.026-37.45,22.284-59.325-.123-3.653.276-7.5-1.459-10.707s-5.791-5.393-9.061-3.854c-2.712,1.277-3.894,4.431-5.411,7.04a21.352,21.352,0,0,1-8.564,8.18c-2.326,1.207-5.2,1.944-7.5.679-3.15-1.738-3.521-6.09-3.5-9.722q.065-10.155.127-20.306c.022-3.633.033-7.341-1.1-10.788s-3.626-6.65-7.081-7.618-7.727,1.025-8.457,4.579a33.548,33.548,0,0,0-.1,4.522c-.1,1.508-.8,3.177-2.236,3.6-1.449.425-2.9-.6-3.988-1.667-3.749-3.667-6.293-8.391-8.67-13.089s-4.686-9.508-8.088-13.507-8.106-7.17-13.307-7.464-10.744,2.916-12.059,8.022,1.67,10.316,4.92,14.46a81.062,81.062,0,0,0,16.88,16.09A6.671,6.671,0,0,1,355.5-124.1c.788,2.421-1.506,4.826-3.9,5.622-2.707.9-5.645.62-8.478.954s-5.9,1.583-6.971,4.259c-1.489,3.712,1.616,7.6,4.672,10.152a69.453,69.453,0,0,0,20.554,11.864c2.671.977,5.483,1.837,7.637,3.713s-1.187,8.521-2.49,11.08,0,0-2.8-.52-5.3-2.038-7.971-3.044c-4.991-1.885-11.436-1.541-14.633,2.773-2.1,2.837-2.287,6.784-1.224,10.165a26.484,26.484,0,0,0,5.506,8.977c8,9.385,18.241,16.94,29.82,20.955S397.536-32.052,409.042-36.26Z" transform="translate(-303.629 383.26)" fill="#ebebeb"/>
    <path id="Path_3806" data-name="Path 3806" d="M425.086-20.146a159.476,159.476,0,0,0-5.934-29.933,325.485,325.485,0,0,0-12.918-35.039l-3.859-9.01c-1.272-2.954-2.535-5.884-3.947-8.674a162.433,162.433,0,0,0-9.031-15.564c-3.112-4.812-6.24-9.264-9.2-13.406s-5.8-7.942-8.535-11.3A128.972,128.972,0,0,0,357.6-157.936c-1.791-1.619-3.223-2.829-4.2-3.637-.473-.383-.843-.684-1.121-.911a2.791,2.791,0,0,0-.4-.292,2.6,2.6,0,0,0,.353.346l1.078.961c.95.841,2.353,2.082,4.116,3.728A136.3,136.3,0,0,1,371.3-142.768c2.7,3.366,5.511,7.177,8.452,11.323s6.041,8.613,9.131,13.418a164.312,164.312,0,0,1,8.961,15.523c1.4,2.777,2.648,5.682,3.922,8.645s2.552,5.966,3.854,9.006A333.8,333.8,0,0,1,418.564-49.9a162.373,162.373,0,0,1,6.053,29.8" transform="translate(-319.385 383.365)" fill="#e0e1e1"/>
    <path id="Path_3807" data-name="Path 3807" d="M372.7-103.51a7.3,7.3,0,0,0,.355-1.549c.19-1,.418-2.465.674-4.274.513-3.616,1.052-8.634,1.625-14.168s1.181-10.534,1.749-14.133c.28-1.8.519-3.255.7-4.258a7.218,7.218,0,0,0,.2-1.577,7.35,7.35,0,0,0-.456,1.522c-.258.989-.569,2.436-.908,4.231-.69,3.59-1.375,8.6-1.948,14.141-.551,5.463-1.05,10.406-1.431,14.181-.183,1.706-.337,3.143-.463,4.3A7.222,7.222,0,0,0,372.7-103.51Z" transform="translate(-293.847 384.046)" fill="#e0e1e1"/>
    <path id="Path_3808" data-name="Path 3808" d="M377.814-113.3a10.073,10.073,0,0,0,1.861.224c1.2.108,2.933.252,5.07.5,4.278.462,10.163,1.305,16.615,2.522s12.244,2.587,16.4,3.692c2.086.537,3.761,1.018,4.922,1.343a9.9,9.9,0,0,0,1.822.447,10.106,10.106,0,0,0-1.744-.7c-1.139-.4-2.8-.954-4.874-1.553-4.141-1.225-9.936-2.663-16.407-3.9a164.433,164.433,0,0,0-16.692-2.331c-2.15-.188-3.9-.262-5.1-.287A9.933,9.933,0,0,0,377.814-113.3Z" transform="translate(-345.657 385.109)" fill="#e0e1e1"/>
    <path id="Path_3809" data-name="Path 3809" d="M335.457-52.718a2.435,2.435,0,0,0,.32-.569c.215-.457.479-1.014.8-1.69.687-1.469,1.625-3.624,2.75-6.3,2.254-5.349,5.133-12.836,8.2-21.141s5.874-15.812,8.011-21.2l2.551-6.375c.274-.7.5-1.268.684-1.739a2.44,2.44,0,0,0,.2-.625,2.45,2.45,0,0,0-.321.57c-.215.458-.479,1.014-.8,1.689-.686,1.47-1.624,3.622-2.75,6.3-2.253,5.349-5.132,12.838-8.2,21.146s-5.873,15.809-8.01,21.2c-1.05,2.617-1.911,4.774-2.551,6.373-.274.7-.5,1.269-.684,1.74A2.353,2.353,0,0,0,335.457-52.718Z" transform="translate(-236.264 385.144)" fill="#e0e1e1"/>
    <path id="Path_3810" data-name="Path 3810" d="M358.166-74.067a2.575,2.575,0,0,0,.616.254l1.8.6,6.646,2.153c5.61,1.82,13.329,4.421,21.856,7.307s16.281,5.423,21.931,7.126c2.824.853,5.116,1.52,6.71,1.948l1.838.482a2.356,2.356,0,0,0,.654.123,2.626,2.626,0,0,0-.616-.255l-1.8-.6-6.643-2.153c-5.61-1.819-13.331-4.422-21.861-7.31s-16.276-5.42-21.925-7.124c-2.825-.853-5.117-1.519-6.712-1.947-.737-.194-1.344-.354-1.838-.482A2.3,2.3,0,0,0,358.166-74.067Z" transform="translate(-321.025 386.495)" fill="#e0e1e1"/>
    <path id="Path_3811" data-name="Path 3811" d="M380.413-271.134S399.8-61.787,359.393,5.511L0,9.762S59.535-171.712,54.376-276.615Z" transform="translate(84.937 379.347)" fill="#e0e1e1"/>
    <path id="Path_3812" data-name="Path 3812" d="M395.688-271.321S418.468-55.458,347.5-9.328H1.128S62.6-114.7,67.448-271.321Z" transform="translate(69.662 379.534)" fill="#ebebeb"/>
    <path id="Path_3813" data-name="Path 3813" d="M339.768-266.048H2.8v-54.034H339.768Z" transform="translate(127.338 377.813)" fill="#182e35"/>
    <path id="Path_3814" data-name="Path 3814" d="M61.995-318.792l.309-.086-.309.089v0l.309-.086-.309.089a18.078,18.078,0,0,0-3.075-5.691,14.553,14.553,0,0,0-4.359-3.713,14.022,14.022,0,0,0-6.848-1.663,14.716,14.716,0,0,0-6.261,1.3,13.166,13.166,0,0,0-5.951,5.591,16.043,16.043,0,0,0-2.012,7.785A15.639,15.639,0,0,0,36.9-305.143c2.306,2.743,5.773,4.7,10.9,4.989a1.553,1.553,0,0,1,1.466,1.635,1.553,1.553,0,0,1-1.636,1.466c-5.857-.306-10.277-2.683-13.115-6.1a18.726,18.726,0,0,1-4.13-12.026,18.719,18.719,0,0,1,4.3-12.031,15.934,15.934,0,0,1,5.459-4.163,17.829,17.829,0,0,1,7.568-1.588,17.117,17.117,0,0,1,8.443,2.1A18.683,18.683,0,0,1,63.1-323.85a19.7,19.7,0,0,1,1.882,4.226,1.553,1.553,0,0,1-1.08,1.912A1.553,1.553,0,0,1,61.995-318.792Z" transform="translate(373.501 377.359)" fill="#e0e1e1"/>
    <path id="Path_3815" data-name="Path 3815" d="M43.676-312.839H27.05v-7.426H43.676Z" transform="translate(398.319 377.807)" fill="#182e35"/>
    <path id="Path_3816" data-name="Path 3816" d="M123.829-318.792l.309-.086-.309.089v0l.309-.086-.309.089a18.078,18.078,0,0,0-3.075-5.691,14.552,14.552,0,0,0-4.358-3.713,14.021,14.021,0,0,0-6.847-1.663,14.721,14.721,0,0,0-6.262,1.3,13.166,13.166,0,0,0-5.951,5.591,16.043,16.043,0,0,0-2.012,7.785,15.639,15.639,0,0,0,3.408,10.036c2.307,2.743,5.773,4.7,10.9,4.989a1.553,1.553,0,0,1,1.466,1.635,1.551,1.551,0,0,1-1.635,1.466c-5.857-.306-10.278-2.683-13.115-6.1a18.721,18.721,0,0,1-4.131-12.026,18.72,18.72,0,0,1,4.3-12.031,15.944,15.944,0,0,1,5.459-4.163,17.834,17.834,0,0,1,7.569-1.588,17.12,17.12,0,0,1,8.443,2.1,18.681,18.681,0,0,1,6.948,7.009,19.7,19.7,0,0,1,1.882,4.226,1.553,1.553,0,0,1-1.08,1.912A1.553,1.553,0,0,1,123.829-318.792Z" transform="translate(247.649 377.359)" fill="#e0e1e1"/>
    <path id="Path_3817" data-name="Path 3817" d="M105.511-312.839H88.884v-7.426h16.627Z" transform="translate(272.468 377.807)" fill="#182e35"/>
    <path id="Path_3818" data-name="Path 3818" d="M185.664-318.792l.309-.086-.307.089v0l.309-.086-.307.089a18.078,18.078,0,0,0-3.075-5.691,14.553,14.553,0,0,0-4.359-3.713,14.025,14.025,0,0,0-6.848-1.663,14.716,14.716,0,0,0-6.261,1.3,13.173,13.173,0,0,0-5.952,5.591,16.065,16.065,0,0,0-2.012,7.785,15.64,15.64,0,0,0,3.409,10.036c2.306,2.743,5.773,4.7,10.9,4.989a1.553,1.553,0,0,1,1.466,1.635,1.552,1.552,0,0,1-1.636,1.466c-5.857-.306-10.278-2.683-13.115-6.1a18.727,18.727,0,0,1-4.131-12.026,18.726,18.726,0,0,1,4.3-12.031,15.934,15.934,0,0,1,5.459-4.163,17.829,17.829,0,0,1,7.568-1.588,17.117,17.117,0,0,1,8.443,2.1,18.683,18.683,0,0,1,6.949,7.009,19.658,19.658,0,0,1,1.881,4.226,1.552,1.552,0,0,1-1.08,1.912A1.553,1.553,0,0,1,185.664-318.792Z" transform="translate(121.797 377.359)" fill="#e0e1e1"/>
    <path id="Path_3819" data-name="Path 3819" d="M167.345-312.839H150.719v-7.426h16.626Z" transform="translate(146.617 377.807)" fill="#182e35"/>
    <path id="Path_3820" data-name="Path 3820" d="M247.5-318.792l.309-.086-.309.089v0l.309-.086-.309.089a18.078,18.078,0,0,0-3.075-5.691,14.54,14.54,0,0,0-4.359-3.713,14.021,14.021,0,0,0-6.847-1.663,14.721,14.721,0,0,0-6.262,1.3,13.166,13.166,0,0,0-5.951,5.591,16.058,16.058,0,0,0-2.013,7.785,15.64,15.64,0,0,0,3.409,10.036c2.306,2.743,5.773,4.7,10.9,4.989a1.553,1.553,0,0,1,1.466,1.635,1.553,1.553,0,0,1-1.635,1.466c-5.858-.306-10.279-2.683-13.116-6.1a18.727,18.727,0,0,1-4.131-12.026,18.726,18.726,0,0,1,4.3-12.031,15.944,15.944,0,0,1,5.459-4.163,17.834,17.834,0,0,1,7.569-1.588,17.12,17.12,0,0,1,8.443,2.1,18.691,18.691,0,0,1,6.949,7.009,19.72,19.72,0,0,1,1.881,4.226,1.553,1.553,0,0,1-1.08,1.912A1.553,1.553,0,0,1,247.5-318.792Z" transform="translate(-4.055 377.359)" fill="#e0e1e1"/>
    <path id="Path_3821" data-name="Path 3821" d="M229.18-312.839H212.553v-7.426H229.18Z" transform="translate(20.766 377.807)" fill="#182e35"/>
    <path id="Path_3822" data-name="Path 3822" d="M309.333-318.792l.31-.086-.31.089v0l.31-.086-.31.089a18.078,18.078,0,0,0-3.075-5.691,14.541,14.541,0,0,0-4.359-3.713,14.021,14.021,0,0,0-6.847-1.663,14.721,14.721,0,0,0-6.262,1.3,13.166,13.166,0,0,0-5.951,5.591,16.065,16.065,0,0,0-2.012,7.785,15.64,15.64,0,0,0,3.409,10.036c2.306,2.743,5.772,4.7,10.9,4.989a1.551,1.551,0,0,1,1.466,1.635,1.551,1.551,0,0,1-1.635,1.466c-5.857-.306-10.278-2.683-13.115-6.1a18.723,18.723,0,0,1-4.131-12.026,18.726,18.726,0,0,1,4.3-12.031,15.931,15.931,0,0,1,5.458-4.163,17.834,17.834,0,0,1,7.569-1.588,17.12,17.12,0,0,1,8.443,2.1,18.691,18.691,0,0,1,6.949,7.009,19.72,19.72,0,0,1,1.881,4.226,1.553,1.553,0,0,1-1.08,1.912A1.553,1.553,0,0,1,309.333-318.792Z" transform="translate(-129.906 377.359)" fill="#e0e1e1"/>
    <path id="Path_3823" data-name="Path 3823" d="M291.015-312.839H274.388v-7.426h16.627Z" transform="translate(-105.087 377.807)" fill="#182e35"/>
    <path id="Path_3824" data-name="Path 3824" d="M397.356-265.957S401.085-25.383,323.1-25.383L2.8-25.274s45.779-46.7,59.343-240.683Z" transform="translate(69.721 379.723)" fill="#f4f5f6"/>
    <path id="Path_3825" data-name="Path 3825" d="M31.455-55.885c.072-.207.418-1.175,1.173-3.293.751-2.177,1.932-5.341,3.326-9.577,2.871-8.439,6.869-20.92,11.462-37.039,9.217-32.213,20.34-79.162,28.994-137.033l-.216.185,271.589.052h2.587l-.267-.307c-4.89,34.83-9.912,68.777-18.038,100.573a361.583,361.583,0,0,1-14.731,45.694,267.365,267.365,0,0,1-20.377,40.619l.208-.116-265.711.243,265.711.243h.135l.071-.116A267.69,267.69,0,0,0,317.808-96.44,362.018,362.018,0,0,0,332.574-142.2c8.144-31.832,13.173-65.795,18.064-100.628l.043-.306h-2.9l-271.589.051h-.188l-.027.187c-8.6,57.858-19.66,104.806-28.8,137.03C42.622-89.738,38.662-77.246,35.831-68.8,32.993-60.422,31.6-56.306,31.455-55.885Z" transform="translate(86.753 380.529)" fill="#182e35"/>
    <path id="Path_3826" data-name="Path 3826" d="M48.107-152.693c0,.149,61.164.27,136.6.27,75.459,0,136.611-.121,136.611-.27s-61.151-.269-136.611-.269C109.271-152.962,48.107-152.842,48.107-152.693Z" transform="translate(98.881 383.711)" fill="#182e35"/>
    <path id="Path_3827" data-name="Path 3827" d="M62.264-104.427c0,.148,61.18.269,136.631.269,75.478,0,136.644-.121,136.644-.269s-61.166-.27-136.644-.27C123.444-104.7,62.264-104.576,62.264-104.427Z" transform="translate(70 385.414)" fill="#182e35"/>
    <path id="Path_3828" data-name="Path 3828" d="M39.188-199.209c0,.148,61.162.269,136.592.269,75.455,0,136.6-.121,136.6-.269s-61.15-.27-136.6-.27C100.35-199.479,39.188-199.358,39.188-199.209Z" transform="translate(117.044 382.069)" fill="#182e35"/>
    <path id="Path_3829" data-name="Path 3829" d="M83.146-55.894s.066-.155.17-.468c.109-.333.257-.794.448-1.386L85.437-63.1c1.451-4.646,3.479-11.391,5.929-19.744,4.881-16.707,11.342-39.877,17.579-65.7,3.115-12.914,5.9-25.261,8.273-36.524,2.334-11.27,4.352-21.438,5.871-30.008.8-4.279,1.451-8.161,2.026-11.57s1.067-6.345,1.431-8.751c.367-2.387.651-4.249.85-5.54.088-.616.156-1.1.207-1.443.043-.325.053-.495.053-.495s-.046.164-.108.487c-.063.346-.149.822-.26,1.434-.222,1.288-.54,3.144-.948,5.522-.4,2.4-.9,5.334-1.522,8.735s-1.284,7.28-2.1,11.553c-1.566,8.559-3.624,18.714-5.983,29.975-2.4,11.252-5.2,23.59-8.31,36.5C102.186-122.856,95.786-99.678,91-82.946c-2.4,8.362-4.374,15.124-5.765,19.788-.678,2.317-1.208,4.125-1.575,5.378q-.255.9-.4,1.4C83.177-56.061,83.146-55.894,83.146-55.894Z" transform="translate(256.263 380.538)" fill="#182e35"/>
    <path id="Path_3830" data-name="Path 3830" d="M134.357-55.894s.066-.156.168-.469c.106-.334.251-.8.438-1.389l1.635-5.362c1.418-4.656,3.407-11.413,5.831-19.771,4.807-16.728,11.3-39.887,17.623-65.684,6.369-25.8,11.3-49.348,14.361-66.484.783-4.281,1.461-8.159,2.006-11.574.566-3.41,1.052-6.347,1.395-8.758.348-2.389.62-4.253.809-5.546.085-.616.15-1.1.2-1.444.041-.325.049-.495.049-.495s-.043.165-.1.488c-.06.346-.143.823-.249,1.435-.212,1.289-.518,3.147-.91,5.529-.373,2.4-.889,5.336-1.484,8.741-.574,3.408-1.279,7.279-2.084,11.555-3.16,17.111-8.143,40.638-14.51,66.423-6.32,25.788-12.753,48.957-17.465,65.709-2.386,8.349-4.321,15.113-5.665,19.817-.663,2.321-1.18,4.133-1.538,5.389l-.386,1.407C134.388-56.061,134.357-55.894,134.357-55.894Z" transform="translate(152.034 380.538)" fill="#182e35"/>
    <path id="Path_3831" data-name="Path 3831" d="M187.84-55.894s.067-.155.172-.467c.11-.334.26-.794.454-1.386.394-1.245.965-3.042,1.695-5.345,1.473-4.641,3.533-11.38,6.047-19.717,4.977-16.686,11.691-39.8,18.112-65.583,6.472-25.783,11.3-49.379,14.119-66.566.715-4.3,1.349-8.183,1.821-11.61.5-3.424.938-6.37,1.214-8.79.291-2.4.518-4.269.675-5.567l.163-1.449c.033-.326.036-.5.036-.5s-.039.166-.091.49c-.052.348-.123.826-.215,1.442-.181,1.294-.441,3.161-.775,5.552-.309,2.414-.78,5.356-1.3,8.772-.5,3.422-1.16,7.3-1.9,11.591-2.916,17.162-7.8,40.727-14.266,66.5-6.418,25.775-13.072,48.895-17.955,65.605-2.478,8.327-4.486,15.074-5.883,19.764l-1.6,5.374c-.172.6-.305,1.064-.4,1.4C187.872-56.061,187.84-55.894,187.84-55.894Z" transform="translate(43.181 380.538)" fill="#182e35"/>
    <path id="Path_3832" data-name="Path 3832" d="M241.323-55.894s.068-.155.177-.466c.112-.332.268-.791.467-1.382.407-1.243.994-3.034,1.747-5.332,1.518-4.631,3.641-11.354,6.239-19.671,5.139-16.647,12.073-39.711,18.644-65.479,3.307-12.882,6.168-25.229,8.491-36.517,1.214-5.633,2.177-11.024,3.142-16.056q.648-3.788,1.249-7.309c.4-2.345.782-4.6,1.081-6.754,2.619-17.237,3.274-28.01,3.274-28.01s-.035.167-.077.493c-.041.349-.1.83-.173,1.448-.142,1.3-.347,3.174-.61,5.576-.227,2.425-.658,5.374-1.1,8.805-.411,3.435-1.037,7.325-1.694,11.629-.312,2.154-.7,4.4-1.115,6.743s-.837,4.777-1.279,7.3c-.984,5.025-1.962,10.409-3.189,16.037-2.348,11.273-5.222,23.608-8.528,36.484-6.568,25.755-13.44,48.827-18.485,65.5-2.559,8.308-4.633,15.039-6.075,19.718-.71,2.311-1.264,4.113-1.649,5.363-.177.6-.316,1.062-.416,1.4C241.356-56.061,241.323-55.894,241.323-55.894Z" transform="translate(-65.672 380.538)" fill="#182e35"/>
    <path id="Path_3833" data-name="Path 3833" d="M154.687-224.607s-2.333,22.683-11.336,36.844H90.333s12.891-22.941,14.448-38.882l1.166-8.942h49.588Z" transform="translate(220.944 380.795)" fill="#375964"/>
    <path id="Path_3834" data-name="Path 3834" d="M101.1-221.133c0,.149,7.551.269,16.865.269s16.866-.12,16.866-.269-7.55-.269-16.866-.269S101.1-221.282,101.1-221.133Z" transform="translate(230.507 381.296)" fill="#f9fbfc"/>
    <path id="Path_3835" data-name="Path 3835" d="M102.727-215.594c0,.149,7.551.269,16.864.269s16.866-.12,16.866-.269-7.549-.27-16.866-.27S102.727-215.743,102.727-215.594Z" transform="translate(227.191 381.491)" fill="#f9fbfc"/>
    <path id="Path_3836" data-name="Path 3836" d="M104.355-210.055c0,.148,7.551.269,16.865.269s16.866-.121,16.866-.269-7.55-.27-16.866-.27S104.355-210.2,104.355-210.055Z" transform="translate(223.876 381.687)" fill="#f9fbfc"/>
    <path id="Path_3837" data-name="Path 3837" d="M105.984-204.517c0,.149,7.551.269,16.865.269s16.866-.12,16.866-.269-7.55-.269-16.866-.269S105.984-204.665,105.984-204.517Z" transform="translate(220.561 381.882)" fill="#f9fbfc"/>
    <path id="Path_3838" data-name="Path 3838" d="M330.5-170.6s-2.331,22.684-11.336,36.843H266.144s12.894-22.94,14.449-38.88l1.167-8.944h49.587Z" transform="translate(-136.884 382.701)" fill="#182e35"/>
    <path id="Path_3839" data-name="Path 3839" d="M276.908-168.223c0,.148,7.551.268,16.865.268s16.866-.12,16.866-.268-7.55-.27-16.866-.27S276.908-168.373,276.908-168.223Z" transform="translate(-127.32 383.163)" fill="#e0e1e1"/>
    <path id="Path_3840" data-name="Path 3840" d="M278.537-162.685c0,.149,7.551.269,16.865.269s16.866-.12,16.866-.269-7.55-.269-16.866-.269S278.537-162.834,278.537-162.685Z" transform="translate(-130.635 383.358)" fill="#e0e1e1"/>
    <path id="Path_3841" data-name="Path 3841" d="M280.166-157.146c0,.148,7.551.27,16.865.27s16.866-.122,16.866-.27-7.549-.27-16.866-.27S280.166-157.295,280.166-157.146Z" transform="translate(-133.951 383.554)" fill="#e0e1e1"/>
    <path id="Path_3842" data-name="Path 3842" d="M281.795-151.607c0,.148,7.55.269,16.864.269s16.866-.121,16.866-.269-7.549-.27-16.866-.27S281.795-151.757,281.795-151.607Z" transform="translate(-137.265 383.749)" fill="#e0e1e1"/>
    <path id="Path_3843" data-name="Path 3843" d="M198.069-238.772c-.55.446,6.317,9.581,16.689,19.049C225.1-210.218,234.8-204.18,235.2-204.766c.453-.636-8.423-7.573-18.619-16.945C206.352-231.044,198.663-239.28,198.069-238.772Z" transform="translate(29.76 380.682)" fill="#f0515e"/>
    <path id="Path_3844" data-name="Path 3844" d="M193.679-203.946c.441.618,12.025-6.924,26.286-16.226,14.256-9.322,25.816-16.894,25.428-17.547-.372-.627-12.592,5.933-26.9,15.289C204.176-213.093,193.252-204.538,193.679-203.946Z" transform="translate(24.096 380.718)" fill="#f0515e"/>
    <path id="Path_3845" data-name="Path 3845" d="M182.693-208.238c.451-.593-7.175-7.157-17.031-14.661S147.446-236.007,147-235.414s7.174,7.154,17.034,14.66S182.242-207.647,182.693-208.238Z" transform="translate(135.125 380.8)" fill="#f0515e"/>
    <path id="Path_3846" data-name="Path 3846" d="M142.286-205.05c.473.613,10.623-6.538,23.5-14.753,12.863-8.249,23.61-14.464,23.253-15.149-.322-.639-11.723,4.553-24.706,12.878C151.338-213.783,141.84-205.61,142.286-205.05Z" transform="translate(133.658 380.816)" fill="#f0515e"/>
    <path id="Path_3847" data-name="Path 3847" d="M183.926-147.644c.005-.087-.528-.2-1.567-.275a17.267,17.267,0,0,0-4.535.448,20.567,20.567,0,0,0-6.666,2.864,21.122,21.122,0,0,0-6.7,6.976,22.754,22.754,0,0,0-3.052,11.35,24.678,24.678,0,0,0,.829,6.564,24.205,24.205,0,0,0,2.83,6.444,26.515,26.515,0,0,0,11.257,9.8,26.484,26.484,0,0,0,15.88,2.031,27,27,0,0,0,14.29-7.235,24.5,24.5,0,0,0,6.9-13.258,25.2,25.2,0,0,0-1.237-13.444,20.9,20.9,0,0,0-3.01-5.4,20.921,20.921,0,0,0-4.01-4.03,23.423,23.423,0,0,0-8.675-4.218,21.433,21.433,0,0,0-7.219-.6,10.4,10.4,0,0,0-1.4.174c-.434.081-.842.128-1.211.225-.736.209-1.362.353-1.846.548-.966.393-1.448.64-1.415.727.076.262,2.112-.6,5.917-.624a22.127,22.127,0,0,1,6.767,1.007,22.636,22.636,0,0,1,7.885,4.251,19.368,19.368,0,0,1,3.53,3.783,19.025,19.025,0,0,1,2.588,4.948,23.229,23.229,0,0,1,.889,12.21,22.211,22.211,0,0,1-6.3,11.819,24.621,24.621,0,0,1-12.912,6.47,24.1,24.1,0,0,1-14.309-1.774,24.309,24.309,0,0,1-10.267-8.739,22.076,22.076,0,0,1-2.642-5.745,22.843,22.843,0,0,1-.876-5.93,21.138,21.138,0,0,1,2.477-10.408,20.139,20.139,0,0,1,5.893-6.671,21.077,21.077,0,0,1,6.086-3.092C181.73-147.581,183.93-147.392,183.926-147.644Z" transform="translate(89.098 383.826)" fill="#f0515e"/>
    <path id="Path_3848" data-name="Path 3848" d="M81.056-157.273c.565-.462-5.957-9.349-15.121-19.356C56.927-186.492,48.668-194.1,48-193.419c-.533.54,6.843,8.644,15.944,18.608C73.056-164.862,80.47-156.791,81.056-157.273Z" transform="translate(339.242 382.282)" fill="#f0515e"/>
    <path id="Path_3849" data-name="Path 3849" d="M44.231-161.618c.391.633,10.983-5.2,23.656-13.037s22.633-14.7,22.241-15.331-10.867,5.2-23.545,13.038S43.84-162.251,44.231-161.618Z" transform="translate(334.079 382.403)" fill="#f0515e"/>
    <path id="Path_3850" data-name="Path 3850" d="M186.2-139.754l-4.049,5.808a1.782,1.782,0,0,1-1.474.764l-7.08-.042a1.784,1.784,0,0,0-1.433,2.861l4.274,5.648a1.782,1.782,0,0,1,.27,1.638l-2.228,6.719a1.784,1.784,0,0,0,2.278,2.248l6.69-2.319a1.784,1.784,0,0,1,1.641.247l5.7,4.2a1.783,1.783,0,0,0,2.84-1.472l-.138-7.079a1.778,1.778,0,0,1,.743-1.484l5.753-4.129a1.783,1.783,0,0,0-.522-3.156l-6.776-2.057a1.779,1.779,0,0,1-1.181-1.166l-2.148-6.746A1.784,1.784,0,0,0,186.2-139.754Z" transform="translate(91.396 384.15)" fill="#f0515e"/>
    <path id="Path_3851" data-name="Path 3851" d="M251.667-238.535c-.5.555,8.525,9.441,20.147,19.843s21.45,18.392,21.946,17.837-8.523-9.438-20.148-19.846S252.164-239.089,251.667-238.535Z" transform="translate(-84.308 380.69)" fill="#f0515e"/>
    <path id="Path_3852" data-name="Path 3852" d="M245.492-206.7c.333.666,12.972-5,28.227-12.645s27.354-14.391,27.02-15.056-12.969,5-28.228,12.647S245.159-207.365,245.492-206.7Z" transform="translate(-84.896 380.835)" fill="#f0515e"/>
    <path id="Path_3853" data-name="Path 3853" d="M191.845-111.636a1.786,1.786,0,0,0,1.791-1.785c0-.012,0-.025,0-.037l-.138-7.079c0-.013,0-.027,0-.04a1.782,1.782,0,0,1,.744-1.443l5.753-4.129a1.757,1.757,0,0,0,.744-1.443,1.77,1.77,0,0,0-1.266-1.712l-6.776-2.057a1.779,1.779,0,0,1-1.181-1.166l-2.148-6.746a1.773,1.773,0,0,0-1.706-1.244,1.757,1.757,0,0,0-1.458.765l-4.049,5.808a1.781,1.781,0,0,1-1.465.764h-.009l-7.08-.042h-.011a1.785,1.785,0,0,0-1.786,1.8,1.756,1.756,0,0,0,.364,1.064l4.274,5.648a1.782,1.782,0,0,1,.361,1.078,1.768,1.768,0,0,1-.091.56l-2.228,6.719a1.831,1.831,0,0,0-.094.569,1.8,1.8,0,0,0,1.779,1.781,1.785,1.785,0,0,0,.593-.1l6.69-2.319a1.779,1.779,0,0,1,.585-.1,1.78,1.78,0,0,1,1.056.346l5.7,4.2A1.76,1.76,0,0,0,191.845-111.636Z" transform="translate(91.396 384.15)" fill="#f2717d"/>
    <path id="Path_3854" data-name="Path 3854" d="M367.516-6.268l-.05-8.713-16.32-.011-.062,12.747,1.011.066c4.5.253,22.915.97,25.926.059C381.38-3.136,367.516-6.268,367.516-6.268Z" transform="translate(-272.021 388.58)" fill="#f0515e"/>
    <path id="Path_3855" data-name="Path 3855" d="M377.589-2.878V-2.9l.021-4.217H377.6Z" transform="translate(-298.526 388.858)" fill="#fff"/>
    <path id="Path_3856" data-name="Path 3856" d="M377.807-2.841a5.675,5.675,0,0,0-2-3.082,5.554,5.554,0,0,0-3.4-1.205q-.2,0-.394.016L371.992-2.9v0Z" transform="translate(-292.928 388.858)" fill="#f8b6be"/>
    <path id="Path_3857" data-name="Path 3857" d="M365.716-2.069c-5.572-.1-11.354-.341-13.619-.468l-.5-.033C355.259-2.272,360.689-2.1,365.716-2.069Zm12.325-.414a.956.956,0,0,0,.478-.176.246.246,0,0,0,.021-.273C378.584-2.758,378.436-2.6,378.041-2.483Zm-26.956-.129v-.345l-.025.343Zm24.671-1.77c-.815-.287-1.49-.481-1.49-.481h-.009C374.779-4.706,375.286-4.544,375.756-4.383Z" transform="translate(-272.022 388.938)" fill="#fff"/>
    <path id="Path_3858" data-name="Path 3858" d="M367.528-2.062a82.208,82.208,0,0,0,10.511-.42c.394-.122.542-.275.5-.449-.229-.472-1.643-1.051-2.784-1.45-.47-.162-.977-.323-1.5-.481-.944.052-1.436,2.1-1.436,2.1L356.9-2.921c.033.131.061.265.084.4l-5.9-.11v.019c.166.014.334.029.508.042l.5.033c2.265.127,8.047.372,13.619.468C366.327-2.065,366.932-2.062,367.528-2.062Z" transform="translate(-272.021 388.938)" fill="#f8b6be"/>
    <path id="Path_3859" data-name="Path 3859" d="M377.609-2.7v0Z" transform="translate(-298.546 389.002)" fill="#fff"/>
    <path id="Path_3860" data-name="Path 3860" d="M377.811-2.585c-.023-.135-.051-.268-.084-.4l-5.814-.058V-2.7Z" transform="translate(-292.848 389.002)" fill="#fce2e5"/>
    <path id="Path_3861" data-name="Path 3861" d="M350.973-3.166a1.53,1.53,0,0,0,.282.03l.805.05,2.966.131c2.5.094,5.967.177,9.793.186s7.291-.062,9.8-.145l2.967-.119.805-.047a1.431,1.431,0,0,0,.28-.029,1.425,1.425,0,0,0-.281-.01l-.808.009-2.968.056c-2.505.047-5.966.093-9.792.086s-7.283-.069-9.789-.127c-1.17-.027-2.162-.049-2.967-.068l-.808-.012A1.428,1.428,0,0,0,350.973-3.166Z" transform="translate(-272.027 388.997)" fill="#182e35"/>
    <path id="Path_3862" data-name="Path 3862" d="M355.128-2.445a6.524,6.524,0,0,1,.556-1.415A6.738,6.738,0,0,1,356.7-4.995a2.2,2.2,0,0,0-1.18,1.03A2.193,2.193,0,0,0,355.128-2.445Z" transform="translate(-254.329 388.933)" fill="#182e35"/>
    <path id="Path_3863" data-name="Path 3863" d="M360.731-5.221c.046.03.276-.251.516-.625s.393-.7.348-.732-.276.251-.516.625S360.684-5.25,360.731-5.221Z" transform="translate(-265.055 388.877)" fill="#182e35"/>
    <path id="Path_3864" data-name="Path 3864" d="M361.855-5.912c.036.04.294-.131.576-.383s.48-.49.444-.531-.3.131-.576.383S361.819-5.952,361.855-5.912Z" transform="translate(-267.501 388.868)" fill="#182e35"/>
    <path id="Path_3865" data-name="Path 3865" d="M362-7.43a1.917,1.917,0,0,0,.852.111,1.924,1.924,0,0,0,.853-.089,1.91,1.91,0,0,0-.851-.109A1.941,1.941,0,0,0,362-7.43Z" transform="translate(-268.477 388.844)" fill="#182e35"/>
    <path id="Path_3866" data-name="Path 3866" d="M362.056-8.481a1.659,1.659,0,0,0,.95.277,1.658,1.658,0,0,0,.98-.129,5.325,5.325,0,0,0-.965-.067A5.227,5.227,0,0,0,362.056-8.481Z" transform="translate(-268.821 388.81)" fill="#182e35"/>
    <path id="Path_3867" data-name="Path 3867" d="M358.056-6.592a3,3,0,0,0,1.049,0,6.194,6.194,0,0,0,1.116-.245,3,3,0,0,0,.641-.263.567.567,0,0,0,.26-.324.411.411,0,0,0-.159-.419,1.924,1.924,0,0,0-2.379.559,1.874,1.874,0,0,0-.343.7c-.042.179-.039.282-.027.284a2.907,2.907,0,0,1,.478-.893,1.886,1.886,0,0,1,.9-.582,1.625,1.625,0,0,1,1.25.087c.167.123.1.32-.084.43a3.119,3.119,0,0,1-.589.251,7.242,7.242,0,0,1-1.081.28C358.455-6.624,358.056-6.624,358.056-6.592Z" transform="translate(-261.825 388.825)" fill="#182e35"/>
    <path id="Path_3868" data-name="Path 3868" d="M362-6.522a1.034,1.034,0,0,0,.123-.728,1.726,1.726,0,0,0-.287-.766,1.052,1.052,0,0,0-.872-.536.417.417,0,0,0-.324.483,1.139,1.139,0,0,0,.178.469,3.2,3.2,0,0,0,.494.636,1.532,1.532,0,0,0,.6.426c.019-.026-.209-.188-.5-.521a3.7,3.7,0,0,1-.439-.63c-.144-.223-.241-.619.023-.667.262-.026.529.236.69.445a1.734,1.734,0,0,1,.3.683A3.9,3.9,0,0,1,362-6.522Z" transform="translate(-265.503 388.808)" fill="#182e35"/>
    <path id="Path_3869" data-name="Path 3869" d="M372.228-7.176c0,.037.467-.045,1.205.043a5.272,5.272,0,0,1,2.629,1.088A5.269,5.269,0,0,1,377.7-3.719c.248.7.272,1.17.308,1.166a.98.98,0,0,0,0-.329,4.339,4.339,0,0,0-.177-.881,5.037,5.037,0,0,0-1.65-2.435,5.042,5.042,0,0,0-2.738-1.073,4.34,4.34,0,0,0-.9.022A.927.927,0,0,0,372.228-7.176Z" transform="translate(-293.388 388.852)" fill="#182e35"/>
    <path id="Path_3870" data-name="Path 3870" d="M376.278-14.233a28.567,28.567,0,0,0-.145,3.351,28.247,28.247,0,0,0,.052,3.355,28.856,28.856,0,0,0,.145-3.352A28.211,28.211,0,0,0,376.278-14.233Z" transform="translate(-295.738 388.607)" fill="#182e35"/>
    <path id="Path_3871" data-name="Path 3871" d="M365.623-4.653A9.279,9.279,0,0,0,368-4.414a9.279,9.279,0,0,0,2.387-.187c-.005-.058-1.07.005-2.385-.01S365.628-4.711,365.623-4.653Z" transform="translate(-278.918 388.945)" fill="#182e35"/>
    <path id="Path_3872" data-name="Path 3872" d="M372.877-4.663c-.039.039.087.226.2.47s.167.462.224.458.085-.258-.043-.538S372.912-4.7,372.877-4.663Z" transform="translate(-289.371 388.945)" fill="#182e35"/>
    <path id="Path_3873" data-name="Path 3873" d="M373.893-6.114c-.04.038.065.209.234.38s.336.28.376.24-.066-.208-.234-.379S373.931-6.151,373.893-6.114Z" transform="translate(-291.59 388.893)" fill="#182e35"/>
    <path id="Path_3874" data-name="Path 3874" d="M375.248-6.775c.01.055.228.054.468.139s.411.212.454.175-.094-.262-.391-.362S375.232-6.826,375.248-6.775Z" transform="translate(-294.669 388.867)" fill="#182e35"/>
    <path id="Path_3875" data-name="Path 3875" d="M376.859-7.091c-.021.051.074.135.209.187s.261.055.282,0-.075-.135-.21-.187S376.878-7.142,376.859-7.091Z" transform="translate(-297.508 388.858)" fill="#182e35"/>
    <path id="Path_3876" data-name="Path 3876" d="M449.9-284.453l-143.674,5.788v33.132l145.8-5.355Z" transform="translate(-299.057 379.07)" fill="#f0515e"/>
    <path id="Path_3877" data-name="Path 3877" d="M273.726-272.554s8.173-.974,10.111,2.553c0,0-1.651,4.471-9.757,4.095Z" transform="translate(-97.223 379.486)" fill="#f0515e"/>
    <path id="Path_3878" data-name="Path 3878" d="M308.382-273.681l.823,9.168-9.853.962s-4.044.331-8.71,5.355-6.515,7.31-6.515,7.31L282-284.453l6.478,6.068a15.689,15.689,0,0,0,4.362,2.885,24.766,24.766,0,0,0,6.141,2.061A70.129,70.129,0,0,0,308.382-273.681Z" transform="translate(-131.16 379.07)" fill="#182e35"/>
    <path id="Path_3879" data-name="Path 3879" d="M454.222-278.862s-8.664,4.954-6.942,17.776c1.485,11.049,6.942,15.356,6.942,15.356Z" transform="translate(-447.054 379.268)" fill="#182e35"/>
    <path id="Path_3880" data-name="Path 3880" d="M307.095-258.391l52.495-2.087c-1.014-1.414-3-2.228-4.33-3.5a6.294,6.294,0,0,1-1.878-5.067l-46.287,1.693ZM377.8-261.2l74.193-2.95-.536-8.483-73.9,2.7Z" transform="translate(-299.927 379.488)" fill="#f4939e" fill-rule="evenodd"/>
    <path id="Path_3881" data-name="Path 3881" d="M385.256-249.128h.013Z" transform="translate(-314.122 380.317)" fill="#b3b4b3"/>
    <path id="Path_3882" data-name="Path 3882" d="M396.1-248.068h.013l2.86-.139v-.272l3.962.079.252-.011-.347-12.56-18.211.725a3.361,3.361,0,0,1,.569,1.262c.208.967.354,2.417,1.255,2.417a.949.949,0,0,0,.14-.01c.57-.087.841-.731,1.259-1.128a1.785,1.785,0,0,1,1.264-.475,3.07,3.07,0,0,1,2.031.853,16.42,16.42,0,0,1,2.023,3.043,3.623,3.623,0,0,0,2.758,1.854c.066,0,.134,0,.2-.009C396.14-251.081,396.094-249.428,396.1-248.068Zm-17.679-20.75L402.6-269.7l-.208-7.549-8.874-1.922c-2.248.162-3.749,2.336-5.724,3.422-1.937,1.064-4.325,1.061-6.251,2.145a6.284,6.284,0,0,0-3.1,4.615C378.436-268.934,378.43-268.876,378.424-268.818Z" transform="translate(-324.969 379.257)" fill="#bc363f"/>
    <path id="Path_3883" data-name="Path 3883" d="M384.994-260.571,403.2-261.3l-.241-8.73-24.177.884a6.294,6.294,0,0,0,1.878,5.067C382-262.8,383.98-261.985,384.994-260.571Z" transform="translate(-325.331 379.58)" fill="#bb696f"/>
    <path id="Path_3884" data-name="Path 3884" d="M405.208-5.765l.049-8.712,16.321-.012.062,12.747-1.011.066c-4.5.254-22.915.97-25.926.06C391.344-2.632,405.208-5.765,405.208-5.765Z" transform="translate(-359.73 388.598)" fill="#f0515e"/>
    <path id="Path_3885" data-name="Path 3885" d="M394.2-2.362l-.007-4.246h-.014l.021,4.23Z" transform="translate(-332.289 388.876)" fill="#fff"/>
    <path id="Path_3886" data-name="Path 3886" d="M394.179-2.339l5.813-.057,0,.018-.021-4.23c-.134-.01-.265-.016-.4-.016a5.541,5.541,0,0,0-3.4,1.205A5.657,5.657,0,0,0,394.179-2.339Z" transform="translate(-338.085 388.876)" fill="#f8b6be"/>
    <path id="Path_3887" data-name="Path 3887" d="M394.614-1.674h1.211c4.211-.067,8.429-.228,11.439-.473l-.56.036C404.646-2,399.684-1.784,394.614-1.674Z" transform="translate(-345.805 389.034)" fill="#fff"/>
    <path id="Path_3888" data-name="Path 3888" d="M405.663-1.66c.908-.005,1.828-.017,2.749-.031H407.2C406.688-1.679,406.174-1.668,405.663-1.66Z" transform="translate(-358.392 389.05)" fill="#a7aeb0"/>
    <path id="Path_3889" data-name="Path 3889" d="M394.683-1.979c-.394-.123-.542-.276-.5-.45a.246.246,0,0,0,.02.274A.966.966,0,0,0,394.683-1.979Zm26.957-.129.025,0-.025-.331ZM396.863-3.842c.5-.174,1.046-.348,1.607-.519h-.011S397.724-4.149,396.863-3.842Z" transform="translate(-359.73 388.956)" fill="#fff"/>
    <path id="Path_3890" data-name="Path 3890" d="M405.189-1.559c.6,0,1.2,0,1.812-.006.511-.008,1.025-.019,1.537-.03,5.07-.11,10.032-.322,12.09-.438l.56-.036.451-.038v-.019l-5.9.109q.034-.2.084-.4L399.9-2.261s-.491-2.044-1.434-2.1c-.561.171-1.106.345-1.607.519-1.119.4-2.455.955-2.676,1.413-.046.174.1.327.5.45A82.185,82.185,0,0,0,405.189-1.559Z" transform="translate(-359.729 388.956)" fill="#f8b6be"/>
    <path id="Path_3891" data-name="Path 3891" d="M394.179-2.192v0Z" transform="translate(-332.269 389.02)" fill="#fff"/>
    <path id="Path_3892" data-name="Path 3892" d="M394.178-2.082l5.9-.109v-.331l0-.018-5.813.057Q394.212-2.284,394.178-2.082Z" transform="translate(-338.168 389.02)" fill="#fce2e5"/>
    <path id="Path_3893" data-name="Path 3893" d="M421.76-2.663a1.438,1.438,0,0,1-.281.031l-.805.05-2.966.131c-2.505.094-5.968.177-9.793.185s-7.291-.061-9.8-.144l-2.967-.119-.805-.047a1.863,1.863,0,0,1-.281-.029,1.47,1.47,0,0,1,.282-.011l.806.01,2.968.055c2.5.048,5.966.094,9.792.087s7.284-.069,9.79-.127l2.967-.068.807-.013A1.647,1.647,0,0,1,421.76-2.663Z" transform="translate(-359.734 389.015)" fill="#182e35"/>
    <path id="Path_3894" data-name="Path 3894" d="M416.715-1.942a6.658,6.658,0,0,0-.556-1.414,6.667,6.667,0,0,0-1.013-1.135,2.191,2.191,0,0,1,1.181,1.03A2.19,2.19,0,0,1,416.715-1.942Z" transform="translate(-376.541 388.951)" fill="#182e35"/>
    <path id="Path_3895" data-name="Path 3895" d="M411.089-4.718c-.047.03-.276-.251-.516-.624s-.394-.7-.349-.732.277.251.516.625S411.134-4.747,411.089-4.718Z" transform="translate(-365.791 388.895)" fill="#182e35"/>
    <path id="Path_3896" data-name="Path 3896" d="M409.969-5.409c-.036.041-.294-.13-.577-.383s-.48-.49-.444-.53.3.13.577.383S410.005-5.449,409.969-5.409Z" transform="translate(-363.35 388.886)" fill="#182e35"/>
    <path id="Path_3897" data-name="Path 3897" d="M409.848-6.926a1.919,1.919,0,0,1-.851.11,1.908,1.908,0,0,1-.853-.088,1.91,1.91,0,0,1,.851-.111A1.96,1.96,0,0,1,409.848-6.926Z" transform="translate(-362.397 388.862)" fill="#182e35"/>
    <path id="Path_3898" data-name="Path 3898" d="M409.8-7.977a1.662,1.662,0,0,1-.949.276,1.646,1.646,0,0,1-.981-.129,5.278,5.278,0,0,1,.966-.066A5.223,5.223,0,0,1,409.8-7.977Z" transform="translate(-362.061 388.827)" fill="#182e35"/>
    <path id="Path_3899" data-name="Path 3899" d="M413.837-6.088a2.993,2.993,0,0,1-1.048,0,6.3,6.3,0,0,1-1.118-.245,3.081,3.081,0,0,1-.639-.263.562.562,0,0,1-.26-.325.413.413,0,0,1,.158-.419,1.921,1.921,0,0,1,2.378.56,1.874,1.874,0,0,1,.345.7.577.577,0,0,1,.027.284A2.956,2.956,0,0,0,413.2-6.7a1.874,1.874,0,0,0-.9-.581,1.629,1.629,0,0,0-1.25.086c-.166.124-.1.32.085.43a3.133,3.133,0,0,0,.589.252,7.361,7.361,0,0,0,1.08.28C413.438-6.121,413.837-6.12,413.837-6.088Z" transform="translate(-369.095 388.843)" fill="#182e35"/>
    <path id="Path_3900" data-name="Path 3900" d="M409.835-6.018a1.03,1.03,0,0,1-.123-.728A1.739,1.739,0,0,1,410-7.513a1.053,1.053,0,0,1,.873-.536.418.418,0,0,1,.323.485,1.152,1.152,0,0,1-.177.469,3.165,3.165,0,0,1-.494.635,1.551,1.551,0,0,1-.6.427c-.02-.027.208-.189.5-.522a3.6,3.6,0,0,0,.438-.63c.143-.222.241-.619-.022-.667-.263-.025-.529.236-.691.446a1.72,1.72,0,0,0-.3.682A3.684,3.684,0,0,0,409.835-6.018Z" transform="translate(-365.363 388.825)" fill="#182e35"/>
    <path id="Path_3901" data-name="Path 3901" d="M399.758-6.673c0,.037-.468-.043-1.205.045a5.265,5.265,0,0,0-2.63,1.088,5.272,5.272,0,0,0-1.641,2.324c-.247.7-.271,1.171-.309,1.166a.962.962,0,0,1,0-.328,4.309,4.309,0,0,1,.176-.881,5.046,5.046,0,0,1,1.65-2.435,5.04,5.04,0,0,1,2.738-1.073,4.276,4.276,0,0,1,.9.021A.96.96,0,0,1,399.758-6.673Z" transform="translate(-337.625 388.87)" fill="#182e35"/>
    <path id="Path_3902" data-name="Path 3902" d="M395.517-13.729a28.81,28.81,0,0,1,.145,3.351,28.2,28.2,0,0,1-.052,3.354,28.672,28.672,0,0,1-.146-3.351A28.332,28.332,0,0,1,395.517-13.729Z" transform="translate(-335.084 388.625)" fill="#182e35"/>
    <path id="Path_3903" data-name="Path 3903" d="M406.328-4.15a9.225,9.225,0,0,1-2.381.239,9.224,9.224,0,0,1-2.387-.187c.005-.057,1.07.006,2.384-.009S406.321-4.207,406.328-4.15Z" transform="translate(-352.059 388.962)" fill="#182e35"/>
    <path id="Path_3904" data-name="Path 3904" d="M398.927-4.16c.04.04-.087.227-.195.471s-.168.461-.224.458-.085-.258.043-.538S398.892-4.2,398.927-4.16Z" transform="translate(-341.461 388.962)" fill="#182e35"/>
    <path id="Path_3905" data-name="Path 3905" d="M397.918-5.61c.038.038-.066.208-.235.38s-.336.278-.375.24.065-.208.234-.38S397.878-5.648,397.918-5.61Z" transform="translate(-339.247 388.911)" fill="#182e35"/>
    <path id="Path_3906" data-name="Path 3906" d="M396.572-6.271c-.01.055-.228.053-.468.138s-.412.213-.454.175.093-.262.391-.361S396.588-6.322,396.572-6.271Z" transform="translate(-336.177 388.885)" fill="#182e35"/>
    <path id="Path_3907" data-name="Path 3907" d="M394.947-6.588c.02.052-.074.136-.209.188s-.261.054-.282,0,.075-.135.209-.188S394.926-6.638,394.947-6.588Z" transform="translate(-333.324 388.876)" fill="#182e35"/>
    <path id="Path_3908" data-name="Path 3908" d="M314.629-241.6s25.318,10.7,26.126,10.3c.689-.345,1.4-19.97,1.4-19.97l12.633-.463s2.363,29.879-5.227,34.724c-10.374,6.621-35.49-7.16-35.49-7.16Z" transform="translate(-210.281 380.225)" fill="#fab9a0"/>
    <path id="Path_3909" data-name="Path 3909" d="M376.328-247.369c.028-3.161.058-5.917.058-5.917s6.386-.676,6.774-7.01,0-20.942,0-20.942l-11.634-5.687-12.8,9.695,1.349,30.156a8.129,8.129,0,0,0,8.121,7.766A8.131,8.131,0,0,0,376.328-247.369Z" transform="translate(-284.723 378.983)" fill="#fab9a0"/>
    <path id="Path_3910" data-name="Path 3910" d="M361.837-271.118a.811.811,0,0,1-.811.811.811.811,0,0,1-.811-.811.811.811,0,0,1,.811-.812A.811.811,0,0,1,361.837-271.118Z" transform="translate(-264.766 379.512)" fill="#182e35"/>
    <path id="Path_3911" data-name="Path 3911" d="M362.65-271.967c-.1.106-.7-.4-1.576-.45s-1.529.373-1.62.256c-.045-.053.065-.245.351-.442a2.132,2.132,0,0,1,1.3-.342,2.129,2.129,0,0,1,1.25.5C362.617-272.218,362.7-272.012,362.65-271.967Z" transform="translate(-264.794 379.476)" fill="#182e35"/>
    <path id="Path_3912" data-name="Path 3912" d="M370.912-271.118a.811.811,0,0,1-.811.811.811.811,0,0,1-.811-.811.811.811,0,0,1,.811-.812A.811.811,0,0,1,370.912-271.118Z" transform="translate(-283.237 379.512)" fill="#182e35"/>
    <path id="Path_3913" data-name="Path 3913" d="M372-271.967c-.1.106-.7-.4-1.576-.45s-1.529.373-1.62.256c-.045-.053.064-.245.351-.442a2.134,2.134,0,0,1,1.3-.342,2.132,2.132,0,0,1,1.25.5C371.963-272.218,372.047-272.012,372-271.967Z" transform="translate(-283.816 379.476)" fill="#182e35"/>
    <path id="Path_3914" data-name="Path 3914" d="M363.687-264.619a3.935,3.935,0,0,0,1.44.137,1.522,1.522,0,0,0,.4-.031.615.615,0,0,0,.422-.355,1.473,1.473,0,0,0-.076-.968c-.185-.6-.372-1.194-.565-1.819a22.562,22.562,0,0,0-1.759-4.577,22.463,22.463,0,0,0,1.246,4.743c.208.62.406,1.213.6,1.807a1.253,1.253,0,0,1,.135.649c-.017.11-.187.156-.419.171A3.924,3.924,0,0,0,363.687-264.619Z" transform="translate(-272.359 379.502)" fill="#182e35"/>
    <path id="Path_3915" data-name="Path 3915" d="M374.8-264.416c-.022.722-1.133,1.239-2.48,1.271s-2.469-.442-2.509-1.163,1.068-1.418,2.48-1.447S374.824-265.134,374.8-264.416Z" transform="translate(-287.662 379.73)" fill="#f6976e"/>
    <path id="Path_3916" data-name="Path 3916" d="M364.617-264.077c-.882-.586,2.44,1.452,4.221,1.452a2.414,2.414,0,0,1-2.894.821C364.082-262.59,364.617-264.077,364.617-264.077Z" transform="translate(-276.172 379.786)" fill="#fff"/>
    <path id="Path_3917" data-name="Path 3917" d="M373.542-254.335a15.815,15.815,0,0,1-8.393-2.834s1.9,4.651,8.254,4.388Z" transform="translate(-281.578 380.033)" fill="#f6976e"/>
    <path id="Path_3918" data-name="Path 3918" d="M357.95-271.812l-.036,1.126c.138-1.169.463-3.834.652-4.559,3.456-13.209,15.066-15.671,17.363-15.671,2.463,0,6.773-1.355,13.054,5.171a12.227,12.227,0,0,1,2.839,13.546l-1.054-.973-9.266-2.392c.733-2.5-.346-5.6-.957-7.047l-.06-.056c-1.848,9.483-12.294,10.468-12.294,10.468l.82,17.594C356.677-257.241,357.95-271.812,357.95-271.812Z" transform="translate(-293.308 378.838)" fill="#182e35"/>
    <path id="Path_3919" data-name="Path 3919" d="M400.332-272.967a3.374,3.374,0,0,0-2.551-3.333,6.13,6.13,0,0,0-4.4.692,5.17,5.17,0,0,0-2.925,3.332c-.35,1.83.838,3.571,2.011,5.019a10.415,10.415,0,0,0,2.46,2.4,3.852,3.852,0,0,0,3.293.508,4.179,4.179,0,0,0,2.085-1.964,7.574,7.574,0,0,0-1.625-9.183" transform="translate(-335.373 379.352)" fill="#182e35"/>
    <path id="Path_3920" data-name="Path 3920" d="M356.246-287.681c-.017.171,1.172.323,2.937.973a15.7,15.7,0,0,1,6.024,3.955,15.727,15.727,0,0,1,3.516,6.294c.522,1.807.589,3,.76,3,.125.006.335-1.219-.019-3.174A13.934,13.934,0,0,0,366-283.488a13.938,13.938,0,0,0-6.587-3.948C357.485-287.928,356.249-287.806,356.246-287.681Z" transform="translate(-268.479 378.953)" fill="#182e35"/>
    <path id="Path_3921" data-name="Path 3921" d="M388.447-264.96a7.891,7.891,0,0,0-.34-3.128,2.953,2.953,0,0,0-2.28-1.967,2.5,2.5,0,0,0-2.571,2.079,3.076,3.076,0,0,0,1.566,3.047,4.036,4.036,0,0,0,3.518.1" transform="translate(-315.214 379.578)" fill="#fab9a0"/>
    <path id="Path_3922" data-name="Path 3922" d="M386.786-265.492c.016-.081-.246-.17-.549-.438a1.874,1.874,0,0,1-.654-1.313,1.87,1.87,0,0,1,.6-1.339c.291-.28.55-.379.531-.459-.007-.064-.33-.1-.761.154a1.937,1.937,0,0,0-.912,1.653,1.937,1.937,0,0,0,.976,1.616C386.461-265.378,386.781-265.428,386.786-265.492Z" transform="translate(-315.419 379.613)" fill="#f6976e"/>
    <path id="Path_3923" data-name="Path 3923" d="M376.445-271.353c.018,0,.031-.109.038-.319a3.738,3.738,0,0,0-.092-.918,4.935,4.935,0,0,0-1.791-2.859,5.14,5.14,0,0,0-4.895-.8,5.229,5.229,0,0,0-3.459,4.9,5.228,5.228,0,0,0,3.459,4.9,5.138,5.138,0,0,0,4.895-.8,4.938,4.938,0,0,0,1.791-2.859,3.742,3.742,0,0,0,.092-.918c-.007-.21-.021-.32-.038-.32-.053,0-.046.443-.257,1.186a4.961,4.961,0,0,1-1.819,2.608,4.788,4.788,0,0,1-4.5.635,4.755,4.755,0,0,1-3.087-4.429,4.756,4.756,0,0,1,3.087-4.429,4.789,4.789,0,0,1,4.494.636,4.959,4.959,0,0,1,1.82,2.607C376.4-271.794,376.393-271.35,376.445-271.353Z" transform="translate(-285.659 379.35)" fill="#182e35"/>
    <path id="Path_3924" data-name="Path 3924" d="M365.392-271.353c.018,0,.031-.109.038-.319a3.736,3.736,0,0,0-.092-.918,4.943,4.943,0,0,0-1.792-2.859,5.139,5.139,0,0,0-4.894-.8,5.229,5.229,0,0,0-3.459,4.9,5.228,5.228,0,0,0,3.459,4.9,5.136,5.136,0,0,0,4.894-.8,4.946,4.946,0,0,0,1.792-2.859,3.74,3.74,0,0,0,.092-.918c-.007-.21-.021-.32-.038-.32-.053,0-.046.443-.257,1.186a4.96,4.96,0,0,1-1.819,2.608,4.789,4.789,0,0,1-4.5.635,4.755,4.755,0,0,1-3.087-4.429,4.756,4.756,0,0,1,3.087-4.429,4.789,4.789,0,0,1,4.494.636,4.965,4.965,0,0,1,1.82,2.607C365.347-271.794,365.34-271.35,365.392-271.353Z" transform="translate(-263.163 379.35)" fill="#182e35"/>
    <path id="Path_3925" data-name="Path 3925" d="M366.642-271.37c0-.148-.408-.269-.909-.269s-.91.121-.91.269.407.27.91.27S366.642-271.221,366.642-271.37Z" transform="translate(-274.341 379.523)" fill="#182e35"/>
    <path id="Path_3926" data-name="Path 3926" d="M384.5-270.526a18.878,18.878,0,0,0-4.45.6,18.818,18.818,0,0,0-4.345,1.133,18.849,18.849,0,0,0,4.45-.6A18.865,18.865,0,0,0,384.5-270.526Z" transform="translate(-303.475 379.561)" fill="#182e35"/>
    <path id="Path_3927" data-name="Path 3927" d="M417.911-171.1,409.984-3.662l-25.413.534,6.589-144.7L373.953-3.74,348-3.093l20.318-169.841Z" transform="translate(-308.19 383.006)" fill="#182e35"/>
    <path id="Path_3928" data-name="Path 3928" d="M359.854-3.489c.149.006,1.976-37.414,4.082-83.571,2.106-46.174,3.692-83.6,3.543-83.6S365.5-133.258,363.4-87.085C361.292-40.928,359.706-3.5,359.854-3.489Z" transform="translate(-270.033 383.086)" fill="#375964"/>
    <path id="Path_3929" data-name="Path 3929" d="M384.671-4.955c.147.018,4.715-36.322,10.2-81.158,5.488-44.851,9.816-81.212,9.668-81.231s-4.715,36.314-10.2,81.166C388.852-41.343,384.523-4.973,384.671-4.955Z" transform="translate(-332.786 383.204)" fill="#375964"/>
    <path id="Path_3930" data-name="Path 3930" d="M342.97-207.371l-13.033-16.287,16.006-16.135v0A28.519,28.519,0,0,1,357-246.945a22.659,22.659,0,0,1,6.334-1.281v-1.292l7.023.14s.354,1.1.742,2.354c.376,1.006.553,3.047,1.006,3.046.5,0,1.154-2.04,1.843-3.062.641-1.282,1.2-2.415,1.2-2.415l6.479-.313v1.633a39.577,39.577,0,0,1,12.216,3.65v0l23.9,9.7-7.657,21.127-16.218-5.458c.109.292.224.582.308.883a10.508,10.508,0,0,1-.6,7.211,10.388,10.388,0,0,1-2.037,2.9l.311,17.04,7.2,22.7-49.6.515,5.638-24.508-2.568-24.285Z" transform="translate(-289.324 380.295)" fill="#375964"/>
    <path id="Path_3931" data-name="Path 3931" d="M364.6-249.232a4.44,4.44,0,0,0,.344,1.494c.171.525.341,1.046.512,1.572.107.3.195.586.334.937a1.03,1.03,0,0,0,.438.523.787.787,0,0,0,.759-.058,24.858,24.858,0,0,0,4.183-3.129,25.56,25.56,0,0,0-4.448,2.659c-.376.355-.561-.566-.8-1.1-.209-.512-.415-1.02-.622-1.53A4.392,4.392,0,0,0,364.6-249.232Z" transform="translate(-278.619 380.313)" fill="#182e35"/>
    <path id="Path_3932" data-name="Path 3932" d="M375.984-247.931a14.459,14.459,0,0,0,4.246,4.318l.36.255.22.157.154-.226a13.168,13.168,0,0,0,2.331-5.115c-.146-.058-1.011,2.26-2.776,4.812l.376-.068-.35-.252C377.864-245.975,376.107-248.038,375.984-247.931Z" transform="translate(-302.559 380.338)" fill="#182e35"/>
    <path id="Path_3933" data-name="Path 3933" d="M374.1-168.273a4.235,4.235,0,0,0,.061-.77c.019-.559.042-1.294.073-2.213.022-1.924.019-4.705-.041-8.14-.121-6.872-.446-16.361-.852-26.836-.392-10.452-.749-19.911-1.008-26.828-.089-3.39-.16-6.152-.212-8.131-.012-.918-.022-1.653-.03-2.211a4.129,4.129,0,0,0-.046-.772,4.05,4.05,0,0,0-.062.77c-.019.558-.042,1.294-.072,2.213-.022,1.923-.02,4.7.041,8.141.121,6.872.445,16.361.851,26.839.393,10.448.75,19.907,1.01,26.823.087,3.39.159,6.153.211,8.132.011.918.022,1.653.029,2.211A4.175,4.175,0,0,0,374.1-168.273Z" transform="translate(-289.262 380.492)" fill="#182e35"/>
    <path id="Path_3934" data-name="Path 3934" d="M377.757-232.1c.019-.065-.431-.133-.813.36a1.227,1.227,0,0,0-.208,1.03,1.2,1.2,0,0,0,1.006.841,1.2,1.2,0,0,0,1.209-.508,1.222,1.222,0,0,0,.1-1.046c-.22-.584-.67-.651-.671-.584-.04.071.238.246.3.682a.914.914,0,0,1-.147.669.743.743,0,0,1-.717.254.746.746,0,0,1-.611-.452.913.913,0,0,1,.056-.682C377.456-231.938,377.775-232.024,377.757-232.1Z" transform="translate(-299.119 380.916)" fill="#182e35"/>
    <path id="Path_3935" data-name="Path 3935" d="M378.088-215.541c.009-.065-.371-.123-.716.29a1.08,1.08,0,0,0-.222.891,1.037,1.037,0,0,0,.859.779,1,1,0,0,0,1.072-.47.979.979,0,0,0-.033-.937c-.293-.483-.724-.41-.7-.341-.01.078.252.158.352.5a.516.516,0,0,1-.6.715.605.605,0,0,1-.413-.929C377.847-215.372,378.106-215.464,378.088-215.541Z" transform="translate(-299.623 381.501)" fill="#182e35"/>
    <path id="Path_3936" data-name="Path 3936" d="M333.117-215.729a21.429,21.429,0,0,0,1.261-3.005c.8-2.021,1.783-4.528,2.875-7.3,1.14-2.756,2.17-5.247,3-7.253a21.069,21.069,0,0,0,1.178-3.039,18.075,18.075,0,0,0-1.526,2.883c-.868,1.816-2,4.358-3.155,7.207s-2.1,5.465-2.732,7.375A17.772,17.772,0,0,0,333.117-215.729Z" transform="translate(-216.304 380.769)" fill="#182e35"/>
    <path id="Path_3937" data-name="Path 3937" d="M398.5-226.671a105.485,105.485,0,0,0,7.209,7.845,105.534,105.534,0,0,0,7.6,7.472,105.447,105.447,0,0,0-7.21-7.846A106.074,106.074,0,0,0,398.5-226.671Z" transform="translate(-355.875 381.11)" fill="#182e35"/>
    <path id="Path_3938" data-name="Path 3938" d="M373.764-208.434l-7.13,34.516,32.867,6.79a15.138,15.138,0,0,0,17.887-11.762l1.005-4.869a15.137,15.137,0,0,0-11.762-17.886Z" transform="translate(-328.283 381.753)" fill="#f0515e"/>
    <path id="Path_3939" data-name="Path 3939" d="M384.671-213.652l52.884,10.924a3.993,3.993,0,0,0-3.1-4.719l-45.064-9.308A3.992,3.992,0,0,0,384.671-213.652Z" transform="translate(-365.886 381.457)" fill="#f0515e"/>
    <path id="Path_3940" data-name="Path 3940" d="M411.409-204.53h0l-19.594-4.047a3.528,3.528,0,0,0,.7.235l.018-.086Z" transform="translate(-347.052 381.748)" fill="#9a9999"/>
    <path id="Path_3941" data-name="Path 3941" d="M410.618-204.519c.057,0,.087-.005.09-.017l-18.875-3.9-.018.086c.49.136,1.213.316,2.117.529,1.763.415,4.206.952,6.914,1.514s5.165,1.04,6.95,1.361A28.033,28.033,0,0,0,410.618-204.519Z" transform="translate(-346.351 381.753)" fill="#a12d34"/>
    <path id="Path_3942" data-name="Path 3942" d="M411.42-204.53a16.058,16.058,0,0,0-2.831-.781c-1.763-.416-4.206-.953-6.914-1.515s-5.163-1.039-6.947-1.359a28.175,28.175,0,0,0-2.824-.427c-.057,0-.087.005-.09.017s0,.01.011.018Z" transform="translate(-347.064 381.747)" fill="#a12d34"/>
    <path id="Path_3943" data-name="Path 3943" d="M397.393-170.775l0-.02-1.238-.256Z" transform="translate(-337.536 383.073)" fill="#b3b4b3"/>
    <path id="Path_3944" data-name="Path 3944" d="M396.247-169.947l.043-.071-3.122-.645h-.133Zm-3.475-.773.006-.024-.284-.059,0,.02Z" transform="translate(-332.634 383.081)" fill="#0e1d21"/>
    <path id="Path_3945" data-name="Path 3945" d="M395.771-170.664h.133l-.39-.081-.006.024Z" transform="translate(-335.369 383.083)" fill="#223c44"/>
    <path id="Path_3946" data-name="Path 3946" d="M412.252-196.356l.289-1.4-.073-.06Q412.359-197.088,412.252-196.356Z" transform="translate(-369.342 382.128)" fill="#b3b4b3"/>
    <path id="Path_3947" data-name="Path 3947" d="M412.558-169.067a7.491,7.491,0,0,0,.238-6.479,20.2,20.2,0,0,0-3.759-5.625A128.877,128.877,0,0,0,392.1-197.761l-.289,1.4-.146.987,7.1,23.314,8.754,1.951,1.238.256.284.059.39.081Z" transform="translate(-348.901 382.13)" fill="#bc363f"/>
    <path id="Path_3948" data-name="Path 3948" d="M398.783-187.01a15.861,15.861,0,0,1,.071-20.9l13.213-14.983L422.553-209.9c-.463.309-11.3,13.182-11.3,13.182l16.559,20.636c2.551,3.179,3.939,7.659,2.613,11.512l-2.211,4.63a6.794,6.794,0,0,1-8.912,3.27l-3.965-1.778a1.473,1.473,0,0,1-.365-2.452l.966-.842a3.4,3.4,0,0,1,2.577-.821l5.049.509.231-.929Z" transform="translate(-369.758 381.243)" fill="#fab9a0"/>
    <path id="Path_3949" data-name="Path 3949" d="M401.756-162.262a10.3,10.3,0,0,0,1.589.6,11.563,11.563,0,0,0,4.056.957,3.356,3.356,0,0,0,2.139-1.069,5.557,5.557,0,0,0,1.1-1.559,2.648,2.648,0,0,0,.376-1.69c-.088-.013-.186.633-.713,1.51a6.051,6.051,0,0,1-1.1,1.38,3.036,3.036,0,0,1-1.822.889,14.943,14.943,0,0,1-3.918-.783A3.711,3.711,0,0,0,401.756-162.262Z" transform="translate(-356.983 383.285)" fill="#f6976e"/>
    <path id="Path_3950" data-name="Path 3950" d="M402.077-163.826a14.4,14.4,0,0,0,3.8,1.343,4.11,4.11,0,0,0,2.915-.273c.686-.387.887-.866.83-.892-.065-.054-.358.3-.995.549a4.422,4.422,0,0,1-2.637.089A15.993,15.993,0,0,0,402.077-163.826Z" transform="translate(-355.903 383.327)" fill="#f6976e"/>
  </g>
</svg>
