<svg xmlns="http://www.w3.org/2000/svg" width="93.706" height="92.801" viewBox="0 0 93.706 92.801">
  <g id="icon_1" data-name="icon 1" transform="translate(-138 -28.599)">
    <g id="Group_939" data-name="Group 939" transform="translate(161 168.067)">
      <path id="Path_2511" data-name="Path 2511" d="M3.074-83.933l.2-.035a.086.086,0,0,0,0,.031c-.135.486-.259.972-.37,1.462A13.815,13.815,0,0,1,3.074-83.933ZM3.3-73.519l-.085.023c.008-.069.015-.135.019-.2.023.058.039.116.062.174C3.294-73.522,3.294-73.519,3.3-73.519Zm.12-11.753c0-.008,0-.012.008-.019-.012.085-.023.174-.035.259-.019,0-.035,0-.054.008C3.364-85.106,3.387-85.191,3.418-85.272Zm5.24,8.659c.116.27.239.54.363.806a2.585,2.585,0,0,1-.4-.675C8.631-76.524,8.646-76.567,8.658-76.613Zm.316-11.236c.154-.243.309-.49.459-.733-.224.509-.463,1.019-.706,1.528-.031.023-.058.05-.089.077C8.746-87.271,8.858-87.56,8.974-87.849ZM9.449-78.6c-.066-.2-.131-.4-.189-.6-.015-.046-.023-.093-.039-.143A.974.974,0,0,0,9.5-79.3C9.48-79.063,9.464-78.832,9.449-78.6ZM9.943-92.21l.243-.127c-.112.123-.228.247-.347.363A.631.631,0,0,0,9.943-92.21Zm.783,20.3L8.9-71.921c.432-.012.868-.027,1.3-.039C10.379-71.944,10.552-71.925,10.726-71.91Zm1.509-7.752.077-.046c-.05.235-.1.475-.143.714C12.188-79.218,12.211-79.442,12.235-79.662Zm.212-10.669a2.6,2.6,0,0,0,.093.451c-.073-.069-.15-.143-.224-.216C12.358-90.172,12.4-90.253,12.447-90.331Zm1.1,14.9c-.162-.131-.332-.255-.506-.374A2.343,2.343,0,0,1,13.543-75.432Zm4.927-7.922c-.008-.066-.012-.131-.015-.2a1.221,1.221,0,0,0,.123.062v.073Zm.17.513c0,.012,0,.023,0,.035-.039.058-.073.12-.112.177,0-.05-.012-.1-.015-.15C18.555-82.8,18.6-82.822,18.64-82.841Zm1.254,3.623c-.027.073-.058.143-.081.216-.066-.073-.127-.147-.185-.224.042-.039.081-.077.124-.116C19.8-79.3,19.844-79.256,19.894-79.218Zm-5.29-7.4c.058-.324.112-.648.174-.976a.11.11,0,0,0,0-.05.625.625,0,0,0,.309-.232A.4.4,0,0,0,15-88.455a3.107,3.107,0,0,1-1.366-2.261,4.115,4.115,0,0,1,.749-2.026,9.514,9.514,0,0,0,1.351-2.716,7.859,7.859,0,0,0,2.246-.193c.548,1.763,2.033,3.241,2.971,4.866a21.087,21.087,0,0,0-3.033,2.879.37.37,0,0,0-.382.123c-.563.679-.367,1.686-.374,2.481a22.414,22.414,0,0,0,.181,3.257,12.273,12.273,0,0,0,.239,1.25c-.015.042-.039.085-.054.127a.266.266,0,0,0,.189.324,4.72,4.72,0,0,0,2.138,2.832,14.936,14.936,0,0,1-1.138,1.393A30.212,30.212,0,0,1,16.8-73.26c-.32-.579-.621-1.161-.976-1.725a4.643,4.643,0,0,0-2.508-2.18c.409-2.176.614-4.376.876-6.567A7.914,7.914,0,0,0,14.6-86.619Zm2.62-11.464c.208-.035.417-.077.617-.131-.235.089-.478.17-.725.239C17.15-98.009,17.189-98.044,17.224-98.082ZM14.812-72.731c.015-.054.023-.1.035-.154a1.876,1.876,0,0,0,.313-.262c.1.15.193.3.286.432C15.237-72.72,15.024-72.724,14.812-72.731ZM12.127-99.309c.127.1.266.2.405.3,0,.023.012.042.015.066C12.4-99.063,12.262-99.186,12.127-99.309ZM9.044-106.1c.019.05.046.1.066.147a11.428,11.428,0,0,0,.49,2.647A9.867,9.867,0,0,1,9.044-106.1ZM22.066-90.828c.077.062.158.123.239.181-.089.042-.17.089-.251.135A.409.409,0,0,0,22.066-90.828Zm1.111,12.085c.012.019.023.039.031.054a.629.629,0,0,1-.077.066C23.147-78.662,23.162-78.7,23.178-78.743Zm1.289-10.8c.008,0,.019,0,.027,0a.578.578,0,0,0-.085.193.628.628,0,0,0-.05.3c0,.015,0,.031,0,.05-.008.1-.015.2-.015.3-.027.015-.054.031-.077.046-.035-.089-.073-.181-.116-.27C24.266-89.127,24.37-89.339,24.466-89.54ZM24.559-73.7c-.081.008-.162.015-.247.027.039-.042.077-.089.112-.135a.654.654,0,0,0,.12-.023C24.547-73.793,24.555-73.75,24.559-73.7Zm.116-7.185c.027.143.054.286.077.432-.042-.108-.085-.212-.12-.324C24.648-80.815,24.663-80.854,24.675-80.889Zm1.316,5.051c.085-.158.17-.316.247-.478v.2c-.085.181-.174.363-.266.536C25.975-75.668,25.983-75.753,25.99-75.838Zm1.54-6.934a10.8,10.8,0,0,1-.27,2.25c-.035-.012-.073-.019-.108-.031A10,10,0,0,0,27.53-82.772Zm.575,4.611c-.019.154-.039.313-.066.475a.679.679,0,0,0-.112-.093C27.989-77.9,28.047-78.033,28.105-78.161Zm.7-11.468a4.714,4.714,0,0,1,1.08,1.76,6.79,6.79,0,0,0-1.057-1.42,2,2,0,0,0-.251-.552C28.653-89.771,28.73-89.7,28.8-89.628ZM27.318-72.921c.046-.027.1-.05.143-.081a.452.452,0,0,0,.015.1C27.422-72.909,27.372-72.913,27.318-72.921ZM.524-73.5a1.814,1.814,0,0,0-.1.3,44.667,44.667,0,0,1,6.872,1.115,48.273,48.273,0,0,0,5.418.853c1.293,0,2.585-.012,3.878-.046a.848.848,0,0,0,.293.266h.8a.266.266,0,0,0,.039-.015c.177-.093.347-.193.513-.3,1.968-.058,3.94,0,5.908-.05.3-.008.617-.015.93-.027a50.578,50.578,0,0,0,5.371-.88c-.039-.174-.073-.347-.116-.521a.318.318,0,0,0,.216-.282c.131-2.662.579-5.333.837-7.991.266-2.728.455-5.834-.961-8.365-1.053-1.879-3.45-2.7-5.487-3.515a11.586,11.586,0,0,1-2.361-1.192c-.525-.934-.938-1.991-1.5-2.909a12.375,12.375,0,0,0,5.306-9.28,7.268,7.268,0,0,0-.718-3.291c-.918-3.179-4.457-5.464-8.122-5.923-3.843-.482-7.262,1.312-8.589,4.287-.174.22-.336.44-.49.671-2.041,3.025-.891,7.451.888,10.337.058.093.116.181.174.274a4.642,4.642,0,0,0,1.86,2.933,7.38,7.38,0,0,0,1.4.853,12.064,12.064,0,0,1-.961,1.779,18.2,18.2,0,0,1-2.485,1.462.83.83,0,0,0-.625.166c-.174.131-.347.259-.521.39a22.648,22.648,0,0,0-5.626,3.264C-2-85,1.025-78.531.524-73.5Z" transform="translate(0 0)" fill="#1f2327"/>
      <path id="Path_2512" data-name="Path 2512" d="M74.96-88.858c.035-.069.073-.135.108-.2a2.217,2.217,0,0,0,.081.386C75.084-88.738,75.022-88.8,74.96-88.858Zm-2.1-1.594a.573.573,0,0,0,.089-.2c.069-.035.139-.069.208-.108C73.058-90.656,72.961-90.552,72.861-90.452ZM74.8-96.664c.108.089.224.174.343.255,0,.019.012.035.015.054C75.03-96.456,74.914-96.56,74.8-96.664Zm-2.612-5.753c.019.039.039.081.058.123a9.707,9.707,0,0,0,.417,2.238A8.367,8.367,0,0,1,72.186-102.417Zm6.93,6.791c.177-.031.351-.066.525-.112a6.423,6.423,0,0,1-.617.2C79.054-95.564,79.085-95.591,79.116-95.626Zm4.1,6.143c.066.054.131.1.2.154-.073.039-.143.073-.212.116A.345.345,0,0,0,83.217-89.483Zm2.033,1.092a.166.166,0,0,0,.019,0,.5.5,0,0,0-.069.162.508.508,0,0,0-.042.255.131.131,0,0,0,0,.039c-.008.089-.015.174-.015.259-.023.012-.042.027-.066.039-.031-.077-.062-.154-.1-.228C85.077-88.04,85.166-88.218,85.251-88.391Zm.077,13.409c-.069.012-.139.015-.208.023.031-.035.062-.073.093-.112a.771.771,0,0,0,.1-.019A1.04,1.04,0,0,1,85.328-74.983Zm.1-6.081c.023.12.042.243.062.367-.035-.093-.069-.181-.1-.274C85.4-81,85.417-81.033,85.428-81.064Zm1.111,4.279c.073-.135.143-.27.208-.409v.17c-.069.154-.147.3-.224.451C86.528-76.642,86.532-76.715,86.54-76.785Zm1.3-5.877a9.324,9.324,0,0,1-.228,1.906l-.093-.023A8.623,8.623,0,0,0,87.844-82.661Zm.486,3.909c-.015.131-.031.262-.054.4a.471.471,0,0,0-.1-.077Q88.26-78.59,88.33-78.752Zm.59-9.716a4.009,4.009,0,0,1,.914,1.493,5.838,5.838,0,0,0-.9-1.2,1.76,1.76,0,0,0-.208-.467C88.793-88.588,88.859-88.53,88.92-88.468ZM87.666-74.315c.039-.023.081-.046.116-.069,0,.031.012.058.015.085C87.751-74.3,87.709-74.311,87.666-74.315Zm-6.359-5.151c-.054-.062-.108-.127-.154-.189a1.222,1.222,0,0,1,.1-.1c.039.035.077.069.12.1C81.354-79.586,81.331-79.528,81.307-79.466Zm-1.084-3.071-.012-.127c.031-.019.069-.035.1-.054,0,.012,0,.019.008.031C80.285-82.638,80.254-82.588,80.223-82.538Zm-.066-.783a.443.443,0,0,0,.1.054v.062c-.031.019-.062.035-.093.054C80.165-83.209,80.161-83.263,80.158-83.321ZM76.9-85.914c.046-.278.093-.552.147-.83a.079.079,0,0,0,0-.042.553.553,0,0,0,.262-.2.345.345,0,0,0-.077-.49,2.64,2.64,0,0,1-1.158-1.914A3.573,3.573,0,0,1,76.7-91.1a8.019,8.019,0,0,0,1.146-2.3,6.572,6.572,0,0,0,1.9-.162c.463,1.493,1.721,2.743,2.52,4.121A17.968,17.968,0,0,0,79.7-87.01a.311.311,0,0,0-.32.108c-.478.571-.313,1.424-.32,2.1a18.88,18.88,0,0,0,.158,2.759,9.6,9.6,0,0,0,.2,1.057c-.015.035-.031.073-.046.108a.225.225,0,0,0,.158.274,4.024,4.024,0,0,0,1.814,2.4,12.557,12.557,0,0,1-.969,1.181A24.669,24.669,0,0,1,78.757-74.6c-.27-.49-.525-.984-.822-1.459l-.116-.174a19.115,19.115,0,0,1-.208,3.326c.324,0,.644-.008.965-.019a.792.792,0,0,0,.12.135,29,29,0,0,1,5.541-.4A34.541,34.541,0,0,0,90.4-74.585c.12-2.215.486-4.43.7-6.641.228-2.307.386-4.939-.814-7.084-.891-1.59-2.921-2.284-4.646-2.975a9.913,9.913,0,0,1-2-1.011c-.444-.791-.795-1.686-1.273-2.462a10.48,10.48,0,0,0,4.491-7.86,6.169,6.169,0,0,0-.606-2.786c-.779-2.693-3.778-4.63-6.88-5.02a6.825,6.825,0,0,0-7.273,3.635q-.22.272-.417.567c-1.729,2.562-.756,6.309.752,8.755.046.077.1.154.147.232a3.92,3.92,0,0,0,1.574,2.481,5.991,5.991,0,0,0,1.188.722,10.4,10.4,0,0,1-.814,1.509,15.419,15.419,0,0,1-2.107,1.239.689.689,0,0,0-.529.143c-.147.108-.293.216-.44.328-.143.066-.289.135-.436.2,2.794,1.331,4.557,4.113,5.556,7.042A6.61,6.61,0,0,0,76.9-85.914Z" transform="translate(-43.459 -3.159)" fill="#1f2327"/>
    </g>
    <g id="Group_940" data-name="Group 940" transform="translate(138 146.416)">
      <path id="Path_2548" data-name="Path 2548" d="M6.276-90.84c3.893-11.487,13.842-19.291,25.194-22.772,11.8-3.615,26.421-4.231,37.722,1.227C87.971-103.317,96.731-80.2,91.513-60.492c-5.38,20.317-25.726,34.163-46.335,34.418a38.039,38.039,0,0,1-17.19-3.435c-5.135-2.523-9.228-6.754-12.841-11.1C7.274-50.068-.248-59.931.739-72.91,1.638-84.751,7.633-96.406,15.7-105c8.807-9.38,20.966-13.206,33.658-11.791,23.913,2.666,45.033,24.065,39.853,49.241C84.658-45.437,59.3-25.6,36.492-30.238,12.651-35.087.273-60.036,6.274-82.642c5.577-21,27.717-38.273,49.953-32.265C67.221-111.936,79.059-104.064,84.688-94a36.472,36.472,0,0,1,2.226,29.371,34.209,34.209,0,0,1-8.059,12.957.233.233,0,0,0,.329.329A35.966,35.966,0,0,0,89.677-79.37c-.7-11.056-6.342-20.231-15.075-26.857-9.521-7.224-20.931-12-33.017-10.06A44.9,44.9,0,0,0,14.038-99.739C-.716-81.085.765-51.922,20.123-37.072a38.111,38.111,0,0,0,32.666,7.017C64.319-33,74.837-40.772,81.935-50.22c7.354-9.789,10.553-21.868,7.666-33.9a43.08,43.08,0,0,0-20.659-27.118c-10.814-6.181-24.476-8.381-36.548-4.976-11.665,3.291-20.2,12.581-25.888,22.925C.778-82.878-2.418-69.914,2.23-58.487,4.62-52.61,8.761-47.581,12.652-42.641c3.81,4.838,7.952,9.655,13.312,12.827,19.395,11.481,46.995.873,59.381-16.125,12.605-17.3,10.689-42.806-3.941-58.355-8.893-9.451-20.747-12.954-33.464-12.511-12.211.427-24.794,3.819-33.689,12.612a32.871,32.871,0,0,0-8.239,13.28C5.959-90.744,6.22-90.674,6.276-90.84Z" transform="translate(0 0)" fill="#5271ff"/>
    </g>
  </g>
</svg>
