<svg xmlns="http://www.w3.org/2000/svg" width="93.706" height="92.801" viewBox="0 0 93.706 92.801">
  <g id="icon_3" data-name="icon 3" transform="translate(-138 -28.599)">
    <g id="Group_940" data-name="Group 940" transform="translate(138 146.416)">
      <path id="Path_2548" data-name="Path 2548" d="M6.276-90.84c3.893-11.487,13.842-19.291,25.194-22.772,11.8-3.615,26.421-4.231,37.722,1.227C87.971-103.317,96.731-80.2,91.513-60.492c-5.38,20.317-25.726,34.163-46.335,34.418a38.039,38.039,0,0,1-17.19-3.435c-5.135-2.523-9.228-6.754-12.841-11.1C7.274-50.068-.248-59.931.739-72.91,1.638-84.751,7.633-96.406,15.7-105c8.807-9.38,20.966-13.206,33.658-11.791,23.913,2.666,45.033,24.065,39.853,49.241C84.658-45.437,59.3-25.6,36.492-30.238,12.651-35.087.273-60.036,6.274-82.642c5.577-21,27.717-38.273,49.953-32.265C67.221-111.936,79.059-104.064,84.688-94a36.472,36.472,0,0,1,2.226,29.371,34.209,34.209,0,0,1-8.059,12.957.233.233,0,0,0,.329.329A35.966,35.966,0,0,0,89.677-79.37c-.7-11.056-6.342-20.231-15.075-26.857-9.521-7.224-20.931-12-33.017-10.06A44.9,44.9,0,0,0,14.038-99.739C-.716-81.085.765-51.922,20.123-37.072a38.111,38.111,0,0,0,32.666,7.017C64.319-33,74.837-40.772,81.935-50.22c7.354-9.789,10.553-21.868,7.666-33.9a43.08,43.08,0,0,0-20.659-27.118c-10.814-6.181-24.476-8.381-36.548-4.976-11.665,3.291-20.2,12.581-25.888,22.925C.778-82.878-2.418-69.914,2.23-58.487,4.62-52.61,8.761-47.581,12.652-42.641c3.81,4.838,7.952,9.655,13.312,12.827,19.395,11.481,46.995.873,59.381-16.125,12.605-17.3,10.689-42.806-3.941-58.355-8.893-9.451-20.747-12.954-33.464-12.511-12.211.427-24.794,3.819-33.689,12.612a32.871,32.871,0,0,0-8.239,13.28C5.959-90.744,6.22-90.674,6.276-90.84Z" transform="translate(0 0)" fill="#5271ff"/>
    </g>
    <g id="Group_942" data-name="Group 942" transform="translate(-820.379 -2045.843)">
      <g id="Group_832" data-name="Group 832" transform="translate(983.404 2093.491) rotate(-4)">
        <path id="Path_2503" data-name="Path 2503" d="M1.3,12.1a.108.108,0,0,0,.035-.085q.033-1.1.107-2.192Q1.561,8,1.77,6.177l.124-1.046.127-1.843c.067-.912.14-1.807.114-1.732.071-1.5-.07-2.509-.722-.157C1.206,2.09,1,2.936.845,3.613S.6,4.792.6,4.792L.449,6.027Q.237,7.877.11,9.739.035,10.855,0,11.977a.385.385,0,0,0,.051.108C.6,12.807,1.1,12.386,1.3,12.1Z" transform="translate(10.818 3.368)" fill="#1f2327"/>
        <path id="Path_2504" data-name="Path 2504" d="M14,3.532q-.047-.5-.072-1.021L13.9,1.792l.165.02.01.14s.086.382.178.741a4.611,4.611,0,0,0,.193.675c.025.072.051.142.079.205ZM5.248,2.856a1.819,1.819,0,0,1-.019-.2c-.007-.136-.006-.282,0-.432a2.849,2.849,0,0,0,.092.54c.008.035.017.07.027.1ZM18.1,4.189c-1.013-.225-2.34-.44-3-.542a2.617,2.617,0,0,0,.091-.313,7.1,7.1,0,0,0,.169-.935l.053-.479-.013-.186-.021-.369L15.343.6,14.569.53,13.977.459a3.842,3.842,0,0,0-.74-.018l-.7.072.033,1.352.025.706q.019.425.054.856L6.013,2.916c.013-.03.027-.059.04-.093a5.388,5.388,0,0,0,.289-.8c.07-.248.107-.436.107-.436.006-.3,0-.6-.007-.908L6.425.238,6.031.09A1.383,1.383,0,0,0,5.484,0a2.8,2.8,0,0,0-.379.035c-.04,0-.166.03-.251.047L4.576.149,4.025.291l-.086,1.1c-.017.211-.032.426-.043.646s-.012.446,0,.687c0,.008,0,.018,0,.027l-1.162-.09L.531,2.492a.344.344,0,0,0-.108.046C-.313,3.06.077,3.577.358,3.788a.107.107,0,0,0,.084.039L2.648,4l10.713.823,1.055.081s3.74.064,3.586.023C19.5,4.879,20.486,4.659,18.1,4.189Z" transform="translate(13.049 0)" fill="#1f2327"/>
        <path id="Path_2505" data-name="Path 2505" d="M20.992,9.374c.063-.694.108-1.195.108-1.195l.02-1.23c.029-1.411.089-2.813.252-4.189A19.742,19.742,0,0,1,21.726.641a.37.37,0,0,0-.03-.11c-.408-.8-.966-.528-1.22-.262a.119.119,0,0,0-.052.081A20.936,20.936,0,0,0,20.049,2.6c-.171,1.446-.23,2.889-.258,4.319l-.017,1.066s.047.934.093,1.854.082,1.807.1,1.729c.028.384.061.733.1,1-.2-.019-.44-.036-.731-.048-1.429-.1-3.446-.174-3.446-.174l-1.224.028a97.551,97.551,0,0,1-11.91-.537c-.728-.081-1.455-.164-2.18-.262a.365.365,0,0,0-.11.041C-.3,12.1.049,12.636.32,12.861A.112.112,0,0,0,.4,12.9c.736.1,1.474.183,2.212.265a98.939,98.939,0,0,0,12.073.541l1.066-.023.584-.055c.35-.032.813-.078,1.271-.132.916-.1,1.809-.231,1.73-.236.332-.06.633-.125.878-.191.036.038.077.026.122-.034.513-.151.687-.3.163-.407a9.183,9.183,0,0,0,.2-.988C20.825,10.93,20.926,10.061,20.992,9.374Z" transform="translate(11.744 4.796)" fill="#1f2327"/>
        <path id="Path_2506" data-name="Path 2506" d="M2.312,1.4a.988.988,0,0,1,.652-.01.241.241,0,0,0,.079-.033c.316-.161.577-.311.641-.527A.685.685,0,0,0,3.493.189a.19.19,0,0,0-.1-.069A2.324,2.324,0,0,0,1.874.135,2.774,2.774,0,0,0,.69.944,2.661,2.661,0,0,0,0,2.712a2.354,2.354,0,0,0,.058.507,3.748,3.748,0,0,0,.164.469,2.929,2.929,0,0,0,.517.785,2.347,2.347,0,0,0,1.28.69,2.591,2.591,0,0,0,.771-.014,2.967,2.967,0,0,0,1.419-.662,2.69,2.69,0,0,0,.549-.632,2.1,2.1,0,0,0,.265-.709,1.229,1.229,0,0,0-.047-.672,1.666,1.666,0,0,0-.729-.94.964.964,0,0,0-.543-.186c-.089.02-.069.112.069.295.037.043.075.1.118.159a1.767,1.767,0,0,1,.141.207,1.3,1.3,0,0,1,.216.577c.049.532-.52,1.037-1.031,1.2A1.693,1.693,0,0,1,2.6,3.89a1.2,1.2,0,0,1-.229-.024A1.013,1.013,0,0,1,1.7,3.553a1.608,1.608,0,0,1-.272-.426c-.026-.076-.056-.145-.076-.216A1.039,1.039,0,0,1,1.334,2.7a1.333,1.333,0,0,1,.357-.872A1.442,1.442,0,0,1,2.312,1.4Z" transform="translate(14.777 5.143)" fill="#1f2327"/>
        <path id="Path_2507" data-name="Path 2507" d="M5.024,2.322c-.044-.111-.068-.161-.063-.135a1.919,1.919,0,0,0-.818-.813A1.026,1.026,0,0,0,3.6,1.207c-.089.021-.07.112.073.295l.286.357a1.869,1.869,0,0,1,.3.571.729.729,0,0,1,0,.382.736.736,0,0,1-.184.328,1.693,1.693,0,0,1-.7.448,2.316,2.316,0,0,1-.653.129,1.439,1.439,0,0,1-.252-.007,1.182,1.182,0,0,1-.741-.219,1.282,1.282,0,0,1-.393-.95,1.366,1.366,0,0,1,.088-.516,1.009,1.009,0,0,1,.287-.373,2.082,2.082,0,0,1,1.582-.269.292.292,0,0,0,.094-.037c.34-.214.52-.427.531-.653A.736.736,0,0,0,3.625.12a.151.151,0,0,0-.1-.053A3.9,3.9,0,0,0,2.2.048,2.91,2.91,0,0,0,.886.6a2.352,2.352,0,0,0-.7.909A2.691,2.691,0,0,0,0,2.59,3.067,3.067,0,0,0,.22,3.618,2.266,2.266,0,0,0,.9,4.537a2.451,2.451,0,0,0,1.346.5,2.8,2.8,0,0,0,.73-.07,3.27,3.27,0,0,0,1.386-.674A1.942,1.942,0,0,0,5.12,2.854,1.368,1.368,0,0,0,5.024,2.322Z" transform="translate(24.551 5.841)" fill="#1f2327"/>
        <path id="Path_2508" data-name="Path 2508" d="M12.717,2.52c-.161-.036-.337-.074-.548-.113-1.406-.3-3.422-.572-3.422-.572l-.136-.009c.394,0,3.694.025,3.55-.012.2-.007.384-.018.556-.032,0,.114-.005.238,0,.366S12.715,2.409,12.717,2.52ZM14.065,1.5a.362.362,0,0,0-.053-.014c-.155-.03-.3-.05-.442-.065a5.775,5.775,0,0,0-1.312-.343C10.852.781,8.836.507,8.836.507L7.606.424,3.576.149,1.369,0a.352.352,0,0,0-.107.047A.913.913,0,0,0,.85.586C-.883.568.663.592.122.585V.593h0v0C.121.6.12.61.12.616v0c0,.025,0,.05-.006.086C.108.8.1.918.091,1.039l-.032.48s.2.306.233.3a.632.632,0,0,0,.252.124A.774.774,0,0,0,.9,2.61a.11.11,0,0,0,.084.039L3.189,2.8l4.239.285,1.055.071s3.742.028,3.588-.011c.3-.012.57-.03.8-.055.053.08.1.148.113.14a.5.5,0,0,0,.737-.02,1.615,1.615,0,0,0,.328-.386s-.01-.336-.009-.664c0-.164,0-.326.009-.448S14.065,1.506,14.065,1.5Z" transform="translate(15.454 12.315)" fill="#1f2327"/>
        <path id="Path_2509" data-name="Path 2509" d="M14.67,5.505a1.276,1.276,0,0,0-.24-.547,1.454,1.454,0,0,0-.579-.47,1.54,1.54,0,0,0-.693-.14,2.607,2.607,0,0,0-1.072.286,7.468,7.468,0,0,0-1.515,1.03c-.448.377-.863.776-1.263,1.18l-.583.6c-.051.058-.195.178-.293.281l-.3.3a3.649,3.649,0,0,1-.6.514.574.574,0,0,1-.225.083,2.251,2.251,0,0,1-.354.031c-.063,0-.142,0-.193,0l-.041,0-.081,0-.166-.013c-.225-.021-.457-.052-.7-.086L5.184,8.5c-.4-.023-.838-.02-1.3-.029-.915-.012-1.812-.019-1.735,0a8.36,8.36,0,0,0-1.185.1,1.033,1.033,0,0,0,.344-.337.1.1,0,0,0,.03-.083,18.75,18.75,0,0,1,.1-2.138l.12-1.2c.018-.2.048-.4.056-.647l.015-.62A10.448,10.448,0,0,1,1.7,2.4a2.156,2.156,0,0,1,.254-.859c.068-.093.086-.105.142-.127a1.112,1.112,0,0,1,.368-.039c.18,0,.4.01.657-.009.2-.015.374-.026.564-.029a17.45,17.45,0,0,1,2.327.176c.8.106,1.659.164,2.446.236l2.41.213,4.82.426.149.013v.013a7.9,7.9,0,0,1,.051,1.114,17.047,17.047,0,0,1-.232,2.327c-.122.789-.268,1.588-.386,2.408l-.08.621-.019.184-.181-.029c-.425-.063-.845-.1-1.263-.128-.209-.012-.418-.023-.626-.029l-.579-.011h0l.1-.087c.307-.278.613-.566.91-.881a6.13,6.13,0,0,0,.84-1.075,2.4,2.4,0,0,0,.308-.78A1.515,1.515,0,0,0,14.67,5.505Zm-1.456.651a4.888,4.888,0,0,1-.658.832c-.26.275-.543.543-.836.808l-.81.718c-.154.134-.3.266-.437.4-.122.128-.243.259-.338.376l-.584.7-.157.189-.1.125-.017.021-.009.01a.114.114,0,0,0,.018,0l.636-.033c.862-.047,1.7-.093,2.5-.091l.339,0,.294.007.585.026c.389.024.774.06,1.149.116l.14.022.127.021.15.029.6.141.3.072.15.036.075.018.038.009c.01,0,0-.021.007-.031l.042-.609.042-.611.044-.42.075-.585c.113-.784.258-1.58.384-2.393a18.314,18.314,0,0,0,.248-2.507,9.307,9.307,0,0,0-.062-1.312c-.02-.175-.064-.391-.1-.585l-.051-.3-.026-.149-.006-.038c0-.009-.022,0-.033-.007l-.075-.007-1.055-.1L10.968.631,8.547.417C7.724.341,6.969.292,6.165.186A18.79,18.79,0,0,0,3.659,0c-.214,0-.444.017-.647.033-.149.012-.331.006-.555,0a2.343,2.343,0,0,0-.827.121A1.6,1.6,0,0,0,.85.786,3.334,3.334,0,0,0,.374,2.222,11.649,11.649,0,0,0,.291,3.509l-.014.6c0,.158-.032.365-.05.564L.1,5.886A20.039,20.039,0,0,0,0,8.177a.374.374,0,0,0,.057.108.813.813,0,0,0,.626.36c-.227.12.076.3,1.365.556.7.157,1.557.31,2.237.423l.467.077.342.065.324.067c.269.038.548.078.84.108.145.015.3.027.448.034a4.218,4.218,0,0,0,.631-.017A2.439,2.439,0,0,0,7.689,9.9a1.747,1.747,0,0,0,.386-.14,4.15,4.15,0,0,0,1-.791l.292-.292c.095-.1.169-.153.309-.3l.58-.6c.382-.387.771-.758,1.174-1.1a6.211,6.211,0,0,1,1.231-.846,1.349,1.349,0,0,1,.522-.156A.208.208,0,0,1,13.3,5.7c.013,0,.022.017.037.02s.033.025.026.028.008-.02,0,.064A1.15,1.15,0,0,1,13.214,6.157Z" transform="translate(12.282 23.82)" fill="#1f2327"/>
        <path id="Path_2510" data-name="Path 2510" d="M38.259,30.749a3.192,3.192,0,0,1-1.247,1.442.484.484,0,0,1-.075.049l-.013.007h0v0l-.013-.074-.016-.111a1.464,1.464,0,0,1-.008-.2.471.471,0,0,1,.049-.225c.066-.09.042-.073.164-.142a6.146,6.146,0,0,0,.571-.281,1.738,1.738,0,0,0,.634-.66,2.493,2.493,0,0,0,.121-.27A3.34,3.34,0,0,1,38.259,30.749Zm-1.588-4.576c-.119-.044-.244-.094-.362-.126s-.232-.06-.352-.079a3.247,3.247,0,0,0-1.448.09,3.828,3.828,0,0,0-1.25.642,4.256,4.256,0,0,0-1.522,2.238c0-.012,0-.024,0-.037a2.273,2.273,0,0,1,.015-.28l.013-.139a.619.619,0,0,1,.009-.069l.038-.218a3.283,3.283,0,0,1,.885-1.7,3.216,3.216,0,0,1,.774-.556,3.993,3.993,0,0,1,.932-.313,3.56,3.56,0,0,1,1.933.135,3.272,3.272,0,0,1,1.5,1.184,3.887,3.887,0,0,1,.461.884c-.024-.051-.045-.1-.071-.155a3.5,3.5,0,0,0-.908-1.111A3.087,3.087,0,0,0,36.671,26.173Zm-3.557,5.853.131.052h0l-.009.133-.034.5c-.112-.11-.232-.232-.365-.384a5.354,5.354,0,0,1-.573-.88c-.006-.012-.009-.024-.015-.036a2.339,2.339,0,0,0,.393.345,2.052,2.052,0,0,0,.31.189A1.777,1.777,0,0,0,33.114,32.026Zm.829-20.753a6.081,6.081,0,0,0,.02.726,4.265,4.265,0,0,0,.19,1.509.06.06,0,0,0,.093.01q-.01.089-.012.171l-.026,0a.213.213,0,0,0-.028.053,2.272,2.272,0,0,0-.115.461.785.785,0,0,0-.331.189Zm-12.3,12.136a14.266,14.266,0,0,0-.451,1.653s-.41,6.044-.415,6.128c0,.015.04.047.05.054a1.27,1.27,0,0,0,.461.2,1.514,1.514,0,0,0,0,.4.926.926,0,0,0-.269.3,3.976,3.976,0,0,0-.446.934s-.014.218-.036.546-.038.745-.059,1.171-.056.829-.1,1.132-.077.5-.08.513a.215.215,0,0,0,.049.036,2.122,2.122,0,0,0,.664.228,1.525,1.525,0,0,0-.1.863c-.149.043-.3.09-.449.149a2.565,2.565,0,0,0-1.249.962c-.015.023-.023.041-.036.062a3.008,3.008,0,0,0-.128-.42,2.259,2.259,0,0,0-.481-.751,2.093,2.093,0,0,0-.39-.309c.285-.093.452-.231.3-.4.024-.006.048-.013.066-.02s.034-.013.035-.022c0-.05.236-3.53.236-3.53a9.355,9.355,0,0,0-.183-1.032c-.077-.257-.2-.463-.364-.452a.361.361,0,0,0,.2-.185c.121.03.261-.146.41-.677a11.933,11.933,0,0,0,.359-1.632s0-.367,0-.918.012-1.28.042-2,.087-1.444.155-1.982.135-.9.139-.915a.183.183,0,0,0-.045-.057,1.342,1.342,0,0,0-.5-.268c-.021-.107-.166-.23-.5-.365-.105-.05-.221-.1-.337-.141.48.046.96.092,1.439.134l2.163.179A2.973,2.973,0,0,0,21.646,23.409ZM21.81,34.9c.021-.421.041-.841.056-1.156,0-.008,0-.013,0-.021l.1-.007a9.357,9.357,0,0,1,1.225.035c.455.038.918.1,1.27.14l.59.072.589-.049a2.388,2.388,0,0,0,.558-.09l.068-.02c0,.043,0,.084-.005.133-.01.3,0,.681.026,1.053s.063.735.092,1,.046.442.046.442l.154.407a1.586,1.586,0,0,0,.167.378c.008.015.018.028.027.042l-.015-.006a7.907,7.907,0,0,0-1.194-.422l-3.925-.268c.017-.1.042-.257.066-.456C21.752,35.767,21.788,35.326,21.81,34.9Zm5.774,3.965a6.254,6.254,0,0,1,1.042.112,1.05,1.05,0,0,1,.618.384,1.431,1.431,0,0,1,.294.719.978.978,0,0,1-.776,1.063c-.139.042-.368.107-.422.117l-.276.053a5.471,5.471,0,0,1-.569.062s-.209.032-.534.05-.768.025-1.22.012a15.08,15.08,0,0,0-1.756-.007,3.078,3.078,0,0,0-1.481.362.871.871,0,0,0-.276-.5.11.11,0,0,0-.079-.049c-.359-.072-.7-.144-1.018-.237a2.558,2.558,0,0,1-.791-.354.5.5,0,0,1-.253-.458,1.864,1.864,0,0,1,.251-.768,1.221,1.221,0,0,1,.588-.442,4.442,4.442,0,0,1,.974-.257,12.6,12.6,0,0,1,2.212-.11c.757.018,1.52.076,2.291.147C26.79,38.792,27.174,38.832,27.584,38.861ZM17.909,32.2c-.014.023-.026.048-.04.072-.037-.019-.075-.039-.118-.058-.129-.07-.274-.135-.416-.2a3.136,3.136,0,0,0,.592-.091,2.01,2.01,0,0,0,.226-.065A.95.95,0,0,0,17.909,32.2Zm-.1,8.083a1.374,1.374,0,0,1-.732.361,4.126,4.126,0,0,1-.45.081c-.095.013-.192.023-.293.032-.2.016-.393.031-.592.033,0,0-.214.021-.545.031s-.778,0-1.231-.013a16.387,16.387,0,0,0-1.752-.026,3.191,3.191,0,0,0-1.5.307c0-.016,0-.032,0-.047a.81.81,0,0,0-.4-.486.119.119,0,0,0-.091-.031A8.124,8.124,0,0,1,9.2,40.515a1.02,1.02,0,0,1-.311-.07.776.776,0,0,1-.214-.179,1.7,1.7,0,0,1-.137-1.652,1.208,1.208,0,0,1,.211-.335.986.986,0,0,1,.306-.208,2.678,2.678,0,0,1,.963-.222c.734-.059,1.538.046,2.42.063.825.012,1.644.026,2.453.07q.607.033,1.2.093a5.779,5.779,0,0,1,1.087.187.894.894,0,0,1,.58.423,1.662,1.662,0,0,1,.143.4,5.034,5.034,0,0,1,.074.511A.9.9,0,0,1,17.811,40.281Zm-5.234-4.592s.06-.811.139-1.62c.039-.4.084-.807.126-1.1.013-.085.024-.155.036-.217l.066,0,1.428.116,2.064.2s.838-.063,1.131-.106c-.039.109-.061.182-.061.182l-.217,3.174c-.319-.1-.577-.163-.577-.163l-4.2-.288C12.551,35.764,12.577,35.688,12.577,35.688Zm.209-5.405a12.53,12.53,0,0,0,.4-1.557s.164-3.9.223-5.272l3.761.252s.667-.065,1.048-.115c-.026.166-.058.384-.09.642-.073.57-.133,1.32-.162,2.062s-.039,1.476-.042,2.022,0,.908,0,.908.054.437.109.869a5.9,5.9,0,0,0,.123.812,2.746,2.746,0,0,0,.112.416,1.925,1.925,0,0,0-.276-.134,8.035,8.035,0,0,0-1.207-.423l-4.067-.278C12.741,30.426,12.763,30.359,12.786,30.283ZM8.321,11.319c-.015-.009-.023-.018-.04-.028a3.173,3.173,0,0,0-.307-.19c.065-.23.136-.556.212-1,.119-.58.239-1.262.341-1.864ZM7.7,3.541l-.148,1.8L7.467,6.4s-.015.936-.031,1.861,0,1.825.018,1.747c.015.326.04.623.071.871l-.09-.038-1.62-.2c-.409-.049-.823-.094-1.139-.122L4.4,10.495c.032-.148.065-.308.1-.5.3-1.41.57-3.431.57-3.431l.083-1.234.134-1.945.137-2.035c.249.013.5.032.758.052.544.044,1.091.1,1.639.153l.028,0ZM6.423,20.465a4.051,4.051,0,0,0,.218,1.507c-.177-.074-.312-.12-.312-.12l-2.846-.2a9.674,9.674,0,0,0,.239-1.045c.3-1.409.57-3.431.57-3.431l.083-1.234.068-.967.136-2.014,1.947.131.138-.03L6.527,15.12l-.046.687-.071,1.059S6.383,20.619,6.423,20.465Zm.038,3.38a1.711,1.711,0,0,0-.406-.13l-.413-.083c-.135-.017-.264-.021-.4-.031a4.333,4.333,0,0,0-1.581.225,3.564,3.564,0,0,0-.972.517,3.359,3.359,0,0,1,.433-.366,2.964,2.964,0,0,1,1.589-.494,3.626,3.626,0,0,1,1.694.328c.032.014.059.034.091.049ZM2.81,29.86l.157.1L2.962,30l-.072.529c-.114-.078-.234-.164-.368-.266a4.164,4.164,0,0,1-.712-.745,2.559,2.559,0,0,1-.4-.843,2.774,2.774,0,0,1-.1-.686c.007-.176.011-.281.011-.281a4.357,4.357,0,0,1,.072-.741l0,.1a3.253,3.253,0,0,0,.12.849,3.789,3.789,0,0,0,.766,1.461A3.2,3.2,0,0,0,2.81,29.86ZM8.4,26.918a3.565,3.565,0,0,0-.067-.8,3.783,3.783,0,0,1,.092.381A3.2,3.2,0,0,1,8.142,28.7a3.7,3.7,0,0,1-.7.912,5.648,5.648,0,0,1-.457.39l-.145.1s0,.006,0-.01l-.055-.226s0,0,.008,0l.006,0h0l.021-.015.086-.063A3.566,3.566,0,0,0,8.4,26.918Zm30.765-.36a5.272,5.272,0,0,0-.808-1.048,4.577,4.577,0,0,0-.483-.406c-.023-.1-.116-.212-.318-.337a4.31,4.31,0,0,0-.834-.434s-.787-.085-1.585-.151c-.4-.033-.8-.061-1.113-.076l-.184-.009c.018-.084.035-.164.054-.258.31-1.406.6-3.429.6-3.429l.094-1.235.172-2.233c.042-.652.058-1.283.119-1.87l2.234.15.133-.024L37.1,17.368l-.058.874L36.967,19.3s-.028,3.752.011,3.6c.058,1.508.288,2.493.733.1.3-1.41.57-3.431.57-3.431l.083-1.234.062-.875.149-2.212a.366.366,0,0,0-.047-.108,1.3,1.3,0,0,0-.256-.275c.156-.148.157-.346-.224-.567.045-.013.07-.023.063-.029.365-.135.612-.415.06-.737a4.012,4.012,0,0,0-.793-.4l-2.878-.2c.06-.214.125-.484.194-.835.312-1.417.52-3.455.52-3.455l.044-1.238.09-2.294q.042-.934.106-1.86l2.392.161s.195-.036.4-.077l-.142,2.117-.12,1.806-.071,1.058s-.028,3.752.011,3.6c.058,1.508.288,2.493.733.1.3-1.41.57-3.431.57-3.431l.083-1.234.125-1.8.149-2.213a.378.378,0,0,0-.047-.108,1.018,1.018,0,0,0-.449-.387c-.011-.107-.1-.227-.318-.354a4,4,0,0,0-.792-.395L35,1.881a.186.186,0,0,0-.028.052,2.238,2.238,0,0,0-.112.453.761.761,0,0,0-.669.346.115.115,0,0,0-.04.086c-.017.223-.03.446-.044.669a.673.673,0,0,0-.957.235.114.114,0,0,0-.039.085L32.96,6.021l-.77,11.516-.071,1.058s-.028,3.752.011,3.6c.013.335.035.642.065.894-.226-.079-.546-.168-.981-.272-1.395-.363-3.412-.682-3.412-.682l-7.891-.653c-1.45-.127-2.9-.267-4.34-.432l-1.09-.127c-.384-.039-.75-.065-1.121-.09-.738-.047-1.464-.079-2.177-.134a16.988,16.988,0,0,1-2.109-.274.351.351,0,0,0-.108.034.969.969,0,0,0-.484.477,8.842,8.842,0,0,0,.261-1.11c.3-1.41.57-3.431.57-3.431L9.4,15.162l.723-10.747.127-1.882,1.6.091c1.446.078,2.888.147,4.318.255.712.054,1.435.12,2.128.2.718.1,1.447.185,2.176.254,1.456.141,2.912.231,4.366.3l2.178.081,1.437.041s3.74-.129,3.584-.158c1.5-.111,2.477-.372.069-.738-1.419-.246-3.443-.432-3.443-.432l-1.346-.038-2.2-.079c-1.463-.062-2.922-.151-4.372-.288-.725-.066-1.444-.153-2.171-.25-.752-.091-1.489-.157-2.231-.216-1.482-.114-2.956-.185-4.424-.263l-2.2-.127a.36.36,0,0,0-.107.048.861.861,0,0,0-.419.6l-.022.017.03-.4a.361.361,0,0,0-.047-.108c-.012-.017-.024-.031-.036-.047a.342.342,0,0,0,.135-.15C9.292,1,9.211.849,8.9.673A4.916,4.916,0,0,0,8,.238C7.444.18,6.882.124,6.316.077,6.032.053,5.748.031,5.456.016,5.31.008,5.163,0,5.007,0c-.078,0-.16,0-.252,0a1.579,1.579,0,0,0-.171.017.745.745,0,0,0-.151.034A.98.98,0,0,0,4.318.1a.751.751,0,0,0-.345.364L3.931.572l-.006.1a.775.775,0,0,0,.007.158c0,.026.01.052.017.077a.706.706,0,0,0,.066.156.765.765,0,0,0,.086.113L3.959,3.3l-.13,1.945L3.758,6.3s-.028,3.752.011,3.6a5.146,5.146,0,0,0,.187,1.453,1.982,1.982,0,0,0,.02.23H3.964a.189.189,0,0,0-.026.053,2.539,2.539,0,0,0-.121.605.863.863,0,0,0-.516.351.114.114,0,0,0-.039.085L3.114,14.89l-.065.967-.07,1.059s-.028,3.752.011,3.6a9.168,9.168,0,0,0,.1,1.134c-.007.013-.015.028-.018.034a2.1,2.1,0,0,0-.14.876c-.076.036-.152.074-.226.116a4.49,4.49,0,0,0-.936.7,5.14,5.14,0,0,0-.713.884,6.956,6.956,0,0,0-.861,2l-.08.336a2.736,2.736,0,0,0-.054.3L.018,27.2,0,27.513a1.477,1.477,0,0,0,0,.187c.014.12.017.291.057.495a3.581,3.581,0,0,0,.549,1.4,3.627,3.627,0,0,0,1.01,1,1.972,1.972,0,0,0,.476.269A2.605,2.605,0,0,0,3.65,31.2a.061.061,0,0,0,.03-.084.849.849,0,0,0,.483-.3.124.124,0,0,0,.046-.086l.074-.545.036-.235.05-.272.11-.545-.553-.2a1.261,1.261,0,0,1-.269-.116l-.077-.049a1.81,1.81,0,0,1-.291-.271,2.456,2.456,0,0,1-.49-.938,1.964,1.964,0,0,1-.072-.5l.013-.275.041-.263A1.906,1.906,0,0,1,4.1,25.089a3.014,3.014,0,0,1,1.1-.153,2.284,2.284,0,0,1,1,.253,1.624,1.624,0,0,1,.653.7,1.978,1.978,0,0,1,.213,1,2.233,2.233,0,0,1-.919,1.8l-.05.04-.014.011-.037.019-.073.039-.293.154-.294.155-.074.039c-.01.007-.027.011-.033.021l.008.042.031.167c.041.219.082.444.13.661l.1.443c.11.424.215.882.313,1.342l.075.342c0,.022.011.017.024.007L6,32.144l.073-.041.145-.081c.193-.109.389-.214.578-.327l.571-.336c.047-.029.1-.059.141-.093l.121-.086.153-.109a6.973,6.973,0,0,0,.58-.495,5.017,5.017,0,0,0,.953-1.244,4.548,4.548,0,0,0,.413-3.1,5.048,5.048,0,0,0-2.317-3.4c.188-.149.206-.357-.223-.59A3.4,3.4,0,0,0,6.7,22c.114-.019.264-.423.452-1.438.3-1.41.57-3.431.57-3.431L7.808,15.9l.05-.688L8.007,13a.364.364,0,0,0-.047-.108,1.213,1.213,0,0,0-.314-.317c.021-.122-.049-.262-.281-.412l-.017-.012a5.3,5.3,0,0,0,.835-.123c.033-.009.062-.02.093-.032l-.206,3.08L8,16.131s-.028,3.752.011,3.6c.045,1.157.19,2,.456,1.25a.524.524,0,0,0-.021.149.832.832,0,0,0,.278.556.119.119,0,0,0,.083.05,18.4,18.4,0,0,0,2.275.3c.557.042,1.105.071,1.649.1a1.56,1.56,0,0,0-.172.607,1.058,1.058,0,0,0-.427.146c-.033.018-.033.023-.035.038,0,.079-.233,5.667-.233,5.667s.152,1.71.184,1.64a2.41,2.41,0,0,0,.122.446,1.429,1.429,0,0,0,0,1.079c.009.023.014.029.02.032a1.563,1.563,0,0,0-.044.358.525.525,0,0,0-.45-.039c-.039.011-.04.016-.046.032a10.835,10.835,0,0,0-.257,1.777c-.079.819-.137,1.625-.137,1.625a8.15,8.15,0,0,0,.183.959c0,.01.008.018.011.028a12.3,12.3,0,0,0-1.438-.02,4.323,4.323,0,0,0-1.457.319,2.878,2.878,0,0,0-.367.2l-.181.123-.173.159a2.4,2.4,0,0,0-.491.71,3.153,3.153,0,0,0-.276,1.565,2.659,2.659,0,0,0,.595,1.547,2.1,2.1,0,0,0,.641.512,2.239,2.239,0,0,0,.754.2,9.056,9.056,0,0,0,1.193.016.347.347,0,0,0,.1-.056,1.022,1.022,0,0,0,.367-.6.646.646,0,0,0,.214.084c.227.057.61.113,1.195.223.689.143,1.525.337,2.222.454a11.056,11.056,0,0,0,1.239.154c.233,0,.466-.009.7-.027l.345-.03.177-.022.089-.011.161-.026a3.325,3.325,0,0,0,1.461-.567A2.053,2.053,0,0,0,18.934,41l.024.056a2.725,2.725,0,0,0,.265.379,2.947,2.947,0,0,0,.317.285,3.8,3.8,0,0,0,1.21.566c.391.115.772.193,1.135.266A.347.347,0,0,0,22,42.516a.831.831,0,0,0,.5-.585.685.685,0,0,0,.212.064c.228.035.61.076,1.193.169.685.125,1.521.322,2.225.428a10.544,10.544,0,0,0,1.257.121c.236-.01.472-.028.712-.062.119-.011.238-.038.358-.06l.179-.035c.03,0,.059-.013.088-.021l.149-.041a2.81,2.81,0,0,0,1.341-.709,2.236,2.236,0,0,0,.659-1.517,2.68,2.68,0,0,0-.105-.8,2.834,2.834,0,0,0-.317-.713,2.4,2.4,0,0,0-1.25-1,4.941,4.941,0,0,0-1.351-.214c-.2-.012-.4-.028-.6-.046a.672.672,0,0,0,.232-.319,3.473,3.473,0,0,0,.268-.842s-.018-.18-.046-.451-.063-.622-.087-.969a9.372,9.372,0,0,1-.024-.938c.007-.251.026-.415.028-.424a.223.223,0,0,0-.052-.027,2.5,2.5,0,0,0-.919-.169.916.916,0,0,0-.388-.272,7.916,7.916,0,0,0-1-.441l-.591-.073c-.358-.045-.842-.107-1.341-.15a10.8,10.8,0,0,0-1.418-.042l-.138.007c-.011-.073-.021-.119-.029-.11,0-.017-.009-.034-.013-.051l4.059.273s1.332-.134,1.278-.167c.538-.123.9-.4.066-.736a7.892,7.892,0,0,0-1.193-.422l-3.809-.261.379-5.674s-.064-1.168-.107-1.6l3.881.26s.432-.046.786-.091c.008.157.016.388.017.673,0,.524-.03,1.225-.081,1.935s-.109,1.429-.138,1.976-.035.916-.035.916.011.111.03.279.055.389.087.61a4.2,4.2,0,0,0,.19.826c.111.352.277.625.408.662s.247-.158.328-.713c.069-.329.134-.718.191-1.026l.094-.534s0-.348.033-.881.087-1.249.139-1.982.092-1.483.089-2.059-.03-.974-.032-.995a.079.079,0,0,0-.023-.024l.988.03c.912.029,1.806.067,1.731.043a8.654,8.654,0,0,0,1.178-.052c.079.313.192.345.34-.1a.059.059,0,0,0,.02-.059,9.861,9.861,0,0,0,.239-1.042c.11-.523.217-1.129.308-1.686-.014,1-.043,3.242-.011,3.123.01.326.029.624.056.873a4.353,4.353,0,0,0-2.543,2.722,4.766,4.766,0,0,0-.17.64l-.046.271c-.005.03-.009.061-.012.091l-.033.365-.007.365.017.364s.008.066.029.181a4.458,4.458,0,0,0,.1.467,5.512,5.512,0,0,0,.522,1.32,4.515,4.515,0,0,0,1.235,1.455,2.345,2.345,0,0,0,1.488.594c.056-.022.055-.071,0-.147a.759.759,0,0,0,.7-.349.112.112,0,0,0,.038-.085l.1-1.527.009-.139c0-.021.008-.05,0-.066l-.065-.02-.262-.082c-.169-.058-.354-.1-.529-.165l-.126-.05a.643.643,0,0,1-.088-.046.891.891,0,0,1-.161-.1.982.982,0,0,1-.405-.551,1.509,1.509,0,0,1,.005-.787A2.968,2.968,0,0,1,34.019,27.8a2.2,2.2,0,0,1,1.633-.524,1.068,1.068,0,0,1,.211.038,1.127,1.127,0,0,1,.2.058,1.336,1.336,0,0,1,.348.183,2.079,2.079,0,0,1,.578.636,1.846,1.846,0,0,1,.2,1.605.47.47,0,0,1-.137.223,1.274,1.274,0,0,1-.326.178,2.068,2.068,0,0,0-.7.446,2.149,2.149,0,0,0-.273.379,1.647,1.647,0,0,0-.16.455,2.473,2.473,0,0,0-.014.787,5.222,5.222,0,0,0,.235.957l.183.519.093.261.012.033c0,.012.006.024.02.014l.064-.026.128-.051.513-.205c.17-.069.328-.156.493-.233a3.794,3.794,0,0,0,.691-.4,4.8,4.8,0,0,0,.508-.439,4.307,4.307,0,0,0,.8-1.076,4.519,4.519,0,0,0,.456-1.251,5.037,5.037,0,0,0,.109-1.31A5.467,5.467,0,0,0,39.162,26.558Z" transform="translate(0 16.918)" fill="#1f2327"/>
      </g>
      <g id="Group_841" data-name="Group 841" transform="translate(983.404 2093.491) rotate(-4)">
        <path id="Path_2503-2" data-name="Path 2503" d="M1.3,12.1a.108.108,0,0,0,.035-.085q.033-1.1.107-2.192Q1.561,8,1.77,6.177l.124-1.046.127-1.843c.067-.912.14-1.807.114-1.732.071-1.5-.07-2.509-.722-.157C1.206,2.09,1,2.936.845,3.613S.6,4.792.6,4.792L.449,6.027Q.237,7.877.11,9.739.035,10.855,0,11.977a.385.385,0,0,0,.051.108C.6,12.807,1.1,12.386,1.3,12.1Z" transform="translate(10.818 3.368)" fill="#1f2327"/>
        <path id="Path_2504-2" data-name="Path 2504" d="M14,3.532q-.047-.5-.072-1.021L13.9,1.792l.165.02.01.14s.086.382.178.741a4.611,4.611,0,0,0,.193.675c.025.072.051.142.079.205ZM5.248,2.856a1.819,1.819,0,0,1-.019-.2c-.007-.136-.006-.282,0-.432a2.849,2.849,0,0,0,.092.54c.008.035.017.07.027.1ZM18.1,4.189c-1.013-.225-2.34-.44-3-.542a2.617,2.617,0,0,0,.091-.313,7.1,7.1,0,0,0,.169-.935l.053-.479-.013-.186-.021-.369L15.343.6,14.569.53,13.977.459a3.842,3.842,0,0,0-.74-.018l-.7.072.033,1.352.025.706q.019.425.054.856L6.013,2.916c.013-.03.027-.059.04-.093a5.388,5.388,0,0,0,.289-.8c.07-.248.107-.436.107-.436.006-.3,0-.6-.007-.908L6.425.238,6.031.09A1.383,1.383,0,0,0,5.484,0a2.8,2.8,0,0,0-.379.035c-.04,0-.166.03-.251.047L4.576.149,4.025.291l-.086,1.1c-.017.211-.032.426-.043.646s-.012.446,0,.687c0,.008,0,.018,0,.027l-1.162-.09L.531,2.492a.344.344,0,0,0-.108.046C-.313,3.06.077,3.577.358,3.788a.107.107,0,0,0,.084.039L2.648,4l10.713.823,1.055.081s3.74.064,3.586.023C19.5,4.879,20.486,4.659,18.1,4.189Z" transform="translate(13.049 0)" fill="#1f2327"/>
        <path id="Path_2505-2" data-name="Path 2505" d="M20.992,9.374c.063-.694.108-1.195.108-1.195l.02-1.23c.029-1.411.089-2.813.252-4.189A19.742,19.742,0,0,1,21.726.641a.37.37,0,0,0-.03-.11c-.408-.8-.966-.528-1.22-.262a.119.119,0,0,0-.052.081A20.936,20.936,0,0,0,20.049,2.6c-.171,1.446-.23,2.889-.258,4.319l-.017,1.066s.047.934.093,1.854.082,1.807.1,1.729c.028.384.061.733.1,1-.2-.019-.44-.036-.731-.048-1.429-.1-3.446-.174-3.446-.174l-1.224.028a97.551,97.551,0,0,1-11.91-.537c-.728-.081-1.455-.164-2.18-.262a.365.365,0,0,0-.11.041C-.3,12.1.049,12.636.32,12.861A.112.112,0,0,0,.4,12.9c.736.1,1.474.183,2.212.265a98.939,98.939,0,0,0,12.073.541l1.066-.023.584-.055c.35-.032.813-.078,1.271-.132.916-.1,1.809-.231,1.73-.236.332-.06.633-.125.878-.191.036.038.077.026.122-.034.513-.151.687-.3.163-.407a9.183,9.183,0,0,0,.2-.988C20.825,10.93,20.926,10.061,20.992,9.374Z" transform="translate(11.744 4.796)" fill="#1f2327"/>
        <path id="Path_2506-2" data-name="Path 2506" d="M2.312,1.4a.988.988,0,0,1,.652-.01.241.241,0,0,0,.079-.033c.316-.161.577-.311.641-.527A.685.685,0,0,0,3.493.189a.19.19,0,0,0-.1-.069A2.324,2.324,0,0,0,1.874.135,2.774,2.774,0,0,0,.69.944,2.661,2.661,0,0,0,0,2.712a2.354,2.354,0,0,0,.058.507,3.748,3.748,0,0,0,.164.469,2.929,2.929,0,0,0,.517.785,2.347,2.347,0,0,0,1.28.69,2.591,2.591,0,0,0,.771-.014,2.967,2.967,0,0,0,1.419-.662,2.69,2.69,0,0,0,.549-.632,2.1,2.1,0,0,0,.265-.709,1.229,1.229,0,0,0-.047-.672,1.666,1.666,0,0,0-.729-.94.964.964,0,0,0-.543-.186c-.089.02-.069.112.069.295.037.043.075.1.118.159a1.767,1.767,0,0,1,.141.207,1.3,1.3,0,0,1,.216.577c.049.532-.52,1.037-1.031,1.2A1.693,1.693,0,0,1,2.6,3.89a1.2,1.2,0,0,1-.229-.024A1.013,1.013,0,0,1,1.7,3.553a1.608,1.608,0,0,1-.272-.426c-.026-.076-.056-.145-.076-.216A1.039,1.039,0,0,1,1.334,2.7a1.333,1.333,0,0,1,.357-.872A1.442,1.442,0,0,1,2.312,1.4Z" transform="translate(14.777 5.143)" fill="#1f2327"/>
        <path id="Path_2507-2" data-name="Path 2507" d="M5.024,2.322c-.044-.111-.068-.161-.063-.135a1.919,1.919,0,0,0-.818-.813A1.026,1.026,0,0,0,3.6,1.207c-.089.021-.07.112.073.295l.286.357a1.869,1.869,0,0,1,.3.571.729.729,0,0,1,0,.382.736.736,0,0,1-.184.328,1.693,1.693,0,0,1-.7.448,2.316,2.316,0,0,1-.653.129,1.439,1.439,0,0,1-.252-.007,1.182,1.182,0,0,1-.741-.219,1.282,1.282,0,0,1-.393-.95,1.366,1.366,0,0,1,.088-.516,1.009,1.009,0,0,1,.287-.373,2.082,2.082,0,0,1,1.582-.269.292.292,0,0,0,.094-.037c.34-.214.52-.427.531-.653A.736.736,0,0,0,3.625.12a.151.151,0,0,0-.1-.053A3.9,3.9,0,0,0,2.2.048,2.91,2.91,0,0,0,.886.6a2.352,2.352,0,0,0-.7.909A2.691,2.691,0,0,0,0,2.59,3.067,3.067,0,0,0,.22,3.618,2.266,2.266,0,0,0,.9,4.537a2.451,2.451,0,0,0,1.346.5,2.8,2.8,0,0,0,.73-.07,3.27,3.27,0,0,0,1.386-.674A1.942,1.942,0,0,0,5.12,2.854,1.368,1.368,0,0,0,5.024,2.322Z" transform="translate(24.551 5.841)" fill="#1f2327"/>
        <path id="Path_2508-2" data-name="Path 2508" d="M12.717,2.52c-.161-.036-.337-.074-.548-.113-1.406-.3-3.422-.572-3.422-.572l-.136-.009c.394,0,3.694.025,3.55-.012.2-.007.384-.018.556-.032,0,.114-.005.238,0,.366S12.715,2.409,12.717,2.52ZM14.065,1.5a.362.362,0,0,0-.053-.014c-.155-.03-.3-.05-.442-.065a5.775,5.775,0,0,0-1.312-.343C10.852.781,8.836.507,8.836.507L7.606.424,3.576.149,1.369,0a.352.352,0,0,0-.107.047A.913.913,0,0,0,.85.586C-.883.568.663.592.122.585V.593h0v0C.121.6.12.61.12.616v0c0,.025,0,.05-.006.086C.108.8.1.918.091,1.039l-.032.48s.2.306.233.3a.632.632,0,0,0,.252.124A.774.774,0,0,0,.9,2.61a.11.11,0,0,0,.084.039L3.189,2.8l4.239.285,1.055.071s3.742.028,3.588-.011c.3-.012.57-.03.8-.055.053.08.1.148.113.14a.5.5,0,0,0,.737-.02,1.615,1.615,0,0,0,.328-.386s-.01-.336-.009-.664c0-.164,0-.326.009-.448S14.065,1.506,14.065,1.5Z" transform="translate(15.454 12.315)" fill="#1f2327"/>
        <path id="Path_2509-2" data-name="Path 2509" d="M14.67,5.505a1.276,1.276,0,0,0-.24-.547,1.454,1.454,0,0,0-.579-.47,1.54,1.54,0,0,0-.693-.14,2.607,2.607,0,0,0-1.072.286,7.468,7.468,0,0,0-1.515,1.03c-.448.377-.863.776-1.263,1.18l-.583.6c-.051.058-.195.178-.293.281l-.3.3a3.649,3.649,0,0,1-.6.514.574.574,0,0,1-.225.083,2.251,2.251,0,0,1-.354.031c-.063,0-.142,0-.193,0l-.041,0-.081,0-.166-.013c-.225-.021-.457-.052-.7-.086L5.184,8.5c-.4-.023-.838-.02-1.3-.029-.915-.012-1.812-.019-1.735,0a8.36,8.36,0,0,0-1.185.1,1.033,1.033,0,0,0,.344-.337.1.1,0,0,0,.03-.083,18.75,18.75,0,0,1,.1-2.138l.12-1.2c.018-.2.048-.4.056-.647l.015-.62A10.448,10.448,0,0,1,1.7,2.4a2.156,2.156,0,0,1,.254-.859c.068-.093.086-.105.142-.127a1.112,1.112,0,0,1,.368-.039c.18,0,.4.01.657-.009.2-.015.374-.026.564-.029a17.45,17.45,0,0,1,2.327.176c.8.106,1.659.164,2.446.236l2.41.213,4.82.426.149.013v.013a7.9,7.9,0,0,1,.051,1.114,17.047,17.047,0,0,1-.232,2.327c-.122.789-.268,1.588-.386,2.408l-.08.621-.019.184-.181-.029c-.425-.063-.845-.1-1.263-.128-.209-.012-.418-.023-.626-.029l-.579-.011h0l.1-.087c.307-.278.613-.566.91-.881a6.13,6.13,0,0,0,.84-1.075,2.4,2.4,0,0,0,.308-.78A1.515,1.515,0,0,0,14.67,5.505Zm-1.456.651a4.888,4.888,0,0,1-.658.832c-.26.275-.543.543-.836.808l-.81.718c-.154.134-.3.266-.437.4-.122.128-.243.259-.338.376l-.584.7-.157.189-.1.125-.017.021-.009.01a.114.114,0,0,0,.018,0l.636-.033c.862-.047,1.7-.093,2.5-.091l.339,0,.294.007.585.026c.389.024.774.06,1.149.116l.14.022.127.021.15.029.6.141.3.072.15.036.075.018.038.009c.01,0,0-.021.007-.031l.042-.609.042-.611.044-.42.075-.585c.113-.784.258-1.58.384-2.393a18.314,18.314,0,0,0,.248-2.507,9.307,9.307,0,0,0-.062-1.312c-.02-.175-.064-.391-.1-.585l-.051-.3-.026-.149-.006-.038c0-.009-.022,0-.033-.007l-.075-.007-1.055-.1L10.968.631,8.547.417C7.724.341,6.969.292,6.165.186A18.79,18.79,0,0,0,3.659,0c-.214,0-.444.017-.647.033-.149.012-.331.006-.555,0a2.343,2.343,0,0,0-.827.121A1.6,1.6,0,0,0,.85.786,3.334,3.334,0,0,0,.374,2.222,11.649,11.649,0,0,0,.291,3.509l-.014.6c0,.158-.032.365-.05.564L.1,5.886A20.039,20.039,0,0,0,0,8.177a.374.374,0,0,0,.057.108.813.813,0,0,0,.626.36c-.227.12.076.3,1.365.556.7.157,1.557.31,2.237.423l.467.077.342.065.324.067c.269.038.548.078.84.108.145.015.3.027.448.034a4.218,4.218,0,0,0,.631-.017A2.439,2.439,0,0,0,7.689,9.9a1.747,1.747,0,0,0,.386-.14,4.15,4.15,0,0,0,1-.791l.292-.292c.095-.1.169-.153.309-.3l.58-.6c.382-.387.771-.758,1.174-1.1a6.211,6.211,0,0,1,1.231-.846,1.349,1.349,0,0,1,.522-.156A.208.208,0,0,1,13.3,5.7c.013,0,.022.017.037.02s.033.025.026.028.008-.02,0,.064A1.15,1.15,0,0,1,13.214,6.157Z" transform="translate(12.282 23.82)" fill="#1f2327"/>
        <path id="Path_2510-2" data-name="Path 2510" d="M38.259,30.749a3.192,3.192,0,0,1-1.247,1.442.484.484,0,0,1-.075.049l-.013.007h0v0l-.013-.074-.016-.111a1.464,1.464,0,0,1-.008-.2.471.471,0,0,1,.049-.225c.066-.09.042-.073.164-.142a6.146,6.146,0,0,0,.571-.281,1.738,1.738,0,0,0,.634-.66,2.493,2.493,0,0,0,.121-.27A3.34,3.34,0,0,1,38.259,30.749Zm-1.588-4.576c-.119-.044-.244-.094-.362-.126s-.232-.06-.352-.079a3.247,3.247,0,0,0-1.448.09,3.828,3.828,0,0,0-1.25.642,4.256,4.256,0,0,0-1.522,2.238c0-.012,0-.024,0-.037a2.273,2.273,0,0,1,.015-.28l.013-.139a.619.619,0,0,1,.009-.069l.038-.218a3.283,3.283,0,0,1,.885-1.7,3.216,3.216,0,0,1,.774-.556,3.993,3.993,0,0,1,.932-.313,3.56,3.56,0,0,1,1.933.135,3.272,3.272,0,0,1,1.5,1.184,3.887,3.887,0,0,1,.461.884c-.024-.051-.045-.1-.071-.155a3.5,3.5,0,0,0-.908-1.111A3.087,3.087,0,0,0,36.671,26.173Zm-3.557,5.853.131.052h0l-.009.133-.034.5c-.112-.11-.232-.232-.365-.384a5.354,5.354,0,0,1-.573-.88c-.006-.012-.009-.024-.015-.036a2.339,2.339,0,0,0,.393.345,2.052,2.052,0,0,0,.31.189A1.777,1.777,0,0,0,33.114,32.026Zm.829-20.753a6.081,6.081,0,0,0,.02.726,4.265,4.265,0,0,0,.19,1.509.06.06,0,0,0,.093.01q-.01.089-.012.171l-.026,0a.213.213,0,0,0-.028.053,2.272,2.272,0,0,0-.115.461.785.785,0,0,0-.331.189Zm-12.3,12.136a14.266,14.266,0,0,0-.451,1.653s-.41,6.044-.415,6.128c0,.015.04.047.05.054a1.27,1.27,0,0,0,.461.2,1.514,1.514,0,0,0,0,.4.926.926,0,0,0-.269.3,3.976,3.976,0,0,0-.446.934s-.014.218-.036.546-.038.745-.059,1.171-.056.829-.1,1.132-.077.5-.08.513a.215.215,0,0,0,.049.036,2.122,2.122,0,0,0,.664.228,1.525,1.525,0,0,0-.1.863c-.149.043-.3.09-.449.149a2.565,2.565,0,0,0-1.249.962c-.015.023-.023.041-.036.062a3.008,3.008,0,0,0-.128-.42,2.259,2.259,0,0,0-.481-.751,2.093,2.093,0,0,0-.39-.309c.285-.093.452-.231.3-.4.024-.006.048-.013.066-.02s.034-.013.035-.022c0-.05.236-3.53.236-3.53a9.355,9.355,0,0,0-.183-1.032c-.077-.257-.2-.463-.364-.452a.361.361,0,0,0,.2-.185c.121.03.261-.146.41-.677a11.933,11.933,0,0,0,.359-1.632s0-.367,0-.918.012-1.28.042-2,.087-1.444.155-1.982.135-.9.139-.915a.183.183,0,0,0-.045-.057,1.342,1.342,0,0,0-.5-.268c-.021-.107-.166-.23-.5-.365-.105-.05-.221-.1-.337-.141.48.046.96.092,1.439.134l2.163.179A2.973,2.973,0,0,0,21.646,23.409ZM21.81,34.9c.021-.421.041-.841.056-1.156,0-.008,0-.013,0-.021l.1-.007a9.357,9.357,0,0,1,1.225.035c.455.038.918.1,1.27.14l.59.072.589-.049a2.388,2.388,0,0,0,.558-.09l.068-.02c0,.043,0,.084-.005.133-.01.3,0,.681.026,1.053s.063.735.092,1,.046.442.046.442l.154.407a1.586,1.586,0,0,0,.167.378c.008.015.018.028.027.042l-.015-.006a7.907,7.907,0,0,0-1.194-.422l-3.925-.268c.017-.1.042-.257.066-.456C21.752,35.767,21.788,35.326,21.81,34.9Zm5.774,3.965a6.254,6.254,0,0,1,1.042.112,1.05,1.05,0,0,1,.618.384,1.431,1.431,0,0,1,.294.719.978.978,0,0,1-.776,1.063c-.139.042-.368.107-.422.117l-.276.053a5.471,5.471,0,0,1-.569.062s-.209.032-.534.05-.768.025-1.22.012a15.08,15.08,0,0,0-1.756-.007,3.078,3.078,0,0,0-1.481.362.871.871,0,0,0-.276-.5.11.11,0,0,0-.079-.049c-.359-.072-.7-.144-1.018-.237a2.558,2.558,0,0,1-.791-.354.5.5,0,0,1-.253-.458,1.864,1.864,0,0,1,.251-.768,1.221,1.221,0,0,1,.588-.442,4.442,4.442,0,0,1,.974-.257,12.6,12.6,0,0,1,2.212-.11c.757.018,1.52.076,2.291.147C26.79,38.792,27.174,38.832,27.584,38.861ZM17.909,32.2c-.014.023-.026.048-.04.072-.037-.019-.075-.039-.118-.058-.129-.07-.274-.135-.416-.2a3.136,3.136,0,0,0,.592-.091,2.01,2.01,0,0,0,.226-.065A.95.95,0,0,0,17.909,32.2Zm-.1,8.083a1.374,1.374,0,0,1-.732.361,4.126,4.126,0,0,1-.45.081c-.095.013-.192.023-.293.032-.2.016-.393.031-.592.033,0,0-.214.021-.545.031s-.778,0-1.231-.013a16.387,16.387,0,0,0-1.752-.026,3.191,3.191,0,0,0-1.5.307c0-.016,0-.032,0-.047a.81.81,0,0,0-.4-.486.119.119,0,0,0-.091-.031A8.124,8.124,0,0,1,9.2,40.515a1.02,1.02,0,0,1-.311-.07.776.776,0,0,1-.214-.179,1.7,1.7,0,0,1-.137-1.652,1.208,1.208,0,0,1,.211-.335.986.986,0,0,1,.306-.208,2.678,2.678,0,0,1,.963-.222c.734-.059,1.538.046,2.42.063.825.012,1.644.026,2.453.07q.607.033,1.2.093a5.779,5.779,0,0,1,1.087.187.894.894,0,0,1,.58.423,1.662,1.662,0,0,1,.143.4,5.034,5.034,0,0,1,.074.511A.9.9,0,0,1,17.811,40.281Zm-5.234-4.592s.06-.811.139-1.62c.039-.4.084-.807.126-1.1.013-.085.024-.155.036-.217l.066,0,1.428.116,2.064.2s.838-.063,1.131-.106c-.039.109-.061.182-.061.182l-.217,3.174c-.319-.1-.577-.163-.577-.163l-4.2-.288C12.551,35.764,12.577,35.688,12.577,35.688Zm.209-5.405a12.53,12.53,0,0,0,.4-1.557s.164-3.9.223-5.272l3.761.252s.667-.065,1.048-.115c-.026.166-.058.384-.09.642-.073.57-.133,1.32-.162,2.062s-.039,1.476-.042,2.022,0,.908,0,.908.054.437.109.869a5.9,5.9,0,0,0,.123.812,2.746,2.746,0,0,0,.112.416,1.925,1.925,0,0,0-.276-.134,8.035,8.035,0,0,0-1.207-.423l-4.067-.278C12.741,30.426,12.763,30.359,12.786,30.283ZM8.321,11.319c-.015-.009-.023-.018-.04-.028a3.173,3.173,0,0,0-.307-.19c.065-.23.136-.556.212-1,.119-.58.239-1.262.341-1.864ZM7.7,3.541l-.148,1.8L7.467,6.4s-.015.936-.031,1.861,0,1.825.018,1.747c.015.326.04.623.071.871l-.09-.038-1.62-.2c-.409-.049-.823-.094-1.139-.122L4.4,10.495c.032-.148.065-.308.1-.5.3-1.41.57-3.431.57-3.431l.083-1.234.134-1.945.137-2.035c.249.013.5.032.758.052.544.044,1.091.1,1.639.153l.028,0ZM6.423,20.465a4.051,4.051,0,0,0,.218,1.507c-.177-.074-.312-.12-.312-.12l-2.846-.2a9.674,9.674,0,0,0,.239-1.045c.3-1.409.57-3.431.57-3.431l.083-1.234.068-.967.136-2.014,1.947.131.138-.03L6.527,15.12l-.046.687-.071,1.059S6.383,20.619,6.423,20.465Zm.038,3.38a1.711,1.711,0,0,0-.406-.13l-.413-.083c-.135-.017-.264-.021-.4-.031a4.333,4.333,0,0,0-1.581.225,3.564,3.564,0,0,0-.972.517,3.359,3.359,0,0,1,.433-.366,2.964,2.964,0,0,1,1.589-.494,3.626,3.626,0,0,1,1.694.328c.032.014.059.034.091.049ZM2.81,29.86l.157.1L2.962,30l-.072.529c-.114-.078-.234-.164-.368-.266a4.164,4.164,0,0,1-.712-.745,2.559,2.559,0,0,1-.4-.843,2.774,2.774,0,0,1-.1-.686c.007-.176.011-.281.011-.281a4.357,4.357,0,0,1,.072-.741l0,.1a3.253,3.253,0,0,0,.12.849,3.789,3.789,0,0,0,.766,1.461A3.2,3.2,0,0,0,2.81,29.86ZM8.4,26.918a3.565,3.565,0,0,0-.067-.8,3.783,3.783,0,0,1,.092.381A3.2,3.2,0,0,1,8.142,28.7a3.7,3.7,0,0,1-.7.912,5.648,5.648,0,0,1-.457.39l-.145.1s0,.006,0-.01l-.055-.226s0,0,.008,0l.006,0h0l.021-.015.086-.063A3.566,3.566,0,0,0,8.4,26.918Zm30.765-.36a5.272,5.272,0,0,0-.808-1.048,4.577,4.577,0,0,0-.483-.406c-.023-.1-.116-.212-.318-.337a4.31,4.31,0,0,0-.834-.434s-.787-.085-1.585-.151c-.4-.033-.8-.061-1.113-.076l-.184-.009c.018-.084.035-.164.054-.258.31-1.406.6-3.429.6-3.429l.094-1.235.172-2.233c.042-.652.058-1.283.119-1.87l2.234.15.133-.024L37.1,17.368l-.058.874L36.967,19.3s-.028,3.752.011,3.6c.058,1.508.288,2.493.733.1.3-1.41.57-3.431.57-3.431l.083-1.234.062-.875.149-2.212a.366.366,0,0,0-.047-.108,1.3,1.3,0,0,0-.256-.275c.156-.148.157-.346-.224-.567.045-.013.07-.023.063-.029.365-.135.612-.415.06-.737a4.012,4.012,0,0,0-.793-.4l-2.878-.2c.06-.214.125-.484.194-.835.312-1.417.52-3.455.52-3.455l.044-1.238.09-2.294q.042-.934.106-1.86l2.392.161s.195-.036.4-.077l-.142,2.117-.12,1.806-.071,1.058s-.028,3.752.011,3.6c.058,1.508.288,2.493.733.1.3-1.41.57-3.431.57-3.431l.083-1.234.125-1.8.149-2.213a.378.378,0,0,0-.047-.108,1.018,1.018,0,0,0-.449-.387c-.011-.107-.1-.227-.318-.354a4,4,0,0,0-.792-.395L35,1.881a.186.186,0,0,0-.028.052,2.238,2.238,0,0,0-.112.453.761.761,0,0,0-.669.346.115.115,0,0,0-.04.086c-.017.223-.03.446-.044.669a.673.673,0,0,0-.957.235.114.114,0,0,0-.039.085L32.96,6.021l-.77,11.516-.071,1.058s-.028,3.752.011,3.6c.013.335.035.642.065.894-.226-.079-.546-.168-.981-.272-1.395-.363-3.412-.682-3.412-.682l-7.891-.653c-1.45-.127-2.9-.267-4.34-.432l-1.09-.127c-.384-.039-.75-.065-1.121-.09-.738-.047-1.464-.079-2.177-.134a16.988,16.988,0,0,1-2.109-.274.351.351,0,0,0-.108.034.969.969,0,0,0-.484.477,8.842,8.842,0,0,0,.261-1.11c.3-1.41.57-3.431.57-3.431L9.4,15.162l.723-10.747.127-1.882,1.6.091c1.446.078,2.888.147,4.318.255.712.054,1.435.12,2.128.2.718.1,1.447.185,2.176.254,1.456.141,2.912.231,4.366.3l2.178.081,1.437.041s3.74-.129,3.584-.158c1.5-.111,2.477-.372.069-.738-1.419-.246-3.443-.432-3.443-.432l-1.346-.038-2.2-.079c-1.463-.062-2.922-.151-4.372-.288-.725-.066-1.444-.153-2.171-.25-.752-.091-1.489-.157-2.231-.216-1.482-.114-2.956-.185-4.424-.263l-2.2-.127a.36.36,0,0,0-.107.048.861.861,0,0,0-.419.6l-.022.017.03-.4a.361.361,0,0,0-.047-.108c-.012-.017-.024-.031-.036-.047a.342.342,0,0,0,.135-.15C9.292,1,9.211.849,8.9.673A4.916,4.916,0,0,0,8,.238C7.444.18,6.882.124,6.316.077,6.032.053,5.748.031,5.456.016,5.31.008,5.163,0,5.007,0c-.078,0-.16,0-.252,0a1.579,1.579,0,0,0-.171.017.745.745,0,0,0-.151.034A.98.98,0,0,0,4.318.1a.751.751,0,0,0-.345.364L3.931.572l-.006.1a.775.775,0,0,0,.007.158c0,.026.01.052.017.077a.706.706,0,0,0,.066.156.765.765,0,0,0,.086.113L3.959,3.3l-.13,1.945L3.758,6.3s-.028,3.752.011,3.6a5.146,5.146,0,0,0,.187,1.453,1.982,1.982,0,0,0,.02.23H3.964a.189.189,0,0,0-.026.053,2.539,2.539,0,0,0-.121.605.863.863,0,0,0-.516.351.114.114,0,0,0-.039.085L3.114,14.89l-.065.967-.07,1.059s-.028,3.752.011,3.6a9.168,9.168,0,0,0,.1,1.134c-.007.013-.015.028-.018.034a2.1,2.1,0,0,0-.14.876c-.076.036-.152.074-.226.116a4.49,4.49,0,0,0-.936.7,5.14,5.14,0,0,0-.713.884,6.956,6.956,0,0,0-.861,2l-.08.336a2.736,2.736,0,0,0-.054.3L.018,27.2,0,27.513a1.477,1.477,0,0,0,0,.187c.014.12.017.291.057.495a3.581,3.581,0,0,0,.549,1.4,3.627,3.627,0,0,0,1.01,1,1.972,1.972,0,0,0,.476.269A2.605,2.605,0,0,0,3.65,31.2a.061.061,0,0,0,.03-.084.849.849,0,0,0,.483-.3.124.124,0,0,0,.046-.086l.074-.545.036-.235.05-.272.11-.545-.553-.2a1.261,1.261,0,0,1-.269-.116l-.077-.049a1.81,1.81,0,0,1-.291-.271,2.456,2.456,0,0,1-.49-.938,1.964,1.964,0,0,1-.072-.5l.013-.275.041-.263A1.906,1.906,0,0,1,4.1,25.089a3.014,3.014,0,0,1,1.1-.153,2.284,2.284,0,0,1,1,.253,1.624,1.624,0,0,1,.653.7,1.978,1.978,0,0,1,.213,1,2.233,2.233,0,0,1-.919,1.8l-.05.04-.014.011-.037.019-.073.039-.293.154-.294.155-.074.039c-.01.007-.027.011-.033.021l.008.042.031.167c.041.219.082.444.13.661l.1.443c.11.424.215.882.313,1.342l.075.342c0,.022.011.017.024.007L6,32.144l.073-.041.145-.081c.193-.109.389-.214.578-.327l.571-.336c.047-.029.1-.059.141-.093l.121-.086.153-.109a6.973,6.973,0,0,0,.58-.495,5.017,5.017,0,0,0,.953-1.244,4.548,4.548,0,0,0,.413-3.1,5.048,5.048,0,0,0-2.317-3.4c.188-.149.206-.357-.223-.59A3.4,3.4,0,0,0,6.7,22c.114-.019.264-.423.452-1.438.3-1.41.57-3.431.57-3.431L7.808,15.9l.05-.688L8.007,13a.364.364,0,0,0-.047-.108,1.213,1.213,0,0,0-.314-.317c.021-.122-.049-.262-.281-.412l-.017-.012a5.3,5.3,0,0,0,.835-.123c.033-.009.062-.02.093-.032l-.206,3.08L8,16.131s-.028,3.752.011,3.6c.045,1.157.19,2,.456,1.25a.524.524,0,0,0-.021.149.832.832,0,0,0,.278.556.119.119,0,0,0,.083.05,18.4,18.4,0,0,0,2.275.3c.557.042,1.105.071,1.649.1a1.56,1.56,0,0,0-.172.607,1.058,1.058,0,0,0-.427.146c-.033.018-.033.023-.035.038,0,.079-.233,5.667-.233,5.667s.152,1.71.184,1.64a2.41,2.41,0,0,0,.122.446,1.429,1.429,0,0,0,0,1.079c.009.023.014.029.02.032a1.563,1.563,0,0,0-.044.358.525.525,0,0,0-.45-.039c-.039.011-.04.016-.046.032a10.835,10.835,0,0,0-.257,1.777c-.079.819-.137,1.625-.137,1.625a8.15,8.15,0,0,0,.183.959c0,.01.008.018.011.028a12.3,12.3,0,0,0-1.438-.02,4.323,4.323,0,0,0-1.457.319,2.878,2.878,0,0,0-.367.2l-.181.123-.173.159a2.4,2.4,0,0,0-.491.71,3.153,3.153,0,0,0-.276,1.565,2.659,2.659,0,0,0,.595,1.547,2.1,2.1,0,0,0,.641.512,2.239,2.239,0,0,0,.754.2,9.056,9.056,0,0,0,1.193.016.347.347,0,0,0,.1-.056,1.022,1.022,0,0,0,.367-.6.646.646,0,0,0,.214.084c.227.057.61.113,1.195.223.689.143,1.525.337,2.222.454a11.056,11.056,0,0,0,1.239.154c.233,0,.466-.009.7-.027l.345-.03.177-.022.089-.011.161-.026a3.325,3.325,0,0,0,1.461-.567A2.053,2.053,0,0,0,18.934,41l.024.056a2.725,2.725,0,0,0,.265.379,2.947,2.947,0,0,0,.317.285,3.8,3.8,0,0,0,1.21.566c.391.115.772.193,1.135.266A.347.347,0,0,0,22,42.516a.831.831,0,0,0,.5-.585.685.685,0,0,0,.212.064c.228.035.61.076,1.193.169.685.125,1.521.322,2.225.428a10.544,10.544,0,0,0,1.257.121c.236-.01.472-.028.712-.062.119-.011.238-.038.358-.06l.179-.035c.03,0,.059-.013.088-.021l.149-.041a2.81,2.81,0,0,0,1.341-.709,2.236,2.236,0,0,0,.659-1.517,2.68,2.68,0,0,0-.105-.8,2.834,2.834,0,0,0-.317-.713,2.4,2.4,0,0,0-1.25-1,4.941,4.941,0,0,0-1.351-.214c-.2-.012-.4-.028-.6-.046a.672.672,0,0,0,.232-.319,3.473,3.473,0,0,0,.268-.842s-.018-.18-.046-.451-.063-.622-.087-.969a9.372,9.372,0,0,1-.024-.938c.007-.251.026-.415.028-.424a.223.223,0,0,0-.052-.027,2.5,2.5,0,0,0-.919-.169.916.916,0,0,0-.388-.272,7.916,7.916,0,0,0-1-.441l-.591-.073c-.358-.045-.842-.107-1.341-.15a10.8,10.8,0,0,0-1.418-.042l-.138.007c-.011-.073-.021-.119-.029-.11,0-.017-.009-.034-.013-.051l4.059.273s1.332-.134,1.278-.167c.538-.123.9-.4.066-.736a7.892,7.892,0,0,0-1.193-.422l-3.809-.261.379-5.674s-.064-1.168-.107-1.6l3.881.26s.432-.046.786-.091c.008.157.016.388.017.673,0,.524-.03,1.225-.081,1.935s-.109,1.429-.138,1.976-.035.916-.035.916.011.111.03.279.055.389.087.61a4.2,4.2,0,0,0,.19.826c.111.352.277.625.408.662s.247-.158.328-.713c.069-.329.134-.718.191-1.026l.094-.534s0-.348.033-.881.087-1.249.139-1.982.092-1.483.089-2.059-.03-.974-.032-.995a.079.079,0,0,0-.023-.024l.988.03c.912.029,1.806.067,1.731.043a8.654,8.654,0,0,0,1.178-.052c.079.313.192.345.34-.1a.059.059,0,0,0,.02-.059,9.861,9.861,0,0,0,.239-1.042c.11-.523.217-1.129.308-1.686-.014,1-.043,3.242-.011,3.123.01.326.029.624.056.873a4.353,4.353,0,0,0-2.543,2.722,4.766,4.766,0,0,0-.17.64l-.046.271c-.005.03-.009.061-.012.091l-.033.365-.007.365.017.364s.008.066.029.181a4.458,4.458,0,0,0,.1.467,5.512,5.512,0,0,0,.522,1.32,4.515,4.515,0,0,0,1.235,1.455,2.345,2.345,0,0,0,1.488.594c.056-.022.055-.071,0-.147a.759.759,0,0,0,.7-.349.112.112,0,0,0,.038-.085l.1-1.527.009-.139c0-.021.008-.05,0-.066l-.065-.02-.262-.082c-.169-.058-.354-.1-.529-.165l-.126-.05a.643.643,0,0,1-.088-.046.891.891,0,0,1-.161-.1.982.982,0,0,1-.405-.551,1.509,1.509,0,0,1,.005-.787A2.968,2.968,0,0,1,34.019,27.8a2.2,2.2,0,0,1,1.633-.524,1.068,1.068,0,0,1,.211.038,1.127,1.127,0,0,1,.2.058,1.336,1.336,0,0,1,.348.183,2.079,2.079,0,0,1,.578.636,1.846,1.846,0,0,1,.2,1.605.47.47,0,0,1-.137.223,1.274,1.274,0,0,1-.326.178,2.068,2.068,0,0,0-.7.446,2.149,2.149,0,0,0-.273.379,1.647,1.647,0,0,0-.16.455,2.473,2.473,0,0,0-.014.787,5.222,5.222,0,0,0,.235.957l.183.519.093.261.012.033c0,.012.006.024.02.014l.064-.026.128-.051.513-.205c.17-.069.328-.156.493-.233a3.794,3.794,0,0,0,.691-.4,4.8,4.8,0,0,0,.508-.439,4.307,4.307,0,0,0,.8-1.076,4.519,4.519,0,0,0,.456-1.251,5.037,5.037,0,0,0,.109-1.31A5.467,5.467,0,0,0,39.162,26.558Z" transform="translate(0 16.918)" fill="#1f2327"/>
      </g>
    </g>
  </g>
</svg>
