<svg xmlns="http://www.w3.org/2000/svg" width="93.706" height="92.801" viewBox="0 0 93.706 92.801">
  <g id="icon_4" data-name="icon 4" transform="translate(-138 -28.599)">
    <g id="Group_940" data-name="Group 940" transform="translate(138 146.416)">
      <path id="Path_2548" data-name="Path 2548" d="M6.276-90.84c3.893-11.487,13.842-19.291,25.194-22.772,11.8-3.615,26.421-4.231,37.722,1.227C87.971-103.317,96.731-80.2,91.513-60.492c-5.38,20.317-25.726,34.163-46.335,34.418a38.039,38.039,0,0,1-17.19-3.435c-5.135-2.523-9.228-6.754-12.841-11.1C7.274-50.068-.248-59.931.739-72.91,1.638-84.751,7.633-96.406,15.7-105c8.807-9.38,20.966-13.206,33.658-11.791,23.913,2.666,45.033,24.065,39.853,49.241C84.658-45.437,59.3-25.6,36.492-30.238,12.651-35.087.273-60.036,6.274-82.642c5.577-21,27.717-38.273,49.953-32.265C67.221-111.936,79.059-104.064,84.688-94a36.472,36.472,0,0,1,2.226,29.371,34.209,34.209,0,0,1-8.059,12.957.233.233,0,0,0,.329.329A35.966,35.966,0,0,0,89.677-79.37c-.7-11.056-6.342-20.231-15.075-26.857-9.521-7.224-20.931-12-33.017-10.06A44.9,44.9,0,0,0,14.038-99.739C-.716-81.085.765-51.922,20.123-37.072a38.111,38.111,0,0,0,32.666,7.017C64.319-33,74.837-40.772,81.935-50.22c7.354-9.789,10.553-21.868,7.666-33.9a43.08,43.08,0,0,0-20.659-27.118c-10.814-6.181-24.476-8.381-36.548-4.976-11.665,3.291-20.2,12.581-25.888,22.925C.778-82.878-2.418-69.914,2.23-58.487,4.62-52.61,8.761-47.581,12.652-42.641c3.81,4.838,7.952,9.655,13.312,12.827,19.395,11.481,46.995.873,59.381-16.125,12.605-17.3,10.689-42.806-3.941-58.355-8.893-9.451-20.747-12.954-33.464-12.511-12.211.427-24.794,3.819-33.689,12.612a32.871,32.871,0,0,0-8.239,13.28C5.959-90.744,6.22-90.674,6.276-90.84Z" transform="translate(0 0)" fill="#5271ff"/>
    </g>
    <g id="Group_943" data-name="Group 943" transform="translate(-25 -2499.531)">
      <g id="Group_834" data-name="Group 834" transform="translate(183 2652.559)">
        <path id="Path_2513" data-name="Path 2513" d="M46.528-91.317c-.076-.044-.153-.092-.229-.135a1.119,1.119,0,0,0,.121-.022,1.527,1.527,0,0,0,.2-.065Q46.578-91.429,46.528-91.317ZM1.013-82.263c2.692-7.864,10.193-12.394,17.874-14.39a31,31,0,0,1,13.542-.423,27.132,27.132,0,0,1,7.379,2.315c1.588.8,3.1,1.931,4.761,2.629a1.853,1.853,0,0,0,.822.58c.366.288.737.571,1.116.846a.266.266,0,0,0,.366-.1,6.77,6.77,0,0,0,.491-.946.4.4,0,0,0,.314-.157,7.629,7.629,0,0,0,1.232-3.444c.844,2.542,1.763,5.057,2.587,7.6q.747,2.308,1.3,4.669a19.941,19.941,0,0,0,.1,2.245,12.144,12.144,0,0,0,.376,1.691c.125.436-.16.4-.583.558a25.051,25.051,0,0,1-4.471.959c-.619.065-1.239.14-1.859.257q-.479.092-.95.209A17.8,17.8,0,0,0,38.56-74.97c-.061.017-.121.039-.183.057A10.38,10.38,0,0,1,41.11-81.8a.421.421,0,0,0,0-.593,10.1,10.1,0,0,0-1.754-1.635.494.494,0,0,0-.184-.549C32.685-89.295,23.847-90.363,16.088-89a44.109,44.109,0,0,0-9.61,2.781C4.334-85.31,1.336-83.706.925-81.16a.016.016,0,0,0,.028.013c1.326-2.385,4.153-3.6,6.557-4.573a44.1,44.1,0,0,1,8.815-2.424c7.431-1.338,15.951-.2,22.177,4.255a8.521,8.521,0,0,0,1.716,1.809,11.345,11.345,0,0,0-2.62,7.694.4.4,0,0,0,.5.379c1.905-.536,3.744-1.264,5.62-1.875,1.285-.231,2.581-.405,3.833-.623,1.936-.34,4.567-.384,6.317-1.508.028.083.053.17.083.248a.031.031,0,0,0,.059,0c.038-.135.066-.275.1-.41.079-.061.158-.118.233-.179a.491.491,0,0,0,.13-.493c-.077-.2-.146-.4-.209-.6.1-2.65-.947-5.685-1.626-8-1.026-3.5-2.331-6.914-3.409-10.4-.141-.458-.946-.554-1.022,0a32.524,32.524,0,0,1-.959,3.958.1.1,0,0,0-.015.035c-.005.026-.01.052-.016.078-.063.24-.125.48-.181.724a1.509,1.509,0,0,1-.6.75.4.4,0,0,0-.142-.122c-2.184-1.085-4.294-2.306-6.477-3.392a28.147,28.147,0,0,0-7.723-2.228,31.751,31.751,0,0,0-13.833.724C10.538-95.263,3.1-90.332.866-82.307A.077.077,0,0,0,1.013-82.263Z" transform="translate(-0.487)" fill="#1f2327"/>
        <path id="Path_2514" data-name="Path 2514" d="M36.043-33.67c.051-.131.1-.262.154-.392q.7-.281,1.38-.6c-.132.222-.268.436-.4.667Q36.613-33.827,36.043-33.67ZM5.211-35.932c.045-.013.089-.022.134-.031,0,.031,0,.065,0,.1a.183.183,0,0,0,.366.009.585.585,0,0,1,.047.061c-.071.31-.131.628-.184.942C5.457-35.218,5.333-35.575,5.211-35.932Zm-2.57-7.642a.213.213,0,0,0,.1-.131s0,0,0-.009c.059,0,.117-.009.176-.009.185.183.362.375.537.567a11.428,11.428,0,0,0-.3,1.225c-.058-.174-.117-.349-.174-.527C2.87-42.829,2.754-43.2,2.641-43.574ZM15.413-44.9c-.233-.139-.459-.283-.687-.432.1-.305.2-.615.282-.924.041.026.082.057.125.083a.493.493,0,0,0,.184.549c.146.109.295.209.443.31C15.643-45.179,15.527-45.044,15.413-44.9ZM47.659-43.84c-.037.157-.073.318-.109.475-.279.161-.561.314-.847.462l-.043.013q.01-.275-.006-.549C46.99-43.57,47.325-43.7,47.659-43.84Zm.875-.122c-.184.118-.371.235-.558.344.017-.122.029-.244.042-.366.185-.078.379-.166.575-.257C48.573-44.146,48.554-44.054,48.534-43.962Zm1.277-.885s0,0,0,0q-.388.288-.787.562c.006-.057.011-.113.016-.17C49.295-44.573,49.552-44.7,49.811-44.847Zm2.519-1.548c-.008-.1-.017-.2-.024-.292.118-.122.229-.253.334-.384C52.536-46.844,52.433-46.622,52.33-46.395Zm-9.091,8.64c.061-.031.119-.065.179-.1a6.337,6.337,0,0,0-.341.929,10.791,10.791,0,0,0-.967.776.122.122,0,0,0,.019.2c-.149.074-.3.144-.447.214A11.4,11.4,0,0,0,43.239-37.755Zm-2.47,1.43q.719-.412,1.423-.85c.109-.07.22-.139.33-.2a.124.124,0,0,1,.034-.017,12.177,12.177,0,0,1-1.376,1.822.112.112,0,0,0-.034.087q-.532.242-1.074.458A13.2,13.2,0,0,0,40.769-36.325Zm-4.069.859c.362-.083.723-.166,1.081-.257-.387.179-.777.353-1.169.527Zm-1.476.841a.572.572,0,0,0-.076.031c.053-.2.1-.388.146-.571.3-.061.605-.122.907-.187-.047.131-.1.262-.146.392C35.779-34.843,35.5-34.734,35.224-34.625Zm-1.255,1.382c0,.022,0,.044,0,.07-.181.035-.363.07-.544.1C33.6-33.125,33.786-33.186,33.968-33.243Zm-7.729.615c.316-.462.64-.933.964-1.408.4-.039.794-.078,1.181-.122a10.713,10.713,0,0,1-.7,1.421q-.673.072-1.347.118C26.308-32.624,26.273-32.624,26.239-32.628Zm-4.787-1.221c.386.017.771.026,1.156.031a7.676,7.676,0,0,1-.6.68c-.329-.057-.657-.122-.986-.192C21.166-33.5,21.309-33.67,21.452-33.849ZM7.864-38.661c.021-.052.044-.1.067-.157l.052-.026a.119.119,0,0,0,0,.017.18.18,0,0,0,.071.1A1.412,1.412,0,0,0,7.864-38.661Zm-1.044.353.037-.1c.095-.026.19-.057.283-.087l-.018.039A.378.378,0,0,0,6.821-38.308ZM5.745-36.059l.086-.026c-.01.039-.02.078-.03.118l-.061-.065C5.742-36.041,5.744-36.05,5.745-36.059ZM5.018-36.5a3.493,3.493,0,0,1,.322.257v.052c-.065.022-.13.044-.2.061C5.1-36.255,5.06-36.382,5.018-36.5ZM4.2-39.3a3.9,3.9,0,0,1-.066-.58,9.25,9.25,0,0,1,.985,1.364c-.016.078-.027.161-.042.24a6.213,6.213,0,0,1-.64.1c-.107-.31-.214-.623-.321-.933A.194.194,0,0,0,4.2-39.3ZM4.1-42.441c-.092.253-.174.5-.244.75-.09.009-.182.013-.273.017.057-.375.126-.745.217-1.112C3.9-42.672,4-42.554,4.1-42.441Zm.033-1.473c.092-.022.186-.048.278-.074.077.092.157.174.232.266-.154.327-.3.667-.438,1.011-.112-.109-.222-.222-.335-.327Q3.985-43.483,4.131-43.914Zm-.465.1c-.051.148-.1.3-.143.449-.135-.126-.271-.253-.407-.375C3.3-43.753,3.485-43.775,3.666-43.81Zm-.833-.179c.132-.423.269-.846.408-1.264.236.24.47.48.694.728-.078.192-.148.388-.219.58a5.354,5.354,0,0,1-.7.118C2.958-43.88,2.9-43.932,2.834-43.989Zm-.043.139a.391.391,0,0,1,.047.044c-.021,0-.042,0-.063,0A.384.384,0,0,1,2.791-43.849ZM2.134-46.3c.226.2.441.4.656.606-.089.009-.177.026-.268.035-.02,0-.022.035,0,.035l.316-.026c.022.022.045.039.066.061-.152.427-.3.854-.443,1.286l-.045-.039c-.131-.458-.257-.915-.378-1.378C2.066-45.92,2.1-46.112,2.134-46.3Zm-.442-.824c0-.013,0-.031,0-.044a.252.252,0,0,1,.057,0c-.011.048-.023.1-.033.144C1.708-47.062,1.7-47.1,1.692-47.127Zm.1-3.326c-.089.257-.171.523-.247.785-.063-.362-.144-.719-.24-1.077C1.471-50.654,1.634-50.558,1.791-50.453ZM9.4-53.1c-.407.113-.816.222-1.226.331.01-.031.021-.057.031-.083.292-.061.584-.122.873-.192C9.187-53.06,9.294-53.082,9.4-53.1Zm5.123,2.8c.2-.384.391-.776.564-1.173.062.048.126.087.189.131a10.619,10.619,0,0,1-.568,1.177A.156.156,0,0,0,14.525-50.3ZM13.5-48.535a.08.08,0,0,1-.021-.017c.219-.331.428-.671.63-1.016.052.035.1.07.159.1A7.038,7.038,0,0,1,13.5-48.535Zm.206,2.507c-.174-.126-.349-.248-.521-.379a8.069,8.069,0,0,0,.271-1.112.031.031,0,0,0-.059-.017c-.111.34-.242.671-.381,1-.053-.039-.105-.083-.157-.122a10.218,10.218,0,0,0,.514-1.151s0,0,0,0c.331.331.644.689.979,1.011C14.135-46.543,13.92-46.286,13.71-46.029Zm1.3,1.639a2.294,2.294,0,0,1-.316-.619q.26.177.524.353C15.145-44.568,15.077-44.477,15.007-44.39Zm.789.1c-.116.126-.234.257-.349.392-.054-.052-.1-.1-.154-.157.1-.122.191-.248.29-.371C15.653-44.377,15.725-44.333,15.8-44.285Zm.524-.658a.132.132,0,0,0-.006.074c-.094.1-.187.214-.282.318l-.231-.131c.108-.131.214-.262.324-.388C16.19-45.026,16.255-44.982,16.32-44.943Zm2.939,1.709-.058-.026a5.588,5.588,0,0,1-.813-.484c.3.153.6.3.908.44C19.283-43.282,19.271-43.261,19.258-43.234Zm2,.763c-.277-.087-.552-.179-.824-.279l.017-.052q.407.163.82.314A.052.052,0,0,1,21.256-42.472Zm20.26.619c-.058.153-.116.305-.171.458q-.678.15-1.358.288c.051-.148.109-.292.167-.44.449-.092.9-.2,1.343-.305Zm1.181-.083c-.238-.013-.476-.022-.714-.035.289-.074.578-.153.866-.231C42.8-42.114,42.746-42.023,42.7-41.935Zm1.83-.449a.282.282,0,0,0-.527.122c0,.07-.007.139-.01.2-.274.078-.547.153-.822.227.058-.1.117-.209.179-.314a.2.2,0,0,0,.014-.2c.4-.113.788-.235,1.18-.357Q44.537-42.541,44.527-42.384Zm.793-.061c-.169.052-.339.1-.508.153-.007-.166-.018-.327-.033-.488.241-.078.481-.157.72-.24C45.439-42.829,45.379-42.637,45.32-42.445Zm.224-.07c.043-.187.086-.375.129-.562.267-.1.532-.2.8-.3-.019.192-.045.384-.078.575C46.109-42.7,45.827-42.607,45.544-42.515ZM49.635-44.2c-.22.113-.438.231-.657.349,0-.013,0-.026,0-.035.238-.17.475-.344.708-.523C49.671-44.337,49.652-44.268,49.635-44.2Zm1.308-1.26c-.256.48-.481.946-.769,1.386.018-.126.032-.257.048-.388.027-.013.054-.031.081-.044a.017.017,0,0,0-.015-.031c-.02.013-.04.022-.061.035.014-.122.028-.244.038-.366C50.494-45.057,50.72-45.253,50.942-45.458Zm.756.4a9.583,9.583,0,0,0,.147-1.177c.061-.052.117-.109.175-.166-.009.1-.018.209-.027.318-.012.148-.044.327-.042.5C51.868-45.41,51.784-45.235,51.7-45.061Zm-3.058,3.317c.17-.109.34-.222.507-.34-.075.3-.153.593-.248.876a.235.235,0,0,0,.079.279,9.729,9.729,0,0,1-.836.759A8.919,8.919,0,0,0,48.641-41.744ZM37.009-36.416c.462-.131.922-.275,1.379-.427-.036.135-.073.27-.111.405q-.678.183-1.368.34Zm-1.5.392c.338-.078.675-.161,1.01-.253-.033.1-.066.192-.1.283-.323.07-.648.135-.973.192C35.472-35.88,35.493-35.954,35.514-36.024Zm-1.836.523c.007-.044.014-.087.021-.126.38-.074.758-.153,1.135-.231-.025.057-.05.118-.076.183C34.4-35.614,34.038-35.558,33.678-35.5Zm-.114.641q.46-.072.919-.157c-.1.257-.2.514-.287.767-.28.1-.562.2-.847.283A8.255,8.255,0,0,0,33.564-34.86Zm-4.7.645c.417-.052.837-.1,1.257-.157-.15.445-.3.889-.452,1.334q-.846.157-1.7.262A9.267,9.267,0,0,0,28.865-34.215ZM27.78-34.9q.493-.026.984-.065c-.021.048-.043.092-.065.139-.344.044-.694.083-1.047.122Zm-2.417.4c.071-.122.143-.24.215-.362q.835.02,1.671-.013c-.045.078-.089.153-.133.231Q26.252-34.566,25.363-34.507Zm-2.168.689c.124,0,.248,0,.372-.009-.2.279-.393.554-.594.833-.005,0-.006.013-.01.017-.126-.017-.252-.039-.378-.061A8.376,8.376,0,0,0,23.195-33.818Zm.687-1.147c.15.013.3.022.451.035-.11.166-.225.327-.337.488l-.411.013Q23.738-34.69,23.882-34.965Zm-3-.488q.484.1.972.2c-.2.279-.411.549-.622.815-.412-.017-.824-.039-1.235-.074A10,10,0,0,0,20.878-35.453Zm-1.672-.4c.439.113.879.218,1.32.318a10.022,10.022,0,0,1-.879.985c-.523-.044-1.044-.1-1.56-.183A8.113,8.113,0,0,0,19.206-35.85Zm-5.58-.17c.2-.349.4-.7.586-1.055.4.087.794.17,1.179.253a3.328,3.328,0,0,0-.363.9.108.108,0,0,0-.2.052.646.646,0,0,0,.055.318.328.328,0,0,0,.091.126c-.231-.07-.46-.148-.688-.227C14.065-35.767,13.845-35.893,13.626-36.02Zm-4.1-3.038a4.406,4.406,0,0,0,.53.344l-.1.118a.139.139,0,0,0,.1.235.993.993,0,0,0,.524-.122.2.2,0,0,1,.044.017A3.19,3.19,0,0,1,10.1-38c-.058-.026-.118-.048-.177-.074a1.823,1.823,0,0,0-.68-.519C9.332-38.749,9.428-38.9,9.522-39.058Zm-.425.405c-.175-.135-.357-.27-.534-.405-.014-.026-.029-.048-.043-.074a.1.1,0,0,1,.029-.017c.015,0,.03,0,.046-.009a2.7,2.7,0,0,0,.445-.3c.119.109.24.218.365.314-.088.17-.175.344-.262.514C9.127-38.64,9.112-38.644,9.1-38.653ZM7.358-38.98c-.054-.078-.109-.157-.164-.235q.172-.386.364-.759c.113.148.227.3.34.445a.282.282,0,0,0-.284.126c-.085.135-.16.275-.234.414A.047.047,0,0,0,7.358-38.98Zm-.963.336c.079-.218.163-.436.253-.645l.129.157c-.06.135-.116.275-.171.414C6.536-38.692,6.466-38.67,6.4-38.644ZM4.63-41.809c-.085.017-.169.035-.255.048.024-.087.048-.174.075-.266C4.51-41.953,4.57-41.883,4.63-41.809Zm1.262-.357c-.3.1-.592.2-.895.275-.146-.157-.292-.318-.441-.466.112-.34.24-.676.378-1.007C5.26-42.973,5.579-42.572,5.892-42.166Zm-.539-2.145c.31-.118.618-.244.926-.375.189.227.371.458.554.689-.215.514-.414,1.033-.6,1.556-.367-.44-.749-.868-1.142-1.286C5.175-43.923,5.263-44.115,5.353-44.311Zm-.523.192c-.013.026-.026.052-.039.083l-.049-.052C4.771-44.1,4.8-44.111,4.83-44.119ZM3.392-45.7q.576-.065,1.159-.17c-.178.357-.346.715-.5,1.085-.242-.235-.487-.466-.733-.689C3.341-45.549,3.366-45.623,3.392-45.7ZM2.7-48.4c.279.244.553.493.822.75q-.562.15-1.136.262C2.482-47.729,2.588-48.065,2.7-48.4Zm-1.095-.841c0-.017.008-.035.011-.052.214.166.428.331.636.506a11.693,11.693,0,0,0-.482,1.508l-.084.013A19.682,19.682,0,0,0,1.607-49.242Zm.975-.619c-.3.078-.6.161-.895.244.059-.262.126-.514.2-.772A7.978,7.978,0,0,1,2.582-49.861Zm1.1-1.966c-.554.07-1.111.113-1.67.135a13.743,13.743,0,0,1,1.843-.48C3.8-52.058,3.742-51.94,3.684-51.827Zm2.421-.724c-.067.109-.132.222-.2.336-.623.131-1.25.248-1.879.34.042-.118.085-.235.127-.353C4.806-52.345,5.462-52.441,6.105-52.55Zm-.05.3c.051-.109.1-.214.155-.323a.291.291,0,0,0,.061-.009c.619-.061,1.239-.135,1.859-.257.012,0,.023,0,.035,0-.011.026-.023.057-.033.083C7.443-52.576,6.751-52.4,6.055-52.25ZM7.42-51.134c-.246-.292-.489-.593-.728-.889.42-.083.84-.174,1.261-.27C7.789-51.9,7.608-51.513,7.42-51.134ZM9-52.093l-.447-.34c-.017-.013-.034.017-.017.031.154.1.3.218.453.331-.154.27-.306.545-.459.82-.334.083-.669.161-1,.24-.017-.017-.034-.039-.051-.061.187-.405.368-.815.534-1.234.166-.039.332-.074.5-.118.262-.065.524-.126.786-.187C9.191-52.437,9.093-52.267,9-52.093Zm5.894-2.332c.015-.022.031-.039.047-.061.031.017.064.031.095.048Zm.07,2.6.033-.013c.016,0,.027-.013.041-.017-.01.022-.019.044-.029.065C14.99-51.8,14.975-51.809,14.96-51.822Zm-2.071,2.816c.3-.166.594-.331.882-.5-.166.266-.334.527-.509.789Zm-.477,2c.3-.414.59-.828.871-1.247a.435.435,0,0,0-.017.1,10.43,10.43,0,0,1-.649,1.308Zm-.4,1.112c-.018-.044-.042-.087-.057-.131a.03.03,0,1,0-.059.013c.017.07.041.131.063.2-.3.436-.618.863-.939,1.286-.1-.074-.195-.153-.293-.231.522-.689,1.049-1.378,1.559-2.075.071.061.144.122.217.179C12.348-46.4,12.184-46.146,12.013-45.9Zm.382.671a3.316,3.316,0,0,1-.194-.3c.194-.305.381-.615.553-.933.057.048.114.092.172.139C12.764-45.95,12.584-45.588,12.4-45.227Zm.368.436c-.05-.052-.1-.1-.146-.157a11.6,11.6,0,0,0,.5-1.216c.143.109.287.222.433.331C13.279-45.493,13.017-45.144,12.764-44.791Zm1,.85A7.644,7.644,0,0,1,13-44.56c.263-.362.534-.724.816-1.077.183.14.369.27.557.405C14.188-44.8,13.984-44.363,13.764-43.941Zm.613.405c-.1-.061-.2-.126-.3-.192.177-.379.34-.767.488-1.16a2.753,2.753,0,0,0,.282.706C14.689-43.967,14.532-43.753,14.378-43.535Zm.5.3-.14-.078c.119-.161.238-.327.36-.484q.062.078.129.157Zm1.292.427-.137.17c-.287-.139-.581-.288-.875-.445l.261-.353A5.113,5.113,0,0,0,16.174-42.812Zm.8-.793a5.545,5.545,0,0,0-.479.44,5.678,5.678,0,0,1-.85-.567c.112-.148.227-.292.34-.44C16.306-43.975,16.636-43.784,16.97-43.6Zm-.581-1.1a2.812,2.812,0,0,0,.4.562c-.116-.061-.232-.118-.347-.179-.082-.044-.161-.092-.243-.139C16.263-44.538,16.325-44.621,16.389-44.7Zm4.235,3.2c-.207-.065-.414-.131-.619-.2.08-.166.156-.331.225-.5.045.013.09.031.136.044a.11.11,0,0,0,.054,0c.184.057.36.113.527.161C20.837-41.844,20.731-41.674,20.624-41.508Zm1.237.388c-.252-.074-.5-.148-.755-.227.1-.179.2-.357.307-.536q.422.118.851.209C22.124-41.5,21.99-41.308,21.861-41.12Zm1.709-.314c-.088.235-.178.475-.27.711-.27-.07-.541-.144-.81-.218.146-.2.3-.4.456-.593C23.153-41.5,23.361-41.465,23.57-41.434Zm2.731.283c-.188.31-.362.632-.527.959-.275-.044-.549-.092-.823-.148a9.225,9.225,0,0,0,.168-.92q.466.039.933.065C26.134-41.181,26.217-41.164,26.3-41.151Zm2.111,1.2q-.451-.007-.9-.039c.094-.314.178-.628.255-.937q.613.078,1.229.131C28.8-40.514,28.606-40.235,28.412-39.952ZM29.831-40c-.3.026-.606.039-.908.044.163-.231.326-.462.491-.689a.2.2,0,0,0,.036-.113q.287.026.575.039Q29.942-40.353,29.831-40Zm3.6-.554c-.164.031-.328.065-.492.1.037-.07.069-.139.107-.209.153,0,.305-.013.457-.017C33.483-40.641,33.458-40.6,33.435-40.553Zm.817-.161c-.142.031-.284.057-.426.083,0-.022,0-.044,0-.065.142,0,.284-.013.426-.022C34.252-40.719,34.252-40.715,34.252-40.715Zm3.915-.052c.031-.139.063-.275.094-.41l.14-.026c.465-.078.928-.17,1.391-.266-.063.144-.122.292-.179.436C39.132-40.941,38.65-40.854,38.167-40.767Zm1.189.449c-.451.1-.9.187-1.358.27.023-.1.048-.2.072-.3.464-.083.927-.174,1.388-.266C39.422-40.514,39.389-40.418,39.355-40.318Zm1.758-.432q-.668.183-1.344.34c.027-.1.059-.192.088-.288q.673-.144,1.344-.3C41.172-40.915,41.142-40.832,41.113-40.75Zm2.853-.929q-.54.209-1.091.392c.028-.057.058-.113.087-.166.338-.1.675-.2,1.011-.305C43.972-41.73,43.969-41.7,43.967-41.678Zm.853-.344s0,0,0-.009a1.082,1.082,0,0,1,.111-.035C44.893-42.053,44.856-42.036,44.819-42.023ZM48.87-43c.034-.231.065-.466.091-.7.216-.135.433-.266.65-.4-.057.231-.111.466-.163.7C49.256-43.265,49.064-43.13,48.87-43Zm-7.52,5.349c.054-.131.108-.266.161-.4.17-.078.34-.148.51-.227.348-.161.69-.34,1.033-.514-.425.31-.852.606-1.29.885C41.627-37.82,41.488-37.737,41.35-37.654Zm-.811.484c.056-.174.112-.349.163-.527.113-.044.226-.1.339-.148-.06.166-.12.327-.182.488-.105.065-.211.126-.317.187Zm-.587-.231c-.065.17-.133.344-.2.514-.29.1-.582.2-.877.283.039-.148.079-.292.115-.44C39.31-37.157,39.631-37.28,39.951-37.4Zm-.706-.776q.542-.131,1.084-.275c-.031.092-.061.179-.092.266q-.539.229-1.086.445C39.183-37.885,39.215-38.029,39.246-38.178Zm-1.845.436c.435-.1.87-.2,1.3-.3-.01.039-.02.074-.031.113-.035.135-.07.27-.105.4q-.675.248-1.364.471C37.271-37.284,37.336-37.515,37.4-37.742Zm-1.478.327c.1-.022.2-.048.293-.07.254-.052.507-.109.762-.166-.08.248-.161.5-.242.741-.344.1-.692.2-1.041.292C35.772-36.878,35.849-37.149,35.922-37.415Zm-2.09,1.072c.045-.2.093-.405.141-.615.444-.109.888-.214,1.33-.318-.059.209-.118.423-.181.632-.018.061-.039.122-.061.187-.418.1-.838.2-1.264.279C33.809-36.229,33.82-36.286,33.832-36.342Zm-1.011.349c.064-.244.123-.493.184-.737.133-.031.266-.061.4-.1-.027.118-.052.231-.08.344-.033.139-.072.275-.112.414C33.08-36.041,32.952-36.015,32.821-35.994Zm-.142.636c.007-.031.013-.065.019-.1.113-.017.227-.039.34-.057-.011.035-.023.07-.035.109C32.894-35.388,32.786-35.37,32.679-35.357Zm-.126.658.24-.039a8.532,8.532,0,0,0-.25,1.02c-.09.026-.18.048-.271.074A8.079,8.079,0,0,0,32.552-34.7Zm-1.688-.488c.344-.044.688-.087,1.03-.135l-.03.078c-.343.048-.685.092-1.024.135C30.847-35.135,30.855-35.161,30.864-35.187Zm-.484.061-.028.078c-.368.052-.736.1-1.1.144-.016,0-.031,0-.047.009.02-.039.037-.078.055-.118C29.635-35.043,30.008-35.082,30.38-35.126Zm-.516-1.085c.312-.026.624-.057.938-.1-.078.214-.155.423-.231.641-.347.039-.694.074-1.041.109C29.639-35.776,29.751-35.994,29.863-36.211Zm-1.3.061q.382-.007.766-.026c-.1.222-.2.44-.309.663-.3.022-.593.044-.89.061C28.28-35.684,28.425-35.919,28.566-36.15Zm-3.037.767c.135-.227.266-.453.391-.689h.02c-.134.227-.266.458-.4.689Zm-1.111-.724c.221.013.442.017.665.022-.141.227-.286.449-.432.671-.176-.013-.35-.031-.524-.044C24.228-35.671,24.325-35.889,24.418-36.107Zm-1.294-.074c.284.017.57.039.858.052-.1.214-.2.423-.311.628-.3-.031-.607-.074-.909-.118C22.885-35.806,23.006-35.994,23.124-36.181Zm-1.582-.144c.325.035.654.065.988.1q-.171.255-.348.51-.475-.085-.947-.183C21.34-36.041,21.442-36.181,21.541-36.325Zm-1.805-.214c.146.022.292.044.436.061.314.039.638.074.966.109-.088.131-.18.262-.272.388-.438-.1-.875-.2-1.313-.305C19.615-36.368,19.676-36.451,19.736-36.538ZM18.29-36.6c-.069-.017-.136-.031-.205-.048l.126-.183c.312.074.621.139.929.192-.051.074-.107.144-.159.214C18.75-36.482,18.52-36.538,18.29-36.6Zm-1.759.519c.084-.135.167-.266.25-.4l.554.144a9.375,9.375,0,0,1-.871,1.3c-.207-.048-.412-.1-.616-.148C15.987-35.444,16.407-35.885,16.531-36.081Zm-.9.279a1.216,1.216,0,0,0-.111.536c-.112-.031-.223-.065-.335-.1a.267.267,0,0,0,.072-.035A1.733,1.733,0,0,0,15.63-35.8Zm.48-.846c-.037.052-.073.109-.109.166.025-.061.05-.118.073-.174C16.086-36.652,16.1-36.652,16.11-36.647Zm.224-.724c.082.031.164.052.247.083-.061.078-.122.157-.183.24l-.163-.039C16.268-37.184,16.3-37.28,16.334-37.371Zm-1.63-.636c.351.153.706.3,1.065.432-.058.113-.116.227-.174.344-.385-.092-.772-.179-1.156-.27C14.528-37.672,14.616-37.842,14.7-38.008Zm-1.043.314c.1-.222.2-.44.3-.663.1.052.209.1.315.153-.1.2-.208.388-.311.584C13.861-37.646,13.76-37.668,13.661-37.694Zm-.215.445.284.065c-.166.314-.331.623-.5.933-.092-.057-.184-.113-.276-.166A6.913,6.913,0,0,0,13.446-37.249Zm-2.123-.139a3.483,3.483,0,0,1,.27-.5,8.294,8.294,0,0,0,1.275.48,3.175,3.175,0,0,0-.281.767c-.418-.253-.838-.506-1.264-.741Zm-.446-.9c.1.065.2.122.3.179-.1.148-.222.314-.313.48q-.267-.137-.539-.262A3.112,3.112,0,0,0,10.877-38.287Zm-1.093-1.2c.075.113.153.231.235.34-.1-.07-.207-.144-.309-.218C9.734-39.411,9.759-39.45,9.783-39.49Zm-.263-.445c.051.092.1.183.157.27l-.1.2c-.1-.07-.191-.144-.285-.218Q9.407-39.8,9.521-39.934Zm-.829-.292a7,7,0,0,1,.323-.68c.064.122.129.253.194.379-.117.157-.227.318-.333.48C8.813-40.109,8.752-40.165,8.691-40.226Zm-.234.9-.037.013s0-.009,0-.009a4.7,4.7,0,0,1,.169-.623,1.826,1.826,0,0,0,.128.144C8.62-39.642,8.534-39.485,8.457-39.324Zm-.486-1.421c.071.1.143.2.217.305a3.846,3.846,0,0,0-.164.458c-.083-.135-.169-.266-.256-.4Q7.868-40.562,7.972-40.745ZM7.415-40.9c.068-.131.138-.262.208-.388.046.074.092.153.141.227-.071.122-.14.244-.208.366C7.509-40.763,7.463-40.828,7.415-40.9Zm-.225.436.137.183c-.129.244-.251.493-.368.741-.042-.057-.082-.118-.125-.174C6.948-39.965,7.065-40.213,7.19-40.462Zm-1.426-.58c-.159-.187-.317-.371-.481-.554q.364-.092.722-.209C5.921-41.552,5.841-41.3,5.763-41.042Zm1.129-1.582c.012.022.024.048.037.07a.547.547,0,0,1-.073.031C6.867-42.559,6.879-42.594,6.892-42.624Zm.813-.231-.667.262-.094-.179c.091-.24.186-.484.281-.728C7.388-43.287,7.546-43.073,7.7-42.855Zm-.3-1.107c.242.3.493.58.757.846L8.085-43a.044.044,0,0,0-.02.009c-.218-.3-.454-.589-.7-.872C7.38-43.9,7.393-43.928,7.406-43.962ZM6.7-44.869q.16.216.326.432c-.018.044-.038.087-.057.126-.149-.161-.3-.323-.449-.48Zm-.576,0c-.214.1-.429.2-.644.3.109-.227.218-.449.326-.667C5.911-45.118,6.019-45,6.123-44.874ZM5.9-45.436c.051-.1.1-.2.152-.305l.492.667c-.068.031-.136.065-.2.1C6.194-45.135,6.046-45.288,5.9-45.436Zm-.133-.689c.011.013.022.031.033.044-.057.118-.117.235-.173.357l-.289-.3C5.482-46.059,5.625-46.09,5.768-46.125Zm-.676-.153c.072-.157.144-.31.219-.462l.31.418c-.147.044-.3.087-.443.126C5.15-46.221,5.122-46.251,5.093-46.277ZM4.8-46.36c-.054.1-.11.209-.163.314-.4.1-.806.187-1.217.257.167-.488.338-.976.517-1.46Q4.379-46.811,4.8-46.36Zm-2.52-2.5c-.214-.17-.43-.336-.649-.5.009-.044.018-.087.027-.126l.949-.144Q2.436-49.244,2.281-48.858Zm.791-.558c.325.314.633.65.929.994-.1.24-.2.484-.3.724a.308.308,0,0,0-.061.017c-.3-.275-.6-.545-.913-.8C2.839-48.8,2.954-49.106,3.073-49.416Zm1.633-.545c-.211.44-.416.881-.61,1.33a13.132,13.132,0,0,0-.976-.907c.023-.061.047-.118.07-.179C3.691-49.8,4.2-49.874,4.705-49.961Zm-.31-.34c-.361.083-.72.17-1.079.257.136-.344.273-.689.41-1.038C3.946-50.82,4.167-50.558,4.395-50.3Zm3.592.022c-.222.405-.442.806-.66,1.212-.358.161-.717.318-1.078.466.311-.606.621-1.212.916-1.822.2-.039.4-.083.6-.126C7.838-50.458,7.913-50.371,7.986-50.279Zm.064-.113c-.054-.061-.109-.126-.162-.187l.3-.065C8.143-50.562,8.1-50.48,8.05-50.392Zm2.1-.763c.115.1.23.2.344.3-.1.148-.192.3-.288.453-.506.24-1.011.475-1.517.715q-.223-.242-.441-.484l.277-.549Q9.341-50.92,10.147-51.155Zm-.483-.392-.84.222c.105-.214.21-.423.314-.636C9.314-51.827,9.49-51.692,9.663-51.548Zm1.323-1.46a4.651,4.651,0,0,1,.565.519c-.1.157-.208.31-.311.466-.512.17-1.03.323-1.551.466-.18-.14-.361-.283-.543-.423.11-.222.218-.449.326-.676C9.976-52.773,10.48-52.895,10.986-53.008Zm2.644.065c-.217-.179-.437-.353-.66-.519.422-.1.844-.2,1.264-.3-.19.257-.371.523-.546.789Zm-.037.541c.089-.044.18-.083.268-.122.157.148.317.3.479.44-.38.122-.758.248-1.132.388C13.334-51.931,13.462-52.171,13.593-52.4Zm-1.075.976q-.158-.2-.319-.405c.35-.131.693-.27,1.033-.414-.139.231-.276.466-.409.7Zm-.351,1.853c.207-.44.416-.881.631-1.317a6.826,6.826,0,0,0,.863.968c-.4.187-.8.379-1.2.58C12.361-49.42,12.263-49.494,12.167-49.573Zm-.228.484c.056-.118.112-.235.167-.353l.2.17Zm-.364,5.3c-.049.078-.1.161-.146.24-.1-.139-.2-.283-.287-.432.022-.026.043-.057.065-.087C11.329-43.98,11.452-43.884,11.575-43.792ZM11.7-44l-.353-.275c.265-.371.527-.745.776-1.133a3.588,3.588,0,0,0,.188.331C12.12-44.717,11.915-44.355,11.7-44Zm.338.262A.288.288,0,0,0,12-43.775c.189-.327.37-.658.536-1,.038.048.077.1.117.144C12.444-44.337,12.24-44.041,12.042-43.74Zm1.405.388c-.121-.048-.242-.1-.364-.139a.1.1,0,0,0-.133.1c-.065-.044-.127-.087-.194-.131-.144-.087-.265.078-.21.209a3.335,3.335,0,0,0,.442.741c-.075.122-.152.248-.23.366a3.672,3.672,0,0,1-.673-.541c-.063-.065-.117-.139-.177-.2.085-.131.169-.262.255-.392.026.022.052.039.078.061.127.1.248-.118.124-.214l-.068-.052c.188-.279.383-.558.58-.833a6.8,6.8,0,0,0,.768.671C13.58-43.588,13.514-43.47,13.447-43.352Zm.616.257c-.08-.035-.161-.07-.242-.1.046-.1.093-.187.138-.283.084.061.168.118.253.174Zm.5.227-.114-.052c.039-.052.078-.1.117-.161.038.026.078.048.116.074C14.642-42.964,14.6-42.916,14.563-42.868Zm1.194.589c-.289-.148-.58-.292-.872-.436.03-.039.06-.078.09-.122.289.166.576.323.849.471C15.8-42.336,15.779-42.31,15.757-42.28Zm.738.266c.065.031.131.065.2.1-.024.031-.048.052-.07.083l-.607-.314.063-.092C16.222-42.158,16.363-42.084,16.5-42.014Zm.538-.275c-.024.026-.049.048-.073.074-.214-.1-.439-.2-.673-.31.034-.048.069-.092.105-.139C16.6-42.533,16.811-42.406,17.033-42.288Zm1.884.179c.086-.157.171-.31.252-.471q.4.157.809.288c-.089.157-.18.318-.274.475C19.441-41.914,19.178-42.009,18.918-42.11Zm.4.915c-.254-.1-.5-.2-.754-.305.017-.031.033-.057.049-.083.259.1.52.187.779.275C19.367-41.268,19.342-41.229,19.317-41.194Zm.895.331c-.184-.061-.366-.131-.548-.2.025-.048.049-.092.073-.135.194.061.386.122.575.174Zm1.232.379c-.244-.065-.486-.135-.728-.214.035-.057.07-.113.105-.174.257.074.5.139.736.2C21.519-40.606,21.482-40.545,21.444-40.484Zm3.978,1.029c-.237-.013-.474-.031-.711-.048.042-.126.082-.257.119-.384.247.039.493.078.74.113C25.52-39.664,25.47-39.559,25.422-39.455Zm2.652,0c-.248.017-.5.035-.741.044.019-.057.036-.118.055-.174.251.013.5.022.754.031C28.119-39.52,28.1-39.485,28.074-39.455Zm.524-.039.034-.052c.154,0,.308,0,.461,0C28.928-39.525,28.763-39.512,28.6-39.494Zm7.817-.99c0-.022,0-.044,0-.061.534-.139,1.068-.283,1.6-.445-.027.087-.054.174-.081.257Q37.177-40.6,36.416-40.484Zm-.036.693c.008-.092.011-.183.017-.275q.7-.111,1.407-.235c-.031.1-.062.2-.094.305C37.267-39.921,36.824-39.852,36.379-39.791Zm.987.907c-.38.07-.762.135-1.146.192.035-.183.068-.362.094-.545q.611-.085,1.218-.183Zm1.666-.371c-.432.109-.868.209-1.306.3.045-.174.09-.344.134-.523.44-.078.878-.161,1.313-.257Q39.1-39.5,39.032-39.254Zm1.749-.527c-.171.061-.343.118-.517.174-.249.078-.5.153-.753.227.034-.153.07-.305.107-.458q.651-.15,1.293-.327C40.868-40.035,40.824-39.908,40.781-39.782Zm1.127-.427c-.207.087-.415.166-.624.248.026-.113.052-.222.078-.331.221-.065.441-.131.66-.2C41.983-40.4,41.945-40.3,41.908-40.209Zm1.995-.9c-.468.231-.941.453-1.419.663.034-.078.067-.153.1-.227.446-.153.889-.314,1.326-.484C43.907-41.146,43.905-41.129,43.9-41.111Zm3.823-1.133c.058-.262.111-.519.157-.785.169-.1.337-.209.505-.318-.065.27-.133.536-.2.8Zm-6.367,3.514c-.007.022-.014.039-.02.057-.14.065-.279.131-.421.192.012-.044.024-.092.035-.135C41.088-38.657,41.224-38.692,41.359-38.731Zm2.353-1.4c-.522.183-1.049.357-1.58.519l.1-.235c.539-.227,1.068-.475,1.59-.75C43.784-40.444,43.75-40.287,43.711-40.135Zm1.026-.44c.023-.183.041-.371.054-.558.048-.026.1-.057.145-.083C44.87-41,44.8-40.789,44.737-40.575Zm1.22-.567c-.238.144-.478.288-.719.427-.026.009-.052.022-.078.031l-.063.026q.1-.379.188-.759c.311-.183.618-.371.925-.562C46.135-41.7,46.049-41.417,45.957-41.142Zm1.253-.776c-.252.161-.5.318-.756.475.061-.257.109-.514.146-.776.269-.166.535-.336.8-.506-.058.253-.117.5-.179.75C47.218-41.953,47.215-41.935,47.21-41.918Zm-6.051,2.476c.177-.061.354-.126.529-.192-.021.052-.042.109-.063.166-.164.048-.329.092-.493.14C41.141-39.368,41.15-39.407,41.159-39.442Zm-1.743.475c.133-.031.267-.057.4-.087.267-.065.531-.135.792-.214l-.031.092c-.393.1-.786.2-1.181.3C39.4-38.906,39.41-38.936,39.416-38.967Zm-1.783.366c.43-.078.859-.166,1.289-.257-.009.031-.018.065-.027.1-.432.1-.864.2-1.3.3Zm-1.484.253c.369-.057.738-.113,1.106-.179-.016.048-.032.1-.048.153-.369.083-.738.161-1.106.24C36.119-38.2,36.134-38.273,36.149-38.348Zm-1.927.283a.1.1,0,0,0,.013-.026c.449-.048.9-.1,1.344-.166-.023.083-.044.161-.067.244l-1.364.288Q34.186-37.894,34.222-38.064Zm-.635.4c0,.026-.01.048-.015.074-.062.009-.123.026-.185.039C33.455-37.589,33.52-37.628,33.587-37.668ZM22.04-37.1c.187.048.373.1.559.139-.206-.017-.412-.031-.616-.048ZM20.4-37.55c.416.126.833.248,1.247.357l-.092.157c-.3-.026-.594-.052-.89-.083-.166-.017-.331-.039-.5-.061C20.249-37.3,20.325-37.423,20.4-37.55Zm-1.392-.458c.277.1.554.2.834.288-.092.153-.186.3-.282.453-.311-.052-.622-.113-.93-.179C18.759-37.633,18.884-37.82,19.009-38.008Zm-2.041-.828c.191.087.382.174.576.257-.1.144-.2.288-.3.432-.045.065-.12.161-.212.279-.155-.048-.309-.1-.463-.148C16.692-38.3,16.827-38.57,16.968-38.836Zm-1.434-.745c.342.2.692.379,1.049.558-.121.192-.24.388-.355.589-.03.048-.079.139-.139.253-.175-.061-.35-.126-.523-.192s-.369-.153-.551-.235C15.186-38.932,15.357-39.259,15.534-39.581Zm-.972-.065c.07-.126.142-.262.214-.4.131.087.265.166.4.248q-.3.49-.575.994c-.122-.057-.244-.118-.365-.174C14.34-39.211,14.448-39.437,14.562-39.647Zm-1.756-.083c.15-.227.3-.453.456-.676.379.065.76.118,1.14.17q-.313.51-.6,1.033C13.47-39.376,13.138-39.555,12.806-39.729Zm-2.329-.915c.231.2.473.4.724.593-.25.314-.507.615-.767.915a7.348,7.348,0,0,1-.517-.575C10.1-40.026,10.29-40.335,10.477-40.645Zm.108-.824a.419.419,0,0,0,.048.048c-.289.51-.568,1.024-.842,1.543-.05-.065-.1-.131-.149-.2A11.935,11.935,0,0,0,10.585-41.469Zm-.921-.484c.107.057.216.113.327.161s.225-.078.13-.17-.179-.174-.268-.257a.107.107,0,0,1,.019-.026c.119.139.242.275.366.41-.323.405-.656.806-.966,1.221-.075-.113-.151-.231-.227-.349A11.5,11.5,0,0,1,9.664-41.953Zm-1.5-.279.176.248c-.16.248-.316.5-.467.75-.051-.074-.1-.153-.15-.227Q7.936-41.852,8.161-42.232Zm.433-.48c.048.039.1.083.146.126-.068.1-.136.2-.2.3-.057-.1-.116-.192-.177-.283.017-.031.035-.057.052-.087C8.472-42.676,8.533-42.694,8.594-42.711Zm.711-.68a.906.906,0,0,1-.1.031c-.072-.083-.144-.166-.215-.253.3-.5.606-.994.9-1.5.144.118.291.231.437.349C9.983-44.311,9.639-43.849,9.305-43.391Zm.244.414c.114-.026.228-.048.343-.07-.061.078-.12.161-.18.244C9.657-42.859,9.6-42.916,9.549-42.977Zm-.763-.3.128-.209c.04.057.081.113.122.17l-.222.065Zm.49.488.072-.1c.073.1.146.192.221.283l-.047.065C9.439-42.624,9.358-42.7,9.276-42.785Zm-.4,1.142c-.049-.109-.1-.214-.158-.318.092-.139.186-.283.28-.423.088.065.178.131.268.192C9.142-42.023,9.009-41.835,8.878-41.643Zm2.156-1.277c-.182.283-.388.562-.6.841l-.4-.392c.163-.227.328-.445.49-.663.091-.009.181-.022.272-.026a.233.233,0,0,0,.073-.449c.046-.061.092-.126.139-.192q.137.229.29.458C11.211-43.2,11.122-43.06,11.033-42.921Zm1.167.68a.119.119,0,0,0,.026.057c.1.109.206.214.309.318-.139.209-.281.414-.427.619a8.853,8.853,0,0,0-.893-.065l-.209-.209c.247-.405.5-.8.753-1.2A5.719,5.719,0,0,0,12.2-42.24Zm1.182.113c-.015.022-.03.039-.044.061l-.088.122-.084-.039.133-.227C13.325-42.184,13.353-42.158,13.382-42.127Zm1.907.527c-.273-.183-.533-.379-.785-.584a.11.11,0,0,0,.017-.022c.273.179.551.344.834.506C15.332-41.665,15.31-41.635,15.288-41.6Zm.8.445c-.088-.044-.179-.083-.266-.126s-.174-.1-.261-.153l.065-.1c.177.1.359.183.539.279C16.137-41.229,16.111-41.19,16.086-41.155Zm1.516.562-.059.092q-.589-.235-1.16-.51c.022-.035.043-.07.066-.1Q17.017-40.835,17.6-40.593Zm1.392-.1c-.245-.1-.487-.209-.728-.323.016-.022.031-.048.046-.074.238.118.48.227.725.331Zm.893.349q-.264-.092-.524-.2l.038-.065c.174.07.348.139.523.2C19.911-40.383,19.9-40.366,19.886-40.344Zm1.245.375-.408-.1c-.109-.031-.216-.065-.323-.1a.649.649,0,0,0,.034-.057c.245.078.489.144.733.2C21.156-40.008,21.143-39.991,21.131-39.969Zm14.62-.414c.143-.035.287-.065.431-.1l-.011.039Zm-1.265.82c.009-.074.013-.148.02-.218.517-.074,1.031-.153,1.545-.231-.025.092-.05.187-.075.279Q35.232-39.636,34.486-39.564Zm-.081.541c.475-.039.948-.092,1.421-.153-.049.187-.1.371-.149.554-.456.061-.913.109-1.371.148C34.342-38.657,34.375-38.84,34.405-39.023Zm-11.6.506c.325.052.65.1.977.153q-.256.5-.538.981c-.306-.061-.615-.131-.925-.2C22.493-37.89,22.654-38.2,22.808-38.518Zm-1.644-.318c.405.087.813.17,1.223.244-.147.305-.3.61-.464.911-.414-.1-.828-.209-1.243-.331Q20.924-38.424,21.164-38.836Zm-1.385-.344c.261.07.522.139.785.2-.149.266-.3.532-.451.793q-.406-.124-.809-.262C19.465-38.688,19.621-38.936,19.779-39.18Zm-1.08-.314.451.139.1.026s0,0,0,.009c-.149.235-.3.466-.451.7-.179-.065-.357-.131-.535-.2C18.4-39.041,18.551-39.267,18.7-39.494Zm-1.2-.283c.187.026.375.057.562.083l.2.065c-.147.214-.295.427-.441.636-.211-.083-.422-.17-.63-.266C17.3-39.433,17.4-39.607,17.5-39.777Zm-1.713-.257.084.013c.409.065.82.122,1.23.183-.09.139-.179.279-.269.418-.369-.174-.732-.349-1.087-.541C15.761-39.987,15.775-40.008,15.789-40.035Zm-2.673-1.051c.033-.048.065-.092.1-.135.006,0,.013.013.019.017-.031.039-.062.078-.093.122A.051.051,0,0,0,13.116-41.085Zm-.528.684c.03-.039.059-.078.088-.113a.155.155,0,0,1,.043.009q-.188.268-.37.536L12.29-40C12.4-40.152,12.5-40.292,12.589-40.4ZM11.055-41c.007,0,.012.013.019.017q.247.235.5.458c-.035.048-.069.092-.1.139-.3-.139-.611-.262-.925-.371.094-.157.187-.31.281-.466Zm1.833-.514a.2.2,0,0,0,.03.031c-.078.109-.156.214-.234.323h-.011Q12.781-41.34,12.888-41.517Zm1.888.693c-.015.026-.028.048-.042.07-.16-.035-.32-.065-.482-.1-.156-.1-.308-.214-.46-.323l.12-.17a2.052,2.052,0,0,0,.431-.013c.18.122.366.235.56.344C14.86-40.95,14.817-40.885,14.775-40.824Zm.9.244-.083-.013c-.157-.026-.315-.052-.473-.087.031-.052.062-.109.094-.166.158.083.318.161.481.24Zm2.939.445c-.048-.009-.095-.013-.143-.022-.2-.07-.409-.135-.611-.214.02-.031.04-.065.06-.1.242.1.484.192.73.279Zm4.008,1.029c-.157-.026-.316-.057-.473-.087.163.017.326.035.49.048Zm1.475.092-.067.144q-.494-.072-.985-.157l.034-.078c.215.017.431.039.647.057C23.853-39.036,23.976-39.023,24.1-39.015Zm2.4.445c-.362-.031-.724-.07-1.085-.113.031-.083.062-.161.092-.244.383.022.766.039,1.149.057C26.6-38.77,26.549-38.67,26.5-38.57Zm1.165-.27c-.077.118-.153.235-.229.353-.138-.013-.276-.022-.414-.035.042-.109.084-.222.123-.331Zm4.454-.549c-.044,0-.09,0-.134,0-.211.009-.421.017-.632.022,0,0,0,0,0,0l.806-.1C32.144-39.446,32.129-39.416,32.116-39.389Zm.9-.057-.588.039c.015-.035.03-.07.045-.1.2-.026.391-.048.586-.074C33.044-39.538,33.029-39.494,33.015-39.446Zm.611-.044c.015-.061.031-.118.046-.179.112-.017.225-.031.338-.048l-.044.2Zm-.239,1.081c.037-.179.08-.357.116-.541l.35-.026c-.037.183-.074.362-.11.545C33.624-38.422,33.505-38.413,33.387-38.409Zm-1.581.493c.286-.013.571-.022.857-.044l-.022.1c-.318.083-.635.166-.952.24C31.726-37.715,31.768-37.816,31.806-37.916Zm-1.094.026c.238,0,.475,0,.712-.009-.054.126-.106.257-.159.384-.275.065-.55.122-.826.179C30.532-37.519,30.623-37.7,30.712-37.89Zm-1.2-.009c.189.009.379.013.567.013-.09.231-.181.453-.275.671q-.35.065-.7.118C29.246-37.362,29.384-37.628,29.514-37.9Zm-.992-.031c.153.009.3.009.455.013-.15.305-.309.6-.473.9-.337.039-.676.074-1.021.1-.214.013-.429.022-.645.031q.359-.549.727-1.1C27.884-37.968,28.2-37.947,28.522-37.929Zm.679-.453-.308-.013c-.338-.017-.676-.035-1.014-.061.085-.122.171-.248.257-.371.419.009.839.009,1.259.009C29.332-38.67,29.268-38.526,29.2-38.382Zm2.417.039c-.232,0-.465,0-.7,0,.075-.166.147-.336.218-.5.238,0,.478-.013.717-.026Q31.734-38.6,31.618-38.343Zm1.133-.031c-.259.009-.518.017-.776.022.071-.174.144-.353.219-.527.226-.009.453-.017.68-.031C32.83-38.731,32.79-38.552,32.751-38.374Zm-2.291-.453c-.066.161-.131.318-.194.48l-.538-.013c.067-.153.131-.3.192-.453Zm-3.626.785c.1.009.2.013.3.022-.238.371-.471.745-.7,1.12-.03,0-.061,0-.092-.009C26.517-37.284,26.681-37.663,26.835-38.042Zm-1.606-.148c.34.035.681.07,1.022.1q-.3.562-.62,1.112-.4-.052-.812-.118C24.958-37.458,25.093-37.824,25.229-38.191Zm-.768-.615c.024-.057.045-.118.067-.174.222.017.444.031.666.044l-.092.214C24.888-38.749,24.674-38.775,24.461-38.805Zm.431.58c-.149.353-.3.711-.449,1.068-.227-.039-.455-.083-.685-.126.178-.336.344-.676.5-1.024C24.467-38.278,24.679-38.252,24.892-38.226Zm-11.18-3.6a.161.161,0,0,1-.023.031l-.043-.013c.011-.013.022-.031.032-.044Zm9.153,2.175c-.16-.013-.32-.026-.48-.044-.211-.039-.423-.083-.635-.126.017-.031.035-.057.053-.087a5.982,5.982,0,0,0,1.144.061C22.919-39.782,22.893-39.716,22.865-39.651Zm-4.841-1.578c-.016.026-.032.052-.049.074-.374-.179-.745-.366-1.114-.554l.061-.083Q17.449-41.51,18.023-41.229Zm.3-.466c-.016.026-.031.052-.046.074-.3-.126-.592-.262-.881-.392-.074-.031-.153-.07-.232-.1.019-.022.038-.048.058-.07C17.58-42.009,17.951-41.844,18.328-41.7Zm.328-.514c-.321-.122-.682-.262-1.057-.418q.2-.229.419-.445c.3.144.61.279.919.4C18.845-42.515,18.751-42.363,18.656-42.21ZM11.67-43.221c.069-.113.139-.227.206-.34l.035.026c-.073.113-.144.227-.216.34Zm-.112.244q-.388.621-.756,1.255l-.042-.039c.129-.214.251-.418.369-.6.137-.209.274-.427.408-.645C11.545-43,11.552-42.986,11.559-42.977Zm-.786-1.229c-.161.209-.323.418-.482.628-.171.022-.339.048-.506.083.261-.362.526-.715.794-1.072h0C10.64-44.451,10.7-44.333,10.772-44.207ZM8.018-45.392a9.558,9.558,0,0,1,1.145-.331l.436.366c-.273.458-.57.92-.876,1.386-.048-.065-.1-.126-.143-.192-.033-.048-.11-.009-.079.044.051.083.106.166.158.248-.061.092-.122.183-.184.279-.287-.3-.57-.593-.848-.9Q7.818-44.941,8.018-45.392Zm-.687.262c-.033.07-.063.144-.1.214-.039-.044-.077-.087-.115-.126C7.191-45.074,7.262-45.1,7.331-45.131Zm-1.02-1.133c.546-.153,1.092-.318,1.634-.51l.131.118c-.194.379-.382.759-.564,1.142-.193.083-.385.17-.576.257q-.358-.405-.71-.837Zm-.25-1.97c.075-.026.15-.052.225-.083.141.139.286.275.428.41-.252.488-.5.976-.741,1.469-.007,0-.015,0-.022.009-.126-.157-.251-.314-.377-.475-.037-.048-.075-.1-.113-.139C5.658-47.441,5.859-47.838,6.061-48.235Zm-1.23.418c.318-.1.633-.2.947-.314-.165.288-.328.575-.49.868C5.139-47.45,4.986-47.633,4.832-47.816Zm-.419-.1-.25.078c.033-.092.066-.179.1-.266C4.313-48.043,4.363-47.982,4.413-47.916Zm1.619-.658c-.015.026-.03.052-.045.078-.435.179-.872.344-1.313.493-.1-.118-.211-.231-.316-.344.181-.466.369-.924.562-1.382C5.282-49.337,5.652-48.954,6.031-48.575Zm-.99-1.443c.667-.118,1.336-.244,2-.379-.3.562-.61,1.116-.926,1.67-.389-.371-.77-.75-1.145-1.133Zm1.765,1.936c-.112-.1-.225-.2-.336-.305.21-.078.419-.166.627-.248C7-48.453,6.9-48.265,6.806-48.082Zm.82,1.024c-.381.157-.763.31-1.15.449.166-.353.335-.7.506-1.046C7.2-47.454,7.408-47.254,7.626-47.058ZM9.36-49c-.138-.135-.278-.266-.411-.405a.1.1,0,0,1-.018-.022q.466-.2.931-.418C9.692-49.564,9.525-49.285,9.36-49ZM10.6-47.847c.145-.07.291-.135.436-.2-.07.139-.14.283-.211.423C10.747-47.7,10.673-47.777,10.6-47.847Zm-1.479.131q.188-.373.381-.745c.119.135.243.266.369.392Q9.494-47.886,9.118-47.716Zm-.266,1.735c-.223.057-.443.126-.661.2.084-.187.169-.371.255-.554C8.581-46.212,8.716-46.1,8.852-45.981Zm.871.414c-.087-.07-.173-.144-.26-.214.138-.026.276-.048.416-.061,0,0,0,0,0,.009C9.826-45.745,9.775-45.658,9.723-45.567Zm.334-.6a5.337,5.337,0,0,0-.918.118l-.592-.5c.086-.183.171-.366.259-.545.491-.192.977-.392,1.456-.606.136.118.277.231.421.336C10.48-46.957,10.272-46.561,10.057-46.164Zm.993-4.211c.263.231.527.466.79.7-.142.279-.281.562-.421.846-.409.2-.818.405-1.229.606-.184-.166-.367-.336-.55-.506q.351-.674.714-1.334C10.586-50.17,10.818-50.27,11.05-50.375Zm-.315-.275a.5.5,0,0,1-.073.031c.012-.017.024-.044.037-.065C10.711-50.671,10.723-50.663,10.735-50.65Zm1.783-.34c-.213.4-.419.8-.622,1.2l-.769-.615C11.589-50.606,12.052-50.8,12.518-50.99ZM11.8-52.206l-.284.092c.048-.083.1-.166.148-.248C11.706-52.311,11.753-52.263,11.8-52.206Zm.408-1.081c.224-.052.448-.1.671-.153.21.179.415.371.617.562-.534.235-1.078.449-1.629.645-.055-.065-.113-.126-.17-.187C11.863-52.707,12.033-53,12.2-53.287Zm-1.17.266,1.034-.235q-.244.36-.486.719A4.871,4.871,0,0,0,11.035-53.021Zm-.52,2.123c-.11-.092-.22-.179-.33-.266.208-.061.413-.126.619-.187C10.706-51.2,10.611-51.051,10.515-50.9Zm.621-.558c.332-.109.66-.222.984-.344.1.139.205.275.307.414-.548.222-1.092.462-1.634.711a.846.846,0,0,1-.068-.057C10.861-50.972,11-51.216,11.136-51.456ZM7.79-49.276c.129-.253.258-.51.387-.767.116.144.228.288.344.427C8.278-49.5,8.034-49.39,7.79-49.276Zm.954-.065c.157.187.318.379.483.571-.257.445-.508.894-.752,1.351-.209.092-.418.183-.628.27-.261-.227-.518-.458-.774-.689q.245-.5.494-.994C7.96-49,8.353-49.172,8.744-49.342ZM4.072-47.6c.163-.044.326-.083.487-.131.194.248.385.5.573.754-.088.157-.173.318-.258.48-.292-.292-.588-.584-.89-.868C4.013-47.446,4.043-47.524,4.072-47.6Zm3.17,5.366.458-.17c-.1.153-.194.305-.289.462Zm-.563.2.435-.157c.068.126.137.257.208.384-.086.144-.172.283-.256.427-.138-.187-.279-.371-.424-.554C6.655-41.966,6.667-42,6.68-42.031ZM8.3-40.675c-.072-.087-.144-.179-.213-.266.147-.253.3-.5.459-.75.062.092.125.179.187.266A7.768,7.768,0,0,0,8.3-40.675Zm2.862,2.114a9.528,9.528,0,0,0,.782-.955l.078.052c-.218.34-.431.689-.639,1.033A2.3,2.3,0,0,1,11.161-38.561Zm1.932.719q-.446-.118-.889-.248c-.135-.039-.262-.087-.387-.135.2-.288.386-.549.45-.654s.129-.2.192-.305c.331.2.673.4,1.022.584-.1.183-.192.371-.285.558C13.164-37.977,13.13-37.912,13.093-37.842Zm4.468.131c.143-.231.287-.458.43-.684.175.074.35.144.526.209-.133.209-.265.414-.4.623C17.932-37.611,17.747-37.663,17.561-37.711Zm-.515.811c.044-.065.087-.135.13-.2.183.052.366.1.549.153-.04.061-.079.126-.119.187C17.42-36.809,17.234-36.857,17.047-36.9ZM32.1-35.88c-.354.052-.709.1-1.065.148.07-.214.14-.432.212-.645l.1-.013c.332-.057.664-.126,1-.2C32.282-36.368,32.2-36.129,32.1-35.88ZM26-40.152c.144-.331.3-.654.461-.968.364.061.729.113,1.1.161-.12.318-.243.636-.375.942C26.787-40.052,26.393-40.091,26-40.152Zm1,.536c-.034.074-.069.148-.1.227-.067,0-.134,0-.2,0l-.991-.052c.041-.1.08-.2.121-.3C26.216-39.69,26.608-39.647,27-39.616Zm-3.284-1c.1-.253.194-.506.288-.759.318.035.636.07.955.1-.085.292-.179.584-.285.876C24.354-40.462,24.035-40.536,23.716-40.614Zm.786.671c-.054.139-.113.275-.172.414-.342-.026-.683-.052-1.024-.083q.114-.268.224-.536C23.854-40.074,24.178-40,24.5-39.943Zm-2.05-.48c.221.061.441.113.661.17l-.042.1s0,0-.008,0c-.331-.044-.661-.109-.991-.179.036-.057.073-.113.11-.166C22.276-40.471,22.367-40.449,22.453-40.423Zm-5.3-3.082c.259.135.52.266.782.392-.167.135-.33.27-.488.418-.246-.109-.493-.222-.737-.349C16.852-43.2,17-43.361,17.152-43.5Zm-6.608-1.539c-.014-.031-.029-.057-.044-.083-.047-.092-.169-.035-.168.048l-.314-.248q.156-.268.306-.536c.032,0,.064,0,.1,0a.156.156,0,0,0,.068-.292c.178-.327.349-.654.517-.99.041.026.08.057.122.078a.092.092,0,0,0,.112-.144c-.043-.048-.089-.087-.132-.135.159-.318.315-.641.469-.968.389-.192.773-.392,1.147-.6.142.122.287.235.432.353C12.339-47.363,11.435-46.207,10.545-45.044ZM6.657-52.018c.235.327.479.645.722.968-.014.026-.028.057-.042.083-.7.161-1.4.318-2.094.475.2-.466.416-.929.634-1.391C6.138-51.923,6.4-51.971,6.657-52.018ZM3.5-51.46c-.051-.057-.1-.113-.154-.17.082,0,.164,0,.246-.009C3.56-51.583,3.529-51.522,3.5-51.46Zm.451-.2c.585-.035,1.165-.1,1.744-.187-.268.471-.52.946-.762,1.43l-.41.092c-.259-.275-.511-.554-.762-.837Q3.855-51.41,3.949-51.665ZM6.19-40.536c.089-.292.184-.584.28-.876.117.153.235.31.352.466-.134.235-.263.48-.385.719C6.356-40.331,6.273-40.431,6.19-40.536ZM5.615-38.4c.129-.549.276-1.094.431-1.63l.187.235A11.088,11.088,0,0,0,5.7-38.43Zm-.012.31c-.007-.013-.014-.022-.021-.035a.082.082,0,0,1,.032,0Zm11.843,3.261c-.239-.044-.478-.087-.715-.139a10.408,10.408,0,0,0,1.044-1.247c.287.078.575.153.863.227A7.779,7.779,0,0,1,17.446-34.834Zm7.29.972c-.177.349-.349.7-.515,1.055-.2-.022-.4-.048-.6-.074a11.184,11.184,0,0,0,.858-.972C24.566-33.853,24.651-33.857,24.736-33.862Zm.215-.623c.091-.131.178-.262.265-.4a.211.211,0,0,0,.052,0c-.071.126-.143.257-.212.388C25.021-34.49,24.987-34.485,24.951-34.485Zm.934-.9c.142-.231.287-.462.432-.689.567-.009,1.133-.035,1.694-.083l-.436.732Q26.73-35.383,25.885-35.383Zm4.327,2.241c.139-.427.276-.859.412-1.29.332-.044.663-.087,1-.135a6.021,6.021,0,0,0-.288,1.173C30.96-33.3,30.588-33.221,30.212-33.143Zm12.165-8.152c-.032.065-.064.135-.095.2-.26.083-.523.161-.786.24.019-.078.036-.153.055-.227C41.827-41.151,42.1-41.22,42.377-41.294Zm.272-.545-.081.157c-.306.074-.613.148-.921.218.033-.126.065-.257.1-.388Q42.2-41.852,42.649-41.839Zm-9.821,1.177c-.053.083-.1.17-.155.257-.342.065-.684.122-1.026.179.01-.031.023-.065.033-.1a.2.2,0,0,0-.365-.153c-.075.109-.145.222-.214.34-.25.035-.5.07-.752.1.062-.214.118-.432.166-.65C31.286-40.658,32.058-40.649,32.828-40.662ZM14.156-50.144c-.114.052-.227.1-.34.153A6.844,6.844,0,0,1,12.853-51c.025-.048.05-.1.074-.148.592-.227,1.19-.432,1.8-.606.064.052.128.1.194.153C14.687-51.1,14.431-50.619,14.156-50.144Zm1.6-3.749a13.293,13.293,0,0,1-.62,1.8.207.207,0,0,0-.257-.153c-.1.031-.206.065-.31.1-.179-.153-.358-.3-.538-.453.477-.231.946-.475,1.4-.741a.23.23,0,0,0-.231-.4c-.386.227-.781.427-1.18.619.141-.231.285-.458.436-.684.367-.087.733-.174,1.1-.266Q15.656-53.985,15.755-53.893Zm.013-.057c-.053-.048-.107-.092-.163-.139.043-.009.087-.022.13-.031a.151.151,0,0,0,.087-.057C15.805-54.1,15.788-54.024,15.769-53.95Zm-.981-.65L15-54.7l-.126.144Zm-.041.022c.034.013.067.031.1.044-.036.044-.075.087-.11.131-.186.022-.372.044-.558.074Q14.466-54.447,14.747-54.577ZM2.119-51.3c-.117.266-.22.541-.314.811-.165-.1-.337-.192-.51-.288-.026-.092-.051-.187-.078-.283-.125-.432.16-.4.583-.558a.5.5,0,0,0,.076-.026c.467.026.929.031,1.388.017.065.083.134.157.2.24-.248.488-.5.985-.731,1.491l-.051.013c-.251-.192-.512-.375-.784-.545.082-.283.171-.567.277-.85C2.188-51.312,2.133-51.334,2.119-51.3Zm.231,4.05c.428-.061.851-.135,1.268-.235-.225.567-.439,1.133-.645,1.709-.258-.231-.516-.458-.773-.671a.119.119,0,0,0-.037-.013C2.218-46.731,2.281-46.992,2.35-47.254ZM4.3-44.111a1.165,1.165,0,0,1-.116.035l.041-.118C4.253-44.167,4.278-44.137,4.3-44.111Zm.033-.388c.181-.488.384-.963.6-1.439.073-.013.146-.035.218-.048.132.144.259.292.388.436-.169.349-.379.759-.6,1.2-.109.044-.218.087-.328.126C4.521-44.316,4.429-44.407,4.336-44.5Zm-.718,3.928c-.051-.148-.1-.3-.152-.453a.241.241,0,0,0,.039-.109c.008-.074.022-.148.032-.222.078,0,.158,0,.236,0a5.161,5.161,0,0,0-.123.811Zm.515.462A6.02,6.02,0,0,1,4.288-41.4a5.4,5.4,0,0,0,.59-.1c.25.314.5.623.745.937-.169.593-.319,1.19-.445,1.792A8.932,8.932,0,0,0,4.132-40.109Zm.827,3.431q-.241-.7-.483-1.4c.19,0,.381,0,.572-.009-.039.218-.081.436-.114.654-.043.288.384.418.443.122.038-.192.082-.379.123-.567.011.017.023.039.034.057a7.323,7.323,0,0,0-.189,1.408A3.784,3.784,0,0,0,5-36.669.034.034,0,0,0,4.959-36.678Zm.981.2c-.008.031-.018.057-.026.087-.042.017-.083.031-.125.048.053-.323.114-.641.191-.95a.1.1,0,0,0,.029-.1c.074-.288.16-.567.252-.846l.179-.039A12.341,12.341,0,0,0,5.94-36.482Zm15.967,2.058c.181-.235.359-.484.534-.728.185.026.37.061.556.087.136.017.273.031.409.048-.116.2-.237.4-.366.6C22.664-34.415,22.286-34.415,21.907-34.424Zm4.059,1.779c-.523-.035-1.047-.078-1.572-.139.2-.366.4-.728.6-1.09.586-.031,1.163-.074,1.732-.122-.221.384-.44.763-.664,1.142A2.2,2.2,0,0,0,25.966-32.646ZM44.248-37.7q.134-.412.259-.824c.173-.113.344-.231.513-.349a7.178,7.178,0,0,0-.374.933C44.513-37.859,44.381-37.777,44.248-37.7Zm1.223-.724c.15-.349.273-.715.39-1.077.328-.253.653-.514.972-.78a3.868,3.868,0,0,1-.394.972c-.046.078.032.192.122.157.54-.209.687-1.016.807-1.587l.373-.327a6.185,6.185,0,0,0-.261,1.391C46.836-39.219,46.156-38.818,45.471-38.422Zm4.176-3.27c.1-.318.187-.65.265-.985a6.939,6.939,0,0,0,.806-.793c-.082.2-.158.392-.224.589A13.664,13.664,0,0,1,49.648-41.691Zm-29.36-1.181a.589.589,0,0,1-.027.057q-.414-.157-.819-.34c.01-.022.021-.044.031-.07Q19.878-43.036,20.288-42.873Zm-5.47-3.518c-.1.3-.216.6-.337.9-.168-.109-.333-.227-.5-.344.2-.244.408-.493.622-.732C14.675-46.508,14.745-46.447,14.818-46.391Zm-.45-3.222c-.058-.035-.114-.065-.169-.1.014-.022.029-.048.043-.07.128-.078.257-.157.381-.231C14.542-49.882,14.457-49.743,14.369-49.612Zm.977-1.9-.178-.144a12.94,12.94,0,0,0,.692-2.136c.033.035.063.07.093.1A11.57,11.57,0,0,1,15.346-51.508Zm.766-3.784a10.022,10.022,0,0,1-.146,1.539c-.031-.031-.061-.065-.093-.1a11.68,11.68,0,0,0,.222-1.391c0-.031-.055-.039-.06-.009-.045.314-.105.615-.173.911a.167.167,0,0,0-.174-.144c-.2,0-.393.022-.589.039-.046-.026-.092-.048-.139-.074.072-.1.146-.187.221-.283.256-.135.507-.279.749-.436C15.989-55.253,16.05-55.275,16.111-55.292ZM17.5-34.276c.523.1,1.052.183,1.585.244-.071.061-.146.118-.22.174Q18.175-34.047,17.5-34.276Zm1.61.488c.1-.065.189-.139.281-.209q.687.072,1.381.118c-.118.139-.237.279-.357.414C19.976-33.561,19.541-33.67,19.108-33.788Zm16.387.262c-.273.07-.546.139-.819.2.033-.061.065-.126.1-.192.229-.083.459-.166.687-.253.054-.017.106-.039.16-.061C35.578-33.731,35.538-33.626,35.5-33.526Zm2.6-.767a4.9,4.9,0,0,0,.331-.776c.221-.109.441-.218.659-.331-.16.318-.333.636-.519.942C38.41-34.4,38.253-34.35,38.1-34.293Zm1.605-.589c.167-.366.3-.75.415-1.072l.217-.118a13.017,13.017,0,0,1-.608,1.181A.052.052,0,0,1,39.7-34.882ZM53.524-48.867c.013-.061.031-.118.04-.174,0-.017-.019-.031-.028-.013a8.262,8.262,0,0,1-3.222,3.021c-.012-.017-.036-.026-.047,0s-.011.026-.017.039c-.367.209-.743.4-1.123.584,0-.013,0-.031,0-.044.015-.17-.275-.214-.3-.039-.013.078-.029.161-.043.244-.239.109-.479.214-.717.318,0-.113,0-.222,0-.336a.031.031,0,0,0-.06-.009c-.037.14-.07.275-.1.414-.313.135-.623.262-.925.384a44.4,44.4,0,0,1-8.814,2.424c-.285.048-.573.1-.861.139-2.24.1-4.481.279-6.716.344A27.939,27.939,0,0,1,16.766-45.78a.218.218,0,0,0-.354-.244s0,0-.007,0c-.14-.1-.279-.2-.417-.292a8.431,8.431,0,0,0-1.716-1.809,11.351,11.351,0,0,0,2.62-7.7.4.4,0,0,0-.5-.379c-1.905.541-3.744,1.264-5.62,1.875-1.285.231-2.581.405-3.832.628-1.936.34-4.567.384-6.318,1.5-.028-.083-.052-.166-.082-.248a.031.031,0,0,0-.059,0c-.038.135-.066.275-.1.414a2.931,2.931,0,0,0-.233.179.483.483,0,0,0-.13.488c.077.2.146.405.209.606-.1,2.646.947,5.685,1.626,8,1.026,3.5,2.331,6.914,3.409,10.4.141.453.946.554,1.022,0a32.338,32.338,0,0,1,.959-3.958c0-.013.013-.022.015-.035s.01-.052.016-.078c.024-.092.046-.183.069-.275.105-.061.209-.131.308-.2a.108.108,0,0,0-.109-.187l-.116.052c.009-.039.02-.078.028-.118a1.528,1.528,0,0,1,.6-.75.362.362,0,0,0,.141.122c2.185,1.085,4.294,2.306,6.478,3.4A28.3,28.3,0,0,0,22.4-32.162a31.685,31.685,0,0,0,13.833-.724c.638-.17,1.276-.362,1.908-.571a.253.253,0,0,0,.167.039,1.193,1.193,0,0,0,.625-.314,27.064,27.064,0,0,0,9.446-5.645,13.609,13.609,0,0,0,1.443-1.286,13.256,13.256,0,0,0,2.542-4c.039-.078.079-.157.117-.235l.2-.144a.278.278,0,0,0,.051-.4,17.647,17.647,0,0,0,.778-2.092c.137-.353.276-.706.419-1.055C54.029-48.823,53.7-49,53.524-48.867Z" transform="translate(0 -23.849)" fill="#1f2327"/>
      </g>
      <g id="Group_835" data-name="Group 835" transform="translate(183 2652.559)">
        <path id="Path_2513-2" data-name="Path 2513" d="M46.528-91.317c-.076-.044-.153-.092-.229-.135a1.119,1.119,0,0,0,.121-.022,1.527,1.527,0,0,0,.2-.065Q46.578-91.429,46.528-91.317ZM1.013-82.263c2.692-7.864,10.193-12.394,17.874-14.39a31,31,0,0,1,13.542-.423,27.132,27.132,0,0,1,7.379,2.315c1.588.8,3.1,1.931,4.761,2.629a1.853,1.853,0,0,0,.822.58c.366.288.737.571,1.116.846a.266.266,0,0,0,.366-.1,6.77,6.77,0,0,0,.491-.946.4.4,0,0,0,.314-.157,7.629,7.629,0,0,0,1.232-3.444c.844,2.542,1.763,5.057,2.587,7.6q.747,2.308,1.3,4.669a19.941,19.941,0,0,0,.1,2.245,12.144,12.144,0,0,0,.376,1.691c.125.436-.16.4-.583.558a25.051,25.051,0,0,1-4.471.959c-.619.065-1.239.14-1.859.257q-.479.092-.95.209A17.8,17.8,0,0,0,38.56-74.97c-.061.017-.121.039-.183.057A10.38,10.38,0,0,1,41.11-81.8a.421.421,0,0,0,0-.593,10.1,10.1,0,0,0-1.754-1.635.494.494,0,0,0-.184-.549C32.685-89.295,23.847-90.363,16.088-89a44.109,44.109,0,0,0-9.61,2.781C4.334-85.31,1.336-83.706.925-81.16a.016.016,0,0,0,.028.013c1.326-2.385,4.153-3.6,6.557-4.573a44.1,44.1,0,0,1,8.815-2.424c7.431-1.338,15.951-.2,22.177,4.255a8.521,8.521,0,0,0,1.716,1.809,11.345,11.345,0,0,0-2.62,7.694.4.4,0,0,0,.5.379c1.905-.536,3.744-1.264,5.62-1.875,1.285-.231,2.581-.405,3.833-.623,1.936-.34,4.567-.384,6.317-1.508.028.083.053.17.083.248a.031.031,0,0,0,.059,0c.038-.135.066-.275.1-.41.079-.061.158-.118.233-.179a.491.491,0,0,0,.13-.493c-.077-.2-.146-.4-.209-.6.1-2.65-.947-5.685-1.626-8-1.026-3.5-2.331-6.914-3.409-10.4-.141-.458-.946-.554-1.022,0a32.524,32.524,0,0,1-.959,3.958.1.1,0,0,0-.015.035c-.005.026-.01.052-.016.078-.063.24-.125.48-.181.724a1.509,1.509,0,0,1-.6.75.4.4,0,0,0-.142-.122c-2.184-1.085-4.294-2.306-6.477-3.392a28.147,28.147,0,0,0-7.723-2.228,31.751,31.751,0,0,0-13.833.724C10.538-95.263,3.1-90.332.866-82.307A.077.077,0,0,0,1.013-82.263Z" transform="translate(-0.487)" fill="#1f2327"/>
        <path id="Path_2514-2" data-name="Path 2514" d="M36.043-33.67c.051-.131.1-.262.154-.392q.7-.281,1.38-.6c-.132.222-.268.436-.4.667Q36.613-33.827,36.043-33.67ZM5.211-35.932c.045-.013.089-.022.134-.031,0,.031,0,.065,0,.1a.183.183,0,0,0,.366.009.585.585,0,0,1,.047.061c-.071.31-.131.628-.184.942C5.457-35.218,5.333-35.575,5.211-35.932Zm-2.57-7.642a.213.213,0,0,0,.1-.131s0,0,0-.009c.059,0,.117-.009.176-.009.185.183.362.375.537.567a11.428,11.428,0,0,0-.3,1.225c-.058-.174-.117-.349-.174-.527C2.87-42.829,2.754-43.2,2.641-43.574ZM15.413-44.9c-.233-.139-.459-.283-.687-.432.1-.305.2-.615.282-.924.041.026.082.057.125.083a.493.493,0,0,0,.184.549c.146.109.295.209.443.31C15.643-45.179,15.527-45.044,15.413-44.9ZM47.659-43.84c-.037.157-.073.318-.109.475-.279.161-.561.314-.847.462l-.043.013q.01-.275-.006-.549C46.99-43.57,47.325-43.7,47.659-43.84Zm.875-.122c-.184.118-.371.235-.558.344.017-.122.029-.244.042-.366.185-.078.379-.166.575-.257C48.573-44.146,48.554-44.054,48.534-43.962Zm1.277-.885s0,0,0,0q-.388.288-.787.562c.006-.057.011-.113.016-.17C49.295-44.573,49.552-44.7,49.811-44.847Zm2.519-1.548c-.008-.1-.017-.2-.024-.292.118-.122.229-.253.334-.384C52.536-46.844,52.433-46.622,52.33-46.395Zm-9.091,8.64c.061-.031.119-.065.179-.1a6.337,6.337,0,0,0-.341.929,10.791,10.791,0,0,0-.967.776.122.122,0,0,0,.019.2c-.149.074-.3.144-.447.214A11.4,11.4,0,0,0,43.239-37.755Zm-2.47,1.43q.719-.412,1.423-.85c.109-.07.22-.139.33-.2a.124.124,0,0,1,.034-.017,12.177,12.177,0,0,1-1.376,1.822.112.112,0,0,0-.034.087q-.532.242-1.074.458A13.2,13.2,0,0,0,40.769-36.325Zm-4.069.859c.362-.083.723-.166,1.081-.257-.387.179-.777.353-1.169.527Zm-1.476.841a.572.572,0,0,0-.076.031c.053-.2.1-.388.146-.571.3-.061.605-.122.907-.187-.047.131-.1.262-.146.392C35.779-34.843,35.5-34.734,35.224-34.625Zm-1.255,1.382c0,.022,0,.044,0,.07-.181.035-.363.07-.544.1C33.6-33.125,33.786-33.186,33.968-33.243Zm-7.729.615c.316-.462.64-.933.964-1.408.4-.039.794-.078,1.181-.122a10.713,10.713,0,0,1-.7,1.421q-.673.072-1.347.118C26.308-32.624,26.273-32.624,26.239-32.628Zm-4.787-1.221c.386.017.771.026,1.156.031a7.676,7.676,0,0,1-.6.68c-.329-.057-.657-.122-.986-.192C21.166-33.5,21.309-33.67,21.452-33.849ZM7.864-38.661c.021-.052.044-.1.067-.157l.052-.026a.119.119,0,0,0,0,.017.18.18,0,0,0,.071.1A1.412,1.412,0,0,0,7.864-38.661Zm-1.044.353.037-.1c.095-.026.19-.057.283-.087l-.018.039A.378.378,0,0,0,6.821-38.308ZM5.745-36.059l.086-.026c-.01.039-.02.078-.03.118l-.061-.065C5.742-36.041,5.744-36.05,5.745-36.059ZM5.018-36.5a3.493,3.493,0,0,1,.322.257v.052c-.065.022-.13.044-.2.061C5.1-36.255,5.06-36.382,5.018-36.5ZM4.2-39.3a3.9,3.9,0,0,1-.066-.58,9.25,9.25,0,0,1,.985,1.364c-.016.078-.027.161-.042.24a6.213,6.213,0,0,1-.64.1c-.107-.31-.214-.623-.321-.933A.194.194,0,0,0,4.2-39.3ZM4.1-42.441c-.092.253-.174.5-.244.75-.09.009-.182.013-.273.017.057-.375.126-.745.217-1.112C3.9-42.672,4-42.554,4.1-42.441Zm.033-1.473c.092-.022.186-.048.278-.074.077.092.157.174.232.266-.154.327-.3.667-.438,1.011-.112-.109-.222-.222-.335-.327Q3.985-43.483,4.131-43.914Zm-.465.1c-.051.148-.1.3-.143.449-.135-.126-.271-.253-.407-.375C3.3-43.753,3.485-43.775,3.666-43.81Zm-.833-.179c.132-.423.269-.846.408-1.264.236.24.47.48.694.728-.078.192-.148.388-.219.58a5.354,5.354,0,0,1-.7.118C2.958-43.88,2.9-43.932,2.834-43.989Zm-.043.139a.391.391,0,0,1,.047.044c-.021,0-.042,0-.063,0A.384.384,0,0,1,2.791-43.849ZM2.134-46.3c.226.2.441.4.656.606-.089.009-.177.026-.268.035-.02,0-.022.035,0,.035l.316-.026c.022.022.045.039.066.061-.152.427-.3.854-.443,1.286l-.045-.039c-.131-.458-.257-.915-.378-1.378C2.066-45.92,2.1-46.112,2.134-46.3Zm-.442-.824c0-.013,0-.031,0-.044a.252.252,0,0,1,.057,0c-.011.048-.023.1-.033.144C1.708-47.062,1.7-47.1,1.692-47.127Zm.1-3.326c-.089.257-.171.523-.247.785-.063-.362-.144-.719-.24-1.077C1.471-50.654,1.634-50.558,1.791-50.453ZM9.4-53.1c-.407.113-.816.222-1.226.331.01-.031.021-.057.031-.083.292-.061.584-.122.873-.192C9.187-53.06,9.294-53.082,9.4-53.1Zm5.123,2.8c.2-.384.391-.776.564-1.173.062.048.126.087.189.131a10.619,10.619,0,0,1-.568,1.177A.156.156,0,0,0,14.525-50.3ZM13.5-48.535a.08.08,0,0,1-.021-.017c.219-.331.428-.671.63-1.016.052.035.1.07.159.1A7.038,7.038,0,0,1,13.5-48.535Zm.206,2.507c-.174-.126-.349-.248-.521-.379a8.069,8.069,0,0,0,.271-1.112.031.031,0,0,0-.059-.017c-.111.34-.242.671-.381,1-.053-.039-.105-.083-.157-.122a10.218,10.218,0,0,0,.514-1.151s0,0,0,0c.331.331.644.689.979,1.011C14.135-46.543,13.92-46.286,13.71-46.029Zm1.3,1.639a2.294,2.294,0,0,1-.316-.619q.26.177.524.353C15.145-44.568,15.077-44.477,15.007-44.39Zm.789.1c-.116.126-.234.257-.349.392-.054-.052-.1-.1-.154-.157.1-.122.191-.248.29-.371C15.653-44.377,15.725-44.333,15.8-44.285Zm.524-.658a.132.132,0,0,0-.006.074c-.094.1-.187.214-.282.318l-.231-.131c.108-.131.214-.262.324-.388C16.19-45.026,16.255-44.982,16.32-44.943Zm2.939,1.709-.058-.026a5.588,5.588,0,0,1-.813-.484c.3.153.6.3.908.44C19.283-43.282,19.271-43.261,19.258-43.234Zm2,.763c-.277-.087-.552-.179-.824-.279l.017-.052q.407.163.82.314A.052.052,0,0,1,21.256-42.472Zm20.26.619c-.058.153-.116.305-.171.458q-.678.15-1.358.288c.051-.148.109-.292.167-.44.449-.092.9-.2,1.343-.305Zm1.181-.083c-.238-.013-.476-.022-.714-.035.289-.074.578-.153.866-.231C42.8-42.114,42.746-42.023,42.7-41.935Zm1.83-.449a.282.282,0,0,0-.527.122c0,.07-.007.139-.01.2-.274.078-.547.153-.822.227.058-.1.117-.209.179-.314a.2.2,0,0,0,.014-.2c.4-.113.788-.235,1.18-.357Q44.537-42.541,44.527-42.384Zm.793-.061c-.169.052-.339.1-.508.153-.007-.166-.018-.327-.033-.488.241-.078.481-.157.72-.24C45.439-42.829,45.379-42.637,45.32-42.445Zm.224-.07c.043-.187.086-.375.129-.562.267-.1.532-.2.8-.3-.019.192-.045.384-.078.575C46.109-42.7,45.827-42.607,45.544-42.515ZM49.635-44.2c-.22.113-.438.231-.657.349,0-.013,0-.026,0-.035.238-.17.475-.344.708-.523C49.671-44.337,49.652-44.268,49.635-44.2Zm1.308-1.26c-.256.48-.481.946-.769,1.386.018-.126.032-.257.048-.388.027-.013.054-.031.081-.044a.017.017,0,0,0-.015-.031c-.02.013-.04.022-.061.035.014-.122.028-.244.038-.366C50.494-45.057,50.72-45.253,50.942-45.458Zm.756.4a9.583,9.583,0,0,0,.147-1.177c.061-.052.117-.109.175-.166-.009.1-.018.209-.027.318-.012.148-.044.327-.042.5C51.868-45.41,51.784-45.235,51.7-45.061Zm-3.058,3.317c.17-.109.34-.222.507-.34-.075.3-.153.593-.248.876a.235.235,0,0,0,.079.279,9.729,9.729,0,0,1-.836.759A8.919,8.919,0,0,0,48.641-41.744ZM37.009-36.416c.462-.131.922-.275,1.379-.427-.036.135-.073.27-.111.405q-.678.183-1.368.34Zm-1.5.392c.338-.078.675-.161,1.01-.253-.033.1-.066.192-.1.283-.323.07-.648.135-.973.192C35.472-35.88,35.493-35.954,35.514-36.024Zm-1.836.523c.007-.044.014-.087.021-.126.38-.074.758-.153,1.135-.231-.025.057-.05.118-.076.183C34.4-35.614,34.038-35.558,33.678-35.5Zm-.114.641q.46-.072.919-.157c-.1.257-.2.514-.287.767-.28.1-.562.2-.847.283A8.255,8.255,0,0,0,33.564-34.86Zm-4.7.645c.417-.052.837-.1,1.257-.157-.15.445-.3.889-.452,1.334q-.846.157-1.7.262A9.267,9.267,0,0,0,28.865-34.215ZM27.78-34.9q.493-.026.984-.065c-.021.048-.043.092-.065.139-.344.044-.694.083-1.047.122Zm-2.417.4c.071-.122.143-.24.215-.362q.835.02,1.671-.013c-.045.078-.089.153-.133.231Q26.252-34.566,25.363-34.507Zm-2.168.689c.124,0,.248,0,.372-.009-.2.279-.393.554-.594.833-.005,0-.006.013-.01.017-.126-.017-.252-.039-.378-.061A8.376,8.376,0,0,0,23.195-33.818Zm.687-1.147c.15.013.3.022.451.035-.11.166-.225.327-.337.488l-.411.013Q23.738-34.69,23.882-34.965Zm-3-.488q.484.1.972.2c-.2.279-.411.549-.622.815-.412-.017-.824-.039-1.235-.074A10,10,0,0,0,20.878-35.453Zm-1.672-.4c.439.113.879.218,1.32.318a10.022,10.022,0,0,1-.879.985c-.523-.044-1.044-.1-1.56-.183A8.113,8.113,0,0,0,19.206-35.85Zm-5.58-.17c.2-.349.4-.7.586-1.055.4.087.794.17,1.179.253a3.328,3.328,0,0,0-.363.9.108.108,0,0,0-.2.052.646.646,0,0,0,.055.318.328.328,0,0,0,.091.126c-.231-.07-.46-.148-.688-.227C14.065-35.767,13.845-35.893,13.626-36.02Zm-4.1-3.038a4.406,4.406,0,0,0,.53.344l-.1.118a.139.139,0,0,0,.1.235.993.993,0,0,0,.524-.122.2.2,0,0,1,.044.017A3.19,3.19,0,0,1,10.1-38c-.058-.026-.118-.048-.177-.074a1.823,1.823,0,0,0-.68-.519C9.332-38.749,9.428-38.9,9.522-39.058Zm-.425.405c-.175-.135-.357-.27-.534-.405-.014-.026-.029-.048-.043-.074a.1.1,0,0,1,.029-.017c.015,0,.03,0,.046-.009a2.7,2.7,0,0,0,.445-.3c.119.109.24.218.365.314-.088.17-.175.344-.262.514C9.127-38.64,9.112-38.644,9.1-38.653ZM7.358-38.98c-.054-.078-.109-.157-.164-.235q.172-.386.364-.759c.113.148.227.3.34.445a.282.282,0,0,0-.284.126c-.085.135-.16.275-.234.414A.047.047,0,0,0,7.358-38.98Zm-.963.336c.079-.218.163-.436.253-.645l.129.157c-.06.135-.116.275-.171.414C6.536-38.692,6.466-38.67,6.4-38.644ZM4.63-41.809c-.085.017-.169.035-.255.048.024-.087.048-.174.075-.266C4.51-41.953,4.57-41.883,4.63-41.809Zm1.262-.357c-.3.1-.592.2-.895.275-.146-.157-.292-.318-.441-.466.112-.34.24-.676.378-1.007C5.26-42.973,5.579-42.572,5.892-42.166Zm-.539-2.145c.31-.118.618-.244.926-.375.189.227.371.458.554.689-.215.514-.414,1.033-.6,1.556-.367-.44-.749-.868-1.142-1.286C5.175-43.923,5.263-44.115,5.353-44.311Zm-.523.192c-.013.026-.026.052-.039.083l-.049-.052C4.771-44.1,4.8-44.111,4.83-44.119ZM3.392-45.7q.576-.065,1.159-.17c-.178.357-.346.715-.5,1.085-.242-.235-.487-.466-.733-.689C3.341-45.549,3.366-45.623,3.392-45.7ZM2.7-48.4c.279.244.553.493.822.75q-.562.15-1.136.262C2.482-47.729,2.588-48.065,2.7-48.4Zm-1.095-.841c0-.017.008-.035.011-.052.214.166.428.331.636.506a11.693,11.693,0,0,0-.482,1.508l-.084.013A19.682,19.682,0,0,0,1.607-49.242Zm.975-.619c-.3.078-.6.161-.895.244.059-.262.126-.514.2-.772A7.978,7.978,0,0,1,2.582-49.861Zm1.1-1.966c-.554.07-1.111.113-1.67.135a13.743,13.743,0,0,1,1.843-.48C3.8-52.058,3.742-51.94,3.684-51.827Zm2.421-.724c-.067.109-.132.222-.2.336-.623.131-1.25.248-1.879.34.042-.118.085-.235.127-.353C4.806-52.345,5.462-52.441,6.105-52.55Zm-.05.3c.051-.109.1-.214.155-.323a.291.291,0,0,0,.061-.009c.619-.061,1.239-.135,1.859-.257.012,0,.023,0,.035,0-.011.026-.023.057-.033.083C7.443-52.576,6.751-52.4,6.055-52.25ZM7.42-51.134c-.246-.292-.489-.593-.728-.889.42-.083.84-.174,1.261-.27C7.789-51.9,7.608-51.513,7.42-51.134ZM9-52.093l-.447-.34c-.017-.013-.034.017-.017.031.154.1.3.218.453.331-.154.27-.306.545-.459.82-.334.083-.669.161-1,.24-.017-.017-.034-.039-.051-.061.187-.405.368-.815.534-1.234.166-.039.332-.074.5-.118.262-.065.524-.126.786-.187C9.191-52.437,9.093-52.267,9-52.093Zm5.894-2.332c.015-.022.031-.039.047-.061.031.017.064.031.095.048Zm.07,2.6.033-.013c.016,0,.027-.013.041-.017-.01.022-.019.044-.029.065C14.99-51.8,14.975-51.809,14.96-51.822Zm-2.071,2.816c.3-.166.594-.331.882-.5-.166.266-.334.527-.509.789Zm-.477,2c.3-.414.59-.828.871-1.247a.435.435,0,0,0-.017.1,10.43,10.43,0,0,1-.649,1.308Zm-.4,1.112c-.018-.044-.042-.087-.057-.131a.03.03,0,1,0-.059.013c.017.07.041.131.063.2-.3.436-.618.863-.939,1.286-.1-.074-.195-.153-.293-.231.522-.689,1.049-1.378,1.559-2.075.071.061.144.122.217.179C12.348-46.4,12.184-46.146,12.013-45.9Zm.382.671a3.316,3.316,0,0,1-.194-.3c.194-.305.381-.615.553-.933.057.048.114.092.172.139C12.764-45.95,12.584-45.588,12.4-45.227Zm.368.436c-.05-.052-.1-.1-.146-.157a11.6,11.6,0,0,0,.5-1.216c.143.109.287.222.433.331C13.279-45.493,13.017-45.144,12.764-44.791Zm1,.85A7.644,7.644,0,0,1,13-44.56c.263-.362.534-.724.816-1.077.183.14.369.27.557.405C14.188-44.8,13.984-44.363,13.764-43.941Zm.613.405c-.1-.061-.2-.126-.3-.192.177-.379.34-.767.488-1.16a2.753,2.753,0,0,0,.282.706C14.689-43.967,14.532-43.753,14.378-43.535Zm.5.3-.14-.078c.119-.161.238-.327.36-.484q.062.078.129.157Zm1.292.427-.137.17c-.287-.139-.581-.288-.875-.445l.261-.353A5.113,5.113,0,0,0,16.174-42.812Zm.8-.793a5.545,5.545,0,0,0-.479.44,5.678,5.678,0,0,1-.85-.567c.112-.148.227-.292.34-.44C16.306-43.975,16.636-43.784,16.97-43.6Zm-.581-1.1a2.812,2.812,0,0,0,.4.562c-.116-.061-.232-.118-.347-.179-.082-.044-.161-.092-.243-.139C16.263-44.538,16.325-44.621,16.389-44.7Zm4.235,3.2c-.207-.065-.414-.131-.619-.2.08-.166.156-.331.225-.5.045.013.09.031.136.044a.11.11,0,0,0,.054,0c.184.057.36.113.527.161C20.837-41.844,20.731-41.674,20.624-41.508Zm1.237.388c-.252-.074-.5-.148-.755-.227.1-.179.2-.357.307-.536q.422.118.851.209C22.124-41.5,21.99-41.308,21.861-41.12Zm1.709-.314c-.088.235-.178.475-.27.711-.27-.07-.541-.144-.81-.218.146-.2.3-.4.456-.593C23.153-41.5,23.361-41.465,23.57-41.434Zm2.731.283c-.188.31-.362.632-.527.959-.275-.044-.549-.092-.823-.148a9.225,9.225,0,0,0,.168-.92q.466.039.933.065C26.134-41.181,26.217-41.164,26.3-41.151Zm2.111,1.2q-.451-.007-.9-.039c.094-.314.178-.628.255-.937q.613.078,1.229.131C28.8-40.514,28.606-40.235,28.412-39.952ZM29.831-40c-.3.026-.606.039-.908.044.163-.231.326-.462.491-.689a.2.2,0,0,0,.036-.113q.287.026.575.039Q29.942-40.353,29.831-40Zm3.6-.554c-.164.031-.328.065-.492.1.037-.07.069-.139.107-.209.153,0,.305-.013.457-.017C33.483-40.641,33.458-40.6,33.435-40.553Zm.817-.161c-.142.031-.284.057-.426.083,0-.022,0-.044,0-.065.142,0,.284-.013.426-.022C34.252-40.719,34.252-40.715,34.252-40.715Zm3.915-.052c.031-.139.063-.275.094-.41l.14-.026c.465-.078.928-.17,1.391-.266-.063.144-.122.292-.179.436C39.132-40.941,38.65-40.854,38.167-40.767Zm1.189.449c-.451.1-.9.187-1.358.27.023-.1.048-.2.072-.3.464-.083.927-.174,1.388-.266C39.422-40.514,39.389-40.418,39.355-40.318Zm1.758-.432q-.668.183-1.344.34c.027-.1.059-.192.088-.288q.673-.144,1.344-.3C41.172-40.915,41.142-40.832,41.113-40.75Zm2.853-.929q-.54.209-1.091.392c.028-.057.058-.113.087-.166.338-.1.675-.2,1.011-.305C43.972-41.73,43.969-41.7,43.967-41.678Zm.853-.344s0,0,0-.009a1.082,1.082,0,0,1,.111-.035C44.893-42.053,44.856-42.036,44.819-42.023ZM48.87-43c.034-.231.065-.466.091-.7.216-.135.433-.266.65-.4-.057.231-.111.466-.163.7C49.256-43.265,49.064-43.13,48.87-43Zm-7.52,5.349c.054-.131.108-.266.161-.4.17-.078.34-.148.51-.227.348-.161.69-.34,1.033-.514-.425.31-.852.606-1.29.885C41.627-37.82,41.488-37.737,41.35-37.654Zm-.811.484c.056-.174.112-.349.163-.527.113-.044.226-.1.339-.148-.06.166-.12.327-.182.488-.105.065-.211.126-.317.187Zm-.587-.231c-.065.17-.133.344-.2.514-.29.1-.582.2-.877.283.039-.148.079-.292.115-.44C39.31-37.157,39.631-37.28,39.951-37.4Zm-.706-.776q.542-.131,1.084-.275c-.031.092-.061.179-.092.266q-.539.229-1.086.445C39.183-37.885,39.215-38.029,39.246-38.178Zm-1.845.436c.435-.1.87-.2,1.3-.3-.01.039-.02.074-.031.113-.035.135-.07.27-.105.4q-.675.248-1.364.471C37.271-37.284,37.336-37.515,37.4-37.742Zm-1.478.327c.1-.022.2-.048.293-.07.254-.052.507-.109.762-.166-.08.248-.161.5-.242.741-.344.1-.692.2-1.041.292C35.772-36.878,35.849-37.149,35.922-37.415Zm-2.09,1.072c.045-.2.093-.405.141-.615.444-.109.888-.214,1.33-.318-.059.209-.118.423-.181.632-.018.061-.039.122-.061.187-.418.1-.838.2-1.264.279C33.809-36.229,33.82-36.286,33.832-36.342Zm-1.011.349c.064-.244.123-.493.184-.737.133-.031.266-.061.4-.1-.027.118-.052.231-.08.344-.033.139-.072.275-.112.414C33.08-36.041,32.952-36.015,32.821-35.994Zm-.142.636c.007-.031.013-.065.019-.1.113-.017.227-.039.34-.057-.011.035-.023.07-.035.109C32.894-35.388,32.786-35.37,32.679-35.357Zm-.126.658.24-.039a8.532,8.532,0,0,0-.25,1.02c-.09.026-.18.048-.271.074A8.079,8.079,0,0,0,32.552-34.7Zm-1.688-.488c.344-.044.688-.087,1.03-.135l-.03.078c-.343.048-.685.092-1.024.135C30.847-35.135,30.855-35.161,30.864-35.187Zm-.484.061-.028.078c-.368.052-.736.1-1.1.144-.016,0-.031,0-.047.009.02-.039.037-.078.055-.118C29.635-35.043,30.008-35.082,30.38-35.126Zm-.516-1.085c.312-.026.624-.057.938-.1-.078.214-.155.423-.231.641-.347.039-.694.074-1.041.109C29.639-35.776,29.751-35.994,29.863-36.211Zm-1.3.061q.382-.007.766-.026c-.1.222-.2.44-.309.663-.3.022-.593.044-.89.061C28.28-35.684,28.425-35.919,28.566-36.15Zm-3.037.767c.135-.227.266-.453.391-.689h.02c-.134.227-.266.458-.4.689Zm-1.111-.724c.221.013.442.017.665.022-.141.227-.286.449-.432.671-.176-.013-.35-.031-.524-.044C24.228-35.671,24.325-35.889,24.418-36.107Zm-1.294-.074c.284.017.57.039.858.052-.1.214-.2.423-.311.628-.3-.031-.607-.074-.909-.118C22.885-35.806,23.006-35.994,23.124-36.181Zm-1.582-.144c.325.035.654.065.988.1q-.171.255-.348.51-.475-.085-.947-.183C21.34-36.041,21.442-36.181,21.541-36.325Zm-1.805-.214c.146.022.292.044.436.061.314.039.638.074.966.109-.088.131-.18.262-.272.388-.438-.1-.875-.2-1.313-.305C19.615-36.368,19.676-36.451,19.736-36.538ZM18.29-36.6c-.069-.017-.136-.031-.205-.048l.126-.183c.312.074.621.139.929.192-.051.074-.107.144-.159.214C18.75-36.482,18.52-36.538,18.29-36.6Zm-1.759.519c.084-.135.167-.266.25-.4l.554.144a9.375,9.375,0,0,1-.871,1.3c-.207-.048-.412-.1-.616-.148C15.987-35.444,16.407-35.885,16.531-36.081Zm-.9.279a1.216,1.216,0,0,0-.111.536c-.112-.031-.223-.065-.335-.1a.267.267,0,0,0,.072-.035A1.733,1.733,0,0,0,15.63-35.8Zm.48-.846c-.037.052-.073.109-.109.166.025-.061.05-.118.073-.174C16.086-36.652,16.1-36.652,16.11-36.647Zm.224-.724c.082.031.164.052.247.083-.061.078-.122.157-.183.24l-.163-.039C16.268-37.184,16.3-37.28,16.334-37.371Zm-1.63-.636c.351.153.706.3,1.065.432-.058.113-.116.227-.174.344-.385-.092-.772-.179-1.156-.27C14.528-37.672,14.616-37.842,14.7-38.008Zm-1.043.314c.1-.222.2-.44.3-.663.1.052.209.1.315.153-.1.2-.208.388-.311.584C13.861-37.646,13.76-37.668,13.661-37.694Zm-.215.445.284.065c-.166.314-.331.623-.5.933-.092-.057-.184-.113-.276-.166A6.913,6.913,0,0,0,13.446-37.249Zm-2.123-.139a3.483,3.483,0,0,1,.27-.5,8.294,8.294,0,0,0,1.275.48,3.175,3.175,0,0,0-.281.767c-.418-.253-.838-.506-1.264-.741Zm-.446-.9c.1.065.2.122.3.179-.1.148-.222.314-.313.48q-.267-.137-.539-.262A3.112,3.112,0,0,0,10.877-38.287Zm-1.093-1.2c.075.113.153.231.235.34-.1-.07-.207-.144-.309-.218C9.734-39.411,9.759-39.45,9.783-39.49Zm-.263-.445c.051.092.1.183.157.27l-.1.2c-.1-.07-.191-.144-.285-.218Q9.407-39.8,9.521-39.934Zm-.829-.292a7,7,0,0,1,.323-.68c.064.122.129.253.194.379-.117.157-.227.318-.333.48C8.813-40.109,8.752-40.165,8.691-40.226Zm-.234.9-.037.013s0-.009,0-.009a4.7,4.7,0,0,1,.169-.623,1.826,1.826,0,0,0,.128.144C8.62-39.642,8.534-39.485,8.457-39.324Zm-.486-1.421c.071.1.143.2.217.305a3.846,3.846,0,0,0-.164.458c-.083-.135-.169-.266-.256-.4Q7.868-40.562,7.972-40.745ZM7.415-40.9c.068-.131.138-.262.208-.388.046.074.092.153.141.227-.071.122-.14.244-.208.366C7.509-40.763,7.463-40.828,7.415-40.9Zm-.225.436.137.183c-.129.244-.251.493-.368.741-.042-.057-.082-.118-.125-.174C6.948-39.965,7.065-40.213,7.19-40.462Zm-1.426-.58c-.159-.187-.317-.371-.481-.554q.364-.092.722-.209C5.921-41.552,5.841-41.3,5.763-41.042Zm1.129-1.582c.012.022.024.048.037.07a.547.547,0,0,1-.073.031C6.867-42.559,6.879-42.594,6.892-42.624Zm.813-.231-.667.262-.094-.179c.091-.24.186-.484.281-.728C7.388-43.287,7.546-43.073,7.7-42.855Zm-.3-1.107c.242.3.493.58.757.846L8.085-43a.044.044,0,0,0-.02.009c-.218-.3-.454-.589-.7-.872C7.38-43.9,7.393-43.928,7.406-43.962ZM6.7-44.869q.16.216.326.432c-.018.044-.038.087-.057.126-.149-.161-.3-.323-.449-.48Zm-.576,0c-.214.1-.429.2-.644.3.109-.227.218-.449.326-.667C5.911-45.118,6.019-45,6.123-44.874ZM5.9-45.436c.051-.1.1-.2.152-.305l.492.667c-.068.031-.136.065-.2.1C6.194-45.135,6.046-45.288,5.9-45.436Zm-.133-.689c.011.013.022.031.033.044-.057.118-.117.235-.173.357l-.289-.3C5.482-46.059,5.625-46.09,5.768-46.125Zm-.676-.153c.072-.157.144-.31.219-.462l.31.418c-.147.044-.3.087-.443.126C5.15-46.221,5.122-46.251,5.093-46.277ZM4.8-46.36c-.054.1-.11.209-.163.314-.4.1-.806.187-1.217.257.167-.488.338-.976.517-1.46Q4.379-46.811,4.8-46.36Zm-2.52-2.5c-.214-.17-.43-.336-.649-.5.009-.044.018-.087.027-.126l.949-.144Q2.436-49.244,2.281-48.858Zm.791-.558c.325.314.633.65.929.994-.1.24-.2.484-.3.724a.308.308,0,0,0-.061.017c-.3-.275-.6-.545-.913-.8C2.839-48.8,2.954-49.106,3.073-49.416Zm1.633-.545c-.211.44-.416.881-.61,1.33a13.132,13.132,0,0,0-.976-.907c.023-.061.047-.118.07-.179C3.691-49.8,4.2-49.874,4.705-49.961Zm-.31-.34c-.361.083-.72.17-1.079.257.136-.344.273-.689.41-1.038C3.946-50.82,4.167-50.558,4.395-50.3Zm3.592.022c-.222.405-.442.806-.66,1.212-.358.161-.717.318-1.078.466.311-.606.621-1.212.916-1.822.2-.039.4-.083.6-.126C7.838-50.458,7.913-50.371,7.986-50.279Zm.064-.113c-.054-.061-.109-.126-.162-.187l.3-.065C8.143-50.562,8.1-50.48,8.05-50.392Zm2.1-.763c.115.1.23.2.344.3-.1.148-.192.3-.288.453-.506.24-1.011.475-1.517.715q-.223-.242-.441-.484l.277-.549Q9.341-50.92,10.147-51.155Zm-.483-.392-.84.222c.105-.214.21-.423.314-.636C9.314-51.827,9.49-51.692,9.663-51.548Zm1.323-1.46a4.651,4.651,0,0,1,.565.519c-.1.157-.208.31-.311.466-.512.17-1.03.323-1.551.466-.18-.14-.361-.283-.543-.423.11-.222.218-.449.326-.676C9.976-52.773,10.48-52.895,10.986-53.008Zm2.644.065c-.217-.179-.437-.353-.66-.519.422-.1.844-.2,1.264-.3-.19.257-.371.523-.546.789Zm-.037.541c.089-.044.18-.083.268-.122.157.148.317.3.479.44-.38.122-.758.248-1.132.388C13.334-51.931,13.462-52.171,13.593-52.4Zm-1.075.976q-.158-.2-.319-.405c.35-.131.693-.27,1.033-.414-.139.231-.276.466-.409.7Zm-.351,1.853c.207-.44.416-.881.631-1.317a6.826,6.826,0,0,0,.863.968c-.4.187-.8.379-1.2.58C12.361-49.42,12.263-49.494,12.167-49.573Zm-.228.484c.056-.118.112-.235.167-.353l.2.17Zm-.364,5.3c-.049.078-.1.161-.146.24-.1-.139-.2-.283-.287-.432.022-.026.043-.057.065-.087C11.329-43.98,11.452-43.884,11.575-43.792ZM11.7-44l-.353-.275c.265-.371.527-.745.776-1.133a3.588,3.588,0,0,0,.188.331C12.12-44.717,11.915-44.355,11.7-44Zm.338.262A.288.288,0,0,0,12-43.775c.189-.327.37-.658.536-1,.038.048.077.1.117.144C12.444-44.337,12.24-44.041,12.042-43.74Zm1.405.388c-.121-.048-.242-.1-.364-.139a.1.1,0,0,0-.133.1c-.065-.044-.127-.087-.194-.131-.144-.087-.265.078-.21.209a3.335,3.335,0,0,0,.442.741c-.075.122-.152.248-.23.366a3.672,3.672,0,0,1-.673-.541c-.063-.065-.117-.139-.177-.2.085-.131.169-.262.255-.392.026.022.052.039.078.061.127.1.248-.118.124-.214l-.068-.052c.188-.279.383-.558.58-.833a6.8,6.8,0,0,0,.768.671C13.58-43.588,13.514-43.47,13.447-43.352Zm.616.257c-.08-.035-.161-.07-.242-.1.046-.1.093-.187.138-.283.084.061.168.118.253.174Zm.5.227-.114-.052c.039-.052.078-.1.117-.161.038.026.078.048.116.074C14.642-42.964,14.6-42.916,14.563-42.868Zm1.194.589c-.289-.148-.58-.292-.872-.436.03-.039.06-.078.09-.122.289.166.576.323.849.471C15.8-42.336,15.779-42.31,15.757-42.28Zm.738.266c.065.031.131.065.2.1-.024.031-.048.052-.07.083l-.607-.314.063-.092C16.222-42.158,16.363-42.084,16.5-42.014Zm.538-.275c-.024.026-.049.048-.073.074-.214-.1-.439-.2-.673-.31.034-.048.069-.092.105-.139C16.6-42.533,16.811-42.406,17.033-42.288Zm1.884.179c.086-.157.171-.31.252-.471q.4.157.809.288c-.089.157-.18.318-.274.475C19.441-41.914,19.178-42.009,18.918-42.11Zm.4.915c-.254-.1-.5-.2-.754-.305.017-.031.033-.057.049-.083.259.1.52.187.779.275C19.367-41.268,19.342-41.229,19.317-41.194Zm.895.331c-.184-.061-.366-.131-.548-.2.025-.048.049-.092.073-.135.194.061.386.122.575.174Zm1.232.379c-.244-.065-.486-.135-.728-.214.035-.057.07-.113.105-.174.257.074.5.139.736.2C21.519-40.606,21.482-40.545,21.444-40.484Zm3.978,1.029c-.237-.013-.474-.031-.711-.048.042-.126.082-.257.119-.384.247.039.493.078.74.113C25.52-39.664,25.47-39.559,25.422-39.455Zm2.652,0c-.248.017-.5.035-.741.044.019-.057.036-.118.055-.174.251.013.5.022.754.031C28.119-39.52,28.1-39.485,28.074-39.455Zm.524-.039.034-.052c.154,0,.308,0,.461,0C28.928-39.525,28.763-39.512,28.6-39.494Zm7.817-.99c0-.022,0-.044,0-.061.534-.139,1.068-.283,1.6-.445-.027.087-.054.174-.081.257Q37.177-40.6,36.416-40.484Zm-.036.693c.008-.092.011-.183.017-.275q.7-.111,1.407-.235c-.031.1-.062.2-.094.305C37.267-39.921,36.824-39.852,36.379-39.791Zm.987.907c-.38.07-.762.135-1.146.192.035-.183.068-.362.094-.545q.611-.085,1.218-.183Zm1.666-.371c-.432.109-.868.209-1.306.3.045-.174.09-.344.134-.523.44-.078.878-.161,1.313-.257Q39.1-39.5,39.032-39.254Zm1.749-.527c-.171.061-.343.118-.517.174-.249.078-.5.153-.753.227.034-.153.07-.305.107-.458q.651-.15,1.293-.327C40.868-40.035,40.824-39.908,40.781-39.782Zm1.127-.427c-.207.087-.415.166-.624.248.026-.113.052-.222.078-.331.221-.065.441-.131.66-.2C41.983-40.4,41.945-40.3,41.908-40.209Zm1.995-.9c-.468.231-.941.453-1.419.663.034-.078.067-.153.1-.227.446-.153.889-.314,1.326-.484C43.907-41.146,43.905-41.129,43.9-41.111Zm3.823-1.133c.058-.262.111-.519.157-.785.169-.1.337-.209.505-.318-.065.27-.133.536-.2.8Zm-6.367,3.514c-.007.022-.014.039-.02.057-.14.065-.279.131-.421.192.012-.044.024-.092.035-.135C41.088-38.657,41.224-38.692,41.359-38.731Zm2.353-1.4c-.522.183-1.049.357-1.58.519l.1-.235c.539-.227,1.068-.475,1.59-.75C43.784-40.444,43.75-40.287,43.711-40.135Zm1.026-.44c.023-.183.041-.371.054-.558.048-.026.1-.057.145-.083C44.87-41,44.8-40.789,44.737-40.575Zm1.22-.567c-.238.144-.478.288-.719.427-.026.009-.052.022-.078.031l-.063.026q.1-.379.188-.759c.311-.183.618-.371.925-.562C46.135-41.7,46.049-41.417,45.957-41.142Zm1.253-.776c-.252.161-.5.318-.756.475.061-.257.109-.514.146-.776.269-.166.535-.336.8-.506-.058.253-.117.5-.179.75C47.218-41.953,47.215-41.935,47.21-41.918Zm-6.051,2.476c.177-.061.354-.126.529-.192-.021.052-.042.109-.063.166-.164.048-.329.092-.493.14C41.141-39.368,41.15-39.407,41.159-39.442Zm-1.743.475c.133-.031.267-.057.4-.087.267-.065.531-.135.792-.214l-.031.092c-.393.1-.786.2-1.181.3C39.4-38.906,39.41-38.936,39.416-38.967Zm-1.783.366c.43-.078.859-.166,1.289-.257-.009.031-.018.065-.027.1-.432.1-.864.2-1.3.3Zm-1.484.253c.369-.057.738-.113,1.106-.179-.016.048-.032.1-.048.153-.369.083-.738.161-1.106.24C36.119-38.2,36.134-38.273,36.149-38.348Zm-1.927.283a.1.1,0,0,0,.013-.026c.449-.048.9-.1,1.344-.166-.023.083-.044.161-.067.244l-1.364.288Q34.186-37.894,34.222-38.064Zm-.635.4c0,.026-.01.048-.015.074-.062.009-.123.026-.185.039C33.455-37.589,33.52-37.628,33.587-37.668ZM22.04-37.1c.187.048.373.1.559.139-.206-.017-.412-.031-.616-.048ZM20.4-37.55c.416.126.833.248,1.247.357l-.092.157c-.3-.026-.594-.052-.89-.083-.166-.017-.331-.039-.5-.061C20.249-37.3,20.325-37.423,20.4-37.55Zm-1.392-.458c.277.1.554.2.834.288-.092.153-.186.3-.282.453-.311-.052-.622-.113-.93-.179C18.759-37.633,18.884-37.82,19.009-38.008Zm-2.041-.828c.191.087.382.174.576.257-.1.144-.2.288-.3.432-.045.065-.12.161-.212.279-.155-.048-.309-.1-.463-.148C16.692-38.3,16.827-38.57,16.968-38.836Zm-1.434-.745c.342.2.692.379,1.049.558-.121.192-.24.388-.355.589-.03.048-.079.139-.139.253-.175-.061-.35-.126-.523-.192s-.369-.153-.551-.235C15.186-38.932,15.357-39.259,15.534-39.581Zm-.972-.065c.07-.126.142-.262.214-.4.131.087.265.166.4.248q-.3.49-.575.994c-.122-.057-.244-.118-.365-.174C14.34-39.211,14.448-39.437,14.562-39.647Zm-1.756-.083c.15-.227.3-.453.456-.676.379.065.76.118,1.14.17q-.313.51-.6,1.033C13.47-39.376,13.138-39.555,12.806-39.729Zm-2.329-.915c.231.2.473.4.724.593-.25.314-.507.615-.767.915a7.348,7.348,0,0,1-.517-.575C10.1-40.026,10.29-40.335,10.477-40.645Zm.108-.824a.419.419,0,0,0,.048.048c-.289.51-.568,1.024-.842,1.543-.05-.065-.1-.131-.149-.2A11.935,11.935,0,0,0,10.585-41.469Zm-.921-.484c.107.057.216.113.327.161s.225-.078.13-.17-.179-.174-.268-.257a.107.107,0,0,1,.019-.026c.119.139.242.275.366.41-.323.405-.656.806-.966,1.221-.075-.113-.151-.231-.227-.349A11.5,11.5,0,0,1,9.664-41.953Zm-1.5-.279.176.248c-.16.248-.316.5-.467.75-.051-.074-.1-.153-.15-.227Q7.936-41.852,8.161-42.232Zm.433-.48c.048.039.1.083.146.126-.068.1-.136.2-.2.3-.057-.1-.116-.192-.177-.283.017-.031.035-.057.052-.087C8.472-42.676,8.533-42.694,8.594-42.711Zm.711-.68a.906.906,0,0,1-.1.031c-.072-.083-.144-.166-.215-.253.3-.5.606-.994.9-1.5.144.118.291.231.437.349C9.983-44.311,9.639-43.849,9.305-43.391Zm.244.414c.114-.026.228-.048.343-.07-.061.078-.12.161-.18.244C9.657-42.859,9.6-42.916,9.549-42.977Zm-.763-.3.128-.209c.04.057.081.113.122.17l-.222.065Zm.49.488.072-.1c.073.1.146.192.221.283l-.047.065C9.439-42.624,9.358-42.7,9.276-42.785Zm-.4,1.142c-.049-.109-.1-.214-.158-.318.092-.139.186-.283.28-.423.088.065.178.131.268.192C9.142-42.023,9.009-41.835,8.878-41.643Zm2.156-1.277c-.182.283-.388.562-.6.841l-.4-.392c.163-.227.328-.445.49-.663.091-.009.181-.022.272-.026a.233.233,0,0,0,.073-.449c.046-.061.092-.126.139-.192q.137.229.29.458C11.211-43.2,11.122-43.06,11.033-42.921Zm1.167.68a.119.119,0,0,0,.026.057c.1.109.206.214.309.318-.139.209-.281.414-.427.619a8.853,8.853,0,0,0-.893-.065l-.209-.209c.247-.405.5-.8.753-1.2A5.719,5.719,0,0,0,12.2-42.24Zm1.182.113c-.015.022-.03.039-.044.061l-.088.122-.084-.039.133-.227C13.325-42.184,13.353-42.158,13.382-42.127Zm1.907.527c-.273-.183-.533-.379-.785-.584a.11.11,0,0,0,.017-.022c.273.179.551.344.834.506C15.332-41.665,15.31-41.635,15.288-41.6Zm.8.445c-.088-.044-.179-.083-.266-.126s-.174-.1-.261-.153l.065-.1c.177.1.359.183.539.279C16.137-41.229,16.111-41.19,16.086-41.155Zm1.516.562-.059.092q-.589-.235-1.16-.51c.022-.035.043-.07.066-.1Q17.017-40.835,17.6-40.593Zm1.392-.1c-.245-.1-.487-.209-.728-.323.016-.022.031-.048.046-.074.238.118.48.227.725.331Zm.893.349q-.264-.092-.524-.2l.038-.065c.174.07.348.139.523.2C19.911-40.383,19.9-40.366,19.886-40.344Zm1.245.375-.408-.1c-.109-.031-.216-.065-.323-.1a.649.649,0,0,0,.034-.057c.245.078.489.144.733.2C21.156-40.008,21.143-39.991,21.131-39.969Zm14.62-.414c.143-.035.287-.065.431-.1l-.011.039Zm-1.265.82c.009-.074.013-.148.02-.218.517-.074,1.031-.153,1.545-.231-.025.092-.05.187-.075.279Q35.232-39.636,34.486-39.564Zm-.081.541c.475-.039.948-.092,1.421-.153-.049.187-.1.371-.149.554-.456.061-.913.109-1.371.148C34.342-38.657,34.375-38.84,34.405-39.023Zm-11.6.506c.325.052.65.1.977.153q-.256.5-.538.981c-.306-.061-.615-.131-.925-.2C22.493-37.89,22.654-38.2,22.808-38.518Zm-1.644-.318c.405.087.813.17,1.223.244-.147.305-.3.61-.464.911-.414-.1-.828-.209-1.243-.331Q20.924-38.424,21.164-38.836Zm-1.385-.344c.261.07.522.139.785.2-.149.266-.3.532-.451.793q-.406-.124-.809-.262C19.465-38.688,19.621-38.936,19.779-39.18Zm-1.08-.314.451.139.1.026s0,0,0,.009c-.149.235-.3.466-.451.7-.179-.065-.357-.131-.535-.2C18.4-39.041,18.551-39.267,18.7-39.494Zm-1.2-.283c.187.026.375.057.562.083l.2.065c-.147.214-.295.427-.441.636-.211-.083-.422-.17-.63-.266C17.3-39.433,17.4-39.607,17.5-39.777Zm-1.713-.257.084.013c.409.065.82.122,1.23.183-.09.139-.179.279-.269.418-.369-.174-.732-.349-1.087-.541C15.761-39.987,15.775-40.008,15.789-40.035Zm-2.673-1.051c.033-.048.065-.092.1-.135.006,0,.013.013.019.017-.031.039-.062.078-.093.122A.051.051,0,0,0,13.116-41.085Zm-.528.684c.03-.039.059-.078.088-.113a.155.155,0,0,1,.043.009q-.188.268-.37.536L12.29-40C12.4-40.152,12.5-40.292,12.589-40.4ZM11.055-41c.007,0,.012.013.019.017q.247.235.5.458c-.035.048-.069.092-.1.139-.3-.139-.611-.262-.925-.371.094-.157.187-.31.281-.466Zm1.833-.514a.2.2,0,0,0,.03.031c-.078.109-.156.214-.234.323h-.011Q12.781-41.34,12.888-41.517Zm1.888.693c-.015.026-.028.048-.042.07-.16-.035-.32-.065-.482-.1-.156-.1-.308-.214-.46-.323l.12-.17a2.052,2.052,0,0,0,.431-.013c.18.122.366.235.56.344C14.86-40.95,14.817-40.885,14.775-40.824Zm.9.244-.083-.013c-.157-.026-.315-.052-.473-.087.031-.052.062-.109.094-.166.158.083.318.161.481.24Zm2.939.445c-.048-.009-.095-.013-.143-.022-.2-.07-.409-.135-.611-.214.02-.031.04-.065.06-.1.242.1.484.192.73.279Zm4.008,1.029c-.157-.026-.316-.057-.473-.087.163.017.326.035.49.048Zm1.475.092-.067.144q-.494-.072-.985-.157l.034-.078c.215.017.431.039.647.057C23.853-39.036,23.976-39.023,24.1-39.015Zm2.4.445c-.362-.031-.724-.07-1.085-.113.031-.083.062-.161.092-.244.383.022.766.039,1.149.057C26.6-38.77,26.549-38.67,26.5-38.57Zm1.165-.27c-.077.118-.153.235-.229.353-.138-.013-.276-.022-.414-.035.042-.109.084-.222.123-.331Zm4.454-.549c-.044,0-.09,0-.134,0-.211.009-.421.017-.632.022,0,0,0,0,0,0l.806-.1C32.144-39.446,32.129-39.416,32.116-39.389Zm.9-.057-.588.039c.015-.035.03-.07.045-.1.2-.026.391-.048.586-.074C33.044-39.538,33.029-39.494,33.015-39.446Zm.611-.044c.015-.061.031-.118.046-.179.112-.017.225-.031.338-.048l-.044.2Zm-.239,1.081c.037-.179.08-.357.116-.541l.35-.026c-.037.183-.074.362-.11.545C33.624-38.422,33.505-38.413,33.387-38.409Zm-1.581.493c.286-.013.571-.022.857-.044l-.022.1c-.318.083-.635.166-.952.24C31.726-37.715,31.768-37.816,31.806-37.916Zm-1.094.026c.238,0,.475,0,.712-.009-.054.126-.106.257-.159.384-.275.065-.55.122-.826.179C30.532-37.519,30.623-37.7,30.712-37.89Zm-1.2-.009c.189.009.379.013.567.013-.09.231-.181.453-.275.671q-.35.065-.7.118C29.246-37.362,29.384-37.628,29.514-37.9Zm-.992-.031c.153.009.3.009.455.013-.15.305-.309.6-.473.9-.337.039-.676.074-1.021.1-.214.013-.429.022-.645.031q.359-.549.727-1.1C27.884-37.968,28.2-37.947,28.522-37.929Zm.679-.453-.308-.013c-.338-.017-.676-.035-1.014-.061.085-.122.171-.248.257-.371.419.009.839.009,1.259.009C29.332-38.67,29.268-38.526,29.2-38.382Zm2.417.039c-.232,0-.465,0-.7,0,.075-.166.147-.336.218-.5.238,0,.478-.013.717-.026Q31.734-38.6,31.618-38.343Zm1.133-.031c-.259.009-.518.017-.776.022.071-.174.144-.353.219-.527.226-.009.453-.017.68-.031C32.83-38.731,32.79-38.552,32.751-38.374Zm-2.291-.453c-.066.161-.131.318-.194.48l-.538-.013c.067-.153.131-.3.192-.453Zm-3.626.785c.1.009.2.013.3.022-.238.371-.471.745-.7,1.12-.03,0-.061,0-.092-.009C26.517-37.284,26.681-37.663,26.835-38.042Zm-1.606-.148c.34.035.681.07,1.022.1q-.3.562-.62,1.112-.4-.052-.812-.118C24.958-37.458,25.093-37.824,25.229-38.191Zm-.768-.615c.024-.057.045-.118.067-.174.222.017.444.031.666.044l-.092.214C24.888-38.749,24.674-38.775,24.461-38.805Zm.431.58c-.149.353-.3.711-.449,1.068-.227-.039-.455-.083-.685-.126.178-.336.344-.676.5-1.024C24.467-38.278,24.679-38.252,24.892-38.226Zm-11.18-3.6a.161.161,0,0,1-.023.031l-.043-.013c.011-.013.022-.031.032-.044Zm9.153,2.175c-.16-.013-.32-.026-.48-.044-.211-.039-.423-.083-.635-.126.017-.031.035-.057.053-.087a5.982,5.982,0,0,0,1.144.061C22.919-39.782,22.893-39.716,22.865-39.651Zm-4.841-1.578c-.016.026-.032.052-.049.074-.374-.179-.745-.366-1.114-.554l.061-.083Q17.449-41.51,18.023-41.229Zm.3-.466c-.016.026-.031.052-.046.074-.3-.126-.592-.262-.881-.392-.074-.031-.153-.07-.232-.1.019-.022.038-.048.058-.07C17.58-42.009,17.951-41.844,18.328-41.7Zm.328-.514c-.321-.122-.682-.262-1.057-.418q.2-.229.419-.445c.3.144.61.279.919.4C18.845-42.515,18.751-42.363,18.656-42.21ZM11.67-43.221c.069-.113.139-.227.206-.34l.035.026c-.073.113-.144.227-.216.34Zm-.112.244q-.388.621-.756,1.255l-.042-.039c.129-.214.251-.418.369-.6.137-.209.274-.427.408-.645C11.545-43,11.552-42.986,11.559-42.977Zm-.786-1.229c-.161.209-.323.418-.482.628-.171.022-.339.048-.506.083.261-.362.526-.715.794-1.072h0C10.64-44.451,10.7-44.333,10.772-44.207ZM8.018-45.392a9.558,9.558,0,0,1,1.145-.331l.436.366c-.273.458-.57.92-.876,1.386-.048-.065-.1-.126-.143-.192-.033-.048-.11-.009-.079.044.051.083.106.166.158.248-.061.092-.122.183-.184.279-.287-.3-.57-.593-.848-.9Q7.818-44.941,8.018-45.392Zm-.687.262c-.033.07-.063.144-.1.214-.039-.044-.077-.087-.115-.126C7.191-45.074,7.262-45.1,7.331-45.131Zm-1.02-1.133c.546-.153,1.092-.318,1.634-.51l.131.118c-.194.379-.382.759-.564,1.142-.193.083-.385.17-.576.257q-.358-.405-.71-.837Zm-.25-1.97c.075-.026.15-.052.225-.083.141.139.286.275.428.41-.252.488-.5.976-.741,1.469-.007,0-.015,0-.022.009-.126-.157-.251-.314-.377-.475-.037-.048-.075-.1-.113-.139C5.658-47.441,5.859-47.838,6.061-48.235Zm-1.23.418c.318-.1.633-.2.947-.314-.165.288-.328.575-.49.868C5.139-47.45,4.986-47.633,4.832-47.816Zm-.419-.1-.25.078c.033-.092.066-.179.1-.266C4.313-48.043,4.363-47.982,4.413-47.916Zm1.619-.658c-.015.026-.03.052-.045.078-.435.179-.872.344-1.313.493-.1-.118-.211-.231-.316-.344.181-.466.369-.924.562-1.382C5.282-49.337,5.652-48.954,6.031-48.575Zm-.99-1.443c.667-.118,1.336-.244,2-.379-.3.562-.61,1.116-.926,1.67-.389-.371-.77-.75-1.145-1.133Zm1.765,1.936c-.112-.1-.225-.2-.336-.305.21-.078.419-.166.627-.248C7-48.453,6.9-48.265,6.806-48.082Zm.82,1.024c-.381.157-.763.31-1.15.449.166-.353.335-.7.506-1.046C7.2-47.454,7.408-47.254,7.626-47.058ZM9.36-49c-.138-.135-.278-.266-.411-.405a.1.1,0,0,1-.018-.022q.466-.2.931-.418C9.692-49.564,9.525-49.285,9.36-49ZM10.6-47.847c.145-.07.291-.135.436-.2-.07.139-.14.283-.211.423C10.747-47.7,10.673-47.777,10.6-47.847Zm-1.479.131q.188-.373.381-.745c.119.135.243.266.369.392Q9.494-47.886,9.118-47.716Zm-.266,1.735c-.223.057-.443.126-.661.2.084-.187.169-.371.255-.554C8.581-46.212,8.716-46.1,8.852-45.981Zm.871.414c-.087-.07-.173-.144-.26-.214.138-.026.276-.048.416-.061,0,0,0,0,0,.009C9.826-45.745,9.775-45.658,9.723-45.567Zm.334-.6a5.337,5.337,0,0,0-.918.118l-.592-.5c.086-.183.171-.366.259-.545.491-.192.977-.392,1.456-.606.136.118.277.231.421.336C10.48-46.957,10.272-46.561,10.057-46.164Zm.993-4.211c.263.231.527.466.79.7-.142.279-.281.562-.421.846-.409.2-.818.405-1.229.606-.184-.166-.367-.336-.55-.506q.351-.674.714-1.334C10.586-50.17,10.818-50.27,11.05-50.375Zm-.315-.275a.5.5,0,0,1-.073.031c.012-.017.024-.044.037-.065C10.711-50.671,10.723-50.663,10.735-50.65Zm1.783-.34c-.213.4-.419.8-.622,1.2l-.769-.615C11.589-50.606,12.052-50.8,12.518-50.99ZM11.8-52.206l-.284.092c.048-.083.1-.166.148-.248C11.706-52.311,11.753-52.263,11.8-52.206Zm.408-1.081c.224-.052.448-.1.671-.153.21.179.415.371.617.562-.534.235-1.078.449-1.629.645-.055-.065-.113-.126-.17-.187C11.863-52.707,12.033-53,12.2-53.287Zm-1.17.266,1.034-.235q-.244.36-.486.719A4.871,4.871,0,0,0,11.035-53.021Zm-.52,2.123c-.11-.092-.22-.179-.33-.266.208-.061.413-.126.619-.187C10.706-51.2,10.611-51.051,10.515-50.9Zm.621-.558c.332-.109.66-.222.984-.344.1.139.205.275.307.414-.548.222-1.092.462-1.634.711a.846.846,0,0,1-.068-.057C10.861-50.972,11-51.216,11.136-51.456ZM7.79-49.276c.129-.253.258-.51.387-.767.116.144.228.288.344.427C8.278-49.5,8.034-49.39,7.79-49.276Zm.954-.065c.157.187.318.379.483.571-.257.445-.508.894-.752,1.351-.209.092-.418.183-.628.27-.261-.227-.518-.458-.774-.689q.245-.5.494-.994C7.96-49,8.353-49.172,8.744-49.342ZM4.072-47.6c.163-.044.326-.083.487-.131.194.248.385.5.573.754-.088.157-.173.318-.258.48-.292-.292-.588-.584-.89-.868C4.013-47.446,4.043-47.524,4.072-47.6Zm3.17,5.366.458-.17c-.1.153-.194.305-.289.462Zm-.563.2.435-.157c.068.126.137.257.208.384-.086.144-.172.283-.256.427-.138-.187-.279-.371-.424-.554C6.655-41.966,6.667-42,6.68-42.031ZM8.3-40.675c-.072-.087-.144-.179-.213-.266.147-.253.3-.5.459-.75.062.092.125.179.187.266A7.768,7.768,0,0,0,8.3-40.675Zm2.862,2.114a9.528,9.528,0,0,0,.782-.955l.078.052c-.218.34-.431.689-.639,1.033A2.3,2.3,0,0,1,11.161-38.561Zm1.932.719q-.446-.118-.889-.248c-.135-.039-.262-.087-.387-.135.2-.288.386-.549.45-.654s.129-.2.192-.305c.331.2.673.4,1.022.584-.1.183-.192.371-.285.558C13.164-37.977,13.13-37.912,13.093-37.842Zm4.468.131c.143-.231.287-.458.43-.684.175.074.35.144.526.209-.133.209-.265.414-.4.623C17.932-37.611,17.747-37.663,17.561-37.711Zm-.515.811c.044-.065.087-.135.13-.2.183.052.366.1.549.153-.04.061-.079.126-.119.187C17.42-36.809,17.234-36.857,17.047-36.9ZM32.1-35.88c-.354.052-.709.1-1.065.148.07-.214.14-.432.212-.645l.1-.013c.332-.057.664-.126,1-.2C32.282-36.368,32.2-36.129,32.1-35.88ZM26-40.152c.144-.331.3-.654.461-.968.364.061.729.113,1.1.161-.12.318-.243.636-.375.942C26.787-40.052,26.393-40.091,26-40.152Zm1,.536c-.034.074-.069.148-.1.227-.067,0-.134,0-.2,0l-.991-.052c.041-.1.08-.2.121-.3C26.216-39.69,26.608-39.647,27-39.616Zm-3.284-1c.1-.253.194-.506.288-.759.318.035.636.07.955.1-.085.292-.179.584-.285.876C24.354-40.462,24.035-40.536,23.716-40.614Zm.786.671c-.054.139-.113.275-.172.414-.342-.026-.683-.052-1.024-.083q.114-.268.224-.536C23.854-40.074,24.178-40,24.5-39.943Zm-2.05-.48c.221.061.441.113.661.17l-.042.1s0,0-.008,0c-.331-.044-.661-.109-.991-.179.036-.057.073-.113.11-.166C22.276-40.471,22.367-40.449,22.453-40.423Zm-5.3-3.082c.259.135.52.266.782.392-.167.135-.33.27-.488.418-.246-.109-.493-.222-.737-.349C16.852-43.2,17-43.361,17.152-43.5Zm-6.608-1.539c-.014-.031-.029-.057-.044-.083-.047-.092-.169-.035-.168.048l-.314-.248q.156-.268.306-.536c.032,0,.064,0,.1,0a.156.156,0,0,0,.068-.292c.178-.327.349-.654.517-.99.041.026.08.057.122.078a.092.092,0,0,0,.112-.144c-.043-.048-.089-.087-.132-.135.159-.318.315-.641.469-.968.389-.192.773-.392,1.147-.6.142.122.287.235.432.353C12.339-47.363,11.435-46.207,10.545-45.044ZM6.657-52.018c.235.327.479.645.722.968-.014.026-.028.057-.042.083-.7.161-1.4.318-2.094.475.2-.466.416-.929.634-1.391C6.138-51.923,6.4-51.971,6.657-52.018ZM3.5-51.46c-.051-.057-.1-.113-.154-.17.082,0,.164,0,.246-.009C3.56-51.583,3.529-51.522,3.5-51.46Zm.451-.2c.585-.035,1.165-.1,1.744-.187-.268.471-.52.946-.762,1.43l-.41.092c-.259-.275-.511-.554-.762-.837Q3.855-51.41,3.949-51.665ZM6.19-40.536c.089-.292.184-.584.28-.876.117.153.235.31.352.466-.134.235-.263.48-.385.719C6.356-40.331,6.273-40.431,6.19-40.536ZM5.615-38.4c.129-.549.276-1.094.431-1.63l.187.235A11.088,11.088,0,0,0,5.7-38.43Zm-.012.31c-.007-.013-.014-.022-.021-.035a.082.082,0,0,1,.032,0Zm11.843,3.261c-.239-.044-.478-.087-.715-.139a10.408,10.408,0,0,0,1.044-1.247c.287.078.575.153.863.227A7.779,7.779,0,0,1,17.446-34.834Zm7.29.972c-.177.349-.349.7-.515,1.055-.2-.022-.4-.048-.6-.074a11.184,11.184,0,0,0,.858-.972C24.566-33.853,24.651-33.857,24.736-33.862Zm.215-.623c.091-.131.178-.262.265-.4a.211.211,0,0,0,.052,0c-.071.126-.143.257-.212.388C25.021-34.49,24.987-34.485,24.951-34.485Zm.934-.9c.142-.231.287-.462.432-.689.567-.009,1.133-.035,1.694-.083l-.436.732Q26.73-35.383,25.885-35.383Zm4.327,2.241c.139-.427.276-.859.412-1.29.332-.044.663-.087,1-.135a6.021,6.021,0,0,0-.288,1.173C30.96-33.3,30.588-33.221,30.212-33.143Zm12.165-8.152c-.032.065-.064.135-.095.2-.26.083-.523.161-.786.24.019-.078.036-.153.055-.227C41.827-41.151,42.1-41.22,42.377-41.294Zm.272-.545-.081.157c-.306.074-.613.148-.921.218.033-.126.065-.257.1-.388Q42.2-41.852,42.649-41.839Zm-9.821,1.177c-.053.083-.1.17-.155.257-.342.065-.684.122-1.026.179.01-.031.023-.065.033-.1a.2.2,0,0,0-.365-.153c-.075.109-.145.222-.214.34-.25.035-.5.07-.752.1.062-.214.118-.432.166-.65C31.286-40.658,32.058-40.649,32.828-40.662ZM14.156-50.144c-.114.052-.227.1-.34.153A6.844,6.844,0,0,1,12.853-51c.025-.048.05-.1.074-.148.592-.227,1.19-.432,1.8-.606.064.052.128.1.194.153C14.687-51.1,14.431-50.619,14.156-50.144Zm1.6-3.749a13.293,13.293,0,0,1-.62,1.8.207.207,0,0,0-.257-.153c-.1.031-.206.065-.31.1-.179-.153-.358-.3-.538-.453.477-.231.946-.475,1.4-.741a.23.23,0,0,0-.231-.4c-.386.227-.781.427-1.18.619.141-.231.285-.458.436-.684.367-.087.733-.174,1.1-.266Q15.656-53.985,15.755-53.893Zm.013-.057c-.053-.048-.107-.092-.163-.139.043-.009.087-.022.13-.031a.151.151,0,0,0,.087-.057C15.805-54.1,15.788-54.024,15.769-53.95Zm-.981-.65L15-54.7l-.126.144Zm-.041.022c.034.013.067.031.1.044-.036.044-.075.087-.11.131-.186.022-.372.044-.558.074Q14.466-54.447,14.747-54.577ZM2.119-51.3c-.117.266-.22.541-.314.811-.165-.1-.337-.192-.51-.288-.026-.092-.051-.187-.078-.283-.125-.432.16-.4.583-.558a.5.5,0,0,0,.076-.026c.467.026.929.031,1.388.017.065.083.134.157.2.24-.248.488-.5.985-.731,1.491l-.051.013c-.251-.192-.512-.375-.784-.545.082-.283.171-.567.277-.85C2.188-51.312,2.133-51.334,2.119-51.3Zm.231,4.05c.428-.061.851-.135,1.268-.235-.225.567-.439,1.133-.645,1.709-.258-.231-.516-.458-.773-.671a.119.119,0,0,0-.037-.013C2.218-46.731,2.281-46.992,2.35-47.254ZM4.3-44.111a1.165,1.165,0,0,1-.116.035l.041-.118C4.253-44.167,4.278-44.137,4.3-44.111Zm.033-.388c.181-.488.384-.963.6-1.439.073-.013.146-.035.218-.048.132.144.259.292.388.436-.169.349-.379.759-.6,1.2-.109.044-.218.087-.328.126C4.521-44.316,4.429-44.407,4.336-44.5Zm-.718,3.928c-.051-.148-.1-.3-.152-.453a.241.241,0,0,0,.039-.109c.008-.074.022-.148.032-.222.078,0,.158,0,.236,0a5.161,5.161,0,0,0-.123.811Zm.515.462A6.02,6.02,0,0,1,4.288-41.4a5.4,5.4,0,0,0,.59-.1c.25.314.5.623.745.937-.169.593-.319,1.19-.445,1.792A8.932,8.932,0,0,0,4.132-40.109Zm.827,3.431q-.241-.7-.483-1.4c.19,0,.381,0,.572-.009-.039.218-.081.436-.114.654-.043.288.384.418.443.122.038-.192.082-.379.123-.567.011.017.023.039.034.057a7.323,7.323,0,0,0-.189,1.408A3.784,3.784,0,0,0,5-36.669.034.034,0,0,0,4.959-36.678Zm.981.2c-.008.031-.018.057-.026.087-.042.017-.083.031-.125.048.053-.323.114-.641.191-.95a.1.1,0,0,0,.029-.1c.074-.288.16-.567.252-.846l.179-.039A12.341,12.341,0,0,0,5.94-36.482Zm15.967,2.058c.181-.235.359-.484.534-.728.185.026.37.061.556.087.136.017.273.031.409.048-.116.2-.237.4-.366.6C22.664-34.415,22.286-34.415,21.907-34.424Zm4.059,1.779c-.523-.035-1.047-.078-1.572-.139.2-.366.4-.728.6-1.09.586-.031,1.163-.074,1.732-.122-.221.384-.44.763-.664,1.142A2.2,2.2,0,0,0,25.966-32.646ZM44.248-37.7q.134-.412.259-.824c.173-.113.344-.231.513-.349a7.178,7.178,0,0,0-.374.933C44.513-37.859,44.381-37.777,44.248-37.7Zm1.223-.724c.15-.349.273-.715.39-1.077.328-.253.653-.514.972-.78a3.868,3.868,0,0,1-.394.972c-.046.078.032.192.122.157.54-.209.687-1.016.807-1.587l.373-.327a6.185,6.185,0,0,0-.261,1.391C46.836-39.219,46.156-38.818,45.471-38.422Zm4.176-3.27c.1-.318.187-.65.265-.985a6.939,6.939,0,0,0,.806-.793c-.082.2-.158.392-.224.589A13.664,13.664,0,0,1,49.648-41.691Zm-29.36-1.181a.589.589,0,0,1-.027.057q-.414-.157-.819-.34c.01-.022.021-.044.031-.07Q19.878-43.036,20.288-42.873Zm-5.47-3.518c-.1.3-.216.6-.337.9-.168-.109-.333-.227-.5-.344.2-.244.408-.493.622-.732C14.675-46.508,14.745-46.447,14.818-46.391Zm-.45-3.222c-.058-.035-.114-.065-.169-.1.014-.022.029-.048.043-.07.128-.078.257-.157.381-.231C14.542-49.882,14.457-49.743,14.369-49.612Zm.977-1.9-.178-.144a12.94,12.94,0,0,0,.692-2.136c.033.035.063.07.093.1A11.57,11.57,0,0,1,15.346-51.508Zm.766-3.784a10.022,10.022,0,0,1-.146,1.539c-.031-.031-.061-.065-.093-.1a11.68,11.68,0,0,0,.222-1.391c0-.031-.055-.039-.06-.009-.045.314-.105.615-.173.911a.167.167,0,0,0-.174-.144c-.2,0-.393.022-.589.039-.046-.026-.092-.048-.139-.074.072-.1.146-.187.221-.283.256-.135.507-.279.749-.436C15.989-55.253,16.05-55.275,16.111-55.292ZM17.5-34.276c.523.1,1.052.183,1.585.244-.071.061-.146.118-.22.174Q18.175-34.047,17.5-34.276Zm1.61.488c.1-.065.189-.139.281-.209q.687.072,1.381.118c-.118.139-.237.279-.357.414C19.976-33.561,19.541-33.67,19.108-33.788Zm16.387.262c-.273.07-.546.139-.819.2.033-.061.065-.126.1-.192.229-.083.459-.166.687-.253.054-.017.106-.039.16-.061C35.578-33.731,35.538-33.626,35.5-33.526Zm2.6-.767a4.9,4.9,0,0,0,.331-.776c.221-.109.441-.218.659-.331-.16.318-.333.636-.519.942C38.41-34.4,38.253-34.35,38.1-34.293Zm1.605-.589c.167-.366.3-.75.415-1.072l.217-.118a13.017,13.017,0,0,1-.608,1.181A.052.052,0,0,1,39.7-34.882ZM53.524-48.867c.013-.061.031-.118.04-.174,0-.017-.019-.031-.028-.013a8.262,8.262,0,0,1-3.222,3.021c-.012-.017-.036-.026-.047,0s-.011.026-.017.039c-.367.209-.743.4-1.123.584,0-.013,0-.031,0-.044.015-.17-.275-.214-.3-.039-.013.078-.029.161-.043.244-.239.109-.479.214-.717.318,0-.113,0-.222,0-.336a.031.031,0,0,0-.06-.009c-.037.14-.07.275-.1.414-.313.135-.623.262-.925.384a44.4,44.4,0,0,1-8.814,2.424c-.285.048-.573.1-.861.139-2.24.1-4.481.279-6.716.344A27.939,27.939,0,0,1,16.766-45.78a.218.218,0,0,0-.354-.244s0,0-.007,0c-.14-.1-.279-.2-.417-.292a8.431,8.431,0,0,0-1.716-1.809,11.351,11.351,0,0,0,2.62-7.7.4.4,0,0,0-.5-.379c-1.905.541-3.744,1.264-5.62,1.875-1.285.231-2.581.405-3.832.628-1.936.34-4.567.384-6.318,1.5-.028-.083-.052-.166-.082-.248a.031.031,0,0,0-.059,0c-.038.135-.066.275-.1.414a2.931,2.931,0,0,0-.233.179.483.483,0,0,0-.13.488c.077.2.146.405.209.606-.1,2.646.947,5.685,1.626,8,1.026,3.5,2.331,6.914,3.409,10.4.141.453.946.554,1.022,0a32.338,32.338,0,0,1,.959-3.958c0-.013.013-.022.015-.035s.01-.052.016-.078c.024-.092.046-.183.069-.275.105-.061.209-.131.308-.2a.108.108,0,0,0-.109-.187l-.116.052c.009-.039.02-.078.028-.118a1.528,1.528,0,0,1,.6-.75.362.362,0,0,0,.141.122c2.185,1.085,4.294,2.306,6.478,3.4A28.3,28.3,0,0,0,22.4-32.162a31.685,31.685,0,0,0,13.833-.724c.638-.17,1.276-.362,1.908-.571a.253.253,0,0,0,.167.039,1.193,1.193,0,0,0,.625-.314,27.064,27.064,0,0,0,9.446-5.645,13.609,13.609,0,0,0,1.443-1.286,13.256,13.256,0,0,0,2.542-4c.039-.078.079-.157.117-.235l.2-.144a.278.278,0,0,0,.051-.4,17.647,17.647,0,0,0,.778-2.092c.137-.353.276-.706.419-1.055C54.029-48.823,53.7-49,53.524-48.867Z" transform="translate(0 -23.849)" fill="#1f2327"/>
      </g>
    </g>
  </g>
</svg>
