<svg xmlns="http://www.w3.org/2000/svg" width="93.706" height="92.801" viewBox="0 0 93.706 92.801">
  <g id="icon_2" data-name="icon 2" transform="translate(-138 -28.599)">
    <g id="Group_940" data-name="Group 940" transform="translate(138 146.416)">
      <path id="Path_2548" data-name="Path 2548" d="M6.276-90.84c3.893-11.487,13.842-19.291,25.194-22.772,11.8-3.615,26.421-4.231,37.722,1.227C87.971-103.317,96.731-80.2,91.513-60.492c-5.38,20.317-25.726,34.163-46.335,34.418a38.039,38.039,0,0,1-17.19-3.435c-5.135-2.523-9.228-6.754-12.841-11.1C7.274-50.068-.248-59.931.739-72.91,1.638-84.751,7.633-96.406,15.7-105c8.807-9.38,20.966-13.206,33.658-11.791,23.913,2.666,45.033,24.065,39.853,49.241C84.658-45.437,59.3-25.6,36.492-30.238,12.651-35.087.273-60.036,6.274-82.642c5.577-21,27.717-38.273,49.953-32.265C67.221-111.936,79.059-104.064,84.688-94a36.472,36.472,0,0,1,2.226,29.371,34.209,34.209,0,0,1-8.059,12.957.233.233,0,0,0,.329.329A35.966,35.966,0,0,0,89.677-79.37c-.7-11.056-6.342-20.231-15.075-26.857-9.521-7.224-20.931-12-33.017-10.06A44.9,44.9,0,0,0,14.038-99.739C-.716-81.085.765-51.922,20.123-37.072a38.111,38.111,0,0,0,32.666,7.017C64.319-33,74.837-40.772,81.935-50.22c7.354-9.789,10.553-21.868,7.666-33.9a43.08,43.08,0,0,0-20.659-27.118c-10.814-6.181-24.476-8.381-36.548-4.976-11.665,3.291-20.2,12.581-25.888,22.925C.778-82.878-2.418-69.914,2.23-58.487,4.62-52.61,8.761-47.581,12.652-42.641c3.81,4.838,7.952,9.655,13.312,12.827,19.395,11.481,46.995.873,59.381-16.125,12.605-17.3,10.689-42.806-3.941-58.355-8.893-9.451-20.747-12.954-33.464-12.511-12.211.427-24.794,3.819-33.689,12.612a32.871,32.871,0,0,0-8.239,13.28C5.959-90.744,6.22-90.674,6.276-90.84Z" transform="translate(0 0)" fill="#5271ff"/>
    </g>
    <g id="Group_941" data-name="Group 941" transform="translate(-584.59 -2162.542)">
      <g id="Group_875" data-name="Group 875" transform="translate(743 2210.224)">
        <path id="Path_2557" data-name="Path 2557" d="M48.573-106.006c.306-2.547.626-5.091,1.014-7.624C49.339-111.074,48.987-108.54,48.573-106.006ZM10.734-93.069c-.122-.028-.248-.058-.37-.087a.063.063,0,0,0,.043-.022c.129-.151.252-.306.378-.461,1.989.241,3.967.494,5.96.839,1.838.318,3.669.667,5.5.974A55.691,55.691,0,0,1,10.734-93.069Zm-3.676-1c.392.038.763.072,1.086.112.795.1,1.586.193,2.378.288-.079.135-.158.27-.23.406a.076.076,0,0,0,.058.106C9.249-93.415,8.144-93.714,7.058-94.071ZM1.069-109.637a.089.089,0,0,0,.122-.006c.1-.1.2-.214.3-.322-.122,3.194-.022,6.351.169,9.569,0,.041,0,.082.007.123a41.564,41.564,0,0,1-.514-5.7C1.105-107.184,1.077-108.408,1.069-109.637Zm.558-9.034c.1-.685.216-1.369.334-2.052-.054,2.131-.1,4.263-.212,6.392a5.427,5.427,0,0,0-.633,1.5A52.236,52.236,0,0,1,1.627-118.67Zm1.158-13.278c-.018.491-.043.983-.094,1.471-.054.549-.129,1.094-.219,1.637C2.548-129.883,2.648-130.92,2.785-131.949Zm1.78-8c0-.005,0-.01.007-.015l.194-.027a27.9,27.9,0,0,0-1.295,3.881A8.688,8.688,0,0,1,4.566-139.953Zm19.042,47.43a.07.07,0,0,0,.018-.047c-.036-1.745,1.691-2.9,3.226-3.239a.048.048,0,0,0,.04-.063l.424.039c.827.077,1.669.139,2.514.188a13.574,13.574,0,0,0-1.2,1.444,8.1,8.1,0,0,0-1.2,2.138C26.161-92.167,24.888-92.323,23.607-92.522ZM2.317-97.767a25.211,25.211,0,0,1-.428-4.067c.41-.67.694-1.411,1.129-2.077a12.268,12.268,0,0,1,1.086-1.4A15.783,15.783,0,0,0,4.45-102.3a4.89,4.89,0,0,0,.14.481A9.689,9.689,0,0,0,2.35-98.557a.108.108,0,1,0,.2.083A9.614,9.614,0,0,1,4.634-101.7,4.7,4.7,0,0,0,6.45-99.491a10.544,10.544,0,0,0-2.079,1.8,2.14,2.14,0,0,0-.7,1.74A3.147,3.147,0,0,1,2.386-97.5C2.361-97.591,2.336-97.675,2.317-97.767Zm-.525-6.176c-.032-.592-.05-1.184-.061-1.775a.067.067,0,0,0,.122-.019,6.39,6.39,0,0,1,2.467-3.373A26.611,26.611,0,0,0,4.1-105.5a9.7,9.7,0,0,0-2.234,3.178C1.846-102.868,1.825-103.411,1.792-103.942Zm-.7-8.317a.1.1,0,0,0,.122-.062A8.859,8.859,0,0,1,1.7-113.5c-.022.385-.05.769-.079,1.154-.047.641-.083,1.279-.112,1.915q-.232.316-.442.637C1.066-110.616,1.069-111.438,1.095-112.26Zm3.96-2.091a36.457,36.457,0,0,0-3.2,3.466q.054-.908.119-1.817.049-.724.086-1.456a24.24,24.24,0,0,1,3.734-4.4c.065-.066-.036-.167-.1-.1a28.778,28.778,0,0,0-3.6,3.8c.1-2.428.108-4.9.14-7.381.23-1.278.471-2.556.691-3.837a42.706,42.706,0,0,1,4.349-6.16c-.223,2.532-.5,5.06-.745,7.588-.054.56-.1,1.117-.155,1.674a.054.054,0,0,0-.029.023c-1.291,1.562-2.712,3.01-4,4.572-.119.142.09.347.2.2,1.227-1.544,2.572-2.984,3.805-4.522-.187,2.084-.37,4.153-.734,6.229-.4,2.285-.953,4.738-1.273,7.2a10.225,10.225,0,0,0-1.68,1.554,3.4,3.4,0,0,0-.939,1.664c-.018-1.427.025-2.85.1-4.274,1.122-1.289,2.1-2.726,3.28-3.967A.036.036,0,0,0,5.055-114.351Zm16.47,19.082a7.191,7.191,0,0,0-1.471,1.109c-.219.235-.558.564-.55.917-1.392-.256-2.784-.511-4.176-.739a4.769,4.769,0,0,0,1.64-1.872c.014-.027-.025-.051-.04-.024a5.41,5.41,0,0,1-1.906,1.847c-.946-.151-1.892-.289-2.842-.4-.245-.029-.489-.056-.737-.083a19.526,19.526,0,0,1,1.583-1.976.048.048,0,0,0-.068-.068,21.6,21.6,0,0,0-1.827,2.01c-1.28-.137-2.565-.263-3.838-.454a5.228,5.228,0,0,1,2.421-2.809c.043-.022.007-.083-.036-.062a5.354,5.354,0,0,0-2.543,2.846c-.806-.126-1.611-.277-2.4-.482a4.126,4.126,0,0,1-.906-.342.089.089,0,0,0,.007-.032c-.115-.759.691-1.62,1.144-2.127a10.044,10.044,0,0,1,1.583-1.406c2.054,1.345,5.1,1.722,7.208,2.059,4.251.677,8.6,1.073,12.891,1.467-1.4.294-3.877,1.6-3.2,3.345,0,0,0,0,0,0-.255-.04-.514-.082-.77-.125-1.007-.172-2.018-.356-3.025-.542.079-.3.468-.61.687-.814A14.32,14.32,0,0,1,21.6-95.145C21.672-95.2,21.608-95.318,21.525-95.269ZM7.152-140.312c-1.59,1.311-4.029,3.54-3.482,5.574a.1.1,0,0,0,.187-.026c.018-2.175,1.986-4.155,3.561-5.583,2.237-.286,4.471-.527,6.751-.614,2.172-.082,4.345-.063,6.518.019a11.047,11.047,0,0,0-1.824,2.187c-.04.069.061.152.115.087.626-.79,1.284-1.536,1.971-2.265,1.334.054,2.672.13,4.007.223.281.019.557.045.838.065a4.8,4.8,0,0,0-1.266.665,2.754,2.754,0,0,0-1.079,1.236c-.022.075.068.159.14.108.374-.272.629-.7.982-1.007a5.858,5.858,0,0,1,1.6-.972q1.111.086,2.212.185a5.378,5.378,0,0,0-2.27,2.851c-.255-.034-.514-.07-.773-.1a48.945,48.945,0,0,0-11.366-.463c-1.957.214-4.773.625-5.726,2.644-.086.179.169.336.266.157,1.144-2.133,4.489-2.163,6.561-2.173a74.382,74.382,0,0,1,11.273,1.008c3.852.575,7.69,1.246,11.528,1.909a59.3,59.3,0,0,0,6.859,1c-.047.039-.094.074-.137.114s.014.132.072.094l.291-.2c.068,0,.137.009.205.011a24.39,24.39,0,0,1,.291,3.145c-.068.077-.14.155-.209.234a.072.072,0,0,0,.1.1c.04-.032.079-.063.115-.1a37.187,37.187,0,0,1-.115,3.849c-.259.254-.511.508-.759.76-.058.056.018.161.086.113.219-.156.432-.32.644-.487-.115,1.355-.277,2.709-.446,4.057-.45,3.593-.669,7.134-.852,10.745-.14,2.731-.417,5.455-.6,8.183-.076,1.134-.46,2.98-.094,4.3-.025.044-.054.086-.079.13a.085.085,0,0,0,.133.1l.014-.015a2.1,2.1,0,0,0,.45.75.194.194,0,0,0,.327-.136q.065-.741.108-1.489c.435-.475.849-.977,1.3-1.42.572-.566,1.158-1.116,1.734-1.677-.342,2.745-.687,5.489-1.093,8.225a3.647,3.647,0,0,1-.583.7.461.461,0,0,1-.043.037A8.575,8.575,0,0,0,43.7-93.4a8.775,8.775,0,0,1,2.259-1.8c.014-.007,0-.03-.011-.022a15.554,15.554,0,0,0-2.719,1.892c-.45.072-.9.159-1.345.24a7.214,7.214,0,0,0,.784-2.118.011.011,0,0,0-.022-.006,12.2,12.2,0,0,1-1.075,2.18c-.129.023-.263.045-.392.065-.554.087-1.108.173-1.665.256a13.367,13.367,0,0,1,.755-1.549,5.05,5.05,0,0,1,1.734-1.6c.014-.007,0-.03-.011-.022a5.483,5.483,0,0,0-1.87,1.5,3.625,3.625,0,0,0-.824,1.7c-1.442.215-2.888.413-4.341.563l-.54,0c-1.1,0-2.208.023-3.313.059.806-.8,1.59-1.617,2.367-2.446a.061.061,0,0,0-.086-.085c-.892.834-1.77,1.674-2.626,2.543q-1,.036-2.007.076c-.345-.019-.694-.042-1.039-.069.338-.488.59-1.054.9-1.559a16.092,16.092,0,0,1,1.406-2.034A44.525,44.525,0,0,0,43.451-96.7a.5.5,0,0,0-.266-.969c-5.96,1.538-12.456,1.3-18.513.521-4.708-.6-9.474-.763-14.1-1.919-1.64-.41-3.845-.968-4.73-2.57-.982-1.78-.572-4.454-.392-6.373.478-5.1,1.723-10.061,2.021-15.189.248-4.238.525-8.441.406-12.684.273-.229.554-.449.849-.656a7.23,7.23,0,0,0-.849.647c-.007-.283-.014-.566-.025-.85a.131.131,0,0,0-.263,0c-.018.39-.043.779-.065,1.168a18.365,18.365,0,0,0-2.414,2.652c-.514.677-2.025,2.507-1.41,3.468.043.066.162.024.133-.055-.385-1.037,1.093-2.789,1.633-3.557a17.344,17.344,0,0,1,2.057-2.5q-.1,1.565-.237,3.128a31.72,31.72,0,0,0-3.18,3.99c-.32.455-.68.929-1.029,1.421q.167-1.019.3-2.042c.277-2.137-.036-4.4.065-6.568A29.337,29.337,0,0,1,4.8-140Q5.979-140.159,7.152-140.312Zm39.325,2.08q1.2.156,2.41.305c.187.023.921.034,1.468.1q0,1.972,0,3.945a20.729,20.729,0,0,0-3.859,2.461,26.124,26.124,0,0,0-.342-2.831.433.433,0,0,0-.043-.116,26.782,26.782,0,0,0,3.831-3.011c.032-.033-.018-.082-.05-.051a36.776,36.776,0,0,1-3.953,2.878.576.576,0,0,0-.306-.1,26.115,26.115,0,0,1-3.737-.33c.579-.346,1.122-.783,1.691-1.131a19.441,19.441,0,0,1,2.41-1.232c.076-.032.022-.161-.054-.131a13.61,13.61,0,0,0-4.435,2.434c-1.374-.219-2.744-.494-4.093-.725-3.68-.632-7.356-1.29-11.057-1.787a8.1,8.1,0,0,1,.953-1.692,7.335,7.335,0,0,1,1.191-1.18C34.506-139.866,40.487-139.006,46.476-138.231Zm4.51.6a9.916,9.916,0,0,1,.838,3.866,36.292,36.292,0,0,1-.892,8.805c-.1.532-.209,1.063-.317,1.593.122-3.539.155-7.081.165-10.622.047-.026.094-.054.144-.079s.007-.11-.05-.083c-.029.016-.061.032-.094.048q.005-1.822,0-3.644C50.89-137.71,50.965-137.672,50.987-137.626Zm-.662,7.53a16.538,16.538,0,0,0-3.82,2.665,34.635,34.635,0,0,0,0-3.616,28.566,28.566,0,0,1,3.841-2.7Q50.339-131.921,50.325-130.1Zm-.532,10.636a7.988,7.988,0,0,0-3.888,3.127c-.04.068.061.123.1.06a8.891,8.891,0,0,1,3.755-3.063c-.194.923-.381,1.846-.554,2.773-.6,3.213-.95,6.486-1.356,9.727-.176,1.4-.345,2.806-.522,4.21-.626.582-1.263,1.155-1.892,1.735-.356.329-.755.67-1.133,1.034.054-.98.1-1.964.165-2.946,1.032-.977,1.878-2.205,2.86-3.222a.084.084,0,0,0-.119-.119c-.727.714-1.414,1.468-2.1,2.218-.2.221-.406.436-.6.659.007-.116.014-.232.025-.347.086-1.06.183-2.119.277-3.179a15.37,15.37,0,0,1,2.831-2.884c.043-.033-.014-.108-.058-.075a15.06,15.06,0,0,0-2.741,2.6c.137-1.524.259-3.048.327-4.577.018-.423.04-.844.061-1.265a.071.071,0,0,0,.119.033,10.33,10.33,0,0,1,3.266-2.657c.04-.021,0-.082-.04-.062a8.474,8.474,0,0,0-3.338,2.632.057.057,0,0,0-.007.033c.162-3.138.417-6.229.806-9.365.05-.4.1-.809.144-1.214a24.086,24.086,0,0,0,3.759-2.563c.047-.037,0-.119-.05-.083a39.806,39.806,0,0,1-3.683,2.45c.115-1.059.216-2.118.277-3.178a18.074,18.074,0,0,1,3.841-3c-.029,2.611-.086,5.222-.191,7.831a6.886,6.886,0,0,0-3.59,3.143c-.032.08.068.181.133.1a16.242,16.242,0,0,1,1.655-1.939,7.678,7.678,0,0,1,1.795-1.138c-.014.381-.025.761-.043,1.141C49.983-120.365,49.886-119.913,49.793-119.461Zm2.888-13.355a15.913,15.913,0,0,0-.342-3.379c-.115-.531-.421-2.2-1.108-2.277-3.392-.386-6.777-.842-10.161-1.279-6.456-.835-12.931-1.619-19.437-1.893.1-.107.2-.214.309-.32.065-.066-.036-.167-.1-.1q-.205.206-.421.413c-.712-.028-1.421-.053-2.129-.069-4.622-.1-9.686-.077-14.24,1.124.014-.031.025-.062.04-.092.007-.014-.014-.026-.022-.012-.014.037-.029.075-.047.112-.439.117-.878.241-1.309.381a.18.18,0,0,0,.1.346l.335-.046c-1.324,2.165-1.295,4.583-1.338,7.019-.284,1.766-.46,3.558-.575,5.348-.2.98-.432,1.954-.658,2.926-.442,1.88-.676,3.761-.989,5.659a64.452,64.452,0,0,0-.511,12.38,45.125,45.125,0,0,0,.662,6.852,8.225,8.225,0,0,0,1.691,4.207,4.553,4.553,0,0,0,2.306,1.114,30.625,30.625,0,0,0,4.082,1.269A56.045,56.045,0,0,0,24.992-91.41a41.968,41.968,0,0,0,6.7.419,61.285,61.285,0,0,0,6.989-.683l.09-.013a31.1,31.1,0,0,0,3.169-.172.086.086,0,0,0,.122.009l.032-.027a11.862,11.862,0,0,0,2.647-.619,3.613,3.613,0,0,0,.622-.3,5.8,5.8,0,0,0,.691-.266.2.2,0,0,0,.036-.305q.119-.117.227-.243c.223.235.669.24.727-.159.072-.479.14-.957.209-1.437.845-2.1.914-4.84,1.129-6.66.288-2.454.809-4.869,1.133-7.318.388-2.938.651-5.887.842-8.844C51.328-122.927,52.663-127.795,52.681-132.816Z" transform="translate(0 142.087)" fill="#1f2327"/>
        <path id="Path_2558" data-name="Path 2558" d="M46.57-100.151c1.87,1.1,3.151,3.329,4.309,5.091a23.92,23.92,0,0,0,2.259,3.129,1.451,1.451,0,0,0,.281,1.1,8.088,8.088,0,0,0,.245,1.54.93.93,0,0,0-.011.141.3.3,0,0,0,.137.251.554.554,0,0,0,.874.138c.022-.022.047-.043.068-.065a3.88,3.88,0,0,0,.435-.048l.079.068a.5.5,0,0,0,.766-.1c.061-.105.133-.228.212-.361a2.635,2.635,0,0,0,1.09-1.341,2.288,2.288,0,0,0,.09-.291.3.3,0,0,0,.068-.379c.46-.442.878-.886,1.219-1.215,1.439-1.38,2.77-2.87,4.136-4.323a45.872,45.872,0,0,1,4.1-4.019,17.365,17.365,0,0,1,3.568-2.7c.137-.064.061-.265-.072-.267-3.482-.081-5.928,2.474-8.215,4.773C60.8-97.6,59.451-96.112,58.037-94.69c-.464.468-.946.918-1.432,1.361a1.326,1.326,0,0,0-.295-.1,1.854,1.854,0,0,0-.273-.031,4.071,4.071,0,0,0-.845-.757.519.519,0,0,0-.626.081c-.144.133-.291.282-.439.442-2.327-2.548-3.741-6.273-7.374-6.9A.24.24,0,0,0,46.57-100.151Z" transform="translate(-29.743 117.571)" fill="#1f2327"/>
        <path id="Path_2559" data-name="Path 2559" d="M75.286-121.077a11.172,11.172,0,0,0,.486,3.543,5.4,5.4,0,0,0-1.345.456A15.887,15.887,0,0,1,75.286-121.077Zm-1.014,4.665a4.953,4.953,0,0,1,1.845-.609.285.285,0,0,0,.27-.355,26.343,26.343,0,0,0-.781-3.922.155.155,0,0,0-.216-.094c.058-.165.112-.331.169-.5.04-.115-.144-.194-.194-.083a13.593,13.593,0,0,0-1.493,5.328A.268.268,0,0,0,74.272-116.412Z" transform="translate(-47.302 129.24)" fill="#1f2327"/>
        <path id="Path_2560" data-name="Path 2560" d="M66.956-33.318a1.973,1.973,0,0,0-.273-1.093.167.167,0,0,0-.288.169,3.534,3.534,0,0,1,.255,1.545,1.456,1.456,0,0,0,.475.852c-.252,0-.5-.012-.752-.031a4.271,4.271,0,0,1-.91-.18c-.277-.082-.054-.741-.018-.929a4.449,4.449,0,0,1,1.77-2.629c.036-.027,0-.088-.036-.062a4.645,4.645,0,0,0-2.086,3.657.126.126,0,0,0,.065.109,5.641,5.641,0,0,0,2.37.372.154.154,0,0,0,.108-.259A1.638,1.638,0,0,1,66.956-33.318Z" transform="translate(-41.68 73.954)" fill="#1f2327"/>
        <path id="Path_2561" data-name="Path 2561" d="M26.985-84.583a.183.183,0,0,0,.007-.042,7.335,7.335,0,0,1,2.82,2.829,15.476,15.476,0,0,1-3.388,1.167A8.24,8.24,0,0,1,26.985-84.583Zm-1.061,4.32a.269.269,0,0,0,.263.2,14.281,14.281,0,0,0,4.021-1.358.248.248,0,0,0,.144-.358c-.816-1.74-2.5-2.691-4.1-3.606a.119.119,0,0,0-.119.206l.669.425c-.007,0-.018,0-.022.007C25.46-84.063,25.719-81.424,25.924-80.263Z" transform="translate(-16.492 105.79)" fill="#1f2327"/>
        <path id="Path_2562" data-name="Path 2562" d="M103.564-76.653a.226.226,0,0,0-.273.274,13.732,13.732,0,0,1-.025,4.49.251.251,0,0,0,.237.313c2.378-.091,3.766-1.953,5.471-3.349.273-.224-.119-.615-.388-.389-1.5,1.247-2.759,2.975-4.795,3.217a13.808,13.808,0,0,0-.025-4.092,5.856,5.856,0,0,0,5.021-1.558c.014-.012,0-.028-.018-.018A6.262,6.262,0,0,1,103.564-76.653Z" transform="translate(-66.12 100.903)" fill="#1f2327"/>
        <path id="Path_2563" data-name="Path 2563" d="M25.03-134.923a7.615,7.615,0,0,0,.986-1.541c.338-.6.673-1.18.957-1.8.014-.035-.029-.076-.058-.044a8.424,8.424,0,0,0-1.029,1.5,17.287,17.287,0,0,0-1.007,1.774C24.839-134.947,24.95-134.838,25.03-134.923Z" transform="translate(-15.925 139.678)" fill="#1f2327"/>
        <path id="Path_2564" data-name="Path 2564" d="M39.263-136.4c.1.07.191-.06.147-.147-.1-.21.446-.686.572-.808a6.289,6.289,0,0,1,1.385-.991c.165-.091.022-.326-.144-.248C40.849-138.418,38.325-137.087,39.263-136.4Z" transform="translate(-25.008 139.86)" fill="#1f2327"/>
        <path id="Path_2565" data-name="Path 2565" d="M83.671-132.728a1.852,1.852,0,0,0,.27-.513,2.923,2.923,0,0,1,.392-.584,2.968,2.968,0,0,1,1.281-.834c.144-.051.083-.281-.065-.231a3.452,3.452,0,0,0-1.334.8,2.041,2.041,0,0,0-.7,1.292A.1.1,0,0,0,83.671-132.728Z" transform="translate(-53.47 137.482)" fill="#1f2327"/>
        <path id="Path_2566" data-name="Path 2566" d="M91.028-131.911a11.9,11.9,0,0,0,1.086-1.437,3.933,3.933,0,0,1,1.507-1.228c.025-.012.014-.056-.014-.046a3.987,3.987,0,0,0-1.489,1.044,5.084,5.084,0,0,0-1.212,1.6C90.881-131.909,90.978-131.867,91.028-131.911Z" transform="translate(-58.206 137.308)" fill="#1f2327"/>
        <path id="Path_2567" data-name="Path 2567" d="M102.019-130.108a14.533,14.533,0,0,0,2.637-2.665.048.048,0,0,0-.068-.068,30.724,30.724,0,0,1-2.64,2.609C101.876-130.178,101.94-130.057,102.019-130.108Z" transform="translate(-65.258 136.176)" fill="#1f2327"/>
        <path id="Path_2568" data-name="Path 2568" d="M109.376-128.665a21.862,21.862,0,0,1,3.291-2.288c.083-.043.011-.165-.072-.124a10.155,10.155,0,0,0-3.3,2.327A.059.059,0,0,0,109.376-128.665Z" transform="translate(-69.971 135.042)" fill="#1f2327"/>
        <path id="Path_2569" data-name="Path 2569" d="M125.759-58.932a.071.071,0,1,0,.112.087,16.921,16.921,0,0,1,3.244-3.324c.011-.008,0-.027-.014-.019A17.03,17.03,0,0,0,125.759-58.932Z" transform="translate(-80.513 90.928)" fill="#1f2327"/>
        <path id="Path_2570" data-name="Path 2570" d="M114.748-16.446c-.036.07.054.149.112.087.727-.769,1.363-1.588,2.155-2.3a29.614,29.614,0,0,1,3.1-2.315c.061-.043,0-.146-.061-.1C118.194-19.874,115.766-18.512,114.748-16.446Z" transform="translate(-73.47 64.609)" fill="#1f2327"/>
        <path id="Path_2571" data-name="Path 2571" d="M24.559-127.258c-.1.069-.205.142-.306.214.1-.067.212-.132.32-.192C24.588-127.244,24.573-127.267,24.559-127.258Z" transform="translate(-15.53 132.593)" fill="#1f2327"/>
        <path id="Path_2572" data-name="Path 2572" d="M6.726-94.486a13.244,13.244,0,0,1,1.615-2.606c.748-.911,1.575-1.754,2.306-2.679.029-.036-.022-.086-.05-.051-.831.98-1.759,1.873-2.608,2.838a4.425,4.425,0,0,0-1.4,2.462A.072.072,0,0,0,6.726-94.486Z" transform="translate(-4.222 115.031)" fill="#1f2327"/>
        <path id="Path_2573" data-name="Path 2573" d="M100.228-10.152a3.9,3.9,0,0,0-2.036,2.01c-.058.11.108.207.165.1a3.722,3.722,0,0,1,1.917-1.946C100.375-10.027,100.332-10.189,100.228-10.152Z" transform="translate(-62.866 57.611)" fill="#1f2327"/>
      </g>
      <g id="Group_876" data-name="Group 876" transform="translate(744 2211.224)">
        <path id="Path_2557-2" data-name="Path 2557" d="M48.573-106.006c.306-2.547.626-5.091,1.014-7.624C49.339-111.074,48.987-108.54,48.573-106.006ZM10.734-93.069c-.122-.028-.248-.058-.37-.087a.063.063,0,0,0,.043-.022c.129-.151.252-.306.378-.461,1.989.241,3.967.494,5.96.839,1.838.318,3.669.667,5.5.974A55.691,55.691,0,0,1,10.734-93.069Zm-3.676-1c.392.038.763.072,1.086.112.795.1,1.586.193,2.378.288-.079.135-.158.27-.23.406a.076.076,0,0,0,.058.106C9.249-93.415,8.144-93.714,7.058-94.071ZM1.069-109.637a.089.089,0,0,0,.122-.006c.1-.1.2-.214.3-.322-.122,3.194-.022,6.351.169,9.569,0,.041,0,.082.007.123a41.564,41.564,0,0,1-.514-5.7C1.105-107.184,1.077-108.408,1.069-109.637Zm.558-9.034c.1-.685.216-1.369.334-2.052-.054,2.131-.1,4.263-.212,6.392a5.427,5.427,0,0,0-.633,1.5A52.236,52.236,0,0,1,1.627-118.67Zm1.158-13.278c-.018.491-.043.983-.094,1.471-.054.549-.129,1.094-.219,1.637C2.548-129.883,2.648-130.92,2.785-131.949Zm1.78-8c0-.005,0-.01.007-.015l.194-.027a27.9,27.9,0,0,0-1.295,3.881A8.688,8.688,0,0,1,4.566-139.953Zm19.042,47.43a.07.07,0,0,0,.018-.047c-.036-1.745,1.691-2.9,3.226-3.239a.048.048,0,0,0,.04-.063l.424.039c.827.077,1.669.139,2.514.188a13.574,13.574,0,0,0-1.2,1.444,8.1,8.1,0,0,0-1.2,2.138C26.161-92.167,24.888-92.323,23.607-92.522ZM2.317-97.767a25.211,25.211,0,0,1-.428-4.067c.41-.67.694-1.411,1.129-2.077a12.268,12.268,0,0,1,1.086-1.4A15.783,15.783,0,0,0,4.45-102.3a4.89,4.89,0,0,0,.14.481A9.689,9.689,0,0,0,2.35-98.557a.108.108,0,1,0,.2.083A9.614,9.614,0,0,1,4.634-101.7,4.7,4.7,0,0,0,6.45-99.491a10.544,10.544,0,0,0-2.079,1.8,2.14,2.14,0,0,0-.7,1.74A3.147,3.147,0,0,1,2.386-97.5C2.361-97.591,2.336-97.675,2.317-97.767Zm-.525-6.176c-.032-.592-.05-1.184-.061-1.775a.067.067,0,0,0,.122-.019,6.39,6.39,0,0,1,2.467-3.373A26.611,26.611,0,0,0,4.1-105.5a9.7,9.7,0,0,0-2.234,3.178C1.846-102.868,1.825-103.411,1.792-103.942Zm-.7-8.317a.1.1,0,0,0,.122-.062A8.859,8.859,0,0,1,1.7-113.5c-.022.385-.05.769-.079,1.154-.047.641-.083,1.279-.112,1.915q-.232.316-.442.637C1.066-110.616,1.069-111.438,1.095-112.26Zm3.96-2.091a36.457,36.457,0,0,0-3.2,3.466q.054-.908.119-1.817.049-.724.086-1.456a24.24,24.24,0,0,1,3.734-4.4c.065-.066-.036-.167-.1-.1a28.778,28.778,0,0,0-3.6,3.8c.1-2.428.108-4.9.14-7.381.23-1.278.471-2.556.691-3.837a42.706,42.706,0,0,1,4.349-6.16c-.223,2.532-.5,5.06-.745,7.588-.054.56-.1,1.117-.155,1.674a.054.054,0,0,0-.029.023c-1.291,1.562-2.712,3.01-4,4.572-.119.142.09.347.2.2,1.227-1.544,2.572-2.984,3.805-4.522-.187,2.084-.37,4.153-.734,6.229-.4,2.285-.953,4.738-1.273,7.2a10.225,10.225,0,0,0-1.68,1.554,3.4,3.4,0,0,0-.939,1.664c-.018-1.427.025-2.85.1-4.274,1.122-1.289,2.1-2.726,3.28-3.967A.036.036,0,0,0,5.055-114.351Zm16.47,19.082a7.191,7.191,0,0,0-1.471,1.109c-.219.235-.558.564-.55.917-1.392-.256-2.784-.511-4.176-.739a4.769,4.769,0,0,0,1.64-1.872c.014-.027-.025-.051-.04-.024a5.41,5.41,0,0,1-1.906,1.847c-.946-.151-1.892-.289-2.842-.4-.245-.029-.489-.056-.737-.083a19.526,19.526,0,0,1,1.583-1.976.048.048,0,0,0-.068-.068,21.6,21.6,0,0,0-1.827,2.01c-1.28-.137-2.565-.263-3.838-.454a5.228,5.228,0,0,1,2.421-2.809c.043-.022.007-.083-.036-.062a5.354,5.354,0,0,0-2.543,2.846c-.806-.126-1.611-.277-2.4-.482a4.126,4.126,0,0,1-.906-.342.089.089,0,0,0,.007-.032c-.115-.759.691-1.62,1.144-2.127a10.044,10.044,0,0,1,1.583-1.406c2.054,1.345,5.1,1.722,7.208,2.059,4.251.677,8.6,1.073,12.891,1.467-1.4.294-3.877,1.6-3.2,3.345,0,0,0,0,0,0-.255-.04-.514-.082-.77-.125-1.007-.172-2.018-.356-3.025-.542.079-.3.468-.61.687-.814A14.32,14.32,0,0,1,21.6-95.145C21.672-95.2,21.608-95.318,21.525-95.269ZM7.152-140.312c-1.59,1.311-4.029,3.54-3.482,5.574a.1.1,0,0,0,.187-.026c.018-2.175,1.986-4.155,3.561-5.583,2.237-.286,4.471-.527,6.751-.614,2.172-.082,4.345-.063,6.518.019a11.047,11.047,0,0,0-1.824,2.187c-.04.069.061.152.115.087.626-.79,1.284-1.536,1.971-2.265,1.334.054,2.672.13,4.007.223.281.019.557.045.838.065a4.8,4.8,0,0,0-1.266.665,2.754,2.754,0,0,0-1.079,1.236c-.022.075.068.159.14.108.374-.272.629-.7.982-1.007a5.858,5.858,0,0,1,1.6-.972q1.111.086,2.212.185a5.378,5.378,0,0,0-2.27,2.851c-.255-.034-.514-.07-.773-.1a48.945,48.945,0,0,0-11.366-.463c-1.957.214-4.773.625-5.726,2.644-.086.179.169.336.266.157,1.144-2.133,4.489-2.163,6.561-2.173a74.382,74.382,0,0,1,11.273,1.008c3.852.575,7.69,1.246,11.528,1.909a59.3,59.3,0,0,0,6.859,1c-.047.039-.094.074-.137.114s.014.132.072.094l.291-.2c.068,0,.137.009.205.011a24.39,24.39,0,0,1,.291,3.145c-.068.077-.14.155-.209.234a.072.072,0,0,0,.1.1c.04-.032.079-.063.115-.1a37.187,37.187,0,0,1-.115,3.849c-.259.254-.511.508-.759.76-.058.056.018.161.086.113.219-.156.432-.32.644-.487-.115,1.355-.277,2.709-.446,4.057-.45,3.593-.669,7.134-.852,10.745-.14,2.731-.417,5.455-.6,8.183-.076,1.134-.46,2.98-.094,4.3-.025.044-.054.086-.079.13a.085.085,0,0,0,.133.1l.014-.015a2.1,2.1,0,0,0,.45.75.194.194,0,0,0,.327-.136q.065-.741.108-1.489c.435-.475.849-.977,1.3-1.42.572-.566,1.158-1.116,1.734-1.677-.342,2.745-.687,5.489-1.093,8.225a3.647,3.647,0,0,1-.583.7.461.461,0,0,1-.043.037A8.575,8.575,0,0,0,43.7-93.4a8.775,8.775,0,0,1,2.259-1.8c.014-.007,0-.03-.011-.022a15.554,15.554,0,0,0-2.719,1.892c-.45.072-.9.159-1.345.24a7.214,7.214,0,0,0,.784-2.118.011.011,0,0,0-.022-.006,12.2,12.2,0,0,1-1.075,2.18c-.129.023-.263.045-.392.065-.554.087-1.108.173-1.665.256a13.367,13.367,0,0,1,.755-1.549,5.05,5.05,0,0,1,1.734-1.6c.014-.007,0-.03-.011-.022a5.483,5.483,0,0,0-1.87,1.5,3.625,3.625,0,0,0-.824,1.7c-1.442.215-2.888.413-4.341.563l-.54,0c-1.1,0-2.208.023-3.313.059.806-.8,1.59-1.617,2.367-2.446a.061.061,0,0,0-.086-.085c-.892.834-1.77,1.674-2.626,2.543q-1,.036-2.007.076c-.345-.019-.694-.042-1.039-.069.338-.488.59-1.054.9-1.559a16.092,16.092,0,0,1,1.406-2.034A44.525,44.525,0,0,0,43.451-96.7a.5.5,0,0,0-.266-.969c-5.96,1.538-12.456,1.3-18.513.521-4.708-.6-9.474-.763-14.1-1.919-1.64-.41-3.845-.968-4.73-2.57-.982-1.78-.572-4.454-.392-6.373.478-5.1,1.723-10.061,2.021-15.189.248-4.238.525-8.441.406-12.684.273-.229.554-.449.849-.656a7.23,7.23,0,0,0-.849.647c-.007-.283-.014-.566-.025-.85a.131.131,0,0,0-.263,0c-.018.39-.043.779-.065,1.168a18.365,18.365,0,0,0-2.414,2.652c-.514.677-2.025,2.507-1.41,3.468.043.066.162.024.133-.055-.385-1.037,1.093-2.789,1.633-3.557a17.344,17.344,0,0,1,2.057-2.5q-.1,1.565-.237,3.128a31.72,31.72,0,0,0-3.18,3.99c-.32.455-.68.929-1.029,1.421q.167-1.019.3-2.042c.277-2.137-.036-4.4.065-6.568A29.337,29.337,0,0,1,4.8-140Q5.979-140.159,7.152-140.312Zm39.325,2.08q1.2.156,2.41.305c.187.023.921.034,1.468.1q0,1.972,0,3.945a20.729,20.729,0,0,0-3.859,2.461,26.124,26.124,0,0,0-.342-2.831.433.433,0,0,0-.043-.116,26.782,26.782,0,0,0,3.831-3.011c.032-.033-.018-.082-.05-.051a36.776,36.776,0,0,1-3.953,2.878.576.576,0,0,0-.306-.1,26.115,26.115,0,0,1-3.737-.33c.579-.346,1.122-.783,1.691-1.131a19.441,19.441,0,0,1,2.41-1.232c.076-.032.022-.161-.054-.131a13.61,13.61,0,0,0-4.435,2.434c-1.374-.219-2.744-.494-4.093-.725-3.68-.632-7.356-1.29-11.057-1.787a8.1,8.1,0,0,1,.953-1.692,7.335,7.335,0,0,1,1.191-1.18C34.506-139.866,40.487-139.006,46.476-138.231Zm4.51.6a9.916,9.916,0,0,1,.838,3.866,36.292,36.292,0,0,1-.892,8.805c-.1.532-.209,1.063-.317,1.593.122-3.539.155-7.081.165-10.622.047-.026.094-.054.144-.079s.007-.11-.05-.083c-.029.016-.061.032-.094.048q.005-1.822,0-3.644C50.89-137.71,50.965-137.672,50.987-137.626Zm-.662,7.53a16.538,16.538,0,0,0-3.82,2.665,34.635,34.635,0,0,0,0-3.616,28.566,28.566,0,0,1,3.841-2.7Q50.339-131.921,50.325-130.1Zm-.532,10.636a7.988,7.988,0,0,0-3.888,3.127c-.04.068.061.123.1.06a8.891,8.891,0,0,1,3.755-3.063c-.194.923-.381,1.846-.554,2.773-.6,3.213-.95,6.486-1.356,9.727-.176,1.4-.345,2.806-.522,4.21-.626.582-1.263,1.155-1.892,1.735-.356.329-.755.67-1.133,1.034.054-.98.1-1.964.165-2.946,1.032-.977,1.878-2.205,2.86-3.222a.084.084,0,0,0-.119-.119c-.727.714-1.414,1.468-2.1,2.218-.2.221-.406.436-.6.659.007-.116.014-.232.025-.347.086-1.06.183-2.119.277-3.179a15.37,15.37,0,0,1,2.831-2.884c.043-.033-.014-.108-.058-.075a15.06,15.06,0,0,0-2.741,2.6c.137-1.524.259-3.048.327-4.577.018-.423.04-.844.061-1.265a.071.071,0,0,0,.119.033,10.33,10.33,0,0,1,3.266-2.657c.04-.021,0-.082-.04-.062a8.474,8.474,0,0,0-3.338,2.632.057.057,0,0,0-.007.033c.162-3.138.417-6.229.806-9.365.05-.4.1-.809.144-1.214a24.086,24.086,0,0,0,3.759-2.563c.047-.037,0-.119-.05-.083a39.806,39.806,0,0,1-3.683,2.45c.115-1.059.216-2.118.277-3.178a18.074,18.074,0,0,1,3.841-3c-.029,2.611-.086,5.222-.191,7.831a6.886,6.886,0,0,0-3.59,3.143c-.032.08.068.181.133.1a16.242,16.242,0,0,1,1.655-1.939,7.678,7.678,0,0,1,1.795-1.138c-.014.381-.025.761-.043,1.141C49.983-120.365,49.886-119.913,49.793-119.461Zm2.888-13.355a15.913,15.913,0,0,0-.342-3.379c-.115-.531-.421-2.2-1.108-2.277-3.392-.386-6.777-.842-10.161-1.279-6.456-.835-12.931-1.619-19.437-1.893.1-.107.2-.214.309-.32.065-.066-.036-.167-.1-.1q-.205.206-.421.413c-.712-.028-1.421-.053-2.129-.069-4.622-.1-9.686-.077-14.24,1.124.014-.031.025-.062.04-.092.007-.014-.014-.026-.022-.012-.014.037-.029.075-.047.112-.439.117-.878.241-1.309.381a.18.18,0,0,0,.1.346l.335-.046c-1.324,2.165-1.295,4.583-1.338,7.019-.284,1.766-.46,3.558-.575,5.348-.2.98-.432,1.954-.658,2.926-.442,1.88-.676,3.761-.989,5.659a64.452,64.452,0,0,0-.511,12.38,45.125,45.125,0,0,0,.662,6.852,8.225,8.225,0,0,0,1.691,4.207,4.553,4.553,0,0,0,2.306,1.114,30.625,30.625,0,0,0,4.082,1.269A56.045,56.045,0,0,0,24.992-91.41a41.968,41.968,0,0,0,6.7.419,61.285,61.285,0,0,0,6.989-.683l.09-.013a31.1,31.1,0,0,0,3.169-.172.086.086,0,0,0,.122.009l.032-.027a11.862,11.862,0,0,0,2.647-.619,3.613,3.613,0,0,0,.622-.3,5.8,5.8,0,0,0,.691-.266.2.2,0,0,0,.036-.305q.119-.117.227-.243c.223.235.669.24.727-.159.072-.479.14-.957.209-1.437.845-2.1.914-4.84,1.129-6.66.288-2.454.809-4.869,1.133-7.318.388-2.938.651-5.887.842-8.844C51.328-122.927,52.663-127.795,52.681-132.816Z" transform="translate(0 142.087)" fill="#1f2327"/>
        <path id="Path_2558-2" data-name="Path 2558" d="M46.57-100.151c1.87,1.1,3.151,3.329,4.309,5.091a23.92,23.92,0,0,0,2.259,3.129,1.451,1.451,0,0,0,.281,1.1,8.088,8.088,0,0,0,.245,1.54.93.93,0,0,0-.011.141.3.3,0,0,0,.137.251.554.554,0,0,0,.874.138c.022-.022.047-.043.068-.065a3.88,3.88,0,0,0,.435-.048l.079.068a.5.5,0,0,0,.766-.1c.061-.105.133-.228.212-.361a2.635,2.635,0,0,0,1.09-1.341,2.288,2.288,0,0,0,.09-.291.3.3,0,0,0,.068-.379c.46-.442.878-.886,1.219-1.215,1.439-1.38,2.77-2.87,4.136-4.323a45.872,45.872,0,0,1,4.1-4.019,17.365,17.365,0,0,1,3.568-2.7c.137-.064.061-.265-.072-.267-3.482-.081-5.928,2.474-8.215,4.773C60.8-97.6,59.451-96.112,58.037-94.69c-.464.468-.946.918-1.432,1.361a1.326,1.326,0,0,0-.295-.1,1.854,1.854,0,0,0-.273-.031,4.071,4.071,0,0,0-.845-.757.519.519,0,0,0-.626.081c-.144.133-.291.282-.439.442-2.327-2.548-3.741-6.273-7.374-6.9A.24.24,0,0,0,46.57-100.151Z" transform="translate(-29.743 117.571)" fill="#1f2327"/>
        <path id="Path_2559-2" data-name="Path 2559" d="M75.286-121.077a11.172,11.172,0,0,0,.486,3.543,5.4,5.4,0,0,0-1.345.456A15.887,15.887,0,0,1,75.286-121.077Zm-1.014,4.665a4.953,4.953,0,0,1,1.845-.609.285.285,0,0,0,.27-.355,26.343,26.343,0,0,0-.781-3.922.155.155,0,0,0-.216-.094c.058-.165.112-.331.169-.5.04-.115-.144-.194-.194-.083a13.593,13.593,0,0,0-1.493,5.328A.268.268,0,0,0,74.272-116.412Z" transform="translate(-48.302 129.24)" fill="#1f2327"/>
        <path id="Path_2560-2" data-name="Path 2560" d="M66.956-33.318a1.973,1.973,0,0,0-.273-1.093.167.167,0,0,0-.288.169,3.534,3.534,0,0,1,.255,1.545,1.456,1.456,0,0,0,.475.852c-.252,0-.5-.012-.752-.031a4.271,4.271,0,0,1-.91-.18c-.277-.082-.054-.741-.018-.929a4.449,4.449,0,0,1,1.77-2.629c.036-.027,0-.088-.036-.062a4.645,4.645,0,0,0-2.086,3.657.126.126,0,0,0,.065.109,5.641,5.641,0,0,0,2.37.372.154.154,0,0,0,.108-.259A1.638,1.638,0,0,1,66.956-33.318Z" transform="translate(-42.11 72.954)" fill="#1f2327"/>
        <path id="Path_2561-2" data-name="Path 2561" d="M26.985-84.583a.183.183,0,0,0,.007-.042,7.335,7.335,0,0,1,2.82,2.829,15.476,15.476,0,0,1-3.388,1.167A8.24,8.24,0,0,1,26.985-84.583Zm-1.061,4.32a.269.269,0,0,0,.263.2,14.281,14.281,0,0,0,4.021-1.358.248.248,0,0,0,.144-.358c-.816-1.74-2.5-2.691-4.1-3.606a.119.119,0,0,0-.119.206l.669.425c-.007,0-.018,0-.022.007C25.46-84.063,25.719-81.424,25.924-80.263Z" transform="translate(-17.031 105.188)" fill="#1f2327"/>
        <path id="Path_2562-2" data-name="Path 2562" d="M103.564-76.653a.226.226,0,0,0-.273.274,13.732,13.732,0,0,1-.025,4.49.251.251,0,0,0,.237.313c2.378-.091,3.766-1.953,5.471-3.349.273-.224-.119-.615-.388-.389-1.5,1.247-2.759,2.975-4.795,3.217a13.808,13.808,0,0,0-.025-4.092,5.856,5.856,0,0,0,5.021-1.558c.014-.012,0-.028-.018-.018A6.262,6.262,0,0,1,103.564-76.653Z" transform="translate(-67.12 100.226)" fill="#1f2327"/>
        <path id="Path_2563-2" data-name="Path 2563" d="M25.03-134.923a7.615,7.615,0,0,0,.986-1.541c.338-.6.673-1.18.957-1.8.014-.035-.029-.076-.058-.044a8.424,8.424,0,0,0-1.029,1.5,17.287,17.287,0,0,0-1.007,1.774C24.839-134.947,24.95-134.838,25.03-134.923Z" transform="translate(-15.925 139.678)" fill="#1f2327"/>
        <path id="Path_2564-2" data-name="Path 2564" d="M39.263-136.4c.1.07.191-.06.147-.147-.1-.21.446-.686.572-.808a6.289,6.289,0,0,1,1.385-.991c.165-.091.022-.326-.144-.248C40.849-138.418,38.325-137.087,39.263-136.4Z" transform="translate(-25.008 139.86)" fill="#1f2327"/>
        <path id="Path_2565-2" data-name="Path 2565" d="M83.671-132.728a1.852,1.852,0,0,0,.27-.513,2.923,2.923,0,0,1,.392-.584,2.968,2.968,0,0,1,1.281-.834c.144-.051.083-.281-.065-.231a3.452,3.452,0,0,0-1.334.8,2.041,2.041,0,0,0-.7,1.292A.1.1,0,0,0,83.671-132.728Z" transform="translate(-53.47 137.482)" fill="#1f2327"/>
        <path id="Path_2566-2" data-name="Path 2566" d="M91.028-131.911a11.9,11.9,0,0,0,1.086-1.437,3.933,3.933,0,0,1,1.507-1.228c.025-.012.014-.056-.014-.046a3.987,3.987,0,0,0-1.489,1.044,5.084,5.084,0,0,0-1.212,1.6C90.881-131.909,90.978-131.867,91.028-131.911Z" transform="translate(-58.206 137.308)" fill="#1f2327"/>
        <path id="Path_2567-2" data-name="Path 2567" d="M102.019-130.108a14.533,14.533,0,0,0,2.637-2.665.048.048,0,0,0-.068-.068,30.724,30.724,0,0,1-2.64,2.609C101.876-130.178,101.94-130.057,102.019-130.108Z" transform="translate(-65.258 136.176)" fill="#1f2327"/>
        <path id="Path_2568-2" data-name="Path 2568" d="M109.376-128.665a21.862,21.862,0,0,1,3.291-2.288c.083-.043.011-.165-.072-.124a10.155,10.155,0,0,0-3.3,2.327A.059.059,0,0,0,109.376-128.665Z" transform="translate(-69.971 135.042)" fill="#1f2327"/>
        <path id="Path_2569-2" data-name="Path 2569" d="M125.759-58.932a.071.071,0,1,0,.112.087,16.921,16.921,0,0,1,3.244-3.324c.011-.008,0-.027-.014-.019A17.03,17.03,0,0,0,125.759-58.932Z" transform="translate(-80.513 90.928)" fill="#1f2327"/>
        <path id="Path_2570-2" data-name="Path 2570" d="M114.748-16.446c-.036.07.054.149.112.087.727-.769,1.363-1.588,2.155-2.3a29.614,29.614,0,0,1,3.1-2.315c.061-.043,0-.146-.061-.1C118.194-19.874,115.766-18.512,114.748-16.446Z" transform="translate(-73.47 64.609)" fill="#1f2327"/>
        <path id="Path_2571-2" data-name="Path 2571" d="M24.559-127.258c-.1.069-.205.142-.306.214.1-.067.212-.132.32-.192C24.588-127.244,24.573-127.267,24.559-127.258Z" transform="translate(-15.53 132.593)" fill="#1f2327"/>
        <path id="Path_2572-2" data-name="Path 2572" d="M6.726-94.486a13.244,13.244,0,0,1,1.615-2.606c.748-.911,1.575-1.754,2.306-2.679.029-.036-.022-.086-.05-.051-.831.98-1.759,1.873-2.608,2.838a4.425,4.425,0,0,0-1.4,2.462A.072.072,0,0,0,6.726-94.486Z" transform="translate(-4.222 115.031)" fill="#1f2327"/>
        <path id="Path_2573-2" data-name="Path 2573" d="M100.228-10.152a3.9,3.9,0,0,0-2.036,2.01c-.058.11.108.207.165.1a3.722,3.722,0,0,1,1.917-1.946C100.375-10.027,100.332-10.189,100.228-10.152Z" transform="translate(-62.866 57.611)" fill="#1f2327"/>
      </g>
    </g>
  </g>
</svg>
