<?xml version="1.0" encoding="utf-8"?>
<!-- Generator: Adobe Illustrator 25.4.1, SVG Export Plug-In . SVG Version: 6.00 Build 0)  -->
<svg version="1.1" id="Layer_1" xmlns="http://www.w3.org/2000/svg" xmlns:xlink="http://www.w3.org/1999/xlink" x="0px" y="0px"
	 viewBox="0 0 1536 424.2" style="enable-background:new 0 0 1536 424.2;" xml:space="preserve">
<style type="text/css">
	.st0{fill:#2F3842;}
	.st1{fill:#5271FF;}
</style>
<g id="Group_1283" transform="translate(-0.001)">
	<rect id="Rectangle_904" x="-1" class="st0" width="1538" height="251"/>
	<path id="Intersection_4" class="st0" d="M-1,305.8V250h1538v55.8c0,0-87.4,88.3-183.2,78.8c-95.9-9.4-57.6-110.8-200.3-116.5
		S900.7,355.5,783,361.8c-54.7,2.9-58.5-16.4-57-35.7c1.7-22.2,10.5-44.4-43.1-32.8c-100.1,21.7-129.2,109.8-300.2,113
		c-2.6,0-5.1,0.1-7.7,0.1C205.4,406.3-1,305.8-1,305.8z"/>
	<path id="Subtraction_1" class="st1" d="M375,424.2c-21.7-0.1-43.3-1.5-64.8-4.3c-20.7-2.6-42.8-6.4-65.4-11.4
		c-41.1-9.1-81.6-20.7-121.3-34.5c-16.6-5.7-33.5-11.9-50.1-18.4c-13.3-5.2-26.6-10.6-39.4-16.1C12.7,330.4-0.4,324-1,323.8h0v-18.5
		c0.1,0.1,13,6.3,34.9,15.7c12.7,5.5,26,10.9,39.4,16.1c16.7,6.5,33.5,12.7,50.1,18.4c39.7,13.9,80.2,25.4,121.3,34.5
		c22.7,4.9,44.7,8.8,65.4,11.4c21.5,2.8,43.2,4.2,64.8,4.3c2.6,0,5.2,0,7.7-0.1c12.7-0.2,25.1-1,36.8-2.1c11.1-1.1,22-2.7,32.4-4.7
		c9.8-1.9,19.4-4.2,28.6-6.9c8.6-2.5,17.1-5.4,25.3-8.7c31.8-12.5,56.4-28.6,80.1-44.1c29.9-19.6,58.1-38,97-46.5
		c9.9-2.1,17.8-3.2,24.2-3.2c8.1,0,13.7,1.7,16.8,5.3c2.2,2.4,3.3,5.7,3.6,10.3c0.1,4.5-0.2,8.9-0.8,13.4c-0.8-3.2-2.9-5.9-5.8-7.5
		c-3.3-1.9-7.8-2.8-13.8-2.8c-6.4,0-14.3,1-24.2,3.2c-38.9,8.4-67.1,26.9-97,46.5h0c-23.7,15.5-48.2,31.6-80.1,44.1
		c-8.2,3.2-16.8,6.2-25.3,8.6c-9.2,2.7-18.8,5-28.6,6.9c-10.4,2-21.3,3.6-32.4,4.7c-11.7,1.2-24.1,1.9-36.8,2.1
		C380,424.2,377.4,424.2,375,424.2z M1368.3,403.3c-4.9,0-9.7-0.2-14.5-0.7c-5-0.5-9.9-1.3-14.8-2.4c-4.3-1-8.5-2.3-12.6-3.9
		c-7.2-2.8-14-6.7-20.1-11.6c-11.5-9.1-19.8-20.6-28.5-32.8c-10.8-15.1-22-30.7-40.5-43c-4.9-3.2-10-6.1-15.3-8.5
		c-6-2.8-12.3-5.1-18.6-6.9c-7.4-2.1-15-3.8-22.6-4.9c-9-1.3-18.1-2.2-27.2-2.5c-4.2-0.2-8.4-0.3-12.6-0.3
		c-73.8,0-138.7,25.5-201.4,50.2c-27,10.6-52.5,20.7-78.4,28.6c-12.8,4-25.8,7.3-38.9,10c-12.9,2.6-26,4.3-39.1,5.1
		c-3.7,0.2-7.2,0.3-10.5,0.3c-20.3,0-33.6-3.7-40.5-11.2c-2.9-3.2-4.9-7.2-5.6-11.6c-0.7-4.4-0.9-8.8-0.4-13.3
		c0.1-1.4,0.3-2.9,0.5-4.9c0.6,3.1,1.8,6.1,3.6,8.8c2.1,2.9,4.8,5.4,7.9,7.1c4.3,2.3,8.9,3.9,13.7,4.8c6.9,1.2,13.9,1.8,20.9,1.7
		c3.3,0,6.8-0.1,10.5-0.3c13.1-0.7,26.2-2.4,39.1-5.1c13.1-2.7,26.1-6,38.9-10c25.9-8,51.4-18,78.4-28.6
		c31-12.2,63.1-24.8,96.4-34.3c16.8-4.9,33.9-8.7,51.2-11.5c8.9-1.4,17.9-2.5,26.6-3.2c9.1-0.8,18.3-1.2,27.3-1.2
		c4.2,0,8.5,0.1,12.6,0.3c9.1,0.3,18.2,1.2,27.2,2.5c7.6,1.1,15.2,2.8,22.6,4.9c6.4,1.8,12.6,4.1,18.6,6.9
		c5.3,2.4,10.4,5.3,15.3,8.5c18.5,12.3,29.7,27.9,40.5,43c8.7,12.2,17,23.7,28.5,32.8c6.1,4.8,12.9,8.7,20.1,11.6
		c4.1,1.6,8.3,2.9,12.6,3.9c4.9,1.1,9.8,1.9,14.8,2.4c4.8,0.5,9.6,0.7,14.5,0.7c11.1,0,22.2-1.2,33.1-3.4c10.6-2.2,21.1-5.2,31.2-9
		c18.9-7.2,36.9-16.3,53.8-27.3c12.9-8.3,25.2-17.4,36.9-27.3c8.7-7.4,13.7-12.4,13.7-12.4v18.5l0,0c-0.2,0.2-5.2,5.2-13.7,12.4
		c-11.7,9.9-24,19-36.9,27.3c-16.9,11-34.9,20.2-53.8,27.3c-10.2,3.8-20.6,6.8-31.2,9C1390.5,402.1,1379.4,403.2,1368.3,403.3
		L1368.3,403.3z"/>
</g>
</svg>
