<svg id="Header_-_mobile_-_inner_page" data-name="Header - mobile - inner page" xmlns="http://www.w3.org/2000/svg" width="360" height="157.833" viewBox="0 0 360 157.833">
  <rect id="Rectangle_904" data-name="Rectangle 904" width="360" height="110" transform="translate(0)" fill="#2f3842"/>
  <g id="inner-header-wave-mobile" transform="translate(0)">
    <path id="Intersection_4" data-name="Intersection 4" d="M0,13.074V0H360V13.074s-20.449,20.684-42.891,18.475S303.633,5.577,270.234,4.238s-59.18,20.484-86.719,21.956c-12.809.685-13.7-3.843-13.352-8.372.4-5.208,2.451-10.415-10.085-7.694-23.437,5.087-30.25,25.742-70.27,26.478q-.9.017-1.8.016C48.312,36.623,0,13.074,0,13.074Z" transform="translate(0 109)" fill="#2f3842"/>
    <path id="Subtraction_1" data-name="Subtraction 1" d="M88.008,36.78a144.923,144.923,0,0,1-30.5-3.68,252.806,252.806,0,0,1-28.392-8.1A291.42,291.42,0,0,1,0,13.231V.9A294.976,294.976,0,0,0,29.118,12.67C44.665,18.041,67.5,24.444,88.007,24.445c.6,0,1.2-.005,1.8-.016,24.479-.451,36.746-8.493,47.568-15.587,6.994-4.585,13.6-8.916,22.7-10.891a27.526,27.526,0,0,1,5.668-.747c1.906,0,3.195.4,3.94,1.238,1.12,1.252.889,3.334.643,5.538-.06.543-.123,1.1-.166,1.665-.151,1.958-.1,4.179,1.41,5.813,1.637,1.768,4.741,2.628,9.491,2.628.77,0,1.594-.023,2.451-.069,12.276-.656,24.1-5.314,36.608-10.246,13.907-5.481,28.287-11.149,44.485-11.722h5.316l.31.012a49.078,49.078,0,0,1,11.652,1.735,28.313,28.313,0,0,1,7.941,3.62c4.32,2.885,6.943,6.541,9.479,10.077,4.02,5.6,7.816,10.9,17.8,11.879,1.113.11,2.255.165,3.4.165,10.883,0,21.042-5.068,27.648-9.32A77.022,77.022,0,0,0,360,.9V13.231a77.021,77.021,0,0,1-11.848,9.32,66.066,66.066,0,0,1-12.589,6.408,43.257,43.257,0,0,1-15.058,2.913c-1.139,0-2.282-.056-3.4-.165a20.271,20.271,0,0,1-11.128-4.191,36.276,36.276,0,0,1-6.675-7.687c-4.939-6.885-10.537-14.689-29.073-15.432-.978-.039-1.973-.059-2.958-.059-17.286,0-32.468,5.983-47.15,11.769-12.514,4.932-24.334,9.59-36.611,10.246-.857.046-1.681.069-2.451.069-4.751,0-7.855-.86-9.492-2.628-1.512-1.634-1.561-3.856-1.409-5.813.043-.558.106-1.12.166-1.663.245-2.2.477-4.287-.644-5.539-.745-.833-2.034-1.238-3.939-1.238a27.524,27.524,0,0,0-5.668.747c-9.1,1.975-15.708,6.306-22.7,10.891-5.551,3.639-11.29,7.4-18.743,10.337-8.455,3.331-17.884,5.048-28.825,5.25C89.213,36.775,88.607,36.78,88.008,36.78Z" transform="translate(0 121.053)" fill="#5271ff"/>
  </g>
</svg>
