<svg xmlns="http://www.w3.org/2000/svg" width="360" height="1911" viewBox="0 0 360 1911">
  <g id="Group_1284" data-name="Group 1284" transform="translate(0 -1867)">
    <g id="Rectangle_961" data-name="Rectangle 961" transform="translate(0 1867)" fill="#e4ebff" stroke="#b0c7fd" stroke-width="10">
      <rect width="360" height="1911" rx="40" stroke="none"/>
      <rect x="5" y="5" width="350" height="1901" rx="35" fill="none"/>
    </g>
    <g id="Group_1206" data-name="Group 1206" transform="translate(81 1917.958)">
      <path id="Path_5026" data-name="Path 5026" d="M193.512-94.606l-13.469-7.731-.03.05c-2.689-1.652-6.184-1.647-10.044.581L15.137-12.308C6.815-7.506,0,5.5,0,16.6v377.27c0,6.054,2.068,10.25,5.268,12.112l-.015.085,13.334,7.641,151.382-97.795C178.29,311.11,185.1,298.1,185.1,287.005Z" transform="translate(0 103.46)" fill="#c6dbf1"/>
      <path id="Path_5027" data-name="Path 5027" d="M17.736,406.838,172.572,317.45c8.322-4.807,15.132-17.82,15.132-28.921V-88.736c0-11.1-6.81-16.244-15.132-11.442L17.736-10.78C9.414-5.978,2.609,7.036,2.609,18.131V395.4C2.609,406.5,9.414,411.645,17.736,406.838Z" transform="translate(10.455 109.403)" fill="#fff"/>
      <path id="Path_5028" data-name="Path 5028" d="M9.211,391.206c-3.665,0-5.328-3.705-5.328-10.871V12.985C3.883,2.85,10.1-9.037,17.708-13.423L165.524-98.26a11.923,11.923,0,0,1,5.558-1.958c3.43,0,4.782,3.606,4.782,10.721V278.044c0,10.135-6.219,22.017-13.825,26.408L14.809,389.283A11.826,11.826,0,0,1,9.211,391.206Z" transform="translate(15.56 116.452)" fill="#d7e6f6"/>
      <path id="Path_5029" data-name="Path 5029" d="M4.958,346.462l161.566-93.394V-95.08L4.958-1.681Z" transform="translate(19.868 137.041)" fill="#061728"/>
      <path id="Path_5030" data-name="Path 5030" d="M26.508-16.46,67.457-40.134V-89.56L26.508-65.891Z" transform="translate(106.222 159.161)" fill="#fff"/>
      <path id="Path_5031" data-name="Path 5031" d="M17.112-10.947,58.056-34.611V-84.042L17.112-60.373Z" transform="translate(68.571 181.273)" fill="#8fb5d8"/>
      <path id="Path_5032" data-name="Path 5032" d="M7.5-5.473,48.442-29.142V-78.573L7.5-54.9Z" transform="translate(30.046 203.188)" fill="#fff"/>
      <path id="Path_5033" data-name="Path 5033" d="M26.508-4.965,67.457-28.634V-78.065L26.508-54.391Z" transform="translate(106.222 205.223)" fill="#c6dbf1"/>
      <path id="Path_5034" data-name="Path 5034" d="M17.112.549,58.056-23.115V-72.546L17.112-48.877Z" transform="translate(68.571 227.339)" fill="#c6dbf1"/>
      <path id="Path_5035" data-name="Path 5035" d="M7.5,6.023,48.442-17.651V-67.077L7.5-43.408Z" transform="translate(30.046 249.254)" fill="#8fb5d8"/>
      <path id="Path_5036" data-name="Path 5036" d="M26.508,6.584,67.457-17.085V-66.511L26.508-42.847Z" transform="translate(106.222 251.522)" fill="#8fb5d8"/>
      <path id="Path_5037" data-name="Path 5037" d="M17.112,12.1,58.056-11.567V-60.993L17.112-37.324Z" transform="translate(68.571 273.634)" fill="#c6dbf1"/>
      <path id="Path_5038" data-name="Path 5038" d="M7.5,17.576,48.442-6.093V-55.524L7.5-31.85Z" transform="translate(30.046 295.549)" fill="#fff"/>
      <path id="Path_5039" data-name="Path 5039" d="M20.749-80.991c0,3.31,2.013,4.827,4.5,3.395s4.491-5.273,4.491-8.587-2.013-4.827-4.491-3.395S20.749-84.306,20.749-80.991Z" transform="translate(83.145 156.926)" fill="#fff"/>
      <path id="Path_5040" data-name="Path 5040" d="M24.479-84.828c0,2.589,1.572,3.785,3.52,2.659s3.52-4.131,3.52-6.73S29.942-92.684,28-91.557,24.479-87.422,24.479-84.828Z" transform="translate(98.091 149.457)" fill="#fff"/>
      <path id="Path_5041" data-name="Path 5041" d="M25.535,9.054C22.982,9.054,20.4,7.006,20.4,3.1V1.308A10.61,10.61,0,0,1,25.09-7.364l16.243-9.373a5.646,5.646,0,0,1,2.849-.806c2.559,0,5.142,2.048,5.142,5.959V-9.8a10.632,10.632,0,0,1-4.692,8.677L28.384,8.253A5.676,5.676,0,0,1,25.535,9.054Z" transform="translate(81.738 447.741)" fill="#8fb5d8"/>
      <path id="Path_5042" data-name="Path 5042" d="M24.1,2.754,40.349-6.619a7.344,7.344,0,0,0,3.039-5.823v-1.783c0-2.228-1.372-3.265-3.039-2.3L24.1-7.145a7.3,7.3,0,0,0-3.044,5.813V.456C21.056,2.684,22.423,3.721,24.1,2.754Z" transform="translate(84.375 450.38)" fill="#fff"/>
      <path id="Path_5043" data-name="Path 5043" d="M86.707-43.555c-10.876-5.017-24.13-3.335-36.357,4.627C37.647-30.656,24.383-14.348,14.864,4.7l-.315.641,3.2,1.567.31-.626C27.052-11.549,39.48-26.791,51.3-34.477c11.136-7.26,23.223-8.853,33.177-4.406l.631.28,2.258-4.652Z" transform="translate(58.3 332.129)" fill="#c6dbf1"/>
      <path id="Path_5044" data-name="Path 5044" d="M37.422-34.975c-7,4.562-13.529,11.967-18.887,21.4l-.376.651,3.225,1.587.33-.576C26.5-20.108,32.259-26.548,38.373-30.523c5.723-3.73,11.376-5.042,16.353-3.81l.561.135,2.288-4.707-.816-.23C50.856-40.813,44.181-39.366,37.422-34.975Z" transform="translate(72.766 358.499)" fill="#c6dbf1"/>
      <path id="Path_5045" data-name="Path 5045" d="M43.993-36.753c-10.24,6.67-19.949,18.131-27.344,32.271l-.335.641,3.215,1.582.325-.606c6.835-12.9,15.743-23.358,25.091-29.447,8.858-5.763,17.485-7.325,24.931-4.506l.606.23,2.263-4.667-.706-.28C63.616-44.874,53.932-43.227,43.993-36.753Z" transform="translate(65.369 344.86)" fill="#c6dbf1"/>
      <path id="Path_5046" data-name="Path 5046" d="M27.3-35.751c-3.39,1.953-6.144,7.19-6.144,11.677,0,2.5.856,4.431,2.358,5.288a3.626,3.626,0,0,0,1.838.5,5.45,5.45,0,0,0,2.659-.8c3.44-1.988,6.139-7.12,6.139-11.677,0-2.5-.856-4.426-2.348-5.3A4.413,4.413,0,0,0,27.3-35.751Z" transform="translate(84.772 371.608)" fill="#c6dbf1"/>
      <path id="Path_5047" data-name="Path 5047" d="M56.133,12.4,33.306,25.576c-3.32,1.923-6.039-.135-6.039-4.562V-9.424c0-4.431,2.719-9.624,6.039-11.542L56.133-34.134c3.325-1.923,6.039.13,6.039,4.557V.861C62.172,5.292,59.458,10.485,56.133,12.4Z" transform="translate(109.263 378.368)" fill="#c6dbf1"/>
      <path id="Path_5048" data-name="Path 5048" d="M38.073,22.819,15.246,36c-3.325,1.913-6.044-.14-6.044-4.572V.988c0-4.421,2.719-9.619,6.044-11.532L38.073-23.728c3.32-1.918,6.039.135,6.039,4.567V11.278C44.112,15.709,41.393,20.9,38.073,22.819Z" transform="translate(36.874 420.081)" fill="#c6dbf1"/>
      <path id="Path_5049" data-name="Path 5049" d="M47.192,17.531,24.365,30.71c-3.325,1.918-6.039-.135-6.039-4.567V-4.3c0-4.426,2.714-9.619,6.039-11.537L47.192-29.011c3.32-1.918,6.039.135,6.039,4.567V5.995C53.231,10.426,50.512,15.613,47.192,17.531Z" transform="translate(73.435 398.911)" fill="#c6dbf1"/>
    </g>
    <path id="Path_5547" data-name="Path 5547" d="M-55.2-13.7V-17.52h6.648V0h-4.272V-13.7ZM-32.328,0-34.9-3.72-37.056,0H-41.5l4.416-6.84-4.536-6.552h4.608l2.568,3.7,2.16-3.7h4.44l-4.488,6.744L-27.72,0Zm23.4-16.848v3.288h-4.464V0h-4.1V-13.56H-21.96v-3.288ZM-7.68-6.72a8,8,0,0,1,.78-3.624,5.818,5.818,0,0,1,2.124-2.4,5.545,5.545,0,0,1,3-.84,5.154,5.154,0,0,1,2.484.576A4.243,4.243,0,0,1,2.352-11.5v-1.9h4.1V0h-4.1V-1.9A4.432,4.432,0,0,1,.684-.384,5.154,5.154,0,0,1-1.8.192,5.445,5.445,0,0,1-4.776-.66,5.887,5.887,0,0,1-6.9-3.084,8.08,8.08,0,0,1-7.68-6.72ZM2.352-6.7A3.355,3.355,0,0,0,1.5-9.12a2.768,2.768,0,0,0-2.076-.888,2.786,2.786,0,0,0-2.076.876A3.313,3.313,0,0,0-3.5-6.72a3.4,3.4,0,0,0,.852,2.436,2.751,2.751,0,0,0,2.076.9A2.768,2.768,0,0,0,1.5-4.272,3.355,3.355,0,0,0,2.352-6.7Zm11.184-4.8a4.223,4.223,0,0,1,1.656-1.512,5.172,5.172,0,0,1,2.472-.576,5.545,5.545,0,0,1,3,.84,5.818,5.818,0,0,1,2.124,2.4,8,8,0,0,1,.78,3.624,8.08,8.08,0,0,1-.78,3.636A5.888,5.888,0,0,1,20.664-.66a5.487,5.487,0,0,1-3,.852,5.172,5.172,0,0,1-2.472-.564,4.361,4.361,0,0,1-1.656-1.5V0h-4.1V-17.76h4.1ZM19.392-6.72a3.313,3.313,0,0,0-.852-2.412,2.814,2.814,0,0,0-2.1-.876,2.768,2.768,0,0,0-2.076.888A3.355,3.355,0,0,0,13.512-6.7a3.355,3.355,0,0,0,.852,2.424,2.768,2.768,0,0,0,2.076.888,2.789,2.789,0,0,0,2.088-.9A3.37,3.37,0,0,0,19.392-6.72Zm10.44-11.04V0h-4.1V-17.76Zm15.6,10.848a10.477,10.477,0,0,1-.072,1.2H36.072a2.791,2.791,0,0,0,.8,1.908,2.456,2.456,0,0,0,1.74.66,2.157,2.157,0,0,0,2.136-1.3H45.12a5.994,5.994,0,0,1-1.212,2.376,6.068,6.068,0,0,1-2.2,1.656,7.054,7.054,0,0,1-2.952.6,7.183,7.183,0,0,1-3.5-.84,5.975,5.975,0,0,1-2.4-2.4A7.409,7.409,0,0,1,31.992-6.7a7.494,7.494,0,0,1,.852-3.648,5.9,5.9,0,0,1,2.388-2.4,7.234,7.234,0,0,1,3.528-.84,7.161,7.161,0,0,1,3.456.816A5.859,5.859,0,0,1,44.58-10.44,7.066,7.066,0,0,1,45.432-6.912Zm-4.2-1.08a2.11,2.11,0,0,0-.72-1.68,2.65,2.65,0,0,0-1.8-.624,2.6,2.6,0,0,0-1.74.6,2.665,2.665,0,0,0-.876,1.7ZM55.056-3.48V0H52.968a5.111,5.111,0,0,1-3.48-1.092A4.513,4.513,0,0,1,48.24-4.656V-9.984H46.608v-3.408H48.24v-3.264h4.1v3.264h2.688v3.408H52.344v5.376a1.125,1.125,0,0,0,.288.864,1.406,1.406,0,0,0,.96.264Z" transform="translate(180 2461)" fill="#1f2327"/>
    <g id="Group_1271" data-name="Group 1271" transform="translate(-1016.236 1048)">
      <g id="Group_1208" data-name="Group 1208" transform="translate(1193.582 1491)">
        <path id="Path_4891" data-name="Path 4891" d="M44.716-24.04c-22.094,0-40,10.746-40,24s17.911,24,40,24,40-10.744,40-24S66.81-24.04,44.716-24.04Z" transform="translate(4.696 127.597)" fill="#c6dbf1"/>
        <path id="Path_4892" data-name="Path 4892" d="M38.888-23.421c-15.644,0-28.328,7.61-28.328,16.994s12.683,17,28.328,17,28.33-7.61,28.33-17S54.534-23.421,38.888-23.421Z" transform="translate(10.525 128.214)" fill="#fff"/>
        <path id="Path_4893" data-name="Path 4893" d="M45.431-6.131l-.036-.2c-2.6-5.373-10.251-6-10.251-16.06v-9.195H28.511v9.195c0,9.988-7.54,10.683-10.193,15.956l-.052.092-.006.012,0,.006a5.462,5.462,0,0,0-.619,2.488c0,4.692,6.34,8.5,14.163,8.5S45.967.852,45.967-3.84A5.4,5.4,0,0,0,45.431-6.131Z" transform="translate(17.581 120.073)" fill="#c6dbf1"/>
        <path id="Path_4894" data-name="Path 4894" d="M81.57-40.709c9.415,26.067-.413,53.5-21.952,61.284S12.988,13.529,3.574-12.539s.413-53.5,21.95-61.284S72.156-66.776,81.57-40.709Z" transform="translate(0 75.914)" fill="#fff"/>
        <path id="Path_4895" data-name="Path 4895" d="M46.85-17.1C46.85-.574,36.8,7.022,24.41-.133S1.969-26.486,1.969-43.011,12.014-67.131,24.41-59.977,46.85-33.624,46.85-17.1Z" transform="translate(1.962 89.094)" fill="#061728"/>
        <path id="Path_4897" data-name="Path 4897" d="M29.394-33.363c0,8.832-5.369,12.891-11.992,9.067S5.409-38.381,5.409-47.212,10.778-60.1,17.4-56.278,29.394-42.195,29.394-33.363Z" transform="translate(5.391 94.031)" fill="#153b65"/>
        <path id="Path_4898" data-name="Path 4898" d="M21.43-41.212c0,5.277-3.209,7.7-7.166,5.417S7.1-44.211,7.1-49.488s3.209-7.7,7.168-5.417S21.43-46.491,21.43-41.212Z" transform="translate(7.073 95.975)" fill="#a7c5e3"/>
        <path id="Path_4899" data-name="Path 4899" d="M9.974-55.6,6.981-53.949l8.862,20.1,3.129-1.689Z" transform="translate(6.958 96.145)" fill="#a7c5e3"/>
        <path id="Path_4900" data-name="Path 4900" d="M20.072-40.46c0,5.279-3.211,7.705-7.168,5.419S5.736-43.457,5.736-48.734s3.211-7.7,7.168-5.417S20.072-45.737,20.072-40.46Z" transform="translate(5.717 96.727)" fill="#c6dbf1"/>
        <path id="Path_4901" data-name="Path 4901" d="M17.08-42.974c0,3.84-2.334,5.6-5.215,3.942S6.649-45.156,6.649-49s2.336-5.6,5.215-3.942S17.08-46.815,17.08-42.974Z" transform="translate(6.627 98.17)" fill="#51b0e3"/>
        <path id="Path_4902" data-name="Path 4902" d="M12.907-46.56c0,1.777-1.08,2.6-2.414,1.825a5.779,5.779,0,0,1-2.414-4.612c0-1.777,1.08-2.594,2.414-1.825A5.782,5.782,0,0,1,12.907-46.56Z" transform="translate(8.052 100.265)" fill="#fff"/>
        <path id="Path_5050" data-name="Path 5050" d="M4006.4-7595.627c15.235-8.088,24.871-34.038,15.14-59.213s-33.782-39.1-54.273-32.483c17.892-5.208,34.054,11.569,43.031,28.636S4024.738-7610.276,4006.4-7595.627Z" transform="translate(-3940.233 7688.965)" fill="#c6dbf1"/>
      </g>
      <g id="Group_1207" data-name="Group 1207" transform="translate(1109.235 1547.114)">
        <path id="Path_4891-2" data-name="Path 4891" d="M72.519-24.04C35.07-24.04,4.712-5.825,4.712,16.644S35.07,57.321,72.519,57.321s67.807-18.212,67.807-40.677S109.967-24.04,72.519-24.04Z" transform="translate(11.235 199.567)" fill="#c6dbf1"/>
        <path id="Path_4892-2" data-name="Path 4892" d="M58.575-23.421c-26.517,0-48.015,12.9-48.015,28.8s21.5,28.808,48.015,28.808,48.018-12.9,48.018-28.808S85.095-23.421,58.575-23.421Z" transform="translate(25.179 201.043)" fill="#fff"/>
        <path id="Path_4893-2" data-name="Path 4893" d="M64.747,11.562l-.061-.345C60.272,2.11,47.31,1.04,47.31-16V-31.589H36.067V-16C36.067.925,23.287,2.1,18.789,11.041L18.7,11.2l-.01.02,0,.01a9.258,9.258,0,0,0-1.049,4.217c0,7.953,10.746,14.4,24.006,14.4s24.009-6.451,24.009-14.4A9.154,9.154,0,0,0,64.747,11.562Z" transform="translate(42.058 181.568)" fill="#c6dbf1"/>
        <path id="Path_4894-2" data-name="Path 4894" d="M138.26-16.257c15.958,44.184-.7,90.689-37.208,103.875S22.015,75.674,6.057,31.49s.7-90.689,37.2-103.875S122.3-60.441,138.26-16.257Z" transform="translate(0 75.929)" fill="#fff"/>
        <path id="Path_4895-2" data-name="Path 4895" d="M78.04,14.571c0,28.009-17.027,40.884-38.034,28.757S1.969-1.339,1.969-29.348,19-70.232,40.006-58.106,78.04-13.438,78.04,14.571Z" transform="translate(4.695 107.459)" fill="#061728"/>
        <path id="Path_4897-2" data-name="Path 4897" d="M46.062-16.438c0,14.969-9.1,21.85-20.327,15.369S5.409-24.943,5.409-39.912s9.1-21.846,20.327-15.365S46.062-31.407,46.062-16.438Z" transform="translate(12.897 119.268)" fill="#153b65"/>
        <path id="Path_4898-2" data-name="Path 4898" d="M31.393-31.1c0,8.945-5.439,13.057-12.147,9.182S7.1-36.18,7.1-45.125s5.439-13.057,12.15-9.182S31.393-40.045,31.393-31.1Z" transform="translate(16.919 123.919)" fill="#a7c5e3"/>
        <path id="Path_4899-2" data-name="Path 4899" d="M12.054-55.6,6.981-52.8,22-18.729l5.3-2.863Z" transform="translate(16.645 124.325)" fill="#a7c5e3"/>
        <path id="Path_4900-2" data-name="Path 4900" d="M30.036-30.346c0,8.948-5.442,13.06-12.15,9.185S5.736-35.426,5.736-44.371s5.442-13.057,12.15-9.182S30.036-39.291,30.036-30.346Z" transform="translate(13.676 125.717)" fill="#c6dbf1"/>
        <path id="Path_4901-2" data-name="Path 4901" d="M24.329-35.614c0,6.508-3.956,9.5-8.84,6.681s-8.84-10.38-8.84-16.888,3.96-9.5,8.84-6.681S24.329-42.126,24.329-35.614Z" transform="translate(15.853 129.171)" fill="#51b0e3"/>
        <path id="Path_4902-2" data-name="Path 4902" d="M16.262-43.154c0,3.012-1.831,4.4-4.092,3.093s-4.092-4.806-4.092-7.818,1.831-4.4,4.092-3.093S16.262-46.166,16.262-43.154Z" transform="translate(19.263 134.182)" fill="#fff"/>
        <path id="Path_5050-2" data-name="Path 5050" d="M4033.6-7530.759c25.823-13.71,42.156-57.694,25.661-100.365s-57.26-66.282-91.991-55.059c30.326-8.828,57.72,19.609,72.937,48.537S4064.68-7555.589,4033.6-7530.759Z" transform="translate(-3921.445 7688.965)" fill="#c6dbf1"/>
      </g>
    </g>
    <path id="Path_5546" data-name="Path 5546" d="M-75.432-3.288q.816-.648.744-.6,2.352-1.944,3.708-3.192A15.351,15.351,0,0,0-68.688-9.7a4.727,4.727,0,0,0,.936-2.664,2.345,2.345,0,0,0-.456-1.536,1.672,1.672,0,0,0-1.368-.552A1.689,1.689,0,0,0-71-13.764a3.154,3.154,0,0,0-.516,1.932h-3.96A6.8,6.8,0,0,1-74.6-15.24a5.088,5.088,0,0,1,2.184-2.016,6.9,6.9,0,0,1,3.012-.648A5.816,5.816,0,0,1-65.1-16.44a5.185,5.185,0,0,1,1.452,3.816A7.484,7.484,0,0,1-65.4-7.86a25.8,25.8,0,0,1-4.464,4.284h6.48V-.24H-75.432ZM-48.168,0l-2.568-3.72L-52.9,0h-4.44l4.416-6.84-4.536-6.552h4.608l2.568,3.7,2.16-3.7h4.44l-4.488,6.744L-43.56,0Zm10.584-8.448A9.056,9.056,0,0,1-36.5-12.9a7.719,7.719,0,0,1,3.012-3.048,8.745,8.745,0,0,1,4.38-1.092,8.381,8.381,0,0,1,5.136,1.584,7.607,7.607,0,0,1,2.856,4.32h-4.512a3.644,3.644,0,0,0-1.428-1.608,4.015,4.015,0,0,0-2.1-.552,3.92,3.92,0,0,0-3.072,1.32,5.108,5.108,0,0,0-1.176,3.528A5.108,5.108,0,0,0-32.232-4.92,3.92,3.92,0,0,0-29.16-3.6a4.015,4.015,0,0,0,2.1-.552A3.644,3.644,0,0,0-25.632-5.76h4.512a7.552,7.552,0,0,1-2.856,4.308A8.425,8.425,0,0,1-29.112.12a8.745,8.745,0,0,1-4.38-1.092A7.74,7.74,0,0,1-36.5-4.008,8.988,8.988,0,0,1-37.584-8.448ZM-19.416-6.72a8,8,0,0,1,.78-3.624,5.818,5.818,0,0,1,2.124-2.4,5.545,5.545,0,0,1,3-.84,5.154,5.154,0,0,1,2.484.576A4.243,4.243,0,0,1-9.384-11.5v-1.9h4.1V0h-4.1V-1.9A4.432,4.432,0,0,1-11.052-.384a5.154,5.154,0,0,1-2.484.576A5.445,5.445,0,0,1-16.512-.66a5.887,5.887,0,0,1-2.124-2.424A8.08,8.08,0,0,1-19.416-6.72ZM-9.384-6.7a3.355,3.355,0,0,0-.852-2.424,2.768,2.768,0,0,0-2.076-.888,2.786,2.786,0,0,0-2.076.876A3.313,3.313,0,0,0-15.24-6.72a3.4,3.4,0,0,0,.852,2.436,2.751,2.751,0,0,0,2.076.9,2.768,2.768,0,0,0,2.076-.888A3.355,3.355,0,0,0-9.384-6.7Zm24.168-6.84a5.3,5.3,0,0,1,3.972,1.512,5.757,5.757,0,0,1,1.476,4.2V0h-4.08V-7.272a2.767,2.767,0,0,0-.684-2,2.5,2.5,0,0,0-1.884-.708,2.5,2.5,0,0,0-1.884.708,2.767,2.767,0,0,0-.684,2V0H6.936V-7.272a2.767,2.767,0,0,0-.684-2,2.5,2.5,0,0,0-1.884-.708,2.5,2.5,0,0,0-1.884.708,2.767,2.767,0,0,0-.684,2V0H-2.3V-13.392H1.8v1.68a4.393,4.393,0,0,1,1.632-1.332,5.131,5.131,0,0,1,2.28-.492,5.546,5.546,0,0,1,2.7.648,4.645,4.645,0,0,1,1.86,1.848,5.4,5.4,0,0,1,1.9-1.8A5.123,5.123,0,0,1,14.784-13.536ZM35.736-6.912a10.477,10.477,0,0,1-.072,1.2H26.376a2.791,2.791,0,0,0,.8,1.908,2.456,2.456,0,0,0,1.74.66,2.157,2.157,0,0,0,2.136-1.3h4.368a5.994,5.994,0,0,1-1.212,2.376,6.068,6.068,0,0,1-2.2,1.656,7.054,7.054,0,0,1-2.952.6,7.183,7.183,0,0,1-3.5-.84,5.975,5.975,0,0,1-2.4-2.4A7.409,7.409,0,0,1,22.3-6.7a7.494,7.494,0,0,1,.852-3.648,5.9,5.9,0,0,1,2.388-2.4,7.234,7.234,0,0,1,3.528-.84,7.161,7.161,0,0,1,3.456.816,5.859,5.859,0,0,1,2.364,2.328A7.066,7.066,0,0,1,35.736-6.912Zm-4.2-1.08a2.11,2.11,0,0,0-.72-1.68,2.65,2.65,0,0,0-1.8-.624,2.6,2.6,0,0,0-1.74.6,2.665,2.665,0,0,0-.876,1.7ZM42-11.16a5.414,5.414,0,0,1,1.8-1.74,4.641,4.641,0,0,1,2.4-.636v4.344H45.072a3.458,3.458,0,0,0-2.3.66A2.932,2.932,0,0,0,42-6.216V0H37.9V-13.392H42Zm5.352,4.44a8,8,0,0,1,.78-3.624,5.818,5.818,0,0,1,2.124-2.4,5.545,5.545,0,0,1,3-.84,5.154,5.154,0,0,1,2.484.576A4.243,4.243,0,0,1,57.384-11.5v-1.9h4.1V0h-4.1V-1.9A4.432,4.432,0,0,1,55.716-.384a5.154,5.154,0,0,1-2.484.576A5.445,5.445,0,0,1,50.256-.66a5.887,5.887,0,0,1-2.124-2.424A8.08,8.08,0,0,1,47.352-6.72ZM57.384-6.7a3.355,3.355,0,0,0-.852-2.424,2.768,2.768,0,0,0-2.076-.888,2.786,2.786,0,0,0-2.076.876,3.313,3.313,0,0,0-.852,2.412,3.4,3.4,0,0,0,.852,2.436,2.751,2.751,0,0,0,2.076.9,2.768,2.768,0,0,0,2.076-.888A3.355,3.355,0,0,0,57.384-6.7ZM69.912.192a7.7,7.7,0,0,1-3.12-.6,5.329,5.329,0,0,1-2.16-1.644,4.324,4.324,0,0,1-.888-2.34H67.8a1.559,1.559,0,0,0,.648,1.128,2.293,2.293,0,0,0,1.416.432,2.021,2.021,0,0,0,1.188-.3.919.919,0,0,0,.42-.78.9.9,0,0,0-.6-.852,12.121,12.121,0,0,0-1.944-.612,18.251,18.251,0,0,1-2.4-.708A4.147,4.147,0,0,1,64.872-7.26a3.2,3.2,0,0,1-.7-2.172,3.688,3.688,0,0,1,.636-2.1,4.282,4.282,0,0,1,1.872-1.5,7.168,7.168,0,0,1,2.94-.552A5.894,5.894,0,0,1,73.6-12.336a4.856,4.856,0,0,1,1.668,3.312H71.472a1.634,1.634,0,0,0-.612-1.1,2.123,2.123,0,0,0-1.356-.408,1.875,1.875,0,0,0-1.1.276.881.881,0,0,0-.384.756.923.923,0,0,0,.612.864,9.8,9.8,0,0,0,1.908.576,20.874,20.874,0,0,1,2.424.756,4.181,4.181,0,0,1,1.644,1.2,3.4,3.4,0,0,1,.732,2.22,3.524,3.524,0,0,1-.66,2.1,4.365,4.365,0,0,1-1.9,1.452A7.251,7.251,0,0,1,69.912.192Z" transform="translate(180 2897)" fill="#1f2327"/>
    <g id="Group_1197" data-name="Group 1197" transform="translate(88 2974.999)">
      <path id="Path_4995" data-name="Path 4995" d="M157.419,41.045c0-46.328-28.167-100.146-62.913-120.206-16.311-9.417-31.168-9.719-42.347-2.6L20.6-63.509,32-40.815c-.26,2.955-.409,6.019-.409,9.215,0,46.328,28.167,100.146,62.913,120.206,1.158.668,2.307,1.284,3.449,1.862l8.964,17.843L134.3,92.66C148.406,85.425,157.419,67.241,157.419,41.045Z" transform="translate(27.217 121.46)" fill="#fff"/>
      <path id="Path_4996" data-name="Path 4996" d="M133.27,44.518C133.27-1.81,105.1-55.628,70.355-75.69c-16.308-9.415-31.168-9.719-42.347-2.6,0,0,14.31-8.335,38.111,5.357C100.895-52.922,129.032.947,129.032,47.275c0,22.919-6.9,39.7-18.075,48.394C124.594,88.153,133.27,70.2,133.27,44.518Z" transform="translate(37.003 126.046)" fill="#061728"/>
      <path id="Path_4997" data-name="Path 4997" d="M137.461,48.975c0,46.328-28.167,67.618-62.913,47.56S11.638,22.657,11.638-23.67,39.8-91.293,74.548-71.233,137.461,2.647,137.461,48.975Z" transform="translate(15.376 131.933)" fill="#c6dbf1"/>
      <path id="Path_4998" data-name="Path 4998" d="M48.31-73.555a28.824,28.824,0,0,0-14.6,3.8C21.162-62.507,13.959-45.588,13.959-23.34c0,42.5,25.916,92.038,57.769,110.429,13.753,7.941,27.023,9.032,37.356,3.064,12.555-7.249,19.753-24.166,19.753-46.416,0-42.5-25.913-92.038-57.764-110.429C63.17-71.253,55.424-73.555,48.31-73.555ZM94.492,95.26c-7.344,0-15.306-2.358-23.418-7.042C38.863,69.623,12.657,19.576,12.657-23.34c0-22.729,7.437-40.058,20.405-47.547,10.754-6.2,24.486-5.12,38.666,3.066C103.939-49.225,130.144.821,130.144,43.737c0,22.729-7.439,40.058-20.405,47.547A30.141,30.141,0,0,1,94.492,95.26Z" transform="translate(16.722 137.112)" fill="#8fb5d8"/>
      <path id="Path_4999" data-name="Path 4999" d="M44.437-11.606l43.714,25.24c2.7,1.557,5.3,1.78,7.3.627,2.479-1.434,3.9-4.812,3.9-9.273,0-8.748-5.318-18.936-11.857-22.71L43.782-42.962c-2.7-1.557-5.3-1.776-7.3-.624-2.479,1.432-3.9,4.809-3.9,9.268C32.58-25.57,37.9-15.38,44.437-11.606Zm48.2,27.9A10.38,10.38,0,0,1,87.5,14.762L43.782-10.478c-6.894-3.978-12.506-14.674-12.506-23.841,0-4.939,1.66-8.73,4.552-10.4,2.426-1.4,5.485-1.177,8.609.627L88.151-18.85c6.894,3.981,12.5,14.674,12.5,23.838,0,4.937-1.657,8.73-4.552,10.4A6.845,6.845,0,0,1,92.636,16.3Z" transform="translate(41.32 175.736)" fill="#8fb5d8"/>
      <path id="Path_5000" data-name="Path 5000" d="M38.989-27.864,62.7-14.148c2.465,1.428,4.484-.1,4.484-3.391s-2.019-7.149-4.484-8.572L38.989-39.83c-2.47-1.423-4.487.1-4.487,3.394S36.519-29.289,38.989-27.864Z" transform="translate(45.582 182.691)" fill="#fff"/>
      <path id="Path_5001" data-name="Path 5001" d="M35.562-14.392l21.661,12.5c1,.578,1.824-.042,1.824-1.379a4.391,4.391,0,0,0-1.824-3.486L35.562-19.259c-1.005-.58-1.824.042-1.824,1.381A4.385,4.385,0,0,0,35.562-14.392Z" transform="translate(44.573 210.284)" fill="#061728"/>
      <path id="Path_5002" data-name="Path 5002" d="M35.562-10.925,57.223,1.581c1,.58,1.824-.039,1.824-1.381a4.4,4.4,0,0,0-1.824-3.486l-21.661-12.5c-1.005-.578-1.824.039-1.824,1.379A4.381,4.381,0,0,0,35.562-10.925Z" transform="translate(44.573 214.868)" fill="#061728"/>
      <path id="Path_5003" data-name="Path 5003" d="M35.562-7.365,57.223,5.142c1,.578,1.824-.042,1.824-1.381A4.4,4.4,0,0,0,57.223.274L35.562-12.232c-1.005-.58-1.824.042-1.824,1.381A4.385,4.385,0,0,0,35.562-7.365Z" transform="translate(44.573 219.568)" fill="#061728"/>
      <path id="Path_5004" data-name="Path 5004" d="M64.549-18.621c0,4.095-2.491,5.975-5.559,4.2s-5.561-6.525-5.561-10.624,2.488-5.975,5.561-4.2S64.549-22.716,64.549-18.621Z" transform="translate(70.587 196.497)" fill="#8fb5d8"/>
      <path id="Path_5005" data-name="Path 5005" d="M61.326-21.381c0,2.628-1.6,3.832-3.568,2.7s-3.565-4.19-3.565-6.815,1.595-3.835,3.565-2.7S61.326-24.009,61.326-21.381Z" transform="translate(71.597 198.199)" fill="#061728"/>
      <path id="Path_5006" data-name="Path 5006" d="M32.516-58.234c0,4.146-2.521,6.051-5.631,4.257s-5.631-6.613-5.631-10.759,2.521-6.054,5.631-4.257S32.516-62.382,32.516-58.234Z" transform="translate(28.08 143.974)" fill="#fff"/>
      <path id="Path_5007" data-name="Path 5007" d="M28.677-61.67c0,2.347-1.425,3.426-3.185,2.409a7.623,7.623,0,0,1-3.185-6.086c0-2.347,1.425-3.424,3.185-2.407A7.626,7.626,0,0,1,28.677-61.67Z" transform="translate(29.472 145.997)" fill="#51b0e3"/>
      <path id="Path_5008" data-name="Path 5008" d="M11.942-100.15A8.638,8.638,0,0,0,7.56-99.01C3.728-96.8,1.532-91.573,1.532-84.677c0,13.391,8.145,28.989,18.163,34.771,4.213,2.43,8.249,2.778,11.367.977,3.832-2.212,6.028-7.437,6.028-14.335,0-13.391-8.145-28.984-18.158-34.769A14.171,14.171,0,0,0,11.942-100.15ZM26.682-46.26a15.658,15.658,0,0,1-7.75-2.326C8.493-54.611,0-70.8,0-84.677c0-7.46,2.479-13.168,6.8-15.658,3.612-2.084,8.189-1.736,12.9.98C30.129-93.33,38.622-77.14,38.622-63.264c0,7.46-2.477,13.168-6.8,15.659A10.139,10.139,0,0,1,26.682-46.26Z" transform="translate(0 101.681)" fill="#51b0e3"/>
      <path id="Path_5009" data-name="Path 5009" d="M2.8-94.046c4-1.843,8.865-1.223,13.356,1.7,4.666,3.036,9.54,9.029,13.038,16.028l.114.234-1.175.576-.114-.227c-3.3-6.55-7.869-12.154-12.209-14.976-4.092-2.667-8.53-3.252-12.188-1.62l-.232.1-.829-1.708Z" transform="translate(3.38 110.388)" fill="#51b0e3"/>
      <path id="Path_5010" data-name="Path 5010" d="M12.385-88.1a22.555,22.555,0,0,1,6.938,7.857L19.46-80l-1.184.583-.123-.211a20.219,20.219,0,0,0-6.116-6.836,7.7,7.7,0,0,0-6.009-1.4l-.2.049-.84-1.729.3-.084C7.45-90.242,9.9-89.71,12.385-88.1Z" transform="translate(6.583 117.277)" fill="#51b0e3"/>
      <path id="Path_5011" data-name="Path 5011" d="M14.316-90.2c3.76,2.451,7.328,6.659,10.044,11.854l.123.237-1.182.58-.118-.223a29.282,29.282,0,0,0-9.215-10.817c-3.257-2.117-6.425-2.693-9.159-1.657l-.223.084L3.752-91.85l.262-.1C7.108-93.182,10.664-92.574,14.316-90.2Z" transform="translate(4.957 113.714)" fill="#51b0e3"/>
      <path id="Path_5012" data-name="Path 5012" d="M9.306-86.994a5.384,5.384,0,0,1,2.256,4.29,2.139,2.139,0,0,1-.863,1.945,1.35,1.35,0,0,1-.678.176,2,2,0,0,1-.975-.288A5.31,5.31,0,0,1,6.79-85.16,2.141,2.141,0,0,1,7.653-87.1,1.622,1.622,0,0,1,9.306-86.994Z" transform="translate(8.971 120.703)" fill="#51b0e3"/>
      <path id="Path_5013" data-name="Path 5013" d="M37.674-48.768,37.3-48.88l-16.691-10.9-.079-.193-7.56-17.717a.679.679,0,0,1,.362-.9.687.687,0,0,1,.9.362L21.707-60.7,38.05-50.033a.687.687,0,0,1,.2.954A.687.687,0,0,1,37.674-48.768Z" transform="translate(17.056 132.118)" fill="#51b0e3"/>
    </g>
    <path id="Path_5545" data-name="Path 5545" d="M-82.656-13.7V-17.52h6.648V0H-80.28V-13.7ZM-59.784,0l-2.568-3.72L-64.512,0h-4.44l4.416-6.84-4.536-6.552h4.608L-61.9-9.7l2.16-3.7h4.44l-4.488,6.744L-55.176,0Zm17.376.168a8.667,8.667,0,0,1-3.312-.6,5.4,5.4,0,0,1-2.34-1.776,4.852,4.852,0,0,1-.924-2.832h4.368a2.119,2.119,0,0,0,.648,1.428,2.083,2.083,0,0,0,1.44.492,2.252,2.252,0,0,0,1.44-.42A1.4,1.4,0,0,0-40.56-4.7a1.378,1.378,0,0,0-.42-1.032,3.388,3.388,0,0,0-1.032-.672,16.6,16.6,0,0,0-1.74-.6,18.946,18.946,0,0,1-2.664-1.008A4.922,4.922,0,0,1-48.192-9.5a4.146,4.146,0,0,1-.744-2.568,4.416,4.416,0,0,1,1.7-3.684,7,7,0,0,1,4.44-1.332A7.083,7.083,0,0,1-38.3-15.756a4.768,4.768,0,0,1,1.824,3.708h-4.44a1.737,1.737,0,0,0-.6-1.284,2.114,2.114,0,0,0-1.416-.468,1.765,1.765,0,0,0-1.2.4,1.428,1.428,0,0,0-.456,1.14,1.413,1.413,0,0,0,.768,1.272,12.589,12.589,0,0,0,2.4.984,22.2,22.2,0,0,1,2.652,1.056,5.049,5.049,0,0,1,1.764,1.464,3.919,3.919,0,0,1,.744,2.472A4.851,4.851,0,0,1-37-2.4,5.127,5.127,0,0,1-39.12-.528,7.271,7.271,0,0,1-42.408.168Zm25.752-13.7a5.3,5.3,0,0,1,3.972,1.512,5.757,5.757,0,0,1,1.476,4.2V0h-4.08V-7.272a2.767,2.767,0,0,0-.684-2,2.5,2.5,0,0,0-1.884-.708,2.5,2.5,0,0,0-1.884.708,2.767,2.767,0,0,0-.684,2V0H-24.5V-7.272a2.767,2.767,0,0,0-.684-2,2.5,2.5,0,0,0-1.884-.708,2.5,2.5,0,0,0-1.884.708,2.767,2.767,0,0,0-.684,2V0h-4.1V-13.392h4.1v1.68a4.393,4.393,0,0,1,1.632-1.332,5.131,5.131,0,0,1,2.28-.492,5.546,5.546,0,0,1,2.7.648,4.645,4.645,0,0,1,1.86,1.848,5.4,5.4,0,0,1,1.9-1.8A5.123,5.123,0,0,1-16.656-13.536ZM-9.144-6.72a8,8,0,0,1,.78-3.624,5.818,5.818,0,0,1,2.124-2.4,5.545,5.545,0,0,1,3-.84,5.154,5.154,0,0,1,2.484.576A4.243,4.243,0,0,1,.888-11.5v-1.9h4.1V0H.888V-1.9A4.432,4.432,0,0,1-.78-.384,5.154,5.154,0,0,1-3.264.192,5.445,5.445,0,0,1-6.24-.66,5.887,5.887,0,0,1-8.364-3.084,8.08,8.08,0,0,1-9.144-6.72ZM.888-6.7A3.355,3.355,0,0,0,.036-9.12a2.768,2.768,0,0,0-2.076-.888,2.786,2.786,0,0,0-2.076.876A3.313,3.313,0,0,0-4.968-6.72a3.4,3.4,0,0,0,.852,2.436,2.751,2.751,0,0,0,2.076.9A2.768,2.768,0,0,0,.036-4.272,3.355,3.355,0,0,0,.888-6.7ZM12.072-11.16a5.414,5.414,0,0,1,1.8-1.74,4.641,4.641,0,0,1,2.4-.636v4.344H15.144a3.458,3.458,0,0,0-2.3.66,2.932,2.932,0,0,0-.768,2.316V0h-4.1V-13.392h4.1ZM25.7-3.48V0H23.616a5.111,5.111,0,0,1-3.48-1.092,4.513,4.513,0,0,1-1.248-3.564V-9.984H17.256v-3.408h1.632v-3.264h4.1v3.264H25.68v3.408H22.992v5.376a1.125,1.125,0,0,0,.288.864,1.406,1.406,0,0,0,.96.264ZM37.176-17.76V0h-4.1V-17.76ZM46.248.192a7.392,7.392,0,0,1-3.54-.84,6.151,6.151,0,0,1-2.472-2.4,7.171,7.171,0,0,1-.9-3.648,7.114,7.114,0,0,1,.912-3.636,6.188,6.188,0,0,1,2.5-2.412,7.463,7.463,0,0,1,3.552-.84,7.463,7.463,0,0,1,3.552.84,6.188,6.188,0,0,1,2.5,2.412A7.114,7.114,0,0,1,53.256-6.7a7.041,7.041,0,0,1-.924,3.636,6.248,6.248,0,0,1-2.52,2.412A7.534,7.534,0,0,1,46.248.192Zm0-3.552a2.674,2.674,0,0,0,2-.864A3.432,3.432,0,0,0,49.08-6.7a3.5,3.5,0,0,0-.8-2.472,2.6,2.6,0,0,0-1.98-.864A2.6,2.6,0,0,0,44.3-9.18,3.522,3.522,0,0,0,43.512-6.7a3.565,3.565,0,0,0,.78,2.472A2.524,2.524,0,0,0,46.248-3.36ZM54.624-6.7a7.494,7.494,0,0,1,.852-3.648,5.918,5.918,0,0,1,2.376-2.4,7.114,7.114,0,0,1,3.492-.84,6.64,6.64,0,0,1,4.212,1.32,6.228,6.228,0,0,1,2.22,3.72H63.408a2.1,2.1,0,0,0-2.136-1.536,2.153,2.153,0,0,0-1.8.876A4.052,4.052,0,0,0,58.8-6.7a4.052,4.052,0,0,0,.672,2.508,2.153,2.153,0,0,0,1.8.876,2.1,2.1,0,0,0,2.136-1.536h4.368a6.287,6.287,0,0,1-2.232,3.7,6.572,6.572,0,0,1-4.2,1.344,7.114,7.114,0,0,1-3.492-.84,5.918,5.918,0,0,1-2.376-2.4A7.494,7.494,0,0,1,54.624-6.7ZM78.144,0l-4.08-5.616V0h-4.1V-17.76h4.1v9.816l4.056-5.448h5.064l-5.568,6.72L83.232,0Z" transform="translate(180 3256.012)" fill="#1f2327"/>
    <path id="Path_5544" data-name="Path 5544" d="M-56.964-13.7V-17.52h6.648V0h-4.272V-13.7ZM-34.092,0-36.66-3.72-38.82,0h-4.44l4.416-6.84-4.536-6.552h4.608L-36.2-9.7l2.16-3.7h4.44l-4.488,6.744L-29.484,0ZM-14.22,0l-3.5-6.36h-.984V0h-4.1V-16.848h6.888a7.583,7.583,0,0,1,3.4.7,4.794,4.794,0,0,1,2.1,1.908,5.324,5.324,0,0,1,.7,2.7,5.015,5.015,0,0,1-.948,3,5.1,5.1,0,0,1-2.8,1.872L-9.588,0Zm-4.488-9.264h2.544a2.329,2.329,0,0,0,1.692-.552,2.084,2.084,0,0,0,.564-1.56,2.019,2.019,0,0,0-.564-1.512,2.329,2.329,0,0,0-1.692-.552h-2.544ZM-1.068.192a7.392,7.392,0,0,1-3.54-.84,6.151,6.151,0,0,1-2.472-2.4A7.171,7.171,0,0,1-7.98-6.7a7.114,7.114,0,0,1,.912-3.636,6.188,6.188,0,0,1,2.5-2.412,7.463,7.463,0,0,1,3.552-.84,7.463,7.463,0,0,1,3.552.84,6.188,6.188,0,0,1,2.5,2.412A7.114,7.114,0,0,1,5.94-6.7,7.041,7.041,0,0,1,5.016-3.06,6.248,6.248,0,0,1,2.5-.648,7.534,7.534,0,0,1-1.068.192Zm0-3.552a2.674,2.674,0,0,0,2-.864A3.432,3.432,0,0,0,1.764-6.7a3.5,3.5,0,0,0-.8-2.472,2.6,2.6,0,0,0-1.98-.864,2.6,2.6,0,0,0-1.992.852A3.522,3.522,0,0,0-3.8-6.7a3.565,3.565,0,0,0,.78,2.472A2.524,2.524,0,0,0-1.068-3.36ZM21.348-13.392V0h-4.1V-1.824A4.5,4.5,0,0,1,15.552-.4a5.163,5.163,0,0,1-2.364.54A5.3,5.3,0,0,1,10.476-.54,4.612,4.612,0,0,1,8.652-2.52,6.738,6.738,0,0,1,8-5.568v-7.824h4.08V-6.12a2.939,2.939,0,0,0,.7,2.088,2.44,2.44,0,0,0,1.872.744,2.47,2.47,0,0,0,1.9-.744,2.939,2.939,0,0,0,.7-2.088v-7.272ZM31.764-3.48V0H29.676A5.111,5.111,0,0,1,26.2-1.092a4.513,4.513,0,0,1-1.248-3.564V-9.984H23.316v-3.408h1.632v-3.264h4.1v3.264H31.74v3.408H29.052v5.376a1.125,1.125,0,0,0,.288.864,1.406,1.406,0,0,0,.96.264Zm14.9-3.432a10.477,10.477,0,0,1-.072,1.2H37.308a2.791,2.791,0,0,0,.8,1.908,2.456,2.456,0,0,0,1.74.66,2.157,2.157,0,0,0,2.136-1.3h4.368a5.994,5.994,0,0,1-1.212,2.376,6.068,6.068,0,0,1-2.2,1.656A7.054,7.054,0,0,1,40,.192a7.183,7.183,0,0,1-3.5-.84,5.975,5.975,0,0,1-2.4-2.4A7.409,7.409,0,0,1,33.228-6.7a7.494,7.494,0,0,1,.852-3.648,5.9,5.9,0,0,1,2.388-2.4A7.234,7.234,0,0,1,40-13.584a7.161,7.161,0,0,1,3.456.816,5.859,5.859,0,0,1,2.364,2.328A7.066,7.066,0,0,1,46.668-6.912Zm-4.2-1.08a2.11,2.11,0,0,0-.72-1.68,2.65,2.65,0,0,0-1.8-.624,2.6,2.6,0,0,0-1.74.6,2.665,2.665,0,0,0-.876,1.7ZM52.932-11.16a5.414,5.414,0,0,1,1.8-1.74,4.641,4.641,0,0,1,2.4-.636v4.344H56a3.458,3.458,0,0,0-2.3.66,2.932,2.932,0,0,0-.768,2.316V0h-4.1V-13.392h4.1Z" transform="translate(180 3721)" fill="#1f2327"/>
    <g id="Group_1219" data-name="Group 1219" transform="translate(111 3423)">
      <path id="Path_5389" data-name="Path 5389" d="M39.256-46.874l-6.074,3.506v-8.953l6.074-3.506a2.719,2.719,0,0,1,2.737-.273,2.72,2.72,0,0,1,1.142,2.51A8.576,8.576,0,0,1,39.256-46.874Z" transform="translate(94.37 92.838)" fill="#061728"/>
      <path id="Path_5390" data-name="Path 5390" d="M42-54.243a2.719,2.719,0,0,1,2.737-.273s-3-1.737-3.7-2.141a2.725,2.725,0,0,0-2.741.273l-6.074,3.506,3.706,2.141Z" transform="translate(91.629 91.254)" fill="#363f48"/>
      <path id="Path_5391" data-name="Path 5391" d="M38.475-89a5.228,5.228,0,0,0-5.228,5.228V36.092l.876-.507,3,1.73V47.09a8.073,8.073,0,0,0,5.051-.78,2.59,2.59,0,0,0,1.53-2.133V-83.772A5.228,5.228,0,0,0,38.475-89Z" transform="translate(94.555)" fill="#fff"/>
      <path id="Path_5392" data-name="Path 5392" d="M50.214-52.029c-1.98-3.433-5.193-5.289-7.177-4.144L28.68-47.885c1.984-1.142,5.193.711,7.177,4.144s1.984,7.142,0,8.288l14.357-8.288C52.2-44.887,52.2-48.6,50.214-52.029Z" transform="translate(81.566 92.399)" fill="#061728"/>
      <path id="Path_5393" data-name="Path 5393" d="M36.957-49.874c1.984,3.433,1.984,7.142,0,8.288s-5.2-.711-7.177-4.144-1.984-7.142,0-8.288S34.974-53.307,36.957-49.874Z" transform="translate(80.466 98.532)" fill="#3e323b"/>
      <path id="Path_5394" data-name="Path 5394" d="M36.957-49.874c1.984,3.433,1.984,7.142,0,8.288s-5.2-.711-7.177-4.144-1.984-7.142,0-8.288S34.974-53.307,36.957-49.874Z" transform="translate(80.466 98.532)" fill="#3e323b"/>
      <path id="Path_5395" data-name="Path 5395" d="M55.784,27.208,4.321-2.5A4.644,4.644,0,0,1,2.214-6.15,3.462,3.462,0,0,1,3.656-9.341a3.47,3.47,0,0,1,3.487.346L52.967,17.46a10.89,10.89,0,0,1,4.924,8.534,1.283,1.283,0,0,1-2.107,1.215Z" transform="translate(6.297 225.621)" fill="#061728"/>
      <path id="Path_5396" data-name="Path 5396" d="M61.2,16.056,15.377-10.395a3.447,3.447,0,0,0-3.5-.334c-.819.481-8.222,4.751-9.279,5.362a3.471,3.471,0,0,1,3.46.354L51.88,21.441A10.89,10.89,0,0,1,56.8,29.975a1.474,1.474,0,0,1-.619,1.365s8.945-5.163,9.329-5.385a1.477,1.477,0,0,0,.615-1.361A10.9,10.9,0,0,0,61.2,16.056Z" transform="translate(7.383 221.64)" fill="#363f48"/>
      <path id="Path_5397" data-name="Path 5397" d="M67.857,20.24,16.39-9.47a4.656,4.656,0,0,1-2.107-3.648,3.462,3.462,0,0,1,1.442-3.191,3.47,3.47,0,0,1,3.487.346L65.036,10.492a10.882,10.882,0,0,1,4.928,8.534,1.284,1.284,0,0,1-2.107,1.215Z" transform="translate(40.621 205.804)" fill="#061728"/>
      <path id="Path_5398" data-name="Path 5398" d="M73.275,9.089,27.45-17.365a3.452,3.452,0,0,0-3.506-.331c-.819.481-8.219,4.751-9.279,5.362a3.461,3.461,0,0,1,3.46.354L63.949,14.475a10.882,10.882,0,0,1,4.928,8.534,1.476,1.476,0,0,1-.623,1.365l9.329-5.385a1.48,1.48,0,0,0,.615-1.365A10.89,10.89,0,0,0,73.275,9.089Z" transform="translate(41.708 201.821)" fill="#363f48"/>
      <path id="Path_5399" data-name="Path 5399" d="M89.225,125.291l-66.29,38.271c-4.394,2.537-8.372,2.775-11.251,1.115s-4.663-5.228-4.663-10.3l0-110.981c0-30.425,21.557-67.766,47.908-82.977l34.3-19.8c4.39-2.533,8.368-2.775,11.248-1.111s4.663,5.224,4.663,10.3l0,147.933C105.136,107.839,97.978,120.24,89.225,125.291Z" transform="translate(19.956 78.058)" fill="#c6dbf1"/>
      <path id="Path_5400" data-name="Path 5400" d="M25.57-27.115a17.3,17.3,0,0,0-7.826,13.558c0,4.99,3.506,7.015,7.826,4.521A17.3,17.3,0,0,0,33.4-22.594C33.4-27.584,29.895-29.61,25.57-27.115Z" transform="translate(50.464 172.965)" fill="#51b0e3"/>
      <path id="Path_5401" data-name="Path 5401" d="M43.27-32.7c-3.759-.742-8.176.246-12.8,2.918a43.441,43.441,0,0,0-12.8,11.866c-1.98,2.679-2.187,6.085-.5,7.058,1.3.75,3.325-.2,4.855-2.256a28.844,28.844,0,0,1,8.453-7.8c3.048-1.761,5.966-2.426,8.453-1.96,1.53.284,3.556-1.1,4.851-3.348C45.457-29.144,45.25-32.308,43.27-32.7Z" transform="translate(45.569 159.438)" fill="#51b0e3"/>
      <path id="Path_5402" data-name="Path 5402" d="M59.916-36.421C46.8-40.788,28.138-30.013,15.022-10.5c-1.807,2.687-1.964,5.881-.334,6.819,1.38.8,3.571-.338,5.1-2.622C30.129-21.66,44.813-30.136,55.15-26.715c1.534.507,3.725-.88,5.1-3.275C61.881-32.808,61.723-35.822,59.916-36.421Z" transform="translate(38.564 146.791)" fill="#51b0e3"/>
      <path id="Path_5403" data-name="Path 5403" d="M75.926-40.162C57.687-47.419,30.782-31.89,12.542-3.571,10.824-.9,10.717,2.176,12.308,3.095c1.411.815,3.663-.381,5.189-2.748C32.885-23.54,55.584-36.645,70.975-30.525c1.522.607,3.775-.8,5.186-3.241C77.752-36.522,77.645-39.478,75.926-40.162Z" transform="translate(31.798 133.845)" fill="#51b0e3"/>
      <path id="Path_5404" data-name="Path 5404" d="M26.977,165.9l0-110.981c0-30.425,21.557-67.766,47.908-82.977l34.3-19.8c4.39-2.533,8.368-2.775,11.248-1.111,0,0-24.094-13.912-26.973-15.576S86.594-65.97,82.2-63.433l-34.292,19.8C21.557-28.421,0,8.92,0,39.345L0,150.326c0,5.074,1.784,8.638,4.663,10.3S31.64,176.2,31.64,176.2C28.761,174.539,26.977,170.972,26.977,165.9Z" transform="translate(0 66.535)" fill="#fff"/>
      <path id="Path_5405" data-name="Path 5405" d="M7.67-34.759c-3.106-1.791-5.62-.338-5.62,3.244l0,90.588a12.439,12.439,0,0,0,5.62,9.737c3.106,1.791,5.624.338,5.624-3.248l0-90.584A12.421,12.421,0,0,0,7.67-34.759Z" transform="translate(5.819 152.079)" fill="#061728"/>
      <path id="Path_5406" data-name="Path 5406" d="M6.083-14.462C4.161-15.573,2.6-14.673,2.6-12.455a7.68,7.68,0,0,0,3.479,6.02C8-5.328,9.558-6.224,9.558-8.442A7.681,7.681,0,0,0,6.083-14.462Z" transform="translate(7.406 210.634)" fill="#51b0e3"/>
      <path id="Path_5407" data-name="Path 5407" d="M6.083-19.854C4.161-20.962,2.6-20.062,2.6-17.848a7.687,7.687,0,0,0,3.479,6.024c1.918,1.107,3.475.208,3.475-2.01A7.693,7.693,0,0,0,6.083-19.854Z" transform="translate(7.406 195.304)" fill="#c6dbf1"/>
      <path id="Path_5408" data-name="Path 5408" d="M6.083-25.244C4.161-26.351,2.6-25.455,2.6-23.237a7.675,7.675,0,0,0,3.479,6.02c1.918,1.111,3.475.211,3.475-2.007A7.687,7.687,0,0,0,6.083-25.244Z" transform="translate(7.406 179.974)" fill="#fff"/>
      <path id="Path_5409" data-name="Path 5409" d="M6.083-30.633C4.161-31.744,2.6-30.844,2.6-28.626a7.675,7.675,0,0,0,3.479,6.02C8-21.5,9.558-22.395,9.558-24.613A7.681,7.681,0,0,0,6.083-30.633Z" transform="translate(7.406 164.643)" fill="#fff"/>
    </g>
  </g>
</svg>
