<svg xmlns="http://www.w3.org/2000/svg" width="54.805" height="11" viewBox="0 0 54.805 11">
  <g id="hand-drawn-lines" transform="translate(-741 -2070.039)">
    <path id="Path_2543" data-name="Path 2543" d="M51.778-10.525c-2.927-.339-7.094-.514-7.094-.514l-18.41.488c-6.939.21-13.882.464-20.824.836L.91-9.458A.733.733,0,0,0,.7-9.334C-.66-8.07.271-7.126.9-6.776a.225.225,0,0,0,.181.057L5.6-6.977c6.8-.365,13.6-.618,20.411-.827L44.395-8.3s7.649-.655,7.328-.708C54.783-9.415,56.743-10.076,51.778-10.525Z" transform="translate(741 2081.077)" fill="#5271ff"/>
    <path id="Path_2544" data-name="Path 2544" d="M45.183-3.977c-2.918-.418-7.087-.677-7.087-.677l-6.829.075c-2.72.05-5.441.112-8.164.219-5.444.2-10.892.546-16.329,1.1-1.514.162-3.028.33-4.54.53a.742.742,0,0,0-.2.138C.757-1.236,1.763-.359,2.4-.049A.231.231,0,0,0,2.586,0C4.073-.2,5.564-.368,7.057-.53c5.27-.54,10.568-.885,15.877-1.085,2.655-.108,5.313-.168,7.972-.222l6.849-.082,3.785-.254c1.873-.127,3.708-.257,3.548-.287C48.157-2.787,50.137-3.394,45.183-3.977Z" transform="translate(741 2081.039)" fill="#5271ff"/>
  </g>
</svg>
