<svg id="wave-w-outline" xmlns="http://www.w3.org/2000/svg" width="1536" height="219.636" viewBox="0 0 1536 219.636">
  <path id="Intersection_3" data-name="Intersection 3" d="M-13624,13237v-55.783s212.249-145.944,383-142.8,200,133.665,300,155.37c53.485,11.608,44.746-10.609,43.026-32.83-1.492-19.32,2.319-38.641,56.975-35.716,117.5,6.283,227.5,99.395,370,93.682s104.249-107.1,200-116.529,183,78.826,183,78.826V13237Z" transform="translate(13624 -13038.364)" fill="#2f3842" opacity="0.08"/>
  <path id="Intersection_1" data-name="Intersection 1" d="M-13624,13237v-55.783s212.249-145.944,383-142.8,200,133.665,300,155.37c53.485,11.608,44.746-10.609,43.026-32.83-1.492-19.32,2.319-38.641,56.975-35.716,117.5,6.283,227.5,99.395,370,93.682s104.249-107.1,200-116.529,183,78.826,183,78.826V13237Z" transform="translate(13624 -13017.364)" fill="#2f3842"/>
</svg>
