<svg xmlns="http://www.w3.org/2000/svg" width="1536" height="705.571" viewBox="0 0 1536 705.571">
  <g id="Group_1766" data-name="Group 1766" transform="translate(0 -3053.52)">
    <g id="wave-graph" transform="translate(0 3613.155)">
      <path id="section-top-wave" d="M0,145.936V90.154s179.587,49.737,272.74,11.069,40.241-42.441,154.485-89.9,200.732,68.19,300.732,89.9C781.5,112.844,781.812,91.071,788.582,69.3c5.874-18.891,16.611-37.782,71.2-34.862,117.5,6.283,150.722,99.132,293.222,93.42s104.25-107.1,200-116.528,183,78.827,183,78.827v55.782Z" transform="translate(1536 145.936) rotate(180)" fill="#2f3842"/>
    </g>
    <rect id="Rectangle_901" data-name="Rectangle 901" width="1536" height="342" transform="translate(0 3272.155)" fill="#2f3842"/>
    <g id="wave-w-outline" transform="translate(0 3053.52)">
      <path id="Intersection_3" data-name="Intersection 3" d="M-13624,13237v-55.783s212.249-145.944,383-142.8,200,133.665,300,155.37c53.485,11.608,44.746-10.609,43.026-32.83-1.492-19.32,2.319-38.641,56.975-35.716,117.5,6.283,227.5,99.395,370,93.682s104.249-107.1,200-116.529,183,78.826,183,78.826V13237Z" transform="translate(13624 -13038.364)" fill="#2f3842" opacity="0.08"/>
      <path id="Intersection_1" data-name="Intersection 1" d="M-13624,13237v-55.783s212.249-145.944,383-142.8,200,133.665,300,155.37c53.485,11.608,44.746-10.609,43.026-32.83-1.492-19.32,2.319-38.641,56.975-35.716,117.5,6.283,227.5,99.395,370,93.682s104.249-107.1,200-116.529,183,78.826,183,78.826V13237Z" transform="translate(13624 -13017.364)" fill="#2f3842"/>
    </g>
  </g>
</svg>
