<svg id="Logo" xmlns="http://www.w3.org/2000/svg" width="115.977" height="27.827" viewBox="0 0 115.977 27.827">
  <path id="Path_1" data-name="Path 1" d="M112.354-70.6a8.156,8.156,0,0,0-8.313-8.385h-5.29v16.771h5.29a8.156,8.156,0,0,0,8.313-8.386m4.391,0a12.225,12.225,0,0,1-12.632,12.416H94.468V-83.015h9.645A12.225,12.225,0,0,1,116.745-70.6" transform="translate(-62.829 83.039)" fill="#1f2327"/>
  <path id="Path_2" data-name="Path 2" d="M169.328-57.118h10.9a5.53,5.53,0,0,0-5.47-4.211,5.518,5.518,0,0,0-5.434,4.211m15.151,3.311H169.292a5.541,5.541,0,0,0,5.65,4.426,5.853,5.853,0,0,0,4.894-2.375H184.3a9.945,9.945,0,0,1-9.429,6.01,9.521,9.521,0,0,1-9.9-9.609,9.494,9.494,0,0,1,9.789-9.609,9.51,9.51,0,0,1,9.825,9.645,11.063,11.063,0,0,1-.108,1.512" transform="translate(-109.72 71.033)" fill="#1f2327"/>
  <path id="Path_3" data-name="Path 3" d="M231.354-58.183h4.283V-83.015h-4.283Z" transform="translate(-153.868 83.039)" fill="#1f2327" fill-rule="evenodd"/>
  <path id="Path_4" data-name="Path 4" d="M256.423-57.118h10.9a5.529,5.529,0,0,0-5.47-4.211,5.518,5.518,0,0,0-5.434,4.211m15.151,3.311H256.387a5.541,5.541,0,0,0,5.65,4.426,5.853,5.853,0,0,0,4.894-2.375h4.462a9.945,9.945,0,0,1-9.429,6.01,9.521,9.521,0,0,1-9.9-9.609,9.494,9.494,0,0,1,9.789-9.609,9.511,9.511,0,0,1,9.825,9.645,11.061,11.061,0,0,1-.108,1.512" transform="translate(-167.645 71.033)" fill="#1f2327"/>
  <path id="Path_5" data-name="Path 5" d="M318.59-69.864v8.385a2.433,2.433,0,0,0,2.7,2.591h1.835v3.707h-2.411c-3.995,0-6.154-2.016-6.154-5.65v-9.033h-3.1v-3.671h1.871a1.292,1.292,0,0,0,1.439-1.439V-78.5h3.815v4.966h4.535v3.671Z" transform="translate(-207.148 80.037)" fill="#1f2327"/>
  <path id="Path_6" data-name="Path 6" d="M11.807-63.812a.931.931,0,0,1-.954-.941.941.941,0,0,1,.954-.953.934.934,0,0,1,.953.953.924.924,0,0,1-.953.941m.266-19.274H0v24.815H4.616L4.577-78.509H20.12L9.163-74.188v18.93l7.92-3.953a12.346,12.346,0,0,0,1.8-.9l.082-.041.008-.016A12.108,12.108,0,0,0,24.7-70.678,12.217,12.217,0,0,0,12.073-83.086" transform="translate(0 83.086)" fill="#5271ff"/>
</svg>
